<?xml version="1.0" standalone="no"?>
 <!DOCTYPE svg PUBLIC "-//W3C//DTD SVG 1.1//EN" 
 "http://www.w3.org/Graphics/SVG/1.1/DTD/svg11.dtd"> 
<svg
  xmlns:svg="http://www.w3.org/2000/svg"
  xmlns="http://www.w3.org/2000/svg"
  xmlns:xlink="http://www.w3.org/1999/xlink"
  version="1.1"
  width="297.0022mm" height="210.0072mm" viewBox="0.0000 0.0000 297.0022 210.0072">
<title>SVG Image created as temp_proj-User_9.svg date 2025/02/27 22:43:08 </title>
  <desc>Image generated by PCBNEW </desc>
<g style="fill:#000000; fill-opacity:1.0000;stroke:#000000; stroke-opacity:1.0000;
stroke-linecap:round; stroke-linejoin:round;"
 transform="translate(0 0) scale(1 1)">
</g>
<g style="fill:none; stroke:none;">
<path d="M128.0150 120.0000
L128.0150 139.0500
" />
<path d="M145.3400 145.6750
L144.5400 145.6750
" />
<path d="M118.4750 103.4750
L132.4750 103.4750
" />
<path d="M163.5900 126.6250
L163.5900 132.4250
" />
<path d="M113.4250 66.3750
L114.2250 66.3750
" />
<path d="M94.3750 99.6375
L94.3750 105.4375
" />
<path d="M148.7900 126.6250
L148.7900 123.5250
" />
<path d="M144.5400 145.6750
L144.5400 151.4750
" />
<path d="M118.4750 69.4750
L117.6750 69.4750
" />
<path d="M98.6250 104.4750
L99.4250 104.4750
" />
<path d="M94.3750 70.4375
L94.3750 71.4375
" />
<path d="M148.7900 161.6250
L149.5900 161.6250
" />
<path d="M94.3750 96.5375
L95.1750 96.5375
" />
<path d="M166.1150 177.1500
L166.1150 158.1000
" />
<path d="M77.8500 93.0125
L77.8500 112.0625
" />
<path d="M42.2750 96.8550
L42.2750 95.8550
" />
<path d="M111.4900 135.5250
L110.6900 135.5250
" />
<path d="M132.4750 85.4250
L133.2750 85.4250
" />
<path d="M60.5250 94.8850
L60.5250 91.7850
" />
<path d="M56.2750 115.9050
L57.0750 115.9050
" />
<path d="M95.1750 99.6375
L94.3750 99.6375
" />
<path d="M23.2250 80.9050
L22.4250 80.9050
" />
<path d="M38.0250 99.9550
L37.2250 99.9550
" />
<path d="M99.4250 94.3250
L99.4250 88.5250
" />
<path d="M114.2250 66.3750
L114.2250 69.4750
" />
<path d="M80.3750 86.3875
L80.3750 80.5875
" />
<path d="M98.6250 66.3750
L99.4250 66.3750
" />
<path d="M149.5900 173.6250
L148.7900 173.6250
" />
<path d="M98.6250 113.3750
L99.4250 113.3750
" />
<path d="M149.5900 123.5250
L149.5900 122.5250
" />
<path d="M39.7500 74.2800
L39.7500 93.3300
" />
<path d="M117.6750 113.3750
L118.4750 113.3750
" />
<path d="M37.2250 124.8050
L38.0250 124.8050
" />
<path d="M98.6250 47.3250
L99.4250 47.3250
" />
<path d="M130.5400 154.5750
L129.7400 154.5750
" />
<path d="M115.9500 100.9500
L115.9500 120.0000
" />
<path d="M41.4750 127.9050
L41.4750 124.8050
" />
<path d="M118.4750 60.3250
L118.4750 59.3250
" />
<path d="M118.4750 94.3250
L118.4750 88.5250
" />
<path d="M132.4750 65.3750
L132.4750 66.3750
" />
<path d="M111.4900 123.5250
L111.4900 122.5250
" />
<path d="M113.4250 117.4750
L99.4250 117.4750
" />
<path d="M60.5250 53.6850
L61.3250 53.6850
" />
<path d="M118.4750 75.2750
L118.4750 69.4750
" />
<path d="M99.4250 60.3250
L99.4250 59.3250
" />
<path d="M115.9500 43.8000
L96.9000 43.8000
" />
<path d="M111.4900 122.5250
L125.4900 122.5250
" />
<path d="M80.3750 61.5375
L79.5750 61.5375
" />
<path d="M118.4750 97.4250
L117.6750 97.4250
" />
<path d="M38.0250 115.9050
L38.0250 119.0050
" />
<path d="M113.4250 56.2250
L114.2250 56.2250
" />
<path d="M61.3250 62.8350
L75.3250 62.8350
" />
<path d="M56.2750 90.8050
L42.2750 90.8050
" />
<path d="M117.6750 85.4250
L118.4750 85.4250
" />
<path d="M76.1250 105.0350
L75.3250 105.0350
" />
<path d="M77.8500 60.3100
L58.8000 60.3100
" />
<path d="M42.2750 80.9050
L41.4750 80.9050
" />
<path d="M163.5900 145.6750
L163.5900 151.4750
" />
<path d="M56.2750 58.7550
L57.0750 58.7550
" />
<path d="M163.5900 123.5250
L164.3900 123.5250
" />
<path d="M99.4250 79.3750
L99.4250 78.3750
" />
<path d="M113.4250 59.3250
L113.4250 60.3250
" />
<path d="M41.4750 96.8550
L42.2750 96.8550
" />
<path d="M80.3750 48.2875
L80.3750 42.4875
" />
<path d="M130.5400 135.5250
L129.7400 135.5250
" />
<path d="M147.0650 139.0500
L128.0150 139.0500
" />
<path d="M75.3250 100.9350
L75.3250 101.9350
" />
<path d="M96.9000 100.9500
L115.9500 100.9500
" />
<path d="M79.5750 51.3875
L79.5750 48.2875
" />
<path d="M114.2250 50.4250
L113.4250 50.4250
" />
<path d="M80.3750 109.5375
L80.3750 108.5375
" />
<path d="M149.5900 155.5750
L149.5900 154.5750
" />
<path d="M56.2750 108.8550
L56.2750 109.8550
" />
<path d="M20.7000 112.3800
L20.7000 131.4300
" />
<path d="M38.0250 86.7050
L38.0250 89.8050
" />
<path d="M135.0000 81.9000
L115.9500 81.9000
" />
<path d="M115.9500 100.9500
L115.9500 81.9000
" />
<path d="M126.2900 132.4250
L126.2900 135.5250
" />
<path d="M164.3900 170.5250
L164.3900 173.6250
" />
<path d="M144.5400 126.6250
L144.5400 132.4250
" />
<path d="M79.5750 86.3875
L80.3750 86.3875
" />
<path d="M113.4250 85.4250
L114.2250 85.4250
" />
<path d="M113.4250 47.3250
L114.2250 47.3250
" />
<path d="M132.4750 117.4750
L118.4750 117.4750
" />
<path d="M75.3250 91.7850
L76.1250 91.7850
" />
<path d="M80.3750 95.5375
L94.3750 95.5375
" />
<path d="M98.6250 88.5250
L98.6250 85.4250
" />
<path d="M132.4750 78.3750
L132.4750 79.3750
" />
<path d="M133.2750 94.3250
L133.2750 97.4250
" />
<path d="M60.5250 66.9350
L60.5250 63.8350
" />
<path d="M95.1750 70.4375
L94.3750 70.4375
" />
<path d="M22.4250 127.9050
L22.4250 124.8050
" />
<path d="M148.7900 173.6250
L148.7900 170.5250
" />
<path d="M75.3250 114.9350
L61.3250 114.9350
" />
<path d="M117.6750 88.5250
L117.6750 85.4250
" />
<path d="M108.9650 120.0000
L108.9650 139.0500
" />
<path d="M61.3250 110.8350
L61.3250 105.0350
" />
<path d="M94.3750 105.4375
L95.1750 105.4375
" />
<path d="M130.5400 132.4250
L130.5400 126.6250
" />
<path d="M149.5900 136.5250
L149.5900 135.5250
" />
<path d="M58.8000 79.3600
L77.8500 79.3600
" />
<path d="M163.5900 164.7250
L163.5900 170.5250
" />
<path d="M130.5400 142.5750
L130.5400 141.5750
" />
<path d="M76.1250 113.9350
L75.3250 113.9350
" />
<path d="M96.9000 93.0125
L77.8500 93.0125
" />
<path d="M79.5750 89.4875
L79.5750 86.3875
" />
<path d="M132.4750 69.4750
L132.4750 75.2750
" />
<path d="M113.4250 103.4750
L113.4250 104.4750
" />
<path d="M77.8500 35.8625
L77.8500 54.9125
" />
<path d="M149.5900 145.6750
L148.7900 145.6750
" />
<path d="M42.2750 127.9050
L41.4750 127.9050
" />
<path d="M115.9500 81.9000
L135.0000 81.9000
" />
<path d="M57.0750 99.9550
L56.2750 99.9550
" />
<path d="M76.1250 47.8850
L75.3250 47.8850
" />
<path d="M125.4900 123.5250
L126.2900 123.5250
" />
<path d="M79.5750 96.5375
L80.3750 96.5375
" />
<path d="M23.2250 77.8050
L23.2250 76.8050
" />
<path d="M148.7900 151.4750
L149.5900 151.4750
" />
<path d="M98.6250 107.5750
L98.6250 104.4750
" />
<path d="M37.2250 80.9050
L37.2250 86.7050
" />
<path d="M38.0250 119.0050
L37.2250 119.0050
" />
<path d="M99.4250 85.4250
L99.4250 84.4250
" />
<path d="M132.4750 116.4750
L132.4750 117.4750
" />
<path d="M149.5900 160.6250
L163.5900 160.6250
" />
<path d="M147.0650 139.0500
L147.0650 120.0000
" />
<path d="M60.5250 72.7350
L61.3250 72.7350
" />
<path d="M96.9000 73.9625
L96.9000 54.9125
" />
<path d="M113.4250 97.4250
L113.4250 98.4250
" />
<path d="M133.2750 88.5250
L132.4750 88.5250
" />
<path d="M58.8000 131.4300
L58.8000 112.3800
" />
<path d="M132.4750 84.4250
L132.4750 85.4250
" />
<path d="M76.1250 66.9350
L75.3250 66.9350
" />
<path d="M23.2250 96.8550
L23.2250 95.8550
" />
<path d="M77.8500 98.4100
L58.8000 98.4100
" />
<path d="M132.4750 50.4250
L132.4750 56.2250
" />
<path d="M94.3750 57.4375
L94.3750 58.4375
" />
<path d="M125.4900 135.5250
L125.4900 136.5250
" />
<path d="M145.3400 142.5750
L145.3400 145.6750
" />
<path d="M76.1250 44.7850
L76.1250 47.8850
" />
<path d="M125.4900 132.4250
L126.2900 132.4250
" />
<path d="M132.4750 47.3250
L133.2750 47.3250
" />
<path d="M115.9500 62.8500
L115.9500 43.8000
" />
<path d="M56.2750 127.9050
L56.2750 128.9050
" />
<path d="M99.4250 47.3250
L99.4250 46.3250
" />
<path d="M117.6750 97.4250
L117.6750 94.3250
" />
<path d="M163.5900 155.5750
L149.5900 155.5750
" />
<path d="M144.5400 141.5750
L144.5400 142.5750
" />
<path d="M99.4250 117.4750
L99.4250 116.4750
" />
<path d="M94.3750 77.4875
L95.1750 77.4875
" />
<path d="M132.4750 94.3250
L133.2750 94.3250
" />
<path d="M41.4750 89.8050
L41.4750 86.7050
" />
<path d="M57.0750 124.8050
L57.0750 127.9050
" />
<path d="M129.7400 132.4250
L130.5400 132.4250
" />
<path d="M22.4250 119.0050
L22.4250 115.9050
" />
<path d="M75.3250 56.7850
L75.3250 57.7850
" />
<path d="M95.1750 105.4375
L95.1750 108.5375
" />
<path d="M164.3900 123.5250
L164.3900 126.6250
" />
<path d="M80.3750 67.3375
L80.3750 61.5375
" />
<path d="M56.2750 95.8550
L56.2750 96.8550
" />
<path d="M20.7000 131.4300
L39.7500 131.4300
" />
<path d="M37.2250 89.8050
L37.2250 90.8050
" />
<path d="M37.2250 105.7550
L38.0250 105.7550
" />
<path d="M38.0250 108.8550
L37.2250 108.8550
" />
<path d="M58.8000 93.3300
L39.7500 93.3300
" />
<path d="M133.2750 75.2750
L133.2750 78.3750
" />
<path d="M132.4750 113.3750
L133.2750 113.3750
" />
<path d="M96.9000 93.0125
L96.9000 73.9625
" />
<path d="M77.8500 79.3600
L58.8000 79.3600
" />
<path d="M80.3750 71.4375
L80.3750 70.4375
" />
<path d="M95.1750 80.5875
L94.3750 80.5875
" />
<path d="M111.4900 136.5250
L111.4900 135.5250
" />
<path d="M135.0000 120.0000
L135.0000 100.9500
" />
<path d="M94.3750 89.4875
L94.3750 90.4875
" />
<path d="M80.3750 105.4375
L80.3750 99.6375
" />
<path d="M75.3250 94.8850
L75.3250 95.8850
" />
<path d="M114.2250 97.4250
L113.4250 97.4250
" />
<path d="M118.4750 56.2250
L118.4750 50.4250
" />
<path d="M77.8500 54.9125
L77.8500 73.9625
" />
<path d="M145.3400 135.5250
L144.5400 135.5250
" />
<path d="M22.4250 99.9550
L22.4250 96.8550
" />
<path d="M166.1150 120.0000
L147.0650 120.0000
" />
<path d="M57.0750 77.8050
L57.0750 80.9050
" />
<path d="M94.3750 48.2875
L95.1750 48.2875
" />
<path d="M148.7900 142.5750
L149.5900 142.5750
" />
<path d="M95.1750 61.5375
L94.3750 61.5375
" />
<path d="M58.8000 112.3800
L39.7500 112.3800
" />
<path d="M77.8500 54.9125
L96.9000 54.9125
" />
<path d="M145.3400 123.5250
L145.3400 126.6250
" />
<path d="M163.5900 142.5750
L164.3900 142.5750
" />
<path d="M60.5250 44.7850
L61.3250 44.7850
" />
<path d="M164.3900 126.6250
L163.5900 126.6250
" />
<path d="M79.5750 67.3375
L80.3750 67.3375
" />
<path d="M41.4750 105.7550
L42.2750 105.7550
" />
<path d="M80.3750 42.4875
L79.5750 42.4875
" />
<path d="M126.2900 135.5250
L125.4900 135.5250
" />
<path d="M61.3250 43.7850
L75.3250 43.7850
" />
<path d="M149.5900 132.4250
L149.5900 126.6250
" />
<path d="M132.4750 46.3250
L132.4750 47.3250
" />
<path d="M94.3750 58.4375
L95.1750 58.4375
" />
<path d="M118.4750 117.4750
L118.4750 116.4750
" />
<path d="M76.1250 94.8850
L75.3250 94.8850
" />
<path d="M128.0150 158.1000
L147.0650 158.1000
" />
<path d="M117.6750 104.4750
L118.4750 104.4750
" />
<path d="M149.5900 142.5750
L149.5900 141.5750
" />
<path d="M99.4250 65.3750
L113.4250 65.3750
" />
<path d="M164.3900 151.4750
L164.3900 154.5750
" />
<path d="M76.1250 75.8350
L75.3250 75.8350
" />
<path d="M75.3250 82.8850
L76.1250 82.8850
" />
<path d="M95.1750 58.4375
L95.1750 61.5375
" />
<path d="M113.4250 116.4750
L113.4250 117.4750
" />
<path d="M144.5400 122.5250
L144.5400 123.5250
" />
<path d="M39.7500 74.2800
L20.7000 74.2800
" />
<path d="M96.9000 62.8500
L96.9000 81.9000
" />
<path d="M132.4750 79.3750
L118.4750 79.3750
" />
<path d="M37.2250 128.9050
L23.2250 128.9050
" />
<path d="M164.3900 164.7250
L163.5900 164.7250
" />
<path d="M42.2750 95.8550
L56.2750 95.8550
" />
<path d="M99.4250 46.3250
L113.4250 46.3250
" />
<path d="M118.4750 66.3750
L118.4750 65.3750
" />
<path d="M57.0750 127.9050
L56.2750 127.9050
" />
<path d="M37.2250 76.8050
L37.2250 77.8050
" />
<path d="M56.2750 67.6550
L57.0750 67.6550
" />
<path d="M114.2250 104.4750
L114.2250 107.5750
" />
<path d="M56.2750 119.0050
L56.2750 124.8050
" />
<path d="M114.2250 94.3250
L114.2250 97.4250
" />
<path d="M135.0000 62.8500
L135.0000 43.8000
" />
<path d="M75.3250 85.9850
L75.3250 91.7850
" />
<path d="M76.1250 56.7850
L75.3250 56.7850
" />
<path d="M75.3250 62.8350
L75.3250 63.8350
" />
<path d="M61.3250 105.0350
L60.5250 105.0350
" />
<path d="M118.4750 65.3750
L132.4750 65.3750
" />
<path d="M77.8500 98.4100
L77.8500 79.3600
" />
<path d="M75.3250 44.7850
L76.1250 44.7850
" />
<path d="M75.3250 110.8350
L76.1250 110.8350
" />
<path d="M80.3750 76.4875
L94.3750 76.4875
" />
<path d="M125.4900 136.5250
L111.4900 136.5250
" />
<path d="M42.2750 114.9050
L56.2750 114.9050
" />
<path d="M95.1750 42.4875
L94.3750 42.4875
" />
<path d="M118.4750 47.3250
L118.4750 46.3250
" />
<path d="M38.0250 89.8050
L37.2250 89.8050
" />
<path d="M23.2250 89.8050
L22.4250 89.8050
" />
<path d="M61.3250 76.8350
L61.3250 75.8350
" />
<path d="M56.2750 76.8050
L56.2750 77.8050
" />
<path d="M76.1250 63.8350
L76.1250 66.9350
" />
<path d="M117.6750 69.4750
L117.6750 66.3750
" />
<path d="M41.4750 124.8050
L42.2750 124.8050
" />
<path d="M118.4750 79.3750
L118.4750 78.3750
" />
<path d="M60.5250 101.9350
L61.3250 101.9350
" />
<path d="M60.5250 75.8350
L60.5250 72.7350
" />
<path d="M98.6250 69.4750
L98.6250 66.3750
" />
<path d="M61.3250 100.9350
L75.3250 100.9350
" />
<path d="M133.2750 66.3750
L133.2750 69.4750
" />
<path d="M56.2750 89.8050
L56.2750 90.8050
" />
<path d="M39.7500 112.3800
L39.7500 131.4300
" />
<path d="M118.4750 98.4250
L118.4750 97.4250
" />
<path d="M99.4250 66.3750
L99.4250 65.3750
" />
<path d="M149.5900 170.5250
L149.5900 164.7250
" />
<path d="M125.4900 122.5250
L125.4900 123.5250
" />
<path d="M42.2750 109.8550
L42.2750 108.8550
" />
<path d="M37.2250 86.7050
L38.0250 86.7050
" />
<path d="M58.8000 74.2800
L58.8000 55.2300
" />
<path d="M61.3250 85.9850
L60.5250 85.9850
" />
<path d="M61.3250 114.9350
L61.3250 113.9350
" />
<path d="M38.0250 124.8050
L38.0250 127.9050
" />
<path d="M61.3250 91.7850
L61.3250 85.9850
" />
<path d="M132.4750 60.3250
L118.4750 60.3250
" />
<path d="M96.9000 81.9000
L115.9500 81.9000
" />
<path d="M130.5400 141.5750
L144.5400 141.5750
" />
<path d="M166.1150 158.1000
L166.1150 139.0500
" />
<path d="M133.2750 47.3250
L133.2750 50.4250
" />
<path d="M79.5750 58.4375
L80.3750 58.4375
" />
<path d="M80.3750 38.3875
L94.3750 38.3875
" />
<path d="M41.4750 99.9550
L41.4750 96.8550
" />
<path d="M149.5900 154.5750
L148.7900 154.5750
" />
<path d="M80.3750 58.4375
L80.3750 57.4375
" />
<path d="M114.2250 59.3250
L113.4250 59.3250
" />
<path d="M79.5750 99.6375
L79.5750 96.5375
" />
<path d="M163.5900 135.5250
L163.5900 136.5250
" />
<path d="M58.8000 55.2300
L39.7500 55.2300
" />
<path d="M118.4750 50.4250
L117.6750 50.4250
" />
<path d="M57.0750 67.6550
L57.0750 70.7550
" />
<path d="M94.3750 51.3875
L94.3750 52.3875
" />
<path d="M23.2250 76.8050
L37.2250 76.8050
" />
<path d="M98.6250 94.3250
L99.4250 94.3250
" />
<path d="M61.3250 82.8850
L61.3250 81.8850
" />
<path d="M133.2750 56.2250
L133.2750 59.3250
" />
<path d="M42.2750 119.0050
L41.4750 119.0050
" />
<path d="M57.0750 61.8550
L56.2750 61.8550
" />
<path d="M133.2750 85.4250
L133.2750 88.5250
" />
<path d="M77.8500 73.9625
L96.9000 73.9625
" />
<path d="M149.5900 164.7250
L148.7900 164.7250
" />
<path d="M118.4750 88.5250
L117.6750 88.5250
" />
<path d="M110.6900 126.6250
L110.6900 123.5250
" />
<path d="M111.4900 132.4250
L111.4900 126.6250
" />
<path d="M58.8000 93.3300
L58.8000 74.2800
" />
<path d="M57.0750 108.8550
L56.2750 108.8550
" />
<path d="M57.0750 70.7550
L56.2750 70.7550
" />
<path d="M75.3250 72.7350
L76.1250 72.7350
" />
<path d="M58.8000 98.4100
L77.8500 98.4100
" />
<path d="M163.5900 173.6250
L163.5900 174.6250
" />
<path d="M37.2250 115.9050
L38.0250 115.9050
" />
<path d="M75.3250 63.8350
L76.1250 63.8350
" />
<path d="M60.5250 47.8850
L60.5250 44.7850
" />
<path d="M37.2250 114.9050
L37.2250 115.9050
" />
<path d="M149.5900 174.6250
L149.5900 173.6250
" />
<path d="M95.1750 39.3875
L95.1750 42.4875
" />
<path d="M133.2750 69.4750
L132.4750 69.4750
" />
<path d="M22.4250 115.9050
L23.2250 115.9050
" />
<path d="M39.7500 74.2800
L58.8000 74.2800
" />
<path d="M77.8500 73.9625
L77.8500 93.0125
" />
<path d="M95.1750 108.5375
L94.3750 108.5375
" />
<path d="M42.2750 77.8050
L42.2750 76.8050
" />
<path d="M42.2750 115.9050
L42.2750 114.9050
" />
<path d="M41.4750 108.8550
L41.4750 105.7550
" />
<path d="M133.2750 97.4250
L132.4750 97.4250
" />
<path d="M95.1750 89.4875
L94.3750 89.4875
" />
<path d="M115.9500 43.8000
L115.9500 62.8500
" />
<path d="M41.4750 58.7550
L42.2750 58.7550
" />
<path d="M114.2250 113.3750
L114.2250 116.4750
" />
<path d="M79.5750 105.4375
L80.3750 105.4375
" />
<path d="M75.3250 57.7850
L61.3250 57.7850
" />
<path d="M163.5900 174.6250
L149.5900 174.6250
" />
<path d="M133.2750 50.4250
L132.4750 50.4250
" />
<path d="M145.3400 151.4750
L145.3400 154.5750
" />
<path d="M37.2250 77.8050
L38.0250 77.8050
" />
<path d="M61.3250 57.7850
L61.3250 56.7850
" />
<path d="M96.9000 112.0625
L96.9000 93.0125
" />
<path d="M96.9000 73.9625
L77.8500 73.9625
" />
<path d="M80.3750 39.3875
L80.3750 38.3875
" />
<path d="M132.4750 75.2750
L133.2750 75.2750
" />
<path d="M96.9000 100.9500
L96.9000 120.0000
" />
<path d="M98.6250 78.3750
L98.6250 75.2750
" />
<path d="M56.2750 71.7550
L42.2750 71.7550
" />
<path d="M114.2250 116.4750
L113.4250 116.4750
" />
<path d="M57.0750 105.7550
L57.0750 108.8550
" />
<path d="M39.7500 93.3300
L39.7500 74.2800
" />
<path d="M75.3250 43.7850
L75.3250 44.7850
" />
<path d="M129.7400 142.5750
L130.5400 142.5750
" />
<path d="M58.8000 79.3600
L58.8000 98.4100
" />
<path d="M42.2750 58.7550
L42.2750 57.7550
" />
<path d="M61.3250 101.9350
L61.3250 100.9350
" />
<path d="M22.4250 108.8550
L22.4250 105.7550
" />
<path d="M149.5900 161.6250
L149.5900 160.6250
" />
<path d="M58.8000 98.4100
L58.8000 117.4600
" />
<path d="M149.5900 151.4750
L149.5900 145.6750
" />
<path d="M128.0150 120.0000
L108.9650 120.0000
" />
<path d="M80.3750 52.3875
L80.3750 51.3875
" />
<path d="M148.7900 170.5250
L149.5900 170.5250
" />
<path d="M164.3900 173.6250
L163.5900 173.6250
" />
<path d="M164.3900 142.5750
L164.3900 145.6750
" />
<path d="M95.1750 96.5375
L95.1750 99.6375
" />
<path d="M99.4250 98.4250
L99.4250 97.4250
" />
<path d="M145.3400 126.6250
L144.5400 126.6250
" />
<path d="M23.2250 95.8550
L37.2250 95.8550
" />
<path d="M39.7500 93.3300
L58.8000 93.3300
" />
<path d="M77.8500 93.0125
L96.9000 93.0125
" />
<path d="M58.8000 60.3100
L77.8500 60.3100
" />
<path d="M132.4750 56.2250
L133.2750 56.2250
" />
<path d="M99.4250 84.4250
L113.4250 84.4250
" />
<path d="M113.4250 75.2750
L114.2250 75.2750
" />
<path d="M115.9500 120.0000
L135.0000 120.0000
" />
<path d="M113.4250 60.3250
L99.4250 60.3250
" />
<path d="M23.2250 115.9050
L23.2250 114.9050
" />
<path d="M95.1750 86.3875
L95.1750 89.4875
" />
<path d="M115.9500 100.9500
L96.9000 100.9500
" />
<path d="M129.7400 145.6750
L129.7400 142.5750
" />
<path d="M164.3900 132.4250
L164.3900 135.5250
" />
<path d="M20.7000 93.3300
L39.7500 93.3300
" />
<path d="M80.3750 57.4375
L94.3750 57.4375
" />
<path d="M80.3750 90.4875
L80.3750 89.4875
" />
<path d="M56.2750 124.8050
L57.0750 124.8050
" />
<path d="M118.4750 116.4750
L117.6750 116.4750
" />
<path d="M23.2250 119.0050
L22.4250 119.0050
" />
<path d="M149.5900 122.5250
L163.5900 122.5250
" />
<path d="M61.3250 95.8850
L61.3250 94.8850
" />
<path d="M56.2750 57.7550
L56.2750 58.7550
" />
<path d="M75.3250 75.8350
L75.3250 76.8350
" />
<path d="M39.7500 93.3300
L39.7500 112.3800
" />
<path d="M94.3750 39.3875
L95.1750 39.3875
" />
<path d="M113.4250 69.4750
L113.4250 75.2750
" />
<path d="M75.3250 53.6850
L76.1250 53.6850
" />
<path d="M76.1250 101.9350
L76.1250 105.0350
" />
<path d="M41.4750 115.9050
L42.2750 115.9050
" />
<path d="M41.4750 61.8550
L41.4750 58.7550
" />
<path d="M58.8000 74.2800
L39.7500 74.2800
" />
<path d="M61.3250 81.8850
L75.3250 81.8850
" />
<path d="M41.4750 67.6550
L42.2750 67.6550
" />
<path d="M135.0000 62.8500
L115.9500 62.8500
" />
<path d="M126.2900 123.5250
L126.2900 126.6250
" />
<path d="M130.5400 126.6250
L129.7400 126.6250
" />
<path d="M76.1250 91.7850
L76.1250 94.8850
" />
<path d="M57.0750 96.8550
L57.0750 99.9550
" />
<path d="M75.3250 105.0350
L75.3250 110.8350
" />
<path d="M80.3750 96.5375
L80.3750 95.5375
" />
<path d="M38.0250 80.9050
L37.2250 80.9050
" />
<path d="M94.3750 76.4875
L94.3750 77.4875
" />
<path d="M79.5750 61.5375
L79.5750 58.4375
" />
<path d="M42.2750 105.7550
L42.2750 99.9550
" />
<path d="M113.4250 98.4250
L99.4250 98.4250
" />
<path d="M132.4750 97.4250
L132.4750 98.4250
" />
<path d="M75.3250 101.9350
L76.1250 101.9350
" />
<path d="M61.3250 113.9350
L60.5250 113.9350
" />
<path d="M95.1750 48.2875
L95.1750 51.3875
" />
<path d="M20.7000 112.3800
L39.7500 112.3800
" />
<path d="M98.6250 97.4250
L98.6250 94.3250
" />
<path d="M39.7500 112.3800
L58.8000 112.3800
" />
<path d="M94.3750 71.4375
L80.3750 71.4375
" />
<path d="M98.6250 75.2750
L99.4250 75.2750
" />
<path d="M130.5400 123.5250
L130.5400 122.5250
" />
<path d="M61.3250 56.7850
L60.5250 56.7850
" />
<path d="M113.4250 94.3250
L114.2250 94.3250
" />
<path d="M42.2750 76.8050
L56.2750 76.8050
" />
<path d="M99.4250 107.5750
L98.6250 107.5750
" />
<path d="M76.1250 53.6850
L76.1250 56.7850
" />
<path d="M80.3750 89.4875
L79.5750 89.4875
" />
<path d="M60.5250 56.7850
L60.5250 53.6850
" />
<path d="M61.3250 72.7350
L61.3250 66.9350
" />
<path d="M135.0000 43.8000
L115.9500 43.8000
" />
<path d="M117.6750 75.2750
L118.4750 75.2750
" />
<path d="M22.4250 105.7550
L23.2250 105.7550
" />
<path d="M110.6900 135.5250
L110.6900 132.4250
" />
<path d="M77.8500 60.3100
L77.8500 41.2600
" />
<path d="M75.3250 113.9350
L75.3250 114.9350
" />
<path d="M130.5400 151.4750
L130.5400 145.6750
" />
<path d="M57.0750 86.7050
L57.0750 89.8050
" />
<path d="M163.5900 161.6250
L164.3900 161.6250
" />
<path d="M144.5400 132.4250
L145.3400 132.4250
" />
<path d="M96.9000 120.0000
L115.9500 120.0000
" />
<path d="M113.4250 113.3750
L114.2250 113.3750
" />
<path d="M130.5400 145.6750
L129.7400 145.6750
" />
<path d="M117.6750 50.4250
L117.6750 47.3250
" />
<path d="M164.3900 135.5250
L163.5900 135.5250
" />
<path d="M57.0750 80.9050
L56.2750 80.9050
" />
<path d="M57.0750 115.9050
L57.0750 119.0050
" />
<path d="M163.5900 132.4250
L164.3900 132.4250
" />
<path d="M60.5250 85.9850
L60.5250 82.8850
" />
<path d="M95.1750 77.4875
L95.1750 80.5875
" />
<path d="M132.4750 107.5750
L132.4750 113.3750
" />
<path d="M60.5250 63.8350
L61.3250 63.8350
" />
<path d="M113.4250 88.5250
L113.4250 94.3250
" />
<path d="M96.9000 54.9125
L77.8500 54.9125
" />
<path d="M115.9500 81.9000
L96.9000 81.9000
" />
<path d="M128.0150 139.0500
L128.0150 158.1000
" />
<path d="M147.0650 158.1000
L147.0650 139.0500
" />
<path d="M56.2750 61.8550
L56.2750 67.6550
" />
<path d="M133.2750 116.4750
L132.4750 116.4750
" />
<path d="M77.8500 112.0625
L96.9000 112.0625
" />
<path d="M133.2750 59.3250
L132.4750 59.3250
" />
<path d="M56.2750 80.9050
L56.2750 86.7050
" />
<path d="M79.5750 42.4875
L79.5750 39.3875
" />
<path d="M117.6750 107.5750
L117.6750 104.4750
" />
<path d="M80.3750 70.4375
L79.5750 70.4375
" />
<path d="M132.4750 88.5250
L132.4750 94.3250
" />
<path d="M56.2750 128.9050
L42.2750 128.9050
" />
<path d="M37.2250 119.0050
L37.2250 124.8050
" />
<path d="M166.1150 158.1000
L147.0650 158.1000
" />
<path d="M147.0650 139.0500
L166.1150 139.0500
" />
<path d="M113.4250 104.4750
L114.2250 104.4750
" />
<path d="M133.2750 104.4750
L133.2750 107.5750
" />
<path d="M147.0650 158.1000
L147.0650 177.1500
" />
<path d="M76.1250 82.8850
L76.1250 85.9850
" />
<path d="M23.2250 90.8050
L23.2250 89.8050
" />
<path d="M23.2250 99.9550
L22.4250 99.9550
" />
<path d="M39.7500 131.4300
L39.7500 112.3800
" />
<path d="M42.2750 86.7050
L42.2750 80.9050
" />
<path d="M75.3250 95.8850
L61.3250 95.8850
" />
<path d="M77.8500 79.3600
L77.8500 60.3100
" />
<path d="M99.4250 97.4250
L98.6250 97.4250
" />
<path d="M22.4250 77.8050
L23.2250 77.8050
" />
<path d="M129.7400 123.5250
L130.5400 123.5250
" />
<path d="M98.6250 116.4750
L98.6250 113.3750
" />
<path d="M42.2750 89.8050
L41.4750 89.8050
" />
<path d="M99.4250 78.3750
L98.6250 78.3750
" />
<path d="M75.3250 81.8850
L75.3250 82.8850
" />
<path d="M148.7900 132.4250
L149.5900 132.4250
" />
<path d="M117.6750 59.3250
L117.6750 56.2250
" />
<path d="M117.6750 94.3250
L118.4750 94.3250
" />
<path d="M39.7500 93.3300
L20.7000 93.3300
" />
<path d="M41.4750 86.7050
L42.2750 86.7050
" />
<path d="M163.5900 141.5750
L163.5900 142.5750
" />
<path d="M118.4750 78.3750
L117.6750 78.3750
" />
<path d="M113.4250 84.4250
L113.4250 85.4250
" />
<path d="M132.4750 59.3250
L132.4750 60.3250
" />
<path d="M130.5400 155.5750
L130.5400 154.5750
" />
<path d="M117.6750 116.4750
L117.6750 113.3750
" />
<path d="M163.5900 151.4750
L164.3900 151.4750
" />
<path d="M114.2250 107.5750
L113.4250 107.5750
" />
<path d="M57.0750 119.0050
L56.2750 119.0050
" />
<path d="M148.7900 135.5250
L148.7900 132.4250
" />
<path d="M117.6750 78.3750
L117.6750 75.2750
" />
<path d="M147.0650 120.0000
L128.0150 120.0000
" />
<path d="M20.7000 93.3300
L20.7000 112.3800
" />
<path d="M163.5900 160.6250
L163.5900 161.6250
" />
<path d="M41.4750 80.9050
L41.4750 77.8050
" />
<path d="M114.2250 56.2250
L114.2250 59.3250
" />
<path d="M94.3750 95.5375
L94.3750 96.5375
" />
<path d="M166.1150 139.0500
L166.1150 120.0000
" />
<path d="M98.6250 59.3250
L98.6250 56.2250
" />
<path d="M163.5900 154.5750
L163.5900 155.5750
" />
<path d="M42.2750 124.8050
L42.2750 119.0050
" />
<path d="M79.5750 108.5375
L79.5750 105.4375
" />
<path d="M118.4750 104.4750
L118.4750 103.4750
" />
<path d="M56.2750 114.9050
L56.2750 115.9050
" />
<path d="M130.5400 136.5250
L130.5400 135.5250
" />
<path d="M80.3750 80.5875
L79.5750 80.5875
" />
<path d="M129.7400 126.6250
L129.7400 123.5250
" />
<path d="M96.9000 54.9125
L96.9000 35.8625
" />
<path d="M23.2250 86.7050
L23.2250 80.9050
" />
<path d="M135.0000 100.9500
L135.0000 81.9000
" />
<path d="M108.9650 139.0500
L128.0150 139.0500
" />
<path d="M95.1750 67.3375
L95.1750 70.4375
" />
<path d="M37.2250 96.8550
L38.0250 96.8550
" />
<path d="M94.3750 61.5375
L94.3750 67.3375
" />
<path d="M94.3750 86.3875
L95.1750 86.3875
" />
<path d="M113.4250 65.3750
L113.4250 66.3750
" />
<path d="M37.2250 99.9550
L37.2250 105.7550
" />
<path d="M115.9500 81.9000
L115.9500 62.8500
" />
<path d="M94.3750 42.4875
L94.3750 48.2875
" />
<path d="M149.5900 141.5750
L163.5900 141.5750
" />
<path d="M96.9000 62.8500
L115.9500 62.8500
" />
<path d="M98.6250 56.2250
L99.4250 56.2250
" />
<path d="M23.2250 127.9050
L22.4250 127.9050
" />
<path d="M115.9500 120.0000
L115.9500 100.9500
" />
<path d="M148.7900 145.6750
L148.7900 142.5750
" />
<path d="M58.8000 112.3800
L58.8000 93.3300
" />
<path d="M144.5400 151.4750
L145.3400 151.4750
" />
<path d="M144.5400 136.5250
L130.5400 136.5250
" />
<path d="M99.4250 116.4750
L98.6250 116.4750
" />
<path d="M147.0650 139.0500
L147.0650 158.1000
" />
<path d="M115.9500 62.8500
L96.9000 62.8500
" />
<path d="M58.8000 60.3100
L58.8000 79.3600
" />
<path d="M115.9500 100.9500
L135.0000 100.9500
" />
<path d="M129.7400 154.5750
L129.7400 151.4750
" />
<path d="M118.4750 113.3750
L118.4750 107.5750
" />
<path d="M23.2250 128.9050
L23.2250 127.9050
" />
<path d="M144.5400 155.5750
L130.5400 155.5750
" />
<path d="M99.4250 113.3750
L99.4250 107.5750
" />
<path d="M98.6250 85.4250
L99.4250 85.4250
" />
<path d="M115.9500 62.8500
L115.9500 81.9000
" />
<path d="M163.5900 136.5250
L149.5900 136.5250
" />
<path d="M37.2250 95.8550
L37.2250 96.8550
" />
<path d="M42.2750 71.7550
L42.2750 70.7550
" />
<path d="M22.4250 86.7050
L23.2250 86.7050
" />
<path d="M56.2750 70.7550
L56.2750 71.7550
" />
<path d="M56.2750 109.8550
L42.2750 109.8550
" />
<path d="M125.4900 126.6250
L125.4900 132.4250
" />
<path d="M38.0250 96.8550
L38.0250 99.9550
" />
<path d="M94.3750 90.4875
L80.3750 90.4875
" />
<path d="M76.1250 110.8350
L76.1250 113.9350
" />
<path d="M164.3900 154.5750
L163.5900 154.5750
" />
<path d="M94.3750 38.3875
L94.3750 39.3875
" />
<path d="M94.3750 80.5875
L94.3750 86.3875
" />
<path d="M42.2750 128.9050
L42.2750 127.9050
" />
<path d="M126.2900 126.6250
L125.4900 126.6250
" />
<path d="M147.0650 158.1000
L166.1150 158.1000
" />
<path d="M163.5900 170.5250
L164.3900 170.5250
" />
<path d="M117.6750 47.3250
L118.4750 47.3250
" />
<path d="M39.7500 112.3800
L20.7000 112.3800
" />
<path d="M95.1750 51.3875
L94.3750 51.3875
" />
<path d="M149.5900 135.5250
L148.7900 135.5250
" />
<path d="M132.4750 98.4250
L118.4750 98.4250
" />
<path d="M80.3750 51.3875
L79.5750 51.3875
" />
<path d="M75.3250 76.8350
L61.3250 76.8350
" />
<path d="M60.5250 82.8850
L61.3250 82.8850
" />
<path d="M37.2250 109.8550
L23.2250 109.8550
" />
<path d="M94.3750 52.3875
L80.3750 52.3875
" />
<path d="M39.7500 112.3800
L39.7500 93.3300
" />
<path d="M20.7000 74.2800
L20.7000 93.3300
" />
<path d="M23.2250 124.8050
L23.2250 119.0050
" />
<path d="M132.4750 103.4750
L132.4750 104.4750
" />
<path d="M39.7500 55.2300
L39.7500 74.2800
" />
<path d="M117.6750 56.2250
L118.4750 56.2250
" />
<path d="M132.4750 66.3750
L133.2750 66.3750
" />
<path d="M113.4250 78.3750
L113.4250 79.3750
" />
<path d="M133.2750 113.3750
L133.2750 116.4750
" />
<path d="M113.4250 46.3250
L113.4250 47.3250
" />
<path d="M42.2750 67.6550
L42.2750 61.8550
" />
<path d="M130.5400 122.5250
L144.5400 122.5250
" />
<path d="M113.4250 107.5750
L113.4250 113.3750
" />
<path d="M61.3250 66.9350
L60.5250 66.9350
" />
<path d="M42.2750 108.8550
L41.4750 108.8550
" />
<path d="M42.2750 57.7550
L56.2750 57.7550
" />
<path d="M60.5250 113.9350
L60.5250 110.8350
" />
<path d="M23.2250 114.9050
L37.2250 114.9050
" />
<path d="M56.2750 99.9550
L56.2750 105.7550
" />
<path d="M61.3250 75.8350
L60.5250 75.8350
" />
<path d="M77.8500 117.4600
L77.8500 98.4100
" />
<path d="M60.5250 105.0350
L60.5250 101.9350
" />
<path d="M99.4250 59.3250
L98.6250 59.3250
" />
<path d="M111.4900 126.6250
L110.6900 126.6250
" />
<path d="M61.3250 94.8850
L60.5250 94.8850
" />
<path d="M147.0650 120.0000
L147.0650 139.0500
" />
<path d="M118.4750 85.4250
L118.4750 84.4250
" />
<path d="M22.4250 89.8050
L22.4250 86.7050
" />
<path d="M41.4750 119.0050
L41.4750 115.9050
" />
<path d="M42.2750 61.8550
L41.4750 61.8550
" />
<path d="M135.0000 100.9500
L115.9500 100.9500
" />
<path d="M133.2750 107.5750
L132.4750 107.5750
" />
<path d="M163.5900 122.5250
L163.5900 123.5250
" />
<path d="M128.0150 139.0500
L147.0650 139.0500
" />
<path d="M60.5250 91.7850
L61.3250 91.7850
" />
<path d="M145.3400 132.4250
L145.3400 135.5250
" />
<path d="M56.2750 77.8050
L57.0750 77.8050
" />
<path d="M99.4250 88.5250
L98.6250 88.5250
" />
<path d="M147.0650 177.1500
L166.1150 177.1500
" />
<path d="M148.7900 154.5750
L148.7900 151.4750
" />
<path d="M96.9000 43.8000
L96.9000 62.8500
" />
<path d="M118.4750 59.3250
L117.6750 59.3250
" />
<path d="M129.7400 151.4750
L130.5400 151.4750
" />
<path d="M61.3250 53.6850
L61.3250 47.8850
" />
<path d="M148.7900 123.5250
L149.5900 123.5250
" />
<path d="M79.5750 39.3875
L80.3750 39.3875
" />
<path d="M56.2750 86.7050
L57.0750 86.7050
" />
<path d="M99.4250 75.2750
L99.4250 69.4750
" />
<path d="M94.3750 109.5375
L80.3750 109.5375
" />
<path d="M164.3900 161.6250
L164.3900 164.7250
" />
<path d="M144.5400 135.5250
L144.5400 136.5250
" />
<path d="M118.4750 84.4250
L132.4750 84.4250
" />
<path d="M145.3400 154.5750
L144.5400 154.5750
" />
<path d="M148.7900 164.7250
L148.7900 161.6250
" />
<path d="M115.9500 81.9000
L115.9500 100.9500
" />
<path d="M37.2250 108.8550
L37.2250 109.8550
" />
<path d="M42.2750 70.7550
L41.4750 70.7550
" />
<path d="M38.0250 77.8050
L38.0250 80.9050
" />
<path d="M75.3250 47.8850
L75.3250 53.6850
" />
<path d="M37.2250 90.8050
L23.2250 90.8050
" />
<path d="M114.2250 78.3750
L113.4250 78.3750
" />
<path d="M166.1150 139.0500
L147.0650 139.0500
" />
<path d="M118.4750 107.5750
L117.6750 107.5750
" />
<path d="M114.2250 75.2750
L114.2250 78.3750
" />
<path d="M41.4750 70.7550
L41.4750 67.6550
" />
<path d="M113.4250 50.4250
L113.4250 56.2250
" />
<path d="M39.7500 131.4300
L58.8000 131.4300
" />
<path d="M22.4250 96.8550
L23.2250 96.8550
" />
<path d="M80.3750 77.4875
L80.3750 76.4875
" />
<path d="M144.5400 142.5750
L145.3400 142.5750
" />
<path d="M57.0750 89.8050
L56.2750 89.8050
" />
<path d="M164.3900 145.6750
L163.5900 145.6750
" />
<path d="M144.5400 123.5250
L145.3400 123.5250
" />
<path d="M99.4250 56.2250
L99.4250 50.4250
" />
<path d="M133.2750 78.3750
L132.4750 78.3750
" />
<path d="M80.3750 108.5375
L79.5750 108.5375
" />
<path d="M129.7400 135.5250
L129.7400 132.4250
" />
<path d="M99.4250 50.4250
L98.6250 50.4250
" />
<path d="M61.3250 63.8350
L61.3250 62.8350
" />
<path d="M99.4250 69.4750
L98.6250 69.4750
" />
<path d="M76.1250 72.7350
L76.1250 75.8350
" />
<path d="M128.0150 139.0500
L128.0150 120.0000
" />
<path d="M118.4750 46.3250
L132.4750 46.3250
" />
<path d="M61.3250 47.8850
L60.5250 47.8850
" />
<path d="M94.3750 67.3375
L95.1750 67.3375
" />
<path d="M58.8000 41.2600
L58.8000 60.3100
" />
<path d="M94.3750 108.5375
L94.3750 109.5375
" />
<path d="M23.2250 105.7550
L23.2250 99.9550
" />
<path d="M114.2250 88.5250
L113.4250 88.5250
" />
<path d="M114.2250 69.4750
L113.4250 69.4750
" />
<path d="M57.0750 58.7550
L57.0750 61.8550
" />
<path d="M56.2750 96.8550
L57.0750 96.8550
" />
<path d="M98.6250 50.4250
L98.6250 47.3250
" />
<path d="M149.5900 126.6250
L148.7900 126.6250
" />
<path d="M58.8000 117.4600
L77.8500 117.4600
" />
<path d="M114.2250 47.3250
L114.2250 50.4250
" />
<path d="M23.2250 109.8550
L23.2250 108.8550
" />
<path d="M22.4250 80.9050
L22.4250 77.8050
" />
<path d="M135.0000 81.9000
L135.0000 62.8500
" />
<path d="M114.2250 85.4250
L114.2250 88.5250
" />
<path d="M144.5400 154.5750
L144.5400 155.5750
" />
<path d="M42.2750 99.9550
L41.4750 99.9550
" />
<path d="M115.9500 62.8500
L135.0000 62.8500
" />
<path d="M37.2250 127.9050
L37.2250 128.9050
" />
<path d="M56.2750 105.7550
L57.0750 105.7550
" />
<path d="M79.5750 70.4375
L79.5750 67.3375
" />
<path d="M77.8500 41.2600
L58.8000 41.2600
" />
<path d="M23.2250 108.8550
L22.4250 108.8550
" />
<path d="M113.4250 79.3750
L99.4250 79.3750
" />
<path d="M75.3250 66.9350
L75.3250 72.7350
" />
<path d="M42.2750 90.8050
L42.2750 89.8050
" />
<path d="M132.4750 104.4750
L133.2750 104.4750
" />
<path d="M79.5750 48.2875
L80.3750 48.2875
" />
<path d="M80.3750 99.6375
L79.5750 99.6375
" />
<path d="M22.4250 124.8050
L23.2250 124.8050
" />
<path d="M60.5250 110.8350
L61.3250 110.8350
" />
<path d="M96.9000 81.9000
L96.9000 100.9500
" />
<path d="M38.0250 127.9050
L37.2250 127.9050
" />
<path d="M41.4750 77.8050
L42.2750 77.8050
" />
<path d="M110.6900 132.4250
L111.4900 132.4250
" />
<path d="M76.1250 85.9850
L75.3250 85.9850
" />
<path d="M79.5750 77.4875
L80.3750 77.4875
" />
<path d="M38.0250 105.7550
L38.0250 108.8550
" />
<path d="M61.3250 44.7850
L61.3250 43.7850
" />
<path d="M110.6900 123.5250
L111.4900 123.5250
" />
<path d="M117.6750 66.3750
L118.4750 66.3750
" />
<path d="M99.4250 104.4750
L99.4250 103.4750
" />
<path d="M79.5750 80.5875
L79.5750 77.4875
" />
<path d="M96.9000 35.8625
L77.8500 35.8625
" />
<path d="M99.4250 103.4750
L113.4250 103.4750
" />
<path d="M72.3500 37.7600 A2.0000 2.0000 0.0 0 0 74.3500 35.7600" />
<path d="M105.4650 125.5000 A2.0000 2.0000 0.0 0 0 103.4650 123.5000" />
<path d="M93.4000 117.5625 A2.0000 2.0000 0.0 0 0 91.4000 115.5625" />
<path d="M95.4000 123.5000
L103.4650 123.5000
" />
<path d="M102.4000 40.3000
L143.0000 40.3000
" />
<path d="M124.5150 144.5500
L124.5150 159.6000
" />
<path d="M76.3500 32.3625
L98.4000 32.3625
" />
<path d="M38.2500 51.7300 A2.0000 2.0000 0.0 0 0 36.2500 53.7300" />
<path d="M64.3000 120.9600 A2.0000 2.0000 0.0 0 0 62.3000 122.9600" />
<path d="M19.2000 134.9300
L60.3000 134.9300
" />
<path d="M60.3000 134.9300 A2.0000 2.0000 0.0 0 0 62.3000 132.9300" />
<path d="M76.3500 32.3625 A2.0000 2.0000 0.0 0 0 74.3500 34.3625" />
<path d="M143.5650 163.6000 A2.0000 2.0000 0.0 0 0 141.5650 161.6000" />
<path d="M93.4000 117.5625
L93.4000 121.5000
" />
<path d="M17.2000 132.9300 A2.0000 2.0000 0.0 0 0 19.2000 134.9300" />
<path d="M62.3000 122.9600
L62.3000 132.9300
" />
<path d="M100.4000 38.3000 A2.0000 2.0000 0.0 0 0 102.4000 40.3000" />
<path d="M19.2000 70.7800 A2.0000 2.0000 0.0 0 0 17.2000 72.7800" />
<path d="M34.2500 70.7800
L19.2000 70.7800
" />
<path d="M145.5650 180.6500
L167.6150 180.6500
" />
<path d="M74.3500 34.3625
L74.3500 35.7600
" />
<path d="M124.5150 144.5500 A2.0000 2.0000 0.0 0 0 122.5150 142.5500" />
<path d="M147.0000 69.5000
L167.6150 69.5000
" />
<path d="M169.6150 71.5000 A2.0000 2.0000 0.0 0 0 167.6150 69.5000" />
<path d="M79.3500 120.9600 A2.0000 2.0000 0.0 0 0 81.3500 118.9600" />
<path d="M36.2500 53.7300
L36.2500 68.7800
" />
<path d="M55.3000 39.7600
L55.3000 49.7300
" />
<path d="M145.0000 42.3000 A2.0000 2.0000 0.0 0 0 143.0000 40.3000" />
<path d="M105.4650 140.5500 A2.0000 2.0000 0.0 0 0 107.4650 142.5500" />
<path d="M72.3500 37.7600
L57.3000 37.7600
" />
<path d="M53.3000 51.7300 A2.0000 2.0000 0.0 0 0 55.3000 49.7300" />
<path d="M124.5150 159.6000 A2.0000 2.0000 0.0 0 0 126.5150 161.6000" />
<path d="M143.5650 163.6000
L143.5650 178.6500
" />
<path d="M34.2500 70.7800 A2.0000 2.0000 0.0 0 0 36.2500 68.7800" />
<path d="M167.6150 180.6500 A2.0000 2.0000 0.0 0 0 169.6150 178.6500" />
<path d="M145.0000 67.5000 A2.0000 2.0000 0.0 0 0 147.0000 69.5000" />
<path d="M145.0000 42.3000
L145.0000 67.5000
" />
<path d="M100.4000 34.3625 A2.0000 2.0000 0.0 0 0 98.4000 32.3625" />
<path d="M81.3500 118.9600
L81.3500 117.5625
" />
<path d="M17.2000 72.7800
L17.2000 132.9300
" />
<path d="M57.3000 37.7600 A2.0000 2.0000 0.0 0 0 55.3000 39.7600" />
<path d="M100.4000 38.3000
L100.4000 34.3625
" />
<path d="M107.4650 142.5500
L122.5150 142.5500
" />
<path d="M126.5150 161.6000
L141.5650 161.6000
" />
<path d="M83.3500 115.5625
L91.4000 115.5625
" />
<path d="M93.4000 121.5000 A2.0000 2.0000 0.0 0 0 95.4000 123.5000" />
<path d="M105.4650 125.5000
L105.4650 140.5500
" />
<path d="M83.3500 115.5625 A2.0000 2.0000 0.0 0 0 81.3500 117.5625" />
<path d="M64.3000 120.9600
L79.3500 120.9600
" />
<path d="M53.3000 51.7300
L38.2500 51.7300
" />
<path d="M143.5650 178.6500 A2.0000 2.0000 0.0 0 0 145.5650 180.6500" />
<path d="M169.6150 71.5000
L169.6150 178.6500
" />
</g> 
</svg>
