  0
SECTION
  2
HEADER
  9
$ANGBASE
  50
0.0
  9
$ANGDIR
  70
1
  9
$MEASUREMENT
  70
1
  0
ENDSEC
  0
SECTION
  2
TABLES
  0
TABLE
  2
LTYPE
  70
4
  0
LTYPE
  5
40F
  2
CONTINUOUS
  70
0
  3
Solid line
  72
65
  73
0
  40
0.0
  0
LTYPE
  5
410
  2
DASHDOT
 70
0
  3
Dash Dot ____ _ ____ _
 72
65
 73
4
 40
2.0
 49
1.25
 49
-0.25
 49
0.25
 49
-0.25
  0
LTYPE
  5
411
  2
DASHED
 70
0
  3
Dashed __ __ __ __ __
 72
65
 73
2
 40
0.75
 49
0.5
 49
-0.25
  0
LTYPE
  5
43B
  2
DOTTED
 70
0
  3
Dotted .  .  .  .
 72
65
 73
2
 40
0.2
 49
0.0
 49
-0.2
  0
ENDTAB
  0
TABLE
  2
STYLE
  70
4
  0
STYLE
  2
KICAD
  70
0
  40
0
  41
1
  42
1
  50
0
  71
0
  3
isocp.shx
  0
STYLE
  2
KICADB
  70
0
  40
0
  41
1
  42
1
  50
0
  71
0
  3
isocp.shx
  0
STYLE
  2
KICADI
  70
0
  40
0
  41
1
  42
1
  50
15
  71
0
  3
isocp.shx
  0
STYLE
  2
KICADBI
  70
0
  40
0
  41
1
  42
1
  50
15
  71
0
  3
isocp.shx
  0
ENDTAB
  0
TABLE
  2
LAYER
  70
1
  0
LAYER
  2
BLACK
  70
0
  62
7
  6
CONTINUOUS
  0
ENDTAB
  0
ENDSEC
  0
SECTION
  2
ENTITIES
0
LINE
8
BLACK
6
CONTINUOUS
10
145.5649999999999977
20
-180.6500000000000057
11
145.4339129999999898
21
-180.6500000000000057
0
LINE
8
BLACK
6
CONTINUOUS
10
145.4339129999999898
20
-180.6500000000000057
11
145.3039540000000045
21
-180.6328900000000033
0
LINE
8
BLACK
6
CONTINUOUS
10
145.3039540000000045
20
-180.6328900000000033
11
145.5649999999999977
21
-180.6500000000000057
0
LINE
8
BLACK
6
CONTINUOUS
10
167.7460869999999886
20
-180.6500000000000057
11
167.6149999999999807
21
-180.6500000000000057
0
LINE
8
BLACK
6
CONTINUOUS
10
167.6149999999999807
20
-180.6500000000000057
11
167.8760450000000048
21
-180.6328900000000033
0
LINE
8
BLACK
6
CONTINUOUS
10
167.8760450000000048
20
-180.6328900000000033
11
167.7460869999999886
21
-180.6500000000000057
0
LINE
8
BLACK
6
CONTINUOUS
10
145.3039540000000045
20
-180.6328900000000033
11
145.3039479999999912
21
-180.6328900000000033
0
LINE
8
BLACK
6
CONTINUOUS
10
145.3039479999999912
20
-180.6328900000000033
11
145.3039409999999805
21
-180.6328879999999799
0
LINE
8
BLACK
6
CONTINUOUS
10
145.3039409999999805
20
-180.6328879999999799
11
145.3039540000000045
21
-180.6328900000000033
0
LINE
8
BLACK
6
CONTINUOUS
10
167.8760519999999872
20
-180.6328900000000033
11
167.8760450000000048
21
-180.6328900000000033
0
LINE
8
BLACK
6
CONTINUOUS
10
167.8760450000000048
20
-180.6328900000000033
11
167.8760580000000004
21
-180.6328879999999799
0
LINE
8
BLACK
6
CONTINUOUS
10
167.8760580000000004
20
-180.6328879999999799
11
167.8760519999999872
21
-180.6328900000000033
0
LINE
8
BLACK
6
CONTINUOUS
10
145.3039409999999805
20
-180.6328879999999799
11
145.1739819999999952
21
-180.6157790000000034
0
LINE
8
BLACK
6
CONTINUOUS
10
145.1739819999999952
20
-180.6157790000000034
11
145.0473690000000033
21
-180.5818529999999953
0
LINE
8
BLACK
6
CONTINUOUS
10
145.0473690000000033
20
-180.5818529999999953
11
145.3039409999999805
21
-180.6328879999999799
0
LINE
8
BLACK
6
CONTINUOUS
10
168.0060179999999832
20
-180.6157790000000034
11
167.8760580000000004
21
-180.6328879999999799
0
LINE
8
BLACK
6
CONTINUOUS
10
167.8760580000000004
20
-180.6328879999999799
11
168.132630000000006
21
-180.5818529999999953
0
LINE
8
BLACK
6
CONTINUOUS
10
168.132630000000006
20
-180.5818529999999953
11
168.0060179999999832
21
-180.6157790000000034
0
LINE
8
BLACK
6
CONTINUOUS
10
145.0473690000000033
20
-180.5818529999999953
11
145.0473619999999926
21
-180.5818519999999978
0
LINE
8
BLACK
6
CONTINUOUS
10
145.0473619999999926
20
-180.5818519999999978
11
145.0473549999999818
21
-180.5818490000000054
0
LINE
8
BLACK
6
CONTINUOUS
10
145.0473549999999818
20
-180.5818490000000054
11
145.0473690000000033
21
-180.5818529999999953
0
LINE
8
BLACK
6
CONTINUOUS
10
168.1326379999999858
20
-180.5818519999999978
11
168.132630000000006
21
-180.5818529999999953
0
LINE
8
BLACK
6
CONTINUOUS
10
168.132630000000006
20
-180.5818529999999953
11
168.1326439999999991
21
-180.5818490000000054
0
LINE
8
BLACK
6
CONTINUOUS
10
168.1326439999999991
20
-180.5818490000000054
11
168.1326379999999858
21
-180.5818519999999978
0
LINE
8
BLACK
6
CONTINUOUS
10
145.0473549999999818
20
-180.5818490000000054
11
144.92074199999999
21
-180.5479239999999947
0
LINE
8
BLACK
6
CONTINUOUS
10
144.92074199999999
20
-180.5479239999999947
11
144.799634999999995
21
-180.4977590000000021
0
LINE
8
BLACK
6
CONTINUOUS
10
144.799634999999995
20
-180.4977590000000021
11
145.0473549999999818
21
-180.5818490000000054
0
LINE
8
BLACK
6
CONTINUOUS
10
168.2592579999999884
20
-180.5479239999999947
11
168.1326439999999991
21
-180.5818490000000054
0
LINE
8
BLACK
6
CONTINUOUS
10
168.1326439999999991
20
-180.5818490000000054
11
168.3803639999999859
21
-180.4977590000000021
0
LINE
8
BLACK
6
CONTINUOUS
10
168.3803639999999859
20
-180.4977590000000021
11
168.2592579999999884
21
-180.5479239999999947
0
LINE
8
BLACK
6
CONTINUOUS
10
144.799634999999995
20
-180.4977590000000021
11
144.799633
21
-180.4977590000000021
0
LINE
8
BLACK
6
CONTINUOUS
10
144.799633
20
-180.4977590000000021
11
144.7996300000000076
21
-180.4977569999999787
0
LINE
8
BLACK
6
CONTINUOUS
10
144.7996300000000076
20
-180.4977569999999787
11
144.799634999999995
21
-180.4977590000000021
0
LINE
8
BLACK
6
CONTINUOUS
10
168.3803669999999784
20
-180.4977590000000021
11
168.3803639999999859
21
-180.4977590000000021
0
LINE
8
BLACK
6
CONTINUOUS
10
168.3803639999999859
20
-180.4977590000000021
11
168.3803690000000017
21
-180.4977569999999787
0
LINE
8
BLACK
6
CONTINUOUS
10
168.3803690000000017
20
-180.4977569999999787
11
168.3803669999999784
21
-180.4977590000000021
0
LINE
8
BLACK
6
CONTINUOUS
10
144.7996300000000076
20
-180.4977569999999787
11
144.6785250000000076
21
-180.447593999999981
0
LINE
8
BLACK
6
CONTINUOUS
10
144.6785250000000076
20
-180.447593999999981
11
144.5650090000000034
21
-180.3820549999999798
0
LINE
8
BLACK
6
CONTINUOUS
10
144.5650090000000034
20
-180.3820549999999798
11
144.7996300000000076
21
-180.4977569999999787
0
LINE
8
BLACK
6
CONTINUOUS
10
168.5014749999999992
20
-180.447593999999981
11
168.3803690000000017
21
-180.4977569999999787
0
LINE
8
BLACK
6
CONTINUOUS
10
168.3803690000000017
20
-180.4977569999999787
11
168.6149900000000059
21
-180.3820549999999798
0
LINE
8
BLACK
6
CONTINUOUS
10
168.6149900000000059
20
-180.3820549999999798
11
168.5014749999999992
21
-180.447593999999981
0
LINE
8
BLACK
6
CONTINUOUS
10
144.5650090000000034
20
-180.3820549999999798
11
144.5649999999999977
21
-180.3820509999999899
0
LINE
8
BLACK
6
CONTINUOUS
10
144.5649999999999977
20
-180.3820509999999899
11
144.564990999999992
21
-180.3820450000000051
0
LINE
8
BLACK
6
CONTINUOUS
10
144.564990999999992
20
-180.3820450000000051
11
144.5650090000000034
21
-180.3820549999999798
0
LINE
8
BLACK
6
CONTINUOUS
10
168.6149999999999807
20
-180.3820509999999899
11
168.6149900000000059
21
-180.3820549999999798
0
LINE
8
BLACK
6
CONTINUOUS
10
168.6149900000000059
20
-180.3820549999999798
11
168.6150079999999889
21
-180.3820450000000051
0
LINE
8
BLACK
6
CONTINUOUS
10
168.6150079999999889
20
-180.3820450000000051
11
168.6149999999999807
21
-180.3820509999999899
0
LINE
8
BLACK
6
CONTINUOUS
10
144.564990999999992
20
-180.3820450000000051
11
144.4514759999999853
21
-180.3165070000000014
0
LINE
8
BLACK
6
CONTINUOUS
10
144.4514759999999853
20
-180.3165070000000014
11
144.347485000000006
21
-180.2367119999999829
0
LINE
8
BLACK
6
CONTINUOUS
10
144.347485000000006
20
-180.2367119999999829
11
144.564990999999992
21
-180.3820450000000051
0
LINE
8
BLACK
6
CONTINUOUS
10
168.7285239999999931
20
-180.3165070000000014
11
168.6150079999999889
21
-180.3820450000000051
0
LINE
8
BLACK
6
CONTINUOUS
10
168.6150079999999889
20
-180.3820450000000051
11
168.8325140000000033
21
-180.2367119999999829
0
LINE
8
BLACK
6
CONTINUOUS
10
168.8325140000000033
20
-180.2367119999999829
11
168.7285239999999931
21
-180.3165070000000014
0
LINE
8
BLACK
6
CONTINUOUS
10
144.347485000000006
20
-180.2367119999999829
11
144.3474769999999978
21
-180.2367069999999956
0
LINE
8
BLACK
6
CONTINUOUS
10
144.3474769999999978
20
-180.2367069999999956
11
144.3474679999999921
21
-180.2366989999999873
0
LINE
8
BLACK
6
CONTINUOUS
10
144.3474679999999921
20
-180.2366989999999873
11
144.347485000000006
21
-180.2367119999999829
0
LINE
8
BLACK
6
CONTINUOUS
10
168.8325229999999806
20
-180.2367069999999956
11
168.8325140000000033
21
-180.2367119999999829
0
LINE
8
BLACK
6
CONTINUOUS
10
168.8325140000000033
20
-180.2367119999999829
11
168.8325309999999888
21
-180.2366989999999873
0
LINE
8
BLACK
6
CONTINUOUS
10
168.8325309999999888
20
-180.2366989999999873
11
168.8325229999999806
21
-180.2367069999999956
0
LINE
8
BLACK
6
CONTINUOUS
10
144.3474679999999921
20
-180.2366989999999873
11
144.2434789999999794
21
-180.1569059999999922
0
LINE
8
BLACK
6
CONTINUOUS
10
144.2434789999999794
20
-180.1569059999999922
11
144.1507939999999905
21
-180.0642210000000034
0
LINE
8
BLACK
6
CONTINUOUS
10
144.1507939999999905
20
-180.0642210000000034
11
144.3474679999999921
21
-180.2366989999999873
0
LINE
8
BLACK
6
CONTINUOUS
10
168.936520999999999
20
-180.1569059999999922
11
168.8325309999999888
21
-180.2366989999999873
0
LINE
8
BLACK
6
CONTINUOUS
10
168.8325309999999888
20
-180.2366989999999873
11
169.0292049999999904
21
-180.0642210000000034
0
LINE
8
BLACK
6
CONTINUOUS
10
169.0292049999999904
20
-180.0642210000000034
11
168.936520999999999
21
-180.1569059999999922
0
LINE
8
BLACK
6
CONTINUOUS
10
144.1507939999999905
20
-180.0642210000000034
11
144.1507859999999823
21
-180.0642139999999927
0
LINE
8
BLACK
6
CONTINUOUS
10
144.1507859999999823
20
-180.0642139999999927
11
144.1507780000000025
21
-180.064204999999987
0
LINE
8
BLACK
6
CONTINUOUS
10
144.1507780000000025
20
-180.064204999999987
11
144.1507939999999905
21
-180.0642210000000034
0
LINE
8
BLACK
6
CONTINUOUS
10
169.0292139999999961
20
-180.0642139999999927
11
169.0292049999999904
21
-180.0642210000000034
0
LINE
8
BLACK
6
CONTINUOUS
10
169.0292049999999904
20
-180.0642210000000034
11
169.0292209999999784
21
-180.064204999999987
0
LINE
8
BLACK
6
CONTINUOUS
10
169.0292209999999784
20
-180.064204999999987
11
169.0292139999999961
21
-180.0642139999999927
0
LINE
8
BLACK
6
CONTINUOUS
10
144.1507780000000025
20
-180.064204999999987
11
144.0580939999999828
21
-179.9715209999999956
0
LINE
8
BLACK
6
CONTINUOUS
10
144.0580939999999828
20
-179.9715209999999956
11
143.9782999999999902
21
-179.8675309999999854
0
LINE
8
BLACK
6
CONTINUOUS
10
143.9782999999999902
20
-179.8675309999999854
11
144.1507780000000025
21
-180.064204999999987
0
LINE
8
BLACK
6
CONTINUOUS
10
169.1219059999999956
20
-179.9715209999999956
11
169.0292209999999784
21
-180.064204999999987
0
LINE
8
BLACK
6
CONTINUOUS
10
169.0292209999999784
20
-180.064204999999987
11
169.2016989999999907
21
-179.8675309999999854
0
LINE
8
BLACK
6
CONTINUOUS
10
169.2016989999999907
20
-179.8675309999999854
11
169.1219059999999956
21
-179.9715209999999956
0
LINE
8
BLACK
6
CONTINUOUS
10
143.9782999999999902
20
-179.8675309999999854
11
143.9782929999999794
21
-179.8675230000000056
0
LINE
8
BLACK
6
CONTINUOUS
10
143.9782929999999794
20
-179.8675230000000056
11
143.9782869999999946
21
-179.8675139999999999
0
LINE
8
BLACK
6
CONTINUOUS
10
143.9782869999999946
20
-179.8675139999999999
11
143.9782999999999902
21
-179.8675309999999854
0
LINE
8
BLACK
6
CONTINUOUS
10
169.201706999999999
20
-179.8675230000000056
11
169.2016989999999907
21
-179.8675309999999854
0
LINE
8
BLACK
6
CONTINUOUS
10
169.2016989999999907
20
-179.8675309999999854
11
169.2017119999999863
21
-179.8675139999999999
0
LINE
8
BLACK
6
CONTINUOUS
10
169.2017119999999863
20
-179.8675139999999999
11
169.201706999999999
21
-179.8675230000000056
0
LINE
8
BLACK
6
CONTINUOUS
10
143.9782869999999946
20
-179.8675139999999999
11
143.898493000000002
21
-179.7635239999999897
0
LINE
8
BLACK
6
CONTINUOUS
10
143.898493000000002
20
-179.7635239999999897
11
143.8329540000000009
21
-179.6500079999999855
0
LINE
8
BLACK
6
CONTINUOUS
10
143.8329540000000009
20
-179.6500079999999855
11
143.9782869999999946
21
-179.8675139999999999
0
LINE
8
BLACK
6
CONTINUOUS
10
169.2815070000000048
20
-179.7635239999999897
11
169.2017119999999863
21
-179.8675139999999999
0
LINE
8
BLACK
6
CONTINUOUS
10
169.2017119999999863
20
-179.8675139999999999
11
169.3470449999999801
21
-179.6500079999999855
0
LINE
8
BLACK
6
CONTINUOUS
10
169.3470449999999801
20
-179.6500079999999855
11
169.2815070000000048
21
-179.7635239999999897
0
LINE
8
BLACK
6
CONTINUOUS
10
143.8329540000000009
20
-179.6500079999999855
11
143.8329489999999851
21
-179.6500000000000057
0
LINE
8
BLACK
6
CONTINUOUS
10
143.8329489999999851
20
-179.6500000000000057
11
143.8329439999999977
21
-179.6499900000000025
0
LINE
8
BLACK
6
CONTINUOUS
10
143.8329439999999977
20
-179.6499900000000025
11
143.8329540000000009
21
-179.6500079999999855
0
LINE
8
BLACK
6
CONTINUOUS
10
169.3470509999999933
20
-179.6500000000000057
11
169.3470449999999801
21
-179.6500079999999855
0
LINE
8
BLACK
6
CONTINUOUS
10
169.3470449999999801
20
-179.6500079999999855
11
169.3470549999999832
21
-179.6499900000000025
0
LINE
8
BLACK
6
CONTINUOUS
10
169.3470549999999832
20
-179.6499900000000025
11
169.3470509999999933
21
-179.6500000000000057
0
LINE
8
BLACK
6
CONTINUOUS
10
143.5821090000000027
20
-178.9110479999999939
11
143.5649999999999977
21
-178.7810869999999852
0
LINE
8
BLACK
6
CONTINUOUS
10
143.5649999999999977
20
-178.7810869999999852
11
143.5649999999999977
21
-178.6500000000000057
0
LINE
8
BLACK
6
CONTINUOUS
10
143.5649999999999977
20
-178.6500000000000057
11
143.5821090000000027
21
-178.9110479999999939
0
LINE
8
BLACK
6
CONTINUOUS
10
169.4627509999999972
20
-179.4153819999999939
11
169.4125939999999844
21
-179.5364749999999958
0
LINE
8
BLACK
6
CONTINUOUS
10
169.4125939999999844
20
-179.5364749999999958
11
169.3470549999999832
21
-179.6499900000000025
0
LINE
8
BLACK
6
CONTINUOUS
10
169.3470549999999832
20
-179.6499900000000025
11
169.4627509999999972
21
-179.4153819999999939
0
LINE
8
BLACK
6
CONTINUOUS
10
143.5478909999999928
20
-163.3389640000000043
11
143.5649999999999977
21
-163.4689129999999864
0
LINE
8
BLACK
6
CONTINUOUS
10
143.5649999999999977
20
-163.4689129999999864
11
143.5649999999999977
21
-163.5999999999999943
0
LINE
8
BLACK
6
CONTINUOUS
10
143.5649999999999977
20
-163.5999999999999943
11
143.5478909999999928
21
-163.3389640000000043
0
LINE
8
BLACK
6
CONTINUOUS
10
143.4968519999999899
20
-163.0823619999999892
11
143.4968529999999873
21
-163.0823689999999999
0
LINE
8
BLACK
6
CONTINUOUS
10
143.4968529999999873
20
-163.0823689999999999
11
143.4968489999999974
21
-163.0823549999999784
0
LINE
8
BLACK
6
CONTINUOUS
10
143.4968489999999974
20
-163.0823549999999784
11
143.4968519999999899
21
-163.0823619999999892
0
LINE
8
BLACK
6
CONTINUOUS
10
143.4127619999999865
20
-162.8346429999999998
11
143.4629239999999868
21
-162.9557419999999865
0
LINE
8
BLACK
6
CONTINUOUS
10
143.4629239999999868
20
-162.9557419999999865
11
143.4968489999999974
21
-163.0823549999999784
0
LINE
8
BLACK
6
CONTINUOUS
10
143.4968489999999974
20
-163.0823549999999784
11
143.4127619999999865
21
-162.8346429999999998
0
LINE
8
BLACK
6
CONTINUOUS
10
143.297050999999982
20
-162.5999999999999943
11
143.2970550000000003
21
-162.600009
0
LINE
8
BLACK
6
CONTINUOUS
10
143.2970550000000003
20
-162.600009
11
143.2970449999999971
21
-162.5999909999999886
0
LINE
8
BLACK
6
CONTINUOUS
10
143.2970449999999971
20
-162.5999909999999886
11
143.297050999999982
21
-162.5999999999999943
0
LINE
8
BLACK
6
CONTINUOUS
10
143.2315069999999935
20
-162.4864759999999819
11
143.2970449999999971
21
-162.5999909999999886
0
LINE
8
BLACK
6
CONTINUOUS
10
143.2970449999999971
20
-162.5999909999999886
11
143.1517120000000034
21
-162.3824850000000026
0
LINE
8
BLACK
6
CONTINUOUS
10
143.1517120000000034
20
-162.3824850000000026
11
143.2315069999999935
21
-162.4864759999999819
0
LINE
8
BLACK
6
CONTINUOUS
10
143.1517069999999876
20
-162.3824769999999944
11
143.1517120000000034
21
-162.3824850000000026
0
LINE
8
BLACK
6
CONTINUOUS
10
143.1517120000000034
20
-162.3824850000000026
11
143.1516989999999794
21
-162.3824679999999887
0
LINE
8
BLACK
6
CONTINUOUS
10
143.1516989999999794
20
-162.3824679999999887
11
143.1517069999999876
21
-162.3824769999999944
0
LINE
8
BLACK
6
CONTINUOUS
10
143.0719059999999843
20
-162.2784790000000044
11
143.1516989999999794
21
-162.3824679999999887
0
LINE
8
BLACK
6
CONTINUOUS
10
143.1516989999999794
20
-162.3824679999999887
11
142.9792209999999955
21
-162.1857939999999871
0
LINE
8
BLACK
6
CONTINUOUS
10
142.9792209999999955
20
-162.1857939999999871
11
143.0719059999999843
21
-162.2784790000000044
0
LINE
8
BLACK
6
CONTINUOUS
10
142.9792139999999847
20
-162.1857859999999789
11
142.9792209999999955
21
-162.1857939999999871
0
LINE
8
BLACK
6
CONTINUOUS
10
142.9792209999999955
20
-162.1857939999999871
11
142.9792050000000074
21
-162.1857779999999991
0
LINE
8
BLACK
6
CONTINUOUS
10
142.9792050000000074
20
-162.1857779999999991
11
142.9792139999999847
21
-162.1857859999999789
0
LINE
8
BLACK
6
CONTINUOUS
10
142.8865209999999877
20
-162.0930939999999794
11
142.9792050000000074
21
-162.1857779999999991
0
LINE
8
BLACK
6
CONTINUOUS
10
142.9792050000000074
20
-162.1857779999999991
11
142.7825310000000059
21
-162.0132999999999868
0
LINE
8
BLACK
6
CONTINUOUS
10
142.7825310000000059
20
-162.0132999999999868
11
142.8865209999999877
21
-162.0930939999999794
0
LINE
8
BLACK
6
CONTINUOUS
10
142.7825229999999976
20
-162.0132930000000044
11
142.7825310000000059
21
-162.0132999999999868
0
LINE
8
BLACK
6
CONTINUOUS
10
142.7825310000000059
20
-162.0132999999999868
11
142.7825139999999919
21
-162.0132869999999912
0
LINE
8
BLACK
6
CONTINUOUS
10
142.7825139999999919
20
-162.0132869999999912
11
142.7825229999999976
21
-162.0132930000000044
0
LINE
8
BLACK
6
CONTINUOUS
10
142.6785239999999817
20
-161.9334929999999986
11
142.7825139999999919
21
-162.0132869999999912
0
LINE
8
BLACK
6
CONTINUOUS
10
142.7825139999999919
20
-162.0132869999999912
11
142.5650080000000059
21
-161.8679539999999974
0
LINE
8
BLACK
6
CONTINUOUS
10
142.5650080000000059
20
-161.8679539999999974
11
142.6785239999999817
21
-161.9334929999999986
0
LINE
8
BLACK
6
CONTINUOUS
10
142.5649999999999977
20
-161.8679489999999817
11
142.5650080000000059
21
-161.8679539999999974
0
LINE
8
BLACK
6
CONTINUOUS
10
142.5650080000000059
20
-161.8679539999999974
11
142.5649899999999946
21
-161.8679439999999943
0
LINE
8
BLACK
6
CONTINUOUS
10
142.5649899999999946
20
-161.8679439999999943
11
142.5649999999999977
21
-161.8679489999999817
0
LINE
8
BLACK
6
CONTINUOUS
10
142.3303699999999878
20
-161.7522419999999954
11
142.4514749999999879
21
-161.8024059999999906
0
LINE
8
BLACK
6
CONTINUOUS
10
142.4514749999999879
20
-161.8024059999999906
11
142.5649899999999946
21
-161.8679439999999943
0
LINE
8
BLACK
6
CONTINUOUS
10
142.5649899999999946
20
-161.8679439999999943
11
142.3303699999999878
21
-161.7522419999999954
0
LINE
8
BLACK
6
CONTINUOUS
10
142.0826380000000029
20
-161.6681480000000022
11
142.0826439999999877
21
-161.6681499999999971
0
LINE
8
BLACK
6
CONTINUOUS
10
142.0826439999999877
20
-161.6681499999999971
11
142.0826299999999947
21
-161.6681459999999788
0
LINE
8
BLACK
6
CONTINUOUS
10
142.0826299999999947
20
-161.6681459999999788
11
142.0826380000000029
21
-161.6681480000000022
0
LINE
8
BLACK
6
CONTINUOUS
10
141.9560180000000003
20
-161.6342209999999966
11
142.0826299999999947
21
-161.6681459999999788
0
LINE
8
BLACK
6
CONTINUOUS
10
142.0826299999999947
20
-161.6681459999999788
11
141.8260579999999891
21
-161.6171109999999942
0
LINE
8
BLACK
6
CONTINUOUS
10
141.8260579999999891
20
-161.6171109999999942
11
141.9560180000000003
21
-161.6342209999999966
0
LINE
8
BLACK
6
CONTINUOUS
10
141.8260520000000042
20
-161.6171099999999967
11
141.8260579999999891
21
-161.6171109999999942
0
LINE
8
BLACK
6
CONTINUOUS
10
141.8260579999999891
20
-161.6171109999999942
11
141.8260449999999935
21
-161.6171089999999992
0
LINE
8
BLACK
6
CONTINUOUS
10
141.8260449999999935
20
-161.6171089999999992
11
141.8260520000000042
21
-161.6171099999999967
0
LINE
8
BLACK
6
CONTINUOUS
10
141.8260449999999935
20
-161.6171089999999992
11
141.5649999999999977
21
-161.5999999999999943
0
LINE
8
BLACK
6
CONTINUOUS
10
141.5649999999999977
20
-161.5999999999999943
11
141.6960870000000057
21
-161.5999999999999943
0
LINE
8
BLACK
6
CONTINUOUS
10
141.6960870000000057
20
-161.5999999999999943
11
141.8260449999999935
21
-161.6171089999999992
0
LINE
8
BLACK
6
CONTINUOUS
10
126.5150000000000006
20
-161.5999999999999943
11
126.3839129999999926
21
-161.5999999999999943
0
LINE
8
BLACK
6
CONTINUOUS
10
126.3839129999999926
20
-161.5999999999999943
11
126.2539539999999931
21
-161.5828899999999919
0
LINE
8
BLACK
6
CONTINUOUS
10
126.2539539999999931
20
-161.5828899999999919
11
126.5150000000000006
21
-161.5999999999999943
0
LINE
8
BLACK
6
CONTINUOUS
10
126.2539539999999931
20
-161.5828899999999919
11
126.2539479999999941
21
-161.5828899999999919
0
LINE
8
BLACK
6
CONTINUOUS
10
126.2539479999999941
20
-161.5828899999999919
11
126.2539409999999975
21
-161.582887999999997
0
LINE
8
BLACK
6
CONTINUOUS
10
126.2539409999999975
20
-161.582887999999997
11
126.2539539999999931
21
-161.5828899999999919
0
LINE
8
BLACK
6
CONTINUOUS
10
126.2539409999999975
20
-161.582887999999997
11
126.123981999999998
21
-161.565778999999992
0
LINE
8
BLACK
6
CONTINUOUS
10
126.123981999999998
20
-161.565778999999992
11
125.997368999999992
21
-161.5318529999999839
0
LINE
8
BLACK
6
CONTINUOUS
10
125.997368999999992
20
-161.5318529999999839
11
126.2539409999999975
21
-161.582887999999997
0
LINE
8
BLACK
6
CONTINUOUS
10
125.997368999999992
20
-161.5318529999999839
11
125.9973619999999954
21
-161.5318519999999864
0
LINE
8
BLACK
6
CONTINUOUS
10
125.9973619999999954
20
-161.5318519999999864
11
125.9973549999999989
21
-161.531848999999994
0
LINE
8
BLACK
6
CONTINUOUS
10
125.9973549999999989
20
-161.531848999999994
11
125.997368999999992
21
-161.5318529999999839
0
LINE
8
BLACK
6
CONTINUOUS
10
125.9973549999999989
20
-161.531848999999994
11
125.8707419999999928
21
-161.4979239999999834
0
LINE
8
BLACK
6
CONTINUOUS
10
125.8707419999999928
20
-161.4979239999999834
11
125.7496349999999978
21
-161.4477589999999907
0
LINE
8
BLACK
6
CONTINUOUS
10
125.7496349999999978
20
-161.4477589999999907
11
125.9973549999999989
21
-161.531848999999994
0
LINE
8
BLACK
6
CONTINUOUS
10
125.7496349999999978
20
-161.4477589999999907
11
125.7496329999999887
21
-161.4477589999999907
0
LINE
8
BLACK
6
CONTINUOUS
10
125.7496329999999887
20
-161.4477589999999907
11
125.7496299999999962
21
-161.4477569999999957
0
LINE
8
BLACK
6
CONTINUOUS
10
125.7496299999999962
20
-161.4477569999999957
11
125.7496349999999978
21
-161.4477589999999907
0
LINE
8
BLACK
6
CONTINUOUS
10
125.7496299999999962
20
-161.4477569999999957
11
125.6285249999999962
21
-161.397593999999998
0
LINE
8
BLACK
6
CONTINUOUS
10
125.6285249999999962
20
-161.397593999999998
11
125.5150089999999921
21
-161.3320549999999969
0
LINE
8
BLACK
6
CONTINUOUS
10
125.5150089999999921
20
-161.3320549999999969
11
125.7496299999999962
21
-161.4477569999999957
0
LINE
8
BLACK
6
CONTINUOUS
10
125.5150089999999921
20
-161.3320549999999969
11
125.5150000000000006
21
-161.3320509999999786
0
LINE
8
BLACK
6
CONTINUOUS
10
125.5150000000000006
20
-161.3320509999999786
11
125.5149909999999949
21
-161.3320449999999937
0
LINE
8
BLACK
6
CONTINUOUS
10
125.5149909999999949
20
-161.3320449999999937
11
125.5150089999999921
21
-161.3320549999999969
0
LINE
8
BLACK
6
CONTINUOUS
10
125.5149909999999949
20
-161.3320449999999937
11
125.4014759999999882
21
-161.2665069999999901
0
LINE
8
BLACK
6
CONTINUOUS
10
125.4014759999999882
20
-161.2665069999999901
11
125.2974849999999947
21
-161.186712
0
LINE
8
BLACK
6
CONTINUOUS
10
125.2974849999999947
20
-161.186712
11
125.5149909999999949
21
-161.3320449999999937
0
LINE
8
BLACK
6
CONTINUOUS
10
125.2974849999999947
20
-161.186712
11
125.2974770000000007
21
-161.1867069999999842
0
LINE
8
BLACK
6
CONTINUOUS
10
125.2974770000000007
20
-161.1867069999999842
11
125.297467999999995
21
-161.1866990000000044
0
LINE
8
BLACK
6
CONTINUOUS
10
125.297467999999995
20
-161.1866990000000044
11
125.2974849999999947
21
-161.186712
0
LINE
8
BLACK
6
CONTINUOUS
10
125.297467999999995
20
-161.1866990000000044
11
125.1934789999999964
21
-161.1069059999999808
0
LINE
8
BLACK
6
CONTINUOUS
10
125.1934789999999964
20
-161.1069059999999808
11
125.1007939999999934
21
-161.014220999999992
0
LINE
8
BLACK
6
CONTINUOUS
10
125.1007939999999934
20
-161.014220999999992
11
125.297467999999995
21
-161.1866990000000044
0
LINE
8
BLACK
6
CONTINUOUS
10
125.1007939999999934
20
-161.014220999999992
11
125.1007859999999994
21
-161.0142139999999813
0
LINE
8
BLACK
6
CONTINUOUS
10
125.1007859999999994
20
-161.0142139999999813
11
125.1007779999999912
21
-161.014205000000004
0
LINE
8
BLACK
6
CONTINUOUS
10
125.1007779999999912
20
-161.014205000000004
11
125.1007939999999934
21
-161.014220999999992
0
LINE
8
BLACK
6
CONTINUOUS
10
125.1007779999999912
20
-161.014205000000004
11
125.0080939999999998
21
-160.9215209999999843
0
LINE
8
BLACK
6
CONTINUOUS
10
125.0080939999999998
20
-160.9215209999999843
11
124.928299999999993
21
-160.8175310000000025
0
LINE
8
BLACK
6
CONTINUOUS
10
124.928299999999993
20
-160.8175310000000025
11
125.1007779999999912
21
-161.014205000000004
0
LINE
8
BLACK
6
CONTINUOUS
10
124.928299999999993
20
-160.8175310000000025
11
124.9282929999999965
21
-160.8175229999999942
0
LINE
8
BLACK
6
CONTINUOUS
10
124.9282929999999965
20
-160.8175229999999942
11
124.9282869999999974
21
-160.8175139999999885
0
LINE
8
BLACK
6
CONTINUOUS
10
124.9282869999999974
20
-160.8175139999999885
11
124.928299999999993
21
-160.8175310000000025
0
LINE
8
BLACK
6
CONTINUOUS
10
124.9282869999999974
20
-160.8175139999999885
11
124.8484929999999906
21
-160.7135240000000067
0
LINE
8
BLACK
6
CONTINUOUS
10
124.8484929999999906
20
-160.7135240000000067
11
124.7829539999999895
21
-160.6000080000000025
0
LINE
8
BLACK
6
CONTINUOUS
10
124.7829539999999895
20
-160.6000080000000025
11
124.9282869999999974
21
-160.8175139999999885
0
LINE
8
BLACK
6
CONTINUOUS
10
124.7829539999999895
20
-160.6000080000000025
11
124.7829489999999879
21
-160.5999999999999943
0
LINE
8
BLACK
6
CONTINUOUS
10
124.7829489999999879
20
-160.5999999999999943
11
124.7829440000000005
21
-160.5999899999999911
0
LINE
8
BLACK
6
CONTINUOUS
10
124.7829440000000005
20
-160.5999899999999911
11
124.7829539999999895
21
-160.6000080000000025
0
LINE
8
BLACK
6
CONTINUOUS
10
124.5321089999999913
20
-159.8610479999999825
11
124.5150000000000006
21
-159.7310870000000023
0
LINE
8
BLACK
6
CONTINUOUS
10
124.5150000000000006
20
-159.7310870000000023
11
124.5150000000000006
21
-159.5999999999999943
0
LINE
8
BLACK
6
CONTINUOUS
10
124.5150000000000006
20
-159.5999999999999943
11
124.5321089999999913
21
-159.8610479999999825
0
LINE
8
BLACK
6
CONTINUOUS
10
124.4978909999999956
20
-144.2889639999999929
11
124.5150000000000006
21
-144.4189130000000034
0
LINE
8
BLACK
6
CONTINUOUS
10
124.5150000000000006
20
-144.4189130000000034
11
124.5150000000000006
21
-144.5499999999999829
0
LINE
8
BLACK
6
CONTINUOUS
10
124.5150000000000006
20
-144.5499999999999829
11
124.4978909999999956
21
-144.2889639999999929
0
LINE
8
BLACK
6
CONTINUOUS
10
124.4468519999999927
20
-144.0323620000000062
11
124.4468529999999902
21
-144.0323689999999885
0
LINE
8
BLACK
6
CONTINUOUS
10
124.4468529999999902
20
-144.0323689999999885
11
124.4468490000000003
21
-144.0323549999999955
0
LINE
8
BLACK
6
CONTINUOUS
10
124.4468490000000003
20
-144.0323549999999955
11
124.4468519999999927
21
-144.0323620000000062
0
LINE
8
BLACK
6
CONTINUOUS
10
124.3627619999999894
20
-143.7846429999999884
11
124.4129239999999896
21
-143.9057420000000036
0
LINE
8
BLACK
6
CONTINUOUS
10
124.4129239999999896
20
-143.9057420000000036
11
124.4468490000000003
21
-144.0323549999999955
0
LINE
8
BLACK
6
CONTINUOUS
10
124.4468490000000003
20
-144.0323549999999955
11
124.3627619999999894
21
-143.7846429999999884
0
LINE
8
BLACK
6
CONTINUOUS
10
124.247050999999999
20
-143.5499999999999829
11
124.2470549999999889
21
-143.5500089999999886
0
LINE
8
BLACK
6
CONTINUOUS
10
124.2470549999999889
20
-143.5500089999999886
11
124.247045
21
-143.5499910000000057
0
LINE
8
BLACK
6
CONTINUOUS
10
124.247045
20
-143.5499910000000057
11
124.247050999999999
21
-143.5499999999999829
0
LINE
8
BLACK
6
CONTINUOUS
10
124.1815069999999963
20
-143.436475999999999
11
124.247045
21
-143.5499910000000057
0
LINE
8
BLACK
6
CONTINUOUS
10
124.247045
20
-143.5499910000000057
11
124.101711999999992
21
-143.3324849999999913
0
LINE
8
BLACK
6
CONTINUOUS
10
124.101711999999992
20
-143.3324849999999913
11
124.1815069999999963
21
-143.436475999999999
0
LINE
8
BLACK
6
CONTINUOUS
10
124.1017069999999904
20
-143.332476999999983
11
124.101711999999992
21
-143.3324849999999913
0
LINE
8
BLACK
6
CONTINUOUS
10
124.101711999999992
20
-143.3324849999999913
11
124.1016989999999964
21
-143.3324680000000058
0
LINE
8
BLACK
6
CONTINUOUS
10
124.1016989999999964
20
-143.3324680000000058
11
124.1017069999999904
21
-143.332476999999983
0
LINE
8
BLACK
6
CONTINUOUS
10
124.0219060000000013
20
-143.228478999999993
11
124.1016989999999964
21
-143.3324680000000058
0
LINE
8
BLACK
6
CONTINUOUS
10
124.1016989999999964
20
-143.3324680000000058
11
123.9292209999999983
21
-143.1357940000000042
0
LINE
8
BLACK
6
CONTINUOUS
10
123.9292209999999983
20
-143.1357940000000042
11
124.0219060000000013
21
-143.228478999999993
0
LINE
8
BLACK
6
CONTINUOUS
10
123.9292139999999875
20
-143.135785999999996
11
123.9292209999999983
21
-143.1357940000000042
0
LINE
8
BLACK
6
CONTINUOUS
10
123.9292209999999983
20
-143.1357940000000042
11
123.9292049999999961
21
-143.1357779999999877
0
LINE
8
BLACK
6
CONTINUOUS
10
123.9292049999999961
20
-143.1357779999999877
11
123.9292139999999875
21
-143.135785999999996
0
LINE
8
BLACK
6
CONTINUOUS
10
123.8365209999999905
20
-143.0430939999999964
11
123.9292049999999961
21
-143.1357779999999877
0
LINE
8
BLACK
6
CONTINUOUS
10
123.9292049999999961
20
-143.1357779999999877
11
123.7325309999999945
21
-142.9633000000000038
0
LINE
8
BLACK
6
CONTINUOUS
10
123.7325309999999945
20
-142.9633000000000038
11
123.8365209999999905
21
-143.0430939999999964
0
LINE
8
BLACK
6
CONTINUOUS
10
123.7325230000000005
20
-142.9632929999999931
11
123.7325309999999945
21
-142.9633000000000038
0
LINE
8
BLACK
6
CONTINUOUS
10
123.7325309999999945
20
-142.9633000000000038
11
123.7325139999999948
21
-142.9632869999999798
0
LINE
8
BLACK
6
CONTINUOUS
10
123.7325139999999948
20
-142.9632869999999798
11
123.7325230000000005
21
-142.9632929999999931
0
LINE
8
BLACK
6
CONTINUOUS
10
123.6285239999999988
20
-142.8834929999999872
11
123.7325139999999948
21
-142.9632869999999798
0
LINE
8
BLACK
6
CONTINUOUS
10
123.7325139999999948
20
-142.9632869999999798
11
123.5150079999999946
21
-142.8179539999999861
0
LINE
8
BLACK
6
CONTINUOUS
10
123.5150079999999946
20
-142.8179539999999861
11
123.6285239999999988
21
-142.8834929999999872
0
LINE
8
BLACK
6
CONTINUOUS
10
123.5150000000000006
20
-142.8179489999999987
11
123.5150079999999946
21
-142.8179539999999861
0
LINE
8
BLACK
6
CONTINUOUS
10
123.5150079999999946
20
-142.8179539999999861
11
123.5149899999999974
21
-142.8179439999999829
0
LINE
8
BLACK
6
CONTINUOUS
10
123.5149899999999974
20
-142.8179439999999829
11
123.5150000000000006
21
-142.8179489999999987
0
LINE
8
BLACK
6
CONTINUOUS
10
123.2803699999999907
20
-142.702241999999984
11
123.4014749999999907
21
-142.7524060000000077
0
LINE
8
BLACK
6
CONTINUOUS
10
123.4014749999999907
20
-142.7524060000000077
11
123.5149899999999974
21
-142.8179439999999829
0
LINE
8
BLACK
6
CONTINUOUS
10
123.5149899999999974
20
-142.8179439999999829
11
123.2803699999999907
21
-142.702241999999984
0
LINE
8
BLACK
6
CONTINUOUS
10
123.0326379999999915
20
-142.6181479999999908
11
123.0326439999999906
21
-142.6181499999999858
0
LINE
8
BLACK
6
CONTINUOUS
10
123.0326439999999906
20
-142.6181499999999858
11
123.0326299999999975
21
-142.6181459999999959
0
LINE
8
BLACK
6
CONTINUOUS
10
123.0326299999999975
20
-142.6181459999999959
11
123.0326379999999915
21
-142.6181479999999908
0
LINE
8
BLACK
6
CONTINUOUS
10
122.9060179999999889
20
-142.5842209999999852
11
123.0326299999999975
21
-142.6181459999999959
0
LINE
8
BLACK
6
CONTINUOUS
10
123.0326299999999975
20
-142.6181459999999959
11
122.7760579999999919
21
-142.5671109999999828
0
LINE
8
BLACK
6
CONTINUOUS
10
122.7760579999999919
20
-142.5671109999999828
11
122.9060179999999889
21
-142.5842209999999852
0
LINE
8
BLACK
6
CONTINUOUS
10
122.7760519999999929
20
-142.5671099999999853
11
122.7760579999999919
21
-142.5671109999999828
0
LINE
8
BLACK
6
CONTINUOUS
10
122.7760579999999919
20
-142.5671109999999828
11
122.7760449999999963
21
-142.5671089999999879
0
LINE
8
BLACK
6
CONTINUOUS
10
122.7760449999999963
20
-142.5671089999999879
11
122.7760519999999929
21
-142.5671099999999853
0
LINE
8
BLACK
6
CONTINUOUS
10
122.7760449999999963
20
-142.5671089999999879
11
122.5150000000000006
21
-142.5499999999999829
0
LINE
8
BLACK
6
CONTINUOUS
10
122.5150000000000006
20
-142.5499999999999829
11
122.6460869999999943
21
-142.5499999999999829
0
LINE
8
BLACK
6
CONTINUOUS
10
122.6460869999999943
20
-142.5499999999999829
11
122.7760449999999963
21
-142.5671089999999879
0
LINE
8
BLACK
6
CONTINUOUS
10
107.4649999999999892
20
-142.5499999999999829
11
107.3339129999999955
21
-142.5499999999999829
0
LINE
8
BLACK
6
CONTINUOUS
10
107.3339129999999955
20
-142.5499999999999829
11
107.203953999999996
21
-142.5328899999999805
0
LINE
8
BLACK
6
CONTINUOUS
10
107.203953999999996
20
-142.5328899999999805
11
107.4649999999999892
21
-142.5499999999999829
0
LINE
8
BLACK
6
CONTINUOUS
10
107.203953999999996
20
-142.5328899999999805
11
107.2039479999999969
21
-142.5328899999999805
0
LINE
8
BLACK
6
CONTINUOUS
10
107.2039479999999969
20
-142.5328899999999805
11
107.2039410000000004
21
-142.5328879999999856
0
LINE
8
BLACK
6
CONTINUOUS
10
107.2039410000000004
20
-142.5328879999999856
11
107.203953999999996
21
-142.5328899999999805
0
LINE
8
BLACK
6
CONTINUOUS
10
107.2039410000000004
20
-142.5328879999999856
11
107.0739820000000009
21
-142.5157789999999807
0
LINE
8
BLACK
6
CONTINUOUS
10
107.0739820000000009
20
-142.5157789999999807
11
106.9473689999999948
21
-142.481853000000001
0
LINE
8
BLACK
6
CONTINUOUS
10
106.9473689999999948
20
-142.481853000000001
11
107.2039410000000004
21
-142.5328879999999856
0
LINE
8
BLACK
6
CONTINUOUS
10
106.9473689999999948
20
-142.481853000000001
11
106.9473619999999983
21
-142.4818520000000035
0
LINE
8
BLACK
6
CONTINUOUS
10
106.9473619999999983
20
-142.4818520000000035
11
106.9473550000000017
21
-142.4818489999999827
0
LINE
8
BLACK
6
CONTINUOUS
10
106.9473550000000017
20
-142.4818489999999827
11
106.9473689999999948
21
-142.481853000000001
0
LINE
8
BLACK
6
CONTINUOUS
10
106.9473550000000017
20
-142.4818489999999827
11
106.8207419999999956
21
-142.4479240000000004
0
LINE
8
BLACK
6
CONTINUOUS
10
106.8207419999999956
20
-142.4479240000000004
11
106.6996350000000007
21
-142.3977590000000077
0
LINE
8
BLACK
6
CONTINUOUS
10
106.6996350000000007
20
-142.3977590000000077
11
106.9473550000000017
21
-142.4818489999999827
0
LINE
8
BLACK
6
CONTINUOUS
10
106.6996350000000007
20
-142.3977590000000077
11
106.6996329999999915
21
-142.3977590000000077
0
LINE
8
BLACK
6
CONTINUOUS
10
106.6996329999999915
20
-142.3977590000000077
11
106.6996299999999991
21
-142.3977569999999844
0
LINE
8
BLACK
6
CONTINUOUS
10
106.6996299999999991
20
-142.3977569999999844
11
106.6996350000000007
21
-142.3977590000000077
0
LINE
8
BLACK
6
CONTINUOUS
10
106.6996299999999991
20
-142.3977569999999844
11
106.5785249999999991
21
-142.3475939999999866
0
LINE
8
BLACK
6
CONTINUOUS
10
106.5785249999999991
20
-142.3475939999999866
11
106.4650089999999949
21
-142.2820549999999855
0
LINE
8
BLACK
6
CONTINUOUS
10
106.4650089999999949
20
-142.2820549999999855
11
106.6996299999999991
21
-142.3977569999999844
0
LINE
8
BLACK
6
CONTINUOUS
10
106.4650089999999949
20
-142.2820549999999855
11
106.4649999999999892
21
-142.2820509999999956
0
LINE
8
BLACK
6
CONTINUOUS
10
106.4649999999999892
20
-142.2820509999999956
11
106.4649909999999977
21
-142.2820449999999823
0
LINE
8
BLACK
6
CONTINUOUS
10
106.4649909999999977
20
-142.2820449999999823
11
106.4650089999999949
21
-142.2820549999999855
0
LINE
8
BLACK
6
CONTINUOUS
10
106.4649909999999977
20
-142.2820449999999823
11
106.351475999999991
21
-142.2165070000000071
0
LINE
8
BLACK
6
CONTINUOUS
10
106.351475999999991
20
-142.2165070000000071
11
106.2474849999999975
21
-142.1367119999999886
0
LINE
8
BLACK
6
CONTINUOUS
10
106.2474849999999975
20
-142.1367119999999886
11
106.4649909999999977
21
-142.2820449999999823
0
LINE
8
BLACK
6
CONTINUOUS
10
106.2474849999999975
20
-142.1367119999999886
11
106.2474769999999893
21
-142.1367070000000012
0
LINE
8
BLACK
6
CONTINUOUS
10
106.2474769999999893
20
-142.1367070000000012
11
106.2474679999999978
21
-142.136698999999993
0
LINE
8
BLACK
6
CONTINUOUS
10
106.2474679999999978
20
-142.136698999999993
11
106.2474849999999975
21
-142.1367119999999886
0
LINE
8
BLACK
6
CONTINUOUS
10
106.2474679999999978
20
-142.136698999999993
11
106.1434789999999992
21
-142.0569059999999979
0
LINE
8
BLACK
6
CONTINUOUS
10
106.1434789999999992
20
-142.0569059999999979
11
106.0507939999999962
21
-141.9642209999999807
0
LINE
8
BLACK
6
CONTINUOUS
10
106.0507939999999962
20
-141.9642209999999807
11
106.2474679999999978
21
-142.136698999999993
0
LINE
8
BLACK
6
CONTINUOUS
10
106.0507939999999962
20
-141.9642209999999807
11
106.0507860000000022
21
-141.9642139999999984
0
LINE
8
BLACK
6
CONTINUOUS
10
106.0507860000000022
20
-141.9642139999999984
11
106.050777999999994
21
-141.9642049999999927
0
LINE
8
BLACK
6
CONTINUOUS
10
106.050777999999994
20
-141.9642049999999927
11
106.0507939999999962
21
-141.9642209999999807
0
LINE
8
BLACK
6
CONTINUOUS
10
106.050777999999994
20
-141.9642049999999927
11
105.9580939999999885
21
-141.8715210000000013
0
LINE
8
BLACK
6
CONTINUOUS
10
105.9580939999999885
20
-141.8715210000000013
11
105.8782999999999959
21
-141.7675309999999911
0
LINE
8
BLACK
6
CONTINUOUS
10
105.8782999999999959
20
-141.7675309999999911
11
106.050777999999994
21
-141.9642049999999927
0
LINE
8
BLACK
6
CONTINUOUS
10
105.8782999999999959
20
-141.7675309999999911
11
105.8782929999999993
21
-141.7675229999999829
0
LINE
8
BLACK
6
CONTINUOUS
10
105.8782929999999993
20
-141.7675229999999829
11
105.8782870000000003
21
-141.7675140000000056
0
LINE
8
BLACK
6
CONTINUOUS
10
105.8782870000000003
20
-141.7675140000000056
11
105.8782999999999959
21
-141.7675309999999911
0
LINE
8
BLACK
6
CONTINUOUS
10
105.8782870000000003
20
-141.7675140000000056
11
105.7984929999999935
21
-141.6635239999999953
0
LINE
8
BLACK
6
CONTINUOUS
10
105.7984929999999935
20
-141.6635239999999953
11
105.7329539999999923
21
-141.5500079999999912
0
LINE
8
BLACK
6
CONTINUOUS
10
105.7329539999999923
20
-141.5500079999999912
11
105.8782870000000003
21
-141.7675140000000056
0
LINE
8
BLACK
6
CONTINUOUS
10
105.7329539999999923
20
-141.5500079999999912
11
105.7329489999999907
21
-141.5499999999999829
0
LINE
8
BLACK
6
CONTINUOUS
10
105.7329489999999907
20
-141.5499999999999829
11
105.7329439999999892
21
-141.5499899999999798
0
LINE
8
BLACK
6
CONTINUOUS
10
105.7329439999999892
20
-141.5499899999999798
11
105.7329539999999923
21
-141.5500079999999912
0
LINE
8
BLACK
6
CONTINUOUS
10
105.4821089999999941
20
-140.8110479999999995
11
105.4649999999999892
21
-140.6810869999999909
0
LINE
8
BLACK
6
CONTINUOUS
10
105.4649999999999892
20
-140.6810869999999909
11
105.4649999999999892
21
-140.5499999999999829
0
LINE
8
BLACK
6
CONTINUOUS
10
105.4649999999999892
20
-140.5499999999999829
11
105.4821089999999941
21
-140.8110479999999995
0
LINE
8
BLACK
6
CONTINUOUS
10
19.1999999999999993
20
-134.9300000000000068
11
19.0689129999999984
21
-134.9300000000000068
0
LINE
8
BLACK
6
CONTINUOUS
10
19.0689129999999984
20
-134.9300000000000068
11
18.938953999999999
21
-134.9128900000000044
0
LINE
8
BLACK
6
CONTINUOUS
10
18.938953999999999
20
-134.9128900000000044
11
19.1999999999999993
21
-134.9300000000000068
0
LINE
8
BLACK
6
CONTINUOUS
10
60.431086999999998
20
-134.9300000000000068
11
60.2999999999999972
21
-134.9300000000000068
0
LINE
8
BLACK
6
CONTINUOUS
10
60.2999999999999972
20
-134.9300000000000068
11
60.561045
21
-134.9128900000000044
0
LINE
8
BLACK
6
CONTINUOUS
10
60.561045
20
-134.9128900000000044
11
60.431086999999998
21
-134.9300000000000068
0
LINE
8
BLACK
6
CONTINUOUS
10
18.938953999999999
20
-134.9128900000000044
11
18.9389479999999999
21
-134.9128900000000044
0
LINE
8
BLACK
6
CONTINUOUS
10
18.9389479999999999
20
-134.9128900000000044
11
18.9389409999999998
21
-134.912887999999981
0
LINE
8
BLACK
6
CONTINUOUS
10
18.9389409999999998
20
-134.912887999999981
11
18.938953999999999
21
-134.9128900000000044
0
LINE
8
BLACK
6
CONTINUOUS
10
60.5610519999999966
20
-134.9128900000000044
11
60.561045
21
-134.9128900000000044
0
LINE
8
BLACK
6
CONTINUOUS
10
60.561045
20
-134.9128900000000044
11
60.5610579999999956
21
-134.912887999999981
0
LINE
8
BLACK
6
CONTINUOUS
10
60.5610579999999956
20
-134.912887999999981
11
60.5610519999999966
21
-134.9128900000000044
0
LINE
8
BLACK
6
CONTINUOUS
10
18.9389409999999998
20
-134.912887999999981
11
18.8089820000000003
21
-134.8957790000000045
0
LINE
8
BLACK
6
CONTINUOUS
10
18.8089820000000003
20
-134.8957790000000045
11
18.6823689999999978
21
-134.8618529999999964
0
LINE
8
BLACK
6
CONTINUOUS
10
18.6823689999999978
20
-134.8618529999999964
11
18.9389409999999998
21
-134.912887999999981
0
LINE
8
BLACK
6
CONTINUOUS
10
60.6910179999999997
20
-134.8957790000000045
11
60.5610579999999956
21
-134.912887999999981
0
LINE
8
BLACK
6
CONTINUOUS
10
60.5610579999999956
20
-134.912887999999981
11
60.8176299999999941
21
-134.8618529999999964
0
LINE
8
BLACK
6
CONTINUOUS
10
60.8176299999999941
20
-134.8618529999999964
11
60.6910179999999997
21
-134.8957790000000045
0
LINE
8
BLACK
6
CONTINUOUS
10
18.6823689999999978
20
-134.8618529999999964
11
18.6823619999999977
21
-134.861851999999999
0
LINE
8
BLACK
6
CONTINUOUS
10
18.6823619999999977
20
-134.861851999999999
11
18.6823549999999976
21
-134.8618490000000065
0
LINE
8
BLACK
6
CONTINUOUS
10
18.6823549999999976
20
-134.8618490000000065
11
18.6823689999999978
21
-134.8618529999999964
0
LINE
8
BLACK
6
CONTINUOUS
10
60.8176379999999952
20
-134.861851999999999
11
60.8176299999999941
21
-134.8618529999999964
0
LINE
8
BLACK
6
CONTINUOUS
10
60.8176299999999941
20
-134.8618529999999964
11
60.8176439999999943
21
-134.8618490000000065
0
LINE
8
BLACK
6
CONTINUOUS
10
60.8176439999999943
20
-134.8618490000000065
11
60.8176379999999952
21
-134.861851999999999
0
LINE
8
BLACK
6
CONTINUOUS
10
18.6823549999999976
20
-134.8618490000000065
11
18.5557419999999986
21
-134.8279239999999959
0
LINE
8
BLACK
6
CONTINUOUS
10
18.5557419999999986
20
-134.8279239999999959
11
18.4346350000000001
21
-134.7777590000000032
0
LINE
8
BLACK
6
CONTINUOUS
10
18.4346350000000001
20
-134.7777590000000032
11
18.6823549999999976
21
-134.8618490000000065
0
LINE
8
BLACK
6
CONTINUOUS
10
60.9442579999999978
20
-134.8279239999999959
11
60.8176439999999943
21
-134.8618490000000065
0
LINE
8
BLACK
6
CONTINUOUS
10
60.8176439999999943
20
-134.8618490000000065
11
61.0653639999999953
21
-134.7777590000000032
0
LINE
8
BLACK
6
CONTINUOUS
10
61.0653639999999953
20
-134.7777590000000032
11
60.9442579999999978
21
-134.8279239999999959
0
LINE
8
BLACK
6
CONTINUOUS
10
18.4346350000000001
20
-134.7777590000000032
11
18.434632999999998
21
-134.7777590000000032
0
LINE
8
BLACK
6
CONTINUOUS
10
18.434632999999998
20
-134.7777590000000032
11
18.4346299999999985
21
-134.7777569999999798
0
LINE
8
BLACK
6
CONTINUOUS
10
18.4346299999999985
20
-134.7777569999999798
11
18.4346350000000001
21
-134.7777590000000032
0
LINE
8
BLACK
6
CONTINUOUS
10
61.0653669999999948
20
-134.7777590000000032
11
61.0653639999999953
21
-134.7777590000000032
0
LINE
8
BLACK
6
CONTINUOUS
10
61.0653639999999953
20
-134.7777590000000032
11
61.0653689999999969
21
-134.7777569999999798
0
LINE
8
BLACK
6
CONTINUOUS
10
61.0653689999999969
20
-134.7777569999999798
11
61.0653669999999948
21
-134.7777590000000032
0
LINE
8
BLACK
6
CONTINUOUS
10
18.4346299999999985
20
-134.7777569999999798
11
18.3135249999999985
21
-134.7275939999999821
0
LINE
8
BLACK
6
CONTINUOUS
10
18.3135249999999985
20
-134.7275939999999821
11
18.2000089999999979
21
-134.662054999999981
0
LINE
8
BLACK
6
CONTINUOUS
10
18.2000089999999979
20
-134.662054999999981
11
18.4346299999999985
21
-134.7777569999999798
0
LINE
8
BLACK
6
CONTINUOUS
10
61.1864749999999944
20
-134.7275939999999821
11
61.0653689999999969
21
-134.7777569999999798
0
LINE
8
BLACK
6
CONTINUOUS
10
61.0653689999999969
20
-134.7777569999999798
11
61.299989999999994
21
-134.662054999999981
0
LINE
8
BLACK
6
CONTINUOUS
10
61.299989999999994
20
-134.662054999999981
11
61.1864749999999944
21
-134.7275939999999821
0
LINE
8
BLACK
6
CONTINUOUS
10
18.2000089999999979
20
-134.662054999999981
11
18.1999999999999993
21
-134.6620509999999911
0
LINE
8
BLACK
6
CONTINUOUS
10
18.1999999999999993
20
-134.6620509999999911
11
18.1999910000000007
21
-134.6620450000000062
0
LINE
8
BLACK
6
CONTINUOUS
10
18.1999910000000007
20
-134.6620450000000062
11
18.2000089999999979
21
-134.662054999999981
0
LINE
8
BLACK
6
CONTINUOUS
10
61.2999999999999972
20
-134.6620509999999911
11
61.299989999999994
21
-134.662054999999981
0
LINE
8
BLACK
6
CONTINUOUS
10
61.299989999999994
20
-134.662054999999981
11
61.3000079999999983
21
-134.6620450000000062
0
LINE
8
BLACK
6
CONTINUOUS
10
61.3000079999999983
20
-134.6620450000000062
11
61.2999999999999972
21
-134.6620509999999911
0
LINE
8
BLACK
6
CONTINUOUS
10
18.1999910000000007
20
-134.6620450000000062
11
18.0864759999999976
21
-134.5965070000000026
0
LINE
8
BLACK
6
CONTINUOUS
10
18.0864759999999976
20
-134.5965070000000026
11
17.9824850000000005
21
-134.5167119999999841
0
LINE
8
BLACK
6
CONTINUOUS
10
17.9824850000000005
20
-134.5167119999999841
11
18.1999910000000007
21
-134.6620450000000062
0
LINE
8
BLACK
6
CONTINUOUS
10
61.4135239999999953
20
-134.5965070000000026
11
61.3000079999999983
21
-134.6620450000000062
0
LINE
8
BLACK
6
CONTINUOUS
10
61.3000079999999983
20
-134.6620450000000062
11
61.5175139999999985
21
-134.5167119999999841
0
LINE
8
BLACK
6
CONTINUOUS
10
61.5175139999999985
20
-134.5167119999999841
11
61.4135239999999953
21
-134.5965070000000026
0
LINE
8
BLACK
6
CONTINUOUS
10
17.9824850000000005
20
-134.5167119999999841
11
17.9824769999999994
21
-134.5167069999999967
0
LINE
8
BLACK
6
CONTINUOUS
10
17.9824769999999994
20
-134.5167069999999967
11
17.9824680000000008
21
-134.5166989999999885
0
LINE
8
BLACK
6
CONTINUOUS
10
17.9824680000000008
20
-134.5166989999999885
11
17.9824850000000005
21
-134.5167119999999841
0
LINE
8
BLACK
6
CONTINUOUS
10
61.5175229999999971
20
-134.5167069999999967
11
61.5175139999999985
21
-134.5167119999999841
0
LINE
8
BLACK
6
CONTINUOUS
10
61.5175139999999985
20
-134.5167119999999841
11
61.5175309999999982
21
-134.5166989999999885
0
LINE
8
BLACK
6
CONTINUOUS
10
61.5175309999999982
20
-134.5166989999999885
11
61.5175229999999971
21
-134.5167069999999967
0
LINE
8
BLACK
6
CONTINUOUS
10
17.9824680000000008
20
-134.5166989999999885
11
17.8784789999999987
21
-134.4369059999999934
0
LINE
8
BLACK
6
CONTINUOUS
10
17.8784789999999987
20
-134.4369059999999934
11
17.7857939999999992
21
-134.3442210000000046
0
LINE
8
BLACK
6
CONTINUOUS
10
17.7857939999999992
20
-134.3442210000000046
11
17.9824680000000008
21
-134.5166989999999885
0
LINE
8
BLACK
6
CONTINUOUS
10
61.6215209999999942
20
-134.4369059999999934
11
61.5175309999999982
21
-134.5166989999999885
0
LINE
8
BLACK
6
CONTINUOUS
10
61.5175309999999982
20
-134.5166989999999885
11
61.7142049999999998
21
-134.3442210000000046
0
LINE
8
BLACK
6
CONTINUOUS
10
61.7142049999999998
20
-134.3442210000000046
11
61.6215209999999942
21
-134.4369059999999934
0
LINE
8
BLACK
6
CONTINUOUS
10
17.7857939999999992
20
-134.3442210000000046
11
17.7857859999999981
21
-134.3442139999999938
0
LINE
8
BLACK
6
CONTINUOUS
10
17.7857859999999981
20
-134.3442139999999938
11
17.7857780000000005
21
-134.3442049999999881
0
LINE
8
BLACK
6
CONTINUOUS
10
17.7857780000000005
20
-134.3442049999999881
11
17.7857939999999992
21
-134.3442210000000046
0
LINE
8
BLACK
6
CONTINUOUS
10
61.7142139999999984
20
-134.3442139999999938
11
61.7142049999999998
21
-134.3442210000000046
0
LINE
8
BLACK
6
CONTINUOUS
10
61.7142049999999998
20
-134.3442210000000046
11
61.7142209999999949
21
-134.3442049999999881
0
LINE
8
BLACK
6
CONTINUOUS
10
61.7142209999999949
20
-134.3442049999999881
11
61.7142139999999984
21
-134.3442139999999938
0
LINE
8
BLACK
6
CONTINUOUS
10
17.7857780000000005
20
-134.3442049999999881
11
17.6930939999999985
21
-134.2515209999999968
0
LINE
8
BLACK
6
CONTINUOUS
10
17.6930939999999985
20
-134.2515209999999968
11
17.6132999999999988
21
-134.1475309999999865
0
LINE
8
BLACK
6
CONTINUOUS
10
17.6132999999999988
20
-134.1475309999999865
11
17.7857780000000005
21
-134.3442049999999881
0
LINE
8
BLACK
6
CONTINUOUS
10
61.8069059999999979
20
-134.2515209999999968
11
61.7142209999999949
21
-134.3442049999999881
0
LINE
8
BLACK
6
CONTINUOUS
10
61.7142209999999949
20
-134.3442049999999881
11
61.8866990000000001
21
-134.1475309999999865
0
LINE
8
BLACK
6
CONTINUOUS
10
61.8866990000000001
20
-134.1475309999999865
11
61.8069059999999979
21
-134.2515209999999968
0
LINE
8
BLACK
6
CONTINUOUS
10
17.6132999999999988
20
-134.1475309999999865
11
17.6132929999999988
21
-134.1475230000000067
0
LINE
8
BLACK
6
CONTINUOUS
10
17.6132929999999988
20
-134.1475230000000067
11
17.6132869999999997
21
-134.147514000000001
0
LINE
8
BLACK
6
CONTINUOUS
10
17.6132869999999997
20
-134.147514000000001
11
17.6132999999999988
21
-134.1475309999999865
0
LINE
8
BLACK
6
CONTINUOUS
10
61.8867069999999941
20
-134.1475230000000067
11
61.8866990000000001
21
-134.1475309999999865
0
LINE
8
BLACK
6
CONTINUOUS
10
61.8866990000000001
20
-134.1475309999999865
11
61.8867119999999957
21
-134.147514000000001
0
LINE
8
BLACK
6
CONTINUOUS
10
61.8867119999999957
20
-134.147514000000001
11
61.8867069999999941
21
-134.1475230000000067
0
LINE
8
BLACK
6
CONTINUOUS
10
17.6132869999999997
20
-134.147514000000001
11
17.533493
21
-134.0435239999999908
0
LINE
8
BLACK
6
CONTINUOUS
10
17.533493
20
-134.0435239999999908
11
17.4679539999999989
21
-133.9300079999999866
0
LINE
8
BLACK
6
CONTINUOUS
10
17.4679539999999989
20
-133.9300079999999866
11
17.6132869999999997
21
-134.147514000000001
0
LINE
8
BLACK
6
CONTINUOUS
10
61.966507
20
-134.0435239999999908
11
61.8867119999999957
21
-134.147514000000001
0
LINE
8
BLACK
6
CONTINUOUS
10
61.8867119999999957
20
-134.147514000000001
11
62.0320449999999965
21
-133.9300079999999866
0
LINE
8
BLACK
6
CONTINUOUS
10
62.0320449999999965
20
-133.9300079999999866
11
61.966507
21
-134.0435239999999908
0
LINE
8
BLACK
6
CONTINUOUS
10
17.4679539999999989
20
-133.9300079999999866
11
17.4679490000000008
21
-133.9300000000000068
0
LINE
8
BLACK
6
CONTINUOUS
10
17.4679490000000008
20
-133.9300000000000068
11
17.4679439999999992
21
-133.9299900000000036
0
LINE
8
BLACK
6
CONTINUOUS
10
17.4679439999999992
20
-133.9299900000000036
11
17.4679539999999989
21
-133.9300079999999866
0
LINE
8
BLACK
6
CONTINUOUS
10
62.0320509999999956
20
-133.9300000000000068
11
62.0320449999999965
21
-133.9300079999999866
0
LINE
8
BLACK
6
CONTINUOUS
10
62.0320449999999965
20
-133.9300079999999866
11
62.0320549999999997
21
-133.9299900000000036
0
LINE
8
BLACK
6
CONTINUOUS
10
62.0320549999999997
20
-133.9299900000000036
11
62.0320509999999956
21
-133.9300000000000068
0
LINE
8
BLACK
6
CONTINUOUS
10
17.2171090000000007
20
-133.191047999999995
11
17.1999999999999993
21
-133.0610869999999863
0
LINE
8
BLACK
6
CONTINUOUS
10
17.1999999999999993
20
-133.0610869999999863
11
17.1999999999999993
21
-132.9300000000000068
0
LINE
8
BLACK
6
CONTINUOUS
10
17.1999999999999993
20
-132.9300000000000068
11
17.2171090000000007
21
-133.191047999999995
0
LINE
8
BLACK
6
CONTINUOUS
10
62.1477509999999995
20
-133.6953819999999951
11
62.0975939999999937
21
-133.816474999999997
0
LINE
8
BLACK
6
CONTINUOUS
10
62.0975939999999937
20
-133.816474999999997
11
62.0320549999999997
21
-133.9299900000000036
0
LINE
8
BLACK
6
CONTINUOUS
10
62.0320549999999997
20
-133.9299900000000036
11
62.1477509999999995
21
-133.6953819999999951
0
LINE
8
BLACK
6
CONTINUOUS
10
105.4478909999999985
20
-125.2389639999999957
11
105.4649999999999892
21
-125.3689129999999921
0
LINE
8
BLACK
6
CONTINUOUS
10
105.4649999999999892
20
-125.3689129999999921
11
105.4649999999999892
21
-125.5
0
LINE
8
BLACK
6
CONTINUOUS
10
105.4649999999999892
20
-125.5
11
105.4478909999999985
21
-125.2389639999999957
0
LINE
8
BLACK
6
CONTINUOUS
10
105.3968519999999955
20
-124.9823619999999949
11
105.396852999999993
21
-124.9823689999999914
0
LINE
8
BLACK
6
CONTINUOUS
10
105.396852999999993
20
-124.9823689999999914
11
105.3968489999999889
21
-124.9823549999999983
0
LINE
8
BLACK
6
CONTINUOUS
10
105.3968489999999889
20
-124.9823549999999983
11
105.3968519999999955
21
-124.9823619999999949
0
LINE
8
BLACK
6
CONTINUOUS
10
105.3127619999999922
20
-124.7346429999999913
11
105.3629239999999925
21
-124.8557419999999922
0
LINE
8
BLACK
6
CONTINUOUS
10
105.3629239999999925
20
-124.8557419999999922
11
105.3968489999999889
21
-124.9823549999999983
0
LINE
8
BLACK
6
CONTINUOUS
10
105.3968489999999889
20
-124.9823549999999983
11
105.3127619999999922
21
-124.7346429999999913
0
LINE
8
BLACK
6
CONTINUOUS
10
105.1970510000000019
20
-124.5
11
105.1970549999999918
21
-124.5000089999999915
0
LINE
8
BLACK
6
CONTINUOUS
10
105.1970549999999918
20
-124.5000089999999915
11
105.1970449999999886
21
-124.4999909999999943
0
LINE
8
BLACK
6
CONTINUOUS
10
105.1970449999999886
20
-124.4999909999999943
11
105.1970510000000019
21
-124.5
0
LINE
8
BLACK
6
CONTINUOUS
10
105.1315069999999992
20
-124.3864759999999876
11
105.1970449999999886
21
-124.4999909999999943
0
LINE
8
BLACK
6
CONTINUOUS
10
105.1970449999999886
20
-124.4999909999999943
11
105.0517119999999949
21
-124.2824849999999941
0
LINE
8
BLACK
6
CONTINUOUS
10
105.0517119999999949
20
-124.2824849999999941
11
105.1315069999999992
21
-124.3864759999999876
0
LINE
8
BLACK
6
CONTINUOUS
10
105.0517069999999933
20
-124.2824770000000001
11
105.0517119999999949
21
-124.2824849999999941
0
LINE
8
BLACK
6
CONTINUOUS
10
105.0517119999999949
20
-124.2824849999999941
11
105.0516989999999993
21
-124.2824679999999944
0
LINE
8
BLACK
6
CONTINUOUS
10
105.0516989999999993
20
-124.2824679999999944
11
105.0517069999999933
21
-124.2824770000000001
0
LINE
8
BLACK
6
CONTINUOUS
10
104.9719059999999899
20
-124.1784789999999958
11
105.0516989999999993
21
-124.2824679999999944
0
LINE
8
BLACK
6
CONTINUOUS
10
105.0516989999999993
20
-124.2824679999999944
11
104.8792210000000011
21
-124.0857939999999928
0
LINE
8
BLACK
6
CONTINUOUS
10
104.8792210000000011
20
-124.0857939999999928
11
104.9719059999999899
21
-124.1784789999999958
0
LINE
8
BLACK
6
CONTINUOUS
10
104.8792139999999904
20
-124.0857859999999988
11
104.8792210000000011
21
-124.0857939999999928
0
LINE
8
BLACK
6
CONTINUOUS
10
104.8792210000000011
20
-124.0857939999999928
11
104.8792049999999989
21
-124.0857779999999906
0
LINE
8
BLACK
6
CONTINUOUS
10
104.8792049999999989
20
-124.0857779999999906
11
104.8792139999999904
21
-124.0857859999999988
0
LINE
8
BLACK
6
CONTINUOUS
10
104.7865209999999934
20
-123.9930939999999993
11
104.8792049999999989
21
-124.0857779999999906
0
LINE
8
BLACK
6
CONTINUOUS
10
104.8792049999999989
20
-124.0857779999999906
11
104.6825309999999973
21
-123.9132999999999925
0
LINE
8
BLACK
6
CONTINUOUS
10
104.6825309999999973
20
-123.9132999999999925
11
104.7865209999999934
21
-123.9930939999999993
0
LINE
8
BLACK
6
CONTINUOUS
10
104.6825229999999891
20
-123.9132929999999959
11
104.6825309999999973
21
-123.9132999999999925
0
LINE
8
BLACK
6
CONTINUOUS
10
104.6825309999999973
20
-123.9132999999999925
11
104.6825139999999976
21
-123.9132869999999969
0
LINE
8
BLACK
6
CONTINUOUS
10
104.6825139999999976
20
-123.9132869999999969
11
104.6825229999999891
21
-123.9132929999999959
0
LINE
8
BLACK
6
CONTINUOUS
10
104.5785240000000016
20
-123.83349299999999
11
104.6825139999999976
21
-123.9132869999999969
0
LINE
8
BLACK
6
CONTINUOUS
10
104.6825139999999976
20
-123.9132869999999969
11
104.4650079999999974
21
-123.7679539999999889
0
LINE
8
BLACK
6
CONTINUOUS
10
104.4650079999999974
20
-123.7679539999999889
11
104.5785240000000016
21
-123.83349299999999
0
LINE
8
BLACK
6
CONTINUOUS
10
104.4649999999999892
20
-123.7679489999999873
11
104.4650079999999974
21
-123.7679539999999889
0
LINE
8
BLACK
6
CONTINUOUS
10
104.4650079999999974
20
-123.7679539999999889
11
104.4649900000000002
21
-123.767944
0
LINE
8
BLACK
6
CONTINUOUS
10
104.4649900000000002
20
-123.767944
11
104.4649999999999892
21
-123.7679489999999873
0
LINE
8
BLACK
6
CONTINUOUS
10
104.2303699999999935
20
-123.6522420000000011
11
104.3514749999999935
21
-123.7024059999999963
0
LINE
8
BLACK
6
CONTINUOUS
10
104.3514749999999935
20
-123.7024059999999963
11
104.4649900000000002
21
-123.767944
0
LINE
8
BLACK
6
CONTINUOUS
10
104.4649900000000002
20
-123.767944
11
104.2303699999999935
21
-123.6522420000000011
0
LINE
8
BLACK
6
CONTINUOUS
10
103.9826379999999943
20
-123.5681479999999937
11
103.9826439999999934
21
-123.5681499999999886
0
LINE
8
BLACK
6
CONTINUOUS
10
103.9826439999999934
20
-123.5681499999999886
11
103.9826300000000003
21
-123.5681459999999987
0
LINE
8
BLACK
6
CONTINUOUS
10
103.9826300000000003
20
-123.5681459999999987
11
103.9826379999999943
21
-123.5681479999999937
0
LINE
8
BLACK
6
CONTINUOUS
10
103.8560179999999917
20
-123.5342209999999881
11
103.9826300000000003
21
-123.5681459999999987
0
LINE
8
BLACK
6
CONTINUOUS
10
103.9826300000000003
20
-123.5681459999999987
11
103.7260579999999948
21
-123.5171109999999999
0
LINE
8
BLACK
6
CONTINUOUS
10
103.7260579999999948
20
-123.5171109999999999
11
103.8560179999999917
21
-123.5342209999999881
0
LINE
8
BLACK
6
CONTINUOUS
10
103.7260519999999957
20
-123.5171099999999882
11
103.7260579999999948
21
-123.5171109999999999
0
LINE
8
BLACK
6
CONTINUOUS
10
103.7260579999999948
20
-123.5171109999999999
11
103.7260449999999992
21
-123.5171089999999907
0
LINE
8
BLACK
6
CONTINUOUS
10
103.7260449999999992
20
-123.5171089999999907
11
103.7260519999999957
21
-123.5171099999999882
0
LINE
8
BLACK
6
CONTINUOUS
10
103.7260449999999992
20
-123.5171089999999907
11
103.4649999999999892
21
-123.5
0
LINE
8
BLACK
6
CONTINUOUS
10
103.4649999999999892
20
-123.5
11
103.5960869999999971
21
-123.5
0
LINE
8
BLACK
6
CONTINUOUS
10
103.5960869999999971
20
-123.5
11
103.7260449999999992
21
-123.5171089999999907
0
LINE
8
BLACK
6
CONTINUOUS
10
95.3999999999999915
20
-123.5
11
95.2689129999999977
21
-123.5
0
LINE
8
BLACK
6
CONTINUOUS
10
95.2689129999999977
20
-123.5
11
95.1389539999999982
21
-123.4828899999999976
0
LINE
8
BLACK
6
CONTINUOUS
10
95.1389539999999982
20
-123.4828899999999976
11
95.3999999999999915
21
-123.5
0
LINE
8
BLACK
6
CONTINUOUS
10
95.1389539999999982
20
-123.4828899999999976
11
95.1389479999999992
21
-123.4828899999999976
0
LINE
8
BLACK
6
CONTINUOUS
10
95.1389479999999992
20
-123.4828899999999976
11
95.1389410000000026
21
-123.4828879999999884
0
LINE
8
BLACK
6
CONTINUOUS
10
95.1389410000000026
20
-123.4828879999999884
11
95.1389539999999982
21
-123.4828899999999976
0
LINE
8
BLACK
6
CONTINUOUS
10
95.1389410000000026
20
-123.4828879999999884
11
95.0089819999999889
21
-123.4657789999999977
0
LINE
8
BLACK
6
CONTINUOUS
10
95.0089819999999889
20
-123.4657789999999977
11
94.8823689999999971
21
-123.4318529999999896
0
LINE
8
BLACK
6
CONTINUOUS
10
94.8823689999999971
20
-123.4318529999999896
11
95.1389410000000026
21
-123.4828879999999884
0
LINE
8
BLACK
6
CONTINUOUS
10
94.8823689999999971
20
-123.4318529999999896
11
94.8823620000000005
21
-123.4318519999999921
0
LINE
8
BLACK
6
CONTINUOUS
10
94.8823620000000005
20
-123.4318519999999921
11
94.8823549999999898
21
-123.4318489999999997
0
LINE
8
BLACK
6
CONTINUOUS
10
94.8823549999999898
20
-123.4318489999999997
11
94.8823689999999971
21
-123.4318529999999896
0
LINE
8
BLACK
6
CONTINUOUS
10
94.8823549999999898
20
-123.4318489999999997
11
94.7557419999999979
21
-123.3979239999999891
0
LINE
8
BLACK
6
CONTINUOUS
10
94.7557419999999979
20
-123.3979239999999891
11
94.6346349999999887
21
-123.3477589999999964
0
LINE
8
BLACK
6
CONTINUOUS
10
94.6346349999999887
20
-123.3477589999999964
11
94.8823549999999898
21
-123.4318489999999997
0
LINE
8
BLACK
6
CONTINUOUS
10
94.6346349999999887
20
-123.3477589999999964
11
94.6346329999999938
21
-123.3477589999999964
0
LINE
8
BLACK
6
CONTINUOUS
10
94.6346329999999938
20
-123.3477589999999964
11
94.6346300000000014
21
-123.3477570000000014
0
LINE
8
BLACK
6
CONTINUOUS
10
94.6346300000000014
20
-123.3477570000000014
11
94.6346349999999887
21
-123.3477589999999964
0
LINE
8
BLACK
6
CONTINUOUS
10
94.6346300000000014
20
-123.3477570000000014
11
94.5135250000000013
21
-123.2975939999999895
0
LINE
8
BLACK
6
CONTINUOUS
10
94.5135250000000013
20
-123.2975939999999895
11
94.4000089999999972
21
-123.2320549999999884
0
LINE
8
BLACK
6
CONTINUOUS
10
94.4000089999999972
20
-123.2320549999999884
11
94.6346300000000014
21
-123.3477570000000014
0
LINE
8
BLACK
6
CONTINUOUS
10
94.4000089999999972
20
-123.2320549999999884
11
94.3999999999999915
21
-123.2320509999999985
0
LINE
8
BLACK
6
CONTINUOUS
10
94.3999999999999915
20
-123.2320509999999985
11
94.399991
21
-123.2320449999999994
0
LINE
8
BLACK
6
CONTINUOUS
10
94.399991
20
-123.2320449999999994
11
94.4000089999999972
21
-123.2320549999999884
0
LINE
8
BLACK
6
CONTINUOUS
10
94.399991
20
-123.2320449999999994
11
94.2864759999999933
21
-123.1665069999999957
0
LINE
8
BLACK
6
CONTINUOUS
10
94.2864759999999933
20
-123.1665069999999957
11
94.1824849999999998
21
-123.0867119999999915
0
LINE
8
BLACK
6
CONTINUOUS
10
94.1824849999999998
20
-123.0867119999999915
11
94.399991
21
-123.2320449999999994
0
LINE
8
BLACK
6
CONTINUOUS
10
94.1824849999999998
20
-123.0867119999999915
11
94.1824769999999916
21
-123.0867069999999899
0
LINE
8
BLACK
6
CONTINUOUS
10
94.1824769999999916
20
-123.0867069999999899
11
94.1824680000000001
21
-123.0866989999999959
0
LINE
8
BLACK
6
CONTINUOUS
10
94.1824680000000001
20
-123.0866989999999959
11
94.1824849999999998
21
-123.0867119999999915
0
LINE
8
BLACK
6
CONTINUOUS
10
94.1824680000000001
20
-123.0866989999999959
11
94.0784790000000015
21
-123.0069060000000007
0
LINE
8
BLACK
6
CONTINUOUS
10
94.0784790000000015
20
-123.0069060000000007
11
93.9857939999999985
21
-122.9142209999999977
0
LINE
8
BLACK
6
CONTINUOUS
10
93.9857939999999985
20
-122.9142209999999977
11
94.1824680000000001
21
-123.0866989999999959
0
LINE
8
BLACK
6
CONTINUOUS
10
62.317108999999995
20
-122.6989540000000005
11
62.3342209999999994
21
-122.5689819999999912
0
LINE
8
BLACK
6
CONTINUOUS
10
62.3342209999999994
20
-122.5689819999999912
11
62.3681459999999959
21
-122.4423689999999993
0
LINE
8
BLACK
6
CONTINUOUS
10
62.3681459999999959
20
-122.4423689999999993
11
62.3171099999999996
21
-122.6989480000000015
0
LINE
8
BLACK
6
CONTINUOUS
10
62.3171099999999996
20
-122.6989480000000015
11
62.317108999999995
21
-122.6989540000000005
0
LINE
8
BLACK
6
CONTINUOUS
10
93.9857939999999985
20
-122.9142209999999977
11
93.9857859999999903
21
-122.9142140000000012
0
LINE
8
BLACK
6
CONTINUOUS
10
93.9857859999999903
20
-122.9142140000000012
11
93.9857779999999963
21
-122.9142049999999955
0
LINE
8
BLACK
6
CONTINUOUS
10
93.9857779999999963
20
-122.9142049999999955
11
93.9857939999999985
21
-122.9142209999999977
0
LINE
8
BLACK
6
CONTINUOUS
10
93.9857779999999963
20
-122.9142049999999955
11
93.8930939999999907
21
-122.82152099999999
0
LINE
8
BLACK
6
CONTINUOUS
10
93.8930939999999907
20
-122.82152099999999
11
93.8132999999999981
21
-122.7175309999999939
0
LINE
8
BLACK
6
CONTINUOUS
10
93.8132999999999981
20
-122.7175309999999939
11
93.9857779999999963
21
-122.9142049999999955
0
LINE
8
BLACK
6
CONTINUOUS
10
93.8132999999999981
20
-122.7175309999999939
11
93.8132930000000016
21
-122.7175229999999999
0
LINE
8
BLACK
6
CONTINUOUS
10
93.8132930000000016
20
-122.7175229999999999
11
93.8132870000000025
21
-122.7175139999999942
0
LINE
8
BLACK
6
CONTINUOUS
10
93.8132870000000025
20
-122.7175139999999942
11
93.8132999999999981
21
-122.7175309999999939
0
LINE
8
BLACK
6
CONTINUOUS
10
93.8132870000000025
20
-122.7175139999999942
11
93.7334929999999957
21
-122.6135239999999982
0
LINE
8
BLACK
6
CONTINUOUS
10
93.7334929999999957
20
-122.6135239999999982
11
93.6679539999999946
21
-122.500007999999994
0
LINE
8
BLACK
6
CONTINUOUS
10
93.6679539999999946
20
-122.500007999999994
11
93.8132870000000025
21
-122.7175139999999942
0
LINE
8
BLACK
6
CONTINUOUS
10
93.6679539999999946
20
-122.500007999999994
11
93.667948999999993
21
-122.5
0
LINE
8
BLACK
6
CONTINUOUS
10
93.667948999999993
20
-122.5
11
93.6679439999999914
21
-122.4999899999999968
0
LINE
8
BLACK
6
CONTINUOUS
10
93.6679439999999914
20
-122.4999899999999968
11
93.6679539999999946
21
-122.500007999999994
0
LINE
8
BLACK
6
CONTINUOUS
10
93.4171089999999964
20
-121.7610479999999882
11
93.3999999999999915
21
-121.6310869999999937
0
LINE
8
BLACK
6
CONTINUOUS
10
93.3999999999999915
20
-121.6310869999999937
11
93.3999999999999915
21
-121.5
0
LINE
8
BLACK
6
CONTINUOUS
10
93.3999999999999915
20
-121.5
11
93.4171089999999964
21
-121.7610479999999882
0
LINE
8
BLACK
6
CONTINUOUS
10
62.4522399999999962
20
-122.194634999999991
11
62.5024060000000006
21
-122.0735249999999894
0
LINE
8
BLACK
6
CONTINUOUS
10
62.5024060000000006
20
-122.0735249999999894
11
62.5679439999999971
21
-121.9600089999999994
0
LINE
8
BLACK
6
CONTINUOUS
10
62.5679439999999971
20
-121.9600089999999994
11
62.4522409999999937
21
-122.1946329999999961
0
LINE
8
BLACK
6
CONTINUOUS
10
62.4522409999999937
20
-122.1946329999999961
11
62.4522399999999962
21
-122.194634999999991
0
LINE
8
BLACK
6
CONTINUOUS
10
62.5679540000000003
20
-121.959990999999988
11
62.6334929999999943
21
-121.8464759999999956
0
LINE
8
BLACK
6
CONTINUOUS
10
62.6334929999999943
20
-121.8464759999999956
11
62.713286999999994
21
-121.7424849999999878
0
LINE
8
BLACK
6
CONTINUOUS
10
62.713286999999994
20
-121.7424849999999878
11
62.5679540000000003
21
-121.959990999999988
0
LINE
8
BLACK
6
CONTINUOUS
10
62.713286999999994
20
-121.7424849999999878
11
62.7132930000000002
21
-121.7424769999999938
0
LINE
8
BLACK
6
CONTINUOUS
10
62.7132930000000002
20
-121.7424769999999938
11
62.7132999999999967
21
-121.7424679999999881
0
LINE
8
BLACK
6
CONTINUOUS
10
62.7132999999999967
20
-121.7424679999999881
11
62.713286999999994
21
-121.7424849999999878
0
LINE
8
BLACK
6
CONTINUOUS
10
62.7132999999999967
20
-121.7424679999999881
11
62.7930939999999964
21
-121.6384789999999896
0
LINE
8
BLACK
6
CONTINUOUS
10
62.7930939999999964
20
-121.6384789999999896
11
62.8857779999999948
21
-121.5457940000000008
0
LINE
8
BLACK
6
CONTINUOUS
10
62.8857779999999948
20
-121.5457940000000008
11
62.7132999999999967
21
-121.7424679999999881
0
LINE
8
BLACK
6
CONTINUOUS
10
62.8857939999999971
20
-121.5457779999999985
11
62.9784790000000001
21
-121.453093999999993
0
LINE
8
BLACK
6
CONTINUOUS
10
62.9784790000000001
20
-121.453093999999993
11
63.0824679999999987
21
-121.3733000000000004
0
LINE
8
BLACK
6
CONTINUOUS
10
63.0824679999999987
20
-121.3733000000000004
11
62.8857939999999971
21
-121.5457779999999985
0
LINE
8
BLACK
6
CONTINUOUS
10
63.0824679999999987
20
-121.3733000000000004
11
63.0824769999999972
21
-121.3732929999999897
0
LINE
8
BLACK
6
CONTINUOUS
10
63.0824769999999972
20
-121.3732929999999897
11
63.0824849999999984
21
-121.3732869999999906
0
LINE
8
BLACK
6
CONTINUOUS
10
63.0824849999999984
20
-121.3732869999999906
11
63.0824679999999987
21
-121.3733000000000004
0
LINE
8
BLACK
6
CONTINUOUS
10
63.0824849999999984
20
-121.3732869999999906
11
63.186475999999999
21
-121.293492999999998
0
LINE
8
BLACK
6
CONTINUOUS
10
63.186475999999999
20
-121.293492999999998
11
63.2999909999999986
21
-121.2279539999999969
0
LINE
8
BLACK
6
CONTINUOUS
10
63.2999909999999986
20
-121.2279539999999969
11
63.0824849999999984
21
-121.3732869999999906
0
LINE
8
BLACK
6
CONTINUOUS
10
63.5346299999999999
20
-121.1122419999999948
11
63.6557419999999965
21
-121.0620759999999905
0
LINE
8
BLACK
6
CONTINUOUS
10
63.6557419999999965
20
-121.0620759999999905
11
63.7823549999999955
21
-121.0281499999999966
0
LINE
8
BLACK
6
CONTINUOUS
10
63.7823549999999955
20
-121.0281499999999966
11
63.5346329999999995
21
-121.1122409999999974
0
LINE
8
BLACK
6
CONTINUOUS
10
63.5346329999999995
20
-121.1122409999999974
11
63.5346299999999999
21
-121.1122419999999948
0
LINE
8
BLACK
6
CONTINUOUS
10
63.7823689999999957
20
-121.0281459999999925
11
63.9089819999999946
21
-120.994220999999996
0
LINE
8
BLACK
6
CONTINUOUS
10
63.9089819999999946
20
-120.994220999999996
11
64.0389409999999941
21
-120.9771109999999936
0
LINE
8
BLACK
6
CONTINUOUS
10
64.0389409999999941
20
-120.9771109999999936
11
63.7823689999999957
21
-121.0281459999999925
0
LINE
8
BLACK
6
CONTINUOUS
10
64.0389409999999941
20
-120.9771109999999936
11
64.0389479999999907
21
-120.9771099999999961
0
LINE
8
BLACK
6
CONTINUOUS
10
64.0389479999999907
20
-120.9771099999999961
11
64.0389540000000039
21
-120.9771089999999987
0
LINE
8
BLACK
6
CONTINUOUS
10
64.0389540000000039
20
-120.9771089999999987
11
64.0389409999999941
21
-120.9771109999999936
0
LINE
8
BLACK
6
CONTINUOUS
10
64.0389540000000039
20
-120.9771089999999987
11
64.1689130000000034
21
-120.9599999999999937
0
LINE
8
BLACK
6
CONTINUOUS
10
64.1689130000000034
20
-120.9599999999999937
11
64.2999999999999972
21
-120.9599999999999937
0
LINE
8
BLACK
6
CONTINUOUS
10
64.2999999999999972
20
-120.9599999999999937
11
64.0389540000000039
21
-120.9771089999999987
0
LINE
8
BLACK
6
CONTINUOUS
10
79.4810870000000023
20
-120.9599999999999937
11
79.3499999999999943
21
-120.9599999999999937
0
LINE
8
BLACK
6
CONTINUOUS
10
79.3499999999999943
20
-120.9599999999999937
11
79.6110449999999901
21
-120.9428899999999913
0
LINE
8
BLACK
6
CONTINUOUS
10
79.6110449999999901
20
-120.9428899999999913
11
79.4810870000000023
21
-120.9599999999999937
0
LINE
8
BLACK
6
CONTINUOUS
10
79.6110520000000008
20
-120.9428899999999913
11
79.6110449999999901
21
-120.9428899999999913
0
LINE
8
BLACK
6
CONTINUOUS
10
79.6110449999999901
20
-120.9428899999999913
11
79.6110579999999999
21
-120.9428879999999964
0
LINE
8
BLACK
6
CONTINUOUS
10
79.6110579999999999
20
-120.9428879999999964
11
79.6110520000000008
21
-120.9428899999999913
0
LINE
8
BLACK
6
CONTINUOUS
10
79.7410179999999968
20
-120.9257789999999915
11
79.6110579999999999
21
-120.9428879999999964
0
LINE
8
BLACK
6
CONTINUOUS
10
79.6110579999999999
20
-120.9428879999999964
11
79.8676299999999912
21
-120.8918529999999976
0
LINE
8
BLACK
6
CONTINUOUS
10
79.8676299999999912
20
-120.8918529999999976
11
79.7410179999999968
21
-120.9257789999999915
0
LINE
8
BLACK
6
CONTINUOUS
10
79.8676379999999995
20
-120.8918520000000001
11
79.8676299999999912
21
-120.8918529999999976
0
LINE
8
BLACK
6
CONTINUOUS
10
79.8676299999999912
20
-120.8918529999999976
11
79.8676439999999985
21
-120.8918489999999935
0
LINE
8
BLACK
6
CONTINUOUS
10
79.8676439999999985
20
-120.8918489999999935
11
79.8676379999999995
21
-120.8918520000000001
0
LINE
8
BLACK
6
CONTINUOUS
10
79.9942580000000021
20
-120.857923999999997
11
79.8676439999999985
21
-120.8918489999999935
0
LINE
8
BLACK
6
CONTINUOUS
10
79.8676439999999985
20
-120.8918489999999935
11
80.1153639999999996
21
-120.8077589999999901
0
LINE
8
BLACK
6
CONTINUOUS
10
80.1153639999999996
20
-120.8077589999999901
11
79.9942580000000021
21
-120.857923999999997
0
LINE
8
BLACK
6
CONTINUOUS
10
80.115366999999992
20
-120.8077589999999901
11
80.1153639999999996
21
-120.8077589999999901
0
LINE
8
BLACK
6
CONTINUOUS
10
80.1153639999999996
20
-120.8077589999999901
11
80.1153690000000012
21
-120.8077569999999952
0
LINE
8
BLACK
6
CONTINUOUS
10
80.1153690000000012
20
-120.8077569999999952
11
80.115366999999992
21
-120.8077589999999901
0
LINE
8
BLACK
6
CONTINUOUS
10
80.2364749999999987
20
-120.7575939999999974
11
80.1153690000000012
21
-120.8077569999999952
0
LINE
8
BLACK
6
CONTINUOUS
10
80.1153690000000012
20
-120.8077569999999952
11
80.3499899999999911
21
-120.6920549999999963
0
LINE
8
BLACK
6
CONTINUOUS
10
80.3499899999999911
20
-120.6920549999999963
11
80.2364749999999987
21
-120.7575939999999974
0
LINE
8
BLACK
6
CONTINUOUS
10
80.3499999999999943
20
-120.6920509999999922
11
80.3499899999999911
21
-120.6920549999999963
0
LINE
8
BLACK
6
CONTINUOUS
10
80.3499899999999911
20
-120.6920549999999963
11
80.3500080000000025
21
-120.6920449999999931
0
LINE
8
BLACK
6
CONTINUOUS
10
80.3500080000000025
20
-120.6920449999999931
11
80.3499999999999943
21
-120.6920509999999922
0
LINE
8
BLACK
6
CONTINUOUS
10
80.4635239999999925
20
-120.6265069999999895
11
80.3500080000000025
21
-120.6920449999999931
0
LINE
8
BLACK
6
CONTINUOUS
10
80.3500080000000025
20
-120.6920449999999931
11
80.5675140000000027
21
-120.5467119999999994
0
LINE
8
BLACK
6
CONTINUOUS
10
80.5675140000000027
20
-120.5467119999999994
11
80.4635239999999925
21
-120.6265069999999895
0
LINE
8
BLACK
6
CONTINUOUS
10
80.5675229999999942
20
-120.5467069999999978
11
80.5675140000000027
21
-120.5467119999999994
0
LINE
8
BLACK
6
CONTINUOUS
10
80.5675140000000027
20
-120.5467119999999994
11
80.5675310000000025
21
-120.5466989999999896
0
LINE
8
BLACK
6
CONTINUOUS
10
80.5675310000000025
20
-120.5466989999999896
11
80.5675229999999942
21
-120.5467069999999978
0
LINE
8
BLACK
6
CONTINUOUS
10
80.6715209999999985
20
-120.4669059999999945
11
80.5675310000000025
21
-120.5466989999999896
0
LINE
8
BLACK
6
CONTINUOUS
10
80.5675310000000025
20
-120.5466989999999896
11
80.7642049999999898
21
-120.3742209999999915
0
LINE
8
BLACK
6
CONTINUOUS
10
80.7642049999999898
20
-120.3742209999999915
11
80.6715209999999985
21
-120.4669059999999945
0
LINE
8
BLACK
6
CONTINUOUS
10
80.7642139999999955
20
-120.3742139999999949
11
80.7642049999999898
21
-120.3742209999999915
0
LINE
8
BLACK
6
CONTINUOUS
10
80.7642049999999898
20
-120.3742209999999915
11
80.764220999999992
21
-120.3742049999999892
0
LINE
8
BLACK
6
CONTINUOUS
10
80.764220999999992
20
-120.3742049999999892
11
80.7642139999999955
21
-120.3742139999999949
0
LINE
8
BLACK
6
CONTINUOUS
10
80.8569059999999951
20
-120.2815209999999979
11
80.764220999999992
21
-120.3742049999999892
0
LINE
8
BLACK
6
CONTINUOUS
10
80.764220999999992
20
-120.3742049999999892
11
80.9366989999999902
21
-120.1775309999999877
0
LINE
8
BLACK
6
CONTINUOUS
10
80.9366989999999902
20
-120.1775309999999877
11
80.8569059999999951
21
-120.2815209999999979
0
LINE
8
BLACK
6
CONTINUOUS
10
80.9367069999999984
20
-120.1775229999999937
11
80.9366989999999902
21
-120.1775309999999877
0
LINE
8
BLACK
6
CONTINUOUS
10
80.9366989999999902
20
-120.1775309999999877
11
80.936712
21
-120.177513999999988
0
LINE
8
BLACK
6
CONTINUOUS
10
80.936712
20
-120.177513999999988
11
80.9367069999999984
21
-120.1775229999999937
0
LINE
8
BLACK
6
CONTINUOUS
10
81.0165069999999901
20
-120.0735239999999919
11
80.936712
21
-120.177513999999988
0
LINE
8
BLACK
6
CONTINUOUS
10
80.936712
20
-120.177513999999988
11
81.0820449999999937
21
-119.9600079999999878
0
LINE
8
BLACK
6
CONTINUOUS
10
81.0820449999999937
20
-119.9600079999999878
11
81.0165069999999901
21
-120.0735239999999919
0
LINE
8
BLACK
6
CONTINUOUS
10
81.0820509999999928
20
-119.9599999999999937
11
81.0820449999999937
21
-119.9600079999999878
0
LINE
8
BLACK
6
CONTINUOUS
10
81.0820449999999937
20
-119.9600079999999878
11
81.0820549999999969
21
-119.9599899999999906
0
LINE
8
BLACK
6
CONTINUOUS
10
81.0820549999999969
20
-119.9599899999999906
11
81.0820509999999928
21
-119.9599999999999937
0
LINE
8
BLACK
6
CONTINUOUS
10
81.1977509999999967
20
-119.7253819999999962
11
81.147593999999998
21
-119.8464749999999981
0
LINE
8
BLACK
6
CONTINUOUS
10
81.147593999999998
20
-119.8464749999999981
11
81.0820549999999969
21
-119.9599899999999906
0
LINE
8
BLACK
6
CONTINUOUS
10
81.0820549999999969
20
-119.9599899999999906
11
81.1977509999999967
21
-119.7253819999999962
0
LINE
8
BLACK
6
CONTINUOUS
10
81.3671089999999992
20
-117.3014539999999926
11
81.3842209999999966
21
-117.1714819999999975
0
LINE
8
BLACK
6
CONTINUOUS
10
81.3842209999999966
20
-117.1714819999999975
11
81.418145999999993
21
-117.0448689999999914
0
LINE
8
BLACK
6
CONTINUOUS
10
81.418145999999993
20
-117.0448689999999914
11
81.3671099999999967
21
-117.3014479999999935
0
LINE
8
BLACK
6
CONTINUOUS
10
81.3671099999999967
20
-117.3014479999999935
11
81.3671089999999992
21
-117.3014539999999926
0
LINE
8
BLACK
6
CONTINUOUS
10
93.3828910000000008
20
-117.3014639999999957
11
93.3999999999999915
21
-117.4314129999999921
0
LINE
8
BLACK
6
CONTINUOUS
10
93.3999999999999915
20
-117.4314129999999921
11
93.3999999999999915
21
-117.5625
0
LINE
8
BLACK
6
CONTINUOUS
10
93.3999999999999915
20
-117.5625
11
93.3828910000000008
21
-117.3014639999999957
0
LINE
8
BLACK
6
CONTINUOUS
10
93.3318519999999978
20
-117.0448619999999949
11
93.3318529999999953
21
-117.0448689999999914
0
LINE
8
BLACK
6
CONTINUOUS
10
93.3318529999999953
20
-117.0448689999999914
11
93.3318489999999912
21
-117.0448549999999983
0
LINE
8
BLACK
6
CONTINUOUS
10
93.3318489999999912
20
-117.0448549999999983
11
93.3318519999999978
21
-117.0448619999999949
0
LINE
8
BLACK
6
CONTINUOUS
10
81.5022400000000005
20
-116.7971349999999973
11
81.5524059999999906
21
-116.6760249999999957
0
LINE
8
BLACK
6
CONTINUOUS
10
81.5524059999999906
20
-116.6760249999999957
11
81.6179439999999943
21
-116.5625089999999915
0
LINE
8
BLACK
6
CONTINUOUS
10
81.6179439999999943
20
-116.5625089999999915
11
81.5022409999999979
21
-116.7971329999999881
0
LINE
8
BLACK
6
CONTINUOUS
10
81.5022409999999979
20
-116.7971329999999881
11
81.5022400000000005
21
-116.7971349999999973
0
LINE
8
BLACK
6
CONTINUOUS
10
93.2477619999999945
20
-116.7971429999999913
11
93.2979239999999947
21
-116.9182419999999922
0
LINE
8
BLACK
6
CONTINUOUS
10
93.2979239999999947
20
-116.9182419999999922
11
93.3318489999999912
21
-117.0448549999999983
0
LINE
8
BLACK
6
CONTINUOUS
10
93.3318489999999912
20
-117.0448549999999983
11
93.2477619999999945
21
-116.7971429999999913
0
LINE
8
BLACK
6
CONTINUOUS
10
93.1320509999999899
20
-116.5625
11
93.132054999999994
21
-116.5625089999999915
0
LINE
8
BLACK
6
CONTINUOUS
10
93.132054999999994
20
-116.5625089999999915
11
93.1320449999999909
21
-116.5624909999999943
0
LINE
8
BLACK
6
CONTINUOUS
10
93.1320449999999909
20
-116.5624909999999943
11
93.1320509999999899
21
-116.5625
0
LINE
8
BLACK
6
CONTINUOUS
10
81.6179539999999974
20
-116.5624909999999943
11
81.6834929999999986
21
-116.4489760000000018
0
LINE
8
BLACK
6
CONTINUOUS
10
81.6834929999999986
20
-116.4489760000000018
11
81.7632869999999912
21
-116.3449849999999941
0
LINE
8
BLACK
6
CONTINUOUS
10
81.7632869999999912
20
-116.3449849999999941
11
81.6179539999999974
21
-116.5624909999999943
0
LINE
8
BLACK
6
CONTINUOUS
10
93.0665070000000014
20
-116.4489760000000018
11
93.1320449999999909
21
-116.5624909999999943
0
LINE
8
BLACK
6
CONTINUOUS
10
93.1320449999999909
20
-116.5624909999999943
11
92.9867119999999971
21
-116.3449849999999941
0
LINE
8
BLACK
6
CONTINUOUS
10
92.9867119999999971
20
-116.3449849999999941
11
93.0665070000000014
21
-116.4489760000000018
0
LINE
8
BLACK
6
CONTINUOUS
10
81.7632869999999912
20
-116.3449849999999941
11
81.7632929999999902
21
-116.3449770000000001
0
LINE
8
BLACK
6
CONTINUOUS
10
81.7632929999999902
20
-116.3449770000000001
11
81.763300000000001
21
-116.3449679999999944
0
LINE
8
BLACK
6
CONTINUOUS
10
81.763300000000001
20
-116.3449679999999944
11
81.7632869999999912
21
-116.3449849999999941
0
LINE
8
BLACK
6
CONTINUOUS
10
92.9867069999999956
20
-116.3449770000000001
11
92.9867119999999971
21
-116.3449849999999941
0
LINE
8
BLACK
6
CONTINUOUS
10
92.9867119999999971
20
-116.3449849999999941
11
92.9866990000000015
21
-116.3449679999999944
0
LINE
8
BLACK
6
CONTINUOUS
10
92.9866990000000015
20
-116.3449679999999944
11
92.9867069999999956
21
-116.3449770000000001
0
LINE
8
BLACK
6
CONTINUOUS
10
81.763300000000001
20
-116.3449679999999944
11
81.8430939999999936
21
-116.2409789999999958
0
LINE
8
BLACK
6
CONTINUOUS
10
81.8430939999999936
20
-116.2409789999999958
11
81.9357779999999991
21
-116.1482939999999928
0
LINE
8
BLACK
6
CONTINUOUS
10
81.9357779999999991
20
-116.1482939999999928
11
81.763300000000001
21
-116.3449679999999944
0
LINE
8
BLACK
6
CONTINUOUS
10
92.9069059999999922
20
-116.2409789999999958
11
92.9866990000000015
21
-116.3449679999999944
0
LINE
8
BLACK
6
CONTINUOUS
10
92.9866990000000015
20
-116.3449679999999944
11
92.8142209999999892
21
-116.1482939999999928
0
LINE
8
BLACK
6
CONTINUOUS
10
92.8142209999999892
20
-116.1482939999999928
11
92.9069059999999922
21
-116.2409789999999958
0
LINE
8
BLACK
6
CONTINUOUS
10
92.8142139999999927
20
-116.1482859999999988
11
92.8142209999999892
21
-116.1482939999999928
0
LINE
8
BLACK
6
CONTINUOUS
10
92.8142209999999892
20
-116.1482939999999928
11
92.8142050000000012
21
-116.1482779999999906
0
LINE
8
BLACK
6
CONTINUOUS
10
92.8142050000000012
20
-116.1482779999999906
11
92.8142139999999927
21
-116.1482859999999988
0
LINE
8
BLACK
6
CONTINUOUS
10
81.9357940000000013
20
-116.1482779999999906
11
82.0284789999999902
21
-116.0555939999999993
0
LINE
8
BLACK
6
CONTINUOUS
10
82.0284789999999902
20
-116.0555939999999993
11
82.1324680000000029
21
-115.9757999999999925
0
LINE
8
BLACK
6
CONTINUOUS
10
82.1324680000000029
20
-115.9757999999999925
11
81.9357940000000013
21
-116.1482779999999906
0
LINE
8
BLACK
6
CONTINUOUS
10
92.7215209999999956
20
-116.0555939999999993
11
92.8142050000000012
21
-116.1482779999999906
0
LINE
8
BLACK
6
CONTINUOUS
10
92.8142050000000012
20
-116.1482779999999906
11
92.6175309999999996
21
-115.9757999999999925
0
LINE
8
BLACK
6
CONTINUOUS
10
92.6175309999999996
20
-115.9757999999999925
11
92.7215209999999956
21
-116.0555939999999993
0
LINE
8
BLACK
6
CONTINUOUS
10
82.1324680000000029
20
-115.9757999999999925
11
82.1324769999999944
21
-115.9757929999999959
0
LINE
8
BLACK
6
CONTINUOUS
10
82.1324769999999944
20
-115.9757929999999959
11
82.1324850000000026
21
-115.9757869999999969
0
LINE
8
BLACK
6
CONTINUOUS
10
82.1324850000000026
20
-115.9757869999999969
11
82.1324680000000029
21
-115.9757999999999925
0
LINE
8
BLACK
6
CONTINUOUS
10
92.6175229999999914
20
-115.9757929999999959
11
92.6175309999999996
21
-115.9757999999999925
0
LINE
8
BLACK
6
CONTINUOUS
10
92.6175309999999996
20
-115.9757999999999925
11
92.6175139999999999
21
-115.9757869999999969
0
LINE
8
BLACK
6
CONTINUOUS
10
92.6175139999999999
20
-115.9757869999999969
11
92.6175229999999914
21
-115.9757929999999959
0
LINE
8
BLACK
6
CONTINUOUS
10
82.1324850000000026
20
-115.9757869999999969
11
82.2364759999999961
21
-115.89599299999999
0
LINE
8
BLACK
6
CONTINUOUS
10
82.2364759999999961
20
-115.89599299999999
11
82.3499910000000028
21
-115.8304539999999889
0
LINE
8
BLACK
6
CONTINUOUS
10
82.3499910000000028
20
-115.8304539999999889
11
82.1324850000000026
21
-115.9757869999999969
0
LINE
8
BLACK
6
CONTINUOUS
10
92.5135239999999897
20
-115.89599299999999
11
92.6175139999999999
21
-115.9757869999999969
0
LINE
8
BLACK
6
CONTINUOUS
10
92.6175139999999999
20
-115.9757869999999969
11
92.4000079999999997
21
-115.8304539999999889
0
LINE
8
BLACK
6
CONTINUOUS
10
92.4000079999999997
20
-115.8304539999999889
11
92.5135239999999897
21
-115.89599299999999
0
LINE
8
BLACK
6
CONTINUOUS
10
92.3999999999999915
20
-115.8304490000000015
11
92.4000079999999997
21
-115.8304539999999889
0
LINE
8
BLACK
6
CONTINUOUS
10
92.4000079999999997
20
-115.8304539999999889
11
92.3999900000000025
21
-115.830444
0
LINE
8
BLACK
6
CONTINUOUS
10
92.3999900000000025
20
-115.830444
11
92.3999999999999915
21
-115.8304490000000015
0
LINE
8
BLACK
6
CONTINUOUS
10
82.58462999999999
20
-115.7147420000000011
11
82.7057420000000008
21
-115.6645759999999967
0
LINE
8
BLACK
6
CONTINUOUS
10
82.7057420000000008
20
-115.6645759999999967
11
82.8323549999999926
21
-115.6306499999999886
0
LINE
8
BLACK
6
CONTINUOUS
10
82.8323549999999926
20
-115.6306499999999886
11
82.5846329999999966
21
-115.7147409999999894
0
LINE
8
BLACK
6
CONTINUOUS
10
82.5846329999999966
20
-115.7147409999999894
11
82.58462999999999
21
-115.7147420000000011
0
LINE
8
BLACK
6
CONTINUOUS
10
92.1653699999999958
20
-115.7147420000000011
11
92.2864749999999958
21
-115.7649059999999963
0
LINE
8
BLACK
6
CONTINUOUS
10
92.2864749999999958
20
-115.7649059999999963
11
92.3999900000000025
21
-115.830444
0
LINE
8
BLACK
6
CONTINUOUS
10
92.3999900000000025
20
-115.830444
11
92.1653699999999958
21
-115.7147420000000011
0
LINE
8
BLACK
6
CONTINUOUS
10
91.9176379999999966
20
-115.6306479999999937
11
91.9176439999999957
21
-115.6306499999999886
0
LINE
8
BLACK
6
CONTINUOUS
10
91.9176439999999957
20
-115.6306499999999886
11
91.9176300000000026
21
-115.6306459999999987
0
LINE
8
BLACK
6
CONTINUOUS
10
91.9176300000000026
20
-115.6306459999999987
11
91.9176379999999966
21
-115.6306479999999937
0
LINE
8
BLACK
6
CONTINUOUS
10
82.8323689999999999
20
-115.6306459999999987
11
82.9589819999999918
21
-115.5967209999999881
0
LINE
8
BLACK
6
CONTINUOUS
10
82.9589819999999918
20
-115.5967209999999881
11
83.0889409999999913
21
-115.5796109999999999
0
LINE
8
BLACK
6
CONTINUOUS
10
83.0889409999999913
20
-115.5796109999999999
11
82.8323689999999999
21
-115.6306459999999987
0
LINE
8
BLACK
6
CONTINUOUS
10
91.791017999999994
20
-115.5967209999999881
11
91.9176300000000026
21
-115.6306459999999987
0
LINE
8
BLACK
6
CONTINUOUS
10
91.9176300000000026
20
-115.6306459999999987
11
91.661057999999997
21
-115.5796109999999999
0
LINE
8
BLACK
6
CONTINUOUS
10
91.661057999999997
20
-115.5796109999999999
11
91.791017999999994
21
-115.5967209999999881
0
LINE
8
BLACK
6
CONTINUOUS
10
83.0889409999999913
20
-115.5796109999999999
11
83.088948000000002
21
-115.5796099999999882
0
LINE
8
BLACK
6
CONTINUOUS
10
83.088948000000002
20
-115.5796099999999882
11
83.0889540000000011
21
-115.5796089999999907
0
LINE
8
BLACK
6
CONTINUOUS
10
83.0889540000000011
20
-115.5796089999999907
11
83.0889409999999913
21
-115.5796109999999999
0
LINE
8
BLACK
6
CONTINUOUS
10
91.661051999999998
20
-115.5796099999999882
11
91.661057999999997
21
-115.5796109999999999
0
LINE
8
BLACK
6
CONTINUOUS
10
91.661057999999997
20
-115.5796109999999999
11
91.6610450000000014
21
-115.5796089999999907
0
LINE
8
BLACK
6
CONTINUOUS
10
91.6610450000000014
20
-115.5796089999999907
11
91.661051999999998
21
-115.5796099999999882
0
LINE
8
BLACK
6
CONTINUOUS
10
83.0889540000000011
20
-115.5796089999999907
11
83.2189130000000006
21
-115.5625
0
LINE
8
BLACK
6
CONTINUOUS
10
83.2189130000000006
20
-115.5625
11
83.3499999999999943
21
-115.5625
0
LINE
8
BLACK
6
CONTINUOUS
10
83.3499999999999943
20
-115.5625
11
83.0889540000000011
21
-115.5796089999999907
0
LINE
8
BLACK
6
CONTINUOUS
10
91.6610450000000014
20
-115.5796089999999907
11
91.3999999999999915
21
-115.5625
0
LINE
8
BLACK
6
CONTINUOUS
10
91.3999999999999915
20
-115.5625
11
91.5310869999999994
21
-115.5625
0
LINE
8
BLACK
6
CONTINUOUS
10
91.5310869999999994
20
-115.5625
11
91.6610450000000014
21
-115.5796089999999907
0
LINE
8
BLACK
6
CONTINUOUS
10
17.2171090000000007
20
-72.5189539999999937
11
17.234220999999998
21
-72.3889819999999986
0
LINE
8
BLACK
6
CONTINUOUS
10
17.234220999999998
20
-72.3889819999999986
11
17.268145999999998
21
-72.2623689999999925
0
LINE
8
BLACK
6
CONTINUOUS
10
17.268145999999998
20
-72.2623689999999925
11
17.2171099999999981
21
-72.5189479999999946
0
LINE
8
BLACK
6
CONTINUOUS
10
17.2171099999999981
20
-72.5189479999999946
11
17.2171090000000007
21
-72.5189539999999937
0
LINE
8
BLACK
6
CONTINUOUS
10
17.3522399999999983
20
-72.0146349999999984
11
17.4024059999999992
21
-71.8935249999999968
0
LINE
8
BLACK
6
CONTINUOUS
10
17.4024059999999992
20
-71.8935249999999968
11
17.4679439999999992
21
-71.7800089999999926
0
LINE
8
BLACK
6
CONTINUOUS
10
17.4679439999999992
20
-71.7800089999999926
11
17.3522409999999994
21
-72.0146330000000034
0
LINE
8
BLACK
6
CONTINUOUS
10
17.3522409999999994
20
-72.0146330000000034
11
17.3522399999999983
21
-72.0146349999999984
0
LINE
8
BLACK
6
CONTINUOUS
10
17.4679539999999989
20
-71.7799909999999954
11
17.533493
21
-71.666476000000003
0
LINE
8
BLACK
6
CONTINUOUS
10
17.533493
20
-71.666476000000003
11
17.6132869999999997
21
-71.5624849999999952
0
LINE
8
BLACK
6
CONTINUOUS
10
17.6132869999999997
20
-71.5624849999999952
11
17.4679539999999989
21
-71.7799909999999954
0
LINE
8
BLACK
6
CONTINUOUS
10
17.6132869999999997
20
-71.5624849999999952
11
17.6132929999999988
21
-71.5624770000000012
0
LINE
8
BLACK
6
CONTINUOUS
10
17.6132929999999988
20
-71.5624770000000012
11
17.6132999999999988
21
-71.5624679999999955
0
LINE
8
BLACK
6
CONTINUOUS
10
17.6132999999999988
20
-71.5624679999999955
11
17.6132869999999997
21
-71.5624849999999952
0
LINE
8
BLACK
6
CONTINUOUS
10
17.6132999999999988
20
-71.5624679999999955
11
17.6930939999999985
21
-71.458478999999997
0
LINE
8
BLACK
6
CONTINUOUS
10
17.6930939999999985
20
-71.458478999999997
11
17.7857780000000005
21
-71.365793999999994
0
LINE
8
BLACK
6
CONTINUOUS
10
17.7857780000000005
20
-71.365793999999994
11
17.6132999999999988
21
-71.5624679999999955
0
LINE
8
BLACK
6
CONTINUOUS
10
169.5978910000000042
20
-71.2389639999999957
11
169.6149999999999807
21
-71.3689129999999921
0
LINE
8
BLACK
6
CONTINUOUS
10
169.6149999999999807
20
-71.3689129999999921
11
169.6149999999999807
21
-71.5
0
LINE
8
BLACK
6
CONTINUOUS
10
169.6149999999999807
20
-71.5
11
169.5978910000000042
21
-71.2389639999999957
0
LINE
8
BLACK
6
CONTINUOUS
10
17.7857939999999992
20
-71.3657779999999917
11
17.8784789999999987
21
-71.2730940000000004
0
LINE
8
BLACK
6
CONTINUOUS
10
17.8784789999999987
20
-71.2730940000000004
11
17.9824680000000008
21
-71.1932999999999936
0
LINE
8
BLACK
6
CONTINUOUS
10
17.9824680000000008
20
-71.1932999999999936
11
17.7857939999999992
21
-71.3657779999999917
0
LINE
8
BLACK
6
CONTINUOUS
10
17.9824680000000008
20
-71.1932999999999936
11
17.9824769999999994
21
-71.1932929999999971
0
LINE
8
BLACK
6
CONTINUOUS
10
17.9824769999999994
20
-71.1932929999999971
11
17.9824850000000005
21
-71.193286999999998
0
LINE
8
BLACK
6
CONTINUOUS
10
17.9824850000000005
20
-71.193286999999998
11
17.9824680000000008
21
-71.1932999999999936
0
LINE
8
BLACK
6
CONTINUOUS
10
17.9824850000000005
20
-71.193286999999998
11
18.0864759999999976
21
-71.1134929999999912
0
LINE
8
BLACK
6
CONTINUOUS
10
18.0864759999999976
20
-71.1134929999999912
11
18.1999910000000007
21
-71.0479539999999901
0
LINE
8
BLACK
6
CONTINUOUS
10
18.1999910000000007
20
-71.0479539999999901
11
17.9824850000000005
21
-71.193286999999998
0
LINE
8
BLACK
6
CONTINUOUS
10
18.4346299999999985
20
-70.9322420000000022
11
18.5557419999999986
21
-70.8820759999999979
0
LINE
8
BLACK
6
CONTINUOUS
10
18.5557419999999986
20
-70.8820759999999979
11
18.6823549999999976
21
-70.8481499999999897
0
LINE
8
BLACK
6
CONTINUOUS
10
18.6823549999999976
20
-70.8481499999999897
11
18.434632999999998
21
-70.9322409999999905
0
LINE
8
BLACK
6
CONTINUOUS
10
18.434632999999998
20
-70.9322409999999905
11
18.4346299999999985
21
-70.9322420000000022
0
LINE
8
BLACK
6
CONTINUOUS
10
169.5468520000000012
20
-70.9823619999999949
11
169.5468529999999987
21
-70.9823689999999914
0
LINE
8
BLACK
6
CONTINUOUS
10
169.5468529999999987
20
-70.9823689999999914
11
169.5468489999999804
21
-70.9823549999999983
0
LINE
8
BLACK
6
CONTINUOUS
10
169.5468489999999804
20
-70.9823549999999983
11
169.5468520000000012
21
-70.9823619999999949
0
LINE
8
BLACK
6
CONTINUOUS
10
169.4627619999999979
20
-70.7346429999999913
11
169.5129239999999982
21
-70.8557419999999922
0
LINE
8
BLACK
6
CONTINUOUS
10
169.5129239999999982
20
-70.8557419999999922
11
169.5468489999999804
21
-70.9823549999999983
0
LINE
8
BLACK
6
CONTINUOUS
10
169.5468489999999804
20
-70.9823549999999983
11
169.4627619999999979
21
-70.7346429999999913
0
LINE
8
BLACK
6
CONTINUOUS
10
18.6823689999999978
20
-70.8481459999999998
11
18.8089820000000003
21
-70.8142210000000034
0
LINE
8
BLACK
6
CONTINUOUS
10
18.8089820000000003
20
-70.8142210000000034
11
18.9389409999999998
21
-70.797111000000001
0
LINE
8
BLACK
6
CONTINUOUS
10
18.9389409999999998
20
-70.797111000000001
11
18.6823689999999978
21
-70.8481459999999998
0
LINE
8
BLACK
6
CONTINUOUS
10
18.9389409999999998
20
-70.797111000000001
11
18.9389479999999999
21
-70.7971100000000035
0
LINE
8
BLACK
6
CONTINUOUS
10
18.9389479999999999
20
-70.7971100000000035
11
18.938953999999999
21
-70.7971089999999919
0
LINE
8
BLACK
6
CONTINUOUS
10
18.938953999999999
20
-70.7971089999999919
11
18.9389409999999998
21
-70.797111000000001
0
LINE
8
BLACK
6
CONTINUOUS
10
18.938953999999999
20
-70.7971089999999919
11
19.0689129999999984
21
-70.7800000000000011
0
LINE
8
BLACK
6
CONTINUOUS
10
19.0689129999999984
20
-70.7800000000000011
11
19.1999999999999993
21
-70.7800000000000011
0
LINE
8
BLACK
6
CONTINUOUS
10
19.1999999999999993
20
-70.7800000000000011
11
18.938953999999999
21
-70.7971089999999919
0
LINE
8
BLACK
6
CONTINUOUS
10
34.3810870000000008
20
-70.7800000000000011
11
34.25
21
-70.7800000000000011
0
LINE
8
BLACK
6
CONTINUOUS
10
34.25
20
-70.7800000000000011
11
34.5110449999999958
21
-70.7628899999999987
0
LINE
8
BLACK
6
CONTINUOUS
10
34.5110449999999958
20
-70.7628899999999987
11
34.3810870000000008
21
-70.7800000000000011
0
LINE
8
BLACK
6
CONTINUOUS
10
34.5110519999999994
20
-70.7628899999999987
11
34.5110449999999958
21
-70.7628899999999987
0
LINE
8
BLACK
6
CONTINUOUS
10
34.5110449999999958
20
-70.7628899999999987
11
34.5110579999999985
21
-70.7628880000000038
0
LINE
8
BLACK
6
CONTINUOUS
10
34.5110579999999985
20
-70.7628880000000038
11
34.5110519999999994
21
-70.7628899999999987
0
LINE
8
BLACK
6
CONTINUOUS
10
34.6410179999999954
20
-70.7457789999999989
11
34.5110579999999985
21
-70.7628880000000038
0
LINE
8
BLACK
6
CONTINUOUS
10
34.5110579999999985
20
-70.7628880000000038
11
34.7676299999999969
21
-70.7118529999999907
0
LINE
8
BLACK
6
CONTINUOUS
10
34.7676299999999969
20
-70.7118529999999907
11
34.6410179999999954
21
-70.7457789999999989
0
LINE
8
BLACK
6
CONTINUOUS
10
34.767637999999998
20
-70.7118519999999933
11
34.7676299999999969
21
-70.7118529999999907
0
LINE
8
BLACK
6
CONTINUOUS
10
34.7676299999999969
20
-70.7118529999999907
11
34.7676439999999971
21
-70.7118490000000008
0
LINE
8
BLACK
6
CONTINUOUS
10
34.7676439999999971
20
-70.7118490000000008
11
34.767637999999998
21
-70.7118519999999933
0
LINE
8
BLACK
6
CONTINUOUS
10
34.8942580000000007
20
-70.6779239999999902
11
34.7676439999999971
21
-70.7118490000000008
0
LINE
8
BLACK
6
CONTINUOUS
10
34.7676439999999971
20
-70.7118490000000008
11
35.0153639999999982
21
-70.6277589999999975
0
LINE
8
BLACK
6
CONTINUOUS
10
35.0153639999999982
20
-70.6277589999999975
11
34.8942580000000007
21
-70.6779239999999902
0
LINE
8
BLACK
6
CONTINUOUS
10
35.0153669999999977
20
-70.6277589999999975
11
35.0153639999999982
21
-70.6277589999999975
0
LINE
8
BLACK
6
CONTINUOUS
10
35.0153639999999982
20
-70.6277589999999975
11
35.0153689999999997
21
-70.6277570000000026
0
LINE
8
BLACK
6
CONTINUOUS
10
35.0153689999999997
20
-70.6277570000000026
11
35.0153669999999977
21
-70.6277589999999975
0
LINE
8
BLACK
6
CONTINUOUS
10
35.1364749999999972
20
-70.5775939999999906
11
35.0153689999999997
21
-70.6277570000000026
0
LINE
8
BLACK
6
CONTINUOUS
10
35.0153689999999997
20
-70.6277570000000026
11
35.2499899999999968
21
-70.5120550000000037
0
LINE
8
BLACK
6
CONTINUOUS
10
35.2499899999999968
20
-70.5120550000000037
11
35.1364749999999972
21
-70.5775939999999906
0
LINE
8
BLACK
6
CONTINUOUS
10
35.25
20
-70.5120509999999996
11
35.2499899999999968
21
-70.5120550000000037
0
LINE
8
BLACK
6
CONTINUOUS
10
35.2499899999999968
20
-70.5120550000000037
11
35.2500080000000011
21
-70.5120450000000005
0
LINE
8
BLACK
6
CONTINUOUS
10
35.2500080000000011
20
-70.5120450000000005
11
35.25
21
-70.5120509999999996
0
LINE
8
BLACK
6
CONTINUOUS
10
35.3635239999999982
20
-70.4465069999999969
11
35.2500080000000011
21
-70.5120450000000005
0
LINE
8
BLACK
6
CONTINUOUS
10
35.2500080000000011
20
-70.5120450000000005
11
35.4675140000000013
21
-70.3667119999999926
0
LINE
8
BLACK
6
CONTINUOUS
10
35.4675140000000013
20
-70.3667119999999926
11
35.3635239999999982
21
-70.4465069999999969
0
LINE
8
BLACK
6
CONTINUOUS
10
169.3470509999999933
20
-70.5
11
169.3470549999999832
21
-70.5000089999999915
0
LINE
8
BLACK
6
CONTINUOUS
10
169.3470549999999832
20
-70.5000089999999915
11
169.3470449999999801
21
-70.4999909999999943
0
LINE
8
BLACK
6
CONTINUOUS
10
169.3470449999999801
20
-70.4999909999999943
11
169.3470509999999933
21
-70.5
0
LINE
8
BLACK
6
CONTINUOUS
10
169.2815070000000048
20
-70.3864760000000018
11
169.3470449999999801
21
-70.4999909999999943
0
LINE
8
BLACK
6
CONTINUOUS
10
169.3470449999999801
20
-70.4999909999999943
11
169.2017119999999863
21
-70.2824849999999941
0
LINE
8
BLACK
6
CONTINUOUS
10
169.2017119999999863
20
-70.2824849999999941
11
169.2815070000000048
21
-70.3864760000000018
0
LINE
8
BLACK
6
CONTINUOUS
10
35.4675229999999999
20
-70.366706999999991
11
35.4675140000000013
21
-70.3667119999999926
0
LINE
8
BLACK
6
CONTINUOUS
10
35.4675140000000013
20
-70.3667119999999926
11
35.467531000000001
21
-70.366698999999997
0
LINE
8
BLACK
6
CONTINUOUS
10
35.467531000000001
20
-70.366698999999997
11
35.4675229999999999
21
-70.366706999999991
0
LINE
8
BLACK
6
CONTINUOUS
10
35.5715209999999971
20
-70.2869060000000019
11
35.467531000000001
21
-70.366698999999997
0
LINE
8
BLACK
6
CONTINUOUS
10
35.467531000000001
20
-70.366698999999997
11
35.6642049999999955
21
-70.1942209999999989
0
LINE
8
BLACK
6
CONTINUOUS
10
35.6642049999999955
20
-70.1942209999999989
11
35.5715209999999971
21
-70.2869060000000019
0
LINE
8
BLACK
6
CONTINUOUS
10
169.201706999999999
20
-70.2824770000000001
11
169.2017119999999863
21
-70.2824849999999941
0
LINE
8
BLACK
6
CONTINUOUS
10
169.2017119999999863
20
-70.2824849999999941
11
169.2016989999999907
21
-70.2824679999999944
0
LINE
8
BLACK
6
CONTINUOUS
10
169.2016989999999907
20
-70.2824679999999944
11
169.201706999999999
21
-70.2824770000000001
0
LINE
8
BLACK
6
CONTINUOUS
10
169.1219059999999956
20
-70.1784789999999958
11
169.2016989999999907
21
-70.2824679999999944
0
LINE
8
BLACK
6
CONTINUOUS
10
169.2016989999999907
20
-70.2824679999999944
11
169.0292209999999784
21
-70.0857939999999928
0
LINE
8
BLACK
6
CONTINUOUS
10
169.0292209999999784
20
-70.0857939999999928
11
169.1219059999999956
21
-70.1784789999999958
0
LINE
8
BLACK
6
CONTINUOUS
10
35.6642140000000012
20
-70.1942140000000023
11
35.6642049999999955
21
-70.1942209999999989
0
LINE
8
BLACK
6
CONTINUOUS
10
35.6642049999999955
20
-70.1942209999999989
11
35.6642209999999977
21
-70.1942049999999966
0
LINE
8
BLACK
6
CONTINUOUS
10
35.6642209999999977
20
-70.1942049999999966
11
35.6642140000000012
21
-70.1942140000000023
0
LINE
8
BLACK
6
CONTINUOUS
10
35.7569060000000007
20
-70.1015209999999911
11
35.6642209999999977
21
-70.1942049999999966
0
LINE
8
BLACK
6
CONTINUOUS
10
35.6642209999999977
20
-70.1942049999999966
11
35.8366989999999959
21
-69.9975309999999951
0
LINE
8
BLACK
6
CONTINUOUS
10
35.8366989999999959
20
-69.9975309999999951
11
35.7569060000000007
21
-70.1015209999999911
0
LINE
8
BLACK
6
CONTINUOUS
10
169.0292139999999961
20
-70.0857859999999988
11
169.0292209999999784
21
-70.0857939999999928
0
LINE
8
BLACK
6
CONTINUOUS
10
169.0292209999999784
20
-70.0857939999999928
11
169.0292049999999904
21
-70.0857779999999906
0
LINE
8
BLACK
6
CONTINUOUS
10
169.0292049999999904
20
-70.0857779999999906
11
169.0292139999999961
21
-70.0857859999999988
0
LINE
8
BLACK
6
CONTINUOUS
10
168.936520999999999
20
-69.9930939999999993
11
169.0292049999999904
21
-70.0857779999999906
0
LINE
8
BLACK
6
CONTINUOUS
10
169.0292049999999904
20
-70.0857779999999906
11
168.8325309999999888
21
-69.9132999999999925
0
LINE
8
BLACK
6
CONTINUOUS
10
168.8325309999999888
20
-69.9132999999999925
11
168.936520999999999
21
-69.9930939999999993
0
LINE
8
BLACK
6
CONTINUOUS
10
35.836706999999997
20
-69.997523000000001
11
35.8366989999999959
21
-69.9975309999999951
0
LINE
8
BLACK
6
CONTINUOUS
10
35.8366989999999959
20
-69.9975309999999951
11
35.8367119999999986
21
-69.9975139999999953
0
LINE
8
BLACK
6
CONTINUOUS
10
35.8367119999999986
20
-69.9975139999999953
11
35.836706999999997
21
-69.997523000000001
0
LINE
8
BLACK
6
CONTINUOUS
10
35.9165069999999957
20
-69.8935239999999993
11
35.8367119999999986
21
-69.9975139999999953
0
LINE
8
BLACK
6
CONTINUOUS
10
35.8367119999999986
20
-69.9975139999999953
11
35.9820449999999994
21
-69.7800079999999951
0
LINE
8
BLACK
6
CONTINUOUS
10
35.9820449999999994
20
-69.7800079999999951
11
35.9165069999999957
21
-69.8935239999999993
0
LINE
8
BLACK
6
CONTINUOUS
10
168.8325229999999806
20
-69.9132929999999959
11
168.8325309999999888
21
-69.9132999999999925
0
LINE
8
BLACK
6
CONTINUOUS
10
168.8325309999999888
20
-69.9132999999999925
11
168.8325140000000033
21
-69.9132869999999969
0
LINE
8
BLACK
6
CONTINUOUS
10
168.8325140000000033
20
-69.9132869999999969
11
168.8325229999999806
21
-69.9132929999999959
0
LINE
8
BLACK
6
CONTINUOUS
10
168.7285239999999931
20
-69.83349299999999
11
168.8325140000000033
21
-69.9132869999999969
0
LINE
8
BLACK
6
CONTINUOUS
10
168.8325140000000033
20
-69.9132869999999969
11
168.6150079999999889
21
-69.7679540000000031
0
LINE
8
BLACK
6
CONTINUOUS
10
168.6150079999999889
20
-69.7679540000000031
11
168.7285239999999931
21
-69.83349299999999
0
LINE
8
BLACK
6
CONTINUOUS
10
35.9820509999999985
20
-69.7800000000000011
11
35.9820449999999994
21
-69.7800079999999951
0
LINE
8
BLACK
6
CONTINUOUS
10
35.9820449999999994
20
-69.7800079999999951
11
35.9820549999999955
21
-69.779989999999998
0
LINE
8
BLACK
6
CONTINUOUS
10
35.9820549999999955
20
-69.779989999999998
11
35.9820509999999985
21
-69.7800000000000011
0
LINE
8
BLACK
6
CONTINUOUS
10
36.0977509999999953
20
-69.5453820000000036
11
36.0475939999999966
21
-69.6664749999999913
0
LINE
8
BLACK
6
CONTINUOUS
10
36.0475939999999966
20
-69.6664749999999913
11
35.9820549999999955
21
-69.779989999999998
0
LINE
8
BLACK
6
CONTINUOUS
10
35.9820549999999955
20
-69.779989999999998
11
36.0977509999999953
21
-69.5453820000000036
0
LINE
8
BLACK
6
CONTINUOUS
10
168.6149999999999807
20
-69.7679490000000015
11
168.6150079999999889
21
-69.7679540000000031
0
LINE
8
BLACK
6
CONTINUOUS
10
168.6150079999999889
20
-69.7679540000000031
11
168.6149900000000059
21
-69.767944
0
LINE
8
BLACK
6
CONTINUOUS
10
168.6149900000000059
20
-69.767944
11
168.6149999999999807
21
-69.7679490000000015
0
LINE
8
BLACK
6
CONTINUOUS
10
168.3803699999999992
20
-69.6522420000000011
11
168.5014749999999992
21
-69.7024059999999963
0
LINE
8
BLACK
6
CONTINUOUS
10
168.5014749999999992
20
-69.7024059999999963
11
168.6149900000000059
21
-69.767944
0
LINE
8
BLACK
6
CONTINUOUS
10
168.6149900000000059
20
-69.767944
11
168.3803699999999992
21
-69.6522420000000011
0
LINE
8
BLACK
6
CONTINUOUS
10
168.1326379999999858
20
-69.5681479999999937
11
168.1326439999999991
21
-69.5681500000000028
0
LINE
8
BLACK
6
CONTINUOUS
10
168.1326439999999991
20
-69.5681500000000028
11
168.132630000000006
21
-69.5681459999999987
0
LINE
8
BLACK
6
CONTINUOUS
10
168.132630000000006
20
-69.5681459999999987
11
168.1326379999999858
21
-69.5681479999999937
0
LINE
8
BLACK
6
CONTINUOUS
10
168.0060179999999832
20
-69.5342210000000023
11
168.132630000000006
21
-69.5681459999999987
0
LINE
8
BLACK
6
CONTINUOUS
10
168.132630000000006
20
-69.5681459999999987
11
167.8760580000000004
21
-69.5171109999999999
0
LINE
8
BLACK
6
CONTINUOUS
10
167.8760580000000004
20
-69.5171109999999999
11
168.0060179999999832
21
-69.5342210000000023
0
LINE
8
BLACK
6
CONTINUOUS
10
167.8760519999999872
20
-69.5171100000000024
11
167.8760580000000004
21
-69.5171109999999999
0
LINE
8
BLACK
6
CONTINUOUS
10
167.8760580000000004
20
-69.5171109999999999
11
167.8760450000000048
21
-69.5171089999999907
0
LINE
8
BLACK
6
CONTINUOUS
10
167.8760450000000048
20
-69.5171089999999907
11
167.8760519999999872
21
-69.5171100000000024
0
LINE
8
BLACK
6
CONTINUOUS
10
167.8760450000000048
20
-69.5171089999999907
11
167.6149999999999807
21
-69.5
0
LINE
8
BLACK
6
CONTINUOUS
10
167.6149999999999807
20
-69.5
11
167.7460869999999886
21
-69.5
0
LINE
8
BLACK
6
CONTINUOUS
10
167.7460869999999886
20
-69.5
11
167.8760450000000048
21
-69.5171089999999907
0
LINE
8
BLACK
6
CONTINUOUS
10
147.
20
-69.5
11
146.8689129999999921
21
-69.5
0
LINE
8
BLACK
6
CONTINUOUS
10
146.8689129999999921
20
-69.5
11
146.7389540000000068
21
-69.4828899999999976
0
LINE
8
BLACK
6
CONTINUOUS
10
146.7389540000000068
20
-69.4828899999999976
11
147.
21
-69.5
0
LINE
8
BLACK
6
CONTINUOUS
10
146.7389540000000068
20
-69.4828899999999976
11
146.7389479999999935
21
-69.4828899999999976
0
LINE
8
BLACK
6
CONTINUOUS
10
146.7389479999999935
20
-69.4828899999999976
11
146.7389409999999828
21
-69.4828880000000026
0
LINE
8
BLACK
6
CONTINUOUS
10
146.7389409999999828
20
-69.4828880000000026
11
146.7389540000000068
21
-69.4828899999999976
0
LINE
8
BLACK
6
CONTINUOUS
10
146.7389409999999828
20
-69.4828880000000026
11
146.6089819999999975
21
-69.4657789999999977
0
LINE
8
BLACK
6
CONTINUOUS
10
146.6089819999999975
20
-69.4657789999999977
11
146.4823690000000056
21
-69.4318530000000038
0
LINE
8
BLACK
6
CONTINUOUS
10
146.4823690000000056
20
-69.4318530000000038
11
146.7389409999999828
21
-69.4828880000000026
0
LINE
8
BLACK
6
CONTINUOUS
10
146.4823690000000056
20
-69.4318530000000038
11
146.4823619999999949
21
-69.4318519999999921
0
LINE
8
BLACK
6
CONTINUOUS
10
146.4823619999999949
20
-69.4318519999999921
11
146.4823549999999841
21
-69.4318489999999997
0
LINE
8
BLACK
6
CONTINUOUS
10
146.4823549999999841
20
-69.4318489999999997
11
146.4823690000000056
21
-69.4318530000000038
0
LINE
8
BLACK
6
CONTINUOUS
10
146.4823549999999841
20
-69.4318489999999997
11
146.3557419999999922
21
-69.3979240000000033
0
LINE
8
BLACK
6
CONTINUOUS
10
146.3557419999999922
20
-69.3979240000000033
11
146.2346349999999973
21
-69.3477589999999964
0
LINE
8
BLACK
6
CONTINUOUS
10
146.2346349999999973
20
-69.3477589999999964
11
146.4823549999999841
21
-69.4318489999999997
0
LINE
8
BLACK
6
CONTINUOUS
10
146.2346349999999973
20
-69.3477589999999964
11
146.2346330000000023
21
-69.3477589999999964
0
LINE
8
BLACK
6
CONTINUOUS
10
146.2346330000000023
20
-69.3477589999999964
11
146.2346299999999815
21
-69.3477570000000014
0
LINE
8
BLACK
6
CONTINUOUS
10
146.2346299999999815
20
-69.3477570000000014
11
146.2346349999999973
21
-69.3477589999999964
0
LINE
8
BLACK
6
CONTINUOUS
10
146.2346299999999815
20
-69.3477570000000014
11
146.1135249999999814
21
-69.2975940000000037
0
LINE
8
BLACK
6
CONTINUOUS
10
146.1135249999999814
20
-69.2975940000000037
11
146.0000090000000057
21
-69.2320550000000026
0
LINE
8
BLACK
6
CONTINUOUS
10
146.0000090000000057
20
-69.2320550000000026
11
146.2346299999999815
21
-69.3477570000000014
0
LINE
8
BLACK
6
CONTINUOUS
10
146.0000090000000057
20
-69.2320550000000026
11
146.
21
-69.2320509999999985
0
LINE
8
BLACK
6
CONTINUOUS
10
146.
20
-69.2320509999999985
11
145.9999909999999943
21
-69.2320449999999994
0
LINE
8
BLACK
6
CONTINUOUS
10
145.9999909999999943
20
-69.2320449999999994
11
146.0000090000000057
21
-69.2320550000000026
0
LINE
8
BLACK
6
CONTINUOUS
10
145.9999909999999943
20
-69.2320449999999994
11
145.8864759999999876
21
-69.1665069999999957
0
LINE
8
BLACK
6
CONTINUOUS
10
145.8864759999999876
20
-69.1665069999999957
11
145.7824849999999799
21
-69.0867119999999915
0
LINE
8
BLACK
6
CONTINUOUS
10
145.7824849999999799
20
-69.0867119999999915
11
145.9999909999999943
21
-69.2320449999999994
0
LINE
8
BLACK
6
CONTINUOUS
10
145.7824849999999799
20
-69.0867119999999915
11
145.7824770000000001
21
-69.0867069999999899
0
LINE
8
BLACK
6
CONTINUOUS
10
145.7824770000000001
20
-69.0867069999999899
11
145.7824679999999944
21
-69.0866989999999959
0
LINE
8
BLACK
6
CONTINUOUS
10
145.7824679999999944
20
-69.0866989999999959
11
145.7824849999999799
21
-69.0867119999999915
0
LINE
8
BLACK
6
CONTINUOUS
10
145.7824679999999944
20
-69.0866989999999959
11
145.6784789999999816
21
-69.0069060000000007
0
LINE
8
BLACK
6
CONTINUOUS
10
145.6784789999999816
20
-69.0069060000000007
11
145.5857939999999928
21
-68.9142209999999977
0
LINE
8
BLACK
6
CONTINUOUS
10
145.5857939999999928
20
-68.9142209999999977
11
145.7824679999999944
21
-69.0866989999999959
0
LINE
8
BLACK
6
CONTINUOUS
10
145.5857939999999928
20
-68.9142209999999977
11
145.5857859999999846
21
-68.9142140000000012
0
LINE
8
BLACK
6
CONTINUOUS
10
145.5857859999999846
20
-68.9142140000000012
11
145.5857780000000048
21
-68.9142049999999955
0
LINE
8
BLACK
6
CONTINUOUS
10
145.5857780000000048
20
-68.9142049999999955
11
145.5857939999999928
21
-68.9142209999999977
0
LINE
8
BLACK
6
CONTINUOUS
10
145.5857780000000048
20
-68.9142049999999955
11
145.493093999999985
21
-68.82152099999999
0
LINE
8
BLACK
6
CONTINUOUS
10
145.493093999999985
20
-68.82152099999999
11
145.4132999999999925
21
-68.7175309999999939
0
LINE
8
BLACK
6
CONTINUOUS
10
145.4132999999999925
20
-68.7175309999999939
11
145.5857780000000048
21
-68.9142049999999955
0
LINE
8
BLACK
6
CONTINUOUS
10
145.4132999999999925
20
-68.7175309999999939
11
145.4132929999999817
21
-68.7175229999999999
0
LINE
8
BLACK
6
CONTINUOUS
10
145.4132929999999817
20
-68.7175229999999999
11
145.4132869999999969
21
-68.7175139999999942
0
LINE
8
BLACK
6
CONTINUOUS
10
145.4132869999999969
20
-68.7175139999999942
11
145.4132999999999925
21
-68.7175309999999939
0
LINE
8
BLACK
6
CONTINUOUS
10
145.4132869999999969
20
-68.7175139999999942
11
145.3334930000000043
21
-68.6135239999999982
0
LINE
8
BLACK
6
CONTINUOUS
10
145.3334930000000043
20
-68.6135239999999982
11
145.2679540000000031
21
-68.500007999999994
0
LINE
8
BLACK
6
CONTINUOUS
10
145.2679540000000031
20
-68.500007999999994
11
145.4132869999999969
21
-68.7175139999999942
0
LINE
8
BLACK
6
CONTINUOUS
10
145.2679540000000031
20
-68.500007999999994
11
145.2679489999999873
21
-68.5
0
LINE
8
BLACK
6
CONTINUOUS
10
145.2679489999999873
20
-68.5
11
145.267944
21
-68.4999899999999968
0
LINE
8
BLACK
6
CONTINUOUS
10
145.267944
20
-68.4999899999999968
11
145.2679540000000031
21
-68.500007999999994
0
LINE
8
BLACK
6
CONTINUOUS
10
145.0171090000000049
20
-67.7610480000000024
11
145.
21
-67.6310869999999937
0
LINE
8
BLACK
6
CONTINUOUS
10
145.
20
-67.6310869999999937
11
145.
21
-67.5
0
LINE
8
BLACK
6
CONTINUOUS
10
145.
20
-67.5
11
145.0171090000000049
21
-67.7610480000000024
0
LINE
8
BLACK
6
CONTINUOUS
10
36.2671089999999978
20
-53.4689539999999965
11
36.2842209999999952
21
-53.3389819999999943
0
LINE
8
BLACK
6
CONTINUOUS
10
36.2842209999999952
20
-53.3389819999999943
11
36.3181459999999987
21
-53.2123689999999954
0
LINE
8
BLACK
6
CONTINUOUS
10
36.3181459999999987
20
-53.2123689999999954
11
36.2671099999999953
21
-53.4689479999999975
0
LINE
8
BLACK
6
CONTINUOUS
10
36.2671099999999953
20
-53.4689479999999975
11
36.2671089999999978
21
-53.4689539999999965
0
LINE
8
BLACK
6
CONTINUOUS
10
36.402239999999999
20
-52.9646349999999941
11
36.4524059999999963
21
-52.8435249999999996
0
LINE
8
BLACK
6
CONTINUOUS
10
36.4524059999999963
20
-52.8435249999999996
11
36.517944
21
-52.7300089999999955
0
LINE
8
BLACK
6
CONTINUOUS
10
36.517944
20
-52.7300089999999955
11
36.4022409999999965
21
-52.9646329999999992
0
LINE
8
BLACK
6
CONTINUOUS
10
36.4022409999999965
20
-52.9646329999999992
11
36.402239999999999
21
-52.9646349999999941
0
LINE
8
BLACK
6
CONTINUOUS
10
36.517953999999996
20
-52.7299909999999983
11
36.5834929999999972
21
-52.6164759999999987
0
LINE
8
BLACK
6
CONTINUOUS
10
36.5834929999999972
20
-52.6164759999999987
11
36.6632869999999969
21
-52.5124849999999981
0
LINE
8
BLACK
6
CONTINUOUS
10
36.6632869999999969
20
-52.5124849999999981
11
36.517953999999996
21
-52.7299909999999983
0
LINE
8
BLACK
6
CONTINUOUS
10
36.6632869999999969
20
-52.5124849999999981
11
36.6632929999999959
21
-52.512476999999997
0
LINE
8
BLACK
6
CONTINUOUS
10
36.6632929999999959
20
-52.512476999999997
11
36.6632999999999996
21
-52.5124679999999984
0
LINE
8
BLACK
6
CONTINUOUS
10
36.6632999999999996
20
-52.5124679999999984
11
36.6632869999999969
21
-52.5124849999999981
0
LINE
8
BLACK
6
CONTINUOUS
10
36.6632999999999996
20
-52.5124679999999984
11
36.7430939999999993
21
-52.4084789999999998
0
LINE
8
BLACK
6
CONTINUOUS
10
36.7430939999999993
20
-52.4084789999999998
11
36.8357779999999977
21
-52.3157939999999968
0
LINE
8
BLACK
6
CONTINUOUS
10
36.8357779999999977
20
-52.3157939999999968
11
36.6632999999999996
21
-52.5124679999999984
0
LINE
8
BLACK
6
CONTINUOUS
10
36.8357939999999999
20
-52.3157779999999946
11
36.9284789999999958
21
-52.2230939999999961
0
LINE
8
BLACK
6
CONTINUOUS
10
36.9284789999999958
20
-52.2230939999999961
11
37.0324680000000015
21
-52.1432999999999964
0
LINE
8
BLACK
6
CONTINUOUS
10
37.0324680000000015
20
-52.1432999999999964
11
36.8357939999999999
21
-52.3157779999999946
0
LINE
8
BLACK
6
CONTINUOUS
10
37.0324680000000015
20
-52.1432999999999964
11
37.0324770000000001
21
-52.1432929999999999
0
LINE
8
BLACK
6
CONTINUOUS
10
37.0324770000000001
20
-52.1432929999999999
11
37.0324850000000012
21
-52.1432870000000008
0
LINE
8
BLACK
6
CONTINUOUS
10
37.0324850000000012
20
-52.1432870000000008
11
37.0324680000000015
21
-52.1432999999999964
0
LINE
8
BLACK
6
CONTINUOUS
10
37.0324850000000012
20
-52.1432870000000008
11
37.1364760000000018
21
-52.0634930000000011
0
LINE
8
BLACK
6
CONTINUOUS
10
37.1364760000000018
20
-52.0634930000000011
11
37.2499910000000014
21
-51.997954
0
LINE
8
BLACK
6
CONTINUOUS
10
37.2499910000000014
20
-51.997954
11
37.0324850000000012
21
-52.1432870000000008
0
LINE
8
BLACK
6
CONTINUOUS
10
37.4846299999999957
20
-51.882241999999998
11
37.6057419999999993
21
-51.8320760000000007
0
LINE
8
BLACK
6
CONTINUOUS
10
37.6057419999999993
20
-51.8320760000000007
11
37.7323549999999983
21
-51.7981499999999997
0
LINE
8
BLACK
6
CONTINUOUS
10
37.7323549999999983
20
-51.7981499999999997
11
37.4846329999999952
21
-51.8822410000000005
0
LINE
8
BLACK
6
CONTINUOUS
10
37.4846329999999952
20
-51.8822410000000005
11
37.4846299999999957
21
-51.882241999999998
0
LINE
8
BLACK
6
CONTINUOUS
10
37.7323689999999985
20
-51.7981459999999956
11
37.8589819999999975
21
-51.7642209999999992
0
LINE
8
BLACK
6
CONTINUOUS
10
37.8589819999999975
20
-51.7642209999999992
11
37.988940999999997
21
-51.7471109999999967
0
LINE
8
BLACK
6
CONTINUOUS
10
37.988940999999997
20
-51.7471109999999967
11
37.7323689999999985
21
-51.7981459999999956
0
LINE
8
BLACK
6
CONTINUOUS
10
37.988940999999997
20
-51.7471109999999967
11
37.9889480000000006
21
-51.7471099999999993
0
LINE
8
BLACK
6
CONTINUOUS
10
37.9889480000000006
20
-51.7471099999999993
11
37.9889539999999997
21
-51.7471089999999947
0
LINE
8
BLACK
6
CONTINUOUS
10
37.9889539999999997
20
-51.7471089999999947
11
37.988940999999997
21
-51.7471109999999967
0
LINE
8
BLACK
6
CONTINUOUS
10
37.9889539999999997
20
-51.7471089999999947
11
38.1189129999999992
21
-51.7299999999999969
0
LINE
8
BLACK
6
CONTINUOUS
10
38.1189129999999992
20
-51.7299999999999969
11
38.25
21
-51.7299999999999969
0
LINE
8
BLACK
6
CONTINUOUS
10
38.25
20
-51.7299999999999969
11
37.9889539999999997
21
-51.7471089999999947
0
LINE
8
BLACK
6
CONTINUOUS
10
53.431086999999998
20
-51.7299999999999969
11
53.2999999999999972
21
-51.7299999999999969
0
LINE
8
BLACK
6
CONTINUOUS
10
53.2999999999999972
20
-51.7299999999999969
11
53.561045
21
-51.7128899999999945
0
LINE
8
BLACK
6
CONTINUOUS
10
53.561045
20
-51.7128899999999945
11
53.431086999999998
21
-51.7299999999999969
0
LINE
8
BLACK
6
CONTINUOUS
10
53.5610519999999966
20
-51.7128899999999945
11
53.561045
21
-51.7128899999999945
0
LINE
8
BLACK
6
CONTINUOUS
10
53.561045
20
-51.7128899999999945
11
53.5610579999999956
21
-51.7128879999999995
0
LINE
8
BLACK
6
CONTINUOUS
10
53.5610579999999956
20
-51.7128879999999995
11
53.5610519999999966
21
-51.7128899999999945
0
LINE
8
BLACK
6
CONTINUOUS
10
53.6910179999999997
20
-51.6957789999999946
11
53.5610579999999956
21
-51.7128879999999995
0
LINE
8
BLACK
6
CONTINUOUS
10
53.5610579999999956
20
-51.7128879999999995
11
53.8176299999999941
21
-51.6618530000000007
0
LINE
8
BLACK
6
CONTINUOUS
10
53.8176299999999941
20
-51.6618530000000007
11
53.6910179999999997
21
-51.6957789999999946
0
LINE
8
BLACK
6
CONTINUOUS
10
53.8176379999999952
20
-51.6618519999999961
11
53.8176299999999941
21
-51.6618530000000007
0
LINE
8
BLACK
6
CONTINUOUS
10
53.8176299999999941
20
-51.6618530000000007
11
53.8176439999999943
21
-51.6618489999999966
0
LINE
8
BLACK
6
CONTINUOUS
10
53.8176439999999943
20
-51.6618489999999966
11
53.8176379999999952
21
-51.6618519999999961
0
LINE
8
BLACK
6
CONTINUOUS
10
53.9442579999999978
20
-51.6279240000000001
11
53.8176439999999943
21
-51.6618489999999966
0
LINE
8
BLACK
6
CONTINUOUS
10
53.8176439999999943
20
-51.6618489999999966
11
54.0653639999999953
21
-51.5777590000000004
0
LINE
8
BLACK
6
CONTINUOUS
10
54.0653639999999953
20
-51.5777590000000004
11
53.9442579999999978
21
-51.6279240000000001
0
LINE
8
BLACK
6
CONTINUOUS
10
54.0653669999999948
20
-51.5777590000000004
11
54.0653639999999953
21
-51.5777590000000004
0
LINE
8
BLACK
6
CONTINUOUS
10
54.0653639999999953
20
-51.5777590000000004
11
54.0653689999999969
21
-51.5777569999999983
0
LINE
8
BLACK
6
CONTINUOUS
10
54.0653689999999969
20
-51.5777569999999983
11
54.0653669999999948
21
-51.5777590000000004
0
LINE
8
BLACK
6
CONTINUOUS
10
54.1864749999999944
20
-51.5275940000000006
11
54.0653689999999969
21
-51.5777569999999983
0
LINE
8
BLACK
6
CONTINUOUS
10
54.0653689999999969
20
-51.5777569999999983
11
54.2999900000000011
21
-51.4620549999999994
0
LINE
8
BLACK
6
CONTINUOUS
10
54.2999900000000011
20
-51.4620549999999994
11
54.1864749999999944
21
-51.5275940000000006
0
LINE
8
BLACK
6
CONTINUOUS
10
54.2999999999999972
20
-51.4620509999999953
11
54.2999900000000011
21
-51.4620549999999994
0
LINE
8
BLACK
6
CONTINUOUS
10
54.2999900000000011
20
-51.4620549999999994
11
54.3000079999999983
21
-51.4620449999999963
0
LINE
8
BLACK
6
CONTINUOUS
10
54.3000079999999983
20
-51.4620449999999963
11
54.2999999999999972
21
-51.4620509999999953
0
LINE
8
BLACK
6
CONTINUOUS
10
54.4135239999999953
20
-51.3965069999999997
11
54.3000079999999983
21
-51.4620449999999963
0
LINE
8
BLACK
6
CONTINUOUS
10
54.3000079999999983
20
-51.4620449999999963
11
54.5175139999999985
21
-51.3167119999999954
0
LINE
8
BLACK
6
CONTINUOUS
10
54.5175139999999985
20
-51.3167119999999954
11
54.4135239999999953
21
-51.3965069999999997
0
LINE
8
BLACK
6
CONTINUOUS
10
54.5175229999999971
20
-51.316707000000001
11
54.5175139999999985
21
-51.3167119999999954
0
LINE
8
BLACK
6
CONTINUOUS
10
54.5175139999999985
20
-51.3167119999999954
11
54.5175309999999982
21
-51.3166989999999998
0
LINE
8
BLACK
6
CONTINUOUS
10
54.5175309999999982
20
-51.3166989999999998
11
54.5175229999999971
21
-51.316707000000001
0
LINE
8
BLACK
6
CONTINUOUS
10
54.6215209999999942
20
-51.2369059999999976
11
54.5175309999999982
21
-51.3166989999999998
0
LINE
8
BLACK
6
CONTINUOUS
10
54.5175309999999982
20
-51.3166989999999998
11
54.7142049999999998
21
-51.1442209999999946
0
LINE
8
BLACK
6
CONTINUOUS
10
54.7142049999999998
20
-51.1442209999999946
11
54.6215209999999942
21
-51.2369059999999976
0
LINE
8
BLACK
6
CONTINUOUS
10
54.7142139999999984
20
-51.1442139999999981
11
54.7142049999999998
21
-51.1442209999999946
0
LINE
8
BLACK
6
CONTINUOUS
10
54.7142049999999998
20
-51.1442209999999946
11
54.7142209999999949
21
-51.1442049999999995
0
LINE
8
BLACK
6
CONTINUOUS
10
54.7142209999999949
20
-51.1442049999999995
11
54.7142139999999984
21
-51.1442139999999981
0
LINE
8
BLACK
6
CONTINUOUS
10
54.8069059999999979
20
-51.051521000000001
11
54.7142209999999949
21
-51.1442049999999995
0
LINE
8
BLACK
6
CONTINUOUS
10
54.7142209999999949
20
-51.1442049999999995
11
54.8866990000000001
21
-50.9475309999999979
0
LINE
8
BLACK
6
CONTINUOUS
10
54.8866990000000001
20
-50.9475309999999979
11
54.8069059999999979
21
-51.051521000000001
0
LINE
8
BLACK
6
CONTINUOUS
10
54.8867069999999941
20
-50.9475229999999968
11
54.8866990000000001
21
-50.9475309999999979
0
LINE
8
BLACK
6
CONTINUOUS
10
54.8866990000000001
20
-50.9475309999999979
11
54.8867119999999957
21
-50.9475139999999982
0
LINE
8
BLACK
6
CONTINUOUS
10
54.8867119999999957
20
-50.9475139999999982
11
54.8867069999999941
21
-50.9475229999999968
0
LINE
8
BLACK
6
CONTINUOUS
10
54.966507
20
-50.8435239999999951
11
54.8867119999999957
21
-50.9475139999999982
0
LINE
8
BLACK
6
CONTINUOUS
10
54.8867119999999957
20
-50.9475139999999982
11
55.0320449999999965
21
-50.730007999999998
0
LINE
8
BLACK
6
CONTINUOUS
10
55.0320449999999965
20
-50.730007999999998
11
54.966507
21
-50.8435239999999951
0
LINE
8
BLACK
6
CONTINUOUS
10
55.0320509999999956
20
-50.7299999999999969
11
55.0320449999999965
21
-50.730007999999998
0
LINE
8
BLACK
6
CONTINUOUS
10
55.0320449999999965
20
-50.730007999999998
11
55.0320549999999997
21
-50.7299900000000008
0
LINE
8
BLACK
6
CONTINUOUS
10
55.0320549999999997
20
-50.7299900000000008
11
55.0320509999999956
21
-50.7299999999999969
0
LINE
8
BLACK
6
CONTINUOUS
10
55.1477509999999995
20
-50.4953819999999993
11
55.0975940000000008
21
-50.6164750000000012
0
LINE
8
BLACK
6
CONTINUOUS
10
55.0975940000000008
20
-50.6164750000000012
11
55.0320549999999997
21
-50.7299900000000008
0
LINE
8
BLACK
6
CONTINUOUS
10
55.0320549999999997
20
-50.7299900000000008
11
55.1477509999999995
21
-50.4953819999999993
0
LINE
8
BLACK
6
CONTINUOUS
10
144.9828909999999951
20
-42.038964
11
145.
21
-42.1689129999999963
0
LINE
8
BLACK
6
CONTINUOUS
10
145.
20
-42.1689129999999963
11
145.
21
-42.2999999999999972
0
LINE
8
BLACK
6
CONTINUOUS
10
145.
20
-42.2999999999999972
11
144.9828909999999951
21
-42.038964
0
LINE
8
BLACK
6
CONTINUOUS
10
144.9318519999999921
20
-41.7823619999999991
11
144.9318529999999896
21
-41.7823689999999957
0
LINE
8
BLACK
6
CONTINUOUS
10
144.9318529999999896
20
-41.7823689999999957
11
144.9318489999999997
21
-41.7823549999999955
0
LINE
8
BLACK
6
CONTINUOUS
10
144.9318489999999997
20
-41.7823549999999955
11
144.9318519999999921
21
-41.7823619999999991
0
LINE
8
BLACK
6
CONTINUOUS
10
144.8477619999999888
20
-41.5346429999999955
11
144.8979239999999891
21
-41.6557419999999965
0
LINE
8
BLACK
6
CONTINUOUS
10
144.8979239999999891
20
-41.6557419999999965
11
144.9318489999999997
21
-41.7823549999999955
0
LINE
8
BLACK
6
CONTINUOUS
10
144.9318489999999997
20
-41.7823549999999955
11
144.8477619999999888
21
-41.5346429999999955
0
LINE
8
BLACK
6
CONTINUOUS
10
144.7320509999999842
20
-41.2999999999999972
11
144.7320550000000026
21
-41.3000089999999958
0
LINE
8
BLACK
6
CONTINUOUS
10
144.7320550000000026
20
-41.3000089999999958
11
144.7320449999999994
21
-41.2999909999999986
0
LINE
8
BLACK
6
CONTINUOUS
10
144.7320449999999994
20
-41.2999909999999986
11
144.7320509999999842
21
-41.2999999999999972
0
LINE
8
BLACK
6
CONTINUOUS
10
144.6665069999999957
20
-41.186475999999999
11
144.7320449999999994
21
-41.2999909999999986
0
LINE
8
BLACK
6
CONTINUOUS
10
144.7320449999999994
20
-41.2999909999999986
11
144.5867120000000057
21
-41.0824849999999984
0
LINE
8
BLACK
6
CONTINUOUS
10
144.5867120000000057
20
-41.0824849999999984
11
144.6665069999999957
21
-41.186475999999999
0
LINE
8
BLACK
6
CONTINUOUS
10
144.5867069999999899
20
-41.0824769999999972
11
144.5867120000000057
21
-41.0824849999999984
0
LINE
8
BLACK
6
CONTINUOUS
10
144.5867120000000057
20
-41.0824849999999984
11
144.5866989999999817
21
-41.0824679999999987
0
LINE
8
BLACK
6
CONTINUOUS
10
144.5866989999999817
20
-41.0824679999999987
11
144.5867069999999899
21
-41.0824769999999972
0
LINE
8
BLACK
6
CONTINUOUS
10
144.5069059999999865
20
-40.9784790000000001
11
144.5866989999999817
21
-41.0824679999999987
0
LINE
8
BLACK
6
CONTINUOUS
10
144.5866989999999817
20
-41.0824679999999987
11
144.4142209999999977
21
-40.8857939999999971
0
LINE
8
BLACK
6
CONTINUOUS
10
144.4142209999999977
20
-40.8857939999999971
11
144.5069059999999865
21
-40.9784790000000001
0
LINE
8
BLACK
6
CONTINUOUS
10
144.414213999999987
20
-40.885785999999996
11
144.4142209999999977
21
-40.8857939999999971
0
LINE
8
BLACK
6
CONTINUOUS
10
144.4142209999999977
20
-40.8857939999999971
11
144.4142049999999813
21
-40.8857779999999948
0
LINE
8
BLACK
6
CONTINUOUS
10
144.4142049999999813
20
-40.8857779999999948
11
144.414213999999987
21
-40.885785999999996
0
LINE
8
BLACK
6
CONTINUOUS
10
144.32152099999999
20
-40.7930939999999964
11
144.4142049999999813
21
-40.8857779999999948
0
LINE
8
BLACK
6
CONTINUOUS
10
144.4142049999999813
20
-40.8857779999999948
11
144.2175309999999797
21
-40.7132999999999967
0
LINE
8
BLACK
6
CONTINUOUS
10
144.2175309999999797
20
-40.7132999999999967
11
144.32152099999999
21
-40.7930939999999964
0
LINE
8
BLACK
6
CONTINUOUS
10
144.2175229999999999
20
-40.7132930000000002
11
144.2175309999999797
21
-40.7132999999999967
0
LINE
8
BLACK
6
CONTINUOUS
10
144.2175309999999797
20
-40.7132999999999967
11
144.2175139999999942
21
-40.7132870000000011
0
LINE
8
BLACK
6
CONTINUOUS
10
144.2175139999999942
20
-40.7132870000000011
11
144.2175229999999999
21
-40.7132930000000002
0
LINE
8
BLACK
6
CONTINUOUS
10
144.113523999999984
20
-40.6334930000000014
11
144.2175139999999942
21
-40.7132870000000011
0
LINE
8
BLACK
6
CONTINUOUS
10
144.2175139999999942
20
-40.7132870000000011
11
144.0000079999999798
21
-40.5679540000000003
0
LINE
8
BLACK
6
CONTINUOUS
10
144.0000079999999798
20
-40.5679540000000003
11
144.113523999999984
21
-40.6334930000000014
0
LINE
8
BLACK
6
CONTINUOUS
10
144.
20
-40.5679489999999987
11
144.0000079999999798
21
-40.5679540000000003
0
LINE
8
BLACK
6
CONTINUOUS
10
144.0000079999999798
20
-40.5679540000000003
11
143.9999899999999968
21
-40.5679439999999971
0
LINE
8
BLACK
6
CONTINUOUS
10
143.9999899999999968
20
-40.5679439999999971
11
144.
21
-40.5679489999999987
0
LINE
8
BLACK
6
CONTINUOUS
10
143.7653699999999901
20
-40.4522419999999983
11
143.8864749999999901
21
-40.5024060000000006
0
LINE
8
BLACK
6
CONTINUOUS
10
143.8864749999999901
20
-40.5024060000000006
11
143.9999899999999968
21
-40.5679439999999971
0
LINE
8
BLACK
6
CONTINUOUS
10
143.9999899999999968
20
-40.5679439999999971
11
143.7653699999999901
21
-40.4522419999999983
0
LINE
8
BLACK
6
CONTINUOUS
10
143.5176380000000051
20
-40.3681479999999979
11
143.51764399999999
21
-40.36815
0
LINE
8
BLACK
6
CONTINUOUS
10
143.51764399999999
20
-40.36815
11
143.5176299999999969
21
-40.3681459999999959
0
LINE
8
BLACK
6
CONTINUOUS
10
143.5176299999999969
20
-40.3681459999999959
11
143.5176380000000051
21
-40.3681479999999979
0
LINE
8
BLACK
6
CONTINUOUS
10
143.3910180000000025
20
-40.3342209999999994
11
143.5176299999999969
21
-40.3681459999999959
0
LINE
8
BLACK
6
CONTINUOUS
10
143.5176299999999969
20
-40.3681459999999959
11
143.2610579999999914
21
-40.317110999999997
0
LINE
8
BLACK
6
CONTINUOUS
10
143.2610579999999914
20
-40.317110999999997
11
143.3910180000000025
21
-40.3342209999999994
0
LINE
8
BLACK
6
CONTINUOUS
10
143.2610520000000065
20
-40.3171099999999996
11
143.2610579999999914
21
-40.317110999999997
0
LINE
8
BLACK
6
CONTINUOUS
10
143.2610579999999914
20
-40.317110999999997
11
143.2610449999999958
21
-40.317108999999995
0
LINE
8
BLACK
6
CONTINUOUS
10
143.2610449999999958
20
-40.317108999999995
11
143.2610520000000065
21
-40.3171099999999996
0
LINE
8
BLACK
6
CONTINUOUS
10
143.2610449999999958
20
-40.317108999999995
11
143.
21
-40.2999999999999972
0
LINE
8
BLACK
6
CONTINUOUS
10
143.
20
-40.2999999999999972
11
143.1310869999999795
21
-40.2999999999999972
0
LINE
8
BLACK
6
CONTINUOUS
10
143.1310869999999795
20
-40.2999999999999972
11
143.2610449999999958
21
-40.317108999999995
0
LINE
8
BLACK
6
CONTINUOUS
10
102.3999999999999915
20
-40.2999999999999972
11
102.2689129999999977
21
-40.2999999999999972
0
LINE
8
BLACK
6
CONTINUOUS
10
102.2689129999999977
20
-40.2999999999999972
11
102.1389539999999982
21
-40.2828899999999948
0
LINE
8
BLACK
6
CONTINUOUS
10
102.1389539999999982
20
-40.2828899999999948
11
102.3999999999999915
21
-40.2999999999999972
0
LINE
8
BLACK
6
CONTINUOUS
10
102.1389539999999982
20
-40.2828899999999948
11
102.1389479999999992
21
-40.2828899999999948
0
LINE
8
BLACK
6
CONTINUOUS
10
102.1389479999999992
20
-40.2828899999999948
11
102.1389409999999884
21
-40.2828879999999998
0
LINE
8
BLACK
6
CONTINUOUS
10
102.1389409999999884
20
-40.2828879999999998
11
102.1389539999999982
21
-40.2828899999999948
0
LINE
8
BLACK
6
CONTINUOUS
10
102.1389409999999884
20
-40.2828879999999998
11
102.0089819999999889
21
-40.2657789999999949
0
LINE
8
BLACK
6
CONTINUOUS
10
102.0089819999999889
20
-40.2657789999999949
11
101.8823689999999971
21
-40.231853000000001
0
LINE
8
BLACK
6
CONTINUOUS
10
101.8823689999999971
20
-40.231853000000001
11
102.1389409999999884
21
-40.2828879999999998
0
LINE
8
BLACK
6
CONTINUOUS
10
101.8823689999999971
20
-40.231853000000001
11
101.8823620000000005
21
-40.2318519999999964
0
LINE
8
BLACK
6
CONTINUOUS
10
101.8823620000000005
20
-40.2318519999999964
11
101.8823549999999898
21
-40.2318489999999969
0
LINE
8
BLACK
6
CONTINUOUS
10
101.8823549999999898
20
-40.2318489999999969
11
101.8823689999999971
21
-40.231853000000001
0
LINE
8
BLACK
6
CONTINUOUS
10
101.8823549999999898
20
-40.2318489999999969
11
101.7557419999999979
21
-40.1979240000000004
0
LINE
8
BLACK
6
CONTINUOUS
10
101.7557419999999979
20
-40.1979240000000004
11
101.6346349999999887
21
-40.1477590000000006
0
LINE
8
BLACK
6
CONTINUOUS
10
101.6346349999999887
20
-40.1477590000000006
11
101.8823549999999898
21
-40.2318489999999969
0
LINE
8
BLACK
6
CONTINUOUS
10
101.6346349999999887
20
-40.1477590000000006
11
101.6346329999999938
21
-40.1477590000000006
0
LINE
8
BLACK
6
CONTINUOUS
10
101.6346329999999938
20
-40.1477590000000006
11
101.6346300000000014
21
-40.1477569999999986
0
LINE
8
BLACK
6
CONTINUOUS
10
101.6346300000000014
20
-40.1477569999999986
11
101.6346349999999887
21
-40.1477590000000006
0
LINE
8
BLACK
6
CONTINUOUS
10
101.6346300000000014
20
-40.1477569999999986
11
101.5135250000000013
21
-40.0975940000000008
0
LINE
8
BLACK
6
CONTINUOUS
10
101.5135250000000013
20
-40.0975940000000008
11
101.4000089999999972
21
-40.0320549999999997
0
LINE
8
BLACK
6
CONTINUOUS
10
101.4000089999999972
20
-40.0320549999999997
11
101.6346300000000014
21
-40.1477569999999986
0
LINE
8
BLACK
6
CONTINUOUS
10
101.4000089999999972
20
-40.0320549999999997
11
101.3999999999999915
21
-40.0320509999999956
0
LINE
8
BLACK
6
CONTINUOUS
10
101.3999999999999915
20
-40.0320509999999956
11
101.399991
21
-40.0320449999999965
0
LINE
8
BLACK
6
CONTINUOUS
10
101.399991
20
-40.0320449999999965
11
101.4000089999999972
21
-40.0320549999999997
0
LINE
8
BLACK
6
CONTINUOUS
10
101.399991
20
-40.0320449999999965
11
101.2864759999999933
21
-39.966507
0
LINE
8
BLACK
6
CONTINUOUS
10
101.2864759999999933
20
-39.966507
11
101.1824849999999998
21
-39.8867119999999957
0
LINE
8
BLACK
6
CONTINUOUS
10
101.1824849999999998
20
-39.8867119999999957
11
101.399991
21
-40.0320449999999965
0
LINE
8
BLACK
6
CONTINUOUS
10
101.1824849999999998
20
-39.8867119999999957
11
101.1824769999999916
21
-39.8867070000000012
0
LINE
8
BLACK
6
CONTINUOUS
10
101.1824769999999916
20
-39.8867070000000012
11
101.1824680000000001
21
-39.8866990000000001
0
LINE
8
BLACK
6
CONTINUOUS
10
101.1824680000000001
20
-39.8866990000000001
11
101.1824849999999998
21
-39.8867119999999957
0
LINE
8
BLACK
6
CONTINUOUS
10
101.1824680000000001
20
-39.8866990000000001
11
101.0784790000000015
21
-39.8069059999999979
0
LINE
8
BLACK
6
CONTINUOUS
10
101.0784790000000015
20
-39.8069059999999979
11
100.9857939999999985
21
-39.7142209999999949
0
LINE
8
BLACK
6
CONTINUOUS
10
100.9857939999999985
20
-39.7142209999999949
11
101.1824680000000001
21
-39.8866990000000001
0
LINE
8
BLACK
6
CONTINUOUS
10
55.317108999999995
20
-39.4989539999999977
11
55.3342209999999994
21
-39.3689819999999955
0
LINE
8
BLACK
6
CONTINUOUS
10
55.3342209999999994
20
-39.3689819999999955
11
55.3681459999999959
21
-39.2423689999999965
0
LINE
8
BLACK
6
CONTINUOUS
10
55.3681459999999959
20
-39.2423689999999965
11
55.3171099999999996
21
-39.4989479999999986
0
LINE
8
BLACK
6
CONTINUOUS
10
55.3171099999999996
20
-39.4989479999999986
11
55.317108999999995
21
-39.4989539999999977
0
LINE
8
BLACK
6
CONTINUOUS
10
100.9857939999999985
20
-39.7142209999999949
11
100.9857859999999903
21
-39.7142139999999984
0
LINE
8
BLACK
6
CONTINUOUS
10
100.9857859999999903
20
-39.7142139999999984
11
100.9857779999999963
21
-39.7142049999999998
0
LINE
8
BLACK
6
CONTINUOUS
10
100.9857779999999963
20
-39.7142049999999998
11
100.9857939999999985
21
-39.7142209999999949
0
LINE
8
BLACK
6
CONTINUOUS
10
100.9857779999999963
20
-39.7142049999999998
11
100.8930939999999907
21
-39.6215210000000013
0
LINE
8
BLACK
6
CONTINUOUS
10
100.8930939999999907
20
-39.6215210000000013
11
100.8132999999999981
21
-39.5175309999999982
0
LINE
8
BLACK
6
CONTINUOUS
10
100.8132999999999981
20
-39.5175309999999982
11
100.9857779999999963
21
-39.7142049999999998
0
LINE
8
BLACK
6
CONTINUOUS
10
100.8132999999999981
20
-39.5175309999999982
11
100.8132930000000016
21
-39.5175229999999971
0
LINE
8
BLACK
6
CONTINUOUS
10
100.8132930000000016
20
-39.5175229999999971
11
100.8132870000000025
21
-39.5175139999999985
0
LINE
8
BLACK
6
CONTINUOUS
10
100.8132870000000025
20
-39.5175139999999985
11
100.8132999999999981
21
-39.5175309999999982
0
LINE
8
BLACK
6
CONTINUOUS
10
100.8132870000000025
20
-39.5175139999999985
11
100.7334929999999957
21
-39.4135239999999953
0
LINE
8
BLACK
6
CONTINUOUS
10
100.7334929999999957
20
-39.4135239999999953
11
100.6679539999999946
21
-39.3000079999999983
0
LINE
8
BLACK
6
CONTINUOUS
10
100.6679539999999946
20
-39.3000079999999983
11
100.8132870000000025
21
-39.5175139999999985
0
LINE
8
BLACK
6
CONTINUOUS
10
100.6679539999999946
20
-39.3000079999999983
11
100.667948999999993
21
-39.2999999999999972
0
LINE
8
BLACK
6
CONTINUOUS
10
100.667948999999993
20
-39.2999999999999972
11
100.6679439999999914
21
-39.2999900000000011
0
LINE
8
BLACK
6
CONTINUOUS
10
100.6679439999999914
20
-39.2999900000000011
11
100.6679539999999946
21
-39.3000079999999983
0
LINE
8
BLACK
6
CONTINUOUS
10
100.4171089999999964
20
-38.5610479999999995
11
100.3999999999999915
21
-38.431086999999998
0
LINE
8
BLACK
6
CONTINUOUS
10
100.3999999999999915
20
-38.431086999999998
11
100.3999999999999915
21
-38.2999999999999972
0
LINE
8
BLACK
6
CONTINUOUS
10
100.3999999999999915
20
-38.2999999999999972
11
100.4171089999999964
21
-38.5610479999999995
0
LINE
8
BLACK
6
CONTINUOUS
10
55.4522399999999962
20
-38.9946349999999953
11
55.5024060000000006
21
-38.8735250000000008
0
LINE
8
BLACK
6
CONTINUOUS
10
55.5024060000000006
20
-38.8735250000000008
11
55.5679439999999971
21
-38.7600089999999966
0
LINE
8
BLACK
6
CONTINUOUS
10
55.5679439999999971
20
-38.7600089999999966
11
55.4522410000000008
21
-38.9946330000000003
0
LINE
8
BLACK
6
CONTINUOUS
10
55.4522410000000008
20
-38.9946330000000003
11
55.4522399999999962
21
-38.9946349999999953
0
LINE
8
BLACK
6
CONTINUOUS
10
55.5679540000000003
20
-38.7599909999999994
11
55.6334929999999943
21
-38.6464759999999998
0
LINE
8
BLACK
6
CONTINUOUS
10
55.6334929999999943
20
-38.6464759999999998
11
55.713286999999994
21
-38.5424849999999992
0
LINE
8
BLACK
6
CONTINUOUS
10
55.713286999999994
20
-38.5424849999999992
11
55.5679540000000003
21
-38.7599909999999994
0
LINE
8
BLACK
6
CONTINUOUS
10
55.713286999999994
20
-38.5424849999999992
11
55.7132930000000002
21
-38.5424769999999981
0
LINE
8
BLACK
6
CONTINUOUS
10
55.7132930000000002
20
-38.5424769999999981
11
55.7132999999999967
21
-38.5424679999999995
0
LINE
8
BLACK
6
CONTINUOUS
10
55.7132999999999967
20
-38.5424679999999995
11
55.713286999999994
21
-38.5424849999999992
0
LINE
8
BLACK
6
CONTINUOUS
10
55.7132999999999967
20
-38.5424679999999995
11
55.7930939999999964
21
-38.438479000000001
0
LINE
8
BLACK
6
CONTINUOUS
10
55.7930939999999964
20
-38.438479000000001
11
55.8857779999999948
21
-38.3457939999999979
0
LINE
8
BLACK
6
CONTINUOUS
10
55.8857779999999948
20
-38.3457939999999979
11
55.7132999999999967
21
-38.5424679999999995
0
LINE
8
BLACK
6
CONTINUOUS
10
55.8857939999999971
20
-38.3457779999999957
11
55.9784790000000001
21
-38.2530939999999973
0
LINE
8
BLACK
6
CONTINUOUS
10
55.9784790000000001
20
-38.2530939999999973
11
56.0824679999999987
21
-38.1732999999999976
0
LINE
8
BLACK
6
CONTINUOUS
10
56.0824679999999987
20
-38.1732999999999976
11
55.8857939999999971
21
-38.3457779999999957
0
LINE
8
BLACK
6
CONTINUOUS
10
56.0824679999999987
20
-38.1732999999999976
11
56.0824769999999972
21
-38.173293000000001
0
LINE
8
BLACK
6
CONTINUOUS
10
56.0824769999999972
20
-38.173293000000001
11
56.0824849999999984
21
-38.1732869999999949
0
LINE
8
BLACK
6
CONTINUOUS
10
56.0824849999999984
20
-38.1732869999999949
11
56.0824679999999987
21
-38.1732999999999976
0
LINE
8
BLACK
6
CONTINUOUS
10
56.0824849999999984
20
-38.1732869999999949
11
56.186475999999999
21
-38.0934929999999952
0
LINE
8
BLACK
6
CONTINUOUS
10
56.186475999999999
20
-38.0934929999999952
11
56.2999909999999986
21
-38.0279540000000011
0
LINE
8
BLACK
6
CONTINUOUS
10
56.2999909999999986
20
-38.0279540000000011
11
56.0824849999999984
21
-38.1732869999999949
0
LINE
8
BLACK
6
CONTINUOUS
10
56.5346299999999999
20
-37.9122419999999991
11
56.6557419999999965
21
-37.8620759999999947
0
LINE
8
BLACK
6
CONTINUOUS
10
56.6557419999999965
20
-37.8620759999999947
11
56.7823549999999955
21
-37.8281500000000008
0
LINE
8
BLACK
6
CONTINUOUS
10
56.7823549999999955
20
-37.8281500000000008
11
56.5346329999999995
21
-37.9122410000000016
0
LINE
8
BLACK
6
CONTINUOUS
10
56.5346329999999995
20
-37.9122410000000016
11
56.5346299999999999
21
-37.9122419999999991
0
LINE
8
BLACK
6
CONTINUOUS
10
56.7823689999999957
20
-37.8281459999999967
11
56.9089819999999946
21
-37.7942210000000003
0
LINE
8
BLACK
6
CONTINUOUS
10
56.9089819999999946
20
-37.7942210000000003
11
57.0389409999999941
21
-37.7771109999999979
0
LINE
8
BLACK
6
CONTINUOUS
10
57.0389409999999941
20
-37.7771109999999979
11
56.7823689999999957
21
-37.8281459999999967
0
LINE
8
BLACK
6
CONTINUOUS
10
57.0389409999999941
20
-37.7771109999999979
11
57.0389479999999978
21
-37.7771100000000004
0
LINE
8
BLACK
6
CONTINUOUS
10
57.0389479999999978
20
-37.7771100000000004
11
57.0389539999999968
21
-37.7771089999999958
0
LINE
8
BLACK
6
CONTINUOUS
10
57.0389539999999968
20
-37.7771089999999958
11
57.0389409999999941
21
-37.7771109999999979
0
LINE
8
BLACK
6
CONTINUOUS
10
57.0389539999999968
20
-37.7771089999999958
11
57.1689129999999963
21
-37.759999999999998
0
LINE
8
BLACK
6
CONTINUOUS
10
57.1689129999999963
20
-37.759999999999998
11
57.2999999999999972
21
-37.759999999999998
0
LINE
8
BLACK
6
CONTINUOUS
10
57.2999999999999972
20
-37.759999999999998
11
57.0389539999999968
21
-37.7771089999999958
0
LINE
8
BLACK
6
CONTINUOUS
10
72.4810870000000023
20
-37.759999999999998
11
72.3499999999999943
21
-37.759999999999998
0
LINE
8
BLACK
6
CONTINUOUS
10
72.3499999999999943
20
-37.759999999999998
11
72.6110449999999901
21
-37.7428899999999956
0
LINE
8
BLACK
6
CONTINUOUS
10
72.6110449999999901
20
-37.7428899999999956
11
72.4810870000000023
21
-37.759999999999998
0
LINE
8
BLACK
6
CONTINUOUS
10
72.6110520000000008
20
-37.7428899999999956
11
72.6110449999999901
21
-37.7428899999999956
0
LINE
8
BLACK
6
CONTINUOUS
10
72.6110449999999901
20
-37.7428899999999956
11
72.6110579999999999
21
-37.7428880000000007
0
LINE
8
BLACK
6
CONTINUOUS
10
72.6110579999999999
20
-37.7428880000000007
11
72.6110520000000008
21
-37.7428899999999956
0
LINE
8
BLACK
6
CONTINUOUS
10
72.7410179999999968
20
-37.7257789999999957
11
72.6110579999999999
21
-37.7428880000000007
0
LINE
8
BLACK
6
CONTINUOUS
10
72.6110579999999999
20
-37.7428880000000007
11
72.8676299999999912
21
-37.6918530000000018
0
LINE
8
BLACK
6
CONTINUOUS
10
72.8676299999999912
20
-37.6918530000000018
11
72.7410179999999968
21
-37.7257789999999957
0
LINE
8
BLACK
6
CONTINUOUS
10
72.8676379999999995
20
-37.6918519999999972
11
72.8676299999999912
21
-37.6918530000000018
0
LINE
8
BLACK
6
CONTINUOUS
10
72.8676299999999912
20
-37.6918530000000018
11
72.8676439999999985
21
-37.6918489999999977
0
LINE
8
BLACK
6
CONTINUOUS
10
72.8676439999999985
20
-37.6918489999999977
11
72.8676379999999995
21
-37.6918519999999972
0
LINE
8
BLACK
6
CONTINUOUS
10
72.9942580000000021
20
-37.6579240000000013
11
72.8676439999999985
21
-37.6918489999999977
0
LINE
8
BLACK
6
CONTINUOUS
10
72.8676439999999985
20
-37.6918489999999977
11
73.1153639999999996
21
-37.6077590000000015
0
LINE
8
BLACK
6
CONTINUOUS
10
73.1153639999999996
20
-37.6077590000000015
11
72.9942580000000021
21
-37.6579240000000013
0
LINE
8
BLACK
6
CONTINUOUS
10
73.115366999999992
20
-37.6077590000000015
11
73.1153639999999996
21
-37.6077590000000015
0
LINE
8
BLACK
6
CONTINUOUS
10
73.1153639999999996
20
-37.6077590000000015
11
73.1153690000000012
21
-37.6077569999999994
0
LINE
8
BLACK
6
CONTINUOUS
10
73.1153690000000012
20
-37.6077569999999994
11
73.115366999999992
21
-37.6077590000000015
0
LINE
8
BLACK
6
CONTINUOUS
10
73.2364749999999987
20
-37.5575940000000017
11
73.1153690000000012
21
-37.6077569999999994
0
LINE
8
BLACK
6
CONTINUOUS
10
73.1153690000000012
20
-37.6077569999999994
11
73.3499899999999911
21
-37.4920550000000006
0
LINE
8
BLACK
6
CONTINUOUS
10
73.3499899999999911
20
-37.4920550000000006
11
73.2364749999999987
21
-37.5575940000000017
0
LINE
8
BLACK
6
CONTINUOUS
10
73.3499999999999943
20
-37.4920509999999965
11
73.3499899999999911
21
-37.4920550000000006
0
LINE
8
BLACK
6
CONTINUOUS
10
73.3499899999999911
20
-37.4920550000000006
11
73.3500080000000025
21
-37.4920449999999974
0
LINE
8
BLACK
6
CONTINUOUS
10
73.3500080000000025
20
-37.4920449999999974
11
73.3499999999999943
21
-37.4920509999999965
0
LINE
8
BLACK
6
CONTINUOUS
10
73.4635239999999925
20
-37.4265070000000009
11
73.3500080000000025
21
-37.4920449999999974
0
LINE
8
BLACK
6
CONTINUOUS
10
73.3500080000000025
20
-37.4920449999999974
11
73.5675140000000027
21
-37.3467119999999966
0
LINE
8
BLACK
6
CONTINUOUS
10
73.5675140000000027
20
-37.3467119999999966
11
73.4635239999999925
21
-37.4265070000000009
0
LINE
8
BLACK
6
CONTINUOUS
10
73.5675229999999942
20
-37.346706999999995
11
73.5675140000000027
21
-37.3467119999999966
0
LINE
8
BLACK
6
CONTINUOUS
10
73.5675140000000027
20
-37.3467119999999966
11
73.5675310000000025
21
-37.346699000000001
0
LINE
8
BLACK
6
CONTINUOUS
10
73.5675310000000025
20
-37.346699000000001
11
73.5675229999999942
21
-37.346706999999995
0
LINE
8
BLACK
6
CONTINUOUS
10
73.6715209999999985
20
-37.2669059999999988
11
73.5675310000000025
21
-37.346699000000001
0
LINE
8
BLACK
6
CONTINUOUS
10
73.5675310000000025
20
-37.346699000000001
11
73.7642049999999898
21
-37.1742209999999957
0
LINE
8
BLACK
6
CONTINUOUS
10
73.7642049999999898
20
-37.1742209999999957
11
73.6715209999999985
21
-37.2669059999999988
0
LINE
8
BLACK
6
CONTINUOUS
10
73.7642139999999955
20
-37.1742139999999992
11
73.7642049999999898
21
-37.1742209999999957
0
LINE
8
BLACK
6
CONTINUOUS
10
73.7642049999999898
20
-37.1742209999999957
11
73.764220999999992
21
-37.1742050000000006
0
LINE
8
BLACK
6
CONTINUOUS
10
73.764220999999992
20
-37.1742050000000006
11
73.7642139999999955
21
-37.1742139999999992
0
LINE
8
BLACK
6
CONTINUOUS
10
73.8569059999999951
20
-37.0815209999999951
11
73.764220999999992
21
-37.1742050000000006
0
LINE
8
BLACK
6
CONTINUOUS
10
73.764220999999992
20
-37.1742050000000006
11
73.9366989999999902
21
-36.977530999999999
0
LINE
8
BLACK
6
CONTINUOUS
10
73.9366989999999902
20
-36.977530999999999
11
73.8569059999999951
21
-37.0815209999999951
0
LINE
8
BLACK
6
CONTINUOUS
10
73.9367069999999984
20
-36.9775229999999979
11
73.9366989999999902
21
-36.977530999999999
0
LINE
8
BLACK
6
CONTINUOUS
10
73.9366989999999902
20
-36.977530999999999
11
73.936712
21
-36.9775139999999993
0
LINE
8
BLACK
6
CONTINUOUS
10
73.936712
20
-36.9775139999999993
11
73.9367069999999984
21
-36.9775229999999979
0
LINE
8
BLACK
6
CONTINUOUS
10
74.0165069999999901
20
-36.8735239999999962
11
73.936712
21
-36.9775139999999993
0
LINE
8
BLACK
6
CONTINUOUS
10
73.936712
20
-36.9775139999999993
11
74.0820449999999937
21
-36.7600079999999991
0
LINE
8
BLACK
6
CONTINUOUS
10
74.0820449999999937
20
-36.7600079999999991
11
74.0165069999999901
21
-36.8735239999999962
0
LINE
8
BLACK
6
CONTINUOUS
10
74.0820509999999928
20
-36.759999999999998
11
74.0820449999999937
21
-36.7600079999999991
0
LINE
8
BLACK
6
CONTINUOUS
10
74.0820449999999937
20
-36.7600079999999991
11
74.0820549999999969
21
-36.7599899999999948
0
LINE
8
BLACK
6
CONTINUOUS
10
74.0820549999999969
20
-36.7599899999999948
11
74.0820509999999928
21
-36.759999999999998
0
LINE
8
BLACK
6
CONTINUOUS
10
74.1977509999999967
20
-36.5253820000000005
11
74.147593999999998
21
-36.6464749999999952
0
LINE
8
BLACK
6
CONTINUOUS
10
74.147593999999998
20
-36.6464749999999952
11
74.0820549999999969
21
-36.7599899999999948
0
LINE
8
BLACK
6
CONTINUOUS
10
74.0820549999999969
20
-36.7599899999999948
11
74.1977509999999967
21
-36.5253820000000005
0
LINE
8
BLACK
6
CONTINUOUS
10
74.3671089999999992
20
-34.1014539999999968
11
74.3842209999999966
21
-33.9714820000000017
0
LINE
8
BLACK
6
CONTINUOUS
10
74.3842209999999966
20
-33.9714820000000017
11
74.418145999999993
21
-33.8448689999999957
0
LINE
8
BLACK
6
CONTINUOUS
10
74.418145999999993
20
-33.8448689999999957
11
74.3671099999999967
21
-34.1014479999999978
0
LINE
8
BLACK
6
CONTINUOUS
10
74.3671099999999967
20
-34.1014479999999978
11
74.3671089999999992
21
-34.1014539999999968
0
LINE
8
BLACK
6
CONTINUOUS
10
100.3828910000000008
20
-34.101464
11
100.3999999999999915
21
-34.2314129999999963
0
LINE
8
BLACK
6
CONTINUOUS
10
100.3999999999999915
20
-34.2314129999999963
11
100.3999999999999915
21
-34.3624999999999972
0
LINE
8
BLACK
6
CONTINUOUS
10
100.3999999999999915
20
-34.3624999999999972
11
100.3828910000000008
21
-34.101464
0
LINE
8
BLACK
6
CONTINUOUS
10
100.3318519999999978
20
-33.8448619999999991
11
100.3318529999999953
21
-33.8448689999999957
0
LINE
8
BLACK
6
CONTINUOUS
10
100.3318529999999953
20
-33.8448689999999957
11
100.3318489999999912
21
-33.8448549999999955
0
LINE
8
BLACK
6
CONTINUOUS
10
100.3318489999999912
20
-33.8448549999999955
11
100.3318519999999978
21
-33.8448619999999991
0
LINE
8
BLACK
6
CONTINUOUS
10
74.5022400000000005
20
-33.5971350000000015
11
74.5524059999999906
21
-33.4760249999999999
0
LINE
8
BLACK
6
CONTINUOUS
10
74.5524059999999906
20
-33.4760249999999999
11
74.6179439999999943
21
-33.3625089999999958
0
LINE
8
BLACK
6
CONTINUOUS
10
74.6179439999999943
20
-33.3625089999999958
11
74.5022409999999979
21
-33.5971329999999995
0
LINE
8
BLACK
6
CONTINUOUS
10
74.5022409999999979
20
-33.5971329999999995
11
74.5022400000000005
21
-33.5971350000000015
0
LINE
8
BLACK
6
CONTINUOUS
10
100.2477619999999945
20
-33.5971429999999955
11
100.2979239999999947
21
-33.7182419999999965
0
LINE
8
BLACK
6
CONTINUOUS
10
100.2979239999999947
20
-33.7182419999999965
11
100.3318489999999912
21
-33.8448549999999955
0
LINE
8
BLACK
6
CONTINUOUS
10
100.3318489999999912
20
-33.8448549999999955
11
100.2477619999999945
21
-33.5971429999999955
0
LINE
8
BLACK
6
CONTINUOUS
10
100.1320509999999899
20
-33.3624999999999972
11
100.132054999999994
21
-33.3625089999999958
0
LINE
8
BLACK
6
CONTINUOUS
10
100.132054999999994
20
-33.3625089999999958
11
100.1320449999999909
21
-33.3624909999999986
0
LINE
8
BLACK
6
CONTINUOUS
10
100.1320449999999909
20
-33.3624909999999986
11
100.1320509999999899
21
-33.3624999999999972
0
LINE
8
BLACK
6
CONTINUOUS
10
74.6179539999999974
20
-33.3624909999999986
11
74.6834929999999986
21
-33.248975999999999
0
LINE
8
BLACK
6
CONTINUOUS
10
74.6834929999999986
20
-33.248975999999999
11
74.7632869999999912
21
-33.1449849999999984
0
LINE
8
BLACK
6
CONTINUOUS
10
74.7632869999999912
20
-33.1449849999999984
11
74.6179539999999974
21
-33.3624909999999986
0
LINE
8
BLACK
6
CONTINUOUS
10
100.0665070000000014
20
-33.248975999999999
11
100.1320449999999909
21
-33.3624909999999986
0
LINE
8
BLACK
6
CONTINUOUS
10
100.1320449999999909
20
-33.3624909999999986
11
99.9867119999999971
21
-33.1449849999999984
0
LINE
8
BLACK
6
CONTINUOUS
10
99.9867119999999971
20
-33.1449849999999984
11
100.0665070000000014
21
-33.248975999999999
0
LINE
8
BLACK
6
CONTINUOUS
10
74.7632869999999912
20
-33.1449849999999984
11
74.7632929999999902
21
-33.1449769999999972
0
LINE
8
BLACK
6
CONTINUOUS
10
74.7632929999999902
20
-33.1449769999999972
11
74.763300000000001
21
-33.1449679999999987
0
LINE
8
BLACK
6
CONTINUOUS
10
74.763300000000001
20
-33.1449679999999987
11
74.7632869999999912
21
-33.1449849999999984
0
LINE
8
BLACK
6
CONTINUOUS
10
99.9867069999999956
20
-33.1449769999999972
11
99.9867119999999971
21
-33.1449849999999984
0
LINE
8
BLACK
6
CONTINUOUS
10
99.9867119999999971
20
-33.1449849999999984
11
99.9866990000000015
21
-33.1449679999999987
0
LINE
8
BLACK
6
CONTINUOUS
10
99.9866990000000015
20
-33.1449679999999987
11
99.9867069999999956
21
-33.1449769999999972
0
LINE
8
BLACK
6
CONTINUOUS
10
74.763300000000001
20
-33.1449679999999987
11
74.8430939999999936
21
-33.0409790000000001
0
LINE
8
BLACK
6
CONTINUOUS
10
74.8430939999999936
20
-33.0409790000000001
11
74.9357779999999991
21
-32.9482939999999971
0
LINE
8
BLACK
6
CONTINUOUS
10
74.9357779999999991
20
-32.9482939999999971
11
74.763300000000001
21
-33.1449679999999987
0
LINE
8
BLACK
6
CONTINUOUS
10
99.9069059999999922
20
-33.0409790000000001
11
99.9866990000000015
21
-33.1449679999999987
0
LINE
8
BLACK
6
CONTINUOUS
10
99.9866990000000015
20
-33.1449679999999987
11
99.8142209999999892
21
-32.9482939999999971
0
LINE
8
BLACK
6
CONTINUOUS
10
99.8142209999999892
20
-32.9482939999999971
11
99.9069059999999922
21
-33.0409790000000001
0
LINE
8
BLACK
6
CONTINUOUS
10
99.8142139999999927
20
-32.948285999999996
11
99.8142209999999892
21
-32.9482939999999971
0
LINE
8
BLACK
6
CONTINUOUS
10
99.8142209999999892
20
-32.9482939999999971
11
99.8142050000000012
21
-32.948278000000002
0
LINE
8
BLACK
6
CONTINUOUS
10
99.8142050000000012
20
-32.948278000000002
11
99.8142139999999927
21
-32.948285999999996
0
LINE
8
BLACK
6
CONTINUOUS
10
74.9357940000000013
20
-32.948278000000002
11
75.0284789999999902
21
-32.8555939999999964
0
LINE
8
BLACK
6
CONTINUOUS
10
75.0284789999999902
20
-32.8555939999999964
11
75.1324680000000029
21
-32.7757999999999967
0
LINE
8
BLACK
6
CONTINUOUS
10
75.1324680000000029
20
-32.7757999999999967
11
74.9357940000000013
21
-32.948278000000002
0
LINE
8
BLACK
6
CONTINUOUS
10
99.7215209999999956
20
-32.8555939999999964
11
99.8142050000000012
21
-32.948278000000002
0
LINE
8
BLACK
6
CONTINUOUS
10
99.8142050000000012
20
-32.948278000000002
11
99.6175309999999996
21
-32.7757999999999967
0
LINE
8
BLACK
6
CONTINUOUS
10
99.6175309999999996
20
-32.7757999999999967
11
99.7215209999999956
21
-32.8555939999999964
0
LINE
8
BLACK
6
CONTINUOUS
10
75.1324680000000029
20
-32.7757999999999967
11
75.1324769999999944
21
-32.7757930000000002
0
LINE
8
BLACK
6
CONTINUOUS
10
75.1324769999999944
20
-32.7757930000000002
11
75.1324850000000026
21
-32.7757870000000011
0
LINE
8
BLACK
6
CONTINUOUS
10
75.1324850000000026
20
-32.7757870000000011
11
75.1324680000000029
21
-32.7757999999999967
0
LINE
8
BLACK
6
CONTINUOUS
10
99.6175229999999914
20
-32.7757930000000002
11
99.6175309999999996
21
-32.7757999999999967
0
LINE
8
BLACK
6
CONTINUOUS
10
99.6175309999999996
20
-32.7757999999999967
11
99.6175139999999999
21
-32.7757870000000011
0
LINE
8
BLACK
6
CONTINUOUS
10
99.6175139999999999
20
-32.7757870000000011
11
99.6175229999999914
21
-32.7757930000000002
0
LINE
8
BLACK
6
CONTINUOUS
10
75.1324850000000026
20
-32.7757870000000011
11
75.2364759999999961
21
-32.6959930000000014
0
LINE
8
BLACK
6
CONTINUOUS
10
75.2364759999999961
20
-32.6959930000000014
11
75.3499910000000028
21
-32.6304540000000003
0
LINE
8
BLACK
6
CONTINUOUS
10
75.3499910000000028
20
-32.6304540000000003
11
75.1324850000000026
21
-32.7757870000000011
0
LINE
8
BLACK
6
CONTINUOUS
10
99.5135239999999897
20
-32.6959930000000014
11
99.6175139999999999
21
-32.7757870000000011
0
LINE
8
BLACK
6
CONTINUOUS
10
99.6175139999999999
20
-32.7757870000000011
11
99.4000079999999997
21
-32.6304540000000003
0
LINE
8
BLACK
6
CONTINUOUS
10
99.4000079999999997
20
-32.6304540000000003
11
99.5135239999999897
21
-32.6959930000000014
0
LINE
8
BLACK
6
CONTINUOUS
10
99.3999999999999915
20
-32.6304489999999987
11
99.4000079999999997
21
-32.6304540000000003
0
LINE
8
BLACK
6
CONTINUOUS
10
99.4000079999999997
20
-32.6304540000000003
11
99.3999900000000025
21
-32.6304439999999971
0
LINE
8
BLACK
6
CONTINUOUS
10
99.3999900000000025
20
-32.6304439999999971
11
99.3999999999999915
21
-32.6304489999999987
0
LINE
8
BLACK
6
CONTINUOUS
10
75.58462999999999
20
-32.5147419999999983
11
75.7057420000000008
21
-32.464576000000001
0
LINE
8
BLACK
6
CONTINUOUS
10
75.7057420000000008
20
-32.464576000000001
11
75.8323549999999926
21
-32.43065
0
LINE
8
BLACK
6
CONTINUOUS
10
75.8323549999999926
20
-32.43065
11
75.5846329999999966
21
-32.5147410000000008
0
LINE
8
BLACK
6
CONTINUOUS
10
75.5846329999999966
20
-32.5147410000000008
11
75.58462999999999
21
-32.5147419999999983
0
LINE
8
BLACK
6
CONTINUOUS
10
99.1653699999999958
20
-32.5147419999999983
11
99.2864749999999958
21
-32.5649060000000006
0
LINE
8
BLACK
6
CONTINUOUS
10
99.2864749999999958
20
-32.5649060000000006
11
99.3999900000000025
21
-32.6304439999999971
0
LINE
8
BLACK
6
CONTINUOUS
10
99.3999900000000025
20
-32.6304439999999971
11
99.1653699999999958
21
-32.5147419999999983
0
LINE
8
BLACK
6
CONTINUOUS
10
98.9176379999999966
20
-32.4306479999999979
11
98.9176439999999957
21
-32.43065
0
LINE
8
BLACK
6
CONTINUOUS
10
98.9176439999999957
20
-32.43065
11
98.9176300000000026
21
-32.4306459999999959
0
LINE
8
BLACK
6
CONTINUOUS
10
98.9176300000000026
20
-32.4306459999999959
11
98.9176379999999966
21
-32.4306479999999979
0
LINE
8
BLACK
6
CONTINUOUS
10
75.8323689999999999
20
-32.4306459999999959
11
75.9589819999999918
21
-32.3967209999999994
0
LINE
8
BLACK
6
CONTINUOUS
10
75.9589819999999918
20
-32.3967209999999994
11
76.0889409999999913
21
-32.379610999999997
0
LINE
8
BLACK
6
CONTINUOUS
10
76.0889409999999913
20
-32.379610999999997
11
75.8323689999999999
21
-32.4306459999999959
0
LINE
8
BLACK
6
CONTINUOUS
10
98.791017999999994
20
-32.3967209999999994
11
98.9176300000000026
21
-32.4306459999999959
0
LINE
8
BLACK
6
CONTINUOUS
10
98.9176300000000026
20
-32.4306459999999959
11
98.661057999999997
21
-32.379610999999997
0
LINE
8
BLACK
6
CONTINUOUS
10
98.661057999999997
20
-32.379610999999997
11
98.791017999999994
21
-32.3967209999999994
0
LINE
8
BLACK
6
CONTINUOUS
10
76.0889409999999913
20
-32.379610999999997
11
76.088948000000002
21
-32.3796099999999996
0
LINE
8
BLACK
6
CONTINUOUS
10
76.088948000000002
20
-32.3796099999999996
11
76.0889540000000011
21
-32.3796090000000021
0
LINE
8
BLACK
6
CONTINUOUS
10
76.0889540000000011
20
-32.3796090000000021
11
76.0889409999999913
21
-32.379610999999997
0
LINE
8
BLACK
6
CONTINUOUS
10
98.661051999999998
20
-32.3796099999999996
11
98.661057999999997
21
-32.379610999999997
0
LINE
8
BLACK
6
CONTINUOUS
10
98.661057999999997
20
-32.379610999999997
11
98.6610450000000014
21
-32.3796090000000021
0
LINE
8
BLACK
6
CONTINUOUS
10
98.6610450000000014
20
-32.3796090000000021
11
98.661051999999998
21
-32.3796099999999996
0
LINE
8
BLACK
6
CONTINUOUS
10
76.0889540000000011
20
-32.3796090000000021
11
76.2189130000000006
21
-32.3624999999999972
0
LINE
8
BLACK
6
CONTINUOUS
10
76.2189130000000006
20
-32.3624999999999972
11
76.3499999999999943
21
-32.3624999999999972
0
LINE
8
BLACK
6
CONTINUOUS
10
76.3499999999999943
20
-32.3624999999999972
11
76.0889540000000011
21
-32.3796090000000021
0
LINE
8
BLACK
6
CONTINUOUS
10
98.6610450000000014
20
-32.3796090000000021
11
98.3999999999999915
21
-32.3624999999999972
0
LINE
8
BLACK
6
CONTINUOUS
10
98.3999999999999915
20
-32.3624999999999972
11
98.5310869999999994
21
-32.3624999999999972
0
LINE
8
BLACK
6
CONTINUOUS
10
98.5310869999999994
20
-32.3624999999999972
11
98.6610450000000014
21
-32.3796090000000021
0
LINE
8
BLACK
6
CONTINUOUS
10
143.8329439999999977
20
-179.6499900000000025
11
143.767405999999994
21
-179.5364749999999958
0
LINE
8
BLACK
6
CONTINUOUS
10
143.767405999999994
20
-179.5364749999999958
11
143.7172419999999988
21
-179.4153689999999983
0
LINE
8
BLACK
6
CONTINUOUS
10
143.7172419999999988
20
-179.4153689999999983
11
143.8329439999999977
21
-179.6499900000000025
0
LINE
8
BLACK
6
CONTINUOUS
10
143.7172400000000039
20
-179.4153639999999825
11
143.6670759999999802
21
-179.294257999999985
0
LINE
8
BLACK
6
CONTINUOUS
10
143.6670759999999802
20
-179.294257999999985
11
143.6331500000000005
21
-179.1676439999999957
0
LINE
8
BLACK
6
CONTINUOUS
10
143.6331500000000005
20
-179.1676439999999957
11
143.7172400000000039
21
-179.4153639999999825
0
LINE
8
BLACK
6
CONTINUOUS
10
143.6331459999999822
20
-179.1676319999999976
11
143.599221
21
-179.0410179999999798
0
LINE
8
BLACK
6
CONTINUOUS
10
143.599221
20
-179.0410179999999798
11
143.5821109999999976
21
-178.911057999999997
0
LINE
8
BLACK
6
CONTINUOUS
10
143.5821109999999976
20
-178.911057999999997
11
143.6331459999999822
21
-179.1676319999999976
0
LINE
8
BLACK
6
CONTINUOUS
10
143.5821100000000001
20
-178.9110519999999838
11
143.5821109999999976
21
-178.911057999999997
0
LINE
8
BLACK
6
CONTINUOUS
10
143.5821109999999976
20
-178.911057999999997
11
143.5821090000000027
21
-178.9110479999999939
0
LINE
8
BLACK
6
CONTINUOUS
10
143.5821090000000027
20
-178.9110479999999939
11
143.5821100000000001
21
-178.9110519999999838
0
LINE
8
BLACK
6
CONTINUOUS
10
169.6149999999999807
20
-178.6500000000000057
11
169.6149999999999807
21
-178.7810869999999852
0
LINE
8
BLACK
6
CONTINUOUS
10
169.6149999999999807
20
-178.7810869999999852
11
169.5978899999999783
21
-178.9110450000000014
0
LINE
8
BLACK
6
CONTINUOUS
10
169.5978899999999783
20
-178.9110450000000014
11
169.6149999999999807
21
-178.6500000000000057
0
LINE
8
BLACK
6
CONTINUOUS
10
169.5978869999999858
20
-178.9110649999999794
11
169.5807789999999784
21
-179.0410179999999798
0
LINE
8
BLACK
6
CONTINUOUS
10
169.5807789999999784
20
-179.0410179999999798
11
169.5468529999999987
21
-179.1676300000000026
0
LINE
8
BLACK
6
CONTINUOUS
10
169.5468529999999987
20
-179.1676300000000026
11
169.5978869999999858
21
-178.9110649999999794
0
LINE
8
BLACK
6
CONTINUOUS
10
169.546845999999988
20
-179.1676530000000014
11
169.5129239999999982
21
-179.294257999999985
0
LINE
8
BLACK
6
CONTINUOUS
10
169.5129239999999982
20
-179.294257999999985
11
169.4627590000000055
21
-179.4153639999999825
0
LINE
8
BLACK
6
CONTINUOUS
10
169.4627590000000055
20
-179.4153639999999825
11
169.546845999999988
21
-179.1676530000000014
0
LINE
8
BLACK
6
CONTINUOUS
10
143.4968529999999873
20
-163.0823689999999999
11
143.5307789999999954
21
-163.2089819999999918
0
LINE
8
BLACK
6
CONTINUOUS
10
143.5307789999999954
20
-163.2089819999999918
11
143.5478880000000004
21
-163.3389410000000055
0
LINE
8
BLACK
6
CONTINUOUS
10
143.5478880000000004
20
-163.3389410000000055
11
143.4968529999999873
21
-163.0823689999999999
0
LINE
8
BLACK
6
CONTINUOUS
10
143.2970550000000003
20
-162.600009
11
143.3625940000000014
21
-162.7135250000000042
0
LINE
8
BLACK
6
CONTINUOUS
10
143.3625940000000014
20
-162.7135250000000042
11
143.4127569999999992
21
-162.8346300000000042
0
LINE
8
BLACK
6
CONTINUOUS
10
143.4127569999999992
20
-162.8346300000000042
11
143.2970550000000003
21
-162.600009
0
LINE
8
BLACK
6
CONTINUOUS
10
142.0826439999999877
20
-161.6681499999999971
11
142.2092580000000055
21
-161.7020760000000053
0
LINE
8
BLACK
6
CONTINUOUS
10
142.2092580000000055
20
-161.7020760000000053
11
142.330364000000003
21
-161.7522400000000005
0
LINE
8
BLACK
6
CONTINUOUS
10
142.330364000000003
20
-161.7522400000000005
11
142.0826439999999877
21
-161.6681499999999971
0
LINE
8
BLACK
6
CONTINUOUS
10
124.7829440000000005
20
-160.5999899999999911
11
124.7174059999999969
21
-160.4864749999999844
0
LINE
8
BLACK
6
CONTINUOUS
10
124.7174059999999969
20
-160.4864749999999844
11
124.6672419999999875
21
-160.365368999999987
0
LINE
8
BLACK
6
CONTINUOUS
10
124.6672419999999875
20
-160.365368999999987
11
124.7829440000000005
21
-160.5999899999999911
0
LINE
8
BLACK
6
CONTINUOUS
10
124.6672399999999925
20
-160.3653639999999996
11
124.6170759999999973
21
-160.2442580000000021
0
LINE
8
BLACK
6
CONTINUOUS
10
124.6170759999999973
20
-160.2442580000000021
11
124.5831499999999892
21
-160.1176439999999843
0
LINE
8
BLACK
6
CONTINUOUS
10
124.5831499999999892
20
-160.1176439999999843
11
124.6672399999999925
21
-160.3653639999999996
0
LINE
8
BLACK
6
CONTINUOUS
10
124.5831459999999993
20
-160.1176319999999862
11
124.5492209999999886
21
-159.9910179999999968
0
LINE
8
BLACK
6
CONTINUOUS
10
124.5492209999999886
20
-159.9910179999999968
11
124.5321110000000004
21
-159.8610579999999857
0
LINE
8
BLACK
6
CONTINUOUS
10
124.5321110000000004
20
-159.8610579999999857
11
124.5831459999999993
21
-160.1176319999999862
0
LINE
8
BLACK
6
CONTINUOUS
10
124.5321099999999888
20
-159.8610520000000008
11
124.5321110000000004
21
-159.8610579999999857
0
LINE
8
BLACK
6
CONTINUOUS
10
124.5321110000000004
20
-159.8610579999999857
11
124.5321089999999913
21
-159.8610479999999825
0
LINE
8
BLACK
6
CONTINUOUS
10
124.5321089999999913
20
-159.8610479999999825
11
124.5321099999999888
21
-159.8610520000000008
0
LINE
8
BLACK
6
CONTINUOUS
10
124.4468529999999902
20
-144.0323689999999885
11
124.4807789999999983
21
-144.1589819999999804
0
LINE
8
BLACK
6
CONTINUOUS
10
124.4807789999999983
20
-144.1589819999999804
11
124.497887999999989
21
-144.2889409999999941
0
LINE
8
BLACK
6
CONTINUOUS
10
124.497887999999989
20
-144.2889409999999941
11
124.4468529999999902
21
-144.0323689999999885
0
LINE
8
BLACK
6
CONTINUOUS
10
124.2470549999999889
20
-143.5500089999999886
11
124.31259399999999
21
-143.6635249999999928
0
LINE
8
BLACK
6
CONTINUOUS
10
124.31259399999999
20
-143.6635249999999928
11
124.3627569999999878
21
-143.7846299999999928
0
LINE
8
BLACK
6
CONTINUOUS
10
124.3627569999999878
20
-143.7846299999999928
11
124.2470549999999889
21
-143.5500089999999886
0
LINE
8
BLACK
6
CONTINUOUS
10
123.0326439999999906
20
-142.6181499999999858
11
123.1592579999999941
21
-142.6520759999999939
0
LINE
8
BLACK
6
CONTINUOUS
10
123.1592579999999941
20
-142.6520759999999939
11
123.2803639999999916
21
-142.7022399999999891
0
LINE
8
BLACK
6
CONTINUOUS
10
123.2803639999999916
20
-142.7022399999999891
11
123.0326439999999906
21
-142.6181499999999858
0
LINE
8
BLACK
6
CONTINUOUS
10
105.7329439999999892
20
-141.5499899999999798
11
105.6674059999999997
21
-141.4364750000000015
0
LINE
8
BLACK
6
CONTINUOUS
10
105.6674059999999997
20
-141.4364750000000015
11
105.6172419999999903
21
-141.315369000000004
0
LINE
8
BLACK
6
CONTINUOUS
10
105.6172419999999903
20
-141.315369000000004
11
105.7329439999999892
21
-141.5499899999999798
0
LINE
8
BLACK
6
CONTINUOUS
10
105.6172399999999953
20
-141.3153639999999882
11
105.5670760000000001
21
-141.1942579999999907
0
LINE
8
BLACK
6
CONTINUOUS
10
105.5670760000000001
20
-141.1942579999999907
11
105.533149999999992
21
-141.0676440000000014
0
LINE
8
BLACK
6
CONTINUOUS
10
105.533149999999992
20
-141.0676440000000014
11
105.6172399999999953
21
-141.3153639999999882
0
LINE
8
BLACK
6
CONTINUOUS
10
105.5331460000000021
20
-141.0676320000000032
11
105.4992209999999915
21
-140.9410179999999855
0
LINE
8
BLACK
6
CONTINUOUS
10
105.4992209999999915
20
-140.9410179999999855
11
105.4821109999999891
21
-140.8110580000000027
0
LINE
8
BLACK
6
CONTINUOUS
10
105.4821109999999891
20
-140.8110580000000027
11
105.5331460000000021
21
-141.0676320000000032
0
LINE
8
BLACK
6
CONTINUOUS
10
105.4821099999999916
20
-140.8110519999999894
11
105.4821109999999891
21
-140.8110580000000027
0
LINE
8
BLACK
6
CONTINUOUS
10
105.4821109999999891
20
-140.8110580000000027
11
105.4821089999999941
21
-140.8110479999999995
0
LINE
8
BLACK
6
CONTINUOUS
10
105.4821089999999941
20
-140.8110479999999995
11
105.4821099999999916
21
-140.8110519999999894
0
LINE
8
BLACK
6
CONTINUOUS
10
17.4679439999999992
20
-133.9299900000000036
11
17.4024059999999992
21
-133.816474999999997
0
LINE
8
BLACK
6
CONTINUOUS
10
17.4024059999999992
20
-133.816474999999997
11
17.3522420000000004
21
-133.6953689999999995
0
LINE
8
BLACK
6
CONTINUOUS
10
17.3522420000000004
20
-133.6953689999999995
11
17.4679439999999992
21
-133.9299900000000036
0
LINE
8
BLACK
6
CONTINUOUS
10
17.3522399999999983
20
-133.6953639999999837
11
17.3020759999999996
21
-133.5742579999999862
0
LINE
8
BLACK
6
CONTINUOUS
10
17.3020759999999996
20
-133.5742579999999862
11
17.2681499999999986
21
-133.4476439999999968
0
LINE
8
BLACK
6
CONTINUOUS
10
17.2681499999999986
20
-133.4476439999999968
11
17.3522399999999983
21
-133.6953639999999837
0
LINE
8
BLACK
6
CONTINUOUS
10
17.268145999999998
20
-133.4476319999999987
11
17.234220999999998
21
-133.3210179999999809
0
LINE
8
BLACK
6
CONTINUOUS
10
17.234220999999998
20
-133.3210179999999809
11
17.2171109999999992
21
-133.1910579999999982
0
LINE
8
BLACK
6
CONTINUOUS
10
17.2171109999999992
20
-133.1910579999999982
11
17.268145999999998
21
-133.4476319999999987
0
LINE
8
BLACK
6
CONTINUOUS
10
17.2171099999999981
20
-133.1910519999999849
11
17.2171109999999992
21
-133.1910579999999982
0
LINE
8
BLACK
6
CONTINUOUS
10
17.2171109999999992
20
-133.1910579999999982
11
17.2171090000000007
21
-133.191047999999995
0
LINE
8
BLACK
6
CONTINUOUS
10
17.2171090000000007
20
-133.191047999999995
11
17.2171099999999981
21
-133.1910519999999849
0
LINE
8
BLACK
6
CONTINUOUS
10
62.2999999999999972
20
-132.9300000000000068
11
62.2999999999999972
21
-133.0610869999999863
0
LINE
8
BLACK
6
CONTINUOUS
10
62.2999999999999972
20
-133.0610869999999863
11
62.2828899999999948
21
-133.1910450000000026
0
LINE
8
BLACK
6
CONTINUOUS
10
62.2828899999999948
20
-133.1910450000000026
11
62.2999999999999972
21
-132.9300000000000068
0
LINE
8
BLACK
6
CONTINUOUS
10
62.2828869999999952
20
-133.1910649999999805
11
62.2657789999999949
21
-133.3210179999999809
0
LINE
8
BLACK
6
CONTINUOUS
10
62.2657789999999949
20
-133.3210179999999809
11
62.2318529999999939
21
-133.4476300000000037
0
LINE
8
BLACK
6
CONTINUOUS
10
62.2318529999999939
20
-133.4476300000000037
11
62.2828869999999952
21
-133.1910649999999805
0
LINE
8
BLACK
6
CONTINUOUS
10
62.2318459999999973
20
-133.4476530000000025
11
62.1979240000000004
21
-133.5742579999999862
0
LINE
8
BLACK
6
CONTINUOUS
10
62.1979240000000004
20
-133.5742579999999862
11
62.1477590000000006
21
-133.6953639999999837
0
LINE
8
BLACK
6
CONTINUOUS
10
62.1477590000000006
20
-133.6953639999999837
11
62.2318459999999973
21
-133.4476530000000025
0
LINE
8
BLACK
6
CONTINUOUS
10
105.396852999999993
20
-124.9823689999999914
11
105.4307790000000011
21
-125.1089819999999975
0
LINE
8
BLACK
6
CONTINUOUS
10
105.4307790000000011
20
-125.1089819999999975
11
105.4478879999999918
21
-125.238940999999997
0
LINE
8
BLACK
6
CONTINUOUS
10
105.4478879999999918
20
-125.238940999999997
11
105.396852999999993
21
-124.9823689999999914
0
LINE
8
BLACK
6
CONTINUOUS
10
105.1970549999999918
20
-124.5000089999999915
11
105.2625939999999929
21
-124.6135249999999957
0
LINE
8
BLACK
6
CONTINUOUS
10
105.2625939999999929
20
-124.6135249999999957
11
105.3127569999999906
21
-124.7346299999999957
0
LINE
8
BLACK
6
CONTINUOUS
10
105.3127569999999906
20
-124.7346299999999957
11
105.1970549999999918
21
-124.5000089999999915
0
LINE
8
BLACK
6
CONTINUOUS
10
103.9826439999999934
20
-123.5681499999999886
11
104.109257999999997
21
-123.6020759999999967
0
LINE
8
BLACK
6
CONTINUOUS
10
104.109257999999997
20
-123.6020759999999967
11
104.2303639999999945
21
-123.6522399999999919
0
LINE
8
BLACK
6
CONTINUOUS
10
104.2303639999999945
20
-123.6522399999999919
11
103.9826439999999934
21
-123.5681499999999886
0
LINE
8
BLACK
6
CONTINUOUS
10
62.2999999999999972
20
-122.9599999999999937
11
62.2999999999999972
21
-122.828913
0
LINE
8
BLACK
6
CONTINUOUS
10
62.2999999999999972
20
-122.828913
11
62.317108999999995
21
-122.6989540000000005
0
LINE
8
BLACK
6
CONTINUOUS
10
62.317108999999995
20
-122.6989540000000005
11
62.2999999999999972
21
-122.9599999999999937
0
LINE
8
BLACK
6
CONTINUOUS
10
93.6679439999999914
20
-122.4999899999999968
11
93.602406000000002
21
-122.3864749999999901
0
LINE
8
BLACK
6
CONTINUOUS
10
93.602406000000002
20
-122.3864749999999901
11
93.5522419999999926
21
-122.2653689999999926
0
LINE
8
BLACK
6
CONTINUOUS
10
93.5522419999999926
20
-122.2653689999999926
11
93.6679439999999914
21
-122.4999899999999968
0
LINE
8
BLACK
6
CONTINUOUS
10
93.5522399999999976
20
-122.2653639999999911
11
93.5020760000000024
21
-122.1442579999999936
0
LINE
8
BLACK
6
CONTINUOUS
10
93.5020760000000024
20
-122.1442579999999936
11
93.4681499999999943
21
-122.01764399999999
0
LINE
8
BLACK
6
CONTINUOUS
10
93.4681499999999943
20
-122.01764399999999
11
93.5522399999999976
21
-122.2653639999999911
0
LINE
8
BLACK
6
CONTINUOUS
10
93.4681459999999902
20
-122.0176319999999919
11
93.4342209999999938
21
-121.8910179999999883
0
LINE
8
BLACK
6
CONTINUOUS
10
93.4342209999999938
20
-121.8910179999999883
11
93.4171109999999913
21
-121.7610579999999914
0
LINE
8
BLACK
6
CONTINUOUS
10
93.4171109999999913
20
-121.7610579999999914
11
93.4681459999999902
21
-122.0176319999999919
0
LINE
8
BLACK
6
CONTINUOUS
10
93.4171099999999939
20
-121.7610519999999923
11
93.4171109999999913
21
-121.7610579999999914
0
LINE
8
BLACK
6
CONTINUOUS
10
93.4171109999999913
20
-121.7610579999999914
11
93.4171089999999964
21
-121.7610479999999882
0
LINE
8
BLACK
6
CONTINUOUS
10
93.4171089999999964
20
-121.7610479999999882
11
93.4171099999999939
21
-121.7610519999999923
0
LINE
8
BLACK
6
CONTINUOUS
10
62.36815
20
-122.4423549999999921
11
62.4020759999999939
21
-122.3157420000000002
0
LINE
8
BLACK
6
CONTINUOUS
10
62.4020759999999939
20
-122.3157420000000002
11
62.4522399999999962
21
-122.194634999999991
0
LINE
8
BLACK
6
CONTINUOUS
10
62.4522399999999962
20
-122.194634999999991
11
62.36815
21
-122.4423549999999921
0
LINE
8
BLACK
6
CONTINUOUS
10
63.3000089999999958
20
-121.2279439999999937
11
63.4135249999999999
21
-121.1624059999999901
0
LINE
8
BLACK
6
CONTINUOUS
10
63.4135249999999999
20
-121.1624059999999901
11
63.5346299999999999
21
-121.1122419999999948
0
LINE
8
BLACK
6
CONTINUOUS
10
63.5346299999999999
20
-121.1122419999999948
11
63.3000089999999958
21
-121.2279439999999937
0
LINE
8
BLACK
6
CONTINUOUS
10
81.3499999999999943
20
-118.9599999999999937
11
81.3499999999999943
21
-119.0910870000000017
0
LINE
8
BLACK
6
CONTINUOUS
10
81.3499999999999943
20
-119.0910870000000017
11
81.3328899999999919
21
-119.2210449999999895
0
LINE
8
BLACK
6
CONTINUOUS
10
81.3328899999999919
20
-119.2210449999999895
11
81.3499999999999943
21
-118.9599999999999937
0
LINE
8
BLACK
6
CONTINUOUS
10
81.3328869999999995
20
-119.2210649999999958
11
81.315778999999992
21
-119.3510179999999963
0
LINE
8
BLACK
6
CONTINUOUS
10
81.315778999999992
20
-119.3510179999999963
11
81.2818529999999981
21
-119.4776299999999907
0
LINE
8
BLACK
6
CONTINUOUS
10
81.2818529999999981
20
-119.4776299999999907
11
81.3328869999999995
21
-119.2210649999999958
0
LINE
8
BLACK
6
CONTINUOUS
10
81.2818460000000016
20
-119.4776529999999894
11
81.2479239999999976
21
-119.6042580000000015
0
LINE
8
BLACK
6
CONTINUOUS
10
81.2479239999999976
20
-119.6042580000000015
11
81.1977589999999907
21
-119.725363999999999
0
LINE
8
BLACK
6
CONTINUOUS
10
81.1977589999999907
20
-119.725363999999999
11
81.2818460000000016
21
-119.4776529999999894
0
LINE
8
BLACK
6
CONTINUOUS
10
81.3499999999999943
20
-117.5625
11
81.3499999999999943
21
-117.4314129999999921
0
LINE
8
BLACK
6
CONTINUOUS
10
81.3499999999999943
20
-117.4314129999999921
11
81.3671089999999992
21
-117.3014539999999926
0
LINE
8
BLACK
6
CONTINUOUS
10
81.3671089999999992
20
-117.3014539999999926
11
81.3499999999999943
21
-117.5625
0
LINE
8
BLACK
6
CONTINUOUS
10
93.3318529999999953
20
-117.0448689999999914
11
93.3657789999999892
21
-117.1714819999999975
0
LINE
8
BLACK
6
CONTINUOUS
10
93.3657789999999892
20
-117.1714819999999975
11
93.3828879999999941
21
-117.301440999999997
0
LINE
8
BLACK
6
CONTINUOUS
10
93.3828879999999941
20
-117.301440999999997
11
93.3318529999999953
21
-117.0448689999999914
0
LINE
8
BLACK
6
CONTINUOUS
10
81.4181499999999971
20
-117.0448549999999983
11
81.452075999999991
21
-116.9182419999999922
0
LINE
8
BLACK
6
CONTINUOUS
10
81.452075999999991
20
-116.9182419999999922
11
81.5022400000000005
21
-116.7971349999999973
0
LINE
8
BLACK
6
CONTINUOUS
10
81.5022400000000005
20
-116.7971349999999973
11
81.4181499999999971
21
-117.0448549999999983
0
LINE
8
BLACK
6
CONTINUOUS
10
93.132054999999994
20
-116.5625089999999915
11
93.1975939999999952
21
-116.6760249999999957
0
LINE
8
BLACK
6
CONTINUOUS
10
93.1975939999999952
20
-116.6760249999999957
11
93.2477569999999929
21
-116.7971299999999957
0
LINE
8
BLACK
6
CONTINUOUS
10
93.2477569999999929
20
-116.7971299999999957
11
93.132054999999994
21
-116.5625089999999915
0
LINE
8
BLACK
6
CONTINUOUS
10
82.350009
20
-115.830444
11
82.46352499999999
21
-115.7649059999999963
0
LINE
8
BLACK
6
CONTINUOUS
10
82.46352499999999
20
-115.7649059999999963
11
82.58462999999999
21
-115.7147420000000011
0
LINE
8
BLACK
6
CONTINUOUS
10
82.58462999999999
20
-115.7147420000000011
11
82.350009
21
-115.830444
0
LINE
8
BLACK
6
CONTINUOUS
10
91.9176439999999957
20
-115.6306499999999886
11
92.0442579999999992
21
-115.6645759999999967
0
LINE
8
BLACK
6
CONTINUOUS
10
92.0442579999999992
20
-115.6645759999999967
11
92.1653639999999967
21
-115.7147399999999919
0
LINE
8
BLACK
6
CONTINUOUS
10
92.1653639999999967
20
-115.7147399999999919
11
91.9176439999999957
21
-115.6306499999999886
0
LINE
8
BLACK
6
CONTINUOUS
10
17.1999999999999993
20
-72.7800000000000011
11
17.1999999999999993
21
-72.6489129999999932
0
LINE
8
BLACK
6
CONTINUOUS
10
17.1999999999999993
20
-72.6489129999999932
11
17.2171090000000007
21
-72.5189539999999937
0
LINE
8
BLACK
6
CONTINUOUS
10
17.2171090000000007
20
-72.5189539999999937
11
17.1999999999999993
21
-72.7800000000000011
0
LINE
8
BLACK
6
CONTINUOUS
10
17.2681499999999986
20
-72.2623549999999994
11
17.3020759999999996
21
-72.1357419999999934
0
LINE
8
BLACK
6
CONTINUOUS
10
17.3020759999999996
20
-72.1357419999999934
11
17.3522399999999983
21
-72.0146349999999984
0
LINE
8
BLACK
6
CONTINUOUS
10
17.3522399999999983
20
-72.0146349999999984
11
17.2681499999999986
21
-72.2623549999999994
0
LINE
8
BLACK
6
CONTINUOUS
10
169.5468529999999987
20
-70.9823689999999914
11
169.5807789999999784
21
-71.1089819999999975
0
LINE
8
BLACK
6
CONTINUOUS
10
169.5807789999999784
20
-71.1089819999999975
11
169.5978879999999833
21
-71.238940999999997
0
LINE
8
BLACK
6
CONTINUOUS
10
169.5978879999999833
20
-71.238940999999997
11
169.5468529999999987
21
-70.9823689999999914
0
LINE
8
BLACK
6
CONTINUOUS
10
18.2000089999999979
20
-71.0479440000000011
11
18.3135249999999985
21
-70.9824059999999974
0
LINE
8
BLACK
6
CONTINUOUS
10
18.3135249999999985
20
-70.9824059999999974
11
18.4346299999999985
21
-70.9322420000000022
0
LINE
8
BLACK
6
CONTINUOUS
10
18.4346299999999985
20
-70.9322420000000022
11
18.2000089999999979
21
-71.0479440000000011
0
LINE
8
BLACK
6
CONTINUOUS
10
169.3470549999999832
20
-70.5000089999999915
11
169.4125939999999844
21
-70.6135249999999957
0
LINE
8
BLACK
6
CONTINUOUS
10
169.4125939999999844
20
-70.6135249999999957
11
169.4627569999999821
21
-70.7346299999999957
0
LINE
8
BLACK
6
CONTINUOUS
10
169.4627569999999821
20
-70.7346299999999957
11
169.3470549999999832
21
-70.5000089999999915
0
LINE
8
BLACK
6
CONTINUOUS
10
36.25
20
-68.7800000000000011
11
36.25
21
-68.9110869999999949
0
LINE
8
BLACK
6
CONTINUOUS
10
36.25
20
-68.9110869999999949
11
36.2328899999999976
21
-69.0410449999999969
0
LINE
8
BLACK
6
CONTINUOUS
10
36.2328899999999976
20
-69.0410449999999969
11
36.25
21
-68.7800000000000011
0
LINE
8
BLACK
6
CONTINUOUS
10
36.2328869999999981
20
-69.0410650000000032
11
36.2157789999999977
21
-69.1710180000000037
0
LINE
8
BLACK
6
CONTINUOUS
10
36.2157789999999977
20
-69.1710180000000037
11
36.1818529999999967
21
-69.2976299999999981
0
LINE
8
BLACK
6
CONTINUOUS
10
36.1818529999999967
20
-69.2976299999999981
11
36.2328869999999981
21
-69.0410650000000032
0
LINE
8
BLACK
6
CONTINUOUS
10
36.1818460000000002
20
-69.2976529999999968
11
36.1479239999999962
21
-69.4242579999999947
0
LINE
8
BLACK
6
CONTINUOUS
10
36.1479239999999962
20
-69.4242579999999947
11
36.0977589999999964
21
-69.5453639999999922
0
LINE
8
BLACK
6
CONTINUOUS
10
36.0977589999999964
20
-69.5453639999999922
11
36.1818460000000002
21
-69.2976529999999968
0
LINE
8
BLACK
6
CONTINUOUS
10
168.1326439999999991
20
-69.5681500000000028
11
168.2592579999999884
21
-69.6020759999999967
0
LINE
8
BLACK
6
CONTINUOUS
10
168.2592579999999884
20
-69.6020759999999967
11
168.3803639999999859
21
-69.6522399999999919
0
LINE
8
BLACK
6
CONTINUOUS
10
168.3803639999999859
20
-69.6522399999999919
11
168.1326439999999991
21
-69.5681500000000028
0
LINE
8
BLACK
6
CONTINUOUS
10
145.267944
20
-68.4999899999999968
11
145.2024059999999963
21
-68.3864749999999901
0
LINE
8
BLACK
6
CONTINUOUS
10
145.2024059999999963
20
-68.3864749999999901
11
145.1522420000000011
21
-68.2653689999999926
0
LINE
8
BLACK
6
CONTINUOUS
10
145.1522420000000011
20
-68.2653689999999926
11
145.267944
21
-68.4999899999999968
0
LINE
8
BLACK
6
CONTINUOUS
10
145.1522400000000061
20
-68.2653639999999911
11
145.1020759999999825
21
-68.1442579999999936
0
LINE
8
BLACK
6
CONTINUOUS
10
145.1020759999999825
20
-68.1442579999999936
11
145.0681500000000028
21
-68.01764399999999
0
LINE
8
BLACK
6
CONTINUOUS
10
145.0681500000000028
20
-68.01764399999999
11
145.1522400000000061
21
-68.2653639999999911
0
LINE
8
BLACK
6
CONTINUOUS
10
145.0681459999999845
20
-68.0176319999999919
11
145.0342210000000023
21
-67.8910180000000025
0
LINE
8
BLACK
6
CONTINUOUS
10
145.0342210000000023
20
-67.8910180000000025
11
145.0171109999999999
21
-67.7610579999999914
0
LINE
8
BLACK
6
CONTINUOUS
10
145.0171109999999999
20
-67.7610579999999914
11
145.0681459999999845
21
-68.0176319999999919
0
LINE
8
BLACK
6
CONTINUOUS
10
145.0171100000000024
20
-67.7610519999999923
11
145.0171109999999999
21
-67.7610579999999914
0
LINE
8
BLACK
6
CONTINUOUS
10
145.0171109999999999
20
-67.7610579999999914
11
145.0171090000000049
21
-67.7610480000000024
0
LINE
8
BLACK
6
CONTINUOUS
10
145.0171090000000049
20
-67.7610480000000024
11
145.0171100000000024
21
-67.7610519999999923
0
LINE
8
BLACK
6
CONTINUOUS
10
36.25
20
-53.7299999999999969
11
36.25
21
-53.598912999999996
0
LINE
8
BLACK
6
CONTINUOUS
10
36.25
20
-53.598912999999996
11
36.2671089999999978
21
-53.4689539999999965
0
LINE
8
BLACK
6
CONTINUOUS
10
36.2671089999999978
20
-53.4689539999999965
11
36.25
21
-53.7299999999999969
0
LINE
8
BLACK
6
CONTINUOUS
10
36.3181499999999957
20
-53.2123549999999952
11
36.3520759999999967
21
-53.0857419999999962
0
LINE
8
BLACK
6
CONTINUOUS
10
36.3520759999999967
20
-53.0857419999999962
11
36.402239999999999
21
-52.9646349999999941
0
LINE
8
BLACK
6
CONTINUOUS
10
36.402239999999999
20
-52.9646349999999941
11
36.3181499999999957
21
-53.2123549999999952
0
LINE
8
BLACK
6
CONTINUOUS
10
37.2500089999999986
20
-51.9979439999999968
11
37.3635249999999957
21
-51.9324060000000003
0
LINE
8
BLACK
6
CONTINUOUS
10
37.3635249999999957
20
-51.9324060000000003
11
37.4846299999999957
21
-51.882241999999998
0
LINE
8
BLACK
6
CONTINUOUS
10
37.4846299999999957
20
-51.882241999999998
11
37.2500089999999986
21
-51.9979439999999968
0
LINE
8
BLACK
6
CONTINUOUS
10
55.2999999999999972
20
-49.7299999999999969
11
55.2999999999999972
21
-49.8610869999999977
0
LINE
8
BLACK
6
CONTINUOUS
10
55.2999999999999972
20
-49.8610869999999977
11
55.2828899999999948
21
-49.9910449999999997
0
LINE
8
BLACK
6
CONTINUOUS
10
55.2828899999999948
20
-49.9910449999999997
11
55.2999999999999972
21
-49.7299999999999969
0
LINE
8
BLACK
6
CONTINUOUS
10
55.2828869999999952
20
-49.991064999999999
11
55.2657789999999949
21
-50.1210179999999994
0
LINE
8
BLACK
6
CONTINUOUS
10
55.2657789999999949
20
-50.1210179999999994
11
55.231853000000001
21
-50.2476300000000009
0
LINE
8
BLACK
6
CONTINUOUS
10
55.231853000000001
20
-50.2476300000000009
11
55.2828869999999952
21
-49.991064999999999
0
LINE
8
BLACK
6
CONTINUOUS
10
55.2318459999999973
20
-50.2476529999999997
11
55.1979240000000004
21
-50.3742579999999975
0
LINE
8
BLACK
6
CONTINUOUS
10
55.1979240000000004
20
-50.3742579999999975
11
55.1477590000000006
21
-50.495363999999995
0
LINE
8
BLACK
6
CONTINUOUS
10
55.1477590000000006
20
-50.495363999999995
11
55.2318459999999973
21
-50.2476529999999997
0
LINE
8
BLACK
6
CONTINUOUS
10
144.9318529999999896
20
-41.7823689999999957
11
144.9657789999999977
21
-41.9089819999999946
0
LINE
8
BLACK
6
CONTINUOUS
10
144.9657789999999977
20
-41.9089819999999946
11
144.9828880000000026
21
-42.0389410000000012
0
LINE
8
BLACK
6
CONTINUOUS
10
144.9828880000000026
20
-42.0389410000000012
11
144.9318529999999896
21
-41.7823689999999957
0
LINE
8
BLACK
6
CONTINUOUS
10
144.7320550000000026
20
-41.3000089999999958
11
144.7975940000000037
21
-41.4135249999999999
0
LINE
8
BLACK
6
CONTINUOUS
10
144.7975940000000037
20
-41.4135249999999999
11
144.8477570000000014
21
-41.5346299999999999
0
LINE
8
BLACK
6
CONTINUOUS
10
144.8477570000000014
20
-41.5346299999999999
11
144.7320550000000026
21
-41.3000089999999958
0
LINE
8
BLACK
6
CONTINUOUS
10
143.51764399999999
20
-40.36815
11
143.6442579999999793
21
-40.402076000000001
0
LINE
8
BLACK
6
CONTINUOUS
10
143.6442579999999793
20
-40.402076000000001
11
143.7653640000000053
21
-40.4522399999999962
0
LINE
8
BLACK
6
CONTINUOUS
10
143.7653640000000053
20
-40.4522399999999962
11
143.51764399999999
21
-40.36815
0
LINE
8
BLACK
6
CONTINUOUS
10
55.2999999999999972
20
-39.759999999999998
11
55.2999999999999972
21
-39.6289129999999972
0
LINE
8
BLACK
6
CONTINUOUS
10
55.2999999999999972
20
-39.6289129999999972
11
55.317108999999995
21
-39.4989539999999977
0
LINE
8
BLACK
6
CONTINUOUS
10
55.317108999999995
20
-39.4989539999999977
11
55.2999999999999972
21
-39.759999999999998
0
LINE
8
BLACK
6
CONTINUOUS
10
100.6679439999999914
20
-39.2999900000000011
11
100.602406000000002
21
-39.1864750000000015
0
LINE
8
BLACK
6
CONTINUOUS
10
100.602406000000002
20
-39.1864750000000015
11
100.5522419999999926
21
-39.0653689999999969
0
LINE
8
BLACK
6
CONTINUOUS
10
100.5522419999999926
20
-39.0653689999999969
11
100.6679439999999914
21
-39.2999900000000011
0
LINE
8
BLACK
6
CONTINUOUS
10
100.5522399999999976
20
-39.0653639999999953
11
100.5020760000000024
21
-38.9442579999999978
0
LINE
8
BLACK
6
CONTINUOUS
10
100.5020760000000024
20
-38.9442579999999978
11
100.4681499999999943
21
-38.8176440000000014
0
LINE
8
BLACK
6
CONTINUOUS
10
100.4681499999999943
20
-38.8176440000000014
11
100.5522399999999976
21
-39.0653639999999953
0
LINE
8
BLACK
6
CONTINUOUS
10
100.4681459999999902
20
-38.8176319999999961
11
100.4342209999999938
21
-38.6910179999999997
0
LINE
8
BLACK
6
CONTINUOUS
10
100.4342209999999938
20
-38.6910179999999997
11
100.4171109999999913
21
-38.5610579999999956
0
LINE
8
BLACK
6
CONTINUOUS
10
100.4171109999999913
20
-38.5610579999999956
11
100.4681459999999902
21
-38.8176319999999961
0
LINE
8
BLACK
6
CONTINUOUS
10
100.4171099999999939
20
-38.5610519999999966
11
100.4171109999999913
21
-38.5610579999999956
0
LINE
8
BLACK
6
CONTINUOUS
10
100.4171109999999913
20
-38.5610579999999956
11
100.4171089999999964
21
-38.5610479999999995
0
LINE
8
BLACK
6
CONTINUOUS
10
100.4171089999999964
20
-38.5610479999999995
11
100.4171099999999939
21
-38.5610519999999966
0
LINE
8
BLACK
6
CONTINUOUS
10
55.36815
20
-39.2423549999999963
11
55.402076000000001
21
-39.1157419999999973
0
LINE
8
BLACK
6
CONTINUOUS
10
55.402076000000001
20
-39.1157419999999973
11
55.4522399999999962
21
-38.9946349999999953
0
LINE
8
BLACK
6
CONTINUOUS
10
55.4522399999999962
20
-38.9946349999999953
11
55.36815
21
-39.2423549999999963
0
LINE
8
BLACK
6
CONTINUOUS
10
56.3000089999999958
20
-38.027943999999998
11
56.4135249999999999
21
-37.9624060000000014
0
LINE
8
BLACK
6
CONTINUOUS
10
56.4135249999999999
20
-37.9624060000000014
11
56.5346299999999999
21
-37.9122419999999991
0
LINE
8
BLACK
6
CONTINUOUS
10
56.5346299999999999
20
-37.9122419999999991
11
56.3000089999999958
21
-38.027943999999998
0
LINE
8
BLACK
6
CONTINUOUS
10
74.3499999999999943
20
-35.759999999999998
11
74.3499999999999943
21
-35.8910869999999989
0
LINE
8
BLACK
6
CONTINUOUS
10
74.3499999999999943
20
-35.8910869999999989
11
74.3328899999999919
21
-36.0210450000000009
0
LINE
8
BLACK
6
CONTINUOUS
10
74.3328899999999919
20
-36.0210450000000009
11
74.3499999999999943
21
-35.759999999999998
0
LINE
8
BLACK
6
CONTINUOUS
10
74.3328869999999995
20
-36.0210650000000001
11
74.315778999999992
21
-36.1510180000000005
0
LINE
8
BLACK
6
CONTINUOUS
10
74.315778999999992
20
-36.1510180000000005
11
74.2818529999999981
21
-36.2776299999999949
0
LINE
8
BLACK
6
CONTINUOUS
10
74.2818529999999981
20
-36.2776299999999949
11
74.3328869999999995
21
-36.0210650000000001
0
LINE
8
BLACK
6
CONTINUOUS
10
74.2818460000000016
20
-36.2776530000000008
11
74.2479239999999976
21
-36.4042579999999987
0
LINE
8
BLACK
6
CONTINUOUS
10
74.2479239999999976
20
-36.4042579999999987
11
74.1977589999999907
21
-36.5253639999999962
0
LINE
8
BLACK
6
CONTINUOUS
10
74.1977589999999907
20
-36.5253639999999962
11
74.2818460000000016
21
-36.2776530000000008
0
LINE
8
BLACK
6
CONTINUOUS
10
74.3499999999999943
20
-34.3624999999999972
11
74.3499999999999943
21
-34.2314129999999963
0
LINE
8
BLACK
6
CONTINUOUS
10
74.3499999999999943
20
-34.2314129999999963
11
74.3671089999999992
21
-34.1014539999999968
0
LINE
8
BLACK
6
CONTINUOUS
10
74.3671089999999992
20
-34.1014539999999968
11
74.3499999999999943
21
-34.3624999999999972
0
LINE
8
BLACK
6
CONTINUOUS
10
100.3318529999999953
20
-33.8448689999999957
11
100.3657789999999892
21
-33.9714820000000017
0
LINE
8
BLACK
6
CONTINUOUS
10
100.3657789999999892
20
-33.9714820000000017
11
100.3828879999999941
21
-34.1014410000000012
0
LINE
8
BLACK
6
CONTINUOUS
10
100.3828879999999941
20
-34.1014410000000012
11
100.3318529999999953
21
-33.8448689999999957
0
LINE
8
BLACK
6
CONTINUOUS
10
74.4181499999999971
20
-33.8448549999999955
11
74.452075999999991
21
-33.7182419999999965
0
LINE
8
BLACK
6
CONTINUOUS
10
74.452075999999991
20
-33.7182419999999965
11
74.5022400000000005
21
-33.5971350000000015
0
LINE
8
BLACK
6
CONTINUOUS
10
74.5022400000000005
20
-33.5971350000000015
11
74.4181499999999971
21
-33.8448549999999955
0
LINE
8
BLACK
6
CONTINUOUS
10
100.132054999999994
20
-33.3625089999999958
11
100.1975939999999952
21
-33.4760249999999999
0
LINE
8
BLACK
6
CONTINUOUS
10
100.1975939999999952
20
-33.4760249999999999
11
100.2477569999999929
21
-33.5971299999999999
0
LINE
8
BLACK
6
CONTINUOUS
10
100.2477569999999929
20
-33.5971299999999999
11
100.132054999999994
21
-33.3625089999999958
0
LINE
8
BLACK
6
CONTINUOUS
10
75.350009
20
-32.6304439999999971
11
75.46352499999999
21
-32.5649060000000006
0
LINE
8
BLACK
6
CONTINUOUS
10
75.46352499999999
20
-32.5649060000000006
11
75.58462999999999
21
-32.5147419999999983
0
LINE
8
BLACK
6
CONTINUOUS
10
75.58462999999999
20
-32.5147419999999983
11
75.350009
21
-32.6304439999999971
0
LINE
8
BLACK
6
CONTINUOUS
10
98.9176439999999957
20
-32.43065
11
99.0442579999999992
21
-32.464576000000001
0
LINE
8
BLACK
6
CONTINUOUS
10
99.0442579999999992
20
-32.464576000000001
11
99.1653639999999967
21
-32.5147399999999962
0
LINE
8
BLACK
6
CONTINUOUS
10
99.1653639999999967
20
-32.5147399999999962
11
98.9176439999999957
21
-32.43065
  0
ENDSEC
  0
EOF
