G04 #@! TF.GenerationSoftware,KiCad,Pcbnew,8.0.6-8.0.6-0~ubuntu24.04.1*
G04 #@! TF.CreationDate,2025-02-09T13:24:36-05:00*
G04 #@! TF.ProjectId,keybird_right,6b657962-6972-4645-9f72-696768742e6b,rev?*
G04 #@! TF.SameCoordinates,Original*
G04 #@! TF.FileFunction,Legend,Top*
G04 #@! TF.FilePolarity,Positive*
%FSLAX46Y46*%
G04 Gerber Fmt 4.6, Leading zero omitted, Abs format (unit mm)*
G04 Created by KiCad (PCBNEW 8.0.6-8.0.6-0~ubuntu24.04.1) date 2025-02-09 13:24:36*
%MOMM*%
%LPD*%
G01*
G04 APERTURE LIST*
G04 Aperture macros list*
%AMRoundRect*
0 Rectangle with rounded corners*
0 $1 Rounding radius*
0 $2 $3 $4 $5 $6 $7 $8 $9 X,Y pos of 4 corners*
0 Add a 4 corners polygon primitive as box body*
4,1,4,$2,$3,$4,$5,$6,$7,$8,$9,$2,$3,0*
0 Add four circle primitives for the rounded corners*
1,1,$1+$1,$2,$3*
1,1,$1+$1,$4,$5*
1,1,$1+$1,$6,$7*
1,1,$1+$1,$8,$9*
0 Add four rect primitives between the rounded corners*
20,1,$1+$1,$2,$3,$4,$5,0*
20,1,$1+$1,$4,$5,$6,$7,0*
20,1,$1+$1,$6,$7,$8,$9,0*
20,1,$1+$1,$8,$9,$2,$3,0*%
G04 Aperture macros list end*
%ADD10C,0.150000*%
%ADD11C,0.120000*%
%ADD12RoundRect,0.038000X-0.850000X-0.850000X0.850000X-0.850000X0.850000X0.850000X-0.850000X0.850000X0*%
%ADD13O,1.776000X1.776000*%
%ADD14C,1.826000*%
%ADD15C,3.126000*%
%ADD16C,4.076000*%
%ADD17RoundRect,0.219000X0.219000X0.294000X-0.219000X0.294000X-0.219000X-0.294000X0.219000X-0.294000X0*%
%ADD18RoundRect,0.237750X0.237750X0.275250X-0.237750X0.275250X-0.237750X-0.275250X0.237750X-0.275250X0*%
%ADD19C,2.576000*%
%ADD20RoundRect,0.038000X0.750000X-0.750000X0.750000X0.750000X-0.750000X0.750000X-0.750000X-0.750000X0*%
%ADD21C,1.676000*%
%ADD22RoundRect,0.038000X0.850000X0.850000X-0.850000X0.850000X-0.850000X-0.850000X0.850000X-0.850000X0*%
G04 APERTURE END LIST*
D10*
X128961666Y-82209819D02*
X128961666Y-82924104D01*
X128961666Y-82924104D02*
X128914047Y-83066961D01*
X128914047Y-83066961D02*
X128818809Y-83162200D01*
X128818809Y-83162200D02*
X128675952Y-83209819D01*
X128675952Y-83209819D02*
X128580714Y-83209819D01*
X129390238Y-82305057D02*
X129437857Y-82257438D01*
X129437857Y-82257438D02*
X129533095Y-82209819D01*
X129533095Y-82209819D02*
X129771190Y-82209819D01*
X129771190Y-82209819D02*
X129866428Y-82257438D01*
X129866428Y-82257438D02*
X129914047Y-82305057D01*
X129914047Y-82305057D02*
X129961666Y-82400295D01*
X129961666Y-82400295D02*
X129961666Y-82495533D01*
X129961666Y-82495533D02*
X129914047Y-82638390D01*
X129914047Y-82638390D02*
X129342619Y-83209819D01*
X129342619Y-83209819D02*
X129961666Y-83209819D01*
X108666666Y-72059819D02*
X108666666Y-72774104D01*
X108666666Y-72774104D02*
X108619047Y-72916961D01*
X108619047Y-72916961D02*
X108523809Y-73012200D01*
X108523809Y-73012200D02*
X108380952Y-73059819D01*
X108380952Y-73059819D02*
X108285714Y-73059819D01*
X109666666Y-73059819D02*
X109095238Y-73059819D01*
X109380952Y-73059819D02*
X109380952Y-72059819D01*
X109380952Y-72059819D02*
X109285714Y-72202676D01*
X109285714Y-72202676D02*
X109190476Y-72297914D01*
X109190476Y-72297914D02*
X109095238Y-72345533D01*
X249207250Y-104785826D02*
X249254869Y-104642969D01*
X249254869Y-104642969D02*
X249254869Y-104404874D01*
X249254869Y-104404874D02*
X249207250Y-104309636D01*
X249207250Y-104309636D02*
X249159630Y-104262017D01*
X249159630Y-104262017D02*
X249064392Y-104214398D01*
X249064392Y-104214398D02*
X248969154Y-104214398D01*
X248969154Y-104214398D02*
X248873916Y-104262017D01*
X248873916Y-104262017D02*
X248826297Y-104309636D01*
X248826297Y-104309636D02*
X248778678Y-104404874D01*
X248778678Y-104404874D02*
X248731059Y-104595350D01*
X248731059Y-104595350D02*
X248683440Y-104690588D01*
X248683440Y-104690588D02*
X248635821Y-104738207D01*
X248635821Y-104738207D02*
X248540583Y-104785826D01*
X248540583Y-104785826D02*
X248445345Y-104785826D01*
X248445345Y-104785826D02*
X248350107Y-104738207D01*
X248350107Y-104738207D02*
X248302488Y-104690588D01*
X248302488Y-104690588D02*
X248254869Y-104595350D01*
X248254869Y-104595350D02*
X248254869Y-104357255D01*
X248254869Y-104357255D02*
X248302488Y-104214398D01*
X248254869Y-103881064D02*
X249254869Y-103642969D01*
X249254869Y-103642969D02*
X248540583Y-103452493D01*
X248540583Y-103452493D02*
X249254869Y-103262017D01*
X249254869Y-103262017D02*
X248254869Y-103023922D01*
X248254869Y-102738207D02*
X248254869Y-102119160D01*
X248254869Y-102119160D02*
X248635821Y-102452493D01*
X248635821Y-102452493D02*
X248635821Y-102309636D01*
X248635821Y-102309636D02*
X248683440Y-102214398D01*
X248683440Y-102214398D02*
X248731059Y-102166779D01*
X248731059Y-102166779D02*
X248826297Y-102119160D01*
X248826297Y-102119160D02*
X249064392Y-102119160D01*
X249064392Y-102119160D02*
X249159630Y-102166779D01*
X249159630Y-102166779D02*
X249207250Y-102214398D01*
X249207250Y-102214398D02*
X249254869Y-102309636D01*
X249254869Y-102309636D02*
X249254869Y-102595350D01*
X249254869Y-102595350D02*
X249207250Y-102690588D01*
X249207250Y-102690588D02*
X249159630Y-102738207D01*
X153957250Y-94308207D02*
X154004869Y-94165350D01*
X154004869Y-94165350D02*
X154004869Y-93927255D01*
X154004869Y-93927255D02*
X153957250Y-93832017D01*
X153957250Y-93832017D02*
X153909630Y-93784398D01*
X153909630Y-93784398D02*
X153814392Y-93736779D01*
X153814392Y-93736779D02*
X153719154Y-93736779D01*
X153719154Y-93736779D02*
X153623916Y-93784398D01*
X153623916Y-93784398D02*
X153576297Y-93832017D01*
X153576297Y-93832017D02*
X153528678Y-93927255D01*
X153528678Y-93927255D02*
X153481059Y-94117731D01*
X153481059Y-94117731D02*
X153433440Y-94212969D01*
X153433440Y-94212969D02*
X153385821Y-94260588D01*
X153385821Y-94260588D02*
X153290583Y-94308207D01*
X153290583Y-94308207D02*
X153195345Y-94308207D01*
X153195345Y-94308207D02*
X153100107Y-94260588D01*
X153100107Y-94260588D02*
X153052488Y-94212969D01*
X153052488Y-94212969D02*
X153004869Y-94117731D01*
X153004869Y-94117731D02*
X153004869Y-93879636D01*
X153004869Y-93879636D02*
X153052488Y-93736779D01*
X153004869Y-93403445D02*
X154004869Y-93165350D01*
X154004869Y-93165350D02*
X153290583Y-92974874D01*
X153290583Y-92974874D02*
X154004869Y-92784398D01*
X154004869Y-92784398D02*
X153004869Y-92546303D01*
X153100107Y-92212969D02*
X153052488Y-92165350D01*
X153052488Y-92165350D02*
X153004869Y-92070112D01*
X153004869Y-92070112D02*
X153004869Y-91832017D01*
X153004869Y-91832017D02*
X153052488Y-91736779D01*
X153052488Y-91736779D02*
X153100107Y-91689160D01*
X153100107Y-91689160D02*
X153195345Y-91641541D01*
X153195345Y-91641541D02*
X153290583Y-91641541D01*
X153290583Y-91641541D02*
X153433440Y-91689160D01*
X153433440Y-91689160D02*
X154004869Y-92260588D01*
X154004869Y-92260588D02*
X154004869Y-91641541D01*
X153433440Y-91070112D02*
X153385821Y-91165350D01*
X153385821Y-91165350D02*
X153338202Y-91212969D01*
X153338202Y-91212969D02*
X153242964Y-91260588D01*
X153242964Y-91260588D02*
X153195345Y-91260588D01*
X153195345Y-91260588D02*
X153100107Y-91212969D01*
X153100107Y-91212969D02*
X153052488Y-91165350D01*
X153052488Y-91165350D02*
X153004869Y-91070112D01*
X153004869Y-91070112D02*
X153004869Y-90879636D01*
X153004869Y-90879636D02*
X153052488Y-90784398D01*
X153052488Y-90784398D02*
X153100107Y-90736779D01*
X153100107Y-90736779D02*
X153195345Y-90689160D01*
X153195345Y-90689160D02*
X153242964Y-90689160D01*
X153242964Y-90689160D02*
X153338202Y-90736779D01*
X153338202Y-90736779D02*
X153385821Y-90784398D01*
X153385821Y-90784398D02*
X153433440Y-90879636D01*
X153433440Y-90879636D02*
X153433440Y-91070112D01*
X153433440Y-91070112D02*
X153481059Y-91165350D01*
X153481059Y-91165350D02*
X153528678Y-91212969D01*
X153528678Y-91212969D02*
X153623916Y-91260588D01*
X153623916Y-91260588D02*
X153814392Y-91260588D01*
X153814392Y-91260588D02*
X153909630Y-91212969D01*
X153909630Y-91212969D02*
X153957250Y-91165350D01*
X153957250Y-91165350D02*
X154004869Y-91070112D01*
X154004869Y-91070112D02*
X154004869Y-90879636D01*
X154004869Y-90879636D02*
X153957250Y-90784398D01*
X153957250Y-90784398D02*
X153909630Y-90736779D01*
X153909630Y-90736779D02*
X153814392Y-90689160D01*
X153814392Y-90689160D02*
X153623916Y-90689160D01*
X153623916Y-90689160D02*
X153528678Y-90736779D01*
X153528678Y-90736779D02*
X153481059Y-90784398D01*
X153481059Y-90784398D02*
X153433440Y-90879636D01*
X230157250Y-85735826D02*
X230204869Y-85592969D01*
X230204869Y-85592969D02*
X230204869Y-85354874D01*
X230204869Y-85354874D02*
X230157250Y-85259636D01*
X230157250Y-85259636D02*
X230109630Y-85212017D01*
X230109630Y-85212017D02*
X230014392Y-85164398D01*
X230014392Y-85164398D02*
X229919154Y-85164398D01*
X229919154Y-85164398D02*
X229823916Y-85212017D01*
X229823916Y-85212017D02*
X229776297Y-85259636D01*
X229776297Y-85259636D02*
X229728678Y-85354874D01*
X229728678Y-85354874D02*
X229681059Y-85545350D01*
X229681059Y-85545350D02*
X229633440Y-85640588D01*
X229633440Y-85640588D02*
X229585821Y-85688207D01*
X229585821Y-85688207D02*
X229490583Y-85735826D01*
X229490583Y-85735826D02*
X229395345Y-85735826D01*
X229395345Y-85735826D02*
X229300107Y-85688207D01*
X229300107Y-85688207D02*
X229252488Y-85640588D01*
X229252488Y-85640588D02*
X229204869Y-85545350D01*
X229204869Y-85545350D02*
X229204869Y-85307255D01*
X229204869Y-85307255D02*
X229252488Y-85164398D01*
X229204869Y-84831064D02*
X230204869Y-84592969D01*
X230204869Y-84592969D02*
X229490583Y-84402493D01*
X229490583Y-84402493D02*
X230204869Y-84212017D01*
X230204869Y-84212017D02*
X229204869Y-83973922D01*
X230204869Y-83545350D02*
X230204869Y-83354874D01*
X230204869Y-83354874D02*
X230157250Y-83259636D01*
X230157250Y-83259636D02*
X230109630Y-83212017D01*
X230109630Y-83212017D02*
X229966773Y-83116779D01*
X229966773Y-83116779D02*
X229776297Y-83069160D01*
X229776297Y-83069160D02*
X229395345Y-83069160D01*
X229395345Y-83069160D02*
X229300107Y-83116779D01*
X229300107Y-83116779D02*
X229252488Y-83164398D01*
X229252488Y-83164398D02*
X229204869Y-83259636D01*
X229204869Y-83259636D02*
X229204869Y-83450112D01*
X229204869Y-83450112D02*
X229252488Y-83545350D01*
X229252488Y-83545350D02*
X229300107Y-83592969D01*
X229300107Y-83592969D02*
X229395345Y-83640588D01*
X229395345Y-83640588D02*
X229633440Y-83640588D01*
X229633440Y-83640588D02*
X229728678Y-83592969D01*
X229728678Y-83592969D02*
X229776297Y-83545350D01*
X229776297Y-83545350D02*
X229823916Y-83450112D01*
X229823916Y-83450112D02*
X229823916Y-83259636D01*
X229823916Y-83259636D02*
X229776297Y-83164398D01*
X229776297Y-83164398D02*
X229728678Y-83116779D01*
X229728678Y-83116779D02*
X229633440Y-83069160D01*
X153957250Y-113358207D02*
X154004869Y-113215350D01*
X154004869Y-113215350D02*
X154004869Y-112977255D01*
X154004869Y-112977255D02*
X153957250Y-112882017D01*
X153957250Y-112882017D02*
X153909630Y-112834398D01*
X153909630Y-112834398D02*
X153814392Y-112786779D01*
X153814392Y-112786779D02*
X153719154Y-112786779D01*
X153719154Y-112786779D02*
X153623916Y-112834398D01*
X153623916Y-112834398D02*
X153576297Y-112882017D01*
X153576297Y-112882017D02*
X153528678Y-112977255D01*
X153528678Y-112977255D02*
X153481059Y-113167731D01*
X153481059Y-113167731D02*
X153433440Y-113262969D01*
X153433440Y-113262969D02*
X153385821Y-113310588D01*
X153385821Y-113310588D02*
X153290583Y-113358207D01*
X153290583Y-113358207D02*
X153195345Y-113358207D01*
X153195345Y-113358207D02*
X153100107Y-113310588D01*
X153100107Y-113310588D02*
X153052488Y-113262969D01*
X153052488Y-113262969D02*
X153004869Y-113167731D01*
X153004869Y-113167731D02*
X153004869Y-112929636D01*
X153004869Y-112929636D02*
X153052488Y-112786779D01*
X153004869Y-112453445D02*
X154004869Y-112215350D01*
X154004869Y-112215350D02*
X153290583Y-112024874D01*
X153290583Y-112024874D02*
X154004869Y-111834398D01*
X154004869Y-111834398D02*
X153004869Y-111596303D01*
X153100107Y-111262969D02*
X153052488Y-111215350D01*
X153052488Y-111215350D02*
X153004869Y-111120112D01*
X153004869Y-111120112D02*
X153004869Y-110882017D01*
X153004869Y-110882017D02*
X153052488Y-110786779D01*
X153052488Y-110786779D02*
X153100107Y-110739160D01*
X153100107Y-110739160D02*
X153195345Y-110691541D01*
X153195345Y-110691541D02*
X153290583Y-110691541D01*
X153290583Y-110691541D02*
X153433440Y-110739160D01*
X153433440Y-110739160D02*
X154004869Y-111310588D01*
X154004869Y-111310588D02*
X154004869Y-110691541D01*
X153004869Y-110358207D02*
X153004869Y-109691541D01*
X153004869Y-109691541D02*
X154004869Y-110120112D01*
X160942250Y-132408207D02*
X160989869Y-132265350D01*
X160989869Y-132265350D02*
X160989869Y-132027255D01*
X160989869Y-132027255D02*
X160942250Y-131932017D01*
X160942250Y-131932017D02*
X160894630Y-131884398D01*
X160894630Y-131884398D02*
X160799392Y-131836779D01*
X160799392Y-131836779D02*
X160704154Y-131836779D01*
X160704154Y-131836779D02*
X160608916Y-131884398D01*
X160608916Y-131884398D02*
X160561297Y-131932017D01*
X160561297Y-131932017D02*
X160513678Y-132027255D01*
X160513678Y-132027255D02*
X160466059Y-132217731D01*
X160466059Y-132217731D02*
X160418440Y-132312969D01*
X160418440Y-132312969D02*
X160370821Y-132360588D01*
X160370821Y-132360588D02*
X160275583Y-132408207D01*
X160275583Y-132408207D02*
X160180345Y-132408207D01*
X160180345Y-132408207D02*
X160085107Y-132360588D01*
X160085107Y-132360588D02*
X160037488Y-132312969D01*
X160037488Y-132312969D02*
X159989869Y-132217731D01*
X159989869Y-132217731D02*
X159989869Y-131979636D01*
X159989869Y-131979636D02*
X160037488Y-131836779D01*
X159989869Y-131503445D02*
X160989869Y-131265350D01*
X160989869Y-131265350D02*
X160275583Y-131074874D01*
X160275583Y-131074874D02*
X160989869Y-130884398D01*
X160989869Y-130884398D02*
X159989869Y-130646303D01*
X160085107Y-130312969D02*
X160037488Y-130265350D01*
X160037488Y-130265350D02*
X159989869Y-130170112D01*
X159989869Y-130170112D02*
X159989869Y-129932017D01*
X159989869Y-129932017D02*
X160037488Y-129836779D01*
X160037488Y-129836779D02*
X160085107Y-129789160D01*
X160085107Y-129789160D02*
X160180345Y-129741541D01*
X160180345Y-129741541D02*
X160275583Y-129741541D01*
X160275583Y-129741541D02*
X160418440Y-129789160D01*
X160418440Y-129789160D02*
X160989869Y-130360588D01*
X160989869Y-130360588D02*
X160989869Y-129741541D01*
X159989869Y-128884398D02*
X159989869Y-129074874D01*
X159989869Y-129074874D02*
X160037488Y-129170112D01*
X160037488Y-129170112D02*
X160085107Y-129217731D01*
X160085107Y-129217731D02*
X160227964Y-129312969D01*
X160227964Y-129312969D02*
X160418440Y-129360588D01*
X160418440Y-129360588D02*
X160799392Y-129360588D01*
X160799392Y-129360588D02*
X160894630Y-129312969D01*
X160894630Y-129312969D02*
X160942250Y-129265350D01*
X160942250Y-129265350D02*
X160989869Y-129170112D01*
X160989869Y-129170112D02*
X160989869Y-128979636D01*
X160989869Y-128979636D02*
X160942250Y-128884398D01*
X160942250Y-128884398D02*
X160894630Y-128836779D01*
X160894630Y-128836779D02*
X160799392Y-128789160D01*
X160799392Y-128789160D02*
X160561297Y-128789160D01*
X160561297Y-128789160D02*
X160466059Y-128836779D01*
X160466059Y-128836779D02*
X160418440Y-128884398D01*
X160418440Y-128884398D02*
X160370821Y-128979636D01*
X160370821Y-128979636D02*
X160370821Y-129170112D01*
X160370821Y-129170112D02*
X160418440Y-129265350D01*
X160418440Y-129265350D02*
X160466059Y-129312969D01*
X160466059Y-129312969D02*
X160561297Y-129360588D01*
X129028333Y-68552819D02*
X128695000Y-68076628D01*
X128456905Y-68552819D02*
X128456905Y-67552819D01*
X128456905Y-67552819D02*
X128837857Y-67552819D01*
X128837857Y-67552819D02*
X128933095Y-67600438D01*
X128933095Y-67600438D02*
X128980714Y-67648057D01*
X128980714Y-67648057D02*
X129028333Y-67743295D01*
X129028333Y-67743295D02*
X129028333Y-67886152D01*
X129028333Y-67886152D02*
X128980714Y-67981390D01*
X128980714Y-67981390D02*
X128933095Y-68029009D01*
X128933095Y-68029009D02*
X128837857Y-68076628D01*
X128837857Y-68076628D02*
X128456905Y-68076628D01*
X129599762Y-67981390D02*
X129504524Y-67933771D01*
X129504524Y-67933771D02*
X129456905Y-67886152D01*
X129456905Y-67886152D02*
X129409286Y-67790914D01*
X129409286Y-67790914D02*
X129409286Y-67743295D01*
X129409286Y-67743295D02*
X129456905Y-67648057D01*
X129456905Y-67648057D02*
X129504524Y-67600438D01*
X129504524Y-67600438D02*
X129599762Y-67552819D01*
X129599762Y-67552819D02*
X129790238Y-67552819D01*
X129790238Y-67552819D02*
X129885476Y-67600438D01*
X129885476Y-67600438D02*
X129933095Y-67648057D01*
X129933095Y-67648057D02*
X129980714Y-67743295D01*
X129980714Y-67743295D02*
X129980714Y-67790914D01*
X129980714Y-67790914D02*
X129933095Y-67886152D01*
X129933095Y-67886152D02*
X129885476Y-67933771D01*
X129885476Y-67933771D02*
X129790238Y-67981390D01*
X129790238Y-67981390D02*
X129599762Y-67981390D01*
X129599762Y-67981390D02*
X129504524Y-68029009D01*
X129504524Y-68029009D02*
X129456905Y-68076628D01*
X129456905Y-68076628D02*
X129409286Y-68171866D01*
X129409286Y-68171866D02*
X129409286Y-68362342D01*
X129409286Y-68362342D02*
X129456905Y-68457580D01*
X129456905Y-68457580D02*
X129504524Y-68505200D01*
X129504524Y-68505200D02*
X129599762Y-68552819D01*
X129599762Y-68552819D02*
X129790238Y-68552819D01*
X129790238Y-68552819D02*
X129885476Y-68505200D01*
X129885476Y-68505200D02*
X129933095Y-68457580D01*
X129933095Y-68457580D02*
X129980714Y-68362342D01*
X129980714Y-68362342D02*
X129980714Y-68171866D01*
X129980714Y-68171866D02*
X129933095Y-68076628D01*
X129933095Y-68076628D02*
X129885476Y-68029009D01*
X129885476Y-68029009D02*
X129790238Y-67981390D01*
X127960714Y-65868819D02*
X127960714Y-64868819D01*
X127960714Y-64868819D02*
X128198809Y-64868819D01*
X128198809Y-64868819D02*
X128341666Y-64916438D01*
X128341666Y-64916438D02*
X128436904Y-65011676D01*
X128436904Y-65011676D02*
X128484523Y-65106914D01*
X128484523Y-65106914D02*
X128532142Y-65297390D01*
X128532142Y-65297390D02*
X128532142Y-65440247D01*
X128532142Y-65440247D02*
X128484523Y-65630723D01*
X128484523Y-65630723D02*
X128436904Y-65725961D01*
X128436904Y-65725961D02*
X128341666Y-65821200D01*
X128341666Y-65821200D02*
X128198809Y-65868819D01*
X128198809Y-65868819D02*
X127960714Y-65868819D01*
X128865476Y-64868819D02*
X129484523Y-64868819D01*
X129484523Y-64868819D02*
X129151190Y-65249771D01*
X129151190Y-65249771D02*
X129294047Y-65249771D01*
X129294047Y-65249771D02*
X129389285Y-65297390D01*
X129389285Y-65297390D02*
X129436904Y-65345009D01*
X129436904Y-65345009D02*
X129484523Y-65440247D01*
X129484523Y-65440247D02*
X129484523Y-65678342D01*
X129484523Y-65678342D02*
X129436904Y-65773580D01*
X129436904Y-65773580D02*
X129389285Y-65821200D01*
X129389285Y-65821200D02*
X129294047Y-65868819D01*
X129294047Y-65868819D02*
X129008333Y-65868819D01*
X129008333Y-65868819D02*
X128913095Y-65821200D01*
X128913095Y-65821200D02*
X128865476Y-65773580D01*
X129865476Y-64964057D02*
X129913095Y-64916438D01*
X129913095Y-64916438D02*
X130008333Y-64868819D01*
X130008333Y-64868819D02*
X130246428Y-64868819D01*
X130246428Y-64868819D02*
X130341666Y-64916438D01*
X130341666Y-64916438D02*
X130389285Y-64964057D01*
X130389285Y-64964057D02*
X130436904Y-65059295D01*
X130436904Y-65059295D02*
X130436904Y-65154533D01*
X130436904Y-65154533D02*
X130389285Y-65297390D01*
X130389285Y-65297390D02*
X129817857Y-65868819D01*
X129817857Y-65868819D02*
X130436904Y-65868819D01*
X192057250Y-88620707D02*
X192104869Y-88477850D01*
X192104869Y-88477850D02*
X192104869Y-88239755D01*
X192104869Y-88239755D02*
X192057250Y-88144517D01*
X192057250Y-88144517D02*
X192009630Y-88096898D01*
X192009630Y-88096898D02*
X191914392Y-88049279D01*
X191914392Y-88049279D02*
X191819154Y-88049279D01*
X191819154Y-88049279D02*
X191723916Y-88096898D01*
X191723916Y-88096898D02*
X191676297Y-88144517D01*
X191676297Y-88144517D02*
X191628678Y-88239755D01*
X191628678Y-88239755D02*
X191581059Y-88430231D01*
X191581059Y-88430231D02*
X191533440Y-88525469D01*
X191533440Y-88525469D02*
X191485821Y-88573088D01*
X191485821Y-88573088D02*
X191390583Y-88620707D01*
X191390583Y-88620707D02*
X191295345Y-88620707D01*
X191295345Y-88620707D02*
X191200107Y-88573088D01*
X191200107Y-88573088D02*
X191152488Y-88525469D01*
X191152488Y-88525469D02*
X191104869Y-88430231D01*
X191104869Y-88430231D02*
X191104869Y-88192136D01*
X191104869Y-88192136D02*
X191152488Y-88049279D01*
X191104869Y-87715945D02*
X192104869Y-87477850D01*
X192104869Y-87477850D02*
X191390583Y-87287374D01*
X191390583Y-87287374D02*
X192104869Y-87096898D01*
X192104869Y-87096898D02*
X191104869Y-86858803D01*
X192104869Y-85954041D02*
X192104869Y-86525469D01*
X192104869Y-86239755D02*
X191104869Y-86239755D01*
X191104869Y-86239755D02*
X191247726Y-86334993D01*
X191247726Y-86334993D02*
X191342964Y-86430231D01*
X191342964Y-86430231D02*
X191390583Y-86525469D01*
X191533440Y-85382612D02*
X191485821Y-85477850D01*
X191485821Y-85477850D02*
X191438202Y-85525469D01*
X191438202Y-85525469D02*
X191342964Y-85573088D01*
X191342964Y-85573088D02*
X191295345Y-85573088D01*
X191295345Y-85573088D02*
X191200107Y-85525469D01*
X191200107Y-85525469D02*
X191152488Y-85477850D01*
X191152488Y-85477850D02*
X191104869Y-85382612D01*
X191104869Y-85382612D02*
X191104869Y-85192136D01*
X191104869Y-85192136D02*
X191152488Y-85096898D01*
X191152488Y-85096898D02*
X191200107Y-85049279D01*
X191200107Y-85049279D02*
X191295345Y-85001660D01*
X191295345Y-85001660D02*
X191342964Y-85001660D01*
X191342964Y-85001660D02*
X191438202Y-85049279D01*
X191438202Y-85049279D02*
X191485821Y-85096898D01*
X191485821Y-85096898D02*
X191533440Y-85192136D01*
X191533440Y-85192136D02*
X191533440Y-85382612D01*
X191533440Y-85382612D02*
X191581059Y-85477850D01*
X191581059Y-85477850D02*
X191628678Y-85525469D01*
X191628678Y-85525469D02*
X191723916Y-85573088D01*
X191723916Y-85573088D02*
X191914392Y-85573088D01*
X191914392Y-85573088D02*
X192009630Y-85525469D01*
X192009630Y-85525469D02*
X192057250Y-85477850D01*
X192057250Y-85477850D02*
X192104869Y-85382612D01*
X192104869Y-85382612D02*
X192104869Y-85192136D01*
X192104869Y-85192136D02*
X192057250Y-85096898D01*
X192057250Y-85096898D02*
X192009630Y-85049279D01*
X192009630Y-85049279D02*
X191914392Y-85001660D01*
X191914392Y-85001660D02*
X191723916Y-85001660D01*
X191723916Y-85001660D02*
X191628678Y-85049279D01*
X191628678Y-85049279D02*
X191581059Y-85096898D01*
X191581059Y-85096898D02*
X191533440Y-85192136D01*
X128396905Y-56900819D02*
X128396905Y-55900819D01*
X128396905Y-55900819D02*
X128635000Y-55900819D01*
X128635000Y-55900819D02*
X128777857Y-55948438D01*
X128777857Y-55948438D02*
X128873095Y-56043676D01*
X128873095Y-56043676D02*
X128920714Y-56138914D01*
X128920714Y-56138914D02*
X128968333Y-56329390D01*
X128968333Y-56329390D02*
X128968333Y-56472247D01*
X128968333Y-56472247D02*
X128920714Y-56662723D01*
X128920714Y-56662723D02*
X128873095Y-56757961D01*
X128873095Y-56757961D02*
X128777857Y-56853200D01*
X128777857Y-56853200D02*
X128635000Y-56900819D01*
X128635000Y-56900819D02*
X128396905Y-56900819D01*
X129873095Y-55900819D02*
X129396905Y-55900819D01*
X129396905Y-55900819D02*
X129349286Y-56377009D01*
X129349286Y-56377009D02*
X129396905Y-56329390D01*
X129396905Y-56329390D02*
X129492143Y-56281771D01*
X129492143Y-56281771D02*
X129730238Y-56281771D01*
X129730238Y-56281771D02*
X129825476Y-56329390D01*
X129825476Y-56329390D02*
X129873095Y-56377009D01*
X129873095Y-56377009D02*
X129920714Y-56472247D01*
X129920714Y-56472247D02*
X129920714Y-56710342D01*
X129920714Y-56710342D02*
X129873095Y-56805580D01*
X129873095Y-56805580D02*
X129825476Y-56853200D01*
X129825476Y-56853200D02*
X129730238Y-56900819D01*
X129730238Y-56900819D02*
X129492143Y-56900819D01*
X129492143Y-56900819D02*
X129396905Y-56853200D01*
X129396905Y-56853200D02*
X129349286Y-56805580D01*
X173007250Y-113358207D02*
X173054869Y-113215350D01*
X173054869Y-113215350D02*
X173054869Y-112977255D01*
X173054869Y-112977255D02*
X173007250Y-112882017D01*
X173007250Y-112882017D02*
X172959630Y-112834398D01*
X172959630Y-112834398D02*
X172864392Y-112786779D01*
X172864392Y-112786779D02*
X172769154Y-112786779D01*
X172769154Y-112786779D02*
X172673916Y-112834398D01*
X172673916Y-112834398D02*
X172626297Y-112882017D01*
X172626297Y-112882017D02*
X172578678Y-112977255D01*
X172578678Y-112977255D02*
X172531059Y-113167731D01*
X172531059Y-113167731D02*
X172483440Y-113262969D01*
X172483440Y-113262969D02*
X172435821Y-113310588D01*
X172435821Y-113310588D02*
X172340583Y-113358207D01*
X172340583Y-113358207D02*
X172245345Y-113358207D01*
X172245345Y-113358207D02*
X172150107Y-113310588D01*
X172150107Y-113310588D02*
X172102488Y-113262969D01*
X172102488Y-113262969D02*
X172054869Y-113167731D01*
X172054869Y-113167731D02*
X172054869Y-112929636D01*
X172054869Y-112929636D02*
X172102488Y-112786779D01*
X172054869Y-112453445D02*
X173054869Y-112215350D01*
X173054869Y-112215350D02*
X172340583Y-112024874D01*
X172340583Y-112024874D02*
X173054869Y-111834398D01*
X173054869Y-111834398D02*
X172054869Y-111596303D01*
X172150107Y-111262969D02*
X172102488Y-111215350D01*
X172102488Y-111215350D02*
X172054869Y-111120112D01*
X172054869Y-111120112D02*
X172054869Y-110882017D01*
X172054869Y-110882017D02*
X172102488Y-110786779D01*
X172102488Y-110786779D02*
X172150107Y-110739160D01*
X172150107Y-110739160D02*
X172245345Y-110691541D01*
X172245345Y-110691541D02*
X172340583Y-110691541D01*
X172340583Y-110691541D02*
X172483440Y-110739160D01*
X172483440Y-110739160D02*
X173054869Y-111310588D01*
X173054869Y-111310588D02*
X173054869Y-110691541D01*
X172150107Y-110310588D02*
X172102488Y-110262969D01*
X172102488Y-110262969D02*
X172054869Y-110167731D01*
X172054869Y-110167731D02*
X172054869Y-109929636D01*
X172054869Y-109929636D02*
X172102488Y-109834398D01*
X172102488Y-109834398D02*
X172150107Y-109786779D01*
X172150107Y-109786779D02*
X172245345Y-109739160D01*
X172245345Y-109739160D02*
X172340583Y-109739160D01*
X172340583Y-109739160D02*
X172483440Y-109786779D01*
X172483440Y-109786779D02*
X173054869Y-110358207D01*
X173054869Y-110358207D02*
X173054869Y-109739160D01*
X211107250Y-110818207D02*
X211154869Y-110675350D01*
X211154869Y-110675350D02*
X211154869Y-110437255D01*
X211154869Y-110437255D02*
X211107250Y-110342017D01*
X211107250Y-110342017D02*
X211059630Y-110294398D01*
X211059630Y-110294398D02*
X210964392Y-110246779D01*
X210964392Y-110246779D02*
X210869154Y-110246779D01*
X210869154Y-110246779D02*
X210773916Y-110294398D01*
X210773916Y-110294398D02*
X210726297Y-110342017D01*
X210726297Y-110342017D02*
X210678678Y-110437255D01*
X210678678Y-110437255D02*
X210631059Y-110627731D01*
X210631059Y-110627731D02*
X210583440Y-110722969D01*
X210583440Y-110722969D02*
X210535821Y-110770588D01*
X210535821Y-110770588D02*
X210440583Y-110818207D01*
X210440583Y-110818207D02*
X210345345Y-110818207D01*
X210345345Y-110818207D02*
X210250107Y-110770588D01*
X210250107Y-110770588D02*
X210202488Y-110722969D01*
X210202488Y-110722969D02*
X210154869Y-110627731D01*
X210154869Y-110627731D02*
X210154869Y-110389636D01*
X210154869Y-110389636D02*
X210202488Y-110246779D01*
X210154869Y-109913445D02*
X211154869Y-109675350D01*
X211154869Y-109675350D02*
X210440583Y-109484874D01*
X210440583Y-109484874D02*
X211154869Y-109294398D01*
X211154869Y-109294398D02*
X210154869Y-109056303D01*
X211154869Y-108151541D02*
X211154869Y-108722969D01*
X211154869Y-108437255D02*
X210154869Y-108437255D01*
X210154869Y-108437255D02*
X210297726Y-108532493D01*
X210297726Y-108532493D02*
X210392964Y-108627731D01*
X210392964Y-108627731D02*
X210440583Y-108722969D01*
X210250107Y-107770588D02*
X210202488Y-107722969D01*
X210202488Y-107722969D02*
X210154869Y-107627731D01*
X210154869Y-107627731D02*
X210154869Y-107389636D01*
X210154869Y-107389636D02*
X210202488Y-107294398D01*
X210202488Y-107294398D02*
X210250107Y-107246779D01*
X210250107Y-107246779D02*
X210345345Y-107199160D01*
X210345345Y-107199160D02*
X210440583Y-107199160D01*
X210440583Y-107199160D02*
X210583440Y-107246779D01*
X210583440Y-107246779D02*
X211154869Y-107818207D01*
X211154869Y-107818207D02*
X211154869Y-107199160D01*
X173007250Y-75258207D02*
X173054869Y-75115350D01*
X173054869Y-75115350D02*
X173054869Y-74877255D01*
X173054869Y-74877255D02*
X173007250Y-74782017D01*
X173007250Y-74782017D02*
X172959630Y-74734398D01*
X172959630Y-74734398D02*
X172864392Y-74686779D01*
X172864392Y-74686779D02*
X172769154Y-74686779D01*
X172769154Y-74686779D02*
X172673916Y-74734398D01*
X172673916Y-74734398D02*
X172626297Y-74782017D01*
X172626297Y-74782017D02*
X172578678Y-74877255D01*
X172578678Y-74877255D02*
X172531059Y-75067731D01*
X172531059Y-75067731D02*
X172483440Y-75162969D01*
X172483440Y-75162969D02*
X172435821Y-75210588D01*
X172435821Y-75210588D02*
X172340583Y-75258207D01*
X172340583Y-75258207D02*
X172245345Y-75258207D01*
X172245345Y-75258207D02*
X172150107Y-75210588D01*
X172150107Y-75210588D02*
X172102488Y-75162969D01*
X172102488Y-75162969D02*
X172054869Y-75067731D01*
X172054869Y-75067731D02*
X172054869Y-74829636D01*
X172054869Y-74829636D02*
X172102488Y-74686779D01*
X172054869Y-74353445D02*
X173054869Y-74115350D01*
X173054869Y-74115350D02*
X172340583Y-73924874D01*
X172340583Y-73924874D02*
X173054869Y-73734398D01*
X173054869Y-73734398D02*
X172054869Y-73496303D01*
X172150107Y-73162969D02*
X172102488Y-73115350D01*
X172102488Y-73115350D02*
X172054869Y-73020112D01*
X172054869Y-73020112D02*
X172054869Y-72782017D01*
X172054869Y-72782017D02*
X172102488Y-72686779D01*
X172102488Y-72686779D02*
X172150107Y-72639160D01*
X172150107Y-72639160D02*
X172245345Y-72591541D01*
X172245345Y-72591541D02*
X172340583Y-72591541D01*
X172340583Y-72591541D02*
X172483440Y-72639160D01*
X172483440Y-72639160D02*
X173054869Y-73210588D01*
X173054869Y-73210588D02*
X173054869Y-72591541D01*
X172388202Y-71734398D02*
X173054869Y-71734398D01*
X172007250Y-71972493D02*
X172721535Y-72210588D01*
X172721535Y-72210588D02*
X172721535Y-71591541D01*
X116668333Y-108987819D02*
X116335000Y-108511628D01*
X116096905Y-108987819D02*
X116096905Y-107987819D01*
X116096905Y-107987819D02*
X116477857Y-107987819D01*
X116477857Y-107987819D02*
X116573095Y-108035438D01*
X116573095Y-108035438D02*
X116620714Y-108083057D01*
X116620714Y-108083057D02*
X116668333Y-108178295D01*
X116668333Y-108178295D02*
X116668333Y-108321152D01*
X116668333Y-108321152D02*
X116620714Y-108416390D01*
X116620714Y-108416390D02*
X116573095Y-108464009D01*
X116573095Y-108464009D02*
X116477857Y-108511628D01*
X116477857Y-108511628D02*
X116096905Y-108511628D01*
X117001667Y-107987819D02*
X117620714Y-107987819D01*
X117620714Y-107987819D02*
X117287381Y-108368771D01*
X117287381Y-108368771D02*
X117430238Y-108368771D01*
X117430238Y-108368771D02*
X117525476Y-108416390D01*
X117525476Y-108416390D02*
X117573095Y-108464009D01*
X117573095Y-108464009D02*
X117620714Y-108559247D01*
X117620714Y-108559247D02*
X117620714Y-108797342D01*
X117620714Y-108797342D02*
X117573095Y-108892580D01*
X117573095Y-108892580D02*
X117525476Y-108940200D01*
X117525476Y-108940200D02*
X117430238Y-108987819D01*
X117430238Y-108987819D02*
X117144524Y-108987819D01*
X117144524Y-108987819D02*
X117049286Y-108940200D01*
X117049286Y-108940200D02*
X117001667Y-108892580D01*
X211107250Y-91768207D02*
X211154869Y-91625350D01*
X211154869Y-91625350D02*
X211154869Y-91387255D01*
X211154869Y-91387255D02*
X211107250Y-91292017D01*
X211107250Y-91292017D02*
X211059630Y-91244398D01*
X211059630Y-91244398D02*
X210964392Y-91196779D01*
X210964392Y-91196779D02*
X210869154Y-91196779D01*
X210869154Y-91196779D02*
X210773916Y-91244398D01*
X210773916Y-91244398D02*
X210726297Y-91292017D01*
X210726297Y-91292017D02*
X210678678Y-91387255D01*
X210678678Y-91387255D02*
X210631059Y-91577731D01*
X210631059Y-91577731D02*
X210583440Y-91672969D01*
X210583440Y-91672969D02*
X210535821Y-91720588D01*
X210535821Y-91720588D02*
X210440583Y-91768207D01*
X210440583Y-91768207D02*
X210345345Y-91768207D01*
X210345345Y-91768207D02*
X210250107Y-91720588D01*
X210250107Y-91720588D02*
X210202488Y-91672969D01*
X210202488Y-91672969D02*
X210154869Y-91577731D01*
X210154869Y-91577731D02*
X210154869Y-91339636D01*
X210154869Y-91339636D02*
X210202488Y-91196779D01*
X210154869Y-90863445D02*
X211154869Y-90625350D01*
X211154869Y-90625350D02*
X210440583Y-90434874D01*
X210440583Y-90434874D02*
X211154869Y-90244398D01*
X211154869Y-90244398D02*
X210154869Y-90006303D01*
X211154869Y-89101541D02*
X211154869Y-89672969D01*
X211154869Y-89387255D02*
X210154869Y-89387255D01*
X210154869Y-89387255D02*
X210297726Y-89482493D01*
X210297726Y-89482493D02*
X210392964Y-89577731D01*
X210392964Y-89577731D02*
X210440583Y-89672969D01*
X210154869Y-88768207D02*
X210154869Y-88149160D01*
X210154869Y-88149160D02*
X210535821Y-88482493D01*
X210535821Y-88482493D02*
X210535821Y-88339636D01*
X210535821Y-88339636D02*
X210583440Y-88244398D01*
X210583440Y-88244398D02*
X210631059Y-88196779D01*
X210631059Y-88196779D02*
X210726297Y-88149160D01*
X210726297Y-88149160D02*
X210964392Y-88149160D01*
X210964392Y-88149160D02*
X211059630Y-88196779D01*
X211059630Y-88196779D02*
X211107250Y-88244398D01*
X211107250Y-88244398D02*
X211154869Y-88339636D01*
X211154869Y-88339636D02*
X211154869Y-88625350D01*
X211154869Y-88625350D02*
X211107250Y-88720588D01*
X211107250Y-88720588D02*
X211059630Y-88768207D01*
X192057250Y-48270707D02*
X192104869Y-48127850D01*
X192104869Y-48127850D02*
X192104869Y-47889755D01*
X192104869Y-47889755D02*
X192057250Y-47794517D01*
X192057250Y-47794517D02*
X192009630Y-47746898D01*
X192009630Y-47746898D02*
X191914392Y-47699279D01*
X191914392Y-47699279D02*
X191819154Y-47699279D01*
X191819154Y-47699279D02*
X191723916Y-47746898D01*
X191723916Y-47746898D02*
X191676297Y-47794517D01*
X191676297Y-47794517D02*
X191628678Y-47889755D01*
X191628678Y-47889755D02*
X191581059Y-48080231D01*
X191581059Y-48080231D02*
X191533440Y-48175469D01*
X191533440Y-48175469D02*
X191485821Y-48223088D01*
X191485821Y-48223088D02*
X191390583Y-48270707D01*
X191390583Y-48270707D02*
X191295345Y-48270707D01*
X191295345Y-48270707D02*
X191200107Y-48223088D01*
X191200107Y-48223088D02*
X191152488Y-48175469D01*
X191152488Y-48175469D02*
X191104869Y-48080231D01*
X191104869Y-48080231D02*
X191104869Y-47842136D01*
X191104869Y-47842136D02*
X191152488Y-47699279D01*
X191104869Y-47365945D02*
X192104869Y-47127850D01*
X192104869Y-47127850D02*
X191390583Y-46937374D01*
X191390583Y-46937374D02*
X192104869Y-46746898D01*
X192104869Y-46746898D02*
X191104869Y-46508803D01*
X191200107Y-46175469D02*
X191152488Y-46127850D01*
X191152488Y-46127850D02*
X191104869Y-46032612D01*
X191104869Y-46032612D02*
X191104869Y-45794517D01*
X191104869Y-45794517D02*
X191152488Y-45699279D01*
X191152488Y-45699279D02*
X191200107Y-45651660D01*
X191200107Y-45651660D02*
X191295345Y-45604041D01*
X191295345Y-45604041D02*
X191390583Y-45604041D01*
X191390583Y-45604041D02*
X191533440Y-45651660D01*
X191533440Y-45651660D02*
X192104869Y-46223088D01*
X192104869Y-46223088D02*
X192104869Y-45604041D01*
X191104869Y-44984993D02*
X191104869Y-44889755D01*
X191104869Y-44889755D02*
X191152488Y-44794517D01*
X191152488Y-44794517D02*
X191200107Y-44746898D01*
X191200107Y-44746898D02*
X191295345Y-44699279D01*
X191295345Y-44699279D02*
X191485821Y-44651660D01*
X191485821Y-44651660D02*
X191723916Y-44651660D01*
X191723916Y-44651660D02*
X191914392Y-44699279D01*
X191914392Y-44699279D02*
X192009630Y-44746898D01*
X192009630Y-44746898D02*
X192057250Y-44794517D01*
X192057250Y-44794517D02*
X192104869Y-44889755D01*
X192104869Y-44889755D02*
X192104869Y-44984993D01*
X192104869Y-44984993D02*
X192057250Y-45080231D01*
X192057250Y-45080231D02*
X192009630Y-45127850D01*
X192009630Y-45127850D02*
X191914392Y-45175469D01*
X191914392Y-45175469D02*
X191723916Y-45223088D01*
X191723916Y-45223088D02*
X191485821Y-45223088D01*
X191485821Y-45223088D02*
X191295345Y-45175469D01*
X191295345Y-45175469D02*
X191200107Y-45127850D01*
X191200107Y-45127850D02*
X191152488Y-45080231D01*
X191152488Y-45080231D02*
X191104869Y-44984993D01*
X153957250Y-75258207D02*
X154004869Y-75115350D01*
X154004869Y-75115350D02*
X154004869Y-74877255D01*
X154004869Y-74877255D02*
X153957250Y-74782017D01*
X153957250Y-74782017D02*
X153909630Y-74734398D01*
X153909630Y-74734398D02*
X153814392Y-74686779D01*
X153814392Y-74686779D02*
X153719154Y-74686779D01*
X153719154Y-74686779D02*
X153623916Y-74734398D01*
X153623916Y-74734398D02*
X153576297Y-74782017D01*
X153576297Y-74782017D02*
X153528678Y-74877255D01*
X153528678Y-74877255D02*
X153481059Y-75067731D01*
X153481059Y-75067731D02*
X153433440Y-75162969D01*
X153433440Y-75162969D02*
X153385821Y-75210588D01*
X153385821Y-75210588D02*
X153290583Y-75258207D01*
X153290583Y-75258207D02*
X153195345Y-75258207D01*
X153195345Y-75258207D02*
X153100107Y-75210588D01*
X153100107Y-75210588D02*
X153052488Y-75162969D01*
X153052488Y-75162969D02*
X153004869Y-75067731D01*
X153004869Y-75067731D02*
X153004869Y-74829636D01*
X153004869Y-74829636D02*
X153052488Y-74686779D01*
X153004869Y-74353445D02*
X154004869Y-74115350D01*
X154004869Y-74115350D02*
X153290583Y-73924874D01*
X153290583Y-73924874D02*
X154004869Y-73734398D01*
X154004869Y-73734398D02*
X153004869Y-73496303D01*
X153100107Y-73162969D02*
X153052488Y-73115350D01*
X153052488Y-73115350D02*
X153004869Y-73020112D01*
X153004869Y-73020112D02*
X153004869Y-72782017D01*
X153004869Y-72782017D02*
X153052488Y-72686779D01*
X153052488Y-72686779D02*
X153100107Y-72639160D01*
X153100107Y-72639160D02*
X153195345Y-72591541D01*
X153195345Y-72591541D02*
X153290583Y-72591541D01*
X153290583Y-72591541D02*
X153433440Y-72639160D01*
X153433440Y-72639160D02*
X154004869Y-73210588D01*
X154004869Y-73210588D02*
X154004869Y-72591541D01*
X154004869Y-72115350D02*
X154004869Y-71924874D01*
X154004869Y-71924874D02*
X153957250Y-71829636D01*
X153957250Y-71829636D02*
X153909630Y-71782017D01*
X153909630Y-71782017D02*
X153766773Y-71686779D01*
X153766773Y-71686779D02*
X153576297Y-71639160D01*
X153576297Y-71639160D02*
X153195345Y-71639160D01*
X153195345Y-71639160D02*
X153100107Y-71686779D01*
X153100107Y-71686779D02*
X153052488Y-71734398D01*
X153052488Y-71734398D02*
X153004869Y-71829636D01*
X153004869Y-71829636D02*
X153004869Y-72020112D01*
X153004869Y-72020112D02*
X153052488Y-72115350D01*
X153052488Y-72115350D02*
X153100107Y-72162969D01*
X153100107Y-72162969D02*
X153195345Y-72210588D01*
X153195345Y-72210588D02*
X153433440Y-72210588D01*
X153433440Y-72210588D02*
X153528678Y-72162969D01*
X153528678Y-72162969D02*
X153576297Y-72115350D01*
X153576297Y-72115350D02*
X153623916Y-72020112D01*
X153623916Y-72020112D02*
X153623916Y-71829636D01*
X153623916Y-71829636D02*
X153576297Y-71734398D01*
X153576297Y-71734398D02*
X153528678Y-71686779D01*
X153528678Y-71686779D02*
X153433440Y-71639160D01*
X230005037Y-66632785D02*
X230052656Y-66489928D01*
X230052656Y-66489928D02*
X230052656Y-66251833D01*
X230052656Y-66251833D02*
X230005037Y-66156595D01*
X230005037Y-66156595D02*
X229957417Y-66108976D01*
X229957417Y-66108976D02*
X229862179Y-66061357D01*
X229862179Y-66061357D02*
X229766941Y-66061357D01*
X229766941Y-66061357D02*
X229671703Y-66108976D01*
X229671703Y-66108976D02*
X229624084Y-66156595D01*
X229624084Y-66156595D02*
X229576465Y-66251833D01*
X229576465Y-66251833D02*
X229528846Y-66442309D01*
X229528846Y-66442309D02*
X229481227Y-66537547D01*
X229481227Y-66537547D02*
X229433608Y-66585166D01*
X229433608Y-66585166D02*
X229338370Y-66632785D01*
X229338370Y-66632785D02*
X229243132Y-66632785D01*
X229243132Y-66632785D02*
X229147894Y-66585166D01*
X229147894Y-66585166D02*
X229100275Y-66537547D01*
X229100275Y-66537547D02*
X229052656Y-66442309D01*
X229052656Y-66442309D02*
X229052656Y-66204214D01*
X229052656Y-66204214D02*
X229100275Y-66061357D01*
X229052656Y-65728023D02*
X230052656Y-65489928D01*
X230052656Y-65489928D02*
X229338370Y-65299452D01*
X229338370Y-65299452D02*
X230052656Y-65108976D01*
X230052656Y-65108976D02*
X229052656Y-64870881D01*
X230052656Y-63966119D02*
X230052656Y-64537547D01*
X230052656Y-64251833D02*
X229052656Y-64251833D01*
X229052656Y-64251833D02*
X229195513Y-64347071D01*
X229195513Y-64347071D02*
X229290751Y-64442309D01*
X229290751Y-64442309D02*
X229338370Y-64537547D01*
X229052656Y-63347071D02*
X229052656Y-63251833D01*
X229052656Y-63251833D02*
X229100275Y-63156595D01*
X229100275Y-63156595D02*
X229147894Y-63108976D01*
X229147894Y-63108976D02*
X229243132Y-63061357D01*
X229243132Y-63061357D02*
X229433608Y-63013738D01*
X229433608Y-63013738D02*
X229671703Y-63013738D01*
X229671703Y-63013738D02*
X229862179Y-63061357D01*
X229862179Y-63061357D02*
X229957417Y-63108976D01*
X229957417Y-63108976D02*
X230005037Y-63156595D01*
X230005037Y-63156595D02*
X230052656Y-63251833D01*
X230052656Y-63251833D02*
X230052656Y-63347071D01*
X230052656Y-63347071D02*
X230005037Y-63442309D01*
X230005037Y-63442309D02*
X229957417Y-63489928D01*
X229957417Y-63489928D02*
X229862179Y-63537547D01*
X229862179Y-63537547D02*
X229671703Y-63585166D01*
X229671703Y-63585166D02*
X229433608Y-63585166D01*
X229433608Y-63585166D02*
X229243132Y-63537547D01*
X229243132Y-63537547D02*
X229147894Y-63489928D01*
X229147894Y-63489928D02*
X229100275Y-63442309D01*
X229100275Y-63442309D02*
X229052656Y-63347071D01*
X128988333Y-59584819D02*
X128655000Y-59108628D01*
X128416905Y-59584819D02*
X128416905Y-58584819D01*
X128416905Y-58584819D02*
X128797857Y-58584819D01*
X128797857Y-58584819D02*
X128893095Y-58632438D01*
X128893095Y-58632438D02*
X128940714Y-58680057D01*
X128940714Y-58680057D02*
X128988333Y-58775295D01*
X128988333Y-58775295D02*
X128988333Y-58918152D01*
X128988333Y-58918152D02*
X128940714Y-59013390D01*
X128940714Y-59013390D02*
X128893095Y-59061009D01*
X128893095Y-59061009D02*
X128797857Y-59108628D01*
X128797857Y-59108628D02*
X128416905Y-59108628D01*
X129845476Y-58584819D02*
X129655000Y-58584819D01*
X129655000Y-58584819D02*
X129559762Y-58632438D01*
X129559762Y-58632438D02*
X129512143Y-58680057D01*
X129512143Y-58680057D02*
X129416905Y-58822914D01*
X129416905Y-58822914D02*
X129369286Y-59013390D01*
X129369286Y-59013390D02*
X129369286Y-59394342D01*
X129369286Y-59394342D02*
X129416905Y-59489580D01*
X129416905Y-59489580D02*
X129464524Y-59537200D01*
X129464524Y-59537200D02*
X129559762Y-59584819D01*
X129559762Y-59584819D02*
X129750238Y-59584819D01*
X129750238Y-59584819D02*
X129845476Y-59537200D01*
X129845476Y-59537200D02*
X129893095Y-59489580D01*
X129893095Y-59489580D02*
X129940714Y-59394342D01*
X129940714Y-59394342D02*
X129940714Y-59156247D01*
X129940714Y-59156247D02*
X129893095Y-59061009D01*
X129893095Y-59061009D02*
X129845476Y-59013390D01*
X129845476Y-59013390D02*
X129750238Y-58965771D01*
X129750238Y-58965771D02*
X129559762Y-58965771D01*
X129559762Y-58965771D02*
X129464524Y-59013390D01*
X129464524Y-59013390D02*
X129416905Y-59061009D01*
X129416905Y-59061009D02*
X129369286Y-59156247D01*
X249207250Y-85735826D02*
X249254869Y-85592969D01*
X249254869Y-85592969D02*
X249254869Y-85354874D01*
X249254869Y-85354874D02*
X249207250Y-85259636D01*
X249207250Y-85259636D02*
X249159630Y-85212017D01*
X249159630Y-85212017D02*
X249064392Y-85164398D01*
X249064392Y-85164398D02*
X248969154Y-85164398D01*
X248969154Y-85164398D02*
X248873916Y-85212017D01*
X248873916Y-85212017D02*
X248826297Y-85259636D01*
X248826297Y-85259636D02*
X248778678Y-85354874D01*
X248778678Y-85354874D02*
X248731059Y-85545350D01*
X248731059Y-85545350D02*
X248683440Y-85640588D01*
X248683440Y-85640588D02*
X248635821Y-85688207D01*
X248635821Y-85688207D02*
X248540583Y-85735826D01*
X248540583Y-85735826D02*
X248445345Y-85735826D01*
X248445345Y-85735826D02*
X248350107Y-85688207D01*
X248350107Y-85688207D02*
X248302488Y-85640588D01*
X248302488Y-85640588D02*
X248254869Y-85545350D01*
X248254869Y-85545350D02*
X248254869Y-85307255D01*
X248254869Y-85307255D02*
X248302488Y-85164398D01*
X248254869Y-84831064D02*
X249254869Y-84592969D01*
X249254869Y-84592969D02*
X248540583Y-84402493D01*
X248540583Y-84402493D02*
X249254869Y-84212017D01*
X249254869Y-84212017D02*
X248254869Y-83973922D01*
X248588202Y-83164398D02*
X249254869Y-83164398D01*
X248207250Y-83402493D02*
X248921535Y-83640588D01*
X248921535Y-83640588D02*
X248921535Y-83021541D01*
X141892250Y-151458207D02*
X141939869Y-151315350D01*
X141939869Y-151315350D02*
X141939869Y-151077255D01*
X141939869Y-151077255D02*
X141892250Y-150982017D01*
X141892250Y-150982017D02*
X141844630Y-150934398D01*
X141844630Y-150934398D02*
X141749392Y-150886779D01*
X141749392Y-150886779D02*
X141654154Y-150886779D01*
X141654154Y-150886779D02*
X141558916Y-150934398D01*
X141558916Y-150934398D02*
X141511297Y-150982017D01*
X141511297Y-150982017D02*
X141463678Y-151077255D01*
X141463678Y-151077255D02*
X141416059Y-151267731D01*
X141416059Y-151267731D02*
X141368440Y-151362969D01*
X141368440Y-151362969D02*
X141320821Y-151410588D01*
X141320821Y-151410588D02*
X141225583Y-151458207D01*
X141225583Y-151458207D02*
X141130345Y-151458207D01*
X141130345Y-151458207D02*
X141035107Y-151410588D01*
X141035107Y-151410588D02*
X140987488Y-151362969D01*
X140987488Y-151362969D02*
X140939869Y-151267731D01*
X140939869Y-151267731D02*
X140939869Y-151029636D01*
X140939869Y-151029636D02*
X140987488Y-150886779D01*
X140939869Y-150553445D02*
X141939869Y-150315350D01*
X141939869Y-150315350D02*
X141225583Y-150124874D01*
X141225583Y-150124874D02*
X141939869Y-149934398D01*
X141939869Y-149934398D02*
X140939869Y-149696303D01*
X141939869Y-148791541D02*
X141939869Y-149362969D01*
X141939869Y-149077255D02*
X140939869Y-149077255D01*
X140939869Y-149077255D02*
X141082726Y-149172493D01*
X141082726Y-149172493D02*
X141177964Y-149267731D01*
X141177964Y-149267731D02*
X141225583Y-149362969D01*
X141939869Y-147839160D02*
X141939869Y-148410588D01*
X141939869Y-148124874D02*
X140939869Y-148124874D01*
X140939869Y-148124874D02*
X141082726Y-148220112D01*
X141082726Y-148220112D02*
X141177964Y-148315350D01*
X141177964Y-148315350D02*
X141225583Y-148410588D01*
X230157250Y-123835826D02*
X230204869Y-123692969D01*
X230204869Y-123692969D02*
X230204869Y-123454874D01*
X230204869Y-123454874D02*
X230157250Y-123359636D01*
X230157250Y-123359636D02*
X230109630Y-123312017D01*
X230109630Y-123312017D02*
X230014392Y-123264398D01*
X230014392Y-123264398D02*
X229919154Y-123264398D01*
X229919154Y-123264398D02*
X229823916Y-123312017D01*
X229823916Y-123312017D02*
X229776297Y-123359636D01*
X229776297Y-123359636D02*
X229728678Y-123454874D01*
X229728678Y-123454874D02*
X229681059Y-123645350D01*
X229681059Y-123645350D02*
X229633440Y-123740588D01*
X229633440Y-123740588D02*
X229585821Y-123788207D01*
X229585821Y-123788207D02*
X229490583Y-123835826D01*
X229490583Y-123835826D02*
X229395345Y-123835826D01*
X229395345Y-123835826D02*
X229300107Y-123788207D01*
X229300107Y-123788207D02*
X229252488Y-123740588D01*
X229252488Y-123740588D02*
X229204869Y-123645350D01*
X229204869Y-123645350D02*
X229204869Y-123407255D01*
X229204869Y-123407255D02*
X229252488Y-123264398D01*
X229204869Y-122931064D02*
X230204869Y-122692969D01*
X230204869Y-122692969D02*
X229490583Y-122502493D01*
X229490583Y-122502493D02*
X230204869Y-122312017D01*
X230204869Y-122312017D02*
X229204869Y-122073922D01*
X229204869Y-121788207D02*
X229204869Y-121121541D01*
X229204869Y-121121541D02*
X230204869Y-121550112D01*
X249207250Y-123835826D02*
X249254869Y-123692969D01*
X249254869Y-123692969D02*
X249254869Y-123454874D01*
X249254869Y-123454874D02*
X249207250Y-123359636D01*
X249207250Y-123359636D02*
X249159630Y-123312017D01*
X249159630Y-123312017D02*
X249064392Y-123264398D01*
X249064392Y-123264398D02*
X248969154Y-123264398D01*
X248969154Y-123264398D02*
X248873916Y-123312017D01*
X248873916Y-123312017D02*
X248826297Y-123359636D01*
X248826297Y-123359636D02*
X248778678Y-123454874D01*
X248778678Y-123454874D02*
X248731059Y-123645350D01*
X248731059Y-123645350D02*
X248683440Y-123740588D01*
X248683440Y-123740588D02*
X248635821Y-123788207D01*
X248635821Y-123788207D02*
X248540583Y-123835826D01*
X248540583Y-123835826D02*
X248445345Y-123835826D01*
X248445345Y-123835826D02*
X248350107Y-123788207D01*
X248350107Y-123788207D02*
X248302488Y-123740588D01*
X248302488Y-123740588D02*
X248254869Y-123645350D01*
X248254869Y-123645350D02*
X248254869Y-123407255D01*
X248254869Y-123407255D02*
X248302488Y-123264398D01*
X248254869Y-122931064D02*
X249254869Y-122692969D01*
X249254869Y-122692969D02*
X248540583Y-122502493D01*
X248540583Y-122502493D02*
X249254869Y-122312017D01*
X249254869Y-122312017D02*
X248254869Y-122073922D01*
X248350107Y-121740588D02*
X248302488Y-121692969D01*
X248302488Y-121692969D02*
X248254869Y-121597731D01*
X248254869Y-121597731D02*
X248254869Y-121359636D01*
X248254869Y-121359636D02*
X248302488Y-121264398D01*
X248302488Y-121264398D02*
X248350107Y-121216779D01*
X248350107Y-121216779D02*
X248445345Y-121169160D01*
X248445345Y-121169160D02*
X248540583Y-121169160D01*
X248540583Y-121169160D02*
X248683440Y-121216779D01*
X248683440Y-121216779D02*
X249254869Y-121788207D01*
X249254869Y-121788207D02*
X249254869Y-121169160D01*
X127940714Y-47932819D02*
X127940714Y-46932819D01*
X127940714Y-46932819D02*
X128178809Y-46932819D01*
X128178809Y-46932819D02*
X128321666Y-46980438D01*
X128321666Y-46980438D02*
X128416904Y-47075676D01*
X128416904Y-47075676D02*
X128464523Y-47170914D01*
X128464523Y-47170914D02*
X128512142Y-47361390D01*
X128512142Y-47361390D02*
X128512142Y-47504247D01*
X128512142Y-47504247D02*
X128464523Y-47694723D01*
X128464523Y-47694723D02*
X128416904Y-47789961D01*
X128416904Y-47789961D02*
X128321666Y-47885200D01*
X128321666Y-47885200D02*
X128178809Y-47932819D01*
X128178809Y-47932819D02*
X127940714Y-47932819D01*
X128845476Y-46932819D02*
X129464523Y-46932819D01*
X129464523Y-46932819D02*
X129131190Y-47313771D01*
X129131190Y-47313771D02*
X129274047Y-47313771D01*
X129274047Y-47313771D02*
X129369285Y-47361390D01*
X129369285Y-47361390D02*
X129416904Y-47409009D01*
X129416904Y-47409009D02*
X129464523Y-47504247D01*
X129464523Y-47504247D02*
X129464523Y-47742342D01*
X129464523Y-47742342D02*
X129416904Y-47837580D01*
X129416904Y-47837580D02*
X129369285Y-47885200D01*
X129369285Y-47885200D02*
X129274047Y-47932819D01*
X129274047Y-47932819D02*
X128988333Y-47932819D01*
X128988333Y-47932819D02*
X128893095Y-47885200D01*
X128893095Y-47885200D02*
X128845476Y-47837580D01*
X130416904Y-47932819D02*
X129845476Y-47932819D01*
X130131190Y-47932819D02*
X130131190Y-46932819D01*
X130131190Y-46932819D02*
X130035952Y-47075676D01*
X130035952Y-47075676D02*
X129940714Y-47170914D01*
X129940714Y-47170914D02*
X129845476Y-47218533D01*
X141892250Y-132408207D02*
X141939869Y-132265350D01*
X141939869Y-132265350D02*
X141939869Y-132027255D01*
X141939869Y-132027255D02*
X141892250Y-131932017D01*
X141892250Y-131932017D02*
X141844630Y-131884398D01*
X141844630Y-131884398D02*
X141749392Y-131836779D01*
X141749392Y-131836779D02*
X141654154Y-131836779D01*
X141654154Y-131836779D02*
X141558916Y-131884398D01*
X141558916Y-131884398D02*
X141511297Y-131932017D01*
X141511297Y-131932017D02*
X141463678Y-132027255D01*
X141463678Y-132027255D02*
X141416059Y-132217731D01*
X141416059Y-132217731D02*
X141368440Y-132312969D01*
X141368440Y-132312969D02*
X141320821Y-132360588D01*
X141320821Y-132360588D02*
X141225583Y-132408207D01*
X141225583Y-132408207D02*
X141130345Y-132408207D01*
X141130345Y-132408207D02*
X141035107Y-132360588D01*
X141035107Y-132360588D02*
X140987488Y-132312969D01*
X140987488Y-132312969D02*
X140939869Y-132217731D01*
X140939869Y-132217731D02*
X140939869Y-131979636D01*
X140939869Y-131979636D02*
X140987488Y-131836779D01*
X140939869Y-131503445D02*
X141939869Y-131265350D01*
X141939869Y-131265350D02*
X141225583Y-131074874D01*
X141225583Y-131074874D02*
X141939869Y-130884398D01*
X141939869Y-130884398D02*
X140939869Y-130646303D01*
X141035107Y-130312969D02*
X140987488Y-130265350D01*
X140987488Y-130265350D02*
X140939869Y-130170112D01*
X140939869Y-130170112D02*
X140939869Y-129932017D01*
X140939869Y-129932017D02*
X140987488Y-129836779D01*
X140987488Y-129836779D02*
X141035107Y-129789160D01*
X141035107Y-129789160D02*
X141130345Y-129741541D01*
X141130345Y-129741541D02*
X141225583Y-129741541D01*
X141225583Y-129741541D02*
X141368440Y-129789160D01*
X141368440Y-129789160D02*
X141939869Y-130360588D01*
X141939869Y-130360588D02*
X141939869Y-129741541D01*
X141939869Y-128789160D02*
X141939869Y-129360588D01*
X141939869Y-129074874D02*
X140939869Y-129074874D01*
X140939869Y-129074874D02*
X141082726Y-129170112D01*
X141082726Y-129170112D02*
X141177964Y-129265350D01*
X141177964Y-129265350D02*
X141225583Y-129360588D01*
X116668333Y-106487819D02*
X116335000Y-106011628D01*
X116096905Y-106487819D02*
X116096905Y-105487819D01*
X116096905Y-105487819D02*
X116477857Y-105487819D01*
X116477857Y-105487819D02*
X116573095Y-105535438D01*
X116573095Y-105535438D02*
X116620714Y-105583057D01*
X116620714Y-105583057D02*
X116668333Y-105678295D01*
X116668333Y-105678295D02*
X116668333Y-105821152D01*
X116668333Y-105821152D02*
X116620714Y-105916390D01*
X116620714Y-105916390D02*
X116573095Y-105964009D01*
X116573095Y-105964009D02*
X116477857Y-106011628D01*
X116477857Y-106011628D02*
X116096905Y-106011628D01*
X117525476Y-105821152D02*
X117525476Y-106487819D01*
X117287381Y-105440200D02*
X117049286Y-106154485D01*
X117049286Y-106154485D02*
X117668333Y-106154485D01*
X192057250Y-67320707D02*
X192104869Y-67177850D01*
X192104869Y-67177850D02*
X192104869Y-66939755D01*
X192104869Y-66939755D02*
X192057250Y-66844517D01*
X192057250Y-66844517D02*
X192009630Y-66796898D01*
X192009630Y-66796898D02*
X191914392Y-66749279D01*
X191914392Y-66749279D02*
X191819154Y-66749279D01*
X191819154Y-66749279D02*
X191723916Y-66796898D01*
X191723916Y-66796898D02*
X191676297Y-66844517D01*
X191676297Y-66844517D02*
X191628678Y-66939755D01*
X191628678Y-66939755D02*
X191581059Y-67130231D01*
X191581059Y-67130231D02*
X191533440Y-67225469D01*
X191533440Y-67225469D02*
X191485821Y-67273088D01*
X191485821Y-67273088D02*
X191390583Y-67320707D01*
X191390583Y-67320707D02*
X191295345Y-67320707D01*
X191295345Y-67320707D02*
X191200107Y-67273088D01*
X191200107Y-67273088D02*
X191152488Y-67225469D01*
X191152488Y-67225469D02*
X191104869Y-67130231D01*
X191104869Y-67130231D02*
X191104869Y-66892136D01*
X191104869Y-66892136D02*
X191152488Y-66749279D01*
X191104869Y-66415945D02*
X192104869Y-66177850D01*
X192104869Y-66177850D02*
X191390583Y-65987374D01*
X191390583Y-65987374D02*
X192104869Y-65796898D01*
X192104869Y-65796898D02*
X191104869Y-65558803D01*
X192104869Y-64654041D02*
X192104869Y-65225469D01*
X192104869Y-64939755D02*
X191104869Y-64939755D01*
X191104869Y-64939755D02*
X191247726Y-65034993D01*
X191247726Y-65034993D02*
X191342964Y-65130231D01*
X191342964Y-65130231D02*
X191390583Y-65225469D01*
X192104869Y-64177850D02*
X192104869Y-63987374D01*
X192104869Y-63987374D02*
X192057250Y-63892136D01*
X192057250Y-63892136D02*
X192009630Y-63844517D01*
X192009630Y-63844517D02*
X191866773Y-63749279D01*
X191866773Y-63749279D02*
X191676297Y-63701660D01*
X191676297Y-63701660D02*
X191295345Y-63701660D01*
X191295345Y-63701660D02*
X191200107Y-63749279D01*
X191200107Y-63749279D02*
X191152488Y-63796898D01*
X191152488Y-63796898D02*
X191104869Y-63892136D01*
X191104869Y-63892136D02*
X191104869Y-64082612D01*
X191104869Y-64082612D02*
X191152488Y-64177850D01*
X191152488Y-64177850D02*
X191200107Y-64225469D01*
X191200107Y-64225469D02*
X191295345Y-64273088D01*
X191295345Y-64273088D02*
X191533440Y-64273088D01*
X191533440Y-64273088D02*
X191628678Y-64225469D01*
X191628678Y-64225469D02*
X191676297Y-64177850D01*
X191676297Y-64177850D02*
X191723916Y-64082612D01*
X191723916Y-64082612D02*
X191723916Y-63892136D01*
X191723916Y-63892136D02*
X191676297Y-63796898D01*
X191676297Y-63796898D02*
X191628678Y-63749279D01*
X191628678Y-63749279D02*
X191533440Y-63701660D01*
X173007250Y-94308207D02*
X173054869Y-94165350D01*
X173054869Y-94165350D02*
X173054869Y-93927255D01*
X173054869Y-93927255D02*
X173007250Y-93832017D01*
X173007250Y-93832017D02*
X172959630Y-93784398D01*
X172959630Y-93784398D02*
X172864392Y-93736779D01*
X172864392Y-93736779D02*
X172769154Y-93736779D01*
X172769154Y-93736779D02*
X172673916Y-93784398D01*
X172673916Y-93784398D02*
X172626297Y-93832017D01*
X172626297Y-93832017D02*
X172578678Y-93927255D01*
X172578678Y-93927255D02*
X172531059Y-94117731D01*
X172531059Y-94117731D02*
X172483440Y-94212969D01*
X172483440Y-94212969D02*
X172435821Y-94260588D01*
X172435821Y-94260588D02*
X172340583Y-94308207D01*
X172340583Y-94308207D02*
X172245345Y-94308207D01*
X172245345Y-94308207D02*
X172150107Y-94260588D01*
X172150107Y-94260588D02*
X172102488Y-94212969D01*
X172102488Y-94212969D02*
X172054869Y-94117731D01*
X172054869Y-94117731D02*
X172054869Y-93879636D01*
X172054869Y-93879636D02*
X172102488Y-93736779D01*
X172054869Y-93403445D02*
X173054869Y-93165350D01*
X173054869Y-93165350D02*
X172340583Y-92974874D01*
X172340583Y-92974874D02*
X173054869Y-92784398D01*
X173054869Y-92784398D02*
X172054869Y-92546303D01*
X172150107Y-92212969D02*
X172102488Y-92165350D01*
X172102488Y-92165350D02*
X172054869Y-92070112D01*
X172054869Y-92070112D02*
X172054869Y-91832017D01*
X172054869Y-91832017D02*
X172102488Y-91736779D01*
X172102488Y-91736779D02*
X172150107Y-91689160D01*
X172150107Y-91689160D02*
X172245345Y-91641541D01*
X172245345Y-91641541D02*
X172340583Y-91641541D01*
X172340583Y-91641541D02*
X172483440Y-91689160D01*
X172483440Y-91689160D02*
X173054869Y-92260588D01*
X173054869Y-92260588D02*
X173054869Y-91641541D01*
X172054869Y-91308207D02*
X172054869Y-90689160D01*
X172054869Y-90689160D02*
X172435821Y-91022493D01*
X172435821Y-91022493D02*
X172435821Y-90879636D01*
X172435821Y-90879636D02*
X172483440Y-90784398D01*
X172483440Y-90784398D02*
X172531059Y-90736779D01*
X172531059Y-90736779D02*
X172626297Y-90689160D01*
X172626297Y-90689160D02*
X172864392Y-90689160D01*
X172864392Y-90689160D02*
X172959630Y-90736779D01*
X172959630Y-90736779D02*
X173007250Y-90784398D01*
X173007250Y-90784398D02*
X173054869Y-90879636D01*
X173054869Y-90879636D02*
X173054869Y-91165350D01*
X173054869Y-91165350D02*
X173007250Y-91260588D01*
X173007250Y-91260588D02*
X172959630Y-91308207D01*
X211107250Y-72718207D02*
X211154869Y-72575350D01*
X211154869Y-72575350D02*
X211154869Y-72337255D01*
X211154869Y-72337255D02*
X211107250Y-72242017D01*
X211107250Y-72242017D02*
X211059630Y-72194398D01*
X211059630Y-72194398D02*
X210964392Y-72146779D01*
X210964392Y-72146779D02*
X210869154Y-72146779D01*
X210869154Y-72146779D02*
X210773916Y-72194398D01*
X210773916Y-72194398D02*
X210726297Y-72242017D01*
X210726297Y-72242017D02*
X210678678Y-72337255D01*
X210678678Y-72337255D02*
X210631059Y-72527731D01*
X210631059Y-72527731D02*
X210583440Y-72622969D01*
X210583440Y-72622969D02*
X210535821Y-72670588D01*
X210535821Y-72670588D02*
X210440583Y-72718207D01*
X210440583Y-72718207D02*
X210345345Y-72718207D01*
X210345345Y-72718207D02*
X210250107Y-72670588D01*
X210250107Y-72670588D02*
X210202488Y-72622969D01*
X210202488Y-72622969D02*
X210154869Y-72527731D01*
X210154869Y-72527731D02*
X210154869Y-72289636D01*
X210154869Y-72289636D02*
X210202488Y-72146779D01*
X210154869Y-71813445D02*
X211154869Y-71575350D01*
X211154869Y-71575350D02*
X210440583Y-71384874D01*
X210440583Y-71384874D02*
X211154869Y-71194398D01*
X211154869Y-71194398D02*
X210154869Y-70956303D01*
X211154869Y-70051541D02*
X211154869Y-70622969D01*
X211154869Y-70337255D02*
X210154869Y-70337255D01*
X210154869Y-70337255D02*
X210297726Y-70432493D01*
X210297726Y-70432493D02*
X210392964Y-70527731D01*
X210392964Y-70527731D02*
X210440583Y-70622969D01*
X210488202Y-69194398D02*
X211154869Y-69194398D01*
X210107250Y-69432493D02*
X210821535Y-69670588D01*
X210821535Y-69670588D02*
X210821535Y-69051541D01*
X211107250Y-53668207D02*
X211154869Y-53525350D01*
X211154869Y-53525350D02*
X211154869Y-53287255D01*
X211154869Y-53287255D02*
X211107250Y-53192017D01*
X211107250Y-53192017D02*
X211059630Y-53144398D01*
X211059630Y-53144398D02*
X210964392Y-53096779D01*
X210964392Y-53096779D02*
X210869154Y-53096779D01*
X210869154Y-53096779D02*
X210773916Y-53144398D01*
X210773916Y-53144398D02*
X210726297Y-53192017D01*
X210726297Y-53192017D02*
X210678678Y-53287255D01*
X210678678Y-53287255D02*
X210631059Y-53477731D01*
X210631059Y-53477731D02*
X210583440Y-53572969D01*
X210583440Y-53572969D02*
X210535821Y-53620588D01*
X210535821Y-53620588D02*
X210440583Y-53668207D01*
X210440583Y-53668207D02*
X210345345Y-53668207D01*
X210345345Y-53668207D02*
X210250107Y-53620588D01*
X210250107Y-53620588D02*
X210202488Y-53572969D01*
X210202488Y-53572969D02*
X210154869Y-53477731D01*
X210154869Y-53477731D02*
X210154869Y-53239636D01*
X210154869Y-53239636D02*
X210202488Y-53096779D01*
X210154869Y-52763445D02*
X211154869Y-52525350D01*
X211154869Y-52525350D02*
X210440583Y-52334874D01*
X210440583Y-52334874D02*
X211154869Y-52144398D01*
X211154869Y-52144398D02*
X210154869Y-51906303D01*
X211154869Y-51001541D02*
X211154869Y-51572969D01*
X211154869Y-51287255D02*
X210154869Y-51287255D01*
X210154869Y-51287255D02*
X210297726Y-51382493D01*
X210297726Y-51382493D02*
X210392964Y-51477731D01*
X210392964Y-51477731D02*
X210440583Y-51572969D01*
X210154869Y-50096779D02*
X210154869Y-50572969D01*
X210154869Y-50572969D02*
X210631059Y-50620588D01*
X210631059Y-50620588D02*
X210583440Y-50572969D01*
X210583440Y-50572969D02*
X210535821Y-50477731D01*
X210535821Y-50477731D02*
X210535821Y-50239636D01*
X210535821Y-50239636D02*
X210583440Y-50144398D01*
X210583440Y-50144398D02*
X210631059Y-50096779D01*
X210631059Y-50096779D02*
X210726297Y-50049160D01*
X210726297Y-50049160D02*
X210964392Y-50049160D01*
X210964392Y-50049160D02*
X211059630Y-50096779D01*
X211059630Y-50096779D02*
X211107250Y-50144398D01*
X211107250Y-50144398D02*
X211154869Y-50239636D01*
X211154869Y-50239636D02*
X211154869Y-50477731D01*
X211154869Y-50477731D02*
X211107250Y-50572969D01*
X211107250Y-50572969D02*
X211059630Y-50620588D01*
X116668333Y-111487819D02*
X116335000Y-111011628D01*
X116096905Y-111487819D02*
X116096905Y-110487819D01*
X116096905Y-110487819D02*
X116477857Y-110487819D01*
X116477857Y-110487819D02*
X116573095Y-110535438D01*
X116573095Y-110535438D02*
X116620714Y-110583057D01*
X116620714Y-110583057D02*
X116668333Y-110678295D01*
X116668333Y-110678295D02*
X116668333Y-110821152D01*
X116668333Y-110821152D02*
X116620714Y-110916390D01*
X116620714Y-110916390D02*
X116573095Y-110964009D01*
X116573095Y-110964009D02*
X116477857Y-111011628D01*
X116477857Y-111011628D02*
X116096905Y-111011628D01*
X117049286Y-110583057D02*
X117096905Y-110535438D01*
X117096905Y-110535438D02*
X117192143Y-110487819D01*
X117192143Y-110487819D02*
X117430238Y-110487819D01*
X117430238Y-110487819D02*
X117525476Y-110535438D01*
X117525476Y-110535438D02*
X117573095Y-110583057D01*
X117573095Y-110583057D02*
X117620714Y-110678295D01*
X117620714Y-110678295D02*
X117620714Y-110773533D01*
X117620714Y-110773533D02*
X117573095Y-110916390D01*
X117573095Y-110916390D02*
X117001667Y-111487819D01*
X117001667Y-111487819D02*
X117620714Y-111487819D01*
X122842250Y-150505826D02*
X122889869Y-150362969D01*
X122889869Y-150362969D02*
X122889869Y-150124874D01*
X122889869Y-150124874D02*
X122842250Y-150029636D01*
X122842250Y-150029636D02*
X122794630Y-149982017D01*
X122794630Y-149982017D02*
X122699392Y-149934398D01*
X122699392Y-149934398D02*
X122604154Y-149934398D01*
X122604154Y-149934398D02*
X122508916Y-149982017D01*
X122508916Y-149982017D02*
X122461297Y-150029636D01*
X122461297Y-150029636D02*
X122413678Y-150124874D01*
X122413678Y-150124874D02*
X122366059Y-150315350D01*
X122366059Y-150315350D02*
X122318440Y-150410588D01*
X122318440Y-150410588D02*
X122270821Y-150458207D01*
X122270821Y-150458207D02*
X122175583Y-150505826D01*
X122175583Y-150505826D02*
X122080345Y-150505826D01*
X122080345Y-150505826D02*
X121985107Y-150458207D01*
X121985107Y-150458207D02*
X121937488Y-150410588D01*
X121937488Y-150410588D02*
X121889869Y-150315350D01*
X121889869Y-150315350D02*
X121889869Y-150077255D01*
X121889869Y-150077255D02*
X121937488Y-149934398D01*
X121889869Y-149601064D02*
X122889869Y-149362969D01*
X122889869Y-149362969D02*
X122175583Y-149172493D01*
X122175583Y-149172493D02*
X122889869Y-148982017D01*
X122889869Y-148982017D02*
X121889869Y-148743922D01*
X121889869Y-147934398D02*
X121889869Y-148124874D01*
X121889869Y-148124874D02*
X121937488Y-148220112D01*
X121937488Y-148220112D02*
X121985107Y-148267731D01*
X121985107Y-148267731D02*
X122127964Y-148362969D01*
X122127964Y-148362969D02*
X122318440Y-148410588D01*
X122318440Y-148410588D02*
X122699392Y-148410588D01*
X122699392Y-148410588D02*
X122794630Y-148362969D01*
X122794630Y-148362969D02*
X122842250Y-148315350D01*
X122842250Y-148315350D02*
X122889869Y-148220112D01*
X122889869Y-148220112D02*
X122889869Y-148029636D01*
X122889869Y-148029636D02*
X122842250Y-147934398D01*
X122842250Y-147934398D02*
X122794630Y-147886779D01*
X122794630Y-147886779D02*
X122699392Y-147839160D01*
X122699392Y-147839160D02*
X122461297Y-147839160D01*
X122461297Y-147839160D02*
X122366059Y-147886779D01*
X122366059Y-147886779D02*
X122318440Y-147934398D01*
X122318440Y-147934398D02*
X122270821Y-148029636D01*
X122270821Y-148029636D02*
X122270821Y-148220112D01*
X122270821Y-148220112D02*
X122318440Y-148315350D01*
X122318440Y-148315350D02*
X122366059Y-148362969D01*
X122366059Y-148362969D02*
X122461297Y-148410588D01*
X122842250Y-132408207D02*
X122889869Y-132265350D01*
X122889869Y-132265350D02*
X122889869Y-132027255D01*
X122889869Y-132027255D02*
X122842250Y-131932017D01*
X122842250Y-131932017D02*
X122794630Y-131884398D01*
X122794630Y-131884398D02*
X122699392Y-131836779D01*
X122699392Y-131836779D02*
X122604154Y-131836779D01*
X122604154Y-131836779D02*
X122508916Y-131884398D01*
X122508916Y-131884398D02*
X122461297Y-131932017D01*
X122461297Y-131932017D02*
X122413678Y-132027255D01*
X122413678Y-132027255D02*
X122366059Y-132217731D01*
X122366059Y-132217731D02*
X122318440Y-132312969D01*
X122318440Y-132312969D02*
X122270821Y-132360588D01*
X122270821Y-132360588D02*
X122175583Y-132408207D01*
X122175583Y-132408207D02*
X122080345Y-132408207D01*
X122080345Y-132408207D02*
X121985107Y-132360588D01*
X121985107Y-132360588D02*
X121937488Y-132312969D01*
X121937488Y-132312969D02*
X121889869Y-132217731D01*
X121889869Y-132217731D02*
X121889869Y-131979636D01*
X121889869Y-131979636D02*
X121937488Y-131836779D01*
X121889869Y-131503445D02*
X122889869Y-131265350D01*
X122889869Y-131265350D02*
X122175583Y-131074874D01*
X122175583Y-131074874D02*
X122889869Y-130884398D01*
X122889869Y-130884398D02*
X121889869Y-130646303D01*
X122889869Y-129741541D02*
X122889869Y-130312969D01*
X122889869Y-130027255D02*
X121889869Y-130027255D01*
X121889869Y-130027255D02*
X122032726Y-130122493D01*
X122032726Y-130122493D02*
X122127964Y-130217731D01*
X122127964Y-130217731D02*
X122175583Y-130312969D01*
X121889869Y-128884398D02*
X121889869Y-129074874D01*
X121889869Y-129074874D02*
X121937488Y-129170112D01*
X121937488Y-129170112D02*
X121985107Y-129217731D01*
X121985107Y-129217731D02*
X122127964Y-129312969D01*
X122127964Y-129312969D02*
X122318440Y-129360588D01*
X122318440Y-129360588D02*
X122699392Y-129360588D01*
X122699392Y-129360588D02*
X122794630Y-129312969D01*
X122794630Y-129312969D02*
X122842250Y-129265350D01*
X122842250Y-129265350D02*
X122889869Y-129170112D01*
X122889869Y-129170112D02*
X122889869Y-128979636D01*
X122889869Y-128979636D02*
X122842250Y-128884398D01*
X122842250Y-128884398D02*
X122794630Y-128836779D01*
X122794630Y-128836779D02*
X122699392Y-128789160D01*
X122699392Y-128789160D02*
X122461297Y-128789160D01*
X122461297Y-128789160D02*
X122366059Y-128836779D01*
X122366059Y-128836779D02*
X122318440Y-128884398D01*
X122318440Y-128884398D02*
X122270821Y-128979636D01*
X122270821Y-128979636D02*
X122270821Y-129170112D01*
X122270821Y-129170112D02*
X122318440Y-129265350D01*
X122318440Y-129265350D02*
X122366059Y-129312969D01*
X122366059Y-129312969D02*
X122461297Y-129360588D01*
X129008333Y-50616819D02*
X128675000Y-50140628D01*
X128436905Y-50616819D02*
X128436905Y-49616819D01*
X128436905Y-49616819D02*
X128817857Y-49616819D01*
X128817857Y-49616819D02*
X128913095Y-49664438D01*
X128913095Y-49664438D02*
X128960714Y-49712057D01*
X128960714Y-49712057D02*
X129008333Y-49807295D01*
X129008333Y-49807295D02*
X129008333Y-49950152D01*
X129008333Y-49950152D02*
X128960714Y-50045390D01*
X128960714Y-50045390D02*
X128913095Y-50093009D01*
X128913095Y-50093009D02*
X128817857Y-50140628D01*
X128817857Y-50140628D02*
X128436905Y-50140628D01*
X129341667Y-49616819D02*
X130008333Y-49616819D01*
X130008333Y-49616819D02*
X129579762Y-50616819D01*
X173007200Y-56208207D02*
X173054819Y-56065350D01*
X173054819Y-56065350D02*
X173054819Y-55827255D01*
X173054819Y-55827255D02*
X173007200Y-55732017D01*
X173007200Y-55732017D02*
X172959580Y-55684398D01*
X172959580Y-55684398D02*
X172864342Y-55636779D01*
X172864342Y-55636779D02*
X172769104Y-55636779D01*
X172769104Y-55636779D02*
X172673866Y-55684398D01*
X172673866Y-55684398D02*
X172626247Y-55732017D01*
X172626247Y-55732017D02*
X172578628Y-55827255D01*
X172578628Y-55827255D02*
X172531009Y-56017731D01*
X172531009Y-56017731D02*
X172483390Y-56112969D01*
X172483390Y-56112969D02*
X172435771Y-56160588D01*
X172435771Y-56160588D02*
X172340533Y-56208207D01*
X172340533Y-56208207D02*
X172245295Y-56208207D01*
X172245295Y-56208207D02*
X172150057Y-56160588D01*
X172150057Y-56160588D02*
X172102438Y-56112969D01*
X172102438Y-56112969D02*
X172054819Y-56017731D01*
X172054819Y-56017731D02*
X172054819Y-55779636D01*
X172054819Y-55779636D02*
X172102438Y-55636779D01*
X172054819Y-55303445D02*
X173054819Y-55065350D01*
X173054819Y-55065350D02*
X172340533Y-54874874D01*
X172340533Y-54874874D02*
X173054819Y-54684398D01*
X173054819Y-54684398D02*
X172054819Y-54446303D01*
X172150057Y-54112969D02*
X172102438Y-54065350D01*
X172102438Y-54065350D02*
X172054819Y-53970112D01*
X172054819Y-53970112D02*
X172054819Y-53732017D01*
X172054819Y-53732017D02*
X172102438Y-53636779D01*
X172102438Y-53636779D02*
X172150057Y-53589160D01*
X172150057Y-53589160D02*
X172245295Y-53541541D01*
X172245295Y-53541541D02*
X172340533Y-53541541D01*
X172340533Y-53541541D02*
X172483390Y-53589160D01*
X172483390Y-53589160D02*
X173054819Y-54160588D01*
X173054819Y-54160588D02*
X173054819Y-53541541D01*
X172054819Y-52636779D02*
X172054819Y-53112969D01*
X172054819Y-53112969D02*
X172531009Y-53160588D01*
X172531009Y-53160588D02*
X172483390Y-53112969D01*
X172483390Y-53112969D02*
X172435771Y-53017731D01*
X172435771Y-53017731D02*
X172435771Y-52779636D01*
X172435771Y-52779636D02*
X172483390Y-52684398D01*
X172483390Y-52684398D02*
X172531009Y-52636779D01*
X172531009Y-52636779D02*
X172626247Y-52589160D01*
X172626247Y-52589160D02*
X172864342Y-52589160D01*
X172864342Y-52589160D02*
X172959580Y-52636779D01*
X172959580Y-52636779D02*
X173007200Y-52684398D01*
X173007200Y-52684398D02*
X173054819Y-52779636D01*
X173054819Y-52779636D02*
X173054819Y-53017731D01*
X173054819Y-53017731D02*
X173007200Y-53112969D01*
X173007200Y-53112969D02*
X172959580Y-53160588D01*
X116668333Y-113987819D02*
X116335000Y-113511628D01*
X116096905Y-113987819D02*
X116096905Y-112987819D01*
X116096905Y-112987819D02*
X116477857Y-112987819D01*
X116477857Y-112987819D02*
X116573095Y-113035438D01*
X116573095Y-113035438D02*
X116620714Y-113083057D01*
X116620714Y-113083057D02*
X116668333Y-113178295D01*
X116668333Y-113178295D02*
X116668333Y-113321152D01*
X116668333Y-113321152D02*
X116620714Y-113416390D01*
X116620714Y-113416390D02*
X116573095Y-113464009D01*
X116573095Y-113464009D02*
X116477857Y-113511628D01*
X116477857Y-113511628D02*
X116096905Y-113511628D01*
X117620714Y-113987819D02*
X117049286Y-113987819D01*
X117335000Y-113987819D02*
X117335000Y-112987819D01*
X117335000Y-112987819D02*
X117239762Y-113130676D01*
X117239762Y-113130676D02*
X117144524Y-113225914D01*
X117144524Y-113225914D02*
X117049286Y-113273533D01*
X192057250Y-105420707D02*
X192104869Y-105277850D01*
X192104869Y-105277850D02*
X192104869Y-105039755D01*
X192104869Y-105039755D02*
X192057250Y-104944517D01*
X192057250Y-104944517D02*
X192009630Y-104896898D01*
X192009630Y-104896898D02*
X191914392Y-104849279D01*
X191914392Y-104849279D02*
X191819154Y-104849279D01*
X191819154Y-104849279D02*
X191723916Y-104896898D01*
X191723916Y-104896898D02*
X191676297Y-104944517D01*
X191676297Y-104944517D02*
X191628678Y-105039755D01*
X191628678Y-105039755D02*
X191581059Y-105230231D01*
X191581059Y-105230231D02*
X191533440Y-105325469D01*
X191533440Y-105325469D02*
X191485821Y-105373088D01*
X191485821Y-105373088D02*
X191390583Y-105420707D01*
X191390583Y-105420707D02*
X191295345Y-105420707D01*
X191295345Y-105420707D02*
X191200107Y-105373088D01*
X191200107Y-105373088D02*
X191152488Y-105325469D01*
X191152488Y-105325469D02*
X191104869Y-105230231D01*
X191104869Y-105230231D02*
X191104869Y-104992136D01*
X191104869Y-104992136D02*
X191152488Y-104849279D01*
X191104869Y-104515945D02*
X192104869Y-104277850D01*
X192104869Y-104277850D02*
X191390583Y-104087374D01*
X191390583Y-104087374D02*
X192104869Y-103896898D01*
X192104869Y-103896898D02*
X191104869Y-103658803D01*
X192104869Y-102754041D02*
X192104869Y-103325469D01*
X192104869Y-103039755D02*
X191104869Y-103039755D01*
X191104869Y-103039755D02*
X191247726Y-103134993D01*
X191247726Y-103134993D02*
X191342964Y-103230231D01*
X191342964Y-103230231D02*
X191390583Y-103325469D01*
X191104869Y-102420707D02*
X191104869Y-101754041D01*
X191104869Y-101754041D02*
X192104869Y-102182612D01*
X153957200Y-56208207D02*
X154004819Y-56065350D01*
X154004819Y-56065350D02*
X154004819Y-55827255D01*
X154004819Y-55827255D02*
X153957200Y-55732017D01*
X153957200Y-55732017D02*
X153909580Y-55684398D01*
X153909580Y-55684398D02*
X153814342Y-55636779D01*
X153814342Y-55636779D02*
X153719104Y-55636779D01*
X153719104Y-55636779D02*
X153623866Y-55684398D01*
X153623866Y-55684398D02*
X153576247Y-55732017D01*
X153576247Y-55732017D02*
X153528628Y-55827255D01*
X153528628Y-55827255D02*
X153481009Y-56017731D01*
X153481009Y-56017731D02*
X153433390Y-56112969D01*
X153433390Y-56112969D02*
X153385771Y-56160588D01*
X153385771Y-56160588D02*
X153290533Y-56208207D01*
X153290533Y-56208207D02*
X153195295Y-56208207D01*
X153195295Y-56208207D02*
X153100057Y-56160588D01*
X153100057Y-56160588D02*
X153052438Y-56112969D01*
X153052438Y-56112969D02*
X153004819Y-56017731D01*
X153004819Y-56017731D02*
X153004819Y-55779636D01*
X153004819Y-55779636D02*
X153052438Y-55636779D01*
X153004819Y-55303445D02*
X154004819Y-55065350D01*
X154004819Y-55065350D02*
X153290533Y-54874874D01*
X153290533Y-54874874D02*
X154004819Y-54684398D01*
X154004819Y-54684398D02*
X153004819Y-54446303D01*
X153004819Y-54160588D02*
X153004819Y-53541541D01*
X153004819Y-53541541D02*
X153385771Y-53874874D01*
X153385771Y-53874874D02*
X153385771Y-53732017D01*
X153385771Y-53732017D02*
X153433390Y-53636779D01*
X153433390Y-53636779D02*
X153481009Y-53589160D01*
X153481009Y-53589160D02*
X153576247Y-53541541D01*
X153576247Y-53541541D02*
X153814342Y-53541541D01*
X153814342Y-53541541D02*
X153909580Y-53589160D01*
X153909580Y-53589160D02*
X153957200Y-53636779D01*
X153957200Y-53636779D02*
X154004819Y-53732017D01*
X154004819Y-53732017D02*
X154004819Y-54017731D01*
X154004819Y-54017731D02*
X153957200Y-54112969D01*
X153957200Y-54112969D02*
X153909580Y-54160588D01*
X153004819Y-52922493D02*
X153004819Y-52827255D01*
X153004819Y-52827255D02*
X153052438Y-52732017D01*
X153052438Y-52732017D02*
X153100057Y-52684398D01*
X153100057Y-52684398D02*
X153195295Y-52636779D01*
X153195295Y-52636779D02*
X153385771Y-52589160D01*
X153385771Y-52589160D02*
X153623866Y-52589160D01*
X153623866Y-52589160D02*
X153814342Y-52636779D01*
X153814342Y-52636779D02*
X153909580Y-52684398D01*
X153909580Y-52684398D02*
X153957200Y-52732017D01*
X153957200Y-52732017D02*
X154004819Y-52827255D01*
X154004819Y-52827255D02*
X154004819Y-52922493D01*
X154004819Y-52922493D02*
X153957200Y-53017731D01*
X153957200Y-53017731D02*
X153909580Y-53065350D01*
X153909580Y-53065350D02*
X153814342Y-53112969D01*
X153814342Y-53112969D02*
X153623866Y-53160588D01*
X153623866Y-53160588D02*
X153385771Y-53160588D01*
X153385771Y-53160588D02*
X153195295Y-53112969D01*
X153195295Y-53112969D02*
X153100057Y-53065350D01*
X153100057Y-53065350D02*
X153052438Y-53017731D01*
X153052438Y-53017731D02*
X153004819Y-52922493D01*
X122842250Y-169555826D02*
X122889869Y-169412969D01*
X122889869Y-169412969D02*
X122889869Y-169174874D01*
X122889869Y-169174874D02*
X122842250Y-169079636D01*
X122842250Y-169079636D02*
X122794630Y-169032017D01*
X122794630Y-169032017D02*
X122699392Y-168984398D01*
X122699392Y-168984398D02*
X122604154Y-168984398D01*
X122604154Y-168984398D02*
X122508916Y-169032017D01*
X122508916Y-169032017D02*
X122461297Y-169079636D01*
X122461297Y-169079636D02*
X122413678Y-169174874D01*
X122413678Y-169174874D02*
X122366059Y-169365350D01*
X122366059Y-169365350D02*
X122318440Y-169460588D01*
X122318440Y-169460588D02*
X122270821Y-169508207D01*
X122270821Y-169508207D02*
X122175583Y-169555826D01*
X122175583Y-169555826D02*
X122080345Y-169555826D01*
X122080345Y-169555826D02*
X121985107Y-169508207D01*
X121985107Y-169508207D02*
X121937488Y-169460588D01*
X121937488Y-169460588D02*
X121889869Y-169365350D01*
X121889869Y-169365350D02*
X121889869Y-169127255D01*
X121889869Y-169127255D02*
X121937488Y-168984398D01*
X121889869Y-168651064D02*
X122889869Y-168412969D01*
X122889869Y-168412969D02*
X122175583Y-168222493D01*
X122175583Y-168222493D02*
X122889869Y-168032017D01*
X122889869Y-168032017D02*
X121889869Y-167793922D01*
X122889869Y-166889160D02*
X122889869Y-167460588D01*
X122889869Y-167174874D02*
X121889869Y-167174874D01*
X121889869Y-167174874D02*
X122032726Y-167270112D01*
X122032726Y-167270112D02*
X122127964Y-167365350D01*
X122127964Y-167365350D02*
X122175583Y-167460588D01*
X116668333Y-103987819D02*
X116335000Y-103511628D01*
X116096905Y-103987819D02*
X116096905Y-102987819D01*
X116096905Y-102987819D02*
X116477857Y-102987819D01*
X116477857Y-102987819D02*
X116573095Y-103035438D01*
X116573095Y-103035438D02*
X116620714Y-103083057D01*
X116620714Y-103083057D02*
X116668333Y-103178295D01*
X116668333Y-103178295D02*
X116668333Y-103321152D01*
X116668333Y-103321152D02*
X116620714Y-103416390D01*
X116620714Y-103416390D02*
X116573095Y-103464009D01*
X116573095Y-103464009D02*
X116477857Y-103511628D01*
X116477857Y-103511628D02*
X116096905Y-103511628D01*
X117573095Y-102987819D02*
X117096905Y-102987819D01*
X117096905Y-102987819D02*
X117049286Y-103464009D01*
X117049286Y-103464009D02*
X117096905Y-103416390D01*
X117096905Y-103416390D02*
X117192143Y-103368771D01*
X117192143Y-103368771D02*
X117430238Y-103368771D01*
X117430238Y-103368771D02*
X117525476Y-103416390D01*
X117525476Y-103416390D02*
X117573095Y-103464009D01*
X117573095Y-103464009D02*
X117620714Y-103559247D01*
X117620714Y-103559247D02*
X117620714Y-103797342D01*
X117620714Y-103797342D02*
X117573095Y-103892580D01*
X117573095Y-103892580D02*
X117525476Y-103940200D01*
X117525476Y-103940200D02*
X117430238Y-103987819D01*
X117430238Y-103987819D02*
X117192143Y-103987819D01*
X117192143Y-103987819D02*
X117096905Y-103940200D01*
X117096905Y-103940200D02*
X117049286Y-103892580D01*
X230157250Y-104785826D02*
X230204869Y-104642969D01*
X230204869Y-104642969D02*
X230204869Y-104404874D01*
X230204869Y-104404874D02*
X230157250Y-104309636D01*
X230157250Y-104309636D02*
X230109630Y-104262017D01*
X230109630Y-104262017D02*
X230014392Y-104214398D01*
X230014392Y-104214398D02*
X229919154Y-104214398D01*
X229919154Y-104214398D02*
X229823916Y-104262017D01*
X229823916Y-104262017D02*
X229776297Y-104309636D01*
X229776297Y-104309636D02*
X229728678Y-104404874D01*
X229728678Y-104404874D02*
X229681059Y-104595350D01*
X229681059Y-104595350D02*
X229633440Y-104690588D01*
X229633440Y-104690588D02*
X229585821Y-104738207D01*
X229585821Y-104738207D02*
X229490583Y-104785826D01*
X229490583Y-104785826D02*
X229395345Y-104785826D01*
X229395345Y-104785826D02*
X229300107Y-104738207D01*
X229300107Y-104738207D02*
X229252488Y-104690588D01*
X229252488Y-104690588D02*
X229204869Y-104595350D01*
X229204869Y-104595350D02*
X229204869Y-104357255D01*
X229204869Y-104357255D02*
X229252488Y-104214398D01*
X229204869Y-103881064D02*
X230204869Y-103642969D01*
X230204869Y-103642969D02*
X229490583Y-103452493D01*
X229490583Y-103452493D02*
X230204869Y-103262017D01*
X230204869Y-103262017D02*
X229204869Y-103023922D01*
X229633440Y-102500112D02*
X229585821Y-102595350D01*
X229585821Y-102595350D02*
X229538202Y-102642969D01*
X229538202Y-102642969D02*
X229442964Y-102690588D01*
X229442964Y-102690588D02*
X229395345Y-102690588D01*
X229395345Y-102690588D02*
X229300107Y-102642969D01*
X229300107Y-102642969D02*
X229252488Y-102595350D01*
X229252488Y-102595350D02*
X229204869Y-102500112D01*
X229204869Y-102500112D02*
X229204869Y-102309636D01*
X229204869Y-102309636D02*
X229252488Y-102214398D01*
X229252488Y-102214398D02*
X229300107Y-102166779D01*
X229300107Y-102166779D02*
X229395345Y-102119160D01*
X229395345Y-102119160D02*
X229442964Y-102119160D01*
X229442964Y-102119160D02*
X229538202Y-102166779D01*
X229538202Y-102166779D02*
X229585821Y-102214398D01*
X229585821Y-102214398D02*
X229633440Y-102309636D01*
X229633440Y-102309636D02*
X229633440Y-102500112D01*
X229633440Y-102500112D02*
X229681059Y-102595350D01*
X229681059Y-102595350D02*
X229728678Y-102642969D01*
X229728678Y-102642969D02*
X229823916Y-102690588D01*
X229823916Y-102690588D02*
X230014392Y-102690588D01*
X230014392Y-102690588D02*
X230109630Y-102642969D01*
X230109630Y-102642969D02*
X230157250Y-102595350D01*
X230157250Y-102595350D02*
X230204869Y-102500112D01*
X230204869Y-102500112D02*
X230204869Y-102309636D01*
X230204869Y-102309636D02*
X230157250Y-102214398D01*
X230157250Y-102214398D02*
X230109630Y-102166779D01*
X230109630Y-102166779D02*
X230014392Y-102119160D01*
X230014392Y-102119160D02*
X229823916Y-102119160D01*
X229823916Y-102119160D02*
X229728678Y-102166779D01*
X229728678Y-102166779D02*
X229681059Y-102214398D01*
X229681059Y-102214398D02*
X229633440Y-102309636D01*
X106367200Y-90293332D02*
X106414819Y-90150475D01*
X106414819Y-90150475D02*
X106414819Y-89912380D01*
X106414819Y-89912380D02*
X106367200Y-89817142D01*
X106367200Y-89817142D02*
X106319580Y-89769523D01*
X106319580Y-89769523D02*
X106224342Y-89721904D01*
X106224342Y-89721904D02*
X106129104Y-89721904D01*
X106129104Y-89721904D02*
X106033866Y-89769523D01*
X106033866Y-89769523D02*
X105986247Y-89817142D01*
X105986247Y-89817142D02*
X105938628Y-89912380D01*
X105938628Y-89912380D02*
X105891009Y-90102856D01*
X105891009Y-90102856D02*
X105843390Y-90198094D01*
X105843390Y-90198094D02*
X105795771Y-90245713D01*
X105795771Y-90245713D02*
X105700533Y-90293332D01*
X105700533Y-90293332D02*
X105605295Y-90293332D01*
X105605295Y-90293332D02*
X105510057Y-90245713D01*
X105510057Y-90245713D02*
X105462438Y-90198094D01*
X105462438Y-90198094D02*
X105414819Y-90102856D01*
X105414819Y-90102856D02*
X105414819Y-89864761D01*
X105414819Y-89864761D02*
X105462438Y-89721904D01*
X105414819Y-89388570D02*
X106414819Y-89150475D01*
X106414819Y-89150475D02*
X105700533Y-88959999D01*
X105700533Y-88959999D02*
X106414819Y-88769523D01*
X106414819Y-88769523D02*
X105414819Y-88531428D01*
X105414819Y-87674285D02*
X105414819Y-88150475D01*
X105414819Y-88150475D02*
X105891009Y-88198094D01*
X105891009Y-88198094D02*
X105843390Y-88150475D01*
X105843390Y-88150475D02*
X105795771Y-88055237D01*
X105795771Y-88055237D02*
X105795771Y-87817142D01*
X105795771Y-87817142D02*
X105843390Y-87721904D01*
X105843390Y-87721904D02*
X105891009Y-87674285D01*
X105891009Y-87674285D02*
X105986247Y-87626666D01*
X105986247Y-87626666D02*
X106224342Y-87626666D01*
X106224342Y-87626666D02*
X106319580Y-87674285D01*
X106319580Y-87674285D02*
X106367200Y-87721904D01*
X106367200Y-87721904D02*
X106414819Y-87817142D01*
X106414819Y-87817142D02*
X106414819Y-88055237D01*
X106414819Y-88055237D02*
X106367200Y-88150475D01*
X106367200Y-88150475D02*
X106319580Y-88198094D01*
X103166666Y-111634819D02*
X103166666Y-112349104D01*
X103166666Y-112349104D02*
X103119047Y-112491961D01*
X103119047Y-112491961D02*
X103023809Y-112587200D01*
X103023809Y-112587200D02*
X102880952Y-112634819D01*
X102880952Y-112634819D02*
X102785714Y-112634819D01*
X104071428Y-111968152D02*
X104071428Y-112634819D01*
X103833333Y-111587200D02*
X103595238Y-112301485D01*
X103595238Y-112301485D02*
X104214285Y-112301485D01*
D11*
X127965000Y-86795000D02*
X127965000Y-114795000D01*
X127965000Y-86795000D02*
X130625000Y-86795000D01*
X127965000Y-114795000D02*
X130625000Y-114795000D01*
X129295000Y-84195000D02*
X130625000Y-84195000D01*
X130625000Y-84195000D02*
X130625000Y-85525000D01*
X130625000Y-86795000D02*
X130625000Y-114795000D01*
X107670000Y-76645000D02*
X107670000Y-114805000D01*
X107670000Y-76645000D02*
X110330000Y-76645000D01*
X107670000Y-114805000D02*
X110330000Y-114805000D01*
X109000000Y-74045000D02*
X110330000Y-74045000D01*
X110330000Y-74045000D02*
X110330000Y-75375000D01*
X110330000Y-76645000D02*
X110330000Y-114805000D01*
X232675050Y-95755000D02*
X232675050Y-109955000D01*
X232675050Y-109955000D02*
X246875050Y-109955000D01*
X246875050Y-95755000D02*
X232675050Y-95755000D01*
X246875050Y-109955000D02*
X246875050Y-95755000D01*
X137425050Y-84325000D02*
X137425050Y-98525000D01*
X137425050Y-98525000D02*
X151625050Y-98525000D01*
X151625050Y-84325000D02*
X137425050Y-84325000D01*
X151625050Y-98525000D02*
X151625050Y-84325000D01*
X213625050Y-76705000D02*
X213625050Y-90905000D01*
X213625050Y-90905000D02*
X227825050Y-90905000D01*
X227825050Y-76705000D02*
X213625050Y-76705000D01*
X227825050Y-90905000D02*
X227825050Y-76705000D01*
X137425050Y-103375000D02*
X137425050Y-117575000D01*
X137425050Y-117575000D02*
X151625050Y-117575000D01*
X151625050Y-103375000D02*
X137425050Y-103375000D01*
X151625050Y-117575000D02*
X151625050Y-103375000D01*
X144410050Y-122425000D02*
X144410050Y-136625000D01*
X144410050Y-136625000D02*
X158610050Y-136625000D01*
X158610050Y-122425000D02*
X144410050Y-122425000D01*
X158610050Y-136625000D02*
X158610050Y-122425000D01*
X129432258Y-66145500D02*
X128957742Y-66145500D01*
X129432258Y-67190500D02*
X128957742Y-67190500D01*
X128375000Y-64719000D02*
X130660000Y-64719000D01*
X130660000Y-63249000D02*
X128375000Y-63249000D01*
X130660000Y-64719000D02*
X130660000Y-63249000D01*
X175525050Y-76387500D02*
X175525050Y-90587500D01*
X175525050Y-90587500D02*
X189725050Y-90587500D01*
X189725050Y-76387500D02*
X175525050Y-76387500D01*
X189725050Y-90587500D02*
X189725050Y-76387500D01*
X128335000Y-55751000D02*
X130620000Y-55751000D01*
X130620000Y-54281000D02*
X128335000Y-54281000D01*
X130620000Y-55751000D02*
X130620000Y-54281000D01*
X156475050Y-103375000D02*
X156475050Y-117575000D01*
X156475050Y-117575000D02*
X170675050Y-117575000D01*
X170675050Y-103375000D02*
X156475050Y-103375000D01*
X170675050Y-117575000D02*
X170675050Y-103375000D01*
X194575050Y-100835000D02*
X194575050Y-115035000D01*
X194575050Y-115035000D02*
X208775050Y-115035000D01*
X208775050Y-100835000D02*
X194575050Y-100835000D01*
X208775050Y-115035000D02*
X208775050Y-100835000D01*
X156475050Y-65275000D02*
X156475050Y-79475000D01*
X156475050Y-79475000D02*
X170675050Y-79475000D01*
X170675050Y-65275000D02*
X156475050Y-65275000D01*
X170675050Y-79475000D02*
X170675050Y-65275000D01*
X114532258Y-107977500D02*
X114057742Y-107977500D01*
X114532258Y-109022500D02*
X114057742Y-109022500D01*
X194575050Y-81785000D02*
X194575050Y-95985000D01*
X194575050Y-95985000D02*
X208775050Y-95985000D01*
X208775050Y-81785000D02*
X194575050Y-81785000D01*
X208775050Y-95985000D02*
X208775050Y-81785000D01*
X175525050Y-38287500D02*
X175525050Y-52487500D01*
X175525050Y-52487500D02*
X189725050Y-52487500D01*
X189725050Y-38287500D02*
X175525050Y-38287500D01*
X189725050Y-52487500D02*
X189725050Y-38287500D01*
X137425050Y-65275000D02*
X137425050Y-79475000D01*
X137425050Y-79475000D02*
X151625050Y-79475000D01*
X151625050Y-65275000D02*
X137425050Y-65275000D01*
X151625050Y-79475000D02*
X151625050Y-65275000D01*
X213625050Y-57655000D02*
X213625050Y-71855000D01*
X213625050Y-71855000D02*
X227825050Y-71855000D01*
X227825050Y-57655000D02*
X213625050Y-57655000D01*
X227825050Y-71855000D02*
X227825050Y-57655000D01*
X129392258Y-57177500D02*
X128917742Y-57177500D01*
X129392258Y-58222500D02*
X128917742Y-58222500D01*
X232675050Y-76705000D02*
X232675050Y-90905000D01*
X232675050Y-90905000D02*
X246875050Y-90905000D01*
X246875050Y-76705000D02*
X232675050Y-76705000D01*
X246875050Y-90905000D02*
X246875050Y-76705000D01*
X125360050Y-141475000D02*
X125360050Y-155675000D01*
X125360050Y-155675000D02*
X139560050Y-155675000D01*
X139560050Y-141475000D02*
X125360050Y-141475000D01*
X139560050Y-155675000D02*
X139560050Y-141475000D01*
X213625050Y-114805000D02*
X213625050Y-129005000D01*
X213625050Y-129005000D02*
X227825050Y-129005000D01*
X227825050Y-114805000D02*
X213625050Y-114805000D01*
X227825050Y-129005000D02*
X227825050Y-114805000D01*
X232675050Y-114805000D02*
X232675050Y-129005000D01*
X232675050Y-129005000D02*
X246875050Y-129005000D01*
X246875050Y-114805000D02*
X232675050Y-114805000D01*
X246875050Y-129005000D02*
X246875050Y-114805000D01*
X128355000Y-46783000D02*
X130640000Y-46783000D01*
X130640000Y-45313000D02*
X128355000Y-45313000D01*
X130640000Y-46783000D02*
X130640000Y-45313000D01*
X125360050Y-122425000D02*
X125360050Y-136625000D01*
X125360050Y-136625000D02*
X139560050Y-136625000D01*
X139560050Y-122425000D02*
X125360050Y-122425000D01*
X139560050Y-136625000D02*
X139560050Y-122425000D01*
X114532258Y-105477500D02*
X114057742Y-105477500D01*
X114532258Y-106522500D02*
X114057742Y-106522500D01*
X175525050Y-57337500D02*
X175525050Y-71537500D01*
X175525050Y-71537500D02*
X189725050Y-71537500D01*
X189725050Y-57337500D02*
X175525050Y-57337500D01*
X189725050Y-71537500D02*
X189725050Y-57337500D01*
X156475050Y-84325000D02*
X156475050Y-98525000D01*
X156475050Y-98525000D02*
X170675050Y-98525000D01*
X170675050Y-84325000D02*
X156475050Y-84325000D01*
X170675050Y-98525000D02*
X170675050Y-84325000D01*
X194575050Y-62735000D02*
X194575050Y-76935000D01*
X194575050Y-76935000D02*
X208775050Y-76935000D01*
X208775050Y-62735000D02*
X194575050Y-62735000D01*
X208775050Y-76935000D02*
X208775050Y-62735000D01*
X194575050Y-43685000D02*
X194575050Y-57885000D01*
X194575050Y-57885000D02*
X208775050Y-57885000D01*
X208775050Y-43685000D02*
X194575050Y-43685000D01*
X208775050Y-57885000D02*
X208775050Y-43685000D01*
X114532258Y-110477500D02*
X114057742Y-110477500D01*
X114532258Y-111522500D02*
X114057742Y-111522500D01*
X106310050Y-141475000D02*
X106310050Y-155675000D01*
X106310050Y-155675000D02*
X120510050Y-155675000D01*
X120510050Y-141475000D02*
X106310050Y-141475000D01*
X120510050Y-155675000D02*
X120510050Y-141475000D01*
X106310050Y-122425000D02*
X106310050Y-136625000D01*
X106310050Y-136625000D02*
X120510050Y-136625000D01*
X120510050Y-122425000D02*
X106310050Y-122425000D01*
X120510050Y-136625000D02*
X120510050Y-122425000D01*
X129412258Y-48209500D02*
X128937742Y-48209500D01*
X129412258Y-49254500D02*
X128937742Y-49254500D01*
X156475000Y-46225000D02*
X156475000Y-60425000D01*
X156475000Y-60425000D02*
X170675000Y-60425000D01*
X170675000Y-46225000D02*
X156475000Y-46225000D01*
X170675000Y-60425000D02*
X170675000Y-46225000D01*
X114532258Y-112977500D02*
X114057742Y-112977500D01*
X114532258Y-114022500D02*
X114057742Y-114022500D01*
X175525050Y-95437500D02*
X175525050Y-109637500D01*
X175525050Y-109637500D02*
X189725050Y-109637500D01*
X189725050Y-95437500D02*
X175525050Y-95437500D01*
X189725050Y-109637500D02*
X189725050Y-95437500D01*
X137425000Y-46225000D02*
X137425000Y-60425000D01*
X137425000Y-60425000D02*
X151625000Y-60425000D01*
X151625000Y-46225000D02*
X137425000Y-46225000D01*
X151625000Y-60425000D02*
X151625000Y-46225000D01*
X106310050Y-160525000D02*
X106310050Y-174725000D01*
X106310050Y-174725000D02*
X120510050Y-174725000D01*
X120510050Y-160525000D02*
X106310050Y-160525000D01*
X120510050Y-174725000D02*
X120510050Y-160525000D01*
X114532258Y-102977500D02*
X114057742Y-102977500D01*
X114532258Y-104022500D02*
X114057742Y-104022500D01*
X213625050Y-95755000D02*
X213625050Y-109955000D01*
X213625050Y-109955000D02*
X227825050Y-109955000D01*
X227825050Y-95755000D02*
X213625050Y-95755000D01*
X227825050Y-109955000D02*
X227825050Y-95755000D01*
X102140000Y-94070000D02*
X104860000Y-94070000D01*
X104860000Y-83850000D01*
X102140000Y-83850000D01*
X102140000Y-94070000D01*
X104830000Y-108580000D02*
X104830000Y-95820000D01*
X104830000Y-109850000D02*
X104830000Y-111180000D01*
X104830000Y-111180000D02*
X103500000Y-111180000D01*
X104830000Y-95820000D02*
X102170000Y-95820000D01*
X102170000Y-108580000D02*
X102170000Y-95820000D01*
X104830000Y-108580000D02*
X102170000Y-108580000D01*
%LPC*%
D12*
X129295000Y-85525000D03*
D13*
X129295000Y-88065000D03*
X129295000Y-90605000D03*
X129295000Y-93145000D03*
X129295000Y-95685000D03*
X129295000Y-98225000D03*
X129295000Y-100765000D03*
X129295000Y-103305000D03*
X129295000Y-105845000D03*
X129295000Y-108385000D03*
X129295000Y-110925000D03*
X129295000Y-113465000D03*
D12*
X109000000Y-75375000D03*
D13*
X109000000Y-77915000D03*
X109000000Y-80455000D03*
X109000000Y-82995000D03*
X109000000Y-85535000D03*
X109000000Y-88075000D03*
X109000000Y-90615000D03*
X109000000Y-93155000D03*
X109000000Y-95695000D03*
X109000000Y-98235000D03*
X109000000Y-100775000D03*
X109000000Y-103315000D03*
X109000000Y-105855000D03*
X109000000Y-108395000D03*
X109000000Y-110935000D03*
X109000000Y-113475000D03*
D14*
X234695050Y-102855000D03*
D15*
X235965050Y-100315000D03*
D16*
X239775050Y-102855000D03*
D15*
X242315050Y-97775000D03*
D14*
X244855050Y-102855000D03*
X139445050Y-91425000D03*
D15*
X140715050Y-88885000D03*
D16*
X144525050Y-91425000D03*
D15*
X147065050Y-86345000D03*
D14*
X149605050Y-91425000D03*
X215645050Y-83805000D03*
D15*
X216915050Y-81265000D03*
D16*
X220725050Y-83805000D03*
D15*
X223265050Y-78725000D03*
D14*
X225805050Y-83805000D03*
X139445050Y-110475000D03*
D15*
X140715050Y-107935000D03*
D16*
X144525050Y-110475000D03*
D15*
X147065050Y-105395000D03*
D14*
X149605050Y-110475000D03*
X146430050Y-129525000D03*
D15*
X147700050Y-126985000D03*
D16*
X151510050Y-129525000D03*
D15*
X154050050Y-124445000D03*
D14*
X156590050Y-129525000D03*
D17*
X130020000Y-66668000D03*
X128370000Y-66668000D03*
D18*
X129962500Y-63984000D03*
X128387500Y-63984000D03*
D14*
X177545050Y-83487500D03*
D15*
X178815050Y-80947500D03*
D16*
X182625050Y-83487500D03*
D15*
X185165050Y-78407500D03*
D14*
X187705050Y-83487500D03*
D18*
X129922500Y-55016000D03*
X128347500Y-55016000D03*
D14*
X158495050Y-110475000D03*
D15*
X159765050Y-107935000D03*
D16*
X163575050Y-110475000D03*
D15*
X166115050Y-105395000D03*
D14*
X168655050Y-110475000D03*
X196595050Y-107935000D03*
D15*
X197865050Y-105395000D03*
D16*
X201675050Y-107935000D03*
D15*
X204215050Y-102855000D03*
D14*
X206755050Y-107935000D03*
X158495050Y-72375000D03*
D15*
X159765050Y-69835000D03*
D16*
X163575050Y-72375000D03*
D15*
X166115050Y-67295000D03*
D14*
X168655050Y-72375000D03*
D17*
X115120000Y-108500000D03*
X113470000Y-108500000D03*
D14*
X196595050Y-88885000D03*
D15*
X197865050Y-86345000D03*
D16*
X201675050Y-88885000D03*
D15*
X204215050Y-83805000D03*
D14*
X206755050Y-88885000D03*
X177545050Y-45387500D03*
D15*
X178815050Y-42847500D03*
D16*
X182625050Y-45387500D03*
D15*
X185165050Y-40307500D03*
D14*
X187705050Y-45387500D03*
X139445050Y-72375000D03*
D15*
X140715050Y-69835000D03*
D16*
X144525050Y-72375000D03*
D15*
X147065050Y-67295000D03*
D14*
X149605050Y-72375000D03*
X215645050Y-64755000D03*
D15*
X216915050Y-62215000D03*
D16*
X220725050Y-64755000D03*
D15*
X223265050Y-59675000D03*
D14*
X225805050Y-64755000D03*
D17*
X129980000Y-57700000D03*
X128330000Y-57700000D03*
D14*
X234695050Y-83805000D03*
D15*
X235965050Y-81265000D03*
D16*
X239775050Y-83805000D03*
D15*
X242315050Y-78725000D03*
D14*
X244855050Y-83805000D03*
X127380050Y-148575000D03*
D15*
X128650050Y-146035000D03*
D16*
X132460050Y-148575000D03*
D15*
X135000050Y-143495000D03*
D14*
X137540050Y-148575000D03*
X215645050Y-121905000D03*
D15*
X216915050Y-119365000D03*
D16*
X220725050Y-121905000D03*
D15*
X223265050Y-116825000D03*
D14*
X225805050Y-121905000D03*
X234695050Y-121905000D03*
D15*
X235965050Y-119365000D03*
D16*
X239775050Y-121905000D03*
D15*
X242315050Y-116825000D03*
D14*
X244855050Y-121905000D03*
D18*
X129942500Y-46048000D03*
X128367500Y-46048000D03*
D14*
X127380050Y-129525000D03*
D15*
X128650050Y-126985000D03*
D16*
X132460050Y-129525000D03*
D15*
X135000050Y-124445000D03*
D14*
X137540050Y-129525000D03*
D17*
X115120000Y-106000000D03*
X113470000Y-106000000D03*
D14*
X177545050Y-64437500D03*
D15*
X178815050Y-61897500D03*
D16*
X182625050Y-64437500D03*
D15*
X185165050Y-59357500D03*
D14*
X187705050Y-64437500D03*
X158495050Y-91425000D03*
D15*
X159765050Y-88885000D03*
D16*
X163575050Y-91425000D03*
D15*
X166115050Y-86345000D03*
D14*
X168655050Y-91425000D03*
X196595050Y-69835000D03*
D15*
X197865050Y-67295000D03*
D16*
X201675050Y-69835000D03*
D15*
X204215050Y-64755000D03*
D14*
X206755050Y-69835000D03*
X196595050Y-50785000D03*
D15*
X197865050Y-48245000D03*
D16*
X201675050Y-50785000D03*
D15*
X204215050Y-45705000D03*
D14*
X206755050Y-50785000D03*
D17*
X115120000Y-111000000D03*
X113470000Y-111000000D03*
D14*
X108330050Y-148575000D03*
D15*
X109600050Y-146035000D03*
D16*
X113410050Y-148575000D03*
D15*
X115950050Y-143495000D03*
D14*
X118490050Y-148575000D03*
X108330050Y-129525000D03*
D15*
X109600050Y-126985000D03*
D16*
X113410050Y-129525000D03*
D15*
X115950050Y-124445000D03*
D14*
X118490050Y-129525000D03*
D17*
X130000000Y-48732000D03*
X128350000Y-48732000D03*
D14*
X158495000Y-53325000D03*
D15*
X159765000Y-50785000D03*
D16*
X163575000Y-53325000D03*
D15*
X166115000Y-48245000D03*
D14*
X168655000Y-53325000D03*
D17*
X115120000Y-113500000D03*
X113470000Y-113500000D03*
D14*
X177545050Y-102537500D03*
D15*
X178815050Y-99997500D03*
D16*
X182625050Y-102537500D03*
D15*
X185165050Y-97457500D03*
D14*
X187705050Y-102537500D03*
X139445000Y-53325000D03*
D15*
X140715000Y-50785000D03*
D16*
X144525000Y-53325000D03*
D15*
X147065000Y-48245000D03*
D14*
X149605000Y-53325000D03*
X108330050Y-167625000D03*
D15*
X109600050Y-165085000D03*
D16*
X113410050Y-167625000D03*
D15*
X115950050Y-162545000D03*
D14*
X118490050Y-167625000D03*
D17*
X115120000Y-103500000D03*
X113470000Y-103500000D03*
D14*
X215645050Y-102855000D03*
D15*
X216915050Y-100315000D03*
D16*
X220725050Y-102855000D03*
D15*
X223265050Y-97775000D03*
D14*
X225805050Y-102855000D03*
D19*
X154050050Y-100950000D03*
X249300000Y-131430000D03*
X249300000Y-74280000D03*
D20*
X103500000Y-88960000D03*
D21*
X103500000Y-91500000D03*
X103500000Y-86420000D03*
D19*
X134000000Y-43800000D03*
D22*
X103500000Y-109850000D03*
D13*
X103500000Y-107310000D03*
X103500000Y-104770000D03*
X103500000Y-102230000D03*
X103500000Y-99690000D03*
X103500000Y-97150000D03*
D19*
X103885000Y-177150000D03*
X103940083Y-75962305D03*
%LPD*%
M02*
