G04 #@! TF.GenerationSoftware,KiCad,Pcbnew,8.0.6-8.0.6-0~ubuntu24.04.1*
G04 #@! TF.CreationDate,2025-02-09T13:24:36-05:00*
G04 #@! TF.ProjectId,keybird_right,6b657962-6972-4645-9f72-696768742e6b,rev?*
G04 #@! TF.SameCoordinates,Original*
G04 #@! TF.FileFunction,Paste,Bot*
G04 #@! TF.FilePolarity,Positive*
%FSLAX46Y46*%
G04 Gerber Fmt 4.6, Leading zero omitted, Abs format (unit mm)*
G04 Created by KiCad (PCBNEW 8.0.6-8.0.6-0~ubuntu24.04.1) date 2025-02-09 13:24:36*
%MOMM*%
%LPD*%
G01*
G04 APERTURE LIST*
G04 Aperture macros list*
%AMRoundRect*
0 Rectangle with rounded corners*
0 $1 Rounding radius*
0 $2 $3 $4 $5 $6 $7 $8 $9 X,Y pos of 4 corners*
0 Add a 4 corners polygon primitive as box body*
4,1,4,$2,$3,$4,$5,$6,$7,$8,$9,$2,$3,0*
0 Add four circle primitives for the rounded corners*
1,1,$1+$1,$2,$3*
1,1,$1+$1,$4,$5*
1,1,$1+$1,$6,$7*
1,1,$1+$1,$8,$9*
0 Add four rect primitives between the rounded corners*
20,1,$1+$1,$2,$3,$4,$5,0*
20,1,$1+$1,$4,$5,$6,$7,0*
20,1,$1+$1,$6,$7,$8,$9,0*
20,1,$1+$1,$8,$9,$2,$3,0*%
G04 Aperture macros list end*
%ADD10RoundRect,0.250000X-1.025000X-1.000000X1.025000X-1.000000X1.025000X1.000000X-1.025000X1.000000X0*%
%ADD11R,1.200000X1.200000*%
G04 APERTURE END LIST*
D10*
X232690050Y-100315000D03*
X245617050Y-97775000D03*
X137440050Y-88885000D03*
X150367050Y-86345000D03*
X213640050Y-81265000D03*
X226567050Y-78725000D03*
X137440050Y-107935000D03*
X150367050Y-105395000D03*
X144425050Y-126985000D03*
X157352050Y-124445000D03*
X175540050Y-80947500D03*
X188467050Y-78407500D03*
X156490050Y-107935000D03*
X169417050Y-105395000D03*
X194590050Y-105395000D03*
X207517050Y-102855000D03*
X156490050Y-69835000D03*
X169417050Y-67295000D03*
X194590050Y-86345000D03*
X207517050Y-83805000D03*
X175540050Y-42847500D03*
X188467050Y-40307500D03*
X137440050Y-69835000D03*
X150367050Y-67295000D03*
X213640050Y-62215000D03*
X226567050Y-59675000D03*
X232690050Y-81265000D03*
X245617050Y-78725000D03*
X125375050Y-146035000D03*
X138302050Y-143495000D03*
X213640050Y-119365000D03*
X226567050Y-116825000D03*
X232690050Y-119365000D03*
X245617050Y-116825000D03*
X125375050Y-126985000D03*
X138302050Y-124445000D03*
X175540050Y-61897500D03*
X188467050Y-59357500D03*
X156490050Y-88885000D03*
X169417050Y-86345000D03*
X194590050Y-67295000D03*
X207517050Y-64755000D03*
X194590050Y-48245000D03*
X207517050Y-45705000D03*
X106325050Y-146035000D03*
X119252050Y-143495000D03*
X106325050Y-126985000D03*
X119252050Y-124445000D03*
X156490000Y-50785000D03*
X169417000Y-48245000D03*
X175540050Y-99997500D03*
X188467050Y-97457500D03*
X137440000Y-50785000D03*
X150367000Y-48245000D03*
X106325050Y-165085000D03*
X119252050Y-162545000D03*
X213640050Y-100315000D03*
X226567050Y-97775000D03*
D11*
X224325050Y-112380000D03*
X227125050Y-112380000D03*
X186225050Y-54912500D03*
X189025050Y-54912500D03*
X205275050Y-41260000D03*
X208075050Y-41260000D03*
X186225050Y-93012500D03*
X189025050Y-93012500D03*
X167175050Y-62850000D03*
X169975050Y-62850000D03*
X167175000Y-43800000D03*
X169975000Y-43800000D03*
X224325050Y-74280000D03*
X227125050Y-74280000D03*
X224325050Y-55230000D03*
X227125050Y-55230000D03*
X205275050Y-98410000D03*
X208075050Y-98410000D03*
X243375050Y-93330000D03*
X246175050Y-93330000D03*
X117010050Y-120000000D03*
X119810050Y-120000000D03*
X146125050Y-100950000D03*
X148925050Y-100950000D03*
X205275050Y-79360000D03*
X208075050Y-79360000D03*
X148125050Y-62850000D03*
X150925050Y-62850000D03*
X186225050Y-35862500D03*
X189025050Y-35862500D03*
X136060050Y-120000000D03*
X138860050Y-120000000D03*
X243375050Y-112380000D03*
X246175050Y-112380000D03*
X224325050Y-93330000D03*
X227125050Y-93330000D03*
X155110050Y-120000000D03*
X157910050Y-120000000D03*
X136060050Y-139050000D03*
X138860050Y-139050000D03*
X167175050Y-100950000D03*
X169975050Y-100950000D03*
X186225050Y-73962500D03*
X189025050Y-73962500D03*
X148125000Y-43800000D03*
X150925000Y-43800000D03*
X205275050Y-60310000D03*
X208075050Y-60310000D03*
X148125050Y-81900000D03*
X150925050Y-81900000D03*
X117010050Y-158100000D03*
X119810050Y-158100000D03*
X167175050Y-81900000D03*
X169975050Y-81900000D03*
X241375050Y-74280000D03*
X244175050Y-74280000D03*
X117010050Y-139050000D03*
X119810050Y-139050000D03*
M02*
