%TF.GenerationSoftware,KiCad,Pcbnew,8.0.6-8.0.6-0~ubuntu24.04.1*%
%TF.CreationDate,2025-02-09T13:25:05-05:00*%
%TF.ProjectId,keybird_right,6b657962-6972-4645-9f72-696768742e6b,rev?*%
%TF.SameCoordinates,Original*%
%TF.FileFunction,Drillmap*%
%TF.FilePolarity,Positive*%
%FSLAX45Y45*%
G04 Gerber Fmt 4.5, Leading zero omitted, Abs format (unit mm)*
G04 Created by KiCad (PCBNEW 8.0.6-8.0.6-0~ubuntu24.04.1) date 2025-02-09 13:25:05*
%MOMM*%
%LPD*%
G01*
G04 APERTURE LIST*
%ADD10C,0.050000*%
%ADD11C,0.100000*%
%ADD12C,0.200000*%
%ADD13C,0.175000*%
%ADD14C,0.250000*%
%ADD15C,0.305000*%
%ADD16C,0.400000*%
G04 APERTURE END LIST*
D10*
X19765000Y-3776000D02*
G75*
G02*
X19565000Y-3576000I0J200000D01*
G01*
X16453500Y-12550000D02*
G75*
G02*
X16653500Y-12350000I200000J0D01*
G01*
X17660000Y-11756250D02*
G75*
G02*
X17860000Y-11556250I200000J0D01*
G01*
X17460000Y-12350000D02*
X16653500Y-12350000D01*
X16760000Y-4030000D02*
X12700000Y-4030000D01*
X14548500Y-14455000D02*
X14548500Y-15960000D01*
X19365000Y-3236250D02*
X17160000Y-3236250D01*
X23175000Y-5173000D02*
G75*
G02*
X23375000Y-5373000I0J-200000D01*
G01*
D11*
X20570000Y-12096000D02*
G75*
G02*
X20770000Y-12296000I0J-200000D01*
G01*
D10*
X25080000Y-13493000D02*
X20970000Y-13493000D01*
X20970000Y-13493000D02*
G75*
G02*
X20770000Y-13293000I0J200000D01*
G01*
X19365000Y-3236250D02*
G75*
G02*
X19565000Y-3436250I0J-200000D01*
G01*
X12643500Y-16360000D02*
G75*
G02*
X12843500Y-16160000I200000J0D01*
G01*
X17660000Y-11756250D02*
X17660000Y-12150000D01*
X25280000Y-13293000D02*
G75*
G02*
X25080000Y-13493000I-200000J0D01*
G01*
D11*
X20770000Y-12296000D02*
X20770000Y-13293000D01*
D10*
X16960000Y-3830000D02*
G75*
G02*
X16760000Y-4030000I-200000J0D01*
G01*
X25080000Y-7078000D02*
G75*
G02*
X25280000Y-7278000I0J-200000D01*
G01*
X23575000Y-7078000D02*
X25080000Y-7078000D01*
X12443500Y-18065000D02*
X10238500Y-18065000D01*
X19565000Y-3436250D02*
X19565000Y-3576000D01*
X14548500Y-14455000D02*
G75*
G02*
X14748500Y-14255000I200000J0D01*
G01*
X12300000Y-6950000D02*
X10238500Y-6950000D01*
X10038500Y-7150000D02*
G75*
G02*
X10238500Y-6950000I200000J0D01*
G01*
X19065000Y-12096000D02*
G75*
G02*
X18865000Y-11896000I0J200000D01*
G01*
X23375000Y-5373000D02*
X23375000Y-6878000D01*
X21470000Y-3976000D02*
X21470000Y-4973000D01*
X12500000Y-4230000D02*
G75*
G02*
X12700000Y-4030000I200000J0D01*
G01*
X16453500Y-14055000D02*
G75*
G02*
X16253500Y-14255000I-200000J0D01*
G01*
X19765000Y-3776000D02*
X21270000Y-3776000D01*
X21670000Y-5173000D02*
G75*
G02*
X21470000Y-4973000I0J200000D01*
G01*
X14548500Y-15960000D02*
G75*
G02*
X14348500Y-16160000I-200000J0D01*
G01*
X12643500Y-16360000D02*
X12643500Y-17865000D01*
X23575000Y-7078000D02*
G75*
G02*
X23375000Y-6878000I0J200000D01*
G01*
X10238500Y-18065000D02*
G75*
G02*
X10038500Y-17865000I0J200000D01*
G01*
X12500000Y-6750000D02*
G75*
G02*
X12300000Y-6950000I-200000J0D01*
G01*
X12500000Y-4230000D02*
X12500000Y-6750000D01*
X16960000Y-3436250D02*
G75*
G02*
X17160000Y-3236250I200000J0D01*
G01*
X18865000Y-11896000D02*
X18865000Y-11756250D01*
X25280000Y-7278000D02*
X25280000Y-13293000D01*
X21270000Y-3776000D02*
G75*
G02*
X21470000Y-3976000I0J-200000D01*
G01*
X16960000Y-3830000D02*
X16960000Y-3436250D01*
X16253500Y-14255000D02*
X14748500Y-14255000D01*
X14348500Y-16160000D02*
X12843500Y-16160000D01*
X18665000Y-11556250D02*
X17860000Y-11556250D01*
X17660000Y-12150000D02*
G75*
G02*
X17460000Y-12350000I-200000J0D01*
G01*
X16453500Y-12550000D02*
X16453500Y-14055000D01*
X18665000Y-11556250D02*
G75*
G02*
X18865000Y-11756250I0J-200000D01*
G01*
X20570000Y-12096000D02*
X19065000Y-12096000D01*
X21670000Y-5173000D02*
X23175000Y-5173000D01*
X12643500Y-17865000D02*
G75*
G02*
X12443500Y-18065000I-200000J0D01*
G01*
X10038500Y-7150000D02*
X10038500Y-17865000D01*
D12*
D13*
X10745505Y-12865000D02*
X10920505Y-13040000D01*
X10920505Y-12865000D02*
X10745505Y-13040000D01*
X10745505Y-14770000D02*
X10920505Y-14945000D01*
X10920505Y-14770000D02*
X10745505Y-14945000D01*
X10745505Y-16675000D02*
X10920505Y-16850000D01*
X10920505Y-16675000D02*
X10745505Y-16850000D01*
X11761505Y-12865000D02*
X11936505Y-13040000D01*
X11936505Y-12865000D02*
X11761505Y-13040000D01*
X11761505Y-14770000D02*
X11936505Y-14945000D01*
X11936505Y-14770000D02*
X11761505Y-14945000D01*
X11761505Y-16675000D02*
X11936505Y-16850000D01*
X11936505Y-16675000D02*
X11761505Y-16850000D01*
X12650505Y-12865000D02*
X12825505Y-13040000D01*
X12825505Y-12865000D02*
X12650505Y-13040000D01*
X12650505Y-14770000D02*
X12825505Y-14945000D01*
X12825505Y-14770000D02*
X12650505Y-14945000D01*
X13666505Y-12865000D02*
X13841505Y-13040000D01*
X13841505Y-12865000D02*
X13666505Y-13040000D01*
X13666505Y-14770000D02*
X13841505Y-14945000D01*
X13841505Y-14770000D02*
X13666505Y-14945000D01*
X13857000Y-5245000D02*
X14032000Y-5420000D01*
X14032000Y-5245000D02*
X13857000Y-5420000D01*
X13857005Y-7150000D02*
X14032005Y-7325000D01*
X14032005Y-7150000D02*
X13857005Y-7325000D01*
X13857005Y-9055000D02*
X14032005Y-9230000D01*
X14032005Y-9055000D02*
X13857005Y-9230000D01*
X13857005Y-10960000D02*
X14032005Y-11135000D01*
X14032005Y-10960000D02*
X13857005Y-11135000D01*
X14555505Y-12865000D02*
X14730505Y-13040000D01*
X14730505Y-12865000D02*
X14555505Y-13040000D01*
X14873000Y-5245000D02*
X15048000Y-5420000D01*
X15048000Y-5245000D02*
X14873000Y-5420000D01*
X14873005Y-7150000D02*
X15048005Y-7325000D01*
X15048005Y-7150000D02*
X14873005Y-7325000D01*
X14873005Y-9055000D02*
X15048005Y-9230000D01*
X15048005Y-9055000D02*
X14873005Y-9230000D01*
X14873005Y-10960000D02*
X15048005Y-11135000D01*
X15048005Y-10960000D02*
X14873005Y-11135000D01*
X15571505Y-12865000D02*
X15746505Y-13040000D01*
X15746505Y-12865000D02*
X15571505Y-13040000D01*
X15762000Y-5245000D02*
X15937000Y-5420000D01*
X15937000Y-5245000D02*
X15762000Y-5420000D01*
X15762005Y-7150000D02*
X15937005Y-7325000D01*
X15937005Y-7150000D02*
X15762005Y-7325000D01*
X15762005Y-9055000D02*
X15937005Y-9230000D01*
X15937005Y-9055000D02*
X15762005Y-9230000D01*
X15762005Y-10960000D02*
X15937005Y-11135000D01*
X15937005Y-10960000D02*
X15762005Y-11135000D01*
X16778000Y-5245000D02*
X16953000Y-5420000D01*
X16953000Y-5245000D02*
X16778000Y-5420000D01*
X16778005Y-7150000D02*
X16953005Y-7325000D01*
X16953005Y-7150000D02*
X16778005Y-7325000D01*
X16778005Y-9055000D02*
X16953005Y-9230000D01*
X16953005Y-9055000D02*
X16778005Y-9230000D01*
X16778005Y-10960000D02*
X16953005Y-11135000D01*
X16953005Y-10960000D02*
X16778005Y-11135000D01*
X17667005Y-4451250D02*
X17842005Y-4626250D01*
X17842005Y-4451250D02*
X17667005Y-4626250D01*
X17667005Y-6356250D02*
X17842005Y-6531250D01*
X17842005Y-6356250D02*
X17667005Y-6531250D01*
X17667005Y-8261250D02*
X17842005Y-8436250D01*
X17842005Y-8261250D02*
X17667005Y-8436250D01*
X17667005Y-10166250D02*
X17842005Y-10341250D01*
X17842005Y-10166250D02*
X17667005Y-10341250D01*
X18683005Y-4451250D02*
X18858005Y-4626250D01*
X18858005Y-4451250D02*
X18683005Y-4626250D01*
X18683005Y-6356250D02*
X18858005Y-6531250D01*
X18858005Y-6356250D02*
X18683005Y-6531250D01*
X18683005Y-8261250D02*
X18858005Y-8436250D01*
X18858005Y-8261250D02*
X18683005Y-8436250D01*
X18683005Y-10166250D02*
X18858005Y-10341250D01*
X18858005Y-10166250D02*
X18683005Y-10341250D01*
X19572005Y-4991000D02*
X19747005Y-5166000D01*
X19747005Y-4991000D02*
X19572005Y-5166000D01*
X19572005Y-6896000D02*
X19747005Y-7071000D01*
X19747005Y-6896000D02*
X19572005Y-7071000D01*
X19572005Y-8801000D02*
X19747005Y-8976000D01*
X19747005Y-8801000D02*
X19572005Y-8976000D01*
X19572005Y-10706000D02*
X19747005Y-10881000D01*
X19747005Y-10706000D02*
X19572005Y-10881000D01*
X20588005Y-4991000D02*
X20763005Y-5166000D01*
X20763005Y-4991000D02*
X20588005Y-5166000D01*
X20588005Y-6896000D02*
X20763005Y-7071000D01*
X20763005Y-6896000D02*
X20588005Y-7071000D01*
X20588005Y-8801000D02*
X20763005Y-8976000D01*
X20763005Y-8801000D02*
X20588005Y-8976000D01*
X20588005Y-10706000D02*
X20763005Y-10881000D01*
X20763005Y-10706000D02*
X20588005Y-10881000D01*
X21477005Y-6388000D02*
X21652005Y-6563000D01*
X21652005Y-6388000D02*
X21477005Y-6563000D01*
X21477005Y-8293000D02*
X21652005Y-8468000D01*
X21652005Y-8293000D02*
X21477005Y-8468000D01*
X21477005Y-10198000D02*
X21652005Y-10373000D01*
X21652005Y-10198000D02*
X21477005Y-10373000D01*
X21477005Y-12103000D02*
X21652005Y-12278000D01*
X21652005Y-12103000D02*
X21477005Y-12278000D01*
X22493005Y-6388000D02*
X22668005Y-6563000D01*
X22668005Y-6388000D02*
X22493005Y-6563000D01*
X22493005Y-8293000D02*
X22668005Y-8468000D01*
X22668005Y-8293000D02*
X22493005Y-8468000D01*
X22493005Y-10198000D02*
X22668005Y-10373000D01*
X22668005Y-10198000D02*
X22493005Y-10373000D01*
X22493005Y-12103000D02*
X22668005Y-12278000D01*
X22668005Y-12103000D02*
X22493005Y-12278000D01*
X23382005Y-8293000D02*
X23557005Y-8468000D01*
X23557005Y-8293000D02*
X23382005Y-8468000D01*
X23382005Y-10198000D02*
X23557005Y-10373000D01*
X23557005Y-10198000D02*
X23382005Y-10373000D01*
X23382005Y-12103000D02*
X23557005Y-12278000D01*
X23557005Y-12103000D02*
X23382005Y-12278000D01*
X24398005Y-8293000D02*
X24573005Y-8468000D01*
X24573005Y-8293000D02*
X24398005Y-8468000D01*
X24398005Y-10198000D02*
X24573005Y-10373000D01*
X24573005Y-10198000D02*
X24398005Y-10373000D01*
X24398005Y-12103000D02*
X24573005Y-12278000D01*
X24573005Y-12103000D02*
X24398005Y-12278000D01*
D14*
X10513500Y-17715000D02*
G75*
G02*
X10263500Y-17715000I-125000J0D01*
G01*
X10263500Y-17715000D02*
G75*
G02*
X10513500Y-17715000I125000J0D01*
G01*
X10519008Y-7596230D02*
G75*
G02*
X10269008Y-7596230I-125000J0D01*
G01*
X10269008Y-7596230D02*
G75*
G02*
X10519008Y-7596230I125000J0D01*
G01*
X13525000Y-4380000D02*
G75*
G02*
X13275000Y-4380000I-125000J0D01*
G01*
X13275000Y-4380000D02*
G75*
G02*
X13525000Y-4380000I125000J0D01*
G01*
X15530005Y-10095000D02*
G75*
G02*
X15280005Y-10095000I-125000J0D01*
G01*
X15280005Y-10095000D02*
G75*
G02*
X15530005Y-10095000I125000J0D01*
G01*
X25055000Y-7428000D02*
G75*
G02*
X24805000Y-7428000I-125000J0D01*
G01*
X24805000Y-7428000D02*
G75*
G02*
X25055000Y-7428000I125000J0D01*
G01*
X25055000Y-13143000D02*
G75*
G02*
X24805000Y-13143000I-125000J0D01*
G01*
X24805000Y-13143000D02*
G75*
G02*
X25055000Y-13143000I125000J0D01*
G01*
D15*
X10960005Y-12546000D02*
X10960005Y-12851000D01*
X10807505Y-12698500D02*
X11112505Y-12698500D01*
X10960005Y-14451000D02*
X10960005Y-14756000D01*
X10807505Y-14603500D02*
X11112505Y-14603500D01*
X10960005Y-16356000D02*
X10960005Y-16661000D01*
X10807505Y-16508500D02*
X11112505Y-16508500D01*
X11595005Y-12292000D02*
X11595005Y-12597000D01*
X11442505Y-12444500D02*
X11747505Y-12444500D01*
X11595005Y-14197000D02*
X11595005Y-14502000D01*
X11442505Y-14349500D02*
X11747505Y-14349500D01*
X11595005Y-16102000D02*
X11595005Y-16407000D01*
X11442505Y-16254500D02*
X11747505Y-16254500D01*
X12865005Y-12546000D02*
X12865005Y-12851000D01*
X12712505Y-12698500D02*
X13017505Y-12698500D01*
X12865005Y-14451000D02*
X12865005Y-14756000D01*
X12712505Y-14603500D02*
X13017505Y-14603500D01*
X13500005Y-12292000D02*
X13500005Y-12597000D01*
X13347505Y-12444500D02*
X13652505Y-12444500D01*
X13500005Y-14197000D02*
X13500005Y-14502000D01*
X13347505Y-14349500D02*
X13652505Y-14349500D01*
X14071500Y-4926000D02*
X14071500Y-5231000D01*
X13919000Y-5078500D02*
X14224000Y-5078500D01*
X14071505Y-6831000D02*
X14071505Y-7136000D01*
X13919005Y-6983500D02*
X14224005Y-6983500D01*
X14071505Y-8736000D02*
X14071505Y-9041000D01*
X13919005Y-8888500D02*
X14224005Y-8888500D01*
X14071505Y-10641000D02*
X14071505Y-10946000D01*
X13919005Y-10793500D02*
X14224005Y-10793500D01*
X14706500Y-4672000D02*
X14706500Y-4977000D01*
X14554000Y-4824500D02*
X14859000Y-4824500D01*
X14706505Y-6577000D02*
X14706505Y-6882000D01*
X14554005Y-6729500D02*
X14859005Y-6729500D01*
X14706505Y-8482000D02*
X14706505Y-8787000D01*
X14554005Y-8634500D02*
X14859005Y-8634500D01*
X14706505Y-10387000D02*
X14706505Y-10692000D01*
X14554005Y-10539500D02*
X14859005Y-10539500D01*
X14770005Y-12546000D02*
X14770005Y-12851000D01*
X14617505Y-12698500D02*
X14922505Y-12698500D01*
X15405005Y-12292000D02*
X15405005Y-12597000D01*
X15252505Y-12444500D02*
X15557505Y-12444500D01*
X15976500Y-4926000D02*
X15976500Y-5231000D01*
X15824000Y-5078500D02*
X16129000Y-5078500D01*
X15976505Y-6831000D02*
X15976505Y-7136000D01*
X15824005Y-6983500D02*
X16129005Y-6983500D01*
X15976505Y-8736000D02*
X15976505Y-9041000D01*
X15824005Y-8888500D02*
X16129005Y-8888500D01*
X15976505Y-10641000D02*
X15976505Y-10946000D01*
X15824005Y-10793500D02*
X16129005Y-10793500D01*
X16611500Y-4672000D02*
X16611500Y-4977000D01*
X16459000Y-4824500D02*
X16764000Y-4824500D01*
X16611505Y-6577000D02*
X16611505Y-6882000D01*
X16459005Y-6729500D02*
X16764005Y-6729500D01*
X16611505Y-8482000D02*
X16611505Y-8787000D01*
X16459005Y-8634500D02*
X16764005Y-8634500D01*
X16611505Y-10387000D02*
X16611505Y-10692000D01*
X16459005Y-10539500D02*
X16764005Y-10539500D01*
X17881505Y-4132250D02*
X17881505Y-4437250D01*
X17729005Y-4284750D02*
X18034005Y-4284750D01*
X17881505Y-6037250D02*
X17881505Y-6342250D01*
X17729005Y-6189750D02*
X18034005Y-6189750D01*
X17881505Y-7942250D02*
X17881505Y-8247250D01*
X17729005Y-8094750D02*
X18034005Y-8094750D01*
X17881505Y-9847250D02*
X17881505Y-10152250D01*
X17729005Y-9999750D02*
X18034005Y-9999750D01*
X18516505Y-3878250D02*
X18516505Y-4183250D01*
X18364005Y-4030750D02*
X18669005Y-4030750D01*
X18516505Y-5783250D02*
X18516505Y-6088250D01*
X18364005Y-5935750D02*
X18669005Y-5935750D01*
X18516505Y-7688250D02*
X18516505Y-7993250D01*
X18364005Y-7840750D02*
X18669005Y-7840750D01*
X18516505Y-9593250D02*
X18516505Y-9898250D01*
X18364005Y-9745750D02*
X18669005Y-9745750D01*
X19786505Y-4672000D02*
X19786505Y-4977000D01*
X19634005Y-4824500D02*
X19939005Y-4824500D01*
X19786505Y-6577000D02*
X19786505Y-6882000D01*
X19634005Y-6729500D02*
X19939005Y-6729500D01*
X19786505Y-8482000D02*
X19786505Y-8787000D01*
X19634005Y-8634500D02*
X19939005Y-8634500D01*
X19786505Y-10387000D02*
X19786505Y-10692000D01*
X19634005Y-10539500D02*
X19939005Y-10539500D01*
X20421505Y-4418000D02*
X20421505Y-4723000D01*
X20269005Y-4570500D02*
X20574005Y-4570500D01*
X20421505Y-6323000D02*
X20421505Y-6628000D01*
X20269005Y-6475500D02*
X20574005Y-6475500D01*
X20421505Y-8228000D02*
X20421505Y-8533000D01*
X20269005Y-8380500D02*
X20574005Y-8380500D01*
X20421505Y-10133000D02*
X20421505Y-10438000D01*
X20269005Y-10285500D02*
X20574005Y-10285500D01*
X21691505Y-6069000D02*
X21691505Y-6374000D01*
X21539005Y-6221500D02*
X21844005Y-6221500D01*
X21691505Y-7974000D02*
X21691505Y-8279000D01*
X21539005Y-8126500D02*
X21844005Y-8126500D01*
X21691505Y-9879000D02*
X21691505Y-10184000D01*
X21539005Y-10031500D02*
X21844005Y-10031500D01*
X21691505Y-11784000D02*
X21691505Y-12089000D01*
X21539005Y-11936500D02*
X21844005Y-11936500D01*
X22326505Y-5815000D02*
X22326505Y-6120000D01*
X22174005Y-5967500D02*
X22479005Y-5967500D01*
X22326505Y-7720000D02*
X22326505Y-8025000D01*
X22174005Y-7872500D02*
X22479005Y-7872500D01*
X22326505Y-9625000D02*
X22326505Y-9930000D01*
X22174005Y-9777500D02*
X22479005Y-9777500D01*
X22326505Y-11530000D02*
X22326505Y-11835000D01*
X22174005Y-11682500D02*
X22479005Y-11682500D01*
X23596505Y-7974000D02*
X23596505Y-8279000D01*
X23444005Y-8126500D02*
X23749005Y-8126500D01*
X23596505Y-9879000D02*
X23596505Y-10184000D01*
X23444005Y-10031500D02*
X23749005Y-10031500D01*
X23596505Y-11784000D02*
X23596505Y-12089000D01*
X23444005Y-11936500D02*
X23749005Y-11936500D01*
X24231505Y-7720000D02*
X24231505Y-8025000D01*
X24079005Y-7872500D02*
X24384005Y-7872500D01*
X24231505Y-9625000D02*
X24231505Y-9930000D01*
X24079005Y-9777500D02*
X24384005Y-9777500D01*
X24231505Y-11530000D02*
X24231505Y-11835000D01*
X24079005Y-11682500D02*
X24384005Y-11682500D01*
D16*
X11482428Y-13093923D02*
X11482428Y-12811077D01*
X11199582Y-12811077D01*
X11199582Y-13093923D01*
X11482428Y-13093923D01*
X11482428Y-14998923D02*
X11482428Y-14716077D01*
X11199582Y-14716077D01*
X11199582Y-14998923D01*
X11482428Y-14998923D01*
X11482428Y-16903923D02*
X11482428Y-16621077D01*
X11199582Y-16621077D01*
X11199582Y-16903923D01*
X11482428Y-16903923D01*
X13387428Y-13093923D02*
X13387428Y-12811077D01*
X13104582Y-12811077D01*
X13104582Y-13093923D01*
X13387428Y-13093923D01*
X13387428Y-14998923D02*
X13387428Y-14716077D01*
X13104582Y-14716077D01*
X13104582Y-14998923D01*
X13387428Y-14998923D01*
X14593923Y-5473923D02*
X14593923Y-5191077D01*
X14311077Y-5191077D01*
X14311077Y-5473923D01*
X14593923Y-5473923D01*
X14593928Y-7378923D02*
X14593928Y-7096077D01*
X14311082Y-7096077D01*
X14311082Y-7378923D01*
X14593928Y-7378923D01*
X14593928Y-9283923D02*
X14593928Y-9001077D01*
X14311082Y-9001077D01*
X14311082Y-9283923D01*
X14593928Y-9283923D01*
X14593928Y-11188923D02*
X14593928Y-10906077D01*
X14311082Y-10906077D01*
X14311082Y-11188923D01*
X14593928Y-11188923D01*
X15292428Y-13093923D02*
X15292428Y-12811077D01*
X15009582Y-12811077D01*
X15009582Y-13093923D01*
X15292428Y-13093923D01*
X16498923Y-5473923D02*
X16498923Y-5191077D01*
X16216077Y-5191077D01*
X16216077Y-5473923D01*
X16498923Y-5473923D01*
X16498928Y-7378923D02*
X16498928Y-7096077D01*
X16216082Y-7096077D01*
X16216082Y-7378923D01*
X16498928Y-7378923D01*
X16498928Y-9283923D02*
X16498928Y-9001077D01*
X16216082Y-9001077D01*
X16216082Y-9283923D01*
X16498928Y-9283923D01*
X16498928Y-11188923D02*
X16498928Y-10906077D01*
X16216082Y-10906077D01*
X16216082Y-11188923D01*
X16498928Y-11188923D01*
X18403928Y-4680173D02*
X18403928Y-4397327D01*
X18121082Y-4397327D01*
X18121082Y-4680173D01*
X18403928Y-4680173D01*
X18403928Y-6585173D02*
X18403928Y-6302327D01*
X18121082Y-6302327D01*
X18121082Y-6585173D01*
X18403928Y-6585173D01*
X18403928Y-8490173D02*
X18403928Y-8207327D01*
X18121082Y-8207327D01*
X18121082Y-8490173D01*
X18403928Y-8490173D01*
X18403928Y-10395173D02*
X18403928Y-10112327D01*
X18121082Y-10112327D01*
X18121082Y-10395173D01*
X18403928Y-10395173D01*
X20308928Y-5219923D02*
X20308928Y-4937077D01*
X20026082Y-4937077D01*
X20026082Y-5219923D01*
X20308928Y-5219923D01*
X20308928Y-7124923D02*
X20308928Y-6842077D01*
X20026082Y-6842077D01*
X20026082Y-7124923D01*
X20308928Y-7124923D01*
X20308928Y-9029923D02*
X20308928Y-8747077D01*
X20026082Y-8747077D01*
X20026082Y-9029923D01*
X20308928Y-9029923D01*
X20308928Y-10934923D02*
X20308928Y-10652077D01*
X20026082Y-10652077D01*
X20026082Y-10934923D01*
X20308928Y-10934923D01*
X22213928Y-6616923D02*
X22213928Y-6334077D01*
X21931082Y-6334077D01*
X21931082Y-6616923D01*
X22213928Y-6616923D01*
X22213928Y-8521923D02*
X22213928Y-8239077D01*
X21931082Y-8239077D01*
X21931082Y-8521923D01*
X22213928Y-8521923D01*
X22213928Y-10426923D02*
X22213928Y-10144077D01*
X21931082Y-10144077D01*
X21931082Y-10426923D01*
X22213928Y-10426923D01*
X22213928Y-12331923D02*
X22213928Y-12049077D01*
X21931082Y-12049077D01*
X21931082Y-12331923D01*
X22213928Y-12331923D01*
X24118928Y-8521923D02*
X24118928Y-8239077D01*
X23836082Y-8239077D01*
X23836082Y-8521923D01*
X24118928Y-8521923D01*
X24118928Y-10426923D02*
X24118928Y-10144077D01*
X23836082Y-10144077D01*
X23836082Y-10426923D01*
X24118928Y-10426923D01*
X24118928Y-12331923D02*
X24118928Y-12049077D01*
X23836082Y-12049077D01*
X23836082Y-12331923D01*
X24118928Y-12331923D01*
D12*
X10296777Y-18378984D02*
X10296777Y-18178984D01*
X10296777Y-18178984D02*
X10344396Y-18178984D01*
X10344396Y-18178984D02*
X10372967Y-18188508D01*
X10372967Y-18188508D02*
X10392015Y-18207555D01*
X10392015Y-18207555D02*
X10401539Y-18226603D01*
X10401539Y-18226603D02*
X10411063Y-18264698D01*
X10411063Y-18264698D02*
X10411063Y-18293270D01*
X10411063Y-18293270D02*
X10401539Y-18331365D01*
X10401539Y-18331365D02*
X10392015Y-18350412D01*
X10392015Y-18350412D02*
X10372967Y-18369460D01*
X10372967Y-18369460D02*
X10344396Y-18378984D01*
X10344396Y-18378984D02*
X10296777Y-18378984D01*
X10496777Y-18378984D02*
X10496777Y-18245650D01*
X10496777Y-18283746D02*
X10506301Y-18264698D01*
X10506301Y-18264698D02*
X10515824Y-18255174D01*
X10515824Y-18255174D02*
X10534872Y-18245650D01*
X10534872Y-18245650D02*
X10553920Y-18245650D01*
X10620586Y-18378984D02*
X10620586Y-18245650D01*
X10620586Y-18178984D02*
X10611063Y-18188508D01*
X10611063Y-18188508D02*
X10620586Y-18198031D01*
X10620586Y-18198031D02*
X10630110Y-18188508D01*
X10630110Y-18188508D02*
X10620586Y-18178984D01*
X10620586Y-18178984D02*
X10620586Y-18198031D01*
X10744396Y-18378984D02*
X10725348Y-18369460D01*
X10725348Y-18369460D02*
X10715824Y-18350412D01*
X10715824Y-18350412D02*
X10715824Y-18178984D01*
X10849158Y-18378984D02*
X10830110Y-18369460D01*
X10830110Y-18369460D02*
X10820586Y-18350412D01*
X10820586Y-18350412D02*
X10820586Y-18178984D01*
X11077729Y-18378984D02*
X11077729Y-18178984D01*
X11077729Y-18178984D02*
X11144396Y-18321841D01*
X11144396Y-18321841D02*
X11211062Y-18178984D01*
X11211062Y-18178984D02*
X11211062Y-18378984D01*
X11392015Y-18378984D02*
X11392015Y-18274222D01*
X11392015Y-18274222D02*
X11382491Y-18255174D01*
X11382491Y-18255174D02*
X11363443Y-18245650D01*
X11363443Y-18245650D02*
X11325348Y-18245650D01*
X11325348Y-18245650D02*
X11306301Y-18255174D01*
X11392015Y-18369460D02*
X11372967Y-18378984D01*
X11372967Y-18378984D02*
X11325348Y-18378984D01*
X11325348Y-18378984D02*
X11306301Y-18369460D01*
X11306301Y-18369460D02*
X11296777Y-18350412D01*
X11296777Y-18350412D02*
X11296777Y-18331365D01*
X11296777Y-18331365D02*
X11306301Y-18312317D01*
X11306301Y-18312317D02*
X11325348Y-18302793D01*
X11325348Y-18302793D02*
X11372967Y-18302793D01*
X11372967Y-18302793D02*
X11392015Y-18293270D01*
X11487253Y-18245650D02*
X11487253Y-18445650D01*
X11487253Y-18255174D02*
X11506301Y-18245650D01*
X11506301Y-18245650D02*
X11544396Y-18245650D01*
X11544396Y-18245650D02*
X11563443Y-18255174D01*
X11563443Y-18255174D02*
X11572967Y-18264698D01*
X11572967Y-18264698D02*
X11582491Y-18283746D01*
X11582491Y-18283746D02*
X11582491Y-18340889D01*
X11582491Y-18340889D02*
X11572967Y-18359936D01*
X11572967Y-18359936D02*
X11563443Y-18369460D01*
X11563443Y-18369460D02*
X11544396Y-18378984D01*
X11544396Y-18378984D02*
X11506301Y-18378984D01*
X11506301Y-18378984D02*
X11487253Y-18369460D01*
X11668205Y-18359936D02*
X11677729Y-18369460D01*
X11677729Y-18369460D02*
X11668205Y-18378984D01*
X11668205Y-18378984D02*
X11658682Y-18369460D01*
X11658682Y-18369460D02*
X11668205Y-18359936D01*
X11668205Y-18359936D02*
X11668205Y-18378984D01*
X11668205Y-18255174D02*
X11677729Y-18264698D01*
X11677729Y-18264698D02*
X11668205Y-18274222D01*
X11668205Y-18274222D02*
X11658682Y-18264698D01*
X11658682Y-18264698D02*
X11668205Y-18255174D01*
X11668205Y-18255174D02*
X11668205Y-18274222D01*
D13*
X9861000Y-18620000D02*
X10036000Y-18795000D01*
X10036000Y-18620000D02*
X9861000Y-18795000D01*
D12*
X10401539Y-18798984D02*
X10287253Y-18798984D01*
X10344396Y-18798984D02*
X10344396Y-18598984D01*
X10344396Y-18598984D02*
X10325348Y-18627555D01*
X10325348Y-18627555D02*
X10306301Y-18646603D01*
X10306301Y-18646603D02*
X10287253Y-18656127D01*
X10487253Y-18779936D02*
X10496777Y-18789460D01*
X10496777Y-18789460D02*
X10487253Y-18798984D01*
X10487253Y-18798984D02*
X10477729Y-18789460D01*
X10477729Y-18789460D02*
X10487253Y-18779936D01*
X10487253Y-18779936D02*
X10487253Y-18798984D01*
X10563444Y-18598984D02*
X10696777Y-18598984D01*
X10696777Y-18598984D02*
X10611063Y-18798984D01*
X10868205Y-18598984D02*
X10772967Y-18598984D01*
X10772967Y-18598984D02*
X10763444Y-18694222D01*
X10763444Y-18694222D02*
X10772967Y-18684698D01*
X10772967Y-18684698D02*
X10792015Y-18675174D01*
X10792015Y-18675174D02*
X10839634Y-18675174D01*
X10839634Y-18675174D02*
X10858682Y-18684698D01*
X10858682Y-18684698D02*
X10868205Y-18694222D01*
X10868205Y-18694222D02*
X10877729Y-18713270D01*
X10877729Y-18713270D02*
X10877729Y-18760889D01*
X10877729Y-18760889D02*
X10868205Y-18779936D01*
X10868205Y-18779936D02*
X10858682Y-18789460D01*
X10858682Y-18789460D02*
X10839634Y-18798984D01*
X10839634Y-18798984D02*
X10792015Y-18798984D01*
X10792015Y-18798984D02*
X10772967Y-18789460D01*
X10772967Y-18789460D02*
X10763444Y-18779936D01*
X11001539Y-18598984D02*
X11020586Y-18598984D01*
X11020586Y-18598984D02*
X11039634Y-18608508D01*
X11039634Y-18608508D02*
X11049158Y-18618031D01*
X11049158Y-18618031D02*
X11058682Y-18637079D01*
X11058682Y-18637079D02*
X11068205Y-18675174D01*
X11068205Y-18675174D02*
X11068205Y-18722793D01*
X11068205Y-18722793D02*
X11058682Y-18760889D01*
X11058682Y-18760889D02*
X11049158Y-18779936D01*
X11049158Y-18779936D02*
X11039634Y-18789460D01*
X11039634Y-18789460D02*
X11020586Y-18798984D01*
X11020586Y-18798984D02*
X11001539Y-18798984D01*
X11001539Y-18798984D02*
X10982491Y-18789460D01*
X10982491Y-18789460D02*
X10972967Y-18779936D01*
X10972967Y-18779936D02*
X10963444Y-18760889D01*
X10963444Y-18760889D02*
X10953920Y-18722793D01*
X10953920Y-18722793D02*
X10953920Y-18675174D01*
X10953920Y-18675174D02*
X10963444Y-18637079D01*
X10963444Y-18637079D02*
X10972967Y-18618031D01*
X10972967Y-18618031D02*
X10982491Y-18608508D01*
X10982491Y-18608508D02*
X11001539Y-18598984D01*
X11153920Y-18798984D02*
X11153920Y-18665650D01*
X11153920Y-18684698D02*
X11163444Y-18675174D01*
X11163444Y-18675174D02*
X11182491Y-18665650D01*
X11182491Y-18665650D02*
X11211063Y-18665650D01*
X11211063Y-18665650D02*
X11230110Y-18675174D01*
X11230110Y-18675174D02*
X11239634Y-18694222D01*
X11239634Y-18694222D02*
X11239634Y-18798984D01*
X11239634Y-18694222D02*
X11249158Y-18675174D01*
X11249158Y-18675174D02*
X11268205Y-18665650D01*
X11268205Y-18665650D02*
X11296777Y-18665650D01*
X11296777Y-18665650D02*
X11315824Y-18675174D01*
X11315824Y-18675174D02*
X11325348Y-18694222D01*
X11325348Y-18694222D02*
X11325348Y-18798984D01*
X11420586Y-18798984D02*
X11420586Y-18665650D01*
X11420586Y-18684698D02*
X11430110Y-18675174D01*
X11430110Y-18675174D02*
X11449158Y-18665650D01*
X11449158Y-18665650D02*
X11477729Y-18665650D01*
X11477729Y-18665650D02*
X11496777Y-18675174D01*
X11496777Y-18675174D02*
X11506301Y-18694222D01*
X11506301Y-18694222D02*
X11506301Y-18798984D01*
X11506301Y-18694222D02*
X11515824Y-18675174D01*
X11515824Y-18675174D02*
X11534872Y-18665650D01*
X11534872Y-18665650D02*
X11563443Y-18665650D01*
X11563443Y-18665650D02*
X11582491Y-18675174D01*
X11582491Y-18675174D02*
X11592015Y-18694222D01*
X11592015Y-18694222D02*
X11592015Y-18798984D01*
X11982491Y-18589460D02*
X11811063Y-18846603D01*
X12239634Y-18598984D02*
X12258682Y-18598984D01*
X12258682Y-18598984D02*
X12277729Y-18608508D01*
X12277729Y-18608508D02*
X12287253Y-18618031D01*
X12287253Y-18618031D02*
X12296777Y-18637079D01*
X12296777Y-18637079D02*
X12306301Y-18675174D01*
X12306301Y-18675174D02*
X12306301Y-18722793D01*
X12306301Y-18722793D02*
X12296777Y-18760889D01*
X12296777Y-18760889D02*
X12287253Y-18779936D01*
X12287253Y-18779936D02*
X12277729Y-18789460D01*
X12277729Y-18789460D02*
X12258682Y-18798984D01*
X12258682Y-18798984D02*
X12239634Y-18798984D01*
X12239634Y-18798984D02*
X12220586Y-18789460D01*
X12220586Y-18789460D02*
X12211063Y-18779936D01*
X12211063Y-18779936D02*
X12201539Y-18760889D01*
X12201539Y-18760889D02*
X12192015Y-18722793D01*
X12192015Y-18722793D02*
X12192015Y-18675174D01*
X12192015Y-18675174D02*
X12201539Y-18637079D01*
X12201539Y-18637079D02*
X12211063Y-18618031D01*
X12211063Y-18618031D02*
X12220586Y-18608508D01*
X12220586Y-18608508D02*
X12239634Y-18598984D01*
X12392015Y-18779936D02*
X12401539Y-18789460D01*
X12401539Y-18789460D02*
X12392015Y-18798984D01*
X12392015Y-18798984D02*
X12382491Y-18789460D01*
X12382491Y-18789460D02*
X12392015Y-18779936D01*
X12392015Y-18779936D02*
X12392015Y-18798984D01*
X12525348Y-18598984D02*
X12544396Y-18598984D01*
X12544396Y-18598984D02*
X12563444Y-18608508D01*
X12563444Y-18608508D02*
X12572967Y-18618031D01*
X12572967Y-18618031D02*
X12582491Y-18637079D01*
X12582491Y-18637079D02*
X12592015Y-18675174D01*
X12592015Y-18675174D02*
X12592015Y-18722793D01*
X12592015Y-18722793D02*
X12582491Y-18760889D01*
X12582491Y-18760889D02*
X12572967Y-18779936D01*
X12572967Y-18779936D02*
X12563444Y-18789460D01*
X12563444Y-18789460D02*
X12544396Y-18798984D01*
X12544396Y-18798984D02*
X12525348Y-18798984D01*
X12525348Y-18798984D02*
X12506301Y-18789460D01*
X12506301Y-18789460D02*
X12496777Y-18779936D01*
X12496777Y-18779936D02*
X12487253Y-18760889D01*
X12487253Y-18760889D02*
X12477729Y-18722793D01*
X12477729Y-18722793D02*
X12477729Y-18675174D01*
X12477729Y-18675174D02*
X12487253Y-18637079D01*
X12487253Y-18637079D02*
X12496777Y-18618031D01*
X12496777Y-18618031D02*
X12506301Y-18608508D01*
X12506301Y-18608508D02*
X12525348Y-18598984D01*
X12763444Y-18598984D02*
X12725348Y-18598984D01*
X12725348Y-18598984D02*
X12706301Y-18608508D01*
X12706301Y-18608508D02*
X12696777Y-18618031D01*
X12696777Y-18618031D02*
X12677729Y-18646603D01*
X12677729Y-18646603D02*
X12668206Y-18684698D01*
X12668206Y-18684698D02*
X12668206Y-18760889D01*
X12668206Y-18760889D02*
X12677729Y-18779936D01*
X12677729Y-18779936D02*
X12687253Y-18789460D01*
X12687253Y-18789460D02*
X12706301Y-18798984D01*
X12706301Y-18798984D02*
X12744396Y-18798984D01*
X12744396Y-18798984D02*
X12763444Y-18789460D01*
X12763444Y-18789460D02*
X12772967Y-18779936D01*
X12772967Y-18779936D02*
X12782491Y-18760889D01*
X12782491Y-18760889D02*
X12782491Y-18713270D01*
X12782491Y-18713270D02*
X12772967Y-18694222D01*
X12772967Y-18694222D02*
X12763444Y-18684698D01*
X12763444Y-18684698D02*
X12744396Y-18675174D01*
X12744396Y-18675174D02*
X12706301Y-18675174D01*
X12706301Y-18675174D02*
X12687253Y-18684698D01*
X12687253Y-18684698D02*
X12677729Y-18694222D01*
X12677729Y-18694222D02*
X12668206Y-18713270D01*
X12896777Y-18684698D02*
X12877729Y-18675174D01*
X12877729Y-18675174D02*
X12868206Y-18665650D01*
X12868206Y-18665650D02*
X12858682Y-18646603D01*
X12858682Y-18646603D02*
X12858682Y-18637079D01*
X12858682Y-18637079D02*
X12868206Y-18618031D01*
X12868206Y-18618031D02*
X12877729Y-18608508D01*
X12877729Y-18608508D02*
X12896777Y-18598984D01*
X12896777Y-18598984D02*
X12934872Y-18598984D01*
X12934872Y-18598984D02*
X12953920Y-18608508D01*
X12953920Y-18608508D02*
X12963444Y-18618031D01*
X12963444Y-18618031D02*
X12972967Y-18637079D01*
X12972967Y-18637079D02*
X12972967Y-18646603D01*
X12972967Y-18646603D02*
X12963444Y-18665650D01*
X12963444Y-18665650D02*
X12953920Y-18675174D01*
X12953920Y-18675174D02*
X12934872Y-18684698D01*
X12934872Y-18684698D02*
X12896777Y-18684698D01*
X12896777Y-18684698D02*
X12877729Y-18694222D01*
X12877729Y-18694222D02*
X12868206Y-18703746D01*
X12868206Y-18703746D02*
X12858682Y-18722793D01*
X12858682Y-18722793D02*
X12858682Y-18760889D01*
X12858682Y-18760889D02*
X12868206Y-18779936D01*
X12868206Y-18779936D02*
X12877729Y-18789460D01*
X12877729Y-18789460D02*
X12896777Y-18798984D01*
X12896777Y-18798984D02*
X12934872Y-18798984D01*
X12934872Y-18798984D02*
X12953920Y-18789460D01*
X12953920Y-18789460D02*
X12963444Y-18779936D01*
X12963444Y-18779936D02*
X12972967Y-18760889D01*
X12972967Y-18760889D02*
X12972967Y-18722793D01*
X12972967Y-18722793D02*
X12963444Y-18703746D01*
X12963444Y-18703746D02*
X12953920Y-18694222D01*
X12953920Y-18694222D02*
X12934872Y-18684698D01*
X13068206Y-18798984D02*
X13106301Y-18798984D01*
X13106301Y-18798984D02*
X13125348Y-18789460D01*
X13125348Y-18789460D02*
X13134872Y-18779936D01*
X13134872Y-18779936D02*
X13153920Y-18751365D01*
X13153920Y-18751365D02*
X13163444Y-18713270D01*
X13163444Y-18713270D02*
X13163444Y-18637079D01*
X13163444Y-18637079D02*
X13153920Y-18618031D01*
X13153920Y-18618031D02*
X13144396Y-18608508D01*
X13144396Y-18608508D02*
X13125348Y-18598984D01*
X13125348Y-18598984D02*
X13087253Y-18598984D01*
X13087253Y-18598984D02*
X13068206Y-18608508D01*
X13068206Y-18608508D02*
X13058682Y-18618031D01*
X13058682Y-18618031D02*
X13049158Y-18637079D01*
X13049158Y-18637079D02*
X13049158Y-18684698D01*
X13049158Y-18684698D02*
X13058682Y-18703746D01*
X13058682Y-18703746D02*
X13068206Y-18713270D01*
X13068206Y-18713270D02*
X13087253Y-18722793D01*
X13087253Y-18722793D02*
X13125348Y-18722793D01*
X13125348Y-18722793D02*
X13144396Y-18713270D01*
X13144396Y-18713270D02*
X13153920Y-18703746D01*
X13153920Y-18703746D02*
X13163444Y-18684698D01*
X13239634Y-18598984D02*
X13239634Y-18637079D01*
X13315825Y-18598984D02*
X13315825Y-18637079D01*
X13611063Y-18875174D02*
X13601539Y-18865650D01*
X13601539Y-18865650D02*
X13582491Y-18837079D01*
X13582491Y-18837079D02*
X13572968Y-18818031D01*
X13572968Y-18818031D02*
X13563444Y-18789460D01*
X13563444Y-18789460D02*
X13553920Y-18741841D01*
X13553920Y-18741841D02*
X13553920Y-18703746D01*
X13553920Y-18703746D02*
X13563444Y-18656127D01*
X13563444Y-18656127D02*
X13572968Y-18627555D01*
X13572968Y-18627555D02*
X13582491Y-18608508D01*
X13582491Y-18608508D02*
X13601539Y-18579936D01*
X13601539Y-18579936D02*
X13611063Y-18570412D01*
X13782491Y-18598984D02*
X13687253Y-18598984D01*
X13687253Y-18598984D02*
X13677729Y-18694222D01*
X13677729Y-18694222D02*
X13687253Y-18684698D01*
X13687253Y-18684698D02*
X13706301Y-18675174D01*
X13706301Y-18675174D02*
X13753920Y-18675174D01*
X13753920Y-18675174D02*
X13772968Y-18684698D01*
X13772968Y-18684698D02*
X13782491Y-18694222D01*
X13782491Y-18694222D02*
X13792015Y-18713270D01*
X13792015Y-18713270D02*
X13792015Y-18760889D01*
X13792015Y-18760889D02*
X13782491Y-18779936D01*
X13782491Y-18779936D02*
X13772968Y-18789460D01*
X13772968Y-18789460D02*
X13753920Y-18798984D01*
X13753920Y-18798984D02*
X13706301Y-18798984D01*
X13706301Y-18798984D02*
X13687253Y-18789460D01*
X13687253Y-18789460D02*
X13677729Y-18779936D01*
X13906301Y-18684698D02*
X13887253Y-18675174D01*
X13887253Y-18675174D02*
X13877729Y-18665650D01*
X13877729Y-18665650D02*
X13868206Y-18646603D01*
X13868206Y-18646603D02*
X13868206Y-18637079D01*
X13868206Y-18637079D02*
X13877729Y-18618031D01*
X13877729Y-18618031D02*
X13887253Y-18608508D01*
X13887253Y-18608508D02*
X13906301Y-18598984D01*
X13906301Y-18598984D02*
X13944396Y-18598984D01*
X13944396Y-18598984D02*
X13963444Y-18608508D01*
X13963444Y-18608508D02*
X13972968Y-18618031D01*
X13972968Y-18618031D02*
X13982491Y-18637079D01*
X13982491Y-18637079D02*
X13982491Y-18646603D01*
X13982491Y-18646603D02*
X13972968Y-18665650D01*
X13972968Y-18665650D02*
X13963444Y-18675174D01*
X13963444Y-18675174D02*
X13944396Y-18684698D01*
X13944396Y-18684698D02*
X13906301Y-18684698D01*
X13906301Y-18684698D02*
X13887253Y-18694222D01*
X13887253Y-18694222D02*
X13877729Y-18703746D01*
X13877729Y-18703746D02*
X13868206Y-18722793D01*
X13868206Y-18722793D02*
X13868206Y-18760889D01*
X13868206Y-18760889D02*
X13877729Y-18779936D01*
X13877729Y-18779936D02*
X13887253Y-18789460D01*
X13887253Y-18789460D02*
X13906301Y-18798984D01*
X13906301Y-18798984D02*
X13944396Y-18798984D01*
X13944396Y-18798984D02*
X13963444Y-18789460D01*
X13963444Y-18789460D02*
X13972968Y-18779936D01*
X13972968Y-18779936D02*
X13982491Y-18760889D01*
X13982491Y-18760889D02*
X13982491Y-18722793D01*
X13982491Y-18722793D02*
X13972968Y-18703746D01*
X13972968Y-18703746D02*
X13963444Y-18694222D01*
X13963444Y-18694222D02*
X13944396Y-18684698D01*
X14220587Y-18798984D02*
X14220587Y-18598984D01*
X14306301Y-18798984D02*
X14306301Y-18694222D01*
X14306301Y-18694222D02*
X14296777Y-18675174D01*
X14296777Y-18675174D02*
X14277730Y-18665650D01*
X14277730Y-18665650D02*
X14249158Y-18665650D01*
X14249158Y-18665650D02*
X14230110Y-18675174D01*
X14230110Y-18675174D02*
X14220587Y-18684698D01*
X14430110Y-18798984D02*
X14411063Y-18789460D01*
X14411063Y-18789460D02*
X14401539Y-18779936D01*
X14401539Y-18779936D02*
X14392015Y-18760889D01*
X14392015Y-18760889D02*
X14392015Y-18703746D01*
X14392015Y-18703746D02*
X14401539Y-18684698D01*
X14401539Y-18684698D02*
X14411063Y-18675174D01*
X14411063Y-18675174D02*
X14430110Y-18665650D01*
X14430110Y-18665650D02*
X14458682Y-18665650D01*
X14458682Y-18665650D02*
X14477730Y-18675174D01*
X14477730Y-18675174D02*
X14487253Y-18684698D01*
X14487253Y-18684698D02*
X14496777Y-18703746D01*
X14496777Y-18703746D02*
X14496777Y-18760889D01*
X14496777Y-18760889D02*
X14487253Y-18779936D01*
X14487253Y-18779936D02*
X14477730Y-18789460D01*
X14477730Y-18789460D02*
X14458682Y-18798984D01*
X14458682Y-18798984D02*
X14430110Y-18798984D01*
X14611063Y-18798984D02*
X14592015Y-18789460D01*
X14592015Y-18789460D02*
X14582491Y-18770412D01*
X14582491Y-18770412D02*
X14582491Y-18598984D01*
X14763444Y-18789460D02*
X14744396Y-18798984D01*
X14744396Y-18798984D02*
X14706301Y-18798984D01*
X14706301Y-18798984D02*
X14687253Y-18789460D01*
X14687253Y-18789460D02*
X14677730Y-18770412D01*
X14677730Y-18770412D02*
X14677730Y-18694222D01*
X14677730Y-18694222D02*
X14687253Y-18675174D01*
X14687253Y-18675174D02*
X14706301Y-18665650D01*
X14706301Y-18665650D02*
X14744396Y-18665650D01*
X14744396Y-18665650D02*
X14763444Y-18675174D01*
X14763444Y-18675174D02*
X14772968Y-18694222D01*
X14772968Y-18694222D02*
X14772968Y-18713270D01*
X14772968Y-18713270D02*
X14677730Y-18732317D01*
X14849158Y-18789460D02*
X14868206Y-18798984D01*
X14868206Y-18798984D02*
X14906301Y-18798984D01*
X14906301Y-18798984D02*
X14925349Y-18789460D01*
X14925349Y-18789460D02*
X14934872Y-18770412D01*
X14934872Y-18770412D02*
X14934872Y-18760889D01*
X14934872Y-18760889D02*
X14925349Y-18741841D01*
X14925349Y-18741841D02*
X14906301Y-18732317D01*
X14906301Y-18732317D02*
X14877730Y-18732317D01*
X14877730Y-18732317D02*
X14858682Y-18722793D01*
X14858682Y-18722793D02*
X14849158Y-18703746D01*
X14849158Y-18703746D02*
X14849158Y-18694222D01*
X14849158Y-18694222D02*
X14858682Y-18675174D01*
X14858682Y-18675174D02*
X14877730Y-18665650D01*
X14877730Y-18665650D02*
X14906301Y-18665650D01*
X14906301Y-18665650D02*
X14925349Y-18675174D01*
X15001539Y-18875174D02*
X15011063Y-18865650D01*
X15011063Y-18865650D02*
X15030111Y-18837079D01*
X15030111Y-18837079D02*
X15039634Y-18818031D01*
X15039634Y-18818031D02*
X15049158Y-18789460D01*
X15049158Y-18789460D02*
X15058682Y-18741841D01*
X15058682Y-18741841D02*
X15058682Y-18703746D01*
X15058682Y-18703746D02*
X15049158Y-18656127D01*
X15049158Y-18656127D02*
X15039634Y-18627555D01*
X15039634Y-18627555D02*
X15030111Y-18608508D01*
X15030111Y-18608508D02*
X15011063Y-18579936D01*
X15011063Y-18579936D02*
X15001539Y-18570412D01*
X15363444Y-18875174D02*
X15353920Y-18865650D01*
X15353920Y-18865650D02*
X15334872Y-18837079D01*
X15334872Y-18837079D02*
X15325349Y-18818031D01*
X15325349Y-18818031D02*
X15315825Y-18789460D01*
X15315825Y-18789460D02*
X15306301Y-18741841D01*
X15306301Y-18741841D02*
X15306301Y-18703746D01*
X15306301Y-18703746D02*
X15315825Y-18656127D01*
X15315825Y-18656127D02*
X15325349Y-18627555D01*
X15325349Y-18627555D02*
X15334872Y-18608508D01*
X15334872Y-18608508D02*
X15353920Y-18579936D01*
X15353920Y-18579936D02*
X15363444Y-18570412D01*
X15439634Y-18665650D02*
X15439634Y-18798984D01*
X15439634Y-18684698D02*
X15449158Y-18675174D01*
X15449158Y-18675174D02*
X15468206Y-18665650D01*
X15468206Y-18665650D02*
X15496777Y-18665650D01*
X15496777Y-18665650D02*
X15515825Y-18675174D01*
X15515825Y-18675174D02*
X15525349Y-18694222D01*
X15525349Y-18694222D02*
X15525349Y-18798984D01*
X15649158Y-18798984D02*
X15630111Y-18789460D01*
X15630111Y-18789460D02*
X15620587Y-18779936D01*
X15620587Y-18779936D02*
X15611063Y-18760889D01*
X15611063Y-18760889D02*
X15611063Y-18703746D01*
X15611063Y-18703746D02*
X15620587Y-18684698D01*
X15620587Y-18684698D02*
X15630111Y-18675174D01*
X15630111Y-18675174D02*
X15649158Y-18665650D01*
X15649158Y-18665650D02*
X15677730Y-18665650D01*
X15677730Y-18665650D02*
X15696777Y-18675174D01*
X15696777Y-18675174D02*
X15706301Y-18684698D01*
X15706301Y-18684698D02*
X15715825Y-18703746D01*
X15715825Y-18703746D02*
X15715825Y-18760889D01*
X15715825Y-18760889D02*
X15706301Y-18779936D01*
X15706301Y-18779936D02*
X15696777Y-18789460D01*
X15696777Y-18789460D02*
X15677730Y-18798984D01*
X15677730Y-18798984D02*
X15649158Y-18798984D01*
X15772968Y-18665650D02*
X15849158Y-18665650D01*
X15801539Y-18598984D02*
X15801539Y-18770412D01*
X15801539Y-18770412D02*
X15811063Y-18789460D01*
X15811063Y-18789460D02*
X15830111Y-18798984D01*
X15830111Y-18798984D02*
X15849158Y-18798984D01*
X16068206Y-18665650D02*
X16068206Y-18865650D01*
X16068206Y-18675174D02*
X16087253Y-18665650D01*
X16087253Y-18665650D02*
X16125349Y-18665650D01*
X16125349Y-18665650D02*
X16144396Y-18675174D01*
X16144396Y-18675174D02*
X16153920Y-18684698D01*
X16153920Y-18684698D02*
X16163444Y-18703746D01*
X16163444Y-18703746D02*
X16163444Y-18760889D01*
X16163444Y-18760889D02*
X16153920Y-18779936D01*
X16153920Y-18779936D02*
X16144396Y-18789460D01*
X16144396Y-18789460D02*
X16125349Y-18798984D01*
X16125349Y-18798984D02*
X16087253Y-18798984D01*
X16087253Y-18798984D02*
X16068206Y-18789460D01*
X16277730Y-18798984D02*
X16258682Y-18789460D01*
X16258682Y-18789460D02*
X16249158Y-18770412D01*
X16249158Y-18770412D02*
X16249158Y-18598984D01*
X16439634Y-18798984D02*
X16439634Y-18694222D01*
X16439634Y-18694222D02*
X16430111Y-18675174D01*
X16430111Y-18675174D02*
X16411063Y-18665650D01*
X16411063Y-18665650D02*
X16372968Y-18665650D01*
X16372968Y-18665650D02*
X16353920Y-18675174D01*
X16439634Y-18789460D02*
X16420587Y-18798984D01*
X16420587Y-18798984D02*
X16372968Y-18798984D01*
X16372968Y-18798984D02*
X16353920Y-18789460D01*
X16353920Y-18789460D02*
X16344396Y-18770412D01*
X16344396Y-18770412D02*
X16344396Y-18751365D01*
X16344396Y-18751365D02*
X16353920Y-18732317D01*
X16353920Y-18732317D02*
X16372968Y-18722793D01*
X16372968Y-18722793D02*
X16420587Y-18722793D01*
X16420587Y-18722793D02*
X16439634Y-18713270D01*
X16506301Y-18665650D02*
X16582492Y-18665650D01*
X16534873Y-18598984D02*
X16534873Y-18770412D01*
X16534873Y-18770412D02*
X16544396Y-18789460D01*
X16544396Y-18789460D02*
X16563444Y-18798984D01*
X16563444Y-18798984D02*
X16582492Y-18798984D01*
X16725349Y-18789460D02*
X16706301Y-18798984D01*
X16706301Y-18798984D02*
X16668206Y-18798984D01*
X16668206Y-18798984D02*
X16649158Y-18789460D01*
X16649158Y-18789460D02*
X16639634Y-18770412D01*
X16639634Y-18770412D02*
X16639634Y-18694222D01*
X16639634Y-18694222D02*
X16649158Y-18675174D01*
X16649158Y-18675174D02*
X16668206Y-18665650D01*
X16668206Y-18665650D02*
X16706301Y-18665650D01*
X16706301Y-18665650D02*
X16725349Y-18675174D01*
X16725349Y-18675174D02*
X16734873Y-18694222D01*
X16734873Y-18694222D02*
X16734873Y-18713270D01*
X16734873Y-18713270D02*
X16639634Y-18732317D01*
X16906301Y-18798984D02*
X16906301Y-18598984D01*
X16906301Y-18789460D02*
X16887254Y-18798984D01*
X16887254Y-18798984D02*
X16849158Y-18798984D01*
X16849158Y-18798984D02*
X16830111Y-18789460D01*
X16830111Y-18789460D02*
X16820587Y-18779936D01*
X16820587Y-18779936D02*
X16811063Y-18760889D01*
X16811063Y-18760889D02*
X16811063Y-18703746D01*
X16811063Y-18703746D02*
X16820587Y-18684698D01*
X16820587Y-18684698D02*
X16830111Y-18675174D01*
X16830111Y-18675174D02*
X16849158Y-18665650D01*
X16849158Y-18665650D02*
X16887254Y-18665650D01*
X16887254Y-18665650D02*
X16906301Y-18675174D01*
X16982492Y-18875174D02*
X16992016Y-18865650D01*
X16992016Y-18865650D02*
X17011063Y-18837079D01*
X17011063Y-18837079D02*
X17020587Y-18818031D01*
X17020587Y-18818031D02*
X17030111Y-18789460D01*
X17030111Y-18789460D02*
X17039635Y-18741841D01*
X17039635Y-18741841D02*
X17039635Y-18703746D01*
X17039635Y-18703746D02*
X17030111Y-18656127D01*
X17030111Y-18656127D02*
X17020587Y-18627555D01*
X17020587Y-18627555D02*
X17011063Y-18608508D01*
X17011063Y-18608508D02*
X16992016Y-18579936D01*
X16992016Y-18579936D02*
X16982492Y-18570412D01*
X10036000Y-19002500D02*
G75*
G02*
X9836000Y-19002500I-100000J0D01*
G01*
X9836000Y-19002500D02*
G75*
G02*
X10036000Y-19002500I100000J0D01*
G01*
X10287253Y-18913031D02*
X10296777Y-18903508D01*
X10296777Y-18903508D02*
X10315824Y-18893984D01*
X10315824Y-18893984D02*
X10363444Y-18893984D01*
X10363444Y-18893984D02*
X10382491Y-18903508D01*
X10382491Y-18903508D02*
X10392015Y-18913031D01*
X10392015Y-18913031D02*
X10401539Y-18932079D01*
X10401539Y-18932079D02*
X10401539Y-18951127D01*
X10401539Y-18951127D02*
X10392015Y-18979698D01*
X10392015Y-18979698D02*
X10277729Y-19093984D01*
X10277729Y-19093984D02*
X10401539Y-19093984D01*
X10487253Y-19074936D02*
X10496777Y-19084460D01*
X10496777Y-19084460D02*
X10487253Y-19093984D01*
X10487253Y-19093984D02*
X10477729Y-19084460D01*
X10477729Y-19084460D02*
X10487253Y-19074936D01*
X10487253Y-19074936D02*
X10487253Y-19093984D01*
X10677729Y-18893984D02*
X10582491Y-18893984D01*
X10582491Y-18893984D02*
X10572967Y-18989222D01*
X10572967Y-18989222D02*
X10582491Y-18979698D01*
X10582491Y-18979698D02*
X10601539Y-18970174D01*
X10601539Y-18970174D02*
X10649158Y-18970174D01*
X10649158Y-18970174D02*
X10668205Y-18979698D01*
X10668205Y-18979698D02*
X10677729Y-18989222D01*
X10677729Y-18989222D02*
X10687253Y-19008270D01*
X10687253Y-19008270D02*
X10687253Y-19055889D01*
X10687253Y-19055889D02*
X10677729Y-19074936D01*
X10677729Y-19074936D02*
X10668205Y-19084460D01*
X10668205Y-19084460D02*
X10649158Y-19093984D01*
X10649158Y-19093984D02*
X10601539Y-19093984D01*
X10601539Y-19093984D02*
X10582491Y-19084460D01*
X10582491Y-19084460D02*
X10572967Y-19074936D01*
X10811063Y-18893984D02*
X10830110Y-18893984D01*
X10830110Y-18893984D02*
X10849158Y-18903508D01*
X10849158Y-18903508D02*
X10858682Y-18913031D01*
X10858682Y-18913031D02*
X10868205Y-18932079D01*
X10868205Y-18932079D02*
X10877729Y-18970174D01*
X10877729Y-18970174D02*
X10877729Y-19017793D01*
X10877729Y-19017793D02*
X10868205Y-19055889D01*
X10868205Y-19055889D02*
X10858682Y-19074936D01*
X10858682Y-19074936D02*
X10849158Y-19084460D01*
X10849158Y-19084460D02*
X10830110Y-19093984D01*
X10830110Y-19093984D02*
X10811063Y-19093984D01*
X10811063Y-19093984D02*
X10792015Y-19084460D01*
X10792015Y-19084460D02*
X10782491Y-19074936D01*
X10782491Y-19074936D02*
X10772967Y-19055889D01*
X10772967Y-19055889D02*
X10763444Y-19017793D01*
X10763444Y-19017793D02*
X10763444Y-18970174D01*
X10763444Y-18970174D02*
X10772967Y-18932079D01*
X10772967Y-18932079D02*
X10782491Y-18913031D01*
X10782491Y-18913031D02*
X10792015Y-18903508D01*
X10792015Y-18903508D02*
X10811063Y-18893984D01*
X11001539Y-18893984D02*
X11020586Y-18893984D01*
X11020586Y-18893984D02*
X11039634Y-18903508D01*
X11039634Y-18903508D02*
X11049158Y-18913031D01*
X11049158Y-18913031D02*
X11058682Y-18932079D01*
X11058682Y-18932079D02*
X11068205Y-18970174D01*
X11068205Y-18970174D02*
X11068205Y-19017793D01*
X11068205Y-19017793D02*
X11058682Y-19055889D01*
X11058682Y-19055889D02*
X11049158Y-19074936D01*
X11049158Y-19074936D02*
X11039634Y-19084460D01*
X11039634Y-19084460D02*
X11020586Y-19093984D01*
X11020586Y-19093984D02*
X11001539Y-19093984D01*
X11001539Y-19093984D02*
X10982491Y-19084460D01*
X10982491Y-19084460D02*
X10972967Y-19074936D01*
X10972967Y-19074936D02*
X10963444Y-19055889D01*
X10963444Y-19055889D02*
X10953920Y-19017793D01*
X10953920Y-19017793D02*
X10953920Y-18970174D01*
X10953920Y-18970174D02*
X10963444Y-18932079D01*
X10963444Y-18932079D02*
X10972967Y-18913031D01*
X10972967Y-18913031D02*
X10982491Y-18903508D01*
X10982491Y-18903508D02*
X11001539Y-18893984D01*
X11153920Y-19093984D02*
X11153920Y-18960650D01*
X11153920Y-18979698D02*
X11163444Y-18970174D01*
X11163444Y-18970174D02*
X11182491Y-18960650D01*
X11182491Y-18960650D02*
X11211063Y-18960650D01*
X11211063Y-18960650D02*
X11230110Y-18970174D01*
X11230110Y-18970174D02*
X11239634Y-18989222D01*
X11239634Y-18989222D02*
X11239634Y-19093984D01*
X11239634Y-18989222D02*
X11249158Y-18970174D01*
X11249158Y-18970174D02*
X11268205Y-18960650D01*
X11268205Y-18960650D02*
X11296777Y-18960650D01*
X11296777Y-18960650D02*
X11315824Y-18970174D01*
X11315824Y-18970174D02*
X11325348Y-18989222D01*
X11325348Y-18989222D02*
X11325348Y-19093984D01*
X11420586Y-19093984D02*
X11420586Y-18960650D01*
X11420586Y-18979698D02*
X11430110Y-18970174D01*
X11430110Y-18970174D02*
X11449158Y-18960650D01*
X11449158Y-18960650D02*
X11477729Y-18960650D01*
X11477729Y-18960650D02*
X11496777Y-18970174D01*
X11496777Y-18970174D02*
X11506301Y-18989222D01*
X11506301Y-18989222D02*
X11506301Y-19093984D01*
X11506301Y-18989222D02*
X11515824Y-18970174D01*
X11515824Y-18970174D02*
X11534872Y-18960650D01*
X11534872Y-18960650D02*
X11563443Y-18960650D01*
X11563443Y-18960650D02*
X11582491Y-18970174D01*
X11582491Y-18970174D02*
X11592015Y-18989222D01*
X11592015Y-18989222D02*
X11592015Y-19093984D01*
X11982491Y-18884460D02*
X11811063Y-19141603D01*
X12239634Y-18893984D02*
X12258682Y-18893984D01*
X12258682Y-18893984D02*
X12277729Y-18903508D01*
X12277729Y-18903508D02*
X12287253Y-18913031D01*
X12287253Y-18913031D02*
X12296777Y-18932079D01*
X12296777Y-18932079D02*
X12306301Y-18970174D01*
X12306301Y-18970174D02*
X12306301Y-19017793D01*
X12306301Y-19017793D02*
X12296777Y-19055889D01*
X12296777Y-19055889D02*
X12287253Y-19074936D01*
X12287253Y-19074936D02*
X12277729Y-19084460D01*
X12277729Y-19084460D02*
X12258682Y-19093984D01*
X12258682Y-19093984D02*
X12239634Y-19093984D01*
X12239634Y-19093984D02*
X12220586Y-19084460D01*
X12220586Y-19084460D02*
X12211063Y-19074936D01*
X12211063Y-19074936D02*
X12201539Y-19055889D01*
X12201539Y-19055889D02*
X12192015Y-19017793D01*
X12192015Y-19017793D02*
X12192015Y-18970174D01*
X12192015Y-18970174D02*
X12201539Y-18932079D01*
X12201539Y-18932079D02*
X12211063Y-18913031D01*
X12211063Y-18913031D02*
X12220586Y-18903508D01*
X12220586Y-18903508D02*
X12239634Y-18893984D01*
X12392015Y-19074936D02*
X12401539Y-19084460D01*
X12401539Y-19084460D02*
X12392015Y-19093984D01*
X12392015Y-19093984D02*
X12382491Y-19084460D01*
X12382491Y-19084460D02*
X12392015Y-19074936D01*
X12392015Y-19074936D02*
X12392015Y-19093984D01*
X12525348Y-18893984D02*
X12544396Y-18893984D01*
X12544396Y-18893984D02*
X12563444Y-18903508D01*
X12563444Y-18903508D02*
X12572967Y-18913031D01*
X12572967Y-18913031D02*
X12582491Y-18932079D01*
X12582491Y-18932079D02*
X12592015Y-18970174D01*
X12592015Y-18970174D02*
X12592015Y-19017793D01*
X12592015Y-19017793D02*
X12582491Y-19055889D01*
X12582491Y-19055889D02*
X12572967Y-19074936D01*
X12572967Y-19074936D02*
X12563444Y-19084460D01*
X12563444Y-19084460D02*
X12544396Y-19093984D01*
X12544396Y-19093984D02*
X12525348Y-19093984D01*
X12525348Y-19093984D02*
X12506301Y-19084460D01*
X12506301Y-19084460D02*
X12496777Y-19074936D01*
X12496777Y-19074936D02*
X12487253Y-19055889D01*
X12487253Y-19055889D02*
X12477729Y-19017793D01*
X12477729Y-19017793D02*
X12477729Y-18970174D01*
X12477729Y-18970174D02*
X12487253Y-18932079D01*
X12487253Y-18932079D02*
X12496777Y-18913031D01*
X12496777Y-18913031D02*
X12506301Y-18903508D01*
X12506301Y-18903508D02*
X12525348Y-18893984D01*
X12687253Y-19093984D02*
X12725348Y-19093984D01*
X12725348Y-19093984D02*
X12744396Y-19084460D01*
X12744396Y-19084460D02*
X12753920Y-19074936D01*
X12753920Y-19074936D02*
X12772967Y-19046365D01*
X12772967Y-19046365D02*
X12782491Y-19008270D01*
X12782491Y-19008270D02*
X12782491Y-18932079D01*
X12782491Y-18932079D02*
X12772967Y-18913031D01*
X12772967Y-18913031D02*
X12763444Y-18903508D01*
X12763444Y-18903508D02*
X12744396Y-18893984D01*
X12744396Y-18893984D02*
X12706301Y-18893984D01*
X12706301Y-18893984D02*
X12687253Y-18903508D01*
X12687253Y-18903508D02*
X12677729Y-18913031D01*
X12677729Y-18913031D02*
X12668206Y-18932079D01*
X12668206Y-18932079D02*
X12668206Y-18979698D01*
X12668206Y-18979698D02*
X12677729Y-18998746D01*
X12677729Y-18998746D02*
X12687253Y-19008270D01*
X12687253Y-19008270D02*
X12706301Y-19017793D01*
X12706301Y-19017793D02*
X12744396Y-19017793D01*
X12744396Y-19017793D02*
X12763444Y-19008270D01*
X12763444Y-19008270D02*
X12772967Y-18998746D01*
X12772967Y-18998746D02*
X12782491Y-18979698D01*
X12896777Y-18979698D02*
X12877729Y-18970174D01*
X12877729Y-18970174D02*
X12868206Y-18960650D01*
X12868206Y-18960650D02*
X12858682Y-18941603D01*
X12858682Y-18941603D02*
X12858682Y-18932079D01*
X12858682Y-18932079D02*
X12868206Y-18913031D01*
X12868206Y-18913031D02*
X12877729Y-18903508D01*
X12877729Y-18903508D02*
X12896777Y-18893984D01*
X12896777Y-18893984D02*
X12934872Y-18893984D01*
X12934872Y-18893984D02*
X12953920Y-18903508D01*
X12953920Y-18903508D02*
X12963444Y-18913031D01*
X12963444Y-18913031D02*
X12972967Y-18932079D01*
X12972967Y-18932079D02*
X12972967Y-18941603D01*
X12972967Y-18941603D02*
X12963444Y-18960650D01*
X12963444Y-18960650D02*
X12953920Y-18970174D01*
X12953920Y-18970174D02*
X12934872Y-18979698D01*
X12934872Y-18979698D02*
X12896777Y-18979698D01*
X12896777Y-18979698D02*
X12877729Y-18989222D01*
X12877729Y-18989222D02*
X12868206Y-18998746D01*
X12868206Y-18998746D02*
X12858682Y-19017793D01*
X12858682Y-19017793D02*
X12858682Y-19055889D01*
X12858682Y-19055889D02*
X12868206Y-19074936D01*
X12868206Y-19074936D02*
X12877729Y-19084460D01*
X12877729Y-19084460D02*
X12896777Y-19093984D01*
X12896777Y-19093984D02*
X12934872Y-19093984D01*
X12934872Y-19093984D02*
X12953920Y-19084460D01*
X12953920Y-19084460D02*
X12963444Y-19074936D01*
X12963444Y-19074936D02*
X12972967Y-19055889D01*
X12972967Y-19055889D02*
X12972967Y-19017793D01*
X12972967Y-19017793D02*
X12963444Y-18998746D01*
X12963444Y-18998746D02*
X12953920Y-18989222D01*
X12953920Y-18989222D02*
X12934872Y-18979698D01*
X13144396Y-18960650D02*
X13144396Y-19093984D01*
X13096777Y-18884460D02*
X13049158Y-19027317D01*
X13049158Y-19027317D02*
X13172967Y-19027317D01*
X13239634Y-18893984D02*
X13239634Y-18932079D01*
X13315825Y-18893984D02*
X13315825Y-18932079D01*
X13611063Y-19170174D02*
X13601539Y-19160650D01*
X13601539Y-19160650D02*
X13582491Y-19132079D01*
X13582491Y-19132079D02*
X13572968Y-19113031D01*
X13572968Y-19113031D02*
X13563444Y-19084460D01*
X13563444Y-19084460D02*
X13553920Y-19036841D01*
X13553920Y-19036841D02*
X13553920Y-18998746D01*
X13553920Y-18998746D02*
X13563444Y-18951127D01*
X13563444Y-18951127D02*
X13572968Y-18922555D01*
X13572968Y-18922555D02*
X13582491Y-18903508D01*
X13582491Y-18903508D02*
X13601539Y-18874936D01*
X13601539Y-18874936D02*
X13611063Y-18865412D01*
X13772968Y-18893984D02*
X13734872Y-18893984D01*
X13734872Y-18893984D02*
X13715825Y-18903508D01*
X13715825Y-18903508D02*
X13706301Y-18913031D01*
X13706301Y-18913031D02*
X13687253Y-18941603D01*
X13687253Y-18941603D02*
X13677729Y-18979698D01*
X13677729Y-18979698D02*
X13677729Y-19055889D01*
X13677729Y-19055889D02*
X13687253Y-19074936D01*
X13687253Y-19074936D02*
X13696777Y-19084460D01*
X13696777Y-19084460D02*
X13715825Y-19093984D01*
X13715825Y-19093984D02*
X13753920Y-19093984D01*
X13753920Y-19093984D02*
X13772968Y-19084460D01*
X13772968Y-19084460D02*
X13782491Y-19074936D01*
X13782491Y-19074936D02*
X13792015Y-19055889D01*
X13792015Y-19055889D02*
X13792015Y-19008270D01*
X13792015Y-19008270D02*
X13782491Y-18989222D01*
X13782491Y-18989222D02*
X13772968Y-18979698D01*
X13772968Y-18979698D02*
X13753920Y-18970174D01*
X13753920Y-18970174D02*
X13715825Y-18970174D01*
X13715825Y-18970174D02*
X13696777Y-18979698D01*
X13696777Y-18979698D02*
X13687253Y-18989222D01*
X13687253Y-18989222D02*
X13677729Y-19008270D01*
X14030110Y-19093984D02*
X14030110Y-18893984D01*
X14115825Y-19093984D02*
X14115825Y-18989222D01*
X14115825Y-18989222D02*
X14106301Y-18970174D01*
X14106301Y-18970174D02*
X14087253Y-18960650D01*
X14087253Y-18960650D02*
X14058682Y-18960650D01*
X14058682Y-18960650D02*
X14039634Y-18970174D01*
X14039634Y-18970174D02*
X14030110Y-18979698D01*
X14239634Y-19093984D02*
X14220587Y-19084460D01*
X14220587Y-19084460D02*
X14211063Y-19074936D01*
X14211063Y-19074936D02*
X14201539Y-19055889D01*
X14201539Y-19055889D02*
X14201539Y-18998746D01*
X14201539Y-18998746D02*
X14211063Y-18979698D01*
X14211063Y-18979698D02*
X14220587Y-18970174D01*
X14220587Y-18970174D02*
X14239634Y-18960650D01*
X14239634Y-18960650D02*
X14268206Y-18960650D01*
X14268206Y-18960650D02*
X14287253Y-18970174D01*
X14287253Y-18970174D02*
X14296777Y-18979698D01*
X14296777Y-18979698D02*
X14306301Y-18998746D01*
X14306301Y-18998746D02*
X14306301Y-19055889D01*
X14306301Y-19055889D02*
X14296777Y-19074936D01*
X14296777Y-19074936D02*
X14287253Y-19084460D01*
X14287253Y-19084460D02*
X14268206Y-19093984D01*
X14268206Y-19093984D02*
X14239634Y-19093984D01*
X14420587Y-19093984D02*
X14401539Y-19084460D01*
X14401539Y-19084460D02*
X14392015Y-19065412D01*
X14392015Y-19065412D02*
X14392015Y-18893984D01*
X14572968Y-19084460D02*
X14553920Y-19093984D01*
X14553920Y-19093984D02*
X14515825Y-19093984D01*
X14515825Y-19093984D02*
X14496777Y-19084460D01*
X14496777Y-19084460D02*
X14487253Y-19065412D01*
X14487253Y-19065412D02*
X14487253Y-18989222D01*
X14487253Y-18989222D02*
X14496777Y-18970174D01*
X14496777Y-18970174D02*
X14515825Y-18960650D01*
X14515825Y-18960650D02*
X14553920Y-18960650D01*
X14553920Y-18960650D02*
X14572968Y-18970174D01*
X14572968Y-18970174D02*
X14582491Y-18989222D01*
X14582491Y-18989222D02*
X14582491Y-19008270D01*
X14582491Y-19008270D02*
X14487253Y-19027317D01*
X14658682Y-19084460D02*
X14677730Y-19093984D01*
X14677730Y-19093984D02*
X14715825Y-19093984D01*
X14715825Y-19093984D02*
X14734872Y-19084460D01*
X14734872Y-19084460D02*
X14744396Y-19065412D01*
X14744396Y-19065412D02*
X14744396Y-19055889D01*
X14744396Y-19055889D02*
X14734872Y-19036841D01*
X14734872Y-19036841D02*
X14715825Y-19027317D01*
X14715825Y-19027317D02*
X14687253Y-19027317D01*
X14687253Y-19027317D02*
X14668206Y-19017793D01*
X14668206Y-19017793D02*
X14658682Y-18998746D01*
X14658682Y-18998746D02*
X14658682Y-18989222D01*
X14658682Y-18989222D02*
X14668206Y-18970174D01*
X14668206Y-18970174D02*
X14687253Y-18960650D01*
X14687253Y-18960650D02*
X14715825Y-18960650D01*
X14715825Y-18960650D02*
X14734872Y-18970174D01*
X14811063Y-19170174D02*
X14820587Y-19160650D01*
X14820587Y-19160650D02*
X14839634Y-19132079D01*
X14839634Y-19132079D02*
X14849158Y-19113031D01*
X14849158Y-19113031D02*
X14858682Y-19084460D01*
X14858682Y-19084460D02*
X14868206Y-19036841D01*
X14868206Y-19036841D02*
X14868206Y-18998746D01*
X14868206Y-18998746D02*
X14858682Y-18951127D01*
X14858682Y-18951127D02*
X14849158Y-18922555D01*
X14849158Y-18922555D02*
X14839634Y-18903508D01*
X14839634Y-18903508D02*
X14820587Y-18874936D01*
X14820587Y-18874936D02*
X14811063Y-18865412D01*
X15172968Y-19170174D02*
X15163444Y-19160650D01*
X15163444Y-19160650D02*
X15144396Y-19132079D01*
X15144396Y-19132079D02*
X15134872Y-19113031D01*
X15134872Y-19113031D02*
X15125349Y-19084460D01*
X15125349Y-19084460D02*
X15115825Y-19036841D01*
X15115825Y-19036841D02*
X15115825Y-18998746D01*
X15115825Y-18998746D02*
X15125349Y-18951127D01*
X15125349Y-18951127D02*
X15134872Y-18922555D01*
X15134872Y-18922555D02*
X15144396Y-18903508D01*
X15144396Y-18903508D02*
X15163444Y-18874936D01*
X15163444Y-18874936D02*
X15172968Y-18865412D01*
X15249158Y-18960650D02*
X15249158Y-19093984D01*
X15249158Y-18979698D02*
X15258682Y-18970174D01*
X15258682Y-18970174D02*
X15277730Y-18960650D01*
X15277730Y-18960650D02*
X15306301Y-18960650D01*
X15306301Y-18960650D02*
X15325349Y-18970174D01*
X15325349Y-18970174D02*
X15334872Y-18989222D01*
X15334872Y-18989222D02*
X15334872Y-19093984D01*
X15458682Y-19093984D02*
X15439634Y-19084460D01*
X15439634Y-19084460D02*
X15430111Y-19074936D01*
X15430111Y-19074936D02*
X15420587Y-19055889D01*
X15420587Y-19055889D02*
X15420587Y-18998746D01*
X15420587Y-18998746D02*
X15430111Y-18979698D01*
X15430111Y-18979698D02*
X15439634Y-18970174D01*
X15439634Y-18970174D02*
X15458682Y-18960650D01*
X15458682Y-18960650D02*
X15487253Y-18960650D01*
X15487253Y-18960650D02*
X15506301Y-18970174D01*
X15506301Y-18970174D02*
X15515825Y-18979698D01*
X15515825Y-18979698D02*
X15525349Y-18998746D01*
X15525349Y-18998746D02*
X15525349Y-19055889D01*
X15525349Y-19055889D02*
X15515825Y-19074936D01*
X15515825Y-19074936D02*
X15506301Y-19084460D01*
X15506301Y-19084460D02*
X15487253Y-19093984D01*
X15487253Y-19093984D02*
X15458682Y-19093984D01*
X15582492Y-18960650D02*
X15658682Y-18960650D01*
X15611063Y-18893984D02*
X15611063Y-19065412D01*
X15611063Y-19065412D02*
X15620587Y-19084460D01*
X15620587Y-19084460D02*
X15639634Y-19093984D01*
X15639634Y-19093984D02*
X15658682Y-19093984D01*
X15877730Y-18960650D02*
X15877730Y-19160650D01*
X15877730Y-18970174D02*
X15896777Y-18960650D01*
X15896777Y-18960650D02*
X15934873Y-18960650D01*
X15934873Y-18960650D02*
X15953920Y-18970174D01*
X15953920Y-18970174D02*
X15963444Y-18979698D01*
X15963444Y-18979698D02*
X15972968Y-18998746D01*
X15972968Y-18998746D02*
X15972968Y-19055889D01*
X15972968Y-19055889D02*
X15963444Y-19074936D01*
X15963444Y-19074936D02*
X15953920Y-19084460D01*
X15953920Y-19084460D02*
X15934873Y-19093984D01*
X15934873Y-19093984D02*
X15896777Y-19093984D01*
X15896777Y-19093984D02*
X15877730Y-19084460D01*
X16087253Y-19093984D02*
X16068206Y-19084460D01*
X16068206Y-19084460D02*
X16058682Y-19065412D01*
X16058682Y-19065412D02*
X16058682Y-18893984D01*
X16249158Y-19093984D02*
X16249158Y-18989222D01*
X16249158Y-18989222D02*
X16239634Y-18970174D01*
X16239634Y-18970174D02*
X16220587Y-18960650D01*
X16220587Y-18960650D02*
X16182492Y-18960650D01*
X16182492Y-18960650D02*
X16163444Y-18970174D01*
X16249158Y-19084460D02*
X16230111Y-19093984D01*
X16230111Y-19093984D02*
X16182492Y-19093984D01*
X16182492Y-19093984D02*
X16163444Y-19084460D01*
X16163444Y-19084460D02*
X16153920Y-19065412D01*
X16153920Y-19065412D02*
X16153920Y-19046365D01*
X16153920Y-19046365D02*
X16163444Y-19027317D01*
X16163444Y-19027317D02*
X16182492Y-19017793D01*
X16182492Y-19017793D02*
X16230111Y-19017793D01*
X16230111Y-19017793D02*
X16249158Y-19008270D01*
X16315825Y-18960650D02*
X16392015Y-18960650D01*
X16344396Y-18893984D02*
X16344396Y-19065412D01*
X16344396Y-19065412D02*
X16353920Y-19084460D01*
X16353920Y-19084460D02*
X16372968Y-19093984D01*
X16372968Y-19093984D02*
X16392015Y-19093984D01*
X16534873Y-19084460D02*
X16515825Y-19093984D01*
X16515825Y-19093984D02*
X16477730Y-19093984D01*
X16477730Y-19093984D02*
X16458682Y-19084460D01*
X16458682Y-19084460D02*
X16449158Y-19065412D01*
X16449158Y-19065412D02*
X16449158Y-18989222D01*
X16449158Y-18989222D02*
X16458682Y-18970174D01*
X16458682Y-18970174D02*
X16477730Y-18960650D01*
X16477730Y-18960650D02*
X16515825Y-18960650D01*
X16515825Y-18960650D02*
X16534873Y-18970174D01*
X16534873Y-18970174D02*
X16544396Y-18989222D01*
X16544396Y-18989222D02*
X16544396Y-19008270D01*
X16544396Y-19008270D02*
X16449158Y-19027317D01*
X16715825Y-19093984D02*
X16715825Y-18893984D01*
X16715825Y-19084460D02*
X16696777Y-19093984D01*
X16696777Y-19093984D02*
X16658682Y-19093984D01*
X16658682Y-19093984D02*
X16639634Y-19084460D01*
X16639634Y-19084460D02*
X16630111Y-19074936D01*
X16630111Y-19074936D02*
X16620587Y-19055889D01*
X16620587Y-19055889D02*
X16620587Y-18998746D01*
X16620587Y-18998746D02*
X16630111Y-18979698D01*
X16630111Y-18979698D02*
X16639634Y-18970174D01*
X16639634Y-18970174D02*
X16658682Y-18960650D01*
X16658682Y-18960650D02*
X16696777Y-18960650D01*
X16696777Y-18960650D02*
X16715825Y-18970174D01*
X16792016Y-19170174D02*
X16801539Y-19160650D01*
X16801539Y-19160650D02*
X16820587Y-19132079D01*
X16820587Y-19132079D02*
X16830111Y-19113031D01*
X16830111Y-19113031D02*
X16839635Y-19084460D01*
X16839635Y-19084460D02*
X16849158Y-19036841D01*
X16849158Y-19036841D02*
X16849158Y-18998746D01*
X16849158Y-18998746D02*
X16839635Y-18951127D01*
X16839635Y-18951127D02*
X16830111Y-18922555D01*
X16830111Y-18922555D02*
X16820587Y-18903508D01*
X16820587Y-18903508D02*
X16801539Y-18874936D01*
X16801539Y-18874936D02*
X16792016Y-18865412D01*
X9936000Y-19222500D02*
X9936000Y-19422500D01*
X9836000Y-19322500D02*
X10036000Y-19322500D01*
X10277729Y-19213984D02*
X10401539Y-19213984D01*
X10401539Y-19213984D02*
X10334872Y-19290174D01*
X10334872Y-19290174D02*
X10363444Y-19290174D01*
X10363444Y-19290174D02*
X10382491Y-19299698D01*
X10382491Y-19299698D02*
X10392015Y-19309222D01*
X10392015Y-19309222D02*
X10401539Y-19328270D01*
X10401539Y-19328270D02*
X10401539Y-19375889D01*
X10401539Y-19375889D02*
X10392015Y-19394936D01*
X10392015Y-19394936D02*
X10382491Y-19404460D01*
X10382491Y-19404460D02*
X10363444Y-19413984D01*
X10363444Y-19413984D02*
X10306301Y-19413984D01*
X10306301Y-19413984D02*
X10287253Y-19404460D01*
X10287253Y-19404460D02*
X10277729Y-19394936D01*
X10487253Y-19394936D02*
X10496777Y-19404460D01*
X10496777Y-19404460D02*
X10487253Y-19413984D01*
X10487253Y-19413984D02*
X10477729Y-19404460D01*
X10477729Y-19404460D02*
X10487253Y-19394936D01*
X10487253Y-19394936D02*
X10487253Y-19413984D01*
X10620586Y-19213984D02*
X10639634Y-19213984D01*
X10639634Y-19213984D02*
X10658682Y-19223508D01*
X10658682Y-19223508D02*
X10668205Y-19233031D01*
X10668205Y-19233031D02*
X10677729Y-19252079D01*
X10677729Y-19252079D02*
X10687253Y-19290174D01*
X10687253Y-19290174D02*
X10687253Y-19337793D01*
X10687253Y-19337793D02*
X10677729Y-19375889D01*
X10677729Y-19375889D02*
X10668205Y-19394936D01*
X10668205Y-19394936D02*
X10658682Y-19404460D01*
X10658682Y-19404460D02*
X10639634Y-19413984D01*
X10639634Y-19413984D02*
X10620586Y-19413984D01*
X10620586Y-19413984D02*
X10601539Y-19404460D01*
X10601539Y-19404460D02*
X10592015Y-19394936D01*
X10592015Y-19394936D02*
X10582491Y-19375889D01*
X10582491Y-19375889D02*
X10572967Y-19337793D01*
X10572967Y-19337793D02*
X10572967Y-19290174D01*
X10572967Y-19290174D02*
X10582491Y-19252079D01*
X10582491Y-19252079D02*
X10592015Y-19233031D01*
X10592015Y-19233031D02*
X10601539Y-19223508D01*
X10601539Y-19223508D02*
X10620586Y-19213984D01*
X10868205Y-19213984D02*
X10772967Y-19213984D01*
X10772967Y-19213984D02*
X10763444Y-19309222D01*
X10763444Y-19309222D02*
X10772967Y-19299698D01*
X10772967Y-19299698D02*
X10792015Y-19290174D01*
X10792015Y-19290174D02*
X10839634Y-19290174D01*
X10839634Y-19290174D02*
X10858682Y-19299698D01*
X10858682Y-19299698D02*
X10868205Y-19309222D01*
X10868205Y-19309222D02*
X10877729Y-19328270D01*
X10877729Y-19328270D02*
X10877729Y-19375889D01*
X10877729Y-19375889D02*
X10868205Y-19394936D01*
X10868205Y-19394936D02*
X10858682Y-19404460D01*
X10858682Y-19404460D02*
X10839634Y-19413984D01*
X10839634Y-19413984D02*
X10792015Y-19413984D01*
X10792015Y-19413984D02*
X10772967Y-19404460D01*
X10772967Y-19404460D02*
X10763444Y-19394936D01*
X11001539Y-19213984D02*
X11020586Y-19213984D01*
X11020586Y-19213984D02*
X11039634Y-19223508D01*
X11039634Y-19223508D02*
X11049158Y-19233031D01*
X11049158Y-19233031D02*
X11058682Y-19252079D01*
X11058682Y-19252079D02*
X11068205Y-19290174D01*
X11068205Y-19290174D02*
X11068205Y-19337793D01*
X11068205Y-19337793D02*
X11058682Y-19375889D01*
X11058682Y-19375889D02*
X11049158Y-19394936D01*
X11049158Y-19394936D02*
X11039634Y-19404460D01*
X11039634Y-19404460D02*
X11020586Y-19413984D01*
X11020586Y-19413984D02*
X11001539Y-19413984D01*
X11001539Y-19413984D02*
X10982491Y-19404460D01*
X10982491Y-19404460D02*
X10972967Y-19394936D01*
X10972967Y-19394936D02*
X10963444Y-19375889D01*
X10963444Y-19375889D02*
X10953920Y-19337793D01*
X10953920Y-19337793D02*
X10953920Y-19290174D01*
X10953920Y-19290174D02*
X10963444Y-19252079D01*
X10963444Y-19252079D02*
X10972967Y-19233031D01*
X10972967Y-19233031D02*
X10982491Y-19223508D01*
X10982491Y-19223508D02*
X11001539Y-19213984D01*
X11153920Y-19413984D02*
X11153920Y-19280650D01*
X11153920Y-19299698D02*
X11163444Y-19290174D01*
X11163444Y-19290174D02*
X11182491Y-19280650D01*
X11182491Y-19280650D02*
X11211063Y-19280650D01*
X11211063Y-19280650D02*
X11230110Y-19290174D01*
X11230110Y-19290174D02*
X11239634Y-19309222D01*
X11239634Y-19309222D02*
X11239634Y-19413984D01*
X11239634Y-19309222D02*
X11249158Y-19290174D01*
X11249158Y-19290174D02*
X11268205Y-19280650D01*
X11268205Y-19280650D02*
X11296777Y-19280650D01*
X11296777Y-19280650D02*
X11315824Y-19290174D01*
X11315824Y-19290174D02*
X11325348Y-19309222D01*
X11325348Y-19309222D02*
X11325348Y-19413984D01*
X11420586Y-19413984D02*
X11420586Y-19280650D01*
X11420586Y-19299698D02*
X11430110Y-19290174D01*
X11430110Y-19290174D02*
X11449158Y-19280650D01*
X11449158Y-19280650D02*
X11477729Y-19280650D01*
X11477729Y-19280650D02*
X11496777Y-19290174D01*
X11496777Y-19290174D02*
X11506301Y-19309222D01*
X11506301Y-19309222D02*
X11506301Y-19413984D01*
X11506301Y-19309222D02*
X11515824Y-19290174D01*
X11515824Y-19290174D02*
X11534872Y-19280650D01*
X11534872Y-19280650D02*
X11563443Y-19280650D01*
X11563443Y-19280650D02*
X11582491Y-19290174D01*
X11582491Y-19290174D02*
X11592015Y-19309222D01*
X11592015Y-19309222D02*
X11592015Y-19413984D01*
X11982491Y-19204460D02*
X11811063Y-19461603D01*
X12239634Y-19213984D02*
X12258682Y-19213984D01*
X12258682Y-19213984D02*
X12277729Y-19223508D01*
X12277729Y-19223508D02*
X12287253Y-19233031D01*
X12287253Y-19233031D02*
X12296777Y-19252079D01*
X12296777Y-19252079D02*
X12306301Y-19290174D01*
X12306301Y-19290174D02*
X12306301Y-19337793D01*
X12306301Y-19337793D02*
X12296777Y-19375889D01*
X12296777Y-19375889D02*
X12287253Y-19394936D01*
X12287253Y-19394936D02*
X12277729Y-19404460D01*
X12277729Y-19404460D02*
X12258682Y-19413984D01*
X12258682Y-19413984D02*
X12239634Y-19413984D01*
X12239634Y-19413984D02*
X12220586Y-19404460D01*
X12220586Y-19404460D02*
X12211063Y-19394936D01*
X12211063Y-19394936D02*
X12201539Y-19375889D01*
X12201539Y-19375889D02*
X12192015Y-19337793D01*
X12192015Y-19337793D02*
X12192015Y-19290174D01*
X12192015Y-19290174D02*
X12201539Y-19252079D01*
X12201539Y-19252079D02*
X12211063Y-19233031D01*
X12211063Y-19233031D02*
X12220586Y-19223508D01*
X12220586Y-19223508D02*
X12239634Y-19213984D01*
X12392015Y-19394936D02*
X12401539Y-19404460D01*
X12401539Y-19404460D02*
X12392015Y-19413984D01*
X12392015Y-19413984D02*
X12382491Y-19404460D01*
X12382491Y-19404460D02*
X12392015Y-19394936D01*
X12392015Y-19394936D02*
X12392015Y-19413984D01*
X12592015Y-19413984D02*
X12477729Y-19413984D01*
X12534872Y-19413984D02*
X12534872Y-19213984D01*
X12534872Y-19213984D02*
X12515825Y-19242555D01*
X12515825Y-19242555D02*
X12496777Y-19261603D01*
X12496777Y-19261603D02*
X12477729Y-19271127D01*
X12668206Y-19233031D02*
X12677729Y-19223508D01*
X12677729Y-19223508D02*
X12696777Y-19213984D01*
X12696777Y-19213984D02*
X12744396Y-19213984D01*
X12744396Y-19213984D02*
X12763444Y-19223508D01*
X12763444Y-19223508D02*
X12772967Y-19233031D01*
X12772967Y-19233031D02*
X12782491Y-19252079D01*
X12782491Y-19252079D02*
X12782491Y-19271127D01*
X12782491Y-19271127D02*
X12772967Y-19299698D01*
X12772967Y-19299698D02*
X12658682Y-19413984D01*
X12658682Y-19413984D02*
X12782491Y-19413984D01*
X12906301Y-19213984D02*
X12925348Y-19213984D01*
X12925348Y-19213984D02*
X12944396Y-19223508D01*
X12944396Y-19223508D02*
X12953920Y-19233031D01*
X12953920Y-19233031D02*
X12963444Y-19252079D01*
X12963444Y-19252079D02*
X12972967Y-19290174D01*
X12972967Y-19290174D02*
X12972967Y-19337793D01*
X12972967Y-19337793D02*
X12963444Y-19375889D01*
X12963444Y-19375889D02*
X12953920Y-19394936D01*
X12953920Y-19394936D02*
X12944396Y-19404460D01*
X12944396Y-19404460D02*
X12925348Y-19413984D01*
X12925348Y-19413984D02*
X12906301Y-19413984D01*
X12906301Y-19413984D02*
X12887253Y-19404460D01*
X12887253Y-19404460D02*
X12877729Y-19394936D01*
X12877729Y-19394936D02*
X12868206Y-19375889D01*
X12868206Y-19375889D02*
X12858682Y-19337793D01*
X12858682Y-19337793D02*
X12858682Y-19290174D01*
X12858682Y-19290174D02*
X12868206Y-19252079D01*
X12868206Y-19252079D02*
X12877729Y-19233031D01*
X12877729Y-19233031D02*
X12887253Y-19223508D01*
X12887253Y-19223508D02*
X12906301Y-19213984D01*
X13163444Y-19413984D02*
X13049158Y-19413984D01*
X13106301Y-19413984D02*
X13106301Y-19213984D01*
X13106301Y-19213984D02*
X13087253Y-19242555D01*
X13087253Y-19242555D02*
X13068206Y-19261603D01*
X13068206Y-19261603D02*
X13049158Y-19271127D01*
X13239634Y-19213984D02*
X13239634Y-19252079D01*
X13315825Y-19213984D02*
X13315825Y-19252079D01*
X13611063Y-19490174D02*
X13601539Y-19480650D01*
X13601539Y-19480650D02*
X13582491Y-19452079D01*
X13582491Y-19452079D02*
X13572968Y-19433031D01*
X13572968Y-19433031D02*
X13563444Y-19404460D01*
X13563444Y-19404460D02*
X13553920Y-19356841D01*
X13553920Y-19356841D02*
X13553920Y-19318746D01*
X13553920Y-19318746D02*
X13563444Y-19271127D01*
X13563444Y-19271127D02*
X13572968Y-19242555D01*
X13572968Y-19242555D02*
X13582491Y-19223508D01*
X13582491Y-19223508D02*
X13601539Y-19194936D01*
X13601539Y-19194936D02*
X13611063Y-19185412D01*
X13782491Y-19213984D02*
X13687253Y-19213984D01*
X13687253Y-19213984D02*
X13677729Y-19309222D01*
X13677729Y-19309222D02*
X13687253Y-19299698D01*
X13687253Y-19299698D02*
X13706301Y-19290174D01*
X13706301Y-19290174D02*
X13753920Y-19290174D01*
X13753920Y-19290174D02*
X13772968Y-19299698D01*
X13772968Y-19299698D02*
X13782491Y-19309222D01*
X13782491Y-19309222D02*
X13792015Y-19328270D01*
X13792015Y-19328270D02*
X13792015Y-19375889D01*
X13792015Y-19375889D02*
X13782491Y-19394936D01*
X13782491Y-19394936D02*
X13772968Y-19404460D01*
X13772968Y-19404460D02*
X13753920Y-19413984D01*
X13753920Y-19413984D02*
X13706301Y-19413984D01*
X13706301Y-19413984D02*
X13687253Y-19404460D01*
X13687253Y-19404460D02*
X13677729Y-19394936D01*
X13906301Y-19299698D02*
X13887253Y-19290174D01*
X13887253Y-19290174D02*
X13877729Y-19280650D01*
X13877729Y-19280650D02*
X13868206Y-19261603D01*
X13868206Y-19261603D02*
X13868206Y-19252079D01*
X13868206Y-19252079D02*
X13877729Y-19233031D01*
X13877729Y-19233031D02*
X13887253Y-19223508D01*
X13887253Y-19223508D02*
X13906301Y-19213984D01*
X13906301Y-19213984D02*
X13944396Y-19213984D01*
X13944396Y-19213984D02*
X13963444Y-19223508D01*
X13963444Y-19223508D02*
X13972968Y-19233031D01*
X13972968Y-19233031D02*
X13982491Y-19252079D01*
X13982491Y-19252079D02*
X13982491Y-19261603D01*
X13982491Y-19261603D02*
X13972968Y-19280650D01*
X13972968Y-19280650D02*
X13963444Y-19290174D01*
X13963444Y-19290174D02*
X13944396Y-19299698D01*
X13944396Y-19299698D02*
X13906301Y-19299698D01*
X13906301Y-19299698D02*
X13887253Y-19309222D01*
X13887253Y-19309222D02*
X13877729Y-19318746D01*
X13877729Y-19318746D02*
X13868206Y-19337793D01*
X13868206Y-19337793D02*
X13868206Y-19375889D01*
X13868206Y-19375889D02*
X13877729Y-19394936D01*
X13877729Y-19394936D02*
X13887253Y-19404460D01*
X13887253Y-19404460D02*
X13906301Y-19413984D01*
X13906301Y-19413984D02*
X13944396Y-19413984D01*
X13944396Y-19413984D02*
X13963444Y-19404460D01*
X13963444Y-19404460D02*
X13972968Y-19394936D01*
X13972968Y-19394936D02*
X13982491Y-19375889D01*
X13982491Y-19375889D02*
X13982491Y-19337793D01*
X13982491Y-19337793D02*
X13972968Y-19318746D01*
X13972968Y-19318746D02*
X13963444Y-19309222D01*
X13963444Y-19309222D02*
X13944396Y-19299698D01*
X14220587Y-19413984D02*
X14220587Y-19213984D01*
X14306301Y-19413984D02*
X14306301Y-19309222D01*
X14306301Y-19309222D02*
X14296777Y-19290174D01*
X14296777Y-19290174D02*
X14277730Y-19280650D01*
X14277730Y-19280650D02*
X14249158Y-19280650D01*
X14249158Y-19280650D02*
X14230110Y-19290174D01*
X14230110Y-19290174D02*
X14220587Y-19299698D01*
X14430110Y-19413984D02*
X14411063Y-19404460D01*
X14411063Y-19404460D02*
X14401539Y-19394936D01*
X14401539Y-19394936D02*
X14392015Y-19375889D01*
X14392015Y-19375889D02*
X14392015Y-19318746D01*
X14392015Y-19318746D02*
X14401539Y-19299698D01*
X14401539Y-19299698D02*
X14411063Y-19290174D01*
X14411063Y-19290174D02*
X14430110Y-19280650D01*
X14430110Y-19280650D02*
X14458682Y-19280650D01*
X14458682Y-19280650D02*
X14477730Y-19290174D01*
X14477730Y-19290174D02*
X14487253Y-19299698D01*
X14487253Y-19299698D02*
X14496777Y-19318746D01*
X14496777Y-19318746D02*
X14496777Y-19375889D01*
X14496777Y-19375889D02*
X14487253Y-19394936D01*
X14487253Y-19394936D02*
X14477730Y-19404460D01*
X14477730Y-19404460D02*
X14458682Y-19413984D01*
X14458682Y-19413984D02*
X14430110Y-19413984D01*
X14611063Y-19413984D02*
X14592015Y-19404460D01*
X14592015Y-19404460D02*
X14582491Y-19385412D01*
X14582491Y-19385412D02*
X14582491Y-19213984D01*
X14763444Y-19404460D02*
X14744396Y-19413984D01*
X14744396Y-19413984D02*
X14706301Y-19413984D01*
X14706301Y-19413984D02*
X14687253Y-19404460D01*
X14687253Y-19404460D02*
X14677730Y-19385412D01*
X14677730Y-19385412D02*
X14677730Y-19309222D01*
X14677730Y-19309222D02*
X14687253Y-19290174D01*
X14687253Y-19290174D02*
X14706301Y-19280650D01*
X14706301Y-19280650D02*
X14744396Y-19280650D01*
X14744396Y-19280650D02*
X14763444Y-19290174D01*
X14763444Y-19290174D02*
X14772968Y-19309222D01*
X14772968Y-19309222D02*
X14772968Y-19328270D01*
X14772968Y-19328270D02*
X14677730Y-19347317D01*
X14849158Y-19404460D02*
X14868206Y-19413984D01*
X14868206Y-19413984D02*
X14906301Y-19413984D01*
X14906301Y-19413984D02*
X14925349Y-19404460D01*
X14925349Y-19404460D02*
X14934872Y-19385412D01*
X14934872Y-19385412D02*
X14934872Y-19375889D01*
X14934872Y-19375889D02*
X14925349Y-19356841D01*
X14925349Y-19356841D02*
X14906301Y-19347317D01*
X14906301Y-19347317D02*
X14877730Y-19347317D01*
X14877730Y-19347317D02*
X14858682Y-19337793D01*
X14858682Y-19337793D02*
X14849158Y-19318746D01*
X14849158Y-19318746D02*
X14849158Y-19309222D01*
X14849158Y-19309222D02*
X14858682Y-19290174D01*
X14858682Y-19290174D02*
X14877730Y-19280650D01*
X14877730Y-19280650D02*
X14906301Y-19280650D01*
X14906301Y-19280650D02*
X14925349Y-19290174D01*
X15001539Y-19490174D02*
X15011063Y-19480650D01*
X15011063Y-19480650D02*
X15030111Y-19452079D01*
X15030111Y-19452079D02*
X15039634Y-19433031D01*
X15039634Y-19433031D02*
X15049158Y-19404460D01*
X15049158Y-19404460D02*
X15058682Y-19356841D01*
X15058682Y-19356841D02*
X15058682Y-19318746D01*
X15058682Y-19318746D02*
X15049158Y-19271127D01*
X15049158Y-19271127D02*
X15039634Y-19242555D01*
X15039634Y-19242555D02*
X15030111Y-19223508D01*
X15030111Y-19223508D02*
X15011063Y-19194936D01*
X15011063Y-19194936D02*
X15001539Y-19185412D01*
X15363444Y-19490174D02*
X15353920Y-19480650D01*
X15353920Y-19480650D02*
X15334872Y-19452079D01*
X15334872Y-19452079D02*
X15325349Y-19433031D01*
X15325349Y-19433031D02*
X15315825Y-19404460D01*
X15315825Y-19404460D02*
X15306301Y-19356841D01*
X15306301Y-19356841D02*
X15306301Y-19318746D01*
X15306301Y-19318746D02*
X15315825Y-19271127D01*
X15315825Y-19271127D02*
X15325349Y-19242555D01*
X15325349Y-19242555D02*
X15334872Y-19223508D01*
X15334872Y-19223508D02*
X15353920Y-19194936D01*
X15353920Y-19194936D02*
X15363444Y-19185412D01*
X15439634Y-19280650D02*
X15439634Y-19413984D01*
X15439634Y-19299698D02*
X15449158Y-19290174D01*
X15449158Y-19290174D02*
X15468206Y-19280650D01*
X15468206Y-19280650D02*
X15496777Y-19280650D01*
X15496777Y-19280650D02*
X15515825Y-19290174D01*
X15515825Y-19290174D02*
X15525349Y-19309222D01*
X15525349Y-19309222D02*
X15525349Y-19413984D01*
X15649158Y-19413984D02*
X15630111Y-19404460D01*
X15630111Y-19404460D02*
X15620587Y-19394936D01*
X15620587Y-19394936D02*
X15611063Y-19375889D01*
X15611063Y-19375889D02*
X15611063Y-19318746D01*
X15611063Y-19318746D02*
X15620587Y-19299698D01*
X15620587Y-19299698D02*
X15630111Y-19290174D01*
X15630111Y-19290174D02*
X15649158Y-19280650D01*
X15649158Y-19280650D02*
X15677730Y-19280650D01*
X15677730Y-19280650D02*
X15696777Y-19290174D01*
X15696777Y-19290174D02*
X15706301Y-19299698D01*
X15706301Y-19299698D02*
X15715825Y-19318746D01*
X15715825Y-19318746D02*
X15715825Y-19375889D01*
X15715825Y-19375889D02*
X15706301Y-19394936D01*
X15706301Y-19394936D02*
X15696777Y-19404460D01*
X15696777Y-19404460D02*
X15677730Y-19413984D01*
X15677730Y-19413984D02*
X15649158Y-19413984D01*
X15772968Y-19280650D02*
X15849158Y-19280650D01*
X15801539Y-19213984D02*
X15801539Y-19385412D01*
X15801539Y-19385412D02*
X15811063Y-19404460D01*
X15811063Y-19404460D02*
X15830111Y-19413984D01*
X15830111Y-19413984D02*
X15849158Y-19413984D01*
X16068206Y-19280650D02*
X16068206Y-19480650D01*
X16068206Y-19290174D02*
X16087253Y-19280650D01*
X16087253Y-19280650D02*
X16125349Y-19280650D01*
X16125349Y-19280650D02*
X16144396Y-19290174D01*
X16144396Y-19290174D02*
X16153920Y-19299698D01*
X16153920Y-19299698D02*
X16163444Y-19318746D01*
X16163444Y-19318746D02*
X16163444Y-19375889D01*
X16163444Y-19375889D02*
X16153920Y-19394936D01*
X16153920Y-19394936D02*
X16144396Y-19404460D01*
X16144396Y-19404460D02*
X16125349Y-19413984D01*
X16125349Y-19413984D02*
X16087253Y-19413984D01*
X16087253Y-19413984D02*
X16068206Y-19404460D01*
X16277730Y-19413984D02*
X16258682Y-19404460D01*
X16258682Y-19404460D02*
X16249158Y-19385412D01*
X16249158Y-19385412D02*
X16249158Y-19213984D01*
X16439634Y-19413984D02*
X16439634Y-19309222D01*
X16439634Y-19309222D02*
X16430111Y-19290174D01*
X16430111Y-19290174D02*
X16411063Y-19280650D01*
X16411063Y-19280650D02*
X16372968Y-19280650D01*
X16372968Y-19280650D02*
X16353920Y-19290174D01*
X16439634Y-19404460D02*
X16420587Y-19413984D01*
X16420587Y-19413984D02*
X16372968Y-19413984D01*
X16372968Y-19413984D02*
X16353920Y-19404460D01*
X16353920Y-19404460D02*
X16344396Y-19385412D01*
X16344396Y-19385412D02*
X16344396Y-19366365D01*
X16344396Y-19366365D02*
X16353920Y-19347317D01*
X16353920Y-19347317D02*
X16372968Y-19337793D01*
X16372968Y-19337793D02*
X16420587Y-19337793D01*
X16420587Y-19337793D02*
X16439634Y-19328270D01*
X16506301Y-19280650D02*
X16582492Y-19280650D01*
X16534873Y-19213984D02*
X16534873Y-19385412D01*
X16534873Y-19385412D02*
X16544396Y-19404460D01*
X16544396Y-19404460D02*
X16563444Y-19413984D01*
X16563444Y-19413984D02*
X16582492Y-19413984D01*
X16725349Y-19404460D02*
X16706301Y-19413984D01*
X16706301Y-19413984D02*
X16668206Y-19413984D01*
X16668206Y-19413984D02*
X16649158Y-19404460D01*
X16649158Y-19404460D02*
X16639634Y-19385412D01*
X16639634Y-19385412D02*
X16639634Y-19309222D01*
X16639634Y-19309222D02*
X16649158Y-19290174D01*
X16649158Y-19290174D02*
X16668206Y-19280650D01*
X16668206Y-19280650D02*
X16706301Y-19280650D01*
X16706301Y-19280650D02*
X16725349Y-19290174D01*
X16725349Y-19290174D02*
X16734873Y-19309222D01*
X16734873Y-19309222D02*
X16734873Y-19328270D01*
X16734873Y-19328270D02*
X16639634Y-19347317D01*
X16906301Y-19413984D02*
X16906301Y-19213984D01*
X16906301Y-19404460D02*
X16887254Y-19413984D01*
X16887254Y-19413984D02*
X16849158Y-19413984D01*
X16849158Y-19413984D02*
X16830111Y-19404460D01*
X16830111Y-19404460D02*
X16820587Y-19394936D01*
X16820587Y-19394936D02*
X16811063Y-19375889D01*
X16811063Y-19375889D02*
X16811063Y-19318746D01*
X16811063Y-19318746D02*
X16820587Y-19299698D01*
X16820587Y-19299698D02*
X16830111Y-19290174D01*
X16830111Y-19290174D02*
X16849158Y-19280650D01*
X16849158Y-19280650D02*
X16887254Y-19280650D01*
X16887254Y-19280650D02*
X16906301Y-19290174D01*
X16982492Y-19490174D02*
X16992016Y-19480650D01*
X16992016Y-19480650D02*
X17011063Y-19452079D01*
X17011063Y-19452079D02*
X17020587Y-19433031D01*
X17020587Y-19433031D02*
X17030111Y-19404460D01*
X17030111Y-19404460D02*
X17039635Y-19356841D01*
X17039635Y-19356841D02*
X17039635Y-19318746D01*
X17039635Y-19318746D02*
X17030111Y-19271127D01*
X17030111Y-19271127D02*
X17020587Y-19242555D01*
X17020587Y-19242555D02*
X17011063Y-19223508D01*
X17011063Y-19223508D02*
X16992016Y-19194936D01*
X16992016Y-19194936D02*
X16982492Y-19185412D01*
X10006711Y-19713211D02*
X10006711Y-19571789D01*
X9865289Y-19571789D01*
X9865289Y-19713211D01*
X10006711Y-19713211D01*
X10382491Y-19600650D02*
X10382491Y-19733984D01*
X10334872Y-19524460D02*
X10287253Y-19667317D01*
X10287253Y-19667317D02*
X10411063Y-19667317D01*
X10487253Y-19714936D02*
X10496777Y-19724460D01*
X10496777Y-19724460D02*
X10487253Y-19733984D01*
X10487253Y-19733984D02*
X10477729Y-19724460D01*
X10477729Y-19724460D02*
X10487253Y-19714936D01*
X10487253Y-19714936D02*
X10487253Y-19733984D01*
X10620586Y-19533984D02*
X10639634Y-19533984D01*
X10639634Y-19533984D02*
X10658682Y-19543508D01*
X10658682Y-19543508D02*
X10668205Y-19553031D01*
X10668205Y-19553031D02*
X10677729Y-19572079D01*
X10677729Y-19572079D02*
X10687253Y-19610174D01*
X10687253Y-19610174D02*
X10687253Y-19657793D01*
X10687253Y-19657793D02*
X10677729Y-19695889D01*
X10677729Y-19695889D02*
X10668205Y-19714936D01*
X10668205Y-19714936D02*
X10658682Y-19724460D01*
X10658682Y-19724460D02*
X10639634Y-19733984D01*
X10639634Y-19733984D02*
X10620586Y-19733984D01*
X10620586Y-19733984D02*
X10601539Y-19724460D01*
X10601539Y-19724460D02*
X10592015Y-19714936D01*
X10592015Y-19714936D02*
X10582491Y-19695889D01*
X10582491Y-19695889D02*
X10572967Y-19657793D01*
X10572967Y-19657793D02*
X10572967Y-19610174D01*
X10572967Y-19610174D02*
X10582491Y-19572079D01*
X10582491Y-19572079D02*
X10592015Y-19553031D01*
X10592015Y-19553031D02*
X10601539Y-19543508D01*
X10601539Y-19543508D02*
X10620586Y-19533984D01*
X10811063Y-19533984D02*
X10830110Y-19533984D01*
X10830110Y-19533984D02*
X10849158Y-19543508D01*
X10849158Y-19543508D02*
X10858682Y-19553031D01*
X10858682Y-19553031D02*
X10868205Y-19572079D01*
X10868205Y-19572079D02*
X10877729Y-19610174D01*
X10877729Y-19610174D02*
X10877729Y-19657793D01*
X10877729Y-19657793D02*
X10868205Y-19695889D01*
X10868205Y-19695889D02*
X10858682Y-19714936D01*
X10858682Y-19714936D02*
X10849158Y-19724460D01*
X10849158Y-19724460D02*
X10830110Y-19733984D01*
X10830110Y-19733984D02*
X10811063Y-19733984D01*
X10811063Y-19733984D02*
X10792015Y-19724460D01*
X10792015Y-19724460D02*
X10782491Y-19714936D01*
X10782491Y-19714936D02*
X10772967Y-19695889D01*
X10772967Y-19695889D02*
X10763444Y-19657793D01*
X10763444Y-19657793D02*
X10763444Y-19610174D01*
X10763444Y-19610174D02*
X10772967Y-19572079D01*
X10772967Y-19572079D02*
X10782491Y-19553031D01*
X10782491Y-19553031D02*
X10792015Y-19543508D01*
X10792015Y-19543508D02*
X10811063Y-19533984D01*
X11001539Y-19533984D02*
X11020586Y-19533984D01*
X11020586Y-19533984D02*
X11039634Y-19543508D01*
X11039634Y-19543508D02*
X11049158Y-19553031D01*
X11049158Y-19553031D02*
X11058682Y-19572079D01*
X11058682Y-19572079D02*
X11068205Y-19610174D01*
X11068205Y-19610174D02*
X11068205Y-19657793D01*
X11068205Y-19657793D02*
X11058682Y-19695889D01*
X11058682Y-19695889D02*
X11049158Y-19714936D01*
X11049158Y-19714936D02*
X11039634Y-19724460D01*
X11039634Y-19724460D02*
X11020586Y-19733984D01*
X11020586Y-19733984D02*
X11001539Y-19733984D01*
X11001539Y-19733984D02*
X10982491Y-19724460D01*
X10982491Y-19724460D02*
X10972967Y-19714936D01*
X10972967Y-19714936D02*
X10963444Y-19695889D01*
X10963444Y-19695889D02*
X10953920Y-19657793D01*
X10953920Y-19657793D02*
X10953920Y-19610174D01*
X10953920Y-19610174D02*
X10963444Y-19572079D01*
X10963444Y-19572079D02*
X10972967Y-19553031D01*
X10972967Y-19553031D02*
X10982491Y-19543508D01*
X10982491Y-19543508D02*
X11001539Y-19533984D01*
X11153920Y-19733984D02*
X11153920Y-19600650D01*
X11153920Y-19619698D02*
X11163444Y-19610174D01*
X11163444Y-19610174D02*
X11182491Y-19600650D01*
X11182491Y-19600650D02*
X11211063Y-19600650D01*
X11211063Y-19600650D02*
X11230110Y-19610174D01*
X11230110Y-19610174D02*
X11239634Y-19629222D01*
X11239634Y-19629222D02*
X11239634Y-19733984D01*
X11239634Y-19629222D02*
X11249158Y-19610174D01*
X11249158Y-19610174D02*
X11268205Y-19600650D01*
X11268205Y-19600650D02*
X11296777Y-19600650D01*
X11296777Y-19600650D02*
X11315824Y-19610174D01*
X11315824Y-19610174D02*
X11325348Y-19629222D01*
X11325348Y-19629222D02*
X11325348Y-19733984D01*
X11420586Y-19733984D02*
X11420586Y-19600650D01*
X11420586Y-19619698D02*
X11430110Y-19610174D01*
X11430110Y-19610174D02*
X11449158Y-19600650D01*
X11449158Y-19600650D02*
X11477729Y-19600650D01*
X11477729Y-19600650D02*
X11496777Y-19610174D01*
X11496777Y-19610174D02*
X11506301Y-19629222D01*
X11506301Y-19629222D02*
X11506301Y-19733984D01*
X11506301Y-19629222D02*
X11515824Y-19610174D01*
X11515824Y-19610174D02*
X11534872Y-19600650D01*
X11534872Y-19600650D02*
X11563443Y-19600650D01*
X11563443Y-19600650D02*
X11582491Y-19610174D01*
X11582491Y-19610174D02*
X11592015Y-19629222D01*
X11592015Y-19629222D02*
X11592015Y-19733984D01*
X11982491Y-19524460D02*
X11811063Y-19781603D01*
X12239634Y-19533984D02*
X12258682Y-19533984D01*
X12258682Y-19533984D02*
X12277729Y-19543508D01*
X12277729Y-19543508D02*
X12287253Y-19553031D01*
X12287253Y-19553031D02*
X12296777Y-19572079D01*
X12296777Y-19572079D02*
X12306301Y-19610174D01*
X12306301Y-19610174D02*
X12306301Y-19657793D01*
X12306301Y-19657793D02*
X12296777Y-19695889D01*
X12296777Y-19695889D02*
X12287253Y-19714936D01*
X12287253Y-19714936D02*
X12277729Y-19724460D01*
X12277729Y-19724460D02*
X12258682Y-19733984D01*
X12258682Y-19733984D02*
X12239634Y-19733984D01*
X12239634Y-19733984D02*
X12220586Y-19724460D01*
X12220586Y-19724460D02*
X12211063Y-19714936D01*
X12211063Y-19714936D02*
X12201539Y-19695889D01*
X12201539Y-19695889D02*
X12192015Y-19657793D01*
X12192015Y-19657793D02*
X12192015Y-19610174D01*
X12192015Y-19610174D02*
X12201539Y-19572079D01*
X12201539Y-19572079D02*
X12211063Y-19553031D01*
X12211063Y-19553031D02*
X12220586Y-19543508D01*
X12220586Y-19543508D02*
X12239634Y-19533984D01*
X12392015Y-19714936D02*
X12401539Y-19724460D01*
X12401539Y-19724460D02*
X12392015Y-19733984D01*
X12392015Y-19733984D02*
X12382491Y-19724460D01*
X12382491Y-19724460D02*
X12392015Y-19714936D01*
X12392015Y-19714936D02*
X12392015Y-19733984D01*
X12592015Y-19733984D02*
X12477729Y-19733984D01*
X12534872Y-19733984D02*
X12534872Y-19533984D01*
X12534872Y-19533984D02*
X12515825Y-19562555D01*
X12515825Y-19562555D02*
X12496777Y-19581603D01*
X12496777Y-19581603D02*
X12477729Y-19591127D01*
X12772967Y-19533984D02*
X12677729Y-19533984D01*
X12677729Y-19533984D02*
X12668206Y-19629222D01*
X12668206Y-19629222D02*
X12677729Y-19619698D01*
X12677729Y-19619698D02*
X12696777Y-19610174D01*
X12696777Y-19610174D02*
X12744396Y-19610174D01*
X12744396Y-19610174D02*
X12763444Y-19619698D01*
X12763444Y-19619698D02*
X12772967Y-19629222D01*
X12772967Y-19629222D02*
X12782491Y-19648270D01*
X12782491Y-19648270D02*
X12782491Y-19695889D01*
X12782491Y-19695889D02*
X12772967Y-19714936D01*
X12772967Y-19714936D02*
X12763444Y-19724460D01*
X12763444Y-19724460D02*
X12744396Y-19733984D01*
X12744396Y-19733984D02*
X12696777Y-19733984D01*
X12696777Y-19733984D02*
X12677729Y-19724460D01*
X12677729Y-19724460D02*
X12668206Y-19714936D01*
X12849158Y-19533984D02*
X12982491Y-19533984D01*
X12982491Y-19533984D02*
X12896777Y-19733984D01*
X13153920Y-19533984D02*
X13058682Y-19533984D01*
X13058682Y-19533984D02*
X13049158Y-19629222D01*
X13049158Y-19629222D02*
X13058682Y-19619698D01*
X13058682Y-19619698D02*
X13077729Y-19610174D01*
X13077729Y-19610174D02*
X13125348Y-19610174D01*
X13125348Y-19610174D02*
X13144396Y-19619698D01*
X13144396Y-19619698D02*
X13153920Y-19629222D01*
X13153920Y-19629222D02*
X13163444Y-19648270D01*
X13163444Y-19648270D02*
X13163444Y-19695889D01*
X13163444Y-19695889D02*
X13153920Y-19714936D01*
X13153920Y-19714936D02*
X13144396Y-19724460D01*
X13144396Y-19724460D02*
X13125348Y-19733984D01*
X13125348Y-19733984D02*
X13077729Y-19733984D01*
X13077729Y-19733984D02*
X13058682Y-19724460D01*
X13058682Y-19724460D02*
X13049158Y-19714936D01*
X13239634Y-19533984D02*
X13239634Y-19572079D01*
X13315825Y-19533984D02*
X13315825Y-19572079D01*
X13611063Y-19810174D02*
X13601539Y-19800650D01*
X13601539Y-19800650D02*
X13582491Y-19772079D01*
X13582491Y-19772079D02*
X13572968Y-19753031D01*
X13572968Y-19753031D02*
X13563444Y-19724460D01*
X13563444Y-19724460D02*
X13553920Y-19676841D01*
X13553920Y-19676841D02*
X13553920Y-19638746D01*
X13553920Y-19638746D02*
X13563444Y-19591127D01*
X13563444Y-19591127D02*
X13572968Y-19562555D01*
X13572968Y-19562555D02*
X13582491Y-19543508D01*
X13582491Y-19543508D02*
X13601539Y-19514936D01*
X13601539Y-19514936D02*
X13611063Y-19505412D01*
X13677729Y-19553031D02*
X13687253Y-19543508D01*
X13687253Y-19543508D02*
X13706301Y-19533984D01*
X13706301Y-19533984D02*
X13753920Y-19533984D01*
X13753920Y-19533984D02*
X13772968Y-19543508D01*
X13772968Y-19543508D02*
X13782491Y-19553031D01*
X13782491Y-19553031D02*
X13792015Y-19572079D01*
X13792015Y-19572079D02*
X13792015Y-19591127D01*
X13792015Y-19591127D02*
X13782491Y-19619698D01*
X13782491Y-19619698D02*
X13668206Y-19733984D01*
X13668206Y-19733984D02*
X13792015Y-19733984D01*
X13887253Y-19733984D02*
X13925348Y-19733984D01*
X13925348Y-19733984D02*
X13944396Y-19724460D01*
X13944396Y-19724460D02*
X13953920Y-19714936D01*
X13953920Y-19714936D02*
X13972968Y-19686365D01*
X13972968Y-19686365D02*
X13982491Y-19648270D01*
X13982491Y-19648270D02*
X13982491Y-19572079D01*
X13982491Y-19572079D02*
X13972968Y-19553031D01*
X13972968Y-19553031D02*
X13963444Y-19543508D01*
X13963444Y-19543508D02*
X13944396Y-19533984D01*
X13944396Y-19533984D02*
X13906301Y-19533984D01*
X13906301Y-19533984D02*
X13887253Y-19543508D01*
X13887253Y-19543508D02*
X13877729Y-19553031D01*
X13877729Y-19553031D02*
X13868206Y-19572079D01*
X13868206Y-19572079D02*
X13868206Y-19619698D01*
X13868206Y-19619698D02*
X13877729Y-19638746D01*
X13877729Y-19638746D02*
X13887253Y-19648270D01*
X13887253Y-19648270D02*
X13906301Y-19657793D01*
X13906301Y-19657793D02*
X13944396Y-19657793D01*
X13944396Y-19657793D02*
X13963444Y-19648270D01*
X13963444Y-19648270D02*
X13972968Y-19638746D01*
X13972968Y-19638746D02*
X13982491Y-19619698D01*
X14220587Y-19733984D02*
X14220587Y-19533984D01*
X14306301Y-19733984D02*
X14306301Y-19629222D01*
X14306301Y-19629222D02*
X14296777Y-19610174D01*
X14296777Y-19610174D02*
X14277730Y-19600650D01*
X14277730Y-19600650D02*
X14249158Y-19600650D01*
X14249158Y-19600650D02*
X14230110Y-19610174D01*
X14230110Y-19610174D02*
X14220587Y-19619698D01*
X14430110Y-19733984D02*
X14411063Y-19724460D01*
X14411063Y-19724460D02*
X14401539Y-19714936D01*
X14401539Y-19714936D02*
X14392015Y-19695889D01*
X14392015Y-19695889D02*
X14392015Y-19638746D01*
X14392015Y-19638746D02*
X14401539Y-19619698D01*
X14401539Y-19619698D02*
X14411063Y-19610174D01*
X14411063Y-19610174D02*
X14430110Y-19600650D01*
X14430110Y-19600650D02*
X14458682Y-19600650D01*
X14458682Y-19600650D02*
X14477730Y-19610174D01*
X14477730Y-19610174D02*
X14487253Y-19619698D01*
X14487253Y-19619698D02*
X14496777Y-19638746D01*
X14496777Y-19638746D02*
X14496777Y-19695889D01*
X14496777Y-19695889D02*
X14487253Y-19714936D01*
X14487253Y-19714936D02*
X14477730Y-19724460D01*
X14477730Y-19724460D02*
X14458682Y-19733984D01*
X14458682Y-19733984D02*
X14430110Y-19733984D01*
X14611063Y-19733984D02*
X14592015Y-19724460D01*
X14592015Y-19724460D02*
X14582491Y-19705412D01*
X14582491Y-19705412D02*
X14582491Y-19533984D01*
X14763444Y-19724460D02*
X14744396Y-19733984D01*
X14744396Y-19733984D02*
X14706301Y-19733984D01*
X14706301Y-19733984D02*
X14687253Y-19724460D01*
X14687253Y-19724460D02*
X14677730Y-19705412D01*
X14677730Y-19705412D02*
X14677730Y-19629222D01*
X14677730Y-19629222D02*
X14687253Y-19610174D01*
X14687253Y-19610174D02*
X14706301Y-19600650D01*
X14706301Y-19600650D02*
X14744396Y-19600650D01*
X14744396Y-19600650D02*
X14763444Y-19610174D01*
X14763444Y-19610174D02*
X14772968Y-19629222D01*
X14772968Y-19629222D02*
X14772968Y-19648270D01*
X14772968Y-19648270D02*
X14677730Y-19667317D01*
X14849158Y-19724460D02*
X14868206Y-19733984D01*
X14868206Y-19733984D02*
X14906301Y-19733984D01*
X14906301Y-19733984D02*
X14925349Y-19724460D01*
X14925349Y-19724460D02*
X14934872Y-19705412D01*
X14934872Y-19705412D02*
X14934872Y-19695889D01*
X14934872Y-19695889D02*
X14925349Y-19676841D01*
X14925349Y-19676841D02*
X14906301Y-19667317D01*
X14906301Y-19667317D02*
X14877730Y-19667317D01*
X14877730Y-19667317D02*
X14858682Y-19657793D01*
X14858682Y-19657793D02*
X14849158Y-19638746D01*
X14849158Y-19638746D02*
X14849158Y-19629222D01*
X14849158Y-19629222D02*
X14858682Y-19610174D01*
X14858682Y-19610174D02*
X14877730Y-19600650D01*
X14877730Y-19600650D02*
X14906301Y-19600650D01*
X14906301Y-19600650D02*
X14925349Y-19610174D01*
X15001539Y-19810174D02*
X15011063Y-19800650D01*
X15011063Y-19800650D02*
X15030111Y-19772079D01*
X15030111Y-19772079D02*
X15039634Y-19753031D01*
X15039634Y-19753031D02*
X15049158Y-19724460D01*
X15049158Y-19724460D02*
X15058682Y-19676841D01*
X15058682Y-19676841D02*
X15058682Y-19638746D01*
X15058682Y-19638746D02*
X15049158Y-19591127D01*
X15049158Y-19591127D02*
X15039634Y-19562555D01*
X15039634Y-19562555D02*
X15030111Y-19543508D01*
X15030111Y-19543508D02*
X15011063Y-19514936D01*
X15011063Y-19514936D02*
X15001539Y-19505412D01*
X15363444Y-19810174D02*
X15353920Y-19800650D01*
X15353920Y-19800650D02*
X15334872Y-19772079D01*
X15334872Y-19772079D02*
X15325349Y-19753031D01*
X15325349Y-19753031D02*
X15315825Y-19724460D01*
X15315825Y-19724460D02*
X15306301Y-19676841D01*
X15306301Y-19676841D02*
X15306301Y-19638746D01*
X15306301Y-19638746D02*
X15315825Y-19591127D01*
X15315825Y-19591127D02*
X15325349Y-19562555D01*
X15325349Y-19562555D02*
X15334872Y-19543508D01*
X15334872Y-19543508D02*
X15353920Y-19514936D01*
X15353920Y-19514936D02*
X15363444Y-19505412D01*
X15439634Y-19600650D02*
X15439634Y-19733984D01*
X15439634Y-19619698D02*
X15449158Y-19610174D01*
X15449158Y-19610174D02*
X15468206Y-19600650D01*
X15468206Y-19600650D02*
X15496777Y-19600650D01*
X15496777Y-19600650D02*
X15515825Y-19610174D01*
X15515825Y-19610174D02*
X15525349Y-19629222D01*
X15525349Y-19629222D02*
X15525349Y-19733984D01*
X15649158Y-19733984D02*
X15630111Y-19724460D01*
X15630111Y-19724460D02*
X15620587Y-19714936D01*
X15620587Y-19714936D02*
X15611063Y-19695889D01*
X15611063Y-19695889D02*
X15611063Y-19638746D01*
X15611063Y-19638746D02*
X15620587Y-19619698D01*
X15620587Y-19619698D02*
X15630111Y-19610174D01*
X15630111Y-19610174D02*
X15649158Y-19600650D01*
X15649158Y-19600650D02*
X15677730Y-19600650D01*
X15677730Y-19600650D02*
X15696777Y-19610174D01*
X15696777Y-19610174D02*
X15706301Y-19619698D01*
X15706301Y-19619698D02*
X15715825Y-19638746D01*
X15715825Y-19638746D02*
X15715825Y-19695889D01*
X15715825Y-19695889D02*
X15706301Y-19714936D01*
X15706301Y-19714936D02*
X15696777Y-19724460D01*
X15696777Y-19724460D02*
X15677730Y-19733984D01*
X15677730Y-19733984D02*
X15649158Y-19733984D01*
X15772968Y-19600650D02*
X15849158Y-19600650D01*
X15801539Y-19533984D02*
X15801539Y-19705412D01*
X15801539Y-19705412D02*
X15811063Y-19724460D01*
X15811063Y-19724460D02*
X15830111Y-19733984D01*
X15830111Y-19733984D02*
X15849158Y-19733984D01*
X16068206Y-19600650D02*
X16068206Y-19800650D01*
X16068206Y-19610174D02*
X16087253Y-19600650D01*
X16087253Y-19600650D02*
X16125349Y-19600650D01*
X16125349Y-19600650D02*
X16144396Y-19610174D01*
X16144396Y-19610174D02*
X16153920Y-19619698D01*
X16153920Y-19619698D02*
X16163444Y-19638746D01*
X16163444Y-19638746D02*
X16163444Y-19695889D01*
X16163444Y-19695889D02*
X16153920Y-19714936D01*
X16153920Y-19714936D02*
X16144396Y-19724460D01*
X16144396Y-19724460D02*
X16125349Y-19733984D01*
X16125349Y-19733984D02*
X16087253Y-19733984D01*
X16087253Y-19733984D02*
X16068206Y-19724460D01*
X16277730Y-19733984D02*
X16258682Y-19724460D01*
X16258682Y-19724460D02*
X16249158Y-19705412D01*
X16249158Y-19705412D02*
X16249158Y-19533984D01*
X16439634Y-19733984D02*
X16439634Y-19629222D01*
X16439634Y-19629222D02*
X16430111Y-19610174D01*
X16430111Y-19610174D02*
X16411063Y-19600650D01*
X16411063Y-19600650D02*
X16372968Y-19600650D01*
X16372968Y-19600650D02*
X16353920Y-19610174D01*
X16439634Y-19724460D02*
X16420587Y-19733984D01*
X16420587Y-19733984D02*
X16372968Y-19733984D01*
X16372968Y-19733984D02*
X16353920Y-19724460D01*
X16353920Y-19724460D02*
X16344396Y-19705412D01*
X16344396Y-19705412D02*
X16344396Y-19686365D01*
X16344396Y-19686365D02*
X16353920Y-19667317D01*
X16353920Y-19667317D02*
X16372968Y-19657793D01*
X16372968Y-19657793D02*
X16420587Y-19657793D01*
X16420587Y-19657793D02*
X16439634Y-19648270D01*
X16506301Y-19600650D02*
X16582492Y-19600650D01*
X16534873Y-19533984D02*
X16534873Y-19705412D01*
X16534873Y-19705412D02*
X16544396Y-19724460D01*
X16544396Y-19724460D02*
X16563444Y-19733984D01*
X16563444Y-19733984D02*
X16582492Y-19733984D01*
X16725349Y-19724460D02*
X16706301Y-19733984D01*
X16706301Y-19733984D02*
X16668206Y-19733984D01*
X16668206Y-19733984D02*
X16649158Y-19724460D01*
X16649158Y-19724460D02*
X16639634Y-19705412D01*
X16639634Y-19705412D02*
X16639634Y-19629222D01*
X16639634Y-19629222D02*
X16649158Y-19610174D01*
X16649158Y-19610174D02*
X16668206Y-19600650D01*
X16668206Y-19600650D02*
X16706301Y-19600650D01*
X16706301Y-19600650D02*
X16725349Y-19610174D01*
X16725349Y-19610174D02*
X16734873Y-19629222D01*
X16734873Y-19629222D02*
X16734873Y-19648270D01*
X16734873Y-19648270D02*
X16639634Y-19667317D01*
X16906301Y-19733984D02*
X16906301Y-19533984D01*
X16906301Y-19724460D02*
X16887254Y-19733984D01*
X16887254Y-19733984D02*
X16849158Y-19733984D01*
X16849158Y-19733984D02*
X16830111Y-19724460D01*
X16830111Y-19724460D02*
X16820587Y-19714936D01*
X16820587Y-19714936D02*
X16811063Y-19695889D01*
X16811063Y-19695889D02*
X16811063Y-19638746D01*
X16811063Y-19638746D02*
X16820587Y-19619698D01*
X16820587Y-19619698D02*
X16830111Y-19610174D01*
X16830111Y-19610174D02*
X16849158Y-19600650D01*
X16849158Y-19600650D02*
X16887254Y-19600650D01*
X16887254Y-19600650D02*
X16906301Y-19610174D01*
X16982492Y-19810174D02*
X16992016Y-19800650D01*
X16992016Y-19800650D02*
X17011063Y-19772079D01*
X17011063Y-19772079D02*
X17020587Y-19753031D01*
X17020587Y-19753031D02*
X17030111Y-19724460D01*
X17030111Y-19724460D02*
X17039635Y-19676841D01*
X17039635Y-19676841D02*
X17039635Y-19638746D01*
X17039635Y-19638746D02*
X17030111Y-19591127D01*
X17030111Y-19591127D02*
X17020587Y-19562555D01*
X17020587Y-19562555D02*
X17011063Y-19543508D01*
X17011063Y-19543508D02*
X16992016Y-19514936D01*
X16992016Y-19514936D02*
X16982492Y-19505412D01*
M02*
