M48
; DRILL file {KiCad 8.0.6-8.0.6-0~ubuntu24.04.1} date 2025-02-09T13:25:01-0500
; FORMAT={-:-/ absolute / metric / decimal}
; #@! TF.CreationDate,2025-02-09T13:25:01-05:00
; #@! TF.GenerationSoftware,Kicad,Pcbnew,8.0.6-8.0.6-0~ubuntu24.04.1
; #@! TF.FileFunction,NonPlated,1,2,NPTH
FMAT,2
METRIC
; #@! TA.AperFunction,NonPlated,NPTH,ComponentDrill
T1C1.750
; #@! TA.AperFunction,NonPlated,NPTH,ComponentDrill
T2C2.500
; #@! TA.AperFunction,NonPlated,NPTH,ComponentDrill
T3C3.050
; #@! TA.AperFunction,NonPlated,NPTH,ComponentDrill
T4C4.000
%
G90
G05
T1
X108.33Y-129.525
X108.33Y-148.575
X108.33Y-167.625
X118.49Y-129.525
X118.49Y-148.575
X118.49Y-167.625
X127.38Y-129.525
X127.38Y-148.575
X137.54Y-129.525
X137.54Y-148.575
X139.445Y-53.325
X139.445Y-72.375
X139.445Y-91.425
X139.445Y-110.475
X146.43Y-129.525
X149.605Y-53.325
X149.605Y-72.375
X149.605Y-91.425
X149.605Y-110.475
X156.59Y-129.525
X158.495Y-53.325
X158.495Y-72.375
X158.495Y-91.425
X158.495Y-110.475
X168.655Y-53.325
X168.655Y-72.375
X168.655Y-91.425
X168.655Y-110.475
X177.545Y-45.387
X177.545Y-64.438
X177.545Y-83.487
X177.545Y-102.537
X187.705Y-45.387
X187.705Y-64.438
X187.705Y-83.487
X187.705Y-102.537
X196.595Y-50.785
X196.595Y-69.835
X196.595Y-88.885
X196.595Y-107.935
X206.755Y-50.785
X206.755Y-69.835
X206.755Y-88.885
X206.755Y-107.935
X215.645Y-64.755
X215.645Y-83.805
X215.645Y-102.855
X215.645Y-121.905
X225.805Y-64.755
X225.805Y-83.805
X225.805Y-102.855
X225.805Y-121.905
X234.695Y-83.805
X234.695Y-102.855
X234.695Y-121.905
X244.855Y-83.805
X244.855Y-102.855
X244.855Y-121.905
T2
X103.885Y-177.15
X103.94Y-75.962
X134.0Y-43.8
X154.05Y-100.95
X249.3Y-74.28
X249.3Y-131.43
T3
X109.6Y-126.985
X109.6Y-146.035
X109.6Y-165.085
X115.95Y-124.445
X115.95Y-143.495
X115.95Y-162.545
X128.65Y-126.985
X128.65Y-146.035
X135.0Y-124.445
X135.0Y-143.495
X140.715Y-50.785
X140.715Y-69.835
X140.715Y-88.885
X140.715Y-107.935
X147.065Y-48.245
X147.065Y-67.295
X147.065Y-86.345
X147.065Y-105.395
X147.7Y-126.985
X154.05Y-124.445
X159.765Y-50.785
X159.765Y-69.835
X159.765Y-88.885
X159.765Y-107.935
X166.115Y-48.245
X166.115Y-67.295
X166.115Y-86.345
X166.115Y-105.395
X178.815Y-42.847
X178.815Y-61.897
X178.815Y-80.947
X178.815Y-99.998
X185.165Y-40.307
X185.165Y-59.357
X185.165Y-78.407
X185.165Y-97.457
X197.865Y-48.245
X197.865Y-67.295
X197.865Y-86.345
X197.865Y-105.395
X204.215Y-45.705
X204.215Y-64.755
X204.215Y-83.805
X204.215Y-102.855
X216.915Y-62.215
X216.915Y-81.265
X216.915Y-100.315
X216.915Y-119.365
X223.265Y-59.675
X223.265Y-78.725
X223.265Y-97.775
X223.265Y-116.825
X235.965Y-81.265
X235.965Y-100.315
X235.965Y-119.365
X242.315Y-78.725
X242.315Y-97.775
X242.315Y-116.825
T4
X113.41Y-129.525
X113.41Y-148.575
X113.41Y-167.625
X132.46Y-129.525
X132.46Y-148.575
X144.525Y-53.325
X144.525Y-72.375
X144.525Y-91.425
X144.525Y-110.475
X151.51Y-129.525
X163.575Y-53.325
X163.575Y-72.375
X163.575Y-91.425
X163.575Y-110.475
X182.625Y-45.387
X182.625Y-64.438
X182.625Y-83.487
X182.625Y-102.537
X201.675Y-50.785
X201.675Y-69.835
X201.675Y-88.885
X201.675Y-107.935
X220.725Y-64.755
X220.725Y-83.805
X220.725Y-102.855
X220.725Y-121.905
X239.775Y-83.805
X239.775Y-102.855
X239.775Y-121.905
M30
