%TF.GenerationSoftware,KiCad,Pcbnew,8.0.6-8.0.6-0~ubuntu24.04.1*%
%TF.CreationDate,2025-02-09T13:25:05-05:00*%
%TF.ProjectId,keybird_right,6b657962-6972-4645-9f72-696768742e6b,rev?*%
%TF.SameCoordinates,Original*%
%TF.FileFunction,Drillmap*%
%TF.FilePolarity,Positive*%
%FSLAX45Y45*%
G04 Gerber Fmt 4.5, Leading zero omitted, Abs format (unit mm)*
G04 Created by KiCad (PCBNEW 8.0.6-8.0.6-0~ubuntu24.04.1) date 2025-02-09 13:25:05*
%MOMM*%
%LPD*%
G01*
G04 APERTURE LIST*
%ADD10C,0.050000*%
%ADD11C,0.100000*%
%ADD12C,0.200000*%
G04 APERTURE END LIST*
D10*
X19765000Y-3776000D02*
G75*
G02*
X19565000Y-3576000I0J200000D01*
G01*
X16453500Y-12550000D02*
G75*
G02*
X16653500Y-12350000I200000J0D01*
G01*
X17660000Y-11756250D02*
G75*
G02*
X17860000Y-11556250I200000J0D01*
G01*
X17460000Y-12350000D02*
X16653500Y-12350000D01*
X16760000Y-4030000D02*
X12700000Y-4030000D01*
X14548500Y-14455000D02*
X14548500Y-15960000D01*
X19365000Y-3236250D02*
X17160000Y-3236250D01*
X23175000Y-5173000D02*
G75*
G02*
X23375000Y-5373000I0J-200000D01*
G01*
D11*
X20570000Y-12096000D02*
G75*
G02*
X20770000Y-12296000I0J-200000D01*
G01*
D10*
X25080000Y-13493000D02*
X20970000Y-13493000D01*
X20970000Y-13493000D02*
G75*
G02*
X20770000Y-13293000I0J200000D01*
G01*
X19365000Y-3236250D02*
G75*
G02*
X19565000Y-3436250I0J-200000D01*
G01*
X12643500Y-16360000D02*
G75*
G02*
X12843500Y-16160000I200000J0D01*
G01*
X17660000Y-11756250D02*
X17660000Y-12150000D01*
X25280000Y-13293000D02*
G75*
G02*
X25080000Y-13493000I-200000J0D01*
G01*
D11*
X20770000Y-12296000D02*
X20770000Y-13293000D01*
D10*
X16960000Y-3830000D02*
G75*
G02*
X16760000Y-4030000I-200000J0D01*
G01*
X25080000Y-7078000D02*
G75*
G02*
X25280000Y-7278000I0J-200000D01*
G01*
X23575000Y-7078000D02*
X25080000Y-7078000D01*
X12443500Y-18065000D02*
X10238500Y-18065000D01*
X19565000Y-3436250D02*
X19565000Y-3576000D01*
X14548500Y-14455000D02*
G75*
G02*
X14748500Y-14255000I200000J0D01*
G01*
X12300000Y-6950000D02*
X10238500Y-6950000D01*
X10038500Y-7150000D02*
G75*
G02*
X10238500Y-6950000I200000J0D01*
G01*
X19065000Y-12096000D02*
G75*
G02*
X18865000Y-11896000I0J200000D01*
G01*
X23375000Y-5373000D02*
X23375000Y-6878000D01*
X21470000Y-3976000D02*
X21470000Y-4973000D01*
X12500000Y-4230000D02*
G75*
G02*
X12700000Y-4030000I200000J0D01*
G01*
X16453500Y-14055000D02*
G75*
G02*
X16253500Y-14255000I-200000J0D01*
G01*
X19765000Y-3776000D02*
X21270000Y-3776000D01*
X21670000Y-5173000D02*
G75*
G02*
X21470000Y-4973000I0J200000D01*
G01*
X14548500Y-15960000D02*
G75*
G02*
X14348500Y-16160000I-200000J0D01*
G01*
X12643500Y-16360000D02*
X12643500Y-17865000D01*
X23575000Y-7078000D02*
G75*
G02*
X23375000Y-6878000I0J200000D01*
G01*
X10238500Y-18065000D02*
G75*
G02*
X10038500Y-17865000I0J200000D01*
G01*
X12500000Y-6750000D02*
G75*
G02*
X12300000Y-6950000I-200000J0D01*
G01*
X12500000Y-4230000D02*
X12500000Y-6750000D01*
X16960000Y-3436250D02*
G75*
G02*
X17160000Y-3236250I200000J0D01*
G01*
X18865000Y-11896000D02*
X18865000Y-11756250D01*
X25280000Y-7278000D02*
X25280000Y-13293000D01*
X21270000Y-3776000D02*
G75*
G02*
X21470000Y-3976000I0J-200000D01*
G01*
X16960000Y-3830000D02*
X16960000Y-3436250D01*
X16253500Y-14255000D02*
X14748500Y-14255000D01*
X14348500Y-16160000D02*
X12843500Y-16160000D01*
X18665000Y-11556250D02*
X17860000Y-11556250D01*
X17660000Y-12150000D02*
G75*
G02*
X17460000Y-12350000I-200000J0D01*
G01*
X16453500Y-12550000D02*
X16453500Y-14055000D01*
X18665000Y-11556250D02*
G75*
G02*
X18865000Y-11756250I0J-200000D01*
G01*
X20570000Y-12096000D02*
X19065000Y-12096000D01*
X21670000Y-5173000D02*
X23175000Y-5173000D01*
X12643500Y-17865000D02*
G75*
G02*
X12443500Y-18065000I-200000J0D01*
G01*
X10038500Y-7150000D02*
X10038500Y-17865000D01*
D12*
D11*
X10379081Y-12672833D02*
X10429081Y-12722833D01*
X10429081Y-12672833D02*
X10379081Y-12722833D01*
X10379081Y-14577833D02*
X10429081Y-14627833D01*
X10429081Y-14577833D02*
X10379081Y-14627833D01*
X10475000Y-8175000D02*
X10525000Y-8225000D01*
X10525000Y-8175000D02*
X10475000Y-8225000D01*
X10475000Y-11375000D02*
X10525000Y-11425000D01*
X10525000Y-11375000D02*
X10475000Y-11425000D01*
X10475000Y-12175000D02*
X10525000Y-12225000D01*
X10525000Y-12175000D02*
X10475000Y-12225000D01*
X10475000Y-15375000D02*
X10525000Y-15425000D01*
X10525000Y-15375000D02*
X10475000Y-15425000D01*
X10475000Y-16975000D02*
X10525000Y-17025000D01*
X10525000Y-16975000D02*
X10475000Y-17025000D01*
X10605625Y-16222201D02*
X10655625Y-16272201D01*
X10655625Y-16222201D02*
X10605625Y-16272201D01*
X11275000Y-7375000D02*
X11325000Y-7425000D01*
X11325000Y-7375000D02*
X11275000Y-7425000D01*
X11275000Y-8975000D02*
X11325000Y-9025000D01*
X11325000Y-8975000D02*
X11275000Y-9025000D01*
X11275000Y-13775000D02*
X11325000Y-13825000D01*
X11325000Y-13775000D02*
X11275000Y-13825000D01*
X11275000Y-15375000D02*
X11325000Y-15425000D01*
X11325000Y-15375000D02*
X11275000Y-15425000D01*
X11275000Y-16175000D02*
X11325000Y-16225000D01*
X11325000Y-16175000D02*
X11275000Y-16225000D01*
X11275000Y-17775000D02*
X11325000Y-17825000D01*
X11325000Y-17775000D02*
X11275000Y-17825000D01*
X11487000Y-10041370D02*
X11537000Y-10091370D01*
X11537000Y-10041370D02*
X11487000Y-10091370D01*
X11815942Y-9904323D02*
X11865942Y-9954323D01*
X11865942Y-9904323D02*
X11815942Y-9954323D01*
X12043979Y-10806393D02*
X12093979Y-10856393D01*
X12093979Y-10806393D02*
X12043979Y-10856393D01*
X12075000Y-8175000D02*
X12125000Y-8225000D01*
X12125000Y-8175000D02*
X12075000Y-8225000D01*
X12075000Y-8975000D02*
X12125000Y-9025000D01*
X12125000Y-8975000D02*
X12075000Y-9025000D01*
X12075000Y-16975000D02*
X12125000Y-17025000D01*
X12125000Y-16975000D02*
X12075000Y-17025000D01*
X12075000Y-17775000D02*
X12125000Y-17825000D01*
X12125000Y-17775000D02*
X12075000Y-17825000D01*
X12512717Y-14306432D02*
X12562717Y-14356432D01*
X12562717Y-14306432D02*
X12512717Y-14356432D01*
X12549312Y-10371411D02*
X12599312Y-10421411D01*
X12599312Y-10371411D02*
X12549312Y-10421411D01*
X12875000Y-4175000D02*
X12925000Y-4225000D01*
X12925000Y-4175000D02*
X12875000Y-4225000D01*
X12875000Y-15375000D02*
X12925000Y-15425000D01*
X12925000Y-15375000D02*
X12875000Y-15425000D01*
X13086902Y-12461333D02*
X13136902Y-12511333D01*
X13136902Y-12461333D02*
X13086902Y-12511333D01*
X13675000Y-4175000D02*
X13725000Y-4225000D01*
X13725000Y-4175000D02*
X13675000Y-4225000D01*
X13675000Y-14575000D02*
X13725000Y-14625000D01*
X13725000Y-14575000D02*
X13675000Y-14625000D01*
X13675000Y-15375000D02*
X13725000Y-15425000D01*
X13725000Y-15375000D02*
X13675000Y-15425000D01*
X13719000Y-5358408D02*
X13769000Y-5408408D01*
X13769000Y-5358408D02*
X13719000Y-5408408D01*
X13719000Y-7263408D02*
X13769000Y-7313408D01*
X13769000Y-7263408D02*
X13719000Y-7313408D01*
X13719000Y-9168408D02*
X13769000Y-9218408D01*
X13769000Y-9168408D02*
X13719000Y-9218408D01*
X13719005Y-6653592D02*
X13769005Y-6703592D01*
X13769005Y-6653592D02*
X13719005Y-6703592D01*
X13719005Y-8558592D02*
X13769005Y-8608592D01*
X13769005Y-8558592D02*
X13719005Y-8608592D01*
X13719005Y-10463592D02*
X13769005Y-10513592D01*
X13769005Y-10463592D02*
X13719005Y-10513592D01*
X14171231Y-12673500D02*
X14221231Y-12723500D01*
X14221231Y-12673500D02*
X14171231Y-12723500D01*
X14475000Y-5775000D02*
X14525000Y-5825000D01*
X14525000Y-5775000D02*
X14475000Y-5825000D01*
X14475000Y-8175000D02*
X14525000Y-8225000D01*
X14525000Y-8175000D02*
X14475000Y-8225000D01*
X14475000Y-9775000D02*
X14525000Y-9825000D01*
X14525000Y-9775000D02*
X14475000Y-9825000D01*
X14475000Y-12175000D02*
X14525000Y-12225000D01*
X14525000Y-12175000D02*
X14475000Y-12225000D01*
X14475000Y-13775000D02*
X14525000Y-13825000D01*
X14525000Y-13775000D02*
X14475000Y-13825000D01*
X15275000Y-4975000D02*
X15325000Y-5025000D01*
X15325000Y-4975000D02*
X15275000Y-5025000D01*
X15275000Y-5775000D02*
X15325000Y-5825000D01*
X15325000Y-5775000D02*
X15275000Y-5825000D01*
X15275000Y-6575000D02*
X15325000Y-6625000D01*
X15325000Y-6575000D02*
X15275000Y-6625000D01*
X15275000Y-7375000D02*
X15325000Y-7425000D01*
X15325000Y-7375000D02*
X15275000Y-7425000D01*
X15275000Y-8975000D02*
X15325000Y-9025000D01*
X15325000Y-8975000D02*
X15275000Y-9025000D01*
X15275000Y-9775000D02*
X15325000Y-9825000D01*
X15325000Y-9775000D02*
X15275000Y-9825000D01*
X15275000Y-10575000D02*
X15325000Y-10625000D01*
X15325000Y-10575000D02*
X15275000Y-10625000D01*
X15275000Y-13775000D02*
X15325000Y-13825000D01*
X15325000Y-13775000D02*
X15275000Y-13825000D01*
X15624000Y-5358408D02*
X15674000Y-5408408D01*
X15674000Y-5358408D02*
X15624000Y-5408408D01*
X15624000Y-7263408D02*
X15674000Y-7313408D01*
X15674000Y-7263408D02*
X15624000Y-7313408D01*
X15624000Y-9168408D02*
X15674000Y-9218408D01*
X15674000Y-9168408D02*
X15624000Y-9218408D01*
X15624005Y-6653592D02*
X15674005Y-6703592D01*
X15674005Y-6653592D02*
X15624005Y-6703592D01*
X15624005Y-8558592D02*
X15674005Y-8608592D01*
X15674005Y-8558592D02*
X15624005Y-8608592D01*
X15624005Y-10463592D02*
X15674005Y-10513592D01*
X15674005Y-10463592D02*
X15624005Y-10513592D01*
X16075000Y-5775000D02*
X16125000Y-5825000D01*
X16125000Y-5775000D02*
X16075000Y-5825000D01*
X16075000Y-6575000D02*
X16125000Y-6625000D01*
X16125000Y-6575000D02*
X16075000Y-6625000D01*
X16075000Y-9775000D02*
X16125000Y-9825000D01*
X16125000Y-9775000D02*
X16075000Y-9825000D01*
X16075000Y-12175000D02*
X16125000Y-12225000D01*
X16125000Y-12175000D02*
X16075000Y-12225000D01*
X16075000Y-12975000D02*
X16125000Y-13025000D01*
X16125000Y-12975000D02*
X16075000Y-13025000D01*
X16075000Y-13775000D02*
X16125000Y-13825000D01*
X16125000Y-13775000D02*
X16075000Y-13825000D01*
X16875000Y-5775000D02*
X16925000Y-5825000D01*
X16925000Y-5775000D02*
X16875000Y-5825000D01*
X16875000Y-9775000D02*
X16925000Y-9825000D01*
X16925000Y-9775000D02*
X16875000Y-9825000D01*
X16875000Y-12175000D02*
X16925000Y-12225000D01*
X16925000Y-12175000D02*
X16875000Y-12225000D01*
X17529000Y-4564658D02*
X17579000Y-4614658D01*
X17579000Y-4564658D02*
X17529000Y-4614658D01*
X17529000Y-6469658D02*
X17579000Y-6519658D01*
X17579000Y-6469658D02*
X17529000Y-6519658D01*
X17529000Y-8374658D02*
X17579000Y-8424658D01*
X17579000Y-8374658D02*
X17529000Y-8424658D01*
X17529005Y-5859842D02*
X17579005Y-5909842D01*
X17579005Y-5859842D02*
X17529005Y-5909842D01*
X17529005Y-7764842D02*
X17579005Y-7814842D01*
X17579005Y-7764842D02*
X17529005Y-7814842D01*
X17529005Y-9669842D02*
X17579005Y-9719842D01*
X17579005Y-9669842D02*
X17529005Y-9719842D01*
X17675000Y-3375000D02*
X17725000Y-3425000D01*
X17725000Y-3375000D02*
X17675000Y-3425000D01*
X17675000Y-4975000D02*
X17725000Y-5025000D01*
X17725000Y-4975000D02*
X17675000Y-5025000D01*
X17675000Y-8975000D02*
X17725000Y-9025000D01*
X17725000Y-8975000D02*
X17675000Y-9025000D01*
X17675000Y-10575000D02*
X17725000Y-10625000D01*
X17725000Y-10575000D02*
X17675000Y-10625000D01*
X18475000Y-4975000D02*
X18525000Y-5025000D01*
X18525000Y-4975000D02*
X18475000Y-5025000D01*
X18475000Y-8975000D02*
X18525000Y-9025000D01*
X18525000Y-8975000D02*
X18475000Y-9025000D01*
X18475000Y-10575000D02*
X18525000Y-10625000D01*
X18525000Y-10575000D02*
X18475000Y-10625000D01*
X19275000Y-3375000D02*
X19325000Y-3425000D01*
X19325000Y-3375000D02*
X19275000Y-3425000D01*
X19275000Y-4175000D02*
X19325000Y-4225000D01*
X19325000Y-4175000D02*
X19275000Y-4225000D01*
X19275000Y-5775000D02*
X19325000Y-5825000D01*
X19325000Y-5775000D02*
X19275000Y-5825000D01*
X19275000Y-9775000D02*
X19325000Y-9825000D01*
X19325000Y-9775000D02*
X19275000Y-9825000D01*
X19433995Y-7009408D02*
X19483995Y-7059408D01*
X19483995Y-7009408D02*
X19433995Y-7059408D01*
X19434000Y-5104408D02*
X19484000Y-5154408D01*
X19484000Y-5104408D02*
X19434000Y-5154408D01*
X19434000Y-8304592D02*
X19484000Y-8354592D01*
X19484000Y-8304592D02*
X19434000Y-8354592D01*
X19434000Y-8914408D02*
X19484000Y-8964408D01*
X19484000Y-8914408D02*
X19434000Y-8964408D01*
X19434005Y-6399592D02*
X19484005Y-6449592D01*
X19484005Y-6399592D02*
X19434005Y-6449592D01*
X19434005Y-10209592D02*
X19484005Y-10259592D01*
X19484005Y-10209592D02*
X19434005Y-10259592D01*
X20075000Y-4175000D02*
X20125000Y-4225000D01*
X20125000Y-4175000D02*
X20075000Y-4225000D01*
X20075000Y-5775000D02*
X20125000Y-5825000D01*
X20125000Y-5775000D02*
X20075000Y-5825000D01*
X20075000Y-6575000D02*
X20125000Y-6625000D01*
X20125000Y-6575000D02*
X20075000Y-6625000D01*
X20075000Y-8175000D02*
X20125000Y-8225000D01*
X20125000Y-8175000D02*
X20075000Y-8225000D01*
X20075000Y-9775000D02*
X20125000Y-9825000D01*
X20125000Y-9775000D02*
X20075000Y-9825000D01*
X20875000Y-4975000D02*
X20925000Y-5025000D01*
X20925000Y-4975000D02*
X20875000Y-5025000D01*
X20875000Y-5775000D02*
X20925000Y-5825000D01*
X20925000Y-5775000D02*
X20875000Y-5825000D01*
X20875000Y-7375000D02*
X20925000Y-7425000D01*
X20925000Y-7375000D02*
X20875000Y-7425000D01*
X20875000Y-8975000D02*
X20925000Y-9025000D01*
X20925000Y-8975000D02*
X20875000Y-9025000D01*
X20875000Y-10575000D02*
X20925000Y-10625000D01*
X20925000Y-10575000D02*
X20875000Y-10625000D01*
X21339000Y-6501408D02*
X21389000Y-6551408D01*
X21389000Y-6501408D02*
X21339000Y-6551408D01*
X21339000Y-8406408D02*
X21389000Y-8456408D01*
X21389000Y-8406408D02*
X21339000Y-8456408D01*
X21339000Y-10219531D02*
X21389000Y-10269531D01*
X21389000Y-10219531D02*
X21339000Y-10269531D01*
X21339005Y-7796592D02*
X21389005Y-7846592D01*
X21389005Y-7796592D02*
X21339005Y-7846592D01*
X21339005Y-9701592D02*
X21389005Y-9751592D01*
X21389005Y-9701592D02*
X21339005Y-9751592D01*
X21339005Y-11606592D02*
X21389005Y-11656592D01*
X21389005Y-11606592D02*
X21339005Y-11656592D01*
X21675000Y-5775000D02*
X21725000Y-5825000D01*
X21725000Y-5775000D02*
X21675000Y-5825000D01*
X21675000Y-7375000D02*
X21725000Y-7425000D01*
X21725000Y-7375000D02*
X21675000Y-7425000D01*
X21675000Y-8975000D02*
X21725000Y-9025000D01*
X21725000Y-8975000D02*
X21675000Y-9025000D01*
X21675000Y-11375000D02*
X21725000Y-11425000D01*
X21725000Y-11375000D02*
X21675000Y-11425000D01*
X21675000Y-12975000D02*
X21725000Y-13025000D01*
X21725000Y-12975000D02*
X21675000Y-13025000D01*
X22475000Y-10575000D02*
X22525000Y-10625000D01*
X22525000Y-10575000D02*
X22475000Y-10625000D01*
X22475000Y-12975000D02*
X22525000Y-13025000D01*
X22525000Y-12975000D02*
X22475000Y-13025000D01*
X23243995Y-8406408D02*
X23293995Y-8456408D01*
X23293995Y-8406408D02*
X23243995Y-8456408D01*
X23244000Y-9701592D02*
X23294000Y-9751592D01*
X23294000Y-9701592D02*
X23244000Y-9751592D01*
X23244000Y-10311408D02*
X23294000Y-10361408D01*
X23294000Y-10311408D02*
X23244000Y-10361408D01*
X23244005Y-11606592D02*
X23294005Y-11656592D01*
X23294005Y-11606592D02*
X23244005Y-11656592D01*
X23275000Y-12975000D02*
X23325000Y-13025000D01*
X23325000Y-12975000D02*
X23275000Y-13025000D01*
X24075000Y-8975000D02*
X24125000Y-9025000D01*
X24125000Y-8975000D02*
X24075000Y-9025000D01*
X24075000Y-10575000D02*
X24125000Y-10625000D01*
X24125000Y-10575000D02*
X24075000Y-10625000D01*
X24075000Y-11375000D02*
X24125000Y-11425000D01*
X24125000Y-11375000D02*
X24075000Y-11425000D01*
X24075000Y-12975000D02*
X24125000Y-13025000D01*
X24125000Y-12975000D02*
X24075000Y-13025000D01*
X24875000Y-8175000D02*
X24925000Y-8225000D01*
X24925000Y-8175000D02*
X24875000Y-8225000D01*
X24875000Y-8975000D02*
X24925000Y-9025000D01*
X24925000Y-8975000D02*
X24875000Y-9025000D01*
X24875000Y-9775000D02*
X24925000Y-9825000D01*
X24925000Y-9775000D02*
X24875000Y-9825000D01*
X24875000Y-10575000D02*
X24925000Y-10625000D01*
X24925000Y-10575000D02*
X24875000Y-10625000D01*
X24875000Y-11375000D02*
X24925000Y-11425000D01*
X24925000Y-11375000D02*
X24875000Y-11425000D01*
X24875000Y-12175000D02*
X24925000Y-12225000D01*
X24925000Y-12175000D02*
X24875000Y-12225000D01*
X10390000Y-8642000D02*
G75*
G02*
X10310000Y-8642000I-40000J0D01*
G01*
X10310000Y-8642000D02*
G75*
G02*
X10390000Y-8642000I40000J0D01*
G01*
X10390000Y-8896000D02*
G75*
G02*
X10310000Y-8896000I-40000J0D01*
G01*
X10310000Y-8896000D02*
G75*
G02*
X10390000Y-8896000I40000J0D01*
G01*
X10390000Y-9150000D02*
G75*
G02*
X10310000Y-9150000I-40000J0D01*
G01*
X10310000Y-9150000D02*
G75*
G02*
X10390000Y-9150000I40000J0D01*
G01*
X10350000Y-9665000D02*
X10350000Y-9765000D01*
X10300000Y-9715000D02*
X10400000Y-9715000D01*
X10350000Y-9919000D02*
X10350000Y-10019000D01*
X10300000Y-9969000D02*
X10400000Y-9969000D01*
X10350000Y-10173000D02*
X10350000Y-10273000D01*
X10300000Y-10223000D02*
X10400000Y-10223000D01*
X10350000Y-10427000D02*
X10350000Y-10527000D01*
X10300000Y-10477000D02*
X10400000Y-10477000D01*
X10350000Y-10681000D02*
X10350000Y-10781000D01*
X10300000Y-10731000D02*
X10400000Y-10731000D01*
X10350000Y-10935000D02*
X10350000Y-11035000D01*
X10300000Y-10985000D02*
X10400000Y-10985000D01*
X10900000Y-7487500D02*
X10900000Y-7587500D01*
X10850000Y-7537500D02*
X10950000Y-7537500D01*
X10900000Y-7741500D02*
X10900000Y-7841500D01*
X10850000Y-7791500D02*
X10950000Y-7791500D01*
X10900000Y-7995500D02*
X10900000Y-8095500D01*
X10850000Y-8045500D02*
X10950000Y-8045500D01*
X10900000Y-8249500D02*
X10900000Y-8349500D01*
X10850000Y-8299500D02*
X10950000Y-8299500D01*
X10900000Y-8503500D02*
X10900000Y-8603500D01*
X10850000Y-8553500D02*
X10950000Y-8553500D01*
X10900000Y-8757500D02*
X10900000Y-8857500D01*
X10850000Y-8807500D02*
X10950000Y-8807500D01*
X10900000Y-9011500D02*
X10900000Y-9111500D01*
X10850000Y-9061500D02*
X10950000Y-9061500D01*
X10900000Y-9265500D02*
X10900000Y-9365500D01*
X10850000Y-9315500D02*
X10950000Y-9315500D01*
X10900000Y-9519500D02*
X10900000Y-9619500D01*
X10850000Y-9569500D02*
X10950000Y-9569500D01*
X10900000Y-9773500D02*
X10900000Y-9873500D01*
X10850000Y-9823500D02*
X10950000Y-9823500D01*
X10900000Y-10027500D02*
X10900000Y-10127500D01*
X10850000Y-10077500D02*
X10950000Y-10077500D01*
X10900000Y-10281500D02*
X10900000Y-10381500D01*
X10850000Y-10331500D02*
X10950000Y-10331500D01*
X10900000Y-10535500D02*
X10900000Y-10635500D01*
X10850000Y-10585500D02*
X10950000Y-10585500D01*
X10900000Y-10789500D02*
X10900000Y-10889500D01*
X10850000Y-10839500D02*
X10950000Y-10839500D01*
X10900000Y-11043500D02*
X10900000Y-11143500D01*
X10850000Y-11093500D02*
X10950000Y-11093500D01*
X10900000Y-11297500D02*
X10900000Y-11397500D01*
X10850000Y-11347500D02*
X10950000Y-11347500D01*
X12929500Y-8502500D02*
X12929500Y-8602500D01*
X12879500Y-8552500D02*
X12979500Y-8552500D01*
X12929500Y-8756500D02*
X12929500Y-8856500D01*
X12879500Y-8806500D02*
X12979500Y-8806500D01*
X12929500Y-9010500D02*
X12929500Y-9110500D01*
X12879500Y-9060500D02*
X12979500Y-9060500D01*
X12929500Y-9264500D02*
X12929500Y-9364500D01*
X12879500Y-9314500D02*
X12979500Y-9314500D01*
X12929500Y-9518500D02*
X12929500Y-9618500D01*
X12879500Y-9568500D02*
X12979500Y-9568500D01*
X12929500Y-9772500D02*
X12929500Y-9872500D01*
X12879500Y-9822500D02*
X12979500Y-9822500D01*
X12929500Y-10026500D02*
X12929500Y-10126500D01*
X12879500Y-10076500D02*
X12979500Y-10076500D01*
X12929500Y-10280500D02*
X12929500Y-10380500D01*
X12879500Y-10330500D02*
X12979500Y-10330500D01*
X12929500Y-10534500D02*
X12929500Y-10634500D01*
X12879500Y-10584500D02*
X12979500Y-10584500D01*
X12929500Y-10788500D02*
X12929500Y-10888500D01*
X12879500Y-10838500D02*
X12979500Y-10838500D01*
X12929500Y-11042500D02*
X12929500Y-11142500D01*
X12879500Y-11092500D02*
X12979500Y-11092500D01*
X12929500Y-11296500D02*
X12929500Y-11396500D01*
X12879500Y-11346500D02*
X12979500Y-11346500D01*
D12*
X10296777Y-18378984D02*
X10296777Y-18178984D01*
X10296777Y-18178984D02*
X10344396Y-18178984D01*
X10344396Y-18178984D02*
X10372967Y-18188508D01*
X10372967Y-18188508D02*
X10392015Y-18207555D01*
X10392015Y-18207555D02*
X10401539Y-18226603D01*
X10401539Y-18226603D02*
X10411063Y-18264698D01*
X10411063Y-18264698D02*
X10411063Y-18293270D01*
X10411063Y-18293270D02*
X10401539Y-18331365D01*
X10401539Y-18331365D02*
X10392015Y-18350412D01*
X10392015Y-18350412D02*
X10372967Y-18369460D01*
X10372967Y-18369460D02*
X10344396Y-18378984D01*
X10344396Y-18378984D02*
X10296777Y-18378984D01*
X10496777Y-18378984D02*
X10496777Y-18245650D01*
X10496777Y-18283746D02*
X10506301Y-18264698D01*
X10506301Y-18264698D02*
X10515824Y-18255174D01*
X10515824Y-18255174D02*
X10534872Y-18245650D01*
X10534872Y-18245650D02*
X10553920Y-18245650D01*
X10620586Y-18378984D02*
X10620586Y-18245650D01*
X10620586Y-18178984D02*
X10611063Y-18188508D01*
X10611063Y-18188508D02*
X10620586Y-18198031D01*
X10620586Y-18198031D02*
X10630110Y-18188508D01*
X10630110Y-18188508D02*
X10620586Y-18178984D01*
X10620586Y-18178984D02*
X10620586Y-18198031D01*
X10744396Y-18378984D02*
X10725348Y-18369460D01*
X10725348Y-18369460D02*
X10715824Y-18350412D01*
X10715824Y-18350412D02*
X10715824Y-18178984D01*
X10849158Y-18378984D02*
X10830110Y-18369460D01*
X10830110Y-18369460D02*
X10820586Y-18350412D01*
X10820586Y-18350412D02*
X10820586Y-18178984D01*
X11077729Y-18378984D02*
X11077729Y-18178984D01*
X11077729Y-18178984D02*
X11144396Y-18321841D01*
X11144396Y-18321841D02*
X11211062Y-18178984D01*
X11211062Y-18178984D02*
X11211062Y-18378984D01*
X11392015Y-18378984D02*
X11392015Y-18274222D01*
X11392015Y-18274222D02*
X11382491Y-18255174D01*
X11382491Y-18255174D02*
X11363443Y-18245650D01*
X11363443Y-18245650D02*
X11325348Y-18245650D01*
X11325348Y-18245650D02*
X11306301Y-18255174D01*
X11392015Y-18369460D02*
X11372967Y-18378984D01*
X11372967Y-18378984D02*
X11325348Y-18378984D01*
X11325348Y-18378984D02*
X11306301Y-18369460D01*
X11306301Y-18369460D02*
X11296777Y-18350412D01*
X11296777Y-18350412D02*
X11296777Y-18331365D01*
X11296777Y-18331365D02*
X11306301Y-18312317D01*
X11306301Y-18312317D02*
X11325348Y-18302793D01*
X11325348Y-18302793D02*
X11372967Y-18302793D01*
X11372967Y-18302793D02*
X11392015Y-18293270D01*
X11487253Y-18245650D02*
X11487253Y-18445650D01*
X11487253Y-18255174D02*
X11506301Y-18245650D01*
X11506301Y-18245650D02*
X11544396Y-18245650D01*
X11544396Y-18245650D02*
X11563443Y-18255174D01*
X11563443Y-18255174D02*
X11572967Y-18264698D01*
X11572967Y-18264698D02*
X11582491Y-18283746D01*
X11582491Y-18283746D02*
X11582491Y-18340889D01*
X11582491Y-18340889D02*
X11572967Y-18359936D01*
X11572967Y-18359936D02*
X11563443Y-18369460D01*
X11563443Y-18369460D02*
X11544396Y-18378984D01*
X11544396Y-18378984D02*
X11506301Y-18378984D01*
X11506301Y-18378984D02*
X11487253Y-18369460D01*
X11668205Y-18359936D02*
X11677729Y-18369460D01*
X11677729Y-18369460D02*
X11668205Y-18378984D01*
X11668205Y-18378984D02*
X11658682Y-18369460D01*
X11658682Y-18369460D02*
X11668205Y-18359936D01*
X11668205Y-18359936D02*
X11668205Y-18378984D01*
X11668205Y-18255174D02*
X11677729Y-18264698D01*
X11677729Y-18264698D02*
X11668205Y-18274222D01*
X11668205Y-18274222D02*
X11658682Y-18264698D01*
X11658682Y-18264698D02*
X11668205Y-18255174D01*
X11668205Y-18255174D02*
X11668205Y-18274222D01*
D11*
X9986000Y-18682500D02*
X10036000Y-18732500D01*
X10036000Y-18682500D02*
X9986000Y-18732500D01*
D12*
X10334872Y-18598984D02*
X10353920Y-18598984D01*
X10353920Y-18598984D02*
X10372967Y-18608508D01*
X10372967Y-18608508D02*
X10382491Y-18618031D01*
X10382491Y-18618031D02*
X10392015Y-18637079D01*
X10392015Y-18637079D02*
X10401539Y-18675174D01*
X10401539Y-18675174D02*
X10401539Y-18722793D01*
X10401539Y-18722793D02*
X10392015Y-18760889D01*
X10392015Y-18760889D02*
X10382491Y-18779936D01*
X10382491Y-18779936D02*
X10372967Y-18789460D01*
X10372967Y-18789460D02*
X10353920Y-18798984D01*
X10353920Y-18798984D02*
X10334872Y-18798984D01*
X10334872Y-18798984D02*
X10315824Y-18789460D01*
X10315824Y-18789460D02*
X10306301Y-18779936D01*
X10306301Y-18779936D02*
X10296777Y-18760889D01*
X10296777Y-18760889D02*
X10287253Y-18722793D01*
X10287253Y-18722793D02*
X10287253Y-18675174D01*
X10287253Y-18675174D02*
X10296777Y-18637079D01*
X10296777Y-18637079D02*
X10306301Y-18618031D01*
X10306301Y-18618031D02*
X10315824Y-18608508D01*
X10315824Y-18608508D02*
X10334872Y-18598984D01*
X10487253Y-18779936D02*
X10496777Y-18789460D01*
X10496777Y-18789460D02*
X10487253Y-18798984D01*
X10487253Y-18798984D02*
X10477729Y-18789460D01*
X10477729Y-18789460D02*
X10487253Y-18779936D01*
X10487253Y-18779936D02*
X10487253Y-18798984D01*
X10677729Y-18598984D02*
X10582491Y-18598984D01*
X10582491Y-18598984D02*
X10572967Y-18694222D01*
X10572967Y-18694222D02*
X10582491Y-18684698D01*
X10582491Y-18684698D02*
X10601539Y-18675174D01*
X10601539Y-18675174D02*
X10649158Y-18675174D01*
X10649158Y-18675174D02*
X10668205Y-18684698D01*
X10668205Y-18684698D02*
X10677729Y-18694222D01*
X10677729Y-18694222D02*
X10687253Y-18713270D01*
X10687253Y-18713270D02*
X10687253Y-18760889D01*
X10687253Y-18760889D02*
X10677729Y-18779936D01*
X10677729Y-18779936D02*
X10668205Y-18789460D01*
X10668205Y-18789460D02*
X10649158Y-18798984D01*
X10649158Y-18798984D02*
X10601539Y-18798984D01*
X10601539Y-18798984D02*
X10582491Y-18789460D01*
X10582491Y-18789460D02*
X10572967Y-18779936D01*
X10811063Y-18598984D02*
X10830110Y-18598984D01*
X10830110Y-18598984D02*
X10849158Y-18608508D01*
X10849158Y-18608508D02*
X10858682Y-18618031D01*
X10858682Y-18618031D02*
X10868205Y-18637079D01*
X10868205Y-18637079D02*
X10877729Y-18675174D01*
X10877729Y-18675174D02*
X10877729Y-18722793D01*
X10877729Y-18722793D02*
X10868205Y-18760889D01*
X10868205Y-18760889D02*
X10858682Y-18779936D01*
X10858682Y-18779936D02*
X10849158Y-18789460D01*
X10849158Y-18789460D02*
X10830110Y-18798984D01*
X10830110Y-18798984D02*
X10811063Y-18798984D01*
X10811063Y-18798984D02*
X10792015Y-18789460D01*
X10792015Y-18789460D02*
X10782491Y-18779936D01*
X10782491Y-18779936D02*
X10772967Y-18760889D01*
X10772967Y-18760889D02*
X10763444Y-18722793D01*
X10763444Y-18722793D02*
X10763444Y-18675174D01*
X10763444Y-18675174D02*
X10772967Y-18637079D01*
X10772967Y-18637079D02*
X10782491Y-18618031D01*
X10782491Y-18618031D02*
X10792015Y-18608508D01*
X10792015Y-18608508D02*
X10811063Y-18598984D01*
X11001539Y-18598984D02*
X11020586Y-18598984D01*
X11020586Y-18598984D02*
X11039634Y-18608508D01*
X11039634Y-18608508D02*
X11049158Y-18618031D01*
X11049158Y-18618031D02*
X11058682Y-18637079D01*
X11058682Y-18637079D02*
X11068205Y-18675174D01*
X11068205Y-18675174D02*
X11068205Y-18722793D01*
X11068205Y-18722793D02*
X11058682Y-18760889D01*
X11058682Y-18760889D02*
X11049158Y-18779936D01*
X11049158Y-18779936D02*
X11039634Y-18789460D01*
X11039634Y-18789460D02*
X11020586Y-18798984D01*
X11020586Y-18798984D02*
X11001539Y-18798984D01*
X11001539Y-18798984D02*
X10982491Y-18789460D01*
X10982491Y-18789460D02*
X10972967Y-18779936D01*
X10972967Y-18779936D02*
X10963444Y-18760889D01*
X10963444Y-18760889D02*
X10953920Y-18722793D01*
X10953920Y-18722793D02*
X10953920Y-18675174D01*
X10953920Y-18675174D02*
X10963444Y-18637079D01*
X10963444Y-18637079D02*
X10972967Y-18618031D01*
X10972967Y-18618031D02*
X10982491Y-18608508D01*
X10982491Y-18608508D02*
X11001539Y-18598984D01*
X11153920Y-18798984D02*
X11153920Y-18665650D01*
X11153920Y-18684698D02*
X11163444Y-18675174D01*
X11163444Y-18675174D02*
X11182491Y-18665650D01*
X11182491Y-18665650D02*
X11211063Y-18665650D01*
X11211063Y-18665650D02*
X11230110Y-18675174D01*
X11230110Y-18675174D02*
X11239634Y-18694222D01*
X11239634Y-18694222D02*
X11239634Y-18798984D01*
X11239634Y-18694222D02*
X11249158Y-18675174D01*
X11249158Y-18675174D02*
X11268205Y-18665650D01*
X11268205Y-18665650D02*
X11296777Y-18665650D01*
X11296777Y-18665650D02*
X11315824Y-18675174D01*
X11315824Y-18675174D02*
X11325348Y-18694222D01*
X11325348Y-18694222D02*
X11325348Y-18798984D01*
X11420586Y-18798984D02*
X11420586Y-18665650D01*
X11420586Y-18684698D02*
X11430110Y-18675174D01*
X11430110Y-18675174D02*
X11449158Y-18665650D01*
X11449158Y-18665650D02*
X11477729Y-18665650D01*
X11477729Y-18665650D02*
X11496777Y-18675174D01*
X11496777Y-18675174D02*
X11506301Y-18694222D01*
X11506301Y-18694222D02*
X11506301Y-18798984D01*
X11506301Y-18694222D02*
X11515824Y-18675174D01*
X11515824Y-18675174D02*
X11534872Y-18665650D01*
X11534872Y-18665650D02*
X11563443Y-18665650D01*
X11563443Y-18665650D02*
X11582491Y-18675174D01*
X11582491Y-18675174D02*
X11592015Y-18694222D01*
X11592015Y-18694222D02*
X11592015Y-18798984D01*
X11982491Y-18589460D02*
X11811063Y-18846603D01*
X12239634Y-18598984D02*
X12258682Y-18598984D01*
X12258682Y-18598984D02*
X12277729Y-18608508D01*
X12277729Y-18608508D02*
X12287253Y-18618031D01*
X12287253Y-18618031D02*
X12296777Y-18637079D01*
X12296777Y-18637079D02*
X12306301Y-18675174D01*
X12306301Y-18675174D02*
X12306301Y-18722793D01*
X12306301Y-18722793D02*
X12296777Y-18760889D01*
X12296777Y-18760889D02*
X12287253Y-18779936D01*
X12287253Y-18779936D02*
X12277729Y-18789460D01*
X12277729Y-18789460D02*
X12258682Y-18798984D01*
X12258682Y-18798984D02*
X12239634Y-18798984D01*
X12239634Y-18798984D02*
X12220586Y-18789460D01*
X12220586Y-18789460D02*
X12211063Y-18779936D01*
X12211063Y-18779936D02*
X12201539Y-18760889D01*
X12201539Y-18760889D02*
X12192015Y-18722793D01*
X12192015Y-18722793D02*
X12192015Y-18675174D01*
X12192015Y-18675174D02*
X12201539Y-18637079D01*
X12201539Y-18637079D02*
X12211063Y-18618031D01*
X12211063Y-18618031D02*
X12220586Y-18608508D01*
X12220586Y-18608508D02*
X12239634Y-18598984D01*
X12392015Y-18779936D02*
X12401539Y-18789460D01*
X12401539Y-18789460D02*
X12392015Y-18798984D01*
X12392015Y-18798984D02*
X12382491Y-18789460D01*
X12382491Y-18789460D02*
X12392015Y-18779936D01*
X12392015Y-18779936D02*
X12392015Y-18798984D01*
X12525348Y-18598984D02*
X12544396Y-18598984D01*
X12544396Y-18598984D02*
X12563444Y-18608508D01*
X12563444Y-18608508D02*
X12572967Y-18618031D01*
X12572967Y-18618031D02*
X12582491Y-18637079D01*
X12582491Y-18637079D02*
X12592015Y-18675174D01*
X12592015Y-18675174D02*
X12592015Y-18722793D01*
X12592015Y-18722793D02*
X12582491Y-18760889D01*
X12582491Y-18760889D02*
X12572967Y-18779936D01*
X12572967Y-18779936D02*
X12563444Y-18789460D01*
X12563444Y-18789460D02*
X12544396Y-18798984D01*
X12544396Y-18798984D02*
X12525348Y-18798984D01*
X12525348Y-18798984D02*
X12506301Y-18789460D01*
X12506301Y-18789460D02*
X12496777Y-18779936D01*
X12496777Y-18779936D02*
X12487253Y-18760889D01*
X12487253Y-18760889D02*
X12477729Y-18722793D01*
X12477729Y-18722793D02*
X12477729Y-18675174D01*
X12477729Y-18675174D02*
X12487253Y-18637079D01*
X12487253Y-18637079D02*
X12496777Y-18618031D01*
X12496777Y-18618031D02*
X12506301Y-18608508D01*
X12506301Y-18608508D02*
X12525348Y-18598984D01*
X12782491Y-18798984D02*
X12668206Y-18798984D01*
X12725348Y-18798984D02*
X12725348Y-18598984D01*
X12725348Y-18598984D02*
X12706301Y-18627555D01*
X12706301Y-18627555D02*
X12687253Y-18646603D01*
X12687253Y-18646603D02*
X12668206Y-18656127D01*
X12877729Y-18798984D02*
X12915825Y-18798984D01*
X12915825Y-18798984D02*
X12934872Y-18789460D01*
X12934872Y-18789460D02*
X12944396Y-18779936D01*
X12944396Y-18779936D02*
X12963444Y-18751365D01*
X12963444Y-18751365D02*
X12972967Y-18713270D01*
X12972967Y-18713270D02*
X12972967Y-18637079D01*
X12972967Y-18637079D02*
X12963444Y-18618031D01*
X12963444Y-18618031D02*
X12953920Y-18608508D01*
X12953920Y-18608508D02*
X12934872Y-18598984D01*
X12934872Y-18598984D02*
X12896777Y-18598984D01*
X12896777Y-18598984D02*
X12877729Y-18608508D01*
X12877729Y-18608508D02*
X12868206Y-18618031D01*
X12868206Y-18618031D02*
X12858682Y-18637079D01*
X12858682Y-18637079D02*
X12858682Y-18684698D01*
X12858682Y-18684698D02*
X12868206Y-18703746D01*
X12868206Y-18703746D02*
X12877729Y-18713270D01*
X12877729Y-18713270D02*
X12896777Y-18722793D01*
X12896777Y-18722793D02*
X12934872Y-18722793D01*
X12934872Y-18722793D02*
X12953920Y-18713270D01*
X12953920Y-18713270D02*
X12963444Y-18703746D01*
X12963444Y-18703746D02*
X12972967Y-18684698D01*
X13039634Y-18598984D02*
X13172967Y-18598984D01*
X13172967Y-18598984D02*
X13087253Y-18798984D01*
X13239634Y-18598984D02*
X13239634Y-18637079D01*
X13315825Y-18598984D02*
X13315825Y-18637079D01*
X13611063Y-18875174D02*
X13601539Y-18865650D01*
X13601539Y-18865650D02*
X13582491Y-18837079D01*
X13582491Y-18837079D02*
X13572968Y-18818031D01*
X13572968Y-18818031D02*
X13563444Y-18789460D01*
X13563444Y-18789460D02*
X13553920Y-18741841D01*
X13553920Y-18741841D02*
X13553920Y-18703746D01*
X13553920Y-18703746D02*
X13563444Y-18656127D01*
X13563444Y-18656127D02*
X13572968Y-18627555D01*
X13572968Y-18627555D02*
X13582491Y-18608508D01*
X13582491Y-18608508D02*
X13601539Y-18579936D01*
X13601539Y-18579936D02*
X13611063Y-18570412D01*
X13792015Y-18798984D02*
X13677729Y-18798984D01*
X13734872Y-18798984D02*
X13734872Y-18598984D01*
X13734872Y-18598984D02*
X13715825Y-18627555D01*
X13715825Y-18627555D02*
X13696777Y-18646603D01*
X13696777Y-18646603D02*
X13677729Y-18656127D01*
X13868206Y-18618031D02*
X13877729Y-18608508D01*
X13877729Y-18608508D02*
X13896777Y-18598984D01*
X13896777Y-18598984D02*
X13944396Y-18598984D01*
X13944396Y-18598984D02*
X13963444Y-18608508D01*
X13963444Y-18608508D02*
X13972968Y-18618031D01*
X13972968Y-18618031D02*
X13982491Y-18637079D01*
X13982491Y-18637079D02*
X13982491Y-18656127D01*
X13982491Y-18656127D02*
X13972968Y-18684698D01*
X13972968Y-18684698D02*
X13858682Y-18798984D01*
X13858682Y-18798984D02*
X13982491Y-18798984D01*
X14163444Y-18598984D02*
X14068206Y-18598984D01*
X14068206Y-18598984D02*
X14058682Y-18694222D01*
X14058682Y-18694222D02*
X14068206Y-18684698D01*
X14068206Y-18684698D02*
X14087253Y-18675174D01*
X14087253Y-18675174D02*
X14134872Y-18675174D01*
X14134872Y-18675174D02*
X14153920Y-18684698D01*
X14153920Y-18684698D02*
X14163444Y-18694222D01*
X14163444Y-18694222D02*
X14172968Y-18713270D01*
X14172968Y-18713270D02*
X14172968Y-18760889D01*
X14172968Y-18760889D02*
X14163444Y-18779936D01*
X14163444Y-18779936D02*
X14153920Y-18789460D01*
X14153920Y-18789460D02*
X14134872Y-18798984D01*
X14134872Y-18798984D02*
X14087253Y-18798984D01*
X14087253Y-18798984D02*
X14068206Y-18789460D01*
X14068206Y-18789460D02*
X14058682Y-18779936D01*
X14411063Y-18798984D02*
X14411063Y-18598984D01*
X14496777Y-18798984D02*
X14496777Y-18694222D01*
X14496777Y-18694222D02*
X14487253Y-18675174D01*
X14487253Y-18675174D02*
X14468206Y-18665650D01*
X14468206Y-18665650D02*
X14439634Y-18665650D01*
X14439634Y-18665650D02*
X14420587Y-18675174D01*
X14420587Y-18675174D02*
X14411063Y-18684698D01*
X14620587Y-18798984D02*
X14601539Y-18789460D01*
X14601539Y-18789460D02*
X14592015Y-18779936D01*
X14592015Y-18779936D02*
X14582491Y-18760889D01*
X14582491Y-18760889D02*
X14582491Y-18703746D01*
X14582491Y-18703746D02*
X14592015Y-18684698D01*
X14592015Y-18684698D02*
X14601539Y-18675174D01*
X14601539Y-18675174D02*
X14620587Y-18665650D01*
X14620587Y-18665650D02*
X14649158Y-18665650D01*
X14649158Y-18665650D02*
X14668206Y-18675174D01*
X14668206Y-18675174D02*
X14677730Y-18684698D01*
X14677730Y-18684698D02*
X14687253Y-18703746D01*
X14687253Y-18703746D02*
X14687253Y-18760889D01*
X14687253Y-18760889D02*
X14677730Y-18779936D01*
X14677730Y-18779936D02*
X14668206Y-18789460D01*
X14668206Y-18789460D02*
X14649158Y-18798984D01*
X14649158Y-18798984D02*
X14620587Y-18798984D01*
X14801539Y-18798984D02*
X14782491Y-18789460D01*
X14782491Y-18789460D02*
X14772968Y-18770412D01*
X14772968Y-18770412D02*
X14772968Y-18598984D01*
X14953920Y-18789460D02*
X14934872Y-18798984D01*
X14934872Y-18798984D02*
X14896777Y-18798984D01*
X14896777Y-18798984D02*
X14877730Y-18789460D01*
X14877730Y-18789460D02*
X14868206Y-18770412D01*
X14868206Y-18770412D02*
X14868206Y-18694222D01*
X14868206Y-18694222D02*
X14877730Y-18675174D01*
X14877730Y-18675174D02*
X14896777Y-18665650D01*
X14896777Y-18665650D02*
X14934872Y-18665650D01*
X14934872Y-18665650D02*
X14953920Y-18675174D01*
X14953920Y-18675174D02*
X14963444Y-18694222D01*
X14963444Y-18694222D02*
X14963444Y-18713270D01*
X14963444Y-18713270D02*
X14868206Y-18732317D01*
X15039634Y-18789460D02*
X15058682Y-18798984D01*
X15058682Y-18798984D02*
X15096777Y-18798984D01*
X15096777Y-18798984D02*
X15115825Y-18789460D01*
X15115825Y-18789460D02*
X15125349Y-18770412D01*
X15125349Y-18770412D02*
X15125349Y-18760889D01*
X15125349Y-18760889D02*
X15115825Y-18741841D01*
X15115825Y-18741841D02*
X15096777Y-18732317D01*
X15096777Y-18732317D02*
X15068206Y-18732317D01*
X15068206Y-18732317D02*
X15049158Y-18722793D01*
X15049158Y-18722793D02*
X15039634Y-18703746D01*
X15039634Y-18703746D02*
X15039634Y-18694222D01*
X15039634Y-18694222D02*
X15049158Y-18675174D01*
X15049158Y-18675174D02*
X15068206Y-18665650D01*
X15068206Y-18665650D02*
X15096777Y-18665650D01*
X15096777Y-18665650D02*
X15115825Y-18675174D01*
X15192015Y-18875174D02*
X15201539Y-18865650D01*
X15201539Y-18865650D02*
X15220587Y-18837079D01*
X15220587Y-18837079D02*
X15230111Y-18818031D01*
X15230111Y-18818031D02*
X15239634Y-18789460D01*
X15239634Y-18789460D02*
X15249158Y-18741841D01*
X15249158Y-18741841D02*
X15249158Y-18703746D01*
X15249158Y-18703746D02*
X15239634Y-18656127D01*
X15239634Y-18656127D02*
X15230111Y-18627555D01*
X15230111Y-18627555D02*
X15220587Y-18608508D01*
X15220587Y-18608508D02*
X15201539Y-18579936D01*
X15201539Y-18579936D02*
X15192015Y-18570412D01*
D11*
X10036000Y-18971500D02*
G75*
G02*
X9956000Y-18971500I-40000J0D01*
G01*
X9956000Y-18971500D02*
G75*
G02*
X10036000Y-18971500I40000J0D01*
G01*
D12*
X10334872Y-18862984D02*
X10353920Y-18862984D01*
X10353920Y-18862984D02*
X10372967Y-18872508D01*
X10372967Y-18872508D02*
X10382491Y-18882031D01*
X10382491Y-18882031D02*
X10392015Y-18901079D01*
X10392015Y-18901079D02*
X10401539Y-18939174D01*
X10401539Y-18939174D02*
X10401539Y-18986793D01*
X10401539Y-18986793D02*
X10392015Y-19024889D01*
X10392015Y-19024889D02*
X10382491Y-19043936D01*
X10382491Y-19043936D02*
X10372967Y-19053460D01*
X10372967Y-19053460D02*
X10353920Y-19062984D01*
X10353920Y-19062984D02*
X10334872Y-19062984D01*
X10334872Y-19062984D02*
X10315824Y-19053460D01*
X10315824Y-19053460D02*
X10306301Y-19043936D01*
X10306301Y-19043936D02*
X10296777Y-19024889D01*
X10296777Y-19024889D02*
X10287253Y-18986793D01*
X10287253Y-18986793D02*
X10287253Y-18939174D01*
X10287253Y-18939174D02*
X10296777Y-18901079D01*
X10296777Y-18901079D02*
X10306301Y-18882031D01*
X10306301Y-18882031D02*
X10315824Y-18872508D01*
X10315824Y-18872508D02*
X10334872Y-18862984D01*
X10487253Y-19043936D02*
X10496777Y-19053460D01*
X10496777Y-19053460D02*
X10487253Y-19062984D01*
X10487253Y-19062984D02*
X10477729Y-19053460D01*
X10477729Y-19053460D02*
X10487253Y-19043936D01*
X10487253Y-19043936D02*
X10487253Y-19062984D01*
X10611063Y-18948698D02*
X10592015Y-18939174D01*
X10592015Y-18939174D02*
X10582491Y-18929650D01*
X10582491Y-18929650D02*
X10572967Y-18910603D01*
X10572967Y-18910603D02*
X10572967Y-18901079D01*
X10572967Y-18901079D02*
X10582491Y-18882031D01*
X10582491Y-18882031D02*
X10592015Y-18872508D01*
X10592015Y-18872508D02*
X10611063Y-18862984D01*
X10611063Y-18862984D02*
X10649158Y-18862984D01*
X10649158Y-18862984D02*
X10668205Y-18872508D01*
X10668205Y-18872508D02*
X10677729Y-18882031D01*
X10677729Y-18882031D02*
X10687253Y-18901079D01*
X10687253Y-18901079D02*
X10687253Y-18910603D01*
X10687253Y-18910603D02*
X10677729Y-18929650D01*
X10677729Y-18929650D02*
X10668205Y-18939174D01*
X10668205Y-18939174D02*
X10649158Y-18948698D01*
X10649158Y-18948698D02*
X10611063Y-18948698D01*
X10611063Y-18948698D02*
X10592015Y-18958222D01*
X10592015Y-18958222D02*
X10582491Y-18967746D01*
X10582491Y-18967746D02*
X10572967Y-18986793D01*
X10572967Y-18986793D02*
X10572967Y-19024889D01*
X10572967Y-19024889D02*
X10582491Y-19043936D01*
X10582491Y-19043936D02*
X10592015Y-19053460D01*
X10592015Y-19053460D02*
X10611063Y-19062984D01*
X10611063Y-19062984D02*
X10649158Y-19062984D01*
X10649158Y-19062984D02*
X10668205Y-19053460D01*
X10668205Y-19053460D02*
X10677729Y-19043936D01*
X10677729Y-19043936D02*
X10687253Y-19024889D01*
X10687253Y-19024889D02*
X10687253Y-18986793D01*
X10687253Y-18986793D02*
X10677729Y-18967746D01*
X10677729Y-18967746D02*
X10668205Y-18958222D01*
X10668205Y-18958222D02*
X10649158Y-18948698D01*
X10811063Y-18862984D02*
X10830110Y-18862984D01*
X10830110Y-18862984D02*
X10849158Y-18872508D01*
X10849158Y-18872508D02*
X10858682Y-18882031D01*
X10858682Y-18882031D02*
X10868205Y-18901079D01*
X10868205Y-18901079D02*
X10877729Y-18939174D01*
X10877729Y-18939174D02*
X10877729Y-18986793D01*
X10877729Y-18986793D02*
X10868205Y-19024889D01*
X10868205Y-19024889D02*
X10858682Y-19043936D01*
X10858682Y-19043936D02*
X10849158Y-19053460D01*
X10849158Y-19053460D02*
X10830110Y-19062984D01*
X10830110Y-19062984D02*
X10811063Y-19062984D01*
X10811063Y-19062984D02*
X10792015Y-19053460D01*
X10792015Y-19053460D02*
X10782491Y-19043936D01*
X10782491Y-19043936D02*
X10772967Y-19024889D01*
X10772967Y-19024889D02*
X10763444Y-18986793D01*
X10763444Y-18986793D02*
X10763444Y-18939174D01*
X10763444Y-18939174D02*
X10772967Y-18901079D01*
X10772967Y-18901079D02*
X10782491Y-18882031D01*
X10782491Y-18882031D02*
X10792015Y-18872508D01*
X10792015Y-18872508D02*
X10811063Y-18862984D01*
X11001539Y-18862984D02*
X11020586Y-18862984D01*
X11020586Y-18862984D02*
X11039634Y-18872508D01*
X11039634Y-18872508D02*
X11049158Y-18882031D01*
X11049158Y-18882031D02*
X11058682Y-18901079D01*
X11058682Y-18901079D02*
X11068205Y-18939174D01*
X11068205Y-18939174D02*
X11068205Y-18986793D01*
X11068205Y-18986793D02*
X11058682Y-19024889D01*
X11058682Y-19024889D02*
X11049158Y-19043936D01*
X11049158Y-19043936D02*
X11039634Y-19053460D01*
X11039634Y-19053460D02*
X11020586Y-19062984D01*
X11020586Y-19062984D02*
X11001539Y-19062984D01*
X11001539Y-19062984D02*
X10982491Y-19053460D01*
X10982491Y-19053460D02*
X10972967Y-19043936D01*
X10972967Y-19043936D02*
X10963444Y-19024889D01*
X10963444Y-19024889D02*
X10953920Y-18986793D01*
X10953920Y-18986793D02*
X10953920Y-18939174D01*
X10953920Y-18939174D02*
X10963444Y-18901079D01*
X10963444Y-18901079D02*
X10972967Y-18882031D01*
X10972967Y-18882031D02*
X10982491Y-18872508D01*
X10982491Y-18872508D02*
X11001539Y-18862984D01*
X11153920Y-19062984D02*
X11153920Y-18929650D01*
X11153920Y-18948698D02*
X11163444Y-18939174D01*
X11163444Y-18939174D02*
X11182491Y-18929650D01*
X11182491Y-18929650D02*
X11211063Y-18929650D01*
X11211063Y-18929650D02*
X11230110Y-18939174D01*
X11230110Y-18939174D02*
X11239634Y-18958222D01*
X11239634Y-18958222D02*
X11239634Y-19062984D01*
X11239634Y-18958222D02*
X11249158Y-18939174D01*
X11249158Y-18939174D02*
X11268205Y-18929650D01*
X11268205Y-18929650D02*
X11296777Y-18929650D01*
X11296777Y-18929650D02*
X11315824Y-18939174D01*
X11315824Y-18939174D02*
X11325348Y-18958222D01*
X11325348Y-18958222D02*
X11325348Y-19062984D01*
X11420586Y-19062984D02*
X11420586Y-18929650D01*
X11420586Y-18948698D02*
X11430110Y-18939174D01*
X11430110Y-18939174D02*
X11449158Y-18929650D01*
X11449158Y-18929650D02*
X11477729Y-18929650D01*
X11477729Y-18929650D02*
X11496777Y-18939174D01*
X11496777Y-18939174D02*
X11506301Y-18958222D01*
X11506301Y-18958222D02*
X11506301Y-19062984D01*
X11506301Y-18958222D02*
X11515824Y-18939174D01*
X11515824Y-18939174D02*
X11534872Y-18929650D01*
X11534872Y-18929650D02*
X11563443Y-18929650D01*
X11563443Y-18929650D02*
X11582491Y-18939174D01*
X11582491Y-18939174D02*
X11592015Y-18958222D01*
X11592015Y-18958222D02*
X11592015Y-19062984D01*
X11982491Y-18853460D02*
X11811063Y-19110603D01*
X12239634Y-18862984D02*
X12258682Y-18862984D01*
X12258682Y-18862984D02*
X12277729Y-18872508D01*
X12277729Y-18872508D02*
X12287253Y-18882031D01*
X12287253Y-18882031D02*
X12296777Y-18901079D01*
X12296777Y-18901079D02*
X12306301Y-18939174D01*
X12306301Y-18939174D02*
X12306301Y-18986793D01*
X12306301Y-18986793D02*
X12296777Y-19024889D01*
X12296777Y-19024889D02*
X12287253Y-19043936D01*
X12287253Y-19043936D02*
X12277729Y-19053460D01*
X12277729Y-19053460D02*
X12258682Y-19062984D01*
X12258682Y-19062984D02*
X12239634Y-19062984D01*
X12239634Y-19062984D02*
X12220586Y-19053460D01*
X12220586Y-19053460D02*
X12211063Y-19043936D01*
X12211063Y-19043936D02*
X12201539Y-19024889D01*
X12201539Y-19024889D02*
X12192015Y-18986793D01*
X12192015Y-18986793D02*
X12192015Y-18939174D01*
X12192015Y-18939174D02*
X12201539Y-18901079D01*
X12201539Y-18901079D02*
X12211063Y-18882031D01*
X12211063Y-18882031D02*
X12220586Y-18872508D01*
X12220586Y-18872508D02*
X12239634Y-18862984D01*
X12392015Y-19043936D02*
X12401539Y-19053460D01*
X12401539Y-19053460D02*
X12392015Y-19062984D01*
X12392015Y-19062984D02*
X12382491Y-19053460D01*
X12382491Y-19053460D02*
X12392015Y-19043936D01*
X12392015Y-19043936D02*
X12392015Y-19062984D01*
X12525348Y-18862984D02*
X12544396Y-18862984D01*
X12544396Y-18862984D02*
X12563444Y-18872508D01*
X12563444Y-18872508D02*
X12572967Y-18882031D01*
X12572967Y-18882031D02*
X12582491Y-18901079D01*
X12582491Y-18901079D02*
X12592015Y-18939174D01*
X12592015Y-18939174D02*
X12592015Y-18986793D01*
X12592015Y-18986793D02*
X12582491Y-19024889D01*
X12582491Y-19024889D02*
X12572967Y-19043936D01*
X12572967Y-19043936D02*
X12563444Y-19053460D01*
X12563444Y-19053460D02*
X12544396Y-19062984D01*
X12544396Y-19062984D02*
X12525348Y-19062984D01*
X12525348Y-19062984D02*
X12506301Y-19053460D01*
X12506301Y-19053460D02*
X12496777Y-19043936D01*
X12496777Y-19043936D02*
X12487253Y-19024889D01*
X12487253Y-19024889D02*
X12477729Y-18986793D01*
X12477729Y-18986793D02*
X12477729Y-18939174D01*
X12477729Y-18939174D02*
X12487253Y-18901079D01*
X12487253Y-18901079D02*
X12496777Y-18882031D01*
X12496777Y-18882031D02*
X12506301Y-18872508D01*
X12506301Y-18872508D02*
X12525348Y-18862984D01*
X12658682Y-18862984D02*
X12782491Y-18862984D01*
X12782491Y-18862984D02*
X12715825Y-18939174D01*
X12715825Y-18939174D02*
X12744396Y-18939174D01*
X12744396Y-18939174D02*
X12763444Y-18948698D01*
X12763444Y-18948698D02*
X12772967Y-18958222D01*
X12772967Y-18958222D02*
X12782491Y-18977270D01*
X12782491Y-18977270D02*
X12782491Y-19024889D01*
X12782491Y-19024889D02*
X12772967Y-19043936D01*
X12772967Y-19043936D02*
X12763444Y-19053460D01*
X12763444Y-19053460D02*
X12744396Y-19062984D01*
X12744396Y-19062984D02*
X12687253Y-19062984D01*
X12687253Y-19062984D02*
X12668206Y-19053460D01*
X12668206Y-19053460D02*
X12658682Y-19043936D01*
X12972967Y-19062984D02*
X12858682Y-19062984D01*
X12915825Y-19062984D02*
X12915825Y-18862984D01*
X12915825Y-18862984D02*
X12896777Y-18891555D01*
X12896777Y-18891555D02*
X12877729Y-18910603D01*
X12877729Y-18910603D02*
X12858682Y-18920127D01*
X13153920Y-18862984D02*
X13058682Y-18862984D01*
X13058682Y-18862984D02*
X13049158Y-18958222D01*
X13049158Y-18958222D02*
X13058682Y-18948698D01*
X13058682Y-18948698D02*
X13077729Y-18939174D01*
X13077729Y-18939174D02*
X13125348Y-18939174D01*
X13125348Y-18939174D02*
X13144396Y-18948698D01*
X13144396Y-18948698D02*
X13153920Y-18958222D01*
X13153920Y-18958222D02*
X13163444Y-18977270D01*
X13163444Y-18977270D02*
X13163444Y-19024889D01*
X13163444Y-19024889D02*
X13153920Y-19043936D01*
X13153920Y-19043936D02*
X13144396Y-19053460D01*
X13144396Y-19053460D02*
X13125348Y-19062984D01*
X13125348Y-19062984D02*
X13077729Y-19062984D01*
X13077729Y-19062984D02*
X13058682Y-19053460D01*
X13058682Y-19053460D02*
X13049158Y-19043936D01*
X13239634Y-18862984D02*
X13239634Y-18901079D01*
X13315825Y-18862984D02*
X13315825Y-18901079D01*
X13611063Y-19139174D02*
X13601539Y-19129650D01*
X13601539Y-19129650D02*
X13582491Y-19101079D01*
X13582491Y-19101079D02*
X13572968Y-19082031D01*
X13572968Y-19082031D02*
X13563444Y-19053460D01*
X13563444Y-19053460D02*
X13553920Y-19005841D01*
X13553920Y-19005841D02*
X13553920Y-18967746D01*
X13553920Y-18967746D02*
X13563444Y-18920127D01*
X13563444Y-18920127D02*
X13572968Y-18891555D01*
X13572968Y-18891555D02*
X13582491Y-18872508D01*
X13582491Y-18872508D02*
X13601539Y-18843936D01*
X13601539Y-18843936D02*
X13611063Y-18834412D01*
X13668206Y-18862984D02*
X13792015Y-18862984D01*
X13792015Y-18862984D02*
X13725348Y-18939174D01*
X13725348Y-18939174D02*
X13753920Y-18939174D01*
X13753920Y-18939174D02*
X13772968Y-18948698D01*
X13772968Y-18948698D02*
X13782491Y-18958222D01*
X13782491Y-18958222D02*
X13792015Y-18977270D01*
X13792015Y-18977270D02*
X13792015Y-19024889D01*
X13792015Y-19024889D02*
X13782491Y-19043936D01*
X13782491Y-19043936D02*
X13772968Y-19053460D01*
X13772968Y-19053460D02*
X13753920Y-19062984D01*
X13753920Y-19062984D02*
X13696777Y-19062984D01*
X13696777Y-19062984D02*
X13677729Y-19053460D01*
X13677729Y-19053460D02*
X13668206Y-19043936D01*
X14030110Y-19062984D02*
X14030110Y-18862984D01*
X14115825Y-19062984D02*
X14115825Y-18958222D01*
X14115825Y-18958222D02*
X14106301Y-18939174D01*
X14106301Y-18939174D02*
X14087253Y-18929650D01*
X14087253Y-18929650D02*
X14058682Y-18929650D01*
X14058682Y-18929650D02*
X14039634Y-18939174D01*
X14039634Y-18939174D02*
X14030110Y-18948698D01*
X14239634Y-19062984D02*
X14220587Y-19053460D01*
X14220587Y-19053460D02*
X14211063Y-19043936D01*
X14211063Y-19043936D02*
X14201539Y-19024889D01*
X14201539Y-19024889D02*
X14201539Y-18967746D01*
X14201539Y-18967746D02*
X14211063Y-18948698D01*
X14211063Y-18948698D02*
X14220587Y-18939174D01*
X14220587Y-18939174D02*
X14239634Y-18929650D01*
X14239634Y-18929650D02*
X14268206Y-18929650D01*
X14268206Y-18929650D02*
X14287253Y-18939174D01*
X14287253Y-18939174D02*
X14296777Y-18948698D01*
X14296777Y-18948698D02*
X14306301Y-18967746D01*
X14306301Y-18967746D02*
X14306301Y-19024889D01*
X14306301Y-19024889D02*
X14296777Y-19043936D01*
X14296777Y-19043936D02*
X14287253Y-19053460D01*
X14287253Y-19053460D02*
X14268206Y-19062984D01*
X14268206Y-19062984D02*
X14239634Y-19062984D01*
X14420587Y-19062984D02*
X14401539Y-19053460D01*
X14401539Y-19053460D02*
X14392015Y-19034412D01*
X14392015Y-19034412D02*
X14392015Y-18862984D01*
X14572968Y-19053460D02*
X14553920Y-19062984D01*
X14553920Y-19062984D02*
X14515825Y-19062984D01*
X14515825Y-19062984D02*
X14496777Y-19053460D01*
X14496777Y-19053460D02*
X14487253Y-19034412D01*
X14487253Y-19034412D02*
X14487253Y-18958222D01*
X14487253Y-18958222D02*
X14496777Y-18939174D01*
X14496777Y-18939174D02*
X14515825Y-18929650D01*
X14515825Y-18929650D02*
X14553920Y-18929650D01*
X14553920Y-18929650D02*
X14572968Y-18939174D01*
X14572968Y-18939174D02*
X14582491Y-18958222D01*
X14582491Y-18958222D02*
X14582491Y-18977270D01*
X14582491Y-18977270D02*
X14487253Y-18996317D01*
X14658682Y-19053460D02*
X14677730Y-19062984D01*
X14677730Y-19062984D02*
X14715825Y-19062984D01*
X14715825Y-19062984D02*
X14734872Y-19053460D01*
X14734872Y-19053460D02*
X14744396Y-19034412D01*
X14744396Y-19034412D02*
X14744396Y-19024889D01*
X14744396Y-19024889D02*
X14734872Y-19005841D01*
X14734872Y-19005841D02*
X14715825Y-18996317D01*
X14715825Y-18996317D02*
X14687253Y-18996317D01*
X14687253Y-18996317D02*
X14668206Y-18986793D01*
X14668206Y-18986793D02*
X14658682Y-18967746D01*
X14658682Y-18967746D02*
X14658682Y-18958222D01*
X14658682Y-18958222D02*
X14668206Y-18939174D01*
X14668206Y-18939174D02*
X14687253Y-18929650D01*
X14687253Y-18929650D02*
X14715825Y-18929650D01*
X14715825Y-18929650D02*
X14734872Y-18939174D01*
X14811063Y-19139174D02*
X14820587Y-19129650D01*
X14820587Y-19129650D02*
X14839634Y-19101079D01*
X14839634Y-19101079D02*
X14849158Y-19082031D01*
X14849158Y-19082031D02*
X14858682Y-19053460D01*
X14858682Y-19053460D02*
X14868206Y-19005841D01*
X14868206Y-19005841D02*
X14868206Y-18967746D01*
X14868206Y-18967746D02*
X14858682Y-18920127D01*
X14858682Y-18920127D02*
X14849158Y-18891555D01*
X14849158Y-18891555D02*
X14839634Y-18872508D01*
X14839634Y-18872508D02*
X14820587Y-18843936D01*
X14820587Y-18843936D02*
X14811063Y-18834412D01*
D11*
X9986000Y-19185500D02*
X9986000Y-19285500D01*
X9936000Y-19235500D02*
X10036000Y-19235500D01*
D12*
X10401539Y-19326984D02*
X10287253Y-19326984D01*
X10344396Y-19326984D02*
X10344396Y-19126984D01*
X10344396Y-19126984D02*
X10325348Y-19155555D01*
X10325348Y-19155555D02*
X10306301Y-19174603D01*
X10306301Y-19174603D02*
X10287253Y-19184127D01*
X10487253Y-19307936D02*
X10496777Y-19317460D01*
X10496777Y-19317460D02*
X10487253Y-19326984D01*
X10487253Y-19326984D02*
X10477729Y-19317460D01*
X10477729Y-19317460D02*
X10487253Y-19307936D01*
X10487253Y-19307936D02*
X10487253Y-19326984D01*
X10620586Y-19126984D02*
X10639634Y-19126984D01*
X10639634Y-19126984D02*
X10658682Y-19136508D01*
X10658682Y-19136508D02*
X10668205Y-19146031D01*
X10668205Y-19146031D02*
X10677729Y-19165079D01*
X10677729Y-19165079D02*
X10687253Y-19203174D01*
X10687253Y-19203174D02*
X10687253Y-19250793D01*
X10687253Y-19250793D02*
X10677729Y-19288889D01*
X10677729Y-19288889D02*
X10668205Y-19307936D01*
X10668205Y-19307936D02*
X10658682Y-19317460D01*
X10658682Y-19317460D02*
X10639634Y-19326984D01*
X10639634Y-19326984D02*
X10620586Y-19326984D01*
X10620586Y-19326984D02*
X10601539Y-19317460D01*
X10601539Y-19317460D02*
X10592015Y-19307936D01*
X10592015Y-19307936D02*
X10582491Y-19288889D01*
X10582491Y-19288889D02*
X10572967Y-19250793D01*
X10572967Y-19250793D02*
X10572967Y-19203174D01*
X10572967Y-19203174D02*
X10582491Y-19165079D01*
X10582491Y-19165079D02*
X10592015Y-19146031D01*
X10592015Y-19146031D02*
X10601539Y-19136508D01*
X10601539Y-19136508D02*
X10620586Y-19126984D01*
X10811063Y-19126984D02*
X10830110Y-19126984D01*
X10830110Y-19126984D02*
X10849158Y-19136508D01*
X10849158Y-19136508D02*
X10858682Y-19146031D01*
X10858682Y-19146031D02*
X10868205Y-19165079D01*
X10868205Y-19165079D02*
X10877729Y-19203174D01*
X10877729Y-19203174D02*
X10877729Y-19250793D01*
X10877729Y-19250793D02*
X10868205Y-19288889D01*
X10868205Y-19288889D02*
X10858682Y-19307936D01*
X10858682Y-19307936D02*
X10849158Y-19317460D01*
X10849158Y-19317460D02*
X10830110Y-19326984D01*
X10830110Y-19326984D02*
X10811063Y-19326984D01*
X10811063Y-19326984D02*
X10792015Y-19317460D01*
X10792015Y-19317460D02*
X10782491Y-19307936D01*
X10782491Y-19307936D02*
X10772967Y-19288889D01*
X10772967Y-19288889D02*
X10763444Y-19250793D01*
X10763444Y-19250793D02*
X10763444Y-19203174D01*
X10763444Y-19203174D02*
X10772967Y-19165079D01*
X10772967Y-19165079D02*
X10782491Y-19146031D01*
X10782491Y-19146031D02*
X10792015Y-19136508D01*
X10792015Y-19136508D02*
X10811063Y-19126984D01*
X11001539Y-19126984D02*
X11020586Y-19126984D01*
X11020586Y-19126984D02*
X11039634Y-19136508D01*
X11039634Y-19136508D02*
X11049158Y-19146031D01*
X11049158Y-19146031D02*
X11058682Y-19165079D01*
X11058682Y-19165079D02*
X11068205Y-19203174D01*
X11068205Y-19203174D02*
X11068205Y-19250793D01*
X11068205Y-19250793D02*
X11058682Y-19288889D01*
X11058682Y-19288889D02*
X11049158Y-19307936D01*
X11049158Y-19307936D02*
X11039634Y-19317460D01*
X11039634Y-19317460D02*
X11020586Y-19326984D01*
X11020586Y-19326984D02*
X11001539Y-19326984D01*
X11001539Y-19326984D02*
X10982491Y-19317460D01*
X10982491Y-19317460D02*
X10972967Y-19307936D01*
X10972967Y-19307936D02*
X10963444Y-19288889D01*
X10963444Y-19288889D02*
X10953920Y-19250793D01*
X10953920Y-19250793D02*
X10953920Y-19203174D01*
X10953920Y-19203174D02*
X10963444Y-19165079D01*
X10963444Y-19165079D02*
X10972967Y-19146031D01*
X10972967Y-19146031D02*
X10982491Y-19136508D01*
X10982491Y-19136508D02*
X11001539Y-19126984D01*
X11153920Y-19326984D02*
X11153920Y-19193650D01*
X11153920Y-19212698D02*
X11163444Y-19203174D01*
X11163444Y-19203174D02*
X11182491Y-19193650D01*
X11182491Y-19193650D02*
X11211063Y-19193650D01*
X11211063Y-19193650D02*
X11230110Y-19203174D01*
X11230110Y-19203174D02*
X11239634Y-19222222D01*
X11239634Y-19222222D02*
X11239634Y-19326984D01*
X11239634Y-19222222D02*
X11249158Y-19203174D01*
X11249158Y-19203174D02*
X11268205Y-19193650D01*
X11268205Y-19193650D02*
X11296777Y-19193650D01*
X11296777Y-19193650D02*
X11315824Y-19203174D01*
X11315824Y-19203174D02*
X11325348Y-19222222D01*
X11325348Y-19222222D02*
X11325348Y-19326984D01*
X11420586Y-19326984D02*
X11420586Y-19193650D01*
X11420586Y-19212698D02*
X11430110Y-19203174D01*
X11430110Y-19203174D02*
X11449158Y-19193650D01*
X11449158Y-19193650D02*
X11477729Y-19193650D01*
X11477729Y-19193650D02*
X11496777Y-19203174D01*
X11496777Y-19203174D02*
X11506301Y-19222222D01*
X11506301Y-19222222D02*
X11506301Y-19326984D01*
X11506301Y-19222222D02*
X11515824Y-19203174D01*
X11515824Y-19203174D02*
X11534872Y-19193650D01*
X11534872Y-19193650D02*
X11563443Y-19193650D01*
X11563443Y-19193650D02*
X11582491Y-19203174D01*
X11582491Y-19203174D02*
X11592015Y-19222222D01*
X11592015Y-19222222D02*
X11592015Y-19326984D01*
X11982491Y-19117460D02*
X11811063Y-19374603D01*
X12239634Y-19126984D02*
X12258682Y-19126984D01*
X12258682Y-19126984D02*
X12277729Y-19136508D01*
X12277729Y-19136508D02*
X12287253Y-19146031D01*
X12287253Y-19146031D02*
X12296777Y-19165079D01*
X12296777Y-19165079D02*
X12306301Y-19203174D01*
X12306301Y-19203174D02*
X12306301Y-19250793D01*
X12306301Y-19250793D02*
X12296777Y-19288889D01*
X12296777Y-19288889D02*
X12287253Y-19307936D01*
X12287253Y-19307936D02*
X12277729Y-19317460D01*
X12277729Y-19317460D02*
X12258682Y-19326984D01*
X12258682Y-19326984D02*
X12239634Y-19326984D01*
X12239634Y-19326984D02*
X12220586Y-19317460D01*
X12220586Y-19317460D02*
X12211063Y-19307936D01*
X12211063Y-19307936D02*
X12201539Y-19288889D01*
X12201539Y-19288889D02*
X12192015Y-19250793D01*
X12192015Y-19250793D02*
X12192015Y-19203174D01*
X12192015Y-19203174D02*
X12201539Y-19165079D01*
X12201539Y-19165079D02*
X12211063Y-19146031D01*
X12211063Y-19146031D02*
X12220586Y-19136508D01*
X12220586Y-19136508D02*
X12239634Y-19126984D01*
X12392015Y-19307936D02*
X12401539Y-19317460D01*
X12401539Y-19317460D02*
X12392015Y-19326984D01*
X12392015Y-19326984D02*
X12382491Y-19317460D01*
X12382491Y-19317460D02*
X12392015Y-19307936D01*
X12392015Y-19307936D02*
X12392015Y-19326984D01*
X12525348Y-19126984D02*
X12544396Y-19126984D01*
X12544396Y-19126984D02*
X12563444Y-19136508D01*
X12563444Y-19136508D02*
X12572967Y-19146031D01*
X12572967Y-19146031D02*
X12582491Y-19165079D01*
X12582491Y-19165079D02*
X12592015Y-19203174D01*
X12592015Y-19203174D02*
X12592015Y-19250793D01*
X12592015Y-19250793D02*
X12582491Y-19288889D01*
X12582491Y-19288889D02*
X12572967Y-19307936D01*
X12572967Y-19307936D02*
X12563444Y-19317460D01*
X12563444Y-19317460D02*
X12544396Y-19326984D01*
X12544396Y-19326984D02*
X12525348Y-19326984D01*
X12525348Y-19326984D02*
X12506301Y-19317460D01*
X12506301Y-19317460D02*
X12496777Y-19307936D01*
X12496777Y-19307936D02*
X12487253Y-19288889D01*
X12487253Y-19288889D02*
X12477729Y-19250793D01*
X12477729Y-19250793D02*
X12477729Y-19203174D01*
X12477729Y-19203174D02*
X12487253Y-19165079D01*
X12487253Y-19165079D02*
X12496777Y-19146031D01*
X12496777Y-19146031D02*
X12506301Y-19136508D01*
X12506301Y-19136508D02*
X12525348Y-19126984D01*
X12658682Y-19126984D02*
X12782491Y-19126984D01*
X12782491Y-19126984D02*
X12715825Y-19203174D01*
X12715825Y-19203174D02*
X12744396Y-19203174D01*
X12744396Y-19203174D02*
X12763444Y-19212698D01*
X12763444Y-19212698D02*
X12772967Y-19222222D01*
X12772967Y-19222222D02*
X12782491Y-19241270D01*
X12782491Y-19241270D02*
X12782491Y-19288889D01*
X12782491Y-19288889D02*
X12772967Y-19307936D01*
X12772967Y-19307936D02*
X12763444Y-19317460D01*
X12763444Y-19317460D02*
X12744396Y-19326984D01*
X12744396Y-19326984D02*
X12687253Y-19326984D01*
X12687253Y-19326984D02*
X12668206Y-19317460D01*
X12668206Y-19317460D02*
X12658682Y-19307936D01*
X12877729Y-19326984D02*
X12915825Y-19326984D01*
X12915825Y-19326984D02*
X12934872Y-19317460D01*
X12934872Y-19317460D02*
X12944396Y-19307936D01*
X12944396Y-19307936D02*
X12963444Y-19279365D01*
X12963444Y-19279365D02*
X12972967Y-19241270D01*
X12972967Y-19241270D02*
X12972967Y-19165079D01*
X12972967Y-19165079D02*
X12963444Y-19146031D01*
X12963444Y-19146031D02*
X12953920Y-19136508D01*
X12953920Y-19136508D02*
X12934872Y-19126984D01*
X12934872Y-19126984D02*
X12896777Y-19126984D01*
X12896777Y-19126984D02*
X12877729Y-19136508D01*
X12877729Y-19136508D02*
X12868206Y-19146031D01*
X12868206Y-19146031D02*
X12858682Y-19165079D01*
X12858682Y-19165079D02*
X12858682Y-19212698D01*
X12858682Y-19212698D02*
X12868206Y-19231746D01*
X12868206Y-19231746D02*
X12877729Y-19241270D01*
X12877729Y-19241270D02*
X12896777Y-19250793D01*
X12896777Y-19250793D02*
X12934872Y-19250793D01*
X12934872Y-19250793D02*
X12953920Y-19241270D01*
X12953920Y-19241270D02*
X12963444Y-19231746D01*
X12963444Y-19231746D02*
X12972967Y-19212698D01*
X13144396Y-19193650D02*
X13144396Y-19326984D01*
X13096777Y-19117460D02*
X13049158Y-19260317D01*
X13049158Y-19260317D02*
X13172967Y-19260317D01*
X13239634Y-19126984D02*
X13239634Y-19165079D01*
X13315825Y-19126984D02*
X13315825Y-19165079D01*
X13611063Y-19403174D02*
X13601539Y-19393650D01*
X13601539Y-19393650D02*
X13582491Y-19365079D01*
X13582491Y-19365079D02*
X13572968Y-19346031D01*
X13572968Y-19346031D02*
X13563444Y-19317460D01*
X13563444Y-19317460D02*
X13553920Y-19269841D01*
X13553920Y-19269841D02*
X13553920Y-19231746D01*
X13553920Y-19231746D02*
X13563444Y-19184127D01*
X13563444Y-19184127D02*
X13572968Y-19155555D01*
X13572968Y-19155555D02*
X13582491Y-19136508D01*
X13582491Y-19136508D02*
X13601539Y-19107936D01*
X13601539Y-19107936D02*
X13611063Y-19098412D01*
X13668206Y-19126984D02*
X13792015Y-19126984D01*
X13792015Y-19126984D02*
X13725348Y-19203174D01*
X13725348Y-19203174D02*
X13753920Y-19203174D01*
X13753920Y-19203174D02*
X13772968Y-19212698D01*
X13772968Y-19212698D02*
X13782491Y-19222222D01*
X13782491Y-19222222D02*
X13792015Y-19241270D01*
X13792015Y-19241270D02*
X13792015Y-19288889D01*
X13792015Y-19288889D02*
X13782491Y-19307936D01*
X13782491Y-19307936D02*
X13772968Y-19317460D01*
X13772968Y-19317460D02*
X13753920Y-19326984D01*
X13753920Y-19326984D02*
X13696777Y-19326984D01*
X13696777Y-19326984D02*
X13677729Y-19317460D01*
X13677729Y-19317460D02*
X13668206Y-19307936D01*
X13963444Y-19193650D02*
X13963444Y-19326984D01*
X13915825Y-19117460D02*
X13868206Y-19260317D01*
X13868206Y-19260317D02*
X13992015Y-19260317D01*
X14220587Y-19326984D02*
X14220587Y-19126984D01*
X14306301Y-19326984D02*
X14306301Y-19222222D01*
X14306301Y-19222222D02*
X14296777Y-19203174D01*
X14296777Y-19203174D02*
X14277730Y-19193650D01*
X14277730Y-19193650D02*
X14249158Y-19193650D01*
X14249158Y-19193650D02*
X14230110Y-19203174D01*
X14230110Y-19203174D02*
X14220587Y-19212698D01*
X14430110Y-19326984D02*
X14411063Y-19317460D01*
X14411063Y-19317460D02*
X14401539Y-19307936D01*
X14401539Y-19307936D02*
X14392015Y-19288889D01*
X14392015Y-19288889D02*
X14392015Y-19231746D01*
X14392015Y-19231746D02*
X14401539Y-19212698D01*
X14401539Y-19212698D02*
X14411063Y-19203174D01*
X14411063Y-19203174D02*
X14430110Y-19193650D01*
X14430110Y-19193650D02*
X14458682Y-19193650D01*
X14458682Y-19193650D02*
X14477730Y-19203174D01*
X14477730Y-19203174D02*
X14487253Y-19212698D01*
X14487253Y-19212698D02*
X14496777Y-19231746D01*
X14496777Y-19231746D02*
X14496777Y-19288889D01*
X14496777Y-19288889D02*
X14487253Y-19307936D01*
X14487253Y-19307936D02*
X14477730Y-19317460D01*
X14477730Y-19317460D02*
X14458682Y-19326984D01*
X14458682Y-19326984D02*
X14430110Y-19326984D01*
X14611063Y-19326984D02*
X14592015Y-19317460D01*
X14592015Y-19317460D02*
X14582491Y-19298412D01*
X14582491Y-19298412D02*
X14582491Y-19126984D01*
X14763444Y-19317460D02*
X14744396Y-19326984D01*
X14744396Y-19326984D02*
X14706301Y-19326984D01*
X14706301Y-19326984D02*
X14687253Y-19317460D01*
X14687253Y-19317460D02*
X14677730Y-19298412D01*
X14677730Y-19298412D02*
X14677730Y-19222222D01*
X14677730Y-19222222D02*
X14687253Y-19203174D01*
X14687253Y-19203174D02*
X14706301Y-19193650D01*
X14706301Y-19193650D02*
X14744396Y-19193650D01*
X14744396Y-19193650D02*
X14763444Y-19203174D01*
X14763444Y-19203174D02*
X14772968Y-19222222D01*
X14772968Y-19222222D02*
X14772968Y-19241270D01*
X14772968Y-19241270D02*
X14677730Y-19260317D01*
X14849158Y-19317460D02*
X14868206Y-19326984D01*
X14868206Y-19326984D02*
X14906301Y-19326984D01*
X14906301Y-19326984D02*
X14925349Y-19317460D01*
X14925349Y-19317460D02*
X14934872Y-19298412D01*
X14934872Y-19298412D02*
X14934872Y-19288889D01*
X14934872Y-19288889D02*
X14925349Y-19269841D01*
X14925349Y-19269841D02*
X14906301Y-19260317D01*
X14906301Y-19260317D02*
X14877730Y-19260317D01*
X14877730Y-19260317D02*
X14858682Y-19250793D01*
X14858682Y-19250793D02*
X14849158Y-19231746D01*
X14849158Y-19231746D02*
X14849158Y-19222222D01*
X14849158Y-19222222D02*
X14858682Y-19203174D01*
X14858682Y-19203174D02*
X14877730Y-19193650D01*
X14877730Y-19193650D02*
X14906301Y-19193650D01*
X14906301Y-19193650D02*
X14925349Y-19203174D01*
X15001539Y-19403174D02*
X15011063Y-19393650D01*
X15011063Y-19393650D02*
X15030111Y-19365079D01*
X15030111Y-19365079D02*
X15039634Y-19346031D01*
X15039634Y-19346031D02*
X15049158Y-19317460D01*
X15049158Y-19317460D02*
X15058682Y-19269841D01*
X15058682Y-19269841D02*
X15058682Y-19231746D01*
X15058682Y-19231746D02*
X15049158Y-19184127D01*
X15049158Y-19184127D02*
X15039634Y-19155555D01*
X15039634Y-19155555D02*
X15030111Y-19136508D01*
X15030111Y-19136508D02*
X15011063Y-19107936D01*
X15011063Y-19107936D02*
X15001539Y-19098412D01*
M02*
