M48
; DRILL file {KiCad 8.0.6-8.0.6-0~ubuntu24.04.1} date 2025-02-09T13:25:01-0500
; FORMAT={-:-/ absolute / metric / decimal}
; #@! TF.CreationDate,2025-02-09T13:25:01-05:00
; #@! TF.GenerationSoftware,Kicad,Pcbnew,8.0.6-8.0.6-0~ubuntu24.04.1
; #@! TF.FileFunction,Plated,1,2,PTH
FMAT,2
METRIC
; #@! TA.AperFunction,Plated,PTH,ViaDrill
T1C0.500
; #@! TA.AperFunction,Plated,PTH,ComponentDrill
T2C0.800
; #@! TA.AperFunction,Plated,PTH,ComponentDrill
T3C1.000
%
G90
G05
T1
X104.041Y-126.978
X104.041Y-146.028
X105.0Y-82.0
X105.0Y-114.0
X105.0Y-122.0
X105.0Y-154.0
X105.0Y-170.0
X106.306Y-162.472
X113.0Y-74.0
X113.0Y-90.0
X113.0Y-138.0
X113.0Y-154.0
X113.0Y-162.0
X113.0Y-178.0
X115.12Y-100.664
X118.409Y-99.293
X120.69Y-108.314
X121.0Y-82.0
X121.0Y-90.0
X121.0Y-170.0
X121.0Y-178.0
X125.377Y-143.314
X125.743Y-103.964
X129.0Y-42.0
X129.0Y-154.0
X131.119Y-124.863
X137.0Y-42.0
X137.0Y-146.0
X137.0Y-154.0
X137.44Y-53.834
X137.44Y-72.884
X137.44Y-91.934
X137.44Y-66.786
X137.44Y-85.836
X137.44Y-104.886
X141.962Y-126.985
X145.0Y-58.0
X145.0Y-82.0
X145.0Y-98.0
X145.0Y-122.0
X145.0Y-138.0
X153.0Y-50.0
X153.0Y-58.0
X153.0Y-66.0
X153.0Y-74.0
X153.0Y-90.0
X153.0Y-98.0
X153.0Y-106.0
X153.0Y-138.0
X156.49Y-53.834
X156.49Y-72.884
X156.49Y-91.934
X156.49Y-66.786
X156.49Y-85.836
X156.49Y-104.886
X161.0Y-58.0
X161.0Y-66.0
X161.0Y-98.0
X161.0Y-122.0
X161.0Y-130.0
X161.0Y-138.0
X169.0Y-58.0
X169.0Y-98.0
X169.0Y-122.0
X175.54Y-45.897
X175.54Y-64.947
X175.54Y-83.997
X175.54Y-58.848
X175.54Y-77.898
X175.54Y-96.948
X177.0Y-34.0
X177.0Y-50.0
X177.0Y-90.0
X177.0Y-106.0
X185.0Y-50.0
X185.0Y-90.0
X185.0Y-106.0
X193.0Y-34.0
X193.0Y-42.0
X193.0Y-58.0
X193.0Y-98.0
X194.59Y-70.344
X194.59Y-51.294
X194.59Y-83.296
X194.59Y-89.394
X194.59Y-64.246
X194.59Y-102.346
X201.0Y-42.0
X201.0Y-58.0
X201.0Y-66.0
X201.0Y-82.0
X201.0Y-98.0
X209.0Y-50.0
X209.0Y-58.0
X209.0Y-74.0
X209.0Y-90.0
X209.0Y-106.0
X213.64Y-65.264
X213.64Y-84.314
X213.64Y-102.445
X213.64Y-78.216
X213.64Y-97.266
X213.64Y-116.316
X217.0Y-58.0
X217.0Y-74.0
X217.0Y-90.0
X217.0Y-114.0
X217.0Y-130.0
X225.0Y-106.0
X225.0Y-130.0
X232.69Y-84.314
X232.69Y-97.266
X232.69Y-103.364
X232.69Y-116.316
X233.0Y-130.0
X241.0Y-90.0
X241.0Y-106.0
X241.0Y-114.0
X241.0Y-130.0
X249.0Y-82.0
X249.0Y-90.0
X249.0Y-98.0
X249.0Y-106.0
X249.0Y-114.0
X249.0Y-122.0
T2
X103.5Y-86.42
X103.5Y-88.96
X103.5Y-91.5
T3
X103.5Y-97.15
X103.5Y-99.69
X103.5Y-102.23
X103.5Y-104.77
X103.5Y-107.31
X103.5Y-109.85
X109.0Y-75.375
X109.0Y-77.915
X109.0Y-80.455
X109.0Y-82.995
X109.0Y-85.535
X109.0Y-88.075
X109.0Y-90.615
X109.0Y-93.155
X109.0Y-95.695
X109.0Y-98.235
X109.0Y-100.775
X109.0Y-103.315
X109.0Y-105.855
X109.0Y-108.395
X109.0Y-110.935
X109.0Y-113.475
X129.295Y-85.525
X129.295Y-88.065
X129.295Y-90.605
X129.295Y-93.145
X129.295Y-95.685
X129.295Y-98.225
X129.295Y-100.765
X129.295Y-103.305
X129.295Y-105.845
X129.295Y-108.385
X129.295Y-110.925
X129.295Y-113.465
M30
