G04 #@! TF.GenerationSoftware,KiCad,Pcbnew,8.0.6-8.0.6-0~ubuntu24.04.1*
G04 #@! TF.CreationDate,2025-02-09T13:24:36-05:00*
G04 #@! TF.ProjectId,keybird_right,6b657962-6972-4645-9f72-696768742e6b,rev?*
G04 #@! TF.SameCoordinates,Original*
G04 #@! TF.FileFunction,Soldermask,Top*
G04 #@! TF.FilePolarity,Negative*
%FSLAX46Y46*%
G04 Gerber Fmt 4.6, Leading zero omitted, Abs format (unit mm)*
G04 Created by KiCad (PCBNEW 8.0.6-8.0.6-0~ubuntu24.04.1) date 2025-02-09 13:24:36*
%MOMM*%
%LPD*%
G01*
G04 APERTURE LIST*
G04 Aperture macros list*
%AMRoundRect*
0 Rectangle with rounded corners*
0 $1 Rounding radius*
0 $2 $3 $4 $5 $6 $7 $8 $9 X,Y pos of 4 corners*
0 Add a 4 corners polygon primitive as box body*
4,1,4,$2,$3,$4,$5,$6,$7,$8,$9,$2,$3,0*
0 Add four circle primitives for the rounded corners*
1,1,$1+$1,$2,$3*
1,1,$1+$1,$4,$5*
1,1,$1+$1,$6,$7*
1,1,$1+$1,$8,$9*
0 Add four rect primitives between the rounded corners*
20,1,$1+$1,$2,$3,$4,$5,0*
20,1,$1+$1,$4,$5,$6,$7,0*
20,1,$1+$1,$6,$7,$8,$9,0*
20,1,$1+$1,$8,$9,$2,$3,0*%
G04 Aperture macros list end*
%ADD10RoundRect,0.038000X-0.850000X-0.850000X0.850000X-0.850000X0.850000X0.850000X-0.850000X0.850000X0*%
%ADD11O,1.776000X1.776000*%
%ADD12C,1.826000*%
%ADD13C,3.126000*%
%ADD14C,4.076000*%
%ADD15RoundRect,0.219000X0.219000X0.294000X-0.219000X0.294000X-0.219000X-0.294000X0.219000X-0.294000X0*%
%ADD16RoundRect,0.237750X0.237750X0.275250X-0.237750X0.275250X-0.237750X-0.275250X0.237750X-0.275250X0*%
%ADD17C,2.576000*%
%ADD18RoundRect,0.038000X0.750000X-0.750000X0.750000X0.750000X-0.750000X0.750000X-0.750000X-0.750000X0*%
%ADD19C,1.676000*%
%ADD20RoundRect,0.038000X0.850000X0.850000X-0.850000X0.850000X-0.850000X-0.850000X0.850000X-0.850000X0*%
G04 APERTURE END LIST*
D10*
X129295000Y-85525000D03*
D11*
X129295000Y-88065000D03*
X129295000Y-90605000D03*
X129295000Y-93145000D03*
X129295000Y-95685000D03*
X129295000Y-98225000D03*
X129295000Y-100765000D03*
X129295000Y-103305000D03*
X129295000Y-105845000D03*
X129295000Y-108385000D03*
X129295000Y-110925000D03*
X129295000Y-113465000D03*
D10*
X109000000Y-75375000D03*
D11*
X109000000Y-77915000D03*
X109000000Y-80455000D03*
X109000000Y-82995000D03*
X109000000Y-85535000D03*
X109000000Y-88075000D03*
X109000000Y-90615000D03*
X109000000Y-93155000D03*
X109000000Y-95695000D03*
X109000000Y-98235000D03*
X109000000Y-100775000D03*
X109000000Y-103315000D03*
X109000000Y-105855000D03*
X109000000Y-108395000D03*
X109000000Y-110935000D03*
X109000000Y-113475000D03*
D12*
X234695050Y-102855000D03*
D13*
X235965050Y-100315000D03*
D14*
X239775050Y-102855000D03*
D13*
X242315050Y-97775000D03*
D12*
X244855050Y-102855000D03*
X139445050Y-91425000D03*
D13*
X140715050Y-88885000D03*
D14*
X144525050Y-91425000D03*
D13*
X147065050Y-86345000D03*
D12*
X149605050Y-91425000D03*
X215645050Y-83805000D03*
D13*
X216915050Y-81265000D03*
D14*
X220725050Y-83805000D03*
D13*
X223265050Y-78725000D03*
D12*
X225805050Y-83805000D03*
X139445050Y-110475000D03*
D13*
X140715050Y-107935000D03*
D14*
X144525050Y-110475000D03*
D13*
X147065050Y-105395000D03*
D12*
X149605050Y-110475000D03*
X146430050Y-129525000D03*
D13*
X147700050Y-126985000D03*
D14*
X151510050Y-129525000D03*
D13*
X154050050Y-124445000D03*
D12*
X156590050Y-129525000D03*
D15*
X130020000Y-66668000D03*
X128370000Y-66668000D03*
D16*
X129962500Y-63984000D03*
X128387500Y-63984000D03*
D12*
X177545050Y-83487500D03*
D13*
X178815050Y-80947500D03*
D14*
X182625050Y-83487500D03*
D13*
X185165050Y-78407500D03*
D12*
X187705050Y-83487500D03*
D16*
X129922500Y-55016000D03*
X128347500Y-55016000D03*
D12*
X158495050Y-110475000D03*
D13*
X159765050Y-107935000D03*
D14*
X163575050Y-110475000D03*
D13*
X166115050Y-105395000D03*
D12*
X168655050Y-110475000D03*
X196595050Y-107935000D03*
D13*
X197865050Y-105395000D03*
D14*
X201675050Y-107935000D03*
D13*
X204215050Y-102855000D03*
D12*
X206755050Y-107935000D03*
X158495050Y-72375000D03*
D13*
X159765050Y-69835000D03*
D14*
X163575050Y-72375000D03*
D13*
X166115050Y-67295000D03*
D12*
X168655050Y-72375000D03*
D15*
X115120000Y-108500000D03*
X113470000Y-108500000D03*
D12*
X196595050Y-88885000D03*
D13*
X197865050Y-86345000D03*
D14*
X201675050Y-88885000D03*
D13*
X204215050Y-83805000D03*
D12*
X206755050Y-88885000D03*
X177545050Y-45387500D03*
D13*
X178815050Y-42847500D03*
D14*
X182625050Y-45387500D03*
D13*
X185165050Y-40307500D03*
D12*
X187705050Y-45387500D03*
X139445050Y-72375000D03*
D13*
X140715050Y-69835000D03*
D14*
X144525050Y-72375000D03*
D13*
X147065050Y-67295000D03*
D12*
X149605050Y-72375000D03*
X215645050Y-64755000D03*
D13*
X216915050Y-62215000D03*
D14*
X220725050Y-64755000D03*
D13*
X223265050Y-59675000D03*
D12*
X225805050Y-64755000D03*
D15*
X129980000Y-57700000D03*
X128330000Y-57700000D03*
D12*
X234695050Y-83805000D03*
D13*
X235965050Y-81265000D03*
D14*
X239775050Y-83805000D03*
D13*
X242315050Y-78725000D03*
D12*
X244855050Y-83805000D03*
X127380050Y-148575000D03*
D13*
X128650050Y-146035000D03*
D14*
X132460050Y-148575000D03*
D13*
X135000050Y-143495000D03*
D12*
X137540050Y-148575000D03*
X215645050Y-121905000D03*
D13*
X216915050Y-119365000D03*
D14*
X220725050Y-121905000D03*
D13*
X223265050Y-116825000D03*
D12*
X225805050Y-121905000D03*
X234695050Y-121905000D03*
D13*
X235965050Y-119365000D03*
D14*
X239775050Y-121905000D03*
D13*
X242315050Y-116825000D03*
D12*
X244855050Y-121905000D03*
D16*
X129942500Y-46048000D03*
X128367500Y-46048000D03*
D12*
X127380050Y-129525000D03*
D13*
X128650050Y-126985000D03*
D14*
X132460050Y-129525000D03*
D13*
X135000050Y-124445000D03*
D12*
X137540050Y-129525000D03*
D15*
X115120000Y-106000000D03*
X113470000Y-106000000D03*
D12*
X177545050Y-64437500D03*
D13*
X178815050Y-61897500D03*
D14*
X182625050Y-64437500D03*
D13*
X185165050Y-59357500D03*
D12*
X187705050Y-64437500D03*
X158495050Y-91425000D03*
D13*
X159765050Y-88885000D03*
D14*
X163575050Y-91425000D03*
D13*
X166115050Y-86345000D03*
D12*
X168655050Y-91425000D03*
X196595050Y-69835000D03*
D13*
X197865050Y-67295000D03*
D14*
X201675050Y-69835000D03*
D13*
X204215050Y-64755000D03*
D12*
X206755050Y-69835000D03*
X196595050Y-50785000D03*
D13*
X197865050Y-48245000D03*
D14*
X201675050Y-50785000D03*
D13*
X204215050Y-45705000D03*
D12*
X206755050Y-50785000D03*
D15*
X115120000Y-111000000D03*
X113470000Y-111000000D03*
D12*
X108330050Y-148575000D03*
D13*
X109600050Y-146035000D03*
D14*
X113410050Y-148575000D03*
D13*
X115950050Y-143495000D03*
D12*
X118490050Y-148575000D03*
X108330050Y-129525000D03*
D13*
X109600050Y-126985000D03*
D14*
X113410050Y-129525000D03*
D13*
X115950050Y-124445000D03*
D12*
X118490050Y-129525000D03*
D15*
X130000000Y-48732000D03*
X128350000Y-48732000D03*
D12*
X158495000Y-53325000D03*
D13*
X159765000Y-50785000D03*
D14*
X163575000Y-53325000D03*
D13*
X166115000Y-48245000D03*
D12*
X168655000Y-53325000D03*
D15*
X115120000Y-113500000D03*
X113470000Y-113500000D03*
D12*
X177545050Y-102537500D03*
D13*
X178815050Y-99997500D03*
D14*
X182625050Y-102537500D03*
D13*
X185165050Y-97457500D03*
D12*
X187705050Y-102537500D03*
X139445000Y-53325000D03*
D13*
X140715000Y-50785000D03*
D14*
X144525000Y-53325000D03*
D13*
X147065000Y-48245000D03*
D12*
X149605000Y-53325000D03*
X108330050Y-167625000D03*
D13*
X109600050Y-165085000D03*
D14*
X113410050Y-167625000D03*
D13*
X115950050Y-162545000D03*
D12*
X118490050Y-167625000D03*
D15*
X115120000Y-103500000D03*
X113470000Y-103500000D03*
D12*
X215645050Y-102855000D03*
D13*
X216915050Y-100315000D03*
D14*
X220725050Y-102855000D03*
D13*
X223265050Y-97775000D03*
D12*
X225805050Y-102855000D03*
D17*
X154050050Y-100950000D03*
X249300000Y-131430000D03*
X249300000Y-74280000D03*
D18*
X103500000Y-88960000D03*
D19*
X103500000Y-91500000D03*
X103500000Y-86420000D03*
D17*
X134000000Y-43800000D03*
D20*
X103500000Y-109850000D03*
D11*
X103500000Y-107310000D03*
X103500000Y-104770000D03*
X103500000Y-102230000D03*
X103500000Y-99690000D03*
X103500000Y-97150000D03*
D17*
X103885000Y-177150000D03*
X103940083Y-75962305D03*
M02*
