%TF.GenerationSoftware,KiCad,Pcbnew,8.0.6-8.0.6-0~ubuntu24.04.1*%
%TF.CreationDate,2025-02-09T13:12:14-05:00*%
%TF.ProjectId,keybird_left,6b657962-6972-4645-9f6c-6566742e6b69,rev?*%
%TF.SameCoordinates,Original*%
%TF.FileFunction,Drillmap*%
%TF.FilePolarity,Positive*%
%FSLAX45Y45*%
G04 Gerber Fmt 4.5, Leading zero omitted, Abs format (unit mm)*
G04 Created by KiCad (PCBNEW 8.0.6-8.0.6-0~ubuntu24.04.1) date 2025-02-09 13:12:14*
%MOMM*%
%LPD*%
G01*
G04 APERTURE LIST*
%ADD10C,0.050000*%
%ADD11C,0.100000*%
%ADD12C,0.200000*%
G04 APERTURE END LIST*
D10*
X7435000Y-3576000D02*
G75*
G02*
X7235000Y-3776000I-200000J0D01*
G01*
X10346500Y-12350000D02*
G75*
G02*
X10546500Y-12550000I0J-200000D01*
G01*
X9140000Y-11556250D02*
G75*
G02*
X9340000Y-11756250I0J-200000D01*
G01*
X9540000Y-12350000D02*
X10346500Y-12350000D01*
X10240000Y-4030000D02*
X14300000Y-4030000D01*
X12451500Y-14455000D02*
X12451500Y-15960000D01*
X7635000Y-3236250D02*
X9840000Y-3236250D01*
X3625000Y-5373000D02*
G75*
G02*
X3825000Y-5173000I200000J0D01*
G01*
D11*
X6230000Y-12296000D02*
G75*
G02*
X6430000Y-12096000I200000J0D01*
G01*
D10*
X1920000Y-13493000D02*
X6030000Y-13493000D01*
X6230000Y-13293000D02*
G75*
G02*
X6030000Y-13493000I-200000J0D01*
G01*
X7435000Y-3436250D02*
G75*
G02*
X7635000Y-3236250I200000J0D01*
G01*
X14156500Y-16160000D02*
G75*
G02*
X14356500Y-16360000I0J-200000D01*
G01*
X9340000Y-11756250D02*
X9340000Y-12150000D01*
X1920000Y-13493000D02*
G75*
G02*
X1720000Y-13293000I0J200000D01*
G01*
D11*
X6230000Y-12296000D02*
X6230000Y-13293000D01*
D10*
X10240000Y-4030000D02*
G75*
G02*
X10040000Y-3830000I0J200000D01*
G01*
X1720000Y-7278000D02*
G75*
G02*
X1920000Y-7078000I200000J0D01*
G01*
X3425000Y-7078000D02*
X1920000Y-7078000D01*
X14556500Y-18065000D02*
X16761500Y-18065000D01*
X7435000Y-3436250D02*
X7435000Y-3576000D01*
X12251500Y-14255000D02*
G75*
G02*
X12451500Y-14455000I0J-200000D01*
G01*
X14700000Y-6950000D02*
X16761500Y-6950000D01*
X16761500Y-6950000D02*
G75*
G02*
X16961500Y-7150000I0J-200000D01*
G01*
X8135000Y-11896000D02*
G75*
G02*
X7935000Y-12096000I-200000J0D01*
G01*
X3625000Y-5373000D02*
X3625000Y-6878000D01*
X5530000Y-3976000D02*
X5530000Y-4973000D01*
X14300000Y-4030000D02*
G75*
G02*
X14500000Y-4230000I0J-200000D01*
G01*
X10746500Y-14255000D02*
G75*
G02*
X10546500Y-14055000I0J200000D01*
G01*
X7235000Y-3776000D02*
X5730000Y-3776000D01*
X5530000Y-4973000D02*
G75*
G02*
X5330000Y-5173000I-200000J0D01*
G01*
X12651500Y-16160000D02*
G75*
G02*
X12451500Y-15960000I0J200000D01*
G01*
X14356500Y-16360000D02*
X14356500Y-17865000D01*
X3625000Y-6878000D02*
G75*
G02*
X3425000Y-7078000I-200000J0D01*
G01*
X16961500Y-17865000D02*
G75*
G02*
X16761500Y-18065000I-200000J0D01*
G01*
X14700000Y-6950000D02*
G75*
G02*
X14500000Y-6750000I0J200000D01*
G01*
X14500000Y-4230000D02*
X14500000Y-6750000D01*
X9840000Y-3236250D02*
G75*
G02*
X10040000Y-3436250I0J-200000D01*
G01*
X8135000Y-11896000D02*
X8135000Y-11756250D01*
X1720000Y-7278000D02*
X1720000Y-13293000D01*
X5530000Y-3976000D02*
G75*
G02*
X5730000Y-3776000I200000J0D01*
G01*
X10040000Y-3830000D02*
X10040000Y-3436250D01*
X10746500Y-14255000D02*
X12251500Y-14255000D01*
X12651500Y-16160000D02*
X14156500Y-16160000D01*
X8335000Y-11556250D02*
X9140000Y-11556250D01*
X9540000Y-12350000D02*
G75*
G02*
X9340000Y-12150000I0J200000D01*
G01*
X10546500Y-12550000D02*
X10546500Y-14055000D01*
X8135000Y-11756250D02*
G75*
G02*
X8335000Y-11556250I200000J0D01*
G01*
X6430000Y-12096000D02*
X7935000Y-12096000D01*
X5330000Y-5173000D02*
X3825000Y-5173000D01*
X14556500Y-18065000D02*
G75*
G02*
X14356500Y-17865000I0J200000D01*
G01*
X16961500Y-7150000D02*
X16961500Y-17865000D01*
D12*
D11*
X1875000Y-7775000D02*
X1925000Y-7825000D01*
X1925000Y-7775000D02*
X1875000Y-7825000D01*
X1875000Y-8275000D02*
X1925000Y-8325000D01*
X1925000Y-8275000D02*
X1875000Y-8325000D01*
X1875000Y-8775000D02*
X1925000Y-8825000D01*
X1925000Y-8775000D02*
X1875000Y-8825000D01*
X1875000Y-9275000D02*
X1925000Y-9325000D01*
X1925000Y-9275000D02*
X1875000Y-9325000D01*
X1875000Y-9775000D02*
X1925000Y-9825000D01*
X1925000Y-9775000D02*
X1875000Y-9825000D01*
X1875000Y-10275000D02*
X1925000Y-10325000D01*
X1925000Y-10275000D02*
X1875000Y-10325000D01*
X1875000Y-10775000D02*
X1925000Y-10825000D01*
X1925000Y-10775000D02*
X1875000Y-10825000D01*
X1875000Y-11275000D02*
X1925000Y-11325000D01*
X1925000Y-11275000D02*
X1875000Y-11325000D01*
X1875000Y-11775000D02*
X1925000Y-11825000D01*
X1925000Y-11775000D02*
X1875000Y-11825000D01*
X1875000Y-12275000D02*
X1925000Y-12325000D01*
X1925000Y-12275000D02*
X1875000Y-12325000D01*
X1875000Y-12775000D02*
X1925000Y-12825000D01*
X1925000Y-12775000D02*
X1875000Y-12825000D01*
X2375000Y-7275000D02*
X2425000Y-7325000D01*
X2425000Y-7275000D02*
X2375000Y-7325000D01*
X2375000Y-7775000D02*
X2425000Y-7825000D01*
X2425000Y-7775000D02*
X2375000Y-7825000D01*
X2375000Y-12775000D02*
X2425000Y-12825000D01*
X2425000Y-12775000D02*
X2375000Y-12825000D01*
X2375000Y-13275000D02*
X2425000Y-13325000D01*
X2425000Y-13275000D02*
X2375000Y-13325000D01*
X2875000Y-7275000D02*
X2925000Y-7325000D01*
X2925000Y-7275000D02*
X2875000Y-7325000D01*
X2875000Y-7775000D02*
X2925000Y-7825000D01*
X2925000Y-7775000D02*
X2875000Y-7825000D01*
X2875000Y-8775000D02*
X2925000Y-8825000D01*
X2925000Y-8775000D02*
X2875000Y-8825000D01*
X2875000Y-9275000D02*
X2925000Y-9325000D01*
X2925000Y-9275000D02*
X2875000Y-9325000D01*
X2875000Y-9775000D02*
X2925000Y-9825000D01*
X2925000Y-9775000D02*
X2875000Y-9825000D01*
X2875000Y-10775000D02*
X2925000Y-10825000D01*
X2925000Y-10775000D02*
X2875000Y-10825000D01*
X2875000Y-11275000D02*
X2925000Y-11325000D01*
X2925000Y-11275000D02*
X2875000Y-11325000D01*
X2875000Y-11775000D02*
X2925000Y-11825000D01*
X2925000Y-11775000D02*
X2875000Y-11825000D01*
X2875000Y-12775000D02*
X2925000Y-12825000D01*
X2925000Y-12775000D02*
X2875000Y-12825000D01*
X2875000Y-13275000D02*
X2925000Y-13325000D01*
X2925000Y-13275000D02*
X2875000Y-13325000D01*
X3375000Y-8775000D02*
X3425000Y-8825000D01*
X3425000Y-8775000D02*
X3375000Y-8825000D01*
X3375000Y-10775000D02*
X3425000Y-10825000D01*
X3425000Y-10775000D02*
X3375000Y-10825000D01*
X3375000Y-12775000D02*
X3425000Y-12825000D01*
X3425000Y-12775000D02*
X3375000Y-12825000D01*
X3375000Y-13275000D02*
X3425000Y-13325000D01*
X3425000Y-13275000D02*
X3375000Y-13325000D01*
X3875000Y-5775000D02*
X3925000Y-5825000D01*
X3925000Y-5775000D02*
X3875000Y-5825000D01*
X3875000Y-6275000D02*
X3925000Y-6325000D01*
X3925000Y-6275000D02*
X3875000Y-6325000D01*
X3875000Y-6775000D02*
X3925000Y-6825000D01*
X3925000Y-6775000D02*
X3875000Y-6825000D01*
X3875000Y-7775000D02*
X3925000Y-7825000D01*
X3925000Y-7775000D02*
X3875000Y-7825000D01*
X3875000Y-8275000D02*
X3925000Y-8325000D01*
X3925000Y-8275000D02*
X3875000Y-8325000D01*
X3875000Y-8775000D02*
X3925000Y-8825000D01*
X3925000Y-8775000D02*
X3875000Y-8825000D01*
X3875000Y-9775000D02*
X3925000Y-9825000D01*
X3925000Y-9775000D02*
X3875000Y-9825000D01*
X3875000Y-10275000D02*
X3925000Y-10325000D01*
X3925000Y-10275000D02*
X3875000Y-10325000D01*
X3875000Y-10775000D02*
X3925000Y-10825000D01*
X3925000Y-10775000D02*
X3875000Y-10825000D01*
X3875000Y-11275000D02*
X3925000Y-11325000D01*
X3925000Y-11275000D02*
X3875000Y-11325000D01*
X3875000Y-11775000D02*
X3925000Y-11825000D01*
X3925000Y-11775000D02*
X3875000Y-11825000D01*
X3875000Y-12275000D02*
X3925000Y-12325000D01*
X3925000Y-12275000D02*
X3875000Y-12325000D01*
X3875000Y-12775000D02*
X3925000Y-12825000D01*
X3925000Y-12775000D02*
X3875000Y-12825000D01*
X3875000Y-13275000D02*
X3925000Y-13325000D01*
X3925000Y-13275000D02*
X3875000Y-13325000D01*
X4194000Y-8409458D02*
X4244000Y-8459458D01*
X4244000Y-8409458D02*
X4194000Y-8459458D01*
X4194000Y-9620202D02*
X4244000Y-9670202D01*
X4244000Y-9620202D02*
X4194000Y-9670202D01*
X4194000Y-6531989D02*
X4244000Y-6581989D01*
X4244000Y-6531989D02*
X4194000Y-6581989D01*
X4194000Y-7699364D02*
X4244000Y-7749364D01*
X4244000Y-7699364D02*
X4194000Y-7749364D01*
X4194000Y-10341989D02*
X4244000Y-10391989D01*
X4244000Y-10341989D02*
X4194000Y-10391989D01*
X4194000Y-11509364D02*
X4244000Y-11559364D01*
X4244000Y-11509364D02*
X4194000Y-11559364D01*
X4375000Y-5775000D02*
X4425000Y-5825000D01*
X4425000Y-5775000D02*
X4375000Y-5825000D01*
X4375000Y-6775000D02*
X4425000Y-6825000D01*
X4425000Y-6775000D02*
X4375000Y-6825000D01*
X4375000Y-8775000D02*
X4425000Y-8825000D01*
X4425000Y-8775000D02*
X4375000Y-8825000D01*
X4375000Y-10775000D02*
X4425000Y-10825000D01*
X4425000Y-10775000D02*
X4375000Y-10825000D01*
X4375000Y-11275000D02*
X4425000Y-11325000D01*
X4425000Y-11275000D02*
X4375000Y-11325000D01*
X4375000Y-12775000D02*
X4425000Y-12825000D01*
X4425000Y-12775000D02*
X4375000Y-12825000D01*
X4375000Y-13275000D02*
X4425000Y-13325000D01*
X4425000Y-13275000D02*
X4375000Y-13325000D01*
X4875000Y-5775000D02*
X4925000Y-5825000D01*
X4925000Y-5775000D02*
X4875000Y-5825000D01*
X4875000Y-6775000D02*
X4925000Y-6825000D01*
X4925000Y-6775000D02*
X4875000Y-6825000D01*
X4875000Y-7775000D02*
X4925000Y-7825000D01*
X4925000Y-7775000D02*
X4875000Y-7825000D01*
X4875000Y-8775000D02*
X4925000Y-8825000D01*
X4925000Y-8775000D02*
X4875000Y-8825000D01*
X4875000Y-9775000D02*
X4925000Y-9825000D01*
X4925000Y-9775000D02*
X4875000Y-9825000D01*
X4875000Y-10775000D02*
X4925000Y-10825000D01*
X4925000Y-10775000D02*
X4875000Y-10825000D01*
X4875000Y-11275000D02*
X4925000Y-11325000D01*
X4925000Y-11275000D02*
X4875000Y-11325000D01*
X4875000Y-11775000D02*
X4925000Y-11825000D01*
X4925000Y-11775000D02*
X4875000Y-11825000D01*
X4875000Y-12775000D02*
X4925000Y-12825000D01*
X4925000Y-12775000D02*
X4875000Y-12825000D01*
X4875000Y-13275000D02*
X4925000Y-13325000D01*
X4925000Y-13275000D02*
X4875000Y-13325000D01*
X5375000Y-6775000D02*
X5425000Y-6825000D01*
X5425000Y-6775000D02*
X5375000Y-6825000D01*
X5375000Y-8775000D02*
X5425000Y-8825000D01*
X5425000Y-8775000D02*
X5375000Y-8825000D01*
X5375000Y-10775000D02*
X5425000Y-10825000D01*
X5425000Y-10775000D02*
X5375000Y-10825000D01*
X5375000Y-12775000D02*
X5425000Y-12825000D01*
X5425000Y-12775000D02*
X5375000Y-12825000D01*
X5375000Y-13275000D02*
X5425000Y-13325000D01*
X5425000Y-13275000D02*
X5375000Y-13325000D01*
X5875000Y-4275000D02*
X5925000Y-4325000D01*
X5925000Y-4275000D02*
X5875000Y-4325000D01*
X5875000Y-5275000D02*
X5925000Y-5325000D01*
X5925000Y-5275000D02*
X5875000Y-5325000D01*
X5875000Y-5775000D02*
X5925000Y-5825000D01*
X5925000Y-5775000D02*
X5875000Y-5825000D01*
X5875000Y-6275000D02*
X5925000Y-6325000D01*
X5925000Y-6275000D02*
X5875000Y-6325000D01*
X5875000Y-7275000D02*
X5925000Y-7325000D01*
X5925000Y-7275000D02*
X5875000Y-7325000D01*
X5875000Y-7775000D02*
X5925000Y-7825000D01*
X5925000Y-7775000D02*
X5875000Y-7825000D01*
X5875000Y-9275000D02*
X5925000Y-9325000D01*
X5925000Y-9275000D02*
X5875000Y-9325000D01*
X5875000Y-9775000D02*
X5925000Y-9825000D01*
X5925000Y-9775000D02*
X5875000Y-9825000D01*
X5875000Y-10775000D02*
X5925000Y-10825000D01*
X5925000Y-10775000D02*
X5875000Y-10825000D01*
X5875000Y-11275000D02*
X5925000Y-11325000D01*
X5925000Y-11275000D02*
X5875000Y-11325000D01*
X5875000Y-11775000D02*
X5925000Y-11825000D01*
X5925000Y-11775000D02*
X5875000Y-11825000D01*
X5875000Y-12775000D02*
X5925000Y-12825000D01*
X5925000Y-12775000D02*
X5875000Y-12825000D01*
X5875000Y-13275000D02*
X5925000Y-13325000D01*
X5925000Y-13275000D02*
X5875000Y-13325000D01*
X6098817Y-5026395D02*
X6148817Y-5076395D01*
X6148817Y-5026395D02*
X6098817Y-5076395D01*
X6098817Y-6931395D02*
X6148817Y-6981395D01*
X6148817Y-6931395D02*
X6098817Y-6981395D01*
X6098817Y-8836395D02*
X6148817Y-8886395D01*
X6148817Y-8836395D02*
X6098817Y-8886395D01*
X6099183Y-6477605D02*
X6149183Y-6527605D01*
X6149183Y-6477605D02*
X6099183Y-6527605D01*
X6099183Y-8382605D02*
X6149183Y-8432605D01*
X6149183Y-8382605D02*
X6099183Y-8432605D01*
X6099183Y-10287605D02*
X6149183Y-10337605D01*
X6149183Y-10287605D02*
X6099183Y-10337605D01*
X6375000Y-5275000D02*
X6425000Y-5325000D01*
X6425000Y-5275000D02*
X6375000Y-5325000D01*
X6375000Y-5775000D02*
X6425000Y-5825000D01*
X6425000Y-5775000D02*
X6375000Y-5825000D01*
X6375000Y-6275000D02*
X6425000Y-6325000D01*
X6425000Y-6275000D02*
X6375000Y-6325000D01*
X6375000Y-7275000D02*
X6425000Y-7325000D01*
X6425000Y-7275000D02*
X6375000Y-7325000D01*
X6375000Y-8275000D02*
X6425000Y-8325000D01*
X6425000Y-8275000D02*
X6375000Y-8325000D01*
X6375000Y-9275000D02*
X6425000Y-9325000D01*
X6425000Y-9275000D02*
X6375000Y-9325000D01*
X6375000Y-11275000D02*
X6425000Y-11325000D01*
X6425000Y-11275000D02*
X6375000Y-11325000D01*
X6875000Y-4275000D02*
X6925000Y-4325000D01*
X6925000Y-4275000D02*
X6875000Y-4325000D01*
X6875000Y-5775000D02*
X6925000Y-5825000D01*
X6925000Y-5775000D02*
X6875000Y-5825000D01*
X6875000Y-7275000D02*
X6925000Y-7325000D01*
X6925000Y-7275000D02*
X6875000Y-7325000D01*
X6875000Y-9275000D02*
X6925000Y-9325000D01*
X6925000Y-9275000D02*
X6875000Y-9325000D01*
X6875000Y-11275000D02*
X6925000Y-11325000D01*
X6925000Y-11275000D02*
X6875000Y-11325000D01*
X6875000Y-11775000D02*
X6925000Y-11825000D01*
X6925000Y-11775000D02*
X6875000Y-11825000D01*
X7375000Y-4275000D02*
X7425000Y-4325000D01*
X7425000Y-4275000D02*
X7375000Y-4325000D01*
X7375000Y-4775000D02*
X7425000Y-4825000D01*
X7425000Y-4775000D02*
X7375000Y-4825000D01*
X7375000Y-5275000D02*
X7425000Y-5325000D01*
X7425000Y-5275000D02*
X7375000Y-5325000D01*
X7375000Y-5775000D02*
X7425000Y-5825000D01*
X7425000Y-5775000D02*
X7375000Y-5825000D01*
X7375000Y-7275000D02*
X7425000Y-7325000D01*
X7425000Y-7275000D02*
X7375000Y-7325000D01*
X7375000Y-9275000D02*
X7425000Y-9325000D01*
X7425000Y-9275000D02*
X7375000Y-9325000D01*
X7375000Y-11275000D02*
X7425000Y-11325000D01*
X7425000Y-11275000D02*
X7375000Y-11325000D01*
X7375000Y-11775000D02*
X7425000Y-11825000D01*
X7425000Y-11775000D02*
X7375000Y-11825000D01*
X7875000Y-4775000D02*
X7925000Y-4825000D01*
X7925000Y-4775000D02*
X7875000Y-4825000D01*
X7875000Y-5275000D02*
X7925000Y-5325000D01*
X7925000Y-5275000D02*
X7875000Y-5325000D01*
X7875000Y-6775000D02*
X7925000Y-6825000D01*
X7925000Y-6775000D02*
X7875000Y-6825000D01*
X7875000Y-8775000D02*
X7925000Y-8825000D01*
X7925000Y-8775000D02*
X7875000Y-8825000D01*
X7875000Y-10275000D02*
X7925000Y-10325000D01*
X7925000Y-10275000D02*
X7875000Y-10325000D01*
X7875000Y-10775000D02*
X7925000Y-10825000D01*
X7925000Y-10775000D02*
X7875000Y-10825000D01*
X7875000Y-11275000D02*
X7925000Y-11325000D01*
X7925000Y-11275000D02*
X7875000Y-11325000D01*
X7875000Y-11775000D02*
X7925000Y-11825000D01*
X7925000Y-11775000D02*
X7875000Y-11825000D01*
X8003817Y-4486645D02*
X8053817Y-4536645D01*
X8053817Y-4486645D02*
X8003817Y-4536645D01*
X8003817Y-6391645D02*
X8053817Y-6441645D01*
X8053817Y-6391645D02*
X8003817Y-6441645D01*
X8003817Y-8296645D02*
X8053817Y-8346645D01*
X8053817Y-8296645D02*
X8003817Y-8346645D01*
X8004183Y-5937855D02*
X8054183Y-5987855D01*
X8054183Y-5937855D02*
X8004183Y-5987855D01*
X8004183Y-7842855D02*
X8054183Y-7892855D01*
X8054183Y-7842855D02*
X8004183Y-7892855D01*
X8004183Y-9747855D02*
X8054183Y-9797855D01*
X8054183Y-9747855D02*
X8004183Y-9797855D01*
X8375000Y-3775000D02*
X8425000Y-3825000D01*
X8425000Y-3775000D02*
X8375000Y-3825000D01*
X8375000Y-4775000D02*
X8425000Y-4825000D01*
X8425000Y-4775000D02*
X8375000Y-4825000D01*
X8375000Y-5775000D02*
X8425000Y-5825000D01*
X8425000Y-5775000D02*
X8375000Y-5825000D01*
X8375000Y-6775000D02*
X8425000Y-6825000D01*
X8425000Y-6775000D02*
X8375000Y-6825000D01*
X8375000Y-7775000D02*
X8425000Y-7825000D01*
X8425000Y-7775000D02*
X8375000Y-7825000D01*
X8375000Y-8775000D02*
X8425000Y-8825000D01*
X8425000Y-8775000D02*
X8375000Y-8825000D01*
X8375000Y-10775000D02*
X8425000Y-10825000D01*
X8425000Y-10775000D02*
X8375000Y-10825000D01*
X8375000Y-11275000D02*
X8425000Y-11325000D01*
X8425000Y-11275000D02*
X8375000Y-11325000D01*
X8875000Y-6775000D02*
X8925000Y-6825000D01*
X8925000Y-6775000D02*
X8875000Y-6825000D01*
X8875000Y-8775000D02*
X8925000Y-8825000D01*
X8925000Y-8775000D02*
X8875000Y-8825000D01*
X8875000Y-10775000D02*
X8925000Y-10825000D01*
X8925000Y-10775000D02*
X8875000Y-10825000D01*
X8875000Y-11275000D02*
X8925000Y-11325000D01*
X8925000Y-11275000D02*
X8875000Y-11325000D01*
X9375000Y-4275000D02*
X9425000Y-4325000D01*
X9425000Y-4275000D02*
X9375000Y-4325000D01*
X9375000Y-4775000D02*
X9425000Y-4825000D01*
X9425000Y-4775000D02*
X9375000Y-4825000D01*
X9375000Y-6775000D02*
X9425000Y-6825000D01*
X9425000Y-6775000D02*
X9375000Y-6825000D01*
X9375000Y-8775000D02*
X9425000Y-8825000D01*
X9425000Y-8775000D02*
X9375000Y-8825000D01*
X9375000Y-11275000D02*
X9425000Y-11325000D01*
X9425000Y-11275000D02*
X9375000Y-11325000D01*
X9679178Y-12084007D02*
X9729178Y-12134007D01*
X9729178Y-12084007D02*
X9679178Y-12134007D01*
X9875000Y-4775000D02*
X9925000Y-4825000D01*
X9925000Y-4775000D02*
X9875000Y-4825000D01*
X9908817Y-5280395D02*
X9958817Y-5330395D01*
X9958817Y-5280395D02*
X9908817Y-5330395D01*
X9908817Y-7185395D02*
X9958817Y-7235395D01*
X9958817Y-7185395D02*
X9908817Y-7235395D01*
X9908817Y-9090395D02*
X9958817Y-9140395D01*
X9958817Y-9090395D02*
X9908817Y-9140395D01*
X9909183Y-6731605D02*
X9959183Y-6781605D01*
X9959183Y-6731605D02*
X9909183Y-6781605D01*
X9909183Y-8636605D02*
X9959183Y-8686605D01*
X9959183Y-8636605D02*
X9909183Y-8686605D01*
X9909183Y-10541605D02*
X9959183Y-10591605D01*
X9959183Y-10541605D02*
X9909183Y-10591605D01*
X10375000Y-4775000D02*
X10425000Y-4825000D01*
X10425000Y-4775000D02*
X10375000Y-4825000D01*
X10375000Y-5775000D02*
X10425000Y-5825000D01*
X10425000Y-5775000D02*
X10375000Y-5825000D01*
X10375000Y-6275000D02*
X10425000Y-6325000D01*
X10425000Y-6275000D02*
X10375000Y-6325000D01*
X10375000Y-7775000D02*
X10425000Y-7825000D01*
X10425000Y-7775000D02*
X10375000Y-7825000D01*
X10375000Y-8275000D02*
X10425000Y-8325000D01*
X10425000Y-8275000D02*
X10375000Y-8325000D01*
X10375000Y-9775000D02*
X10425000Y-9825000D01*
X10425000Y-9775000D02*
X10375000Y-9825000D01*
X10375000Y-10275000D02*
X10425000Y-10325000D01*
X10425000Y-10275000D02*
X10375000Y-10325000D01*
X10875000Y-10775000D02*
X10925000Y-10825000D01*
X10925000Y-10775000D02*
X10875000Y-10825000D01*
X10875000Y-11275000D02*
X10925000Y-11325000D01*
X10925000Y-11275000D02*
X10875000Y-11325000D01*
X10875000Y-13275000D02*
X10925000Y-13325000D01*
X10925000Y-13275000D02*
X10875000Y-13325000D01*
X10875000Y-13775000D02*
X10925000Y-13825000D01*
X10925000Y-13775000D02*
X10875000Y-13825000D01*
X11375000Y-5275000D02*
X11425000Y-5325000D01*
X11425000Y-5275000D02*
X11375000Y-5325000D01*
X11375000Y-5775000D02*
X11425000Y-5825000D01*
X11425000Y-5775000D02*
X11375000Y-5825000D01*
X11375000Y-7275000D02*
X11425000Y-7325000D01*
X11425000Y-7275000D02*
X11375000Y-7325000D01*
X11375000Y-7775000D02*
X11425000Y-7825000D01*
X11425000Y-7775000D02*
X11375000Y-7825000D01*
X11375000Y-9275000D02*
X11425000Y-9325000D01*
X11425000Y-9275000D02*
X11375000Y-9325000D01*
X11375000Y-10275000D02*
X11425000Y-10325000D01*
X11425000Y-10275000D02*
X11375000Y-10325000D01*
X11375000Y-10775000D02*
X11425000Y-10825000D01*
X11425000Y-10775000D02*
X11375000Y-10825000D01*
X11375000Y-11275000D02*
X11425000Y-11325000D01*
X11425000Y-11275000D02*
X11375000Y-11325000D01*
X11375000Y-13775000D02*
X11425000Y-13825000D01*
X11425000Y-13775000D02*
X11375000Y-13825000D01*
X11620590Y-11687889D02*
X11670590Y-11737889D01*
X11670590Y-11687889D02*
X11620590Y-11737889D01*
X11813817Y-5280395D02*
X11863817Y-5330395D01*
X11863817Y-5280395D02*
X11813817Y-5330395D01*
X11813817Y-7185395D02*
X11863817Y-7235395D01*
X11863817Y-7185395D02*
X11813817Y-7235395D01*
X11813817Y-9090395D02*
X11863817Y-9140395D01*
X11863817Y-9090395D02*
X11813817Y-9140395D01*
X11814183Y-6731605D02*
X11864183Y-6781605D01*
X11864183Y-6731605D02*
X11814183Y-6781605D01*
X11814183Y-8636605D02*
X11864183Y-8686605D01*
X11864183Y-8636605D02*
X11814183Y-8686605D01*
X11814183Y-10541605D02*
X11864183Y-10591605D01*
X11864183Y-10541605D02*
X11814183Y-10591605D01*
X11875000Y-4775000D02*
X11925000Y-4825000D01*
X11925000Y-4775000D02*
X11875000Y-4825000D01*
X12375000Y-4775000D02*
X12425000Y-4825000D01*
X12425000Y-4775000D02*
X12375000Y-4825000D01*
X12375000Y-5775000D02*
X12425000Y-5825000D01*
X12425000Y-5775000D02*
X12375000Y-5825000D01*
X12375000Y-6775000D02*
X12425000Y-6825000D01*
X12425000Y-6775000D02*
X12375000Y-6825000D01*
X12375000Y-7775000D02*
X12425000Y-7825000D01*
X12425000Y-7775000D02*
X12375000Y-7825000D01*
X12375000Y-8275000D02*
X12425000Y-8325000D01*
X12425000Y-8275000D02*
X12375000Y-8325000D01*
X12375000Y-10275000D02*
X12425000Y-10325000D01*
X12425000Y-10275000D02*
X12375000Y-10325000D01*
X12375000Y-13275000D02*
X12425000Y-13325000D01*
X12425000Y-13275000D02*
X12375000Y-13325000D01*
X12875000Y-5775000D02*
X12925000Y-5825000D01*
X12925000Y-5775000D02*
X12875000Y-5825000D01*
X12875000Y-7775000D02*
X12925000Y-7825000D01*
X12925000Y-7775000D02*
X12875000Y-7825000D01*
X12875000Y-10775000D02*
X12925000Y-10825000D01*
X12925000Y-10775000D02*
X12875000Y-10825000D01*
X12875000Y-11275000D02*
X12925000Y-11325000D01*
X12925000Y-11275000D02*
X12875000Y-11325000D01*
X12875000Y-13775000D02*
X12925000Y-13825000D01*
X12925000Y-13775000D02*
X12875000Y-13825000D01*
X12875000Y-14275000D02*
X12925000Y-14325000D01*
X12925000Y-14275000D02*
X12875000Y-14325000D01*
X12875000Y-15275000D02*
X12925000Y-15325000D01*
X12925000Y-15275000D02*
X12875000Y-15325000D01*
X12875000Y-15775000D02*
X12925000Y-15825000D01*
X12925000Y-15775000D02*
X12875000Y-15825000D01*
X13020500Y-12185795D02*
X13070500Y-12235795D01*
X13070500Y-12185795D02*
X13020500Y-12235795D01*
X13020500Y-13434310D02*
X13070500Y-13484310D01*
X13070500Y-13434310D02*
X13020500Y-13484310D01*
X13375000Y-5275000D02*
X13425000Y-5325000D01*
X13425000Y-5275000D02*
X13375000Y-5325000D01*
X13375000Y-5775000D02*
X13425000Y-5825000D01*
X13425000Y-5775000D02*
X13375000Y-5825000D01*
X13375000Y-6775000D02*
X13425000Y-6825000D01*
X13425000Y-6775000D02*
X13375000Y-6825000D01*
X13375000Y-7275000D02*
X13425000Y-7325000D01*
X13425000Y-7275000D02*
X13375000Y-7325000D01*
X13375000Y-7775000D02*
X13425000Y-7825000D01*
X13425000Y-7775000D02*
X13375000Y-7825000D01*
X13375000Y-10775000D02*
X13425000Y-10825000D01*
X13425000Y-10775000D02*
X13375000Y-10825000D01*
X13375000Y-11275000D02*
X13425000Y-11325000D01*
X13425000Y-11275000D02*
X13375000Y-11325000D01*
X13375000Y-13275000D02*
X13425000Y-13325000D01*
X13425000Y-13275000D02*
X13375000Y-13325000D01*
X13375000Y-13775000D02*
X13425000Y-13825000D01*
X13425000Y-13775000D02*
X13375000Y-13825000D01*
X13375000Y-14275000D02*
X13425000Y-14325000D01*
X13425000Y-14275000D02*
X13375000Y-14325000D01*
X13375000Y-15275000D02*
X13425000Y-15325000D01*
X13425000Y-15275000D02*
X13375000Y-15325000D01*
X13375000Y-15775000D02*
X13425000Y-15825000D01*
X13425000Y-15775000D02*
X13375000Y-15825000D01*
X13471560Y-12034263D02*
X13521560Y-12084263D01*
X13521560Y-12034263D02*
X13471560Y-12084263D01*
X13875000Y-4275000D02*
X13925000Y-4325000D01*
X13925000Y-4275000D02*
X13875000Y-4325000D01*
X13875000Y-13275000D02*
X13925000Y-13325000D01*
X13925000Y-13275000D02*
X13875000Y-13325000D01*
X13875000Y-13775000D02*
X13925000Y-13825000D01*
X13925000Y-13775000D02*
X13875000Y-13825000D01*
X13875000Y-15775000D02*
X13925000Y-15825000D01*
X13925000Y-15775000D02*
X13875000Y-15825000D01*
X14375000Y-7275000D02*
X14425000Y-7325000D01*
X14425000Y-7275000D02*
X14375000Y-7325000D01*
X14375000Y-7775000D02*
X14425000Y-7825000D01*
X14425000Y-7775000D02*
X14375000Y-7825000D01*
X14375000Y-8775000D02*
X14425000Y-8825000D01*
X14425000Y-8775000D02*
X14375000Y-8825000D01*
X14375000Y-9275000D02*
X14425000Y-9325000D01*
X14425000Y-9275000D02*
X14375000Y-9325000D01*
X14375000Y-9775000D02*
X14425000Y-9825000D01*
X14425000Y-9775000D02*
X14375000Y-9825000D01*
X14375000Y-15275000D02*
X14425000Y-15325000D01*
X14425000Y-15275000D02*
X14375000Y-15325000D01*
X14679180Y-12147274D02*
X14729180Y-12197274D01*
X14729180Y-12147274D02*
X14679180Y-12197274D01*
X14875000Y-7275000D02*
X14925000Y-7325000D01*
X14925000Y-7275000D02*
X14875000Y-7325000D01*
X14875000Y-7775000D02*
X14925000Y-7825000D01*
X14925000Y-7775000D02*
X14875000Y-7825000D01*
X14875000Y-8275000D02*
X14925000Y-8325000D01*
X14925000Y-8275000D02*
X14875000Y-8325000D01*
X14875000Y-9275000D02*
X14925000Y-9325000D01*
X14925000Y-9275000D02*
X14875000Y-9325000D01*
X14875000Y-9775000D02*
X14925000Y-9825000D01*
X14925000Y-9775000D02*
X14875000Y-9825000D01*
X14875000Y-10275000D02*
X14925000Y-10325000D01*
X14925000Y-10275000D02*
X14875000Y-10325000D01*
X14875000Y-10775000D02*
X14925000Y-10825000D01*
X14925000Y-10775000D02*
X14875000Y-10825000D01*
X14875000Y-16775000D02*
X14925000Y-16825000D01*
X14925000Y-16775000D02*
X14875000Y-16825000D01*
X14875000Y-17275000D02*
X14925000Y-17325000D01*
X14925000Y-17275000D02*
X14875000Y-17325000D01*
X14875000Y-17775000D02*
X14925000Y-17825000D01*
X14925000Y-17775000D02*
X14875000Y-17825000D01*
X14925500Y-12422754D02*
X14975500Y-12472754D01*
X14975500Y-12422754D02*
X14925500Y-12472754D01*
X14925500Y-14098884D02*
X14975500Y-14148884D01*
X14975500Y-14098884D02*
X14925500Y-14148884D01*
X14926667Y-16226331D02*
X14976667Y-16276331D01*
X14976667Y-16226331D02*
X14926667Y-16276331D01*
X15375000Y-7275000D02*
X15425000Y-7325000D01*
X15425000Y-7275000D02*
X15375000Y-7325000D01*
X15375000Y-7775000D02*
X15425000Y-7825000D01*
X15425000Y-7775000D02*
X15375000Y-7825000D01*
X15375000Y-8275000D02*
X15425000Y-8325000D01*
X15425000Y-8275000D02*
X15375000Y-8325000D01*
X15375000Y-8775000D02*
X15425000Y-8825000D01*
X15425000Y-8775000D02*
X15375000Y-8825000D01*
X15375000Y-9775000D02*
X15425000Y-9825000D01*
X15425000Y-9775000D02*
X15375000Y-9825000D01*
X15375000Y-10275000D02*
X15425000Y-10325000D01*
X15425000Y-10275000D02*
X15375000Y-10325000D01*
X15375000Y-13275000D02*
X15425000Y-13325000D01*
X15425000Y-13275000D02*
X15375000Y-13325000D01*
X15375000Y-14275000D02*
X15425000Y-14325000D01*
X15425000Y-14275000D02*
X15375000Y-14325000D01*
X15375000Y-15275000D02*
X15425000Y-15325000D01*
X15425000Y-15275000D02*
X15375000Y-15325000D01*
X15375000Y-15775000D02*
X15425000Y-15825000D01*
X15425000Y-15775000D02*
X15375000Y-15825000D01*
X15375000Y-17275000D02*
X15425000Y-17325000D01*
X15425000Y-17275000D02*
X15375000Y-17325000D01*
X15375000Y-17775000D02*
X15425000Y-17825000D01*
X15425000Y-17775000D02*
X15375000Y-17825000D01*
X15875000Y-7275000D02*
X15925000Y-7325000D01*
X15925000Y-7275000D02*
X15875000Y-7325000D01*
X15875000Y-7775000D02*
X15925000Y-7825000D01*
X15925000Y-7775000D02*
X15875000Y-7825000D01*
X15875000Y-8275000D02*
X15925000Y-8325000D01*
X15925000Y-8275000D02*
X15875000Y-8325000D01*
X15875000Y-8775000D02*
X15925000Y-8825000D01*
X15925000Y-8775000D02*
X15875000Y-8825000D01*
X15875000Y-9275000D02*
X15925000Y-9325000D01*
X15925000Y-9275000D02*
X15875000Y-9325000D01*
X15875000Y-13275000D02*
X15925000Y-13325000D01*
X15925000Y-13275000D02*
X15875000Y-13325000D01*
X15875000Y-15275000D02*
X15925000Y-15325000D01*
X15925000Y-15275000D02*
X15875000Y-15325000D01*
X15875000Y-17275000D02*
X15925000Y-17325000D01*
X15925000Y-17275000D02*
X15875000Y-17325000D01*
X15875000Y-17775000D02*
X15925000Y-17825000D01*
X15925000Y-17775000D02*
X15875000Y-17825000D01*
X16375000Y-7275000D02*
X16425000Y-7325000D01*
X16425000Y-7275000D02*
X16375000Y-7325000D01*
X16375000Y-7775000D02*
X16425000Y-7825000D01*
X16425000Y-7775000D02*
X16375000Y-7825000D01*
X16375000Y-8275000D02*
X16425000Y-8325000D01*
X16425000Y-8275000D02*
X16375000Y-8325000D01*
X16375000Y-9275000D02*
X16425000Y-9325000D01*
X16425000Y-9275000D02*
X16375000Y-9325000D01*
X16375000Y-10775000D02*
X16425000Y-10825000D01*
X16425000Y-10775000D02*
X16375000Y-10825000D01*
X16375000Y-11275000D02*
X16425000Y-11325000D01*
X16425000Y-11275000D02*
X16375000Y-11325000D01*
X16375000Y-11775000D02*
X16425000Y-11825000D01*
X16425000Y-11775000D02*
X16375000Y-11825000D01*
X16375000Y-12775000D02*
X16425000Y-12825000D01*
X16425000Y-12775000D02*
X16375000Y-12825000D01*
X16375000Y-13275000D02*
X16425000Y-13325000D01*
X16425000Y-13275000D02*
X16375000Y-13325000D01*
X16375000Y-16775000D02*
X16425000Y-16825000D01*
X16425000Y-16775000D02*
X16375000Y-16825000D01*
X16375000Y-17275000D02*
X16425000Y-17325000D01*
X16425000Y-17275000D02*
X16375000Y-17325000D01*
X16690000Y-8642000D02*
G75*
G02*
X16610000Y-8642000I-40000J0D01*
G01*
X16610000Y-8642000D02*
G75*
G02*
X16690000Y-8642000I40000J0D01*
G01*
X16690000Y-8896000D02*
G75*
G02*
X16610000Y-8896000I-40000J0D01*
G01*
X16610000Y-8896000D02*
G75*
G02*
X16690000Y-8896000I40000J0D01*
G01*
X16690000Y-9150000D02*
G75*
G02*
X16610000Y-9150000I-40000J0D01*
G01*
X16610000Y-9150000D02*
G75*
G02*
X16690000Y-9150000I40000J0D01*
G01*
X14070500Y-7487500D02*
X14070500Y-7587500D01*
X14020500Y-7537500D02*
X14120500Y-7537500D01*
X14070500Y-7741500D02*
X14070500Y-7841500D01*
X14020500Y-7791500D02*
X14120500Y-7791500D01*
X14070500Y-7995500D02*
X14070500Y-8095500D01*
X14020500Y-8045500D02*
X14120500Y-8045500D01*
X14070500Y-8249500D02*
X14070500Y-8349500D01*
X14020500Y-8299500D02*
X14120500Y-8299500D01*
X14070500Y-8503500D02*
X14070500Y-8603500D01*
X14020500Y-8553500D02*
X14120500Y-8553500D01*
X14070500Y-8757500D02*
X14070500Y-8857500D01*
X14020500Y-8807500D02*
X14120500Y-8807500D01*
X14070500Y-9011500D02*
X14070500Y-9111500D01*
X14020500Y-9061500D02*
X14120500Y-9061500D01*
X14070500Y-9265500D02*
X14070500Y-9365500D01*
X14020500Y-9315500D02*
X14120500Y-9315500D01*
X14070500Y-9519500D02*
X14070500Y-9619500D01*
X14020500Y-9569500D02*
X14120500Y-9569500D01*
X14070500Y-9773500D02*
X14070500Y-9873500D01*
X14020500Y-9823500D02*
X14120500Y-9823500D01*
X14070500Y-10027500D02*
X14070500Y-10127500D01*
X14020500Y-10077500D02*
X14120500Y-10077500D01*
X14070500Y-10281500D02*
X14070500Y-10381500D01*
X14020500Y-10331500D02*
X14120500Y-10331500D01*
X14070500Y-10535500D02*
X14070500Y-10635500D01*
X14020500Y-10585500D02*
X14120500Y-10585500D01*
X14070500Y-10789500D02*
X14070500Y-10889500D01*
X14020500Y-10839500D02*
X14120500Y-10839500D01*
X14070500Y-11043500D02*
X14070500Y-11143500D01*
X14020500Y-11093500D02*
X14120500Y-11093500D01*
X14070500Y-11297500D02*
X14070500Y-11397500D01*
X14020500Y-11347500D02*
X14120500Y-11347500D01*
X16100000Y-8502500D02*
X16100000Y-8602500D01*
X16050000Y-8552500D02*
X16150000Y-8552500D01*
X16100000Y-8756500D02*
X16100000Y-8856500D01*
X16050000Y-8806500D02*
X16150000Y-8806500D01*
X16100000Y-9010500D02*
X16100000Y-9110500D01*
X16050000Y-9060500D02*
X16150000Y-9060500D01*
X16100000Y-9264500D02*
X16100000Y-9364500D01*
X16050000Y-9314500D02*
X16150000Y-9314500D01*
X16100000Y-9518500D02*
X16100000Y-9618500D01*
X16050000Y-9568500D02*
X16150000Y-9568500D01*
X16100000Y-9772500D02*
X16100000Y-9872500D01*
X16050000Y-9822500D02*
X16150000Y-9822500D01*
X16100000Y-10026500D02*
X16100000Y-10126500D01*
X16050000Y-10076500D02*
X16150000Y-10076500D01*
X16100000Y-10280500D02*
X16100000Y-10380500D01*
X16050000Y-10330500D02*
X16150000Y-10330500D01*
X16100000Y-10534500D02*
X16100000Y-10634500D01*
X16050000Y-10584500D02*
X16150000Y-10584500D01*
X16100000Y-10788500D02*
X16100000Y-10888500D01*
X16050000Y-10838500D02*
X16150000Y-10838500D01*
X16100000Y-11042500D02*
X16100000Y-11142500D01*
X16050000Y-11092500D02*
X16150000Y-11092500D01*
X16100000Y-11296500D02*
X16100000Y-11396500D01*
X16050000Y-11346500D02*
X16150000Y-11346500D01*
X16650000Y-9665000D02*
X16650000Y-9765000D01*
X16600000Y-9715000D02*
X16700000Y-9715000D01*
X16650000Y-9919000D02*
X16650000Y-10019000D01*
X16600000Y-9969000D02*
X16700000Y-9969000D01*
X16650000Y-10173000D02*
X16650000Y-10273000D01*
X16600000Y-10223000D02*
X16700000Y-10223000D01*
X16650000Y-10427000D02*
X16650000Y-10527000D01*
X16600000Y-10477000D02*
X16700000Y-10477000D01*
X16650000Y-10681000D02*
X16650000Y-10781000D01*
X16600000Y-10731000D02*
X16700000Y-10731000D01*
X16650000Y-10935000D02*
X16650000Y-11035000D01*
X16600000Y-10985000D02*
X16700000Y-10985000D01*
D12*
X1978277Y-18378984D02*
X1978277Y-18178984D01*
X1978277Y-18178984D02*
X2025896Y-18178984D01*
X2025896Y-18178984D02*
X2054467Y-18188508D01*
X2054467Y-18188508D02*
X2073515Y-18207555D01*
X2073515Y-18207555D02*
X2083039Y-18226603D01*
X2083039Y-18226603D02*
X2092562Y-18264698D01*
X2092562Y-18264698D02*
X2092562Y-18293270D01*
X2092562Y-18293270D02*
X2083039Y-18331365D01*
X2083039Y-18331365D02*
X2073515Y-18350412D01*
X2073515Y-18350412D02*
X2054467Y-18369460D01*
X2054467Y-18369460D02*
X2025896Y-18378984D01*
X2025896Y-18378984D02*
X1978277Y-18378984D01*
X2178277Y-18378984D02*
X2178277Y-18245650D01*
X2178277Y-18283746D02*
X2187801Y-18264698D01*
X2187801Y-18264698D02*
X2197324Y-18255174D01*
X2197324Y-18255174D02*
X2216372Y-18245650D01*
X2216372Y-18245650D02*
X2235420Y-18245650D01*
X2302086Y-18378984D02*
X2302086Y-18245650D01*
X2302086Y-18178984D02*
X2292563Y-18188508D01*
X2292563Y-18188508D02*
X2302086Y-18198031D01*
X2302086Y-18198031D02*
X2311610Y-18188508D01*
X2311610Y-18188508D02*
X2302086Y-18178984D01*
X2302086Y-18178984D02*
X2302086Y-18198031D01*
X2425896Y-18378984D02*
X2406848Y-18369460D01*
X2406848Y-18369460D02*
X2397324Y-18350412D01*
X2397324Y-18350412D02*
X2397324Y-18178984D01*
X2530658Y-18378984D02*
X2511610Y-18369460D01*
X2511610Y-18369460D02*
X2502086Y-18350412D01*
X2502086Y-18350412D02*
X2502086Y-18178984D01*
X2759229Y-18378984D02*
X2759229Y-18178984D01*
X2759229Y-18178984D02*
X2825896Y-18321841D01*
X2825896Y-18321841D02*
X2892562Y-18178984D01*
X2892562Y-18178984D02*
X2892562Y-18378984D01*
X3073515Y-18378984D02*
X3073515Y-18274222D01*
X3073515Y-18274222D02*
X3063991Y-18255174D01*
X3063991Y-18255174D02*
X3044943Y-18245650D01*
X3044943Y-18245650D02*
X3006848Y-18245650D01*
X3006848Y-18245650D02*
X2987801Y-18255174D01*
X3073515Y-18369460D02*
X3054467Y-18378984D01*
X3054467Y-18378984D02*
X3006848Y-18378984D01*
X3006848Y-18378984D02*
X2987801Y-18369460D01*
X2987801Y-18369460D02*
X2978277Y-18350412D01*
X2978277Y-18350412D02*
X2978277Y-18331365D01*
X2978277Y-18331365D02*
X2987801Y-18312317D01*
X2987801Y-18312317D02*
X3006848Y-18302793D01*
X3006848Y-18302793D02*
X3054467Y-18302793D01*
X3054467Y-18302793D02*
X3073515Y-18293270D01*
X3168753Y-18245650D02*
X3168753Y-18445650D01*
X3168753Y-18255174D02*
X3187801Y-18245650D01*
X3187801Y-18245650D02*
X3225896Y-18245650D01*
X3225896Y-18245650D02*
X3244943Y-18255174D01*
X3244943Y-18255174D02*
X3254467Y-18264698D01*
X3254467Y-18264698D02*
X3263991Y-18283746D01*
X3263991Y-18283746D02*
X3263991Y-18340889D01*
X3263991Y-18340889D02*
X3254467Y-18359936D01*
X3254467Y-18359936D02*
X3244943Y-18369460D01*
X3244943Y-18369460D02*
X3225896Y-18378984D01*
X3225896Y-18378984D02*
X3187801Y-18378984D01*
X3187801Y-18378984D02*
X3168753Y-18369460D01*
X3349705Y-18359936D02*
X3359229Y-18369460D01*
X3359229Y-18369460D02*
X3349705Y-18378984D01*
X3349705Y-18378984D02*
X3340182Y-18369460D01*
X3340182Y-18369460D02*
X3349705Y-18359936D01*
X3349705Y-18359936D02*
X3349705Y-18378984D01*
X3349705Y-18255174D02*
X3359229Y-18264698D01*
X3359229Y-18264698D02*
X3349705Y-18274222D01*
X3349705Y-18274222D02*
X3340182Y-18264698D01*
X3340182Y-18264698D02*
X3349705Y-18255174D01*
X3349705Y-18255174D02*
X3349705Y-18274222D01*
D11*
X1667500Y-18682500D02*
X1717500Y-18732500D01*
X1717500Y-18682500D02*
X1667500Y-18732500D01*
D12*
X2016372Y-18598984D02*
X2035420Y-18598984D01*
X2035420Y-18598984D02*
X2054467Y-18608508D01*
X2054467Y-18608508D02*
X2063991Y-18618031D01*
X2063991Y-18618031D02*
X2073515Y-18637079D01*
X2073515Y-18637079D02*
X2083039Y-18675174D01*
X2083039Y-18675174D02*
X2083039Y-18722793D01*
X2083039Y-18722793D02*
X2073515Y-18760889D01*
X2073515Y-18760889D02*
X2063991Y-18779936D01*
X2063991Y-18779936D02*
X2054467Y-18789460D01*
X2054467Y-18789460D02*
X2035420Y-18798984D01*
X2035420Y-18798984D02*
X2016372Y-18798984D01*
X2016372Y-18798984D02*
X1997324Y-18789460D01*
X1997324Y-18789460D02*
X1987801Y-18779936D01*
X1987801Y-18779936D02*
X1978277Y-18760889D01*
X1978277Y-18760889D02*
X1968753Y-18722793D01*
X1968753Y-18722793D02*
X1968753Y-18675174D01*
X1968753Y-18675174D02*
X1978277Y-18637079D01*
X1978277Y-18637079D02*
X1987801Y-18618031D01*
X1987801Y-18618031D02*
X1997324Y-18608508D01*
X1997324Y-18608508D02*
X2016372Y-18598984D01*
X2168753Y-18779936D02*
X2178277Y-18789460D01*
X2178277Y-18789460D02*
X2168753Y-18798984D01*
X2168753Y-18798984D02*
X2159229Y-18789460D01*
X2159229Y-18789460D02*
X2168753Y-18779936D01*
X2168753Y-18779936D02*
X2168753Y-18798984D01*
X2359229Y-18598984D02*
X2263991Y-18598984D01*
X2263991Y-18598984D02*
X2254467Y-18694222D01*
X2254467Y-18694222D02*
X2263991Y-18684698D01*
X2263991Y-18684698D02*
X2283039Y-18675174D01*
X2283039Y-18675174D02*
X2330658Y-18675174D01*
X2330658Y-18675174D02*
X2349705Y-18684698D01*
X2349705Y-18684698D02*
X2359229Y-18694222D01*
X2359229Y-18694222D02*
X2368753Y-18713270D01*
X2368753Y-18713270D02*
X2368753Y-18760889D01*
X2368753Y-18760889D02*
X2359229Y-18779936D01*
X2359229Y-18779936D02*
X2349705Y-18789460D01*
X2349705Y-18789460D02*
X2330658Y-18798984D01*
X2330658Y-18798984D02*
X2283039Y-18798984D01*
X2283039Y-18798984D02*
X2263991Y-18789460D01*
X2263991Y-18789460D02*
X2254467Y-18779936D01*
X2492563Y-18598984D02*
X2511610Y-18598984D01*
X2511610Y-18598984D02*
X2530658Y-18608508D01*
X2530658Y-18608508D02*
X2540182Y-18618031D01*
X2540182Y-18618031D02*
X2549705Y-18637079D01*
X2549705Y-18637079D02*
X2559229Y-18675174D01*
X2559229Y-18675174D02*
X2559229Y-18722793D01*
X2559229Y-18722793D02*
X2549705Y-18760889D01*
X2549705Y-18760889D02*
X2540182Y-18779936D01*
X2540182Y-18779936D02*
X2530658Y-18789460D01*
X2530658Y-18789460D02*
X2511610Y-18798984D01*
X2511610Y-18798984D02*
X2492563Y-18798984D01*
X2492563Y-18798984D02*
X2473515Y-18789460D01*
X2473515Y-18789460D02*
X2463991Y-18779936D01*
X2463991Y-18779936D02*
X2454467Y-18760889D01*
X2454467Y-18760889D02*
X2444944Y-18722793D01*
X2444944Y-18722793D02*
X2444944Y-18675174D01*
X2444944Y-18675174D02*
X2454467Y-18637079D01*
X2454467Y-18637079D02*
X2463991Y-18618031D01*
X2463991Y-18618031D02*
X2473515Y-18608508D01*
X2473515Y-18608508D02*
X2492563Y-18598984D01*
X2683039Y-18598984D02*
X2702086Y-18598984D01*
X2702086Y-18598984D02*
X2721134Y-18608508D01*
X2721134Y-18608508D02*
X2730658Y-18618031D01*
X2730658Y-18618031D02*
X2740182Y-18637079D01*
X2740182Y-18637079D02*
X2749705Y-18675174D01*
X2749705Y-18675174D02*
X2749705Y-18722793D01*
X2749705Y-18722793D02*
X2740182Y-18760889D01*
X2740182Y-18760889D02*
X2730658Y-18779936D01*
X2730658Y-18779936D02*
X2721134Y-18789460D01*
X2721134Y-18789460D02*
X2702086Y-18798984D01*
X2702086Y-18798984D02*
X2683039Y-18798984D01*
X2683039Y-18798984D02*
X2663991Y-18789460D01*
X2663991Y-18789460D02*
X2654467Y-18779936D01*
X2654467Y-18779936D02*
X2644944Y-18760889D01*
X2644944Y-18760889D02*
X2635420Y-18722793D01*
X2635420Y-18722793D02*
X2635420Y-18675174D01*
X2635420Y-18675174D02*
X2644944Y-18637079D01*
X2644944Y-18637079D02*
X2654467Y-18618031D01*
X2654467Y-18618031D02*
X2663991Y-18608508D01*
X2663991Y-18608508D02*
X2683039Y-18598984D01*
X2835420Y-18798984D02*
X2835420Y-18665650D01*
X2835420Y-18684698D02*
X2844943Y-18675174D01*
X2844943Y-18675174D02*
X2863991Y-18665650D01*
X2863991Y-18665650D02*
X2892563Y-18665650D01*
X2892563Y-18665650D02*
X2911610Y-18675174D01*
X2911610Y-18675174D02*
X2921134Y-18694222D01*
X2921134Y-18694222D02*
X2921134Y-18798984D01*
X2921134Y-18694222D02*
X2930658Y-18675174D01*
X2930658Y-18675174D02*
X2949705Y-18665650D01*
X2949705Y-18665650D02*
X2978277Y-18665650D01*
X2978277Y-18665650D02*
X2997324Y-18675174D01*
X2997324Y-18675174D02*
X3006848Y-18694222D01*
X3006848Y-18694222D02*
X3006848Y-18798984D01*
X3102086Y-18798984D02*
X3102086Y-18665650D01*
X3102086Y-18684698D02*
X3111610Y-18675174D01*
X3111610Y-18675174D02*
X3130658Y-18665650D01*
X3130658Y-18665650D02*
X3159229Y-18665650D01*
X3159229Y-18665650D02*
X3178277Y-18675174D01*
X3178277Y-18675174D02*
X3187801Y-18694222D01*
X3187801Y-18694222D02*
X3187801Y-18798984D01*
X3187801Y-18694222D02*
X3197324Y-18675174D01*
X3197324Y-18675174D02*
X3216372Y-18665650D01*
X3216372Y-18665650D02*
X3244943Y-18665650D01*
X3244943Y-18665650D02*
X3263991Y-18675174D01*
X3263991Y-18675174D02*
X3273515Y-18694222D01*
X3273515Y-18694222D02*
X3273515Y-18798984D01*
X3663991Y-18589460D02*
X3492563Y-18846603D01*
X3921134Y-18598984D02*
X3940182Y-18598984D01*
X3940182Y-18598984D02*
X3959229Y-18608508D01*
X3959229Y-18608508D02*
X3968753Y-18618031D01*
X3968753Y-18618031D02*
X3978277Y-18637079D01*
X3978277Y-18637079D02*
X3987801Y-18675174D01*
X3987801Y-18675174D02*
X3987801Y-18722793D01*
X3987801Y-18722793D02*
X3978277Y-18760889D01*
X3978277Y-18760889D02*
X3968753Y-18779936D01*
X3968753Y-18779936D02*
X3959229Y-18789460D01*
X3959229Y-18789460D02*
X3940182Y-18798984D01*
X3940182Y-18798984D02*
X3921134Y-18798984D01*
X3921134Y-18798984D02*
X3902086Y-18789460D01*
X3902086Y-18789460D02*
X3892563Y-18779936D01*
X3892563Y-18779936D02*
X3883039Y-18760889D01*
X3883039Y-18760889D02*
X3873515Y-18722793D01*
X3873515Y-18722793D02*
X3873515Y-18675174D01*
X3873515Y-18675174D02*
X3883039Y-18637079D01*
X3883039Y-18637079D02*
X3892563Y-18618031D01*
X3892563Y-18618031D02*
X3902086Y-18608508D01*
X3902086Y-18608508D02*
X3921134Y-18598984D01*
X4073515Y-18779936D02*
X4083039Y-18789460D01*
X4083039Y-18789460D02*
X4073515Y-18798984D01*
X4073515Y-18798984D02*
X4063991Y-18789460D01*
X4063991Y-18789460D02*
X4073515Y-18779936D01*
X4073515Y-18779936D02*
X4073515Y-18798984D01*
X4206848Y-18598984D02*
X4225896Y-18598984D01*
X4225896Y-18598984D02*
X4244944Y-18608508D01*
X4244944Y-18608508D02*
X4254468Y-18618031D01*
X4254468Y-18618031D02*
X4263991Y-18637079D01*
X4263991Y-18637079D02*
X4273515Y-18675174D01*
X4273515Y-18675174D02*
X4273515Y-18722793D01*
X4273515Y-18722793D02*
X4263991Y-18760889D01*
X4263991Y-18760889D02*
X4254468Y-18779936D01*
X4254468Y-18779936D02*
X4244944Y-18789460D01*
X4244944Y-18789460D02*
X4225896Y-18798984D01*
X4225896Y-18798984D02*
X4206848Y-18798984D01*
X4206848Y-18798984D02*
X4187801Y-18789460D01*
X4187801Y-18789460D02*
X4178277Y-18779936D01*
X4178277Y-18779936D02*
X4168753Y-18760889D01*
X4168753Y-18760889D02*
X4159229Y-18722793D01*
X4159229Y-18722793D02*
X4159229Y-18675174D01*
X4159229Y-18675174D02*
X4168753Y-18637079D01*
X4168753Y-18637079D02*
X4178277Y-18618031D01*
X4178277Y-18618031D02*
X4187801Y-18608508D01*
X4187801Y-18608508D02*
X4206848Y-18598984D01*
X4463991Y-18798984D02*
X4349706Y-18798984D01*
X4406848Y-18798984D02*
X4406848Y-18598984D01*
X4406848Y-18598984D02*
X4387801Y-18627555D01*
X4387801Y-18627555D02*
X4368753Y-18646603D01*
X4368753Y-18646603D02*
X4349706Y-18656127D01*
X4559229Y-18798984D02*
X4597325Y-18798984D01*
X4597325Y-18798984D02*
X4616372Y-18789460D01*
X4616372Y-18789460D02*
X4625896Y-18779936D01*
X4625896Y-18779936D02*
X4644944Y-18751365D01*
X4644944Y-18751365D02*
X4654468Y-18713270D01*
X4654468Y-18713270D02*
X4654468Y-18637079D01*
X4654468Y-18637079D02*
X4644944Y-18618031D01*
X4644944Y-18618031D02*
X4635420Y-18608508D01*
X4635420Y-18608508D02*
X4616372Y-18598984D01*
X4616372Y-18598984D02*
X4578277Y-18598984D01*
X4578277Y-18598984D02*
X4559229Y-18608508D01*
X4559229Y-18608508D02*
X4549706Y-18618031D01*
X4549706Y-18618031D02*
X4540182Y-18637079D01*
X4540182Y-18637079D02*
X4540182Y-18684698D01*
X4540182Y-18684698D02*
X4549706Y-18703746D01*
X4549706Y-18703746D02*
X4559229Y-18713270D01*
X4559229Y-18713270D02*
X4578277Y-18722793D01*
X4578277Y-18722793D02*
X4616372Y-18722793D01*
X4616372Y-18722793D02*
X4635420Y-18713270D01*
X4635420Y-18713270D02*
X4644944Y-18703746D01*
X4644944Y-18703746D02*
X4654468Y-18684698D01*
X4721134Y-18598984D02*
X4854468Y-18598984D01*
X4854468Y-18598984D02*
X4768753Y-18798984D01*
X4921134Y-18598984D02*
X4921134Y-18637079D01*
X4997325Y-18598984D02*
X4997325Y-18637079D01*
X5292563Y-18875174D02*
X5283039Y-18865650D01*
X5283039Y-18865650D02*
X5263991Y-18837079D01*
X5263991Y-18837079D02*
X5254468Y-18818031D01*
X5254468Y-18818031D02*
X5244944Y-18789460D01*
X5244944Y-18789460D02*
X5235420Y-18741841D01*
X5235420Y-18741841D02*
X5235420Y-18703746D01*
X5235420Y-18703746D02*
X5244944Y-18656127D01*
X5244944Y-18656127D02*
X5254468Y-18627555D01*
X5254468Y-18627555D02*
X5263991Y-18608508D01*
X5263991Y-18608508D02*
X5283039Y-18579936D01*
X5283039Y-18579936D02*
X5292563Y-18570412D01*
X5359230Y-18618031D02*
X5368753Y-18608508D01*
X5368753Y-18608508D02*
X5387801Y-18598984D01*
X5387801Y-18598984D02*
X5435420Y-18598984D01*
X5435420Y-18598984D02*
X5454468Y-18608508D01*
X5454468Y-18608508D02*
X5463991Y-18618031D01*
X5463991Y-18618031D02*
X5473515Y-18637079D01*
X5473515Y-18637079D02*
X5473515Y-18656127D01*
X5473515Y-18656127D02*
X5463991Y-18684698D01*
X5463991Y-18684698D02*
X5349706Y-18798984D01*
X5349706Y-18798984D02*
X5473515Y-18798984D01*
X5644944Y-18598984D02*
X5606848Y-18598984D01*
X5606848Y-18598984D02*
X5587801Y-18608508D01*
X5587801Y-18608508D02*
X5578277Y-18618031D01*
X5578277Y-18618031D02*
X5559230Y-18646603D01*
X5559230Y-18646603D02*
X5549706Y-18684698D01*
X5549706Y-18684698D02*
X5549706Y-18760889D01*
X5549706Y-18760889D02*
X5559230Y-18779936D01*
X5559230Y-18779936D02*
X5568753Y-18789460D01*
X5568753Y-18789460D02*
X5587801Y-18798984D01*
X5587801Y-18798984D02*
X5625896Y-18798984D01*
X5625896Y-18798984D02*
X5644944Y-18789460D01*
X5644944Y-18789460D02*
X5654468Y-18779936D01*
X5654468Y-18779936D02*
X5663991Y-18760889D01*
X5663991Y-18760889D02*
X5663991Y-18713270D01*
X5663991Y-18713270D02*
X5654468Y-18694222D01*
X5654468Y-18694222D02*
X5644944Y-18684698D01*
X5644944Y-18684698D02*
X5625896Y-18675174D01*
X5625896Y-18675174D02*
X5587801Y-18675174D01*
X5587801Y-18675174D02*
X5568753Y-18684698D01*
X5568753Y-18684698D02*
X5559230Y-18694222D01*
X5559230Y-18694222D02*
X5549706Y-18713270D01*
X5835420Y-18665650D02*
X5835420Y-18798984D01*
X5787801Y-18589460D02*
X5740182Y-18732317D01*
X5740182Y-18732317D02*
X5863991Y-18732317D01*
X6092563Y-18798984D02*
X6092563Y-18598984D01*
X6178277Y-18798984D02*
X6178277Y-18694222D01*
X6178277Y-18694222D02*
X6168753Y-18675174D01*
X6168753Y-18675174D02*
X6149706Y-18665650D01*
X6149706Y-18665650D02*
X6121134Y-18665650D01*
X6121134Y-18665650D02*
X6102087Y-18675174D01*
X6102087Y-18675174D02*
X6092563Y-18684698D01*
X6302087Y-18798984D02*
X6283039Y-18789460D01*
X6283039Y-18789460D02*
X6273515Y-18779936D01*
X6273515Y-18779936D02*
X6263991Y-18760889D01*
X6263991Y-18760889D02*
X6263991Y-18703746D01*
X6263991Y-18703746D02*
X6273515Y-18684698D01*
X6273515Y-18684698D02*
X6283039Y-18675174D01*
X6283039Y-18675174D02*
X6302087Y-18665650D01*
X6302087Y-18665650D02*
X6330658Y-18665650D01*
X6330658Y-18665650D02*
X6349706Y-18675174D01*
X6349706Y-18675174D02*
X6359230Y-18684698D01*
X6359230Y-18684698D02*
X6368753Y-18703746D01*
X6368753Y-18703746D02*
X6368753Y-18760889D01*
X6368753Y-18760889D02*
X6359230Y-18779936D01*
X6359230Y-18779936D02*
X6349706Y-18789460D01*
X6349706Y-18789460D02*
X6330658Y-18798984D01*
X6330658Y-18798984D02*
X6302087Y-18798984D01*
X6483039Y-18798984D02*
X6463991Y-18789460D01*
X6463991Y-18789460D02*
X6454468Y-18770412D01*
X6454468Y-18770412D02*
X6454468Y-18598984D01*
X6635420Y-18789460D02*
X6616372Y-18798984D01*
X6616372Y-18798984D02*
X6578277Y-18798984D01*
X6578277Y-18798984D02*
X6559230Y-18789460D01*
X6559230Y-18789460D02*
X6549706Y-18770412D01*
X6549706Y-18770412D02*
X6549706Y-18694222D01*
X6549706Y-18694222D02*
X6559230Y-18675174D01*
X6559230Y-18675174D02*
X6578277Y-18665650D01*
X6578277Y-18665650D02*
X6616372Y-18665650D01*
X6616372Y-18665650D02*
X6635420Y-18675174D01*
X6635420Y-18675174D02*
X6644944Y-18694222D01*
X6644944Y-18694222D02*
X6644944Y-18713270D01*
X6644944Y-18713270D02*
X6549706Y-18732317D01*
X6721134Y-18789460D02*
X6740182Y-18798984D01*
X6740182Y-18798984D02*
X6778277Y-18798984D01*
X6778277Y-18798984D02*
X6797325Y-18789460D01*
X6797325Y-18789460D02*
X6806849Y-18770412D01*
X6806849Y-18770412D02*
X6806849Y-18760889D01*
X6806849Y-18760889D02*
X6797325Y-18741841D01*
X6797325Y-18741841D02*
X6778277Y-18732317D01*
X6778277Y-18732317D02*
X6749706Y-18732317D01*
X6749706Y-18732317D02*
X6730658Y-18722793D01*
X6730658Y-18722793D02*
X6721134Y-18703746D01*
X6721134Y-18703746D02*
X6721134Y-18694222D01*
X6721134Y-18694222D02*
X6730658Y-18675174D01*
X6730658Y-18675174D02*
X6749706Y-18665650D01*
X6749706Y-18665650D02*
X6778277Y-18665650D01*
X6778277Y-18665650D02*
X6797325Y-18675174D01*
X6873515Y-18875174D02*
X6883039Y-18865650D01*
X6883039Y-18865650D02*
X6902087Y-18837079D01*
X6902087Y-18837079D02*
X6911611Y-18818031D01*
X6911611Y-18818031D02*
X6921134Y-18789460D01*
X6921134Y-18789460D02*
X6930658Y-18741841D01*
X6930658Y-18741841D02*
X6930658Y-18703746D01*
X6930658Y-18703746D02*
X6921134Y-18656127D01*
X6921134Y-18656127D02*
X6911611Y-18627555D01*
X6911611Y-18627555D02*
X6902087Y-18608508D01*
X6902087Y-18608508D02*
X6883039Y-18579936D01*
X6883039Y-18579936D02*
X6873515Y-18570412D01*
D11*
X1717500Y-18971500D02*
G75*
G02*
X1637500Y-18971500I-40000J0D01*
G01*
X1637500Y-18971500D02*
G75*
G02*
X1717500Y-18971500I40000J0D01*
G01*
D12*
X2016372Y-18862984D02*
X2035420Y-18862984D01*
X2035420Y-18862984D02*
X2054467Y-18872508D01*
X2054467Y-18872508D02*
X2063991Y-18882031D01*
X2063991Y-18882031D02*
X2073515Y-18901079D01*
X2073515Y-18901079D02*
X2083039Y-18939174D01*
X2083039Y-18939174D02*
X2083039Y-18986793D01*
X2083039Y-18986793D02*
X2073515Y-19024889D01*
X2073515Y-19024889D02*
X2063991Y-19043936D01*
X2063991Y-19043936D02*
X2054467Y-19053460D01*
X2054467Y-19053460D02*
X2035420Y-19062984D01*
X2035420Y-19062984D02*
X2016372Y-19062984D01*
X2016372Y-19062984D02*
X1997324Y-19053460D01*
X1997324Y-19053460D02*
X1987801Y-19043936D01*
X1987801Y-19043936D02*
X1978277Y-19024889D01*
X1978277Y-19024889D02*
X1968753Y-18986793D01*
X1968753Y-18986793D02*
X1968753Y-18939174D01*
X1968753Y-18939174D02*
X1978277Y-18901079D01*
X1978277Y-18901079D02*
X1987801Y-18882031D01*
X1987801Y-18882031D02*
X1997324Y-18872508D01*
X1997324Y-18872508D02*
X2016372Y-18862984D01*
X2168753Y-19043936D02*
X2178277Y-19053460D01*
X2178277Y-19053460D02*
X2168753Y-19062984D01*
X2168753Y-19062984D02*
X2159229Y-19053460D01*
X2159229Y-19053460D02*
X2168753Y-19043936D01*
X2168753Y-19043936D02*
X2168753Y-19062984D01*
X2292563Y-18948698D02*
X2273515Y-18939174D01*
X2273515Y-18939174D02*
X2263991Y-18929650D01*
X2263991Y-18929650D02*
X2254467Y-18910603D01*
X2254467Y-18910603D02*
X2254467Y-18901079D01*
X2254467Y-18901079D02*
X2263991Y-18882031D01*
X2263991Y-18882031D02*
X2273515Y-18872508D01*
X2273515Y-18872508D02*
X2292563Y-18862984D01*
X2292563Y-18862984D02*
X2330658Y-18862984D01*
X2330658Y-18862984D02*
X2349705Y-18872508D01*
X2349705Y-18872508D02*
X2359229Y-18882031D01*
X2359229Y-18882031D02*
X2368753Y-18901079D01*
X2368753Y-18901079D02*
X2368753Y-18910603D01*
X2368753Y-18910603D02*
X2359229Y-18929650D01*
X2359229Y-18929650D02*
X2349705Y-18939174D01*
X2349705Y-18939174D02*
X2330658Y-18948698D01*
X2330658Y-18948698D02*
X2292563Y-18948698D01*
X2292563Y-18948698D02*
X2273515Y-18958222D01*
X2273515Y-18958222D02*
X2263991Y-18967746D01*
X2263991Y-18967746D02*
X2254467Y-18986793D01*
X2254467Y-18986793D02*
X2254467Y-19024889D01*
X2254467Y-19024889D02*
X2263991Y-19043936D01*
X2263991Y-19043936D02*
X2273515Y-19053460D01*
X2273515Y-19053460D02*
X2292563Y-19062984D01*
X2292563Y-19062984D02*
X2330658Y-19062984D01*
X2330658Y-19062984D02*
X2349705Y-19053460D01*
X2349705Y-19053460D02*
X2359229Y-19043936D01*
X2359229Y-19043936D02*
X2368753Y-19024889D01*
X2368753Y-19024889D02*
X2368753Y-18986793D01*
X2368753Y-18986793D02*
X2359229Y-18967746D01*
X2359229Y-18967746D02*
X2349705Y-18958222D01*
X2349705Y-18958222D02*
X2330658Y-18948698D01*
X2492563Y-18862984D02*
X2511610Y-18862984D01*
X2511610Y-18862984D02*
X2530658Y-18872508D01*
X2530658Y-18872508D02*
X2540182Y-18882031D01*
X2540182Y-18882031D02*
X2549705Y-18901079D01*
X2549705Y-18901079D02*
X2559229Y-18939174D01*
X2559229Y-18939174D02*
X2559229Y-18986793D01*
X2559229Y-18986793D02*
X2549705Y-19024889D01*
X2549705Y-19024889D02*
X2540182Y-19043936D01*
X2540182Y-19043936D02*
X2530658Y-19053460D01*
X2530658Y-19053460D02*
X2511610Y-19062984D01*
X2511610Y-19062984D02*
X2492563Y-19062984D01*
X2492563Y-19062984D02*
X2473515Y-19053460D01*
X2473515Y-19053460D02*
X2463991Y-19043936D01*
X2463991Y-19043936D02*
X2454467Y-19024889D01*
X2454467Y-19024889D02*
X2444944Y-18986793D01*
X2444944Y-18986793D02*
X2444944Y-18939174D01*
X2444944Y-18939174D02*
X2454467Y-18901079D01*
X2454467Y-18901079D02*
X2463991Y-18882031D01*
X2463991Y-18882031D02*
X2473515Y-18872508D01*
X2473515Y-18872508D02*
X2492563Y-18862984D01*
X2683039Y-18862984D02*
X2702086Y-18862984D01*
X2702086Y-18862984D02*
X2721134Y-18872508D01*
X2721134Y-18872508D02*
X2730658Y-18882031D01*
X2730658Y-18882031D02*
X2740182Y-18901079D01*
X2740182Y-18901079D02*
X2749705Y-18939174D01*
X2749705Y-18939174D02*
X2749705Y-18986793D01*
X2749705Y-18986793D02*
X2740182Y-19024889D01*
X2740182Y-19024889D02*
X2730658Y-19043936D01*
X2730658Y-19043936D02*
X2721134Y-19053460D01*
X2721134Y-19053460D02*
X2702086Y-19062984D01*
X2702086Y-19062984D02*
X2683039Y-19062984D01*
X2683039Y-19062984D02*
X2663991Y-19053460D01*
X2663991Y-19053460D02*
X2654467Y-19043936D01*
X2654467Y-19043936D02*
X2644944Y-19024889D01*
X2644944Y-19024889D02*
X2635420Y-18986793D01*
X2635420Y-18986793D02*
X2635420Y-18939174D01*
X2635420Y-18939174D02*
X2644944Y-18901079D01*
X2644944Y-18901079D02*
X2654467Y-18882031D01*
X2654467Y-18882031D02*
X2663991Y-18872508D01*
X2663991Y-18872508D02*
X2683039Y-18862984D01*
X2835420Y-19062984D02*
X2835420Y-18929650D01*
X2835420Y-18948698D02*
X2844943Y-18939174D01*
X2844943Y-18939174D02*
X2863991Y-18929650D01*
X2863991Y-18929650D02*
X2892563Y-18929650D01*
X2892563Y-18929650D02*
X2911610Y-18939174D01*
X2911610Y-18939174D02*
X2921134Y-18958222D01*
X2921134Y-18958222D02*
X2921134Y-19062984D01*
X2921134Y-18958222D02*
X2930658Y-18939174D01*
X2930658Y-18939174D02*
X2949705Y-18929650D01*
X2949705Y-18929650D02*
X2978277Y-18929650D01*
X2978277Y-18929650D02*
X2997324Y-18939174D01*
X2997324Y-18939174D02*
X3006848Y-18958222D01*
X3006848Y-18958222D02*
X3006848Y-19062984D01*
X3102086Y-19062984D02*
X3102086Y-18929650D01*
X3102086Y-18948698D02*
X3111610Y-18939174D01*
X3111610Y-18939174D02*
X3130658Y-18929650D01*
X3130658Y-18929650D02*
X3159229Y-18929650D01*
X3159229Y-18929650D02*
X3178277Y-18939174D01*
X3178277Y-18939174D02*
X3187801Y-18958222D01*
X3187801Y-18958222D02*
X3187801Y-19062984D01*
X3187801Y-18958222D02*
X3197324Y-18939174D01*
X3197324Y-18939174D02*
X3216372Y-18929650D01*
X3216372Y-18929650D02*
X3244943Y-18929650D01*
X3244943Y-18929650D02*
X3263991Y-18939174D01*
X3263991Y-18939174D02*
X3273515Y-18958222D01*
X3273515Y-18958222D02*
X3273515Y-19062984D01*
X3663991Y-18853460D02*
X3492563Y-19110603D01*
X3921134Y-18862984D02*
X3940182Y-18862984D01*
X3940182Y-18862984D02*
X3959229Y-18872508D01*
X3959229Y-18872508D02*
X3968753Y-18882031D01*
X3968753Y-18882031D02*
X3978277Y-18901079D01*
X3978277Y-18901079D02*
X3987801Y-18939174D01*
X3987801Y-18939174D02*
X3987801Y-18986793D01*
X3987801Y-18986793D02*
X3978277Y-19024889D01*
X3978277Y-19024889D02*
X3968753Y-19043936D01*
X3968753Y-19043936D02*
X3959229Y-19053460D01*
X3959229Y-19053460D02*
X3940182Y-19062984D01*
X3940182Y-19062984D02*
X3921134Y-19062984D01*
X3921134Y-19062984D02*
X3902086Y-19053460D01*
X3902086Y-19053460D02*
X3892563Y-19043936D01*
X3892563Y-19043936D02*
X3883039Y-19024889D01*
X3883039Y-19024889D02*
X3873515Y-18986793D01*
X3873515Y-18986793D02*
X3873515Y-18939174D01*
X3873515Y-18939174D02*
X3883039Y-18901079D01*
X3883039Y-18901079D02*
X3892563Y-18882031D01*
X3892563Y-18882031D02*
X3902086Y-18872508D01*
X3902086Y-18872508D02*
X3921134Y-18862984D01*
X4073515Y-19043936D02*
X4083039Y-19053460D01*
X4083039Y-19053460D02*
X4073515Y-19062984D01*
X4073515Y-19062984D02*
X4063991Y-19053460D01*
X4063991Y-19053460D02*
X4073515Y-19043936D01*
X4073515Y-19043936D02*
X4073515Y-19062984D01*
X4206848Y-18862984D02*
X4225896Y-18862984D01*
X4225896Y-18862984D02*
X4244944Y-18872508D01*
X4244944Y-18872508D02*
X4254468Y-18882031D01*
X4254468Y-18882031D02*
X4263991Y-18901079D01*
X4263991Y-18901079D02*
X4273515Y-18939174D01*
X4273515Y-18939174D02*
X4273515Y-18986793D01*
X4273515Y-18986793D02*
X4263991Y-19024889D01*
X4263991Y-19024889D02*
X4254468Y-19043936D01*
X4254468Y-19043936D02*
X4244944Y-19053460D01*
X4244944Y-19053460D02*
X4225896Y-19062984D01*
X4225896Y-19062984D02*
X4206848Y-19062984D01*
X4206848Y-19062984D02*
X4187801Y-19053460D01*
X4187801Y-19053460D02*
X4178277Y-19043936D01*
X4178277Y-19043936D02*
X4168753Y-19024889D01*
X4168753Y-19024889D02*
X4159229Y-18986793D01*
X4159229Y-18986793D02*
X4159229Y-18939174D01*
X4159229Y-18939174D02*
X4168753Y-18901079D01*
X4168753Y-18901079D02*
X4178277Y-18882031D01*
X4178277Y-18882031D02*
X4187801Y-18872508D01*
X4187801Y-18872508D02*
X4206848Y-18862984D01*
X4340182Y-18862984D02*
X4463991Y-18862984D01*
X4463991Y-18862984D02*
X4397325Y-18939174D01*
X4397325Y-18939174D02*
X4425896Y-18939174D01*
X4425896Y-18939174D02*
X4444944Y-18948698D01*
X4444944Y-18948698D02*
X4454468Y-18958222D01*
X4454468Y-18958222D02*
X4463991Y-18977270D01*
X4463991Y-18977270D02*
X4463991Y-19024889D01*
X4463991Y-19024889D02*
X4454468Y-19043936D01*
X4454468Y-19043936D02*
X4444944Y-19053460D01*
X4444944Y-19053460D02*
X4425896Y-19062984D01*
X4425896Y-19062984D02*
X4368753Y-19062984D01*
X4368753Y-19062984D02*
X4349706Y-19053460D01*
X4349706Y-19053460D02*
X4340182Y-19043936D01*
X4654468Y-19062984D02*
X4540182Y-19062984D01*
X4597325Y-19062984D02*
X4597325Y-18862984D01*
X4597325Y-18862984D02*
X4578277Y-18891555D01*
X4578277Y-18891555D02*
X4559229Y-18910603D01*
X4559229Y-18910603D02*
X4540182Y-18920127D01*
X4835420Y-18862984D02*
X4740182Y-18862984D01*
X4740182Y-18862984D02*
X4730658Y-18958222D01*
X4730658Y-18958222D02*
X4740182Y-18948698D01*
X4740182Y-18948698D02*
X4759229Y-18939174D01*
X4759229Y-18939174D02*
X4806849Y-18939174D01*
X4806849Y-18939174D02*
X4825896Y-18948698D01*
X4825896Y-18948698D02*
X4835420Y-18958222D01*
X4835420Y-18958222D02*
X4844944Y-18977270D01*
X4844944Y-18977270D02*
X4844944Y-19024889D01*
X4844944Y-19024889D02*
X4835420Y-19043936D01*
X4835420Y-19043936D02*
X4825896Y-19053460D01*
X4825896Y-19053460D02*
X4806849Y-19062984D01*
X4806849Y-19062984D02*
X4759229Y-19062984D01*
X4759229Y-19062984D02*
X4740182Y-19053460D01*
X4740182Y-19053460D02*
X4730658Y-19043936D01*
X4921134Y-18862984D02*
X4921134Y-18901079D01*
X4997325Y-18862984D02*
X4997325Y-18901079D01*
X5292563Y-19139174D02*
X5283039Y-19129650D01*
X5283039Y-19129650D02*
X5263991Y-19101079D01*
X5263991Y-19101079D02*
X5254468Y-19082031D01*
X5254468Y-19082031D02*
X5244944Y-19053460D01*
X5244944Y-19053460D02*
X5235420Y-19005841D01*
X5235420Y-19005841D02*
X5235420Y-18967746D01*
X5235420Y-18967746D02*
X5244944Y-18920127D01*
X5244944Y-18920127D02*
X5254468Y-18891555D01*
X5254468Y-18891555D02*
X5263991Y-18872508D01*
X5263991Y-18872508D02*
X5283039Y-18843936D01*
X5283039Y-18843936D02*
X5292563Y-18834412D01*
X5349706Y-18862984D02*
X5473515Y-18862984D01*
X5473515Y-18862984D02*
X5406849Y-18939174D01*
X5406849Y-18939174D02*
X5435420Y-18939174D01*
X5435420Y-18939174D02*
X5454468Y-18948698D01*
X5454468Y-18948698D02*
X5463991Y-18958222D01*
X5463991Y-18958222D02*
X5473515Y-18977270D01*
X5473515Y-18977270D02*
X5473515Y-19024889D01*
X5473515Y-19024889D02*
X5463991Y-19043936D01*
X5463991Y-19043936D02*
X5454468Y-19053460D01*
X5454468Y-19053460D02*
X5435420Y-19062984D01*
X5435420Y-19062984D02*
X5378277Y-19062984D01*
X5378277Y-19062984D02*
X5359230Y-19053460D01*
X5359230Y-19053460D02*
X5349706Y-19043936D01*
X5711610Y-19062984D02*
X5711610Y-18862984D01*
X5797325Y-19062984D02*
X5797325Y-18958222D01*
X5797325Y-18958222D02*
X5787801Y-18939174D01*
X5787801Y-18939174D02*
X5768753Y-18929650D01*
X5768753Y-18929650D02*
X5740182Y-18929650D01*
X5740182Y-18929650D02*
X5721134Y-18939174D01*
X5721134Y-18939174D02*
X5711610Y-18948698D01*
X5921134Y-19062984D02*
X5902087Y-19053460D01*
X5902087Y-19053460D02*
X5892563Y-19043936D01*
X5892563Y-19043936D02*
X5883039Y-19024889D01*
X5883039Y-19024889D02*
X5883039Y-18967746D01*
X5883039Y-18967746D02*
X5892563Y-18948698D01*
X5892563Y-18948698D02*
X5902087Y-18939174D01*
X5902087Y-18939174D02*
X5921134Y-18929650D01*
X5921134Y-18929650D02*
X5949706Y-18929650D01*
X5949706Y-18929650D02*
X5968753Y-18939174D01*
X5968753Y-18939174D02*
X5978277Y-18948698D01*
X5978277Y-18948698D02*
X5987801Y-18967746D01*
X5987801Y-18967746D02*
X5987801Y-19024889D01*
X5987801Y-19024889D02*
X5978277Y-19043936D01*
X5978277Y-19043936D02*
X5968753Y-19053460D01*
X5968753Y-19053460D02*
X5949706Y-19062984D01*
X5949706Y-19062984D02*
X5921134Y-19062984D01*
X6102087Y-19062984D02*
X6083039Y-19053460D01*
X6083039Y-19053460D02*
X6073515Y-19034412D01*
X6073515Y-19034412D02*
X6073515Y-18862984D01*
X6254468Y-19053460D02*
X6235420Y-19062984D01*
X6235420Y-19062984D02*
X6197325Y-19062984D01*
X6197325Y-19062984D02*
X6178277Y-19053460D01*
X6178277Y-19053460D02*
X6168753Y-19034412D01*
X6168753Y-19034412D02*
X6168753Y-18958222D01*
X6168753Y-18958222D02*
X6178277Y-18939174D01*
X6178277Y-18939174D02*
X6197325Y-18929650D01*
X6197325Y-18929650D02*
X6235420Y-18929650D01*
X6235420Y-18929650D02*
X6254468Y-18939174D01*
X6254468Y-18939174D02*
X6263991Y-18958222D01*
X6263991Y-18958222D02*
X6263991Y-18977270D01*
X6263991Y-18977270D02*
X6168753Y-18996317D01*
X6340182Y-19053460D02*
X6359230Y-19062984D01*
X6359230Y-19062984D02*
X6397325Y-19062984D01*
X6397325Y-19062984D02*
X6416372Y-19053460D01*
X6416372Y-19053460D02*
X6425896Y-19034412D01*
X6425896Y-19034412D02*
X6425896Y-19024889D01*
X6425896Y-19024889D02*
X6416372Y-19005841D01*
X6416372Y-19005841D02*
X6397325Y-18996317D01*
X6397325Y-18996317D02*
X6368753Y-18996317D01*
X6368753Y-18996317D02*
X6349706Y-18986793D01*
X6349706Y-18986793D02*
X6340182Y-18967746D01*
X6340182Y-18967746D02*
X6340182Y-18958222D01*
X6340182Y-18958222D02*
X6349706Y-18939174D01*
X6349706Y-18939174D02*
X6368753Y-18929650D01*
X6368753Y-18929650D02*
X6397325Y-18929650D01*
X6397325Y-18929650D02*
X6416372Y-18939174D01*
X6492563Y-19139174D02*
X6502087Y-19129650D01*
X6502087Y-19129650D02*
X6521134Y-19101079D01*
X6521134Y-19101079D02*
X6530658Y-19082031D01*
X6530658Y-19082031D02*
X6540182Y-19053460D01*
X6540182Y-19053460D02*
X6549706Y-19005841D01*
X6549706Y-19005841D02*
X6549706Y-18967746D01*
X6549706Y-18967746D02*
X6540182Y-18920127D01*
X6540182Y-18920127D02*
X6530658Y-18891555D01*
X6530658Y-18891555D02*
X6521134Y-18872508D01*
X6521134Y-18872508D02*
X6502087Y-18843936D01*
X6502087Y-18843936D02*
X6492563Y-18834412D01*
D11*
X1667500Y-19185500D02*
X1667500Y-19285500D01*
X1617500Y-19235500D02*
X1717500Y-19235500D01*
D12*
X2083039Y-19326984D02*
X1968753Y-19326984D01*
X2025896Y-19326984D02*
X2025896Y-19126984D01*
X2025896Y-19126984D02*
X2006848Y-19155555D01*
X2006848Y-19155555D02*
X1987801Y-19174603D01*
X1987801Y-19174603D02*
X1968753Y-19184127D01*
X2168753Y-19307936D02*
X2178277Y-19317460D01*
X2178277Y-19317460D02*
X2168753Y-19326984D01*
X2168753Y-19326984D02*
X2159229Y-19317460D01*
X2159229Y-19317460D02*
X2168753Y-19307936D01*
X2168753Y-19307936D02*
X2168753Y-19326984D01*
X2302086Y-19126984D02*
X2321134Y-19126984D01*
X2321134Y-19126984D02*
X2340182Y-19136508D01*
X2340182Y-19136508D02*
X2349705Y-19146031D01*
X2349705Y-19146031D02*
X2359229Y-19165079D01*
X2359229Y-19165079D02*
X2368753Y-19203174D01*
X2368753Y-19203174D02*
X2368753Y-19250793D01*
X2368753Y-19250793D02*
X2359229Y-19288889D01*
X2359229Y-19288889D02*
X2349705Y-19307936D01*
X2349705Y-19307936D02*
X2340182Y-19317460D01*
X2340182Y-19317460D02*
X2321134Y-19326984D01*
X2321134Y-19326984D02*
X2302086Y-19326984D01*
X2302086Y-19326984D02*
X2283039Y-19317460D01*
X2283039Y-19317460D02*
X2273515Y-19307936D01*
X2273515Y-19307936D02*
X2263991Y-19288889D01*
X2263991Y-19288889D02*
X2254467Y-19250793D01*
X2254467Y-19250793D02*
X2254467Y-19203174D01*
X2254467Y-19203174D02*
X2263991Y-19165079D01*
X2263991Y-19165079D02*
X2273515Y-19146031D01*
X2273515Y-19146031D02*
X2283039Y-19136508D01*
X2283039Y-19136508D02*
X2302086Y-19126984D01*
X2492563Y-19126984D02*
X2511610Y-19126984D01*
X2511610Y-19126984D02*
X2530658Y-19136508D01*
X2530658Y-19136508D02*
X2540182Y-19146031D01*
X2540182Y-19146031D02*
X2549705Y-19165079D01*
X2549705Y-19165079D02*
X2559229Y-19203174D01*
X2559229Y-19203174D02*
X2559229Y-19250793D01*
X2559229Y-19250793D02*
X2549705Y-19288889D01*
X2549705Y-19288889D02*
X2540182Y-19307936D01*
X2540182Y-19307936D02*
X2530658Y-19317460D01*
X2530658Y-19317460D02*
X2511610Y-19326984D01*
X2511610Y-19326984D02*
X2492563Y-19326984D01*
X2492563Y-19326984D02*
X2473515Y-19317460D01*
X2473515Y-19317460D02*
X2463991Y-19307936D01*
X2463991Y-19307936D02*
X2454467Y-19288889D01*
X2454467Y-19288889D02*
X2444944Y-19250793D01*
X2444944Y-19250793D02*
X2444944Y-19203174D01*
X2444944Y-19203174D02*
X2454467Y-19165079D01*
X2454467Y-19165079D02*
X2463991Y-19146031D01*
X2463991Y-19146031D02*
X2473515Y-19136508D01*
X2473515Y-19136508D02*
X2492563Y-19126984D01*
X2683039Y-19126984D02*
X2702086Y-19126984D01*
X2702086Y-19126984D02*
X2721134Y-19136508D01*
X2721134Y-19136508D02*
X2730658Y-19146031D01*
X2730658Y-19146031D02*
X2740182Y-19165079D01*
X2740182Y-19165079D02*
X2749705Y-19203174D01*
X2749705Y-19203174D02*
X2749705Y-19250793D01*
X2749705Y-19250793D02*
X2740182Y-19288889D01*
X2740182Y-19288889D02*
X2730658Y-19307936D01*
X2730658Y-19307936D02*
X2721134Y-19317460D01*
X2721134Y-19317460D02*
X2702086Y-19326984D01*
X2702086Y-19326984D02*
X2683039Y-19326984D01*
X2683039Y-19326984D02*
X2663991Y-19317460D01*
X2663991Y-19317460D02*
X2654467Y-19307936D01*
X2654467Y-19307936D02*
X2644944Y-19288889D01*
X2644944Y-19288889D02*
X2635420Y-19250793D01*
X2635420Y-19250793D02*
X2635420Y-19203174D01*
X2635420Y-19203174D02*
X2644944Y-19165079D01*
X2644944Y-19165079D02*
X2654467Y-19146031D01*
X2654467Y-19146031D02*
X2663991Y-19136508D01*
X2663991Y-19136508D02*
X2683039Y-19126984D01*
X2835420Y-19326984D02*
X2835420Y-19193650D01*
X2835420Y-19212698D02*
X2844943Y-19203174D01*
X2844943Y-19203174D02*
X2863991Y-19193650D01*
X2863991Y-19193650D02*
X2892563Y-19193650D01*
X2892563Y-19193650D02*
X2911610Y-19203174D01*
X2911610Y-19203174D02*
X2921134Y-19222222D01*
X2921134Y-19222222D02*
X2921134Y-19326984D01*
X2921134Y-19222222D02*
X2930658Y-19203174D01*
X2930658Y-19203174D02*
X2949705Y-19193650D01*
X2949705Y-19193650D02*
X2978277Y-19193650D01*
X2978277Y-19193650D02*
X2997324Y-19203174D01*
X2997324Y-19203174D02*
X3006848Y-19222222D01*
X3006848Y-19222222D02*
X3006848Y-19326984D01*
X3102086Y-19326984D02*
X3102086Y-19193650D01*
X3102086Y-19212698D02*
X3111610Y-19203174D01*
X3111610Y-19203174D02*
X3130658Y-19193650D01*
X3130658Y-19193650D02*
X3159229Y-19193650D01*
X3159229Y-19193650D02*
X3178277Y-19203174D01*
X3178277Y-19203174D02*
X3187801Y-19222222D01*
X3187801Y-19222222D02*
X3187801Y-19326984D01*
X3187801Y-19222222D02*
X3197324Y-19203174D01*
X3197324Y-19203174D02*
X3216372Y-19193650D01*
X3216372Y-19193650D02*
X3244943Y-19193650D01*
X3244943Y-19193650D02*
X3263991Y-19203174D01*
X3263991Y-19203174D02*
X3273515Y-19222222D01*
X3273515Y-19222222D02*
X3273515Y-19326984D01*
X3663991Y-19117460D02*
X3492563Y-19374603D01*
X3921134Y-19126984D02*
X3940182Y-19126984D01*
X3940182Y-19126984D02*
X3959229Y-19136508D01*
X3959229Y-19136508D02*
X3968753Y-19146031D01*
X3968753Y-19146031D02*
X3978277Y-19165079D01*
X3978277Y-19165079D02*
X3987801Y-19203174D01*
X3987801Y-19203174D02*
X3987801Y-19250793D01*
X3987801Y-19250793D02*
X3978277Y-19288889D01*
X3978277Y-19288889D02*
X3968753Y-19307936D01*
X3968753Y-19307936D02*
X3959229Y-19317460D01*
X3959229Y-19317460D02*
X3940182Y-19326984D01*
X3940182Y-19326984D02*
X3921134Y-19326984D01*
X3921134Y-19326984D02*
X3902086Y-19317460D01*
X3902086Y-19317460D02*
X3892563Y-19307936D01*
X3892563Y-19307936D02*
X3883039Y-19288889D01*
X3883039Y-19288889D02*
X3873515Y-19250793D01*
X3873515Y-19250793D02*
X3873515Y-19203174D01*
X3873515Y-19203174D02*
X3883039Y-19165079D01*
X3883039Y-19165079D02*
X3892563Y-19146031D01*
X3892563Y-19146031D02*
X3902086Y-19136508D01*
X3902086Y-19136508D02*
X3921134Y-19126984D01*
X4073515Y-19307936D02*
X4083039Y-19317460D01*
X4083039Y-19317460D02*
X4073515Y-19326984D01*
X4073515Y-19326984D02*
X4063991Y-19317460D01*
X4063991Y-19317460D02*
X4073515Y-19307936D01*
X4073515Y-19307936D02*
X4073515Y-19326984D01*
X4206848Y-19126984D02*
X4225896Y-19126984D01*
X4225896Y-19126984D02*
X4244944Y-19136508D01*
X4244944Y-19136508D02*
X4254468Y-19146031D01*
X4254468Y-19146031D02*
X4263991Y-19165079D01*
X4263991Y-19165079D02*
X4273515Y-19203174D01*
X4273515Y-19203174D02*
X4273515Y-19250793D01*
X4273515Y-19250793D02*
X4263991Y-19288889D01*
X4263991Y-19288889D02*
X4254468Y-19307936D01*
X4254468Y-19307936D02*
X4244944Y-19317460D01*
X4244944Y-19317460D02*
X4225896Y-19326984D01*
X4225896Y-19326984D02*
X4206848Y-19326984D01*
X4206848Y-19326984D02*
X4187801Y-19317460D01*
X4187801Y-19317460D02*
X4178277Y-19307936D01*
X4178277Y-19307936D02*
X4168753Y-19288889D01*
X4168753Y-19288889D02*
X4159229Y-19250793D01*
X4159229Y-19250793D02*
X4159229Y-19203174D01*
X4159229Y-19203174D02*
X4168753Y-19165079D01*
X4168753Y-19165079D02*
X4178277Y-19146031D01*
X4178277Y-19146031D02*
X4187801Y-19136508D01*
X4187801Y-19136508D02*
X4206848Y-19126984D01*
X4340182Y-19126984D02*
X4463991Y-19126984D01*
X4463991Y-19126984D02*
X4397325Y-19203174D01*
X4397325Y-19203174D02*
X4425896Y-19203174D01*
X4425896Y-19203174D02*
X4444944Y-19212698D01*
X4444944Y-19212698D02*
X4454468Y-19222222D01*
X4454468Y-19222222D02*
X4463991Y-19241270D01*
X4463991Y-19241270D02*
X4463991Y-19288889D01*
X4463991Y-19288889D02*
X4454468Y-19307936D01*
X4454468Y-19307936D02*
X4444944Y-19317460D01*
X4444944Y-19317460D02*
X4425896Y-19326984D01*
X4425896Y-19326984D02*
X4368753Y-19326984D01*
X4368753Y-19326984D02*
X4349706Y-19317460D01*
X4349706Y-19317460D02*
X4340182Y-19307936D01*
X4559229Y-19326984D02*
X4597325Y-19326984D01*
X4597325Y-19326984D02*
X4616372Y-19317460D01*
X4616372Y-19317460D02*
X4625896Y-19307936D01*
X4625896Y-19307936D02*
X4644944Y-19279365D01*
X4644944Y-19279365D02*
X4654468Y-19241270D01*
X4654468Y-19241270D02*
X4654468Y-19165079D01*
X4654468Y-19165079D02*
X4644944Y-19146031D01*
X4644944Y-19146031D02*
X4635420Y-19136508D01*
X4635420Y-19136508D02*
X4616372Y-19126984D01*
X4616372Y-19126984D02*
X4578277Y-19126984D01*
X4578277Y-19126984D02*
X4559229Y-19136508D01*
X4559229Y-19136508D02*
X4549706Y-19146031D01*
X4549706Y-19146031D02*
X4540182Y-19165079D01*
X4540182Y-19165079D02*
X4540182Y-19212698D01*
X4540182Y-19212698D02*
X4549706Y-19231746D01*
X4549706Y-19231746D02*
X4559229Y-19241270D01*
X4559229Y-19241270D02*
X4578277Y-19250793D01*
X4578277Y-19250793D02*
X4616372Y-19250793D01*
X4616372Y-19250793D02*
X4635420Y-19241270D01*
X4635420Y-19241270D02*
X4644944Y-19231746D01*
X4644944Y-19231746D02*
X4654468Y-19212698D01*
X4825896Y-19193650D02*
X4825896Y-19326984D01*
X4778277Y-19117460D02*
X4730658Y-19260317D01*
X4730658Y-19260317D02*
X4854468Y-19260317D01*
X4921134Y-19126984D02*
X4921134Y-19165079D01*
X4997325Y-19126984D02*
X4997325Y-19165079D01*
X5292563Y-19403174D02*
X5283039Y-19393650D01*
X5283039Y-19393650D02*
X5263991Y-19365079D01*
X5263991Y-19365079D02*
X5254468Y-19346031D01*
X5254468Y-19346031D02*
X5244944Y-19317460D01*
X5244944Y-19317460D02*
X5235420Y-19269841D01*
X5235420Y-19269841D02*
X5235420Y-19231746D01*
X5235420Y-19231746D02*
X5244944Y-19184127D01*
X5244944Y-19184127D02*
X5254468Y-19155555D01*
X5254468Y-19155555D02*
X5263991Y-19136508D01*
X5263991Y-19136508D02*
X5283039Y-19107936D01*
X5283039Y-19107936D02*
X5292563Y-19098412D01*
X5349706Y-19126984D02*
X5473515Y-19126984D01*
X5473515Y-19126984D02*
X5406849Y-19203174D01*
X5406849Y-19203174D02*
X5435420Y-19203174D01*
X5435420Y-19203174D02*
X5454468Y-19212698D01*
X5454468Y-19212698D02*
X5463991Y-19222222D01*
X5463991Y-19222222D02*
X5473515Y-19241270D01*
X5473515Y-19241270D02*
X5473515Y-19288889D01*
X5473515Y-19288889D02*
X5463991Y-19307936D01*
X5463991Y-19307936D02*
X5454468Y-19317460D01*
X5454468Y-19317460D02*
X5435420Y-19326984D01*
X5435420Y-19326984D02*
X5378277Y-19326984D01*
X5378277Y-19326984D02*
X5359230Y-19317460D01*
X5359230Y-19317460D02*
X5349706Y-19307936D01*
X5644944Y-19193650D02*
X5644944Y-19326984D01*
X5597325Y-19117460D02*
X5549706Y-19260317D01*
X5549706Y-19260317D02*
X5673515Y-19260317D01*
X5902087Y-19326984D02*
X5902087Y-19126984D01*
X5987801Y-19326984D02*
X5987801Y-19222222D01*
X5987801Y-19222222D02*
X5978277Y-19203174D01*
X5978277Y-19203174D02*
X5959230Y-19193650D01*
X5959230Y-19193650D02*
X5930658Y-19193650D01*
X5930658Y-19193650D02*
X5911610Y-19203174D01*
X5911610Y-19203174D02*
X5902087Y-19212698D01*
X6111610Y-19326984D02*
X6092563Y-19317460D01*
X6092563Y-19317460D02*
X6083039Y-19307936D01*
X6083039Y-19307936D02*
X6073515Y-19288889D01*
X6073515Y-19288889D02*
X6073515Y-19231746D01*
X6073515Y-19231746D02*
X6083039Y-19212698D01*
X6083039Y-19212698D02*
X6092563Y-19203174D01*
X6092563Y-19203174D02*
X6111610Y-19193650D01*
X6111610Y-19193650D02*
X6140182Y-19193650D01*
X6140182Y-19193650D02*
X6159230Y-19203174D01*
X6159230Y-19203174D02*
X6168753Y-19212698D01*
X6168753Y-19212698D02*
X6178277Y-19231746D01*
X6178277Y-19231746D02*
X6178277Y-19288889D01*
X6178277Y-19288889D02*
X6168753Y-19307936D01*
X6168753Y-19307936D02*
X6159230Y-19317460D01*
X6159230Y-19317460D02*
X6140182Y-19326984D01*
X6140182Y-19326984D02*
X6111610Y-19326984D01*
X6292563Y-19326984D02*
X6273515Y-19317460D01*
X6273515Y-19317460D02*
X6263991Y-19298412D01*
X6263991Y-19298412D02*
X6263991Y-19126984D01*
X6444944Y-19317460D02*
X6425896Y-19326984D01*
X6425896Y-19326984D02*
X6387801Y-19326984D01*
X6387801Y-19326984D02*
X6368753Y-19317460D01*
X6368753Y-19317460D02*
X6359230Y-19298412D01*
X6359230Y-19298412D02*
X6359230Y-19222222D01*
X6359230Y-19222222D02*
X6368753Y-19203174D01*
X6368753Y-19203174D02*
X6387801Y-19193650D01*
X6387801Y-19193650D02*
X6425896Y-19193650D01*
X6425896Y-19193650D02*
X6444944Y-19203174D01*
X6444944Y-19203174D02*
X6454468Y-19222222D01*
X6454468Y-19222222D02*
X6454468Y-19241270D01*
X6454468Y-19241270D02*
X6359230Y-19260317D01*
X6530658Y-19317460D02*
X6549706Y-19326984D01*
X6549706Y-19326984D02*
X6587801Y-19326984D01*
X6587801Y-19326984D02*
X6606849Y-19317460D01*
X6606849Y-19317460D02*
X6616372Y-19298412D01*
X6616372Y-19298412D02*
X6616372Y-19288889D01*
X6616372Y-19288889D02*
X6606849Y-19269841D01*
X6606849Y-19269841D02*
X6587801Y-19260317D01*
X6587801Y-19260317D02*
X6559230Y-19260317D01*
X6559230Y-19260317D02*
X6540182Y-19250793D01*
X6540182Y-19250793D02*
X6530658Y-19231746D01*
X6530658Y-19231746D02*
X6530658Y-19222222D01*
X6530658Y-19222222D02*
X6540182Y-19203174D01*
X6540182Y-19203174D02*
X6559230Y-19193650D01*
X6559230Y-19193650D02*
X6587801Y-19193650D01*
X6587801Y-19193650D02*
X6606849Y-19203174D01*
X6683039Y-19403174D02*
X6692563Y-19393650D01*
X6692563Y-19393650D02*
X6711611Y-19365079D01*
X6711611Y-19365079D02*
X6721134Y-19346031D01*
X6721134Y-19346031D02*
X6730658Y-19317460D01*
X6730658Y-19317460D02*
X6740182Y-19269841D01*
X6740182Y-19269841D02*
X6740182Y-19231746D01*
X6740182Y-19231746D02*
X6730658Y-19184127D01*
X6730658Y-19184127D02*
X6721134Y-19155555D01*
X6721134Y-19155555D02*
X6711611Y-19136508D01*
X6711611Y-19136508D02*
X6692563Y-19107936D01*
X6692563Y-19107936D02*
X6683039Y-19098412D01*
M02*
