G04 #@! TF.GenerationSoftware,KiCad,Pcbnew,8.0.6-8.0.6-0~ubuntu24.04.1*
G04 #@! TF.CreationDate,2025-02-09T13:09:52-05:00*
G04 #@! TF.ProjectId,keybird_left,6b657962-6972-4645-9f6c-6566742e6b69,rev?*
G04 #@! TF.SameCoordinates,Original*
G04 #@! TF.FileFunction,Legend,Top*
G04 #@! TF.FilePolarity,Positive*
%FSLAX46Y46*%
G04 Gerber Fmt 4.6, Leading zero omitted, Abs format (unit mm)*
G04 Created by KiCad (PCBNEW 8.0.6-8.0.6-0~ubuntu24.04.1) date 2025-02-09 13:09:52*
%MOMM*%
%LPD*%
G01*
G04 APERTURE LIST*
G04 Aperture macros list*
%AMRoundRect*
0 Rectangle with rounded corners*
0 $1 Rounding radius*
0 $2 $3 $4 $5 $6 $7 $8 $9 X,Y pos of 4 corners*
0 Add a 4 corners polygon primitive as box body*
4,1,4,$2,$3,$4,$5,$6,$7,$8,$9,$2,$3,0*
0 Add four circle primitives for the rounded corners*
1,1,$1+$1,$2,$3*
1,1,$1+$1,$4,$5*
1,1,$1+$1,$6,$7*
1,1,$1+$1,$8,$9*
0 Add four rect primitives between the rounded corners*
20,1,$1+$1,$2,$3,$4,$5,0*
20,1,$1+$1,$4,$5,$6,$7,0*
20,1,$1+$1,$6,$7,$8,$9,0*
20,1,$1+$1,$8,$9,$2,$3,0*%
G04 Aperture macros list end*
%ADD10C,0.150000*%
%ADD11C,0.120000*%
%ADD12RoundRect,0.038000X-0.850000X-0.850000X0.850000X-0.850000X0.850000X0.850000X-0.850000X0.850000X0*%
%ADD13O,1.776000X1.776000*%
%ADD14C,2.576000*%
%ADD15C,1.826000*%
%ADD16C,3.126000*%
%ADD17C,4.076000*%
%ADD18RoundRect,0.219000X0.219000X0.294000X-0.219000X0.294000X-0.219000X-0.294000X0.219000X-0.294000X0*%
%ADD19RoundRect,0.237750X0.237750X0.275250X-0.237750X0.275250X-0.237750X-0.275250X0.237750X-0.275250X0*%
%ADD20RoundRect,0.038000X0.750000X-0.750000X0.750000X0.750000X-0.750000X0.750000X-0.750000X-0.750000X0*%
%ADD21C,1.676000*%
%ADD22RoundRect,0.038000X0.850000X0.850000X-0.850000X0.850000X-0.850000X-0.850000X0.850000X-0.850000X0*%
G04 APERTURE END LIST*
D10*
X160666666Y-82209819D02*
X160666666Y-82924104D01*
X160666666Y-82924104D02*
X160619047Y-83066961D01*
X160619047Y-83066961D02*
X160523809Y-83162200D01*
X160523809Y-83162200D02*
X160380952Y-83209819D01*
X160380952Y-83209819D02*
X160285714Y-83209819D01*
X161095238Y-82305057D02*
X161142857Y-82257438D01*
X161142857Y-82257438D02*
X161238095Y-82209819D01*
X161238095Y-82209819D02*
X161476190Y-82209819D01*
X161476190Y-82209819D02*
X161571428Y-82257438D01*
X161571428Y-82257438D02*
X161619047Y-82305057D01*
X161619047Y-82305057D02*
X161666666Y-82400295D01*
X161666666Y-82400295D02*
X161666666Y-82495533D01*
X161666666Y-82495533D02*
X161619047Y-82638390D01*
X161619047Y-82638390D02*
X161047619Y-83209819D01*
X161047619Y-83209819D02*
X161666666Y-83209819D01*
X140371666Y-72059819D02*
X140371666Y-72774104D01*
X140371666Y-72774104D02*
X140324047Y-72916961D01*
X140324047Y-72916961D02*
X140228809Y-73012200D01*
X140228809Y-73012200D02*
X140085952Y-73059819D01*
X140085952Y-73059819D02*
X139990714Y-73059819D01*
X141371666Y-73059819D02*
X140800238Y-73059819D01*
X141085952Y-73059819D02*
X141085952Y-72059819D01*
X141085952Y-72059819D02*
X140990714Y-72202676D01*
X140990714Y-72202676D02*
X140895476Y-72297914D01*
X140895476Y-72297914D02*
X140800238Y-72345533D01*
X39657200Y-104785826D02*
X39704819Y-104642969D01*
X39704819Y-104642969D02*
X39704819Y-104404874D01*
X39704819Y-104404874D02*
X39657200Y-104309636D01*
X39657200Y-104309636D02*
X39609580Y-104262017D01*
X39609580Y-104262017D02*
X39514342Y-104214398D01*
X39514342Y-104214398D02*
X39419104Y-104214398D01*
X39419104Y-104214398D02*
X39323866Y-104262017D01*
X39323866Y-104262017D02*
X39276247Y-104309636D01*
X39276247Y-104309636D02*
X39228628Y-104404874D01*
X39228628Y-104404874D02*
X39181009Y-104595350D01*
X39181009Y-104595350D02*
X39133390Y-104690588D01*
X39133390Y-104690588D02*
X39085771Y-104738207D01*
X39085771Y-104738207D02*
X38990533Y-104785826D01*
X38990533Y-104785826D02*
X38895295Y-104785826D01*
X38895295Y-104785826D02*
X38800057Y-104738207D01*
X38800057Y-104738207D02*
X38752438Y-104690588D01*
X38752438Y-104690588D02*
X38704819Y-104595350D01*
X38704819Y-104595350D02*
X38704819Y-104357255D01*
X38704819Y-104357255D02*
X38752438Y-104214398D01*
X38704819Y-103881064D02*
X39704819Y-103642969D01*
X39704819Y-103642969D02*
X38990533Y-103452493D01*
X38990533Y-103452493D02*
X39704819Y-103262017D01*
X39704819Y-103262017D02*
X38704819Y-103023922D01*
X38704819Y-102738207D02*
X38704819Y-102119160D01*
X38704819Y-102119160D02*
X39085771Y-102452493D01*
X39085771Y-102452493D02*
X39085771Y-102309636D01*
X39085771Y-102309636D02*
X39133390Y-102214398D01*
X39133390Y-102214398D02*
X39181009Y-102166779D01*
X39181009Y-102166779D02*
X39276247Y-102119160D01*
X39276247Y-102119160D02*
X39514342Y-102119160D01*
X39514342Y-102119160D02*
X39609580Y-102166779D01*
X39609580Y-102166779D02*
X39657200Y-102214398D01*
X39657200Y-102214398D02*
X39704819Y-102309636D01*
X39704819Y-102309636D02*
X39704819Y-102595350D01*
X39704819Y-102595350D02*
X39657200Y-102690588D01*
X39657200Y-102690588D02*
X39609580Y-102738207D01*
X134907200Y-94308207D02*
X134954819Y-94165350D01*
X134954819Y-94165350D02*
X134954819Y-93927255D01*
X134954819Y-93927255D02*
X134907200Y-93832017D01*
X134907200Y-93832017D02*
X134859580Y-93784398D01*
X134859580Y-93784398D02*
X134764342Y-93736779D01*
X134764342Y-93736779D02*
X134669104Y-93736779D01*
X134669104Y-93736779D02*
X134573866Y-93784398D01*
X134573866Y-93784398D02*
X134526247Y-93832017D01*
X134526247Y-93832017D02*
X134478628Y-93927255D01*
X134478628Y-93927255D02*
X134431009Y-94117731D01*
X134431009Y-94117731D02*
X134383390Y-94212969D01*
X134383390Y-94212969D02*
X134335771Y-94260588D01*
X134335771Y-94260588D02*
X134240533Y-94308207D01*
X134240533Y-94308207D02*
X134145295Y-94308207D01*
X134145295Y-94308207D02*
X134050057Y-94260588D01*
X134050057Y-94260588D02*
X134002438Y-94212969D01*
X134002438Y-94212969D02*
X133954819Y-94117731D01*
X133954819Y-94117731D02*
X133954819Y-93879636D01*
X133954819Y-93879636D02*
X134002438Y-93736779D01*
X133954819Y-93403445D02*
X134954819Y-93165350D01*
X134954819Y-93165350D02*
X134240533Y-92974874D01*
X134240533Y-92974874D02*
X134954819Y-92784398D01*
X134954819Y-92784398D02*
X133954819Y-92546303D01*
X134050057Y-92212969D02*
X134002438Y-92165350D01*
X134002438Y-92165350D02*
X133954819Y-92070112D01*
X133954819Y-92070112D02*
X133954819Y-91832017D01*
X133954819Y-91832017D02*
X134002438Y-91736779D01*
X134002438Y-91736779D02*
X134050057Y-91689160D01*
X134050057Y-91689160D02*
X134145295Y-91641541D01*
X134145295Y-91641541D02*
X134240533Y-91641541D01*
X134240533Y-91641541D02*
X134383390Y-91689160D01*
X134383390Y-91689160D02*
X134954819Y-92260588D01*
X134954819Y-92260588D02*
X134954819Y-91641541D01*
X134383390Y-91070112D02*
X134335771Y-91165350D01*
X134335771Y-91165350D02*
X134288152Y-91212969D01*
X134288152Y-91212969D02*
X134192914Y-91260588D01*
X134192914Y-91260588D02*
X134145295Y-91260588D01*
X134145295Y-91260588D02*
X134050057Y-91212969D01*
X134050057Y-91212969D02*
X134002438Y-91165350D01*
X134002438Y-91165350D02*
X133954819Y-91070112D01*
X133954819Y-91070112D02*
X133954819Y-90879636D01*
X133954819Y-90879636D02*
X134002438Y-90784398D01*
X134002438Y-90784398D02*
X134050057Y-90736779D01*
X134050057Y-90736779D02*
X134145295Y-90689160D01*
X134145295Y-90689160D02*
X134192914Y-90689160D01*
X134192914Y-90689160D02*
X134288152Y-90736779D01*
X134288152Y-90736779D02*
X134335771Y-90784398D01*
X134335771Y-90784398D02*
X134383390Y-90879636D01*
X134383390Y-90879636D02*
X134383390Y-91070112D01*
X134383390Y-91070112D02*
X134431009Y-91165350D01*
X134431009Y-91165350D02*
X134478628Y-91212969D01*
X134478628Y-91212969D02*
X134573866Y-91260588D01*
X134573866Y-91260588D02*
X134764342Y-91260588D01*
X134764342Y-91260588D02*
X134859580Y-91212969D01*
X134859580Y-91212969D02*
X134907200Y-91165350D01*
X134907200Y-91165350D02*
X134954819Y-91070112D01*
X134954819Y-91070112D02*
X134954819Y-90879636D01*
X134954819Y-90879636D02*
X134907200Y-90784398D01*
X134907200Y-90784398D02*
X134859580Y-90736779D01*
X134859580Y-90736779D02*
X134764342Y-90689160D01*
X134764342Y-90689160D02*
X134573866Y-90689160D01*
X134573866Y-90689160D02*
X134478628Y-90736779D01*
X134478628Y-90736779D02*
X134431009Y-90784398D01*
X134431009Y-90784398D02*
X134383390Y-90879636D01*
X58707200Y-85735826D02*
X58754819Y-85592969D01*
X58754819Y-85592969D02*
X58754819Y-85354874D01*
X58754819Y-85354874D02*
X58707200Y-85259636D01*
X58707200Y-85259636D02*
X58659580Y-85212017D01*
X58659580Y-85212017D02*
X58564342Y-85164398D01*
X58564342Y-85164398D02*
X58469104Y-85164398D01*
X58469104Y-85164398D02*
X58373866Y-85212017D01*
X58373866Y-85212017D02*
X58326247Y-85259636D01*
X58326247Y-85259636D02*
X58278628Y-85354874D01*
X58278628Y-85354874D02*
X58231009Y-85545350D01*
X58231009Y-85545350D02*
X58183390Y-85640588D01*
X58183390Y-85640588D02*
X58135771Y-85688207D01*
X58135771Y-85688207D02*
X58040533Y-85735826D01*
X58040533Y-85735826D02*
X57945295Y-85735826D01*
X57945295Y-85735826D02*
X57850057Y-85688207D01*
X57850057Y-85688207D02*
X57802438Y-85640588D01*
X57802438Y-85640588D02*
X57754819Y-85545350D01*
X57754819Y-85545350D02*
X57754819Y-85307255D01*
X57754819Y-85307255D02*
X57802438Y-85164398D01*
X57754819Y-84831064D02*
X58754819Y-84592969D01*
X58754819Y-84592969D02*
X58040533Y-84402493D01*
X58040533Y-84402493D02*
X58754819Y-84212017D01*
X58754819Y-84212017D02*
X57754819Y-83973922D01*
X58754819Y-83545350D02*
X58754819Y-83354874D01*
X58754819Y-83354874D02*
X58707200Y-83259636D01*
X58707200Y-83259636D02*
X58659580Y-83212017D01*
X58659580Y-83212017D02*
X58516723Y-83116779D01*
X58516723Y-83116779D02*
X58326247Y-83069160D01*
X58326247Y-83069160D02*
X57945295Y-83069160D01*
X57945295Y-83069160D02*
X57850057Y-83116779D01*
X57850057Y-83116779D02*
X57802438Y-83164398D01*
X57802438Y-83164398D02*
X57754819Y-83259636D01*
X57754819Y-83259636D02*
X57754819Y-83450112D01*
X57754819Y-83450112D02*
X57802438Y-83545350D01*
X57802438Y-83545350D02*
X57850057Y-83592969D01*
X57850057Y-83592969D02*
X57945295Y-83640588D01*
X57945295Y-83640588D02*
X58183390Y-83640588D01*
X58183390Y-83640588D02*
X58278628Y-83592969D01*
X58278628Y-83592969D02*
X58326247Y-83545350D01*
X58326247Y-83545350D02*
X58373866Y-83450112D01*
X58373866Y-83450112D02*
X58373866Y-83259636D01*
X58373866Y-83259636D02*
X58326247Y-83164398D01*
X58326247Y-83164398D02*
X58278628Y-83116779D01*
X58278628Y-83116779D02*
X58183390Y-83069160D01*
X134907200Y-113358207D02*
X134954819Y-113215350D01*
X134954819Y-113215350D02*
X134954819Y-112977255D01*
X134954819Y-112977255D02*
X134907200Y-112882017D01*
X134907200Y-112882017D02*
X134859580Y-112834398D01*
X134859580Y-112834398D02*
X134764342Y-112786779D01*
X134764342Y-112786779D02*
X134669104Y-112786779D01*
X134669104Y-112786779D02*
X134573866Y-112834398D01*
X134573866Y-112834398D02*
X134526247Y-112882017D01*
X134526247Y-112882017D02*
X134478628Y-112977255D01*
X134478628Y-112977255D02*
X134431009Y-113167731D01*
X134431009Y-113167731D02*
X134383390Y-113262969D01*
X134383390Y-113262969D02*
X134335771Y-113310588D01*
X134335771Y-113310588D02*
X134240533Y-113358207D01*
X134240533Y-113358207D02*
X134145295Y-113358207D01*
X134145295Y-113358207D02*
X134050057Y-113310588D01*
X134050057Y-113310588D02*
X134002438Y-113262969D01*
X134002438Y-113262969D02*
X133954819Y-113167731D01*
X133954819Y-113167731D02*
X133954819Y-112929636D01*
X133954819Y-112929636D02*
X134002438Y-112786779D01*
X133954819Y-112453445D02*
X134954819Y-112215350D01*
X134954819Y-112215350D02*
X134240533Y-112024874D01*
X134240533Y-112024874D02*
X134954819Y-111834398D01*
X134954819Y-111834398D02*
X133954819Y-111596303D01*
X134050057Y-111262969D02*
X134002438Y-111215350D01*
X134002438Y-111215350D02*
X133954819Y-111120112D01*
X133954819Y-111120112D02*
X133954819Y-110882017D01*
X133954819Y-110882017D02*
X134002438Y-110786779D01*
X134002438Y-110786779D02*
X134050057Y-110739160D01*
X134050057Y-110739160D02*
X134145295Y-110691541D01*
X134145295Y-110691541D02*
X134240533Y-110691541D01*
X134240533Y-110691541D02*
X134383390Y-110739160D01*
X134383390Y-110739160D02*
X134954819Y-111310588D01*
X134954819Y-111310588D02*
X134954819Y-110691541D01*
X133954819Y-110358207D02*
X133954819Y-109691541D01*
X133954819Y-109691541D02*
X134954819Y-110120112D01*
X127922200Y-132408207D02*
X127969819Y-132265350D01*
X127969819Y-132265350D02*
X127969819Y-132027255D01*
X127969819Y-132027255D02*
X127922200Y-131932017D01*
X127922200Y-131932017D02*
X127874580Y-131884398D01*
X127874580Y-131884398D02*
X127779342Y-131836779D01*
X127779342Y-131836779D02*
X127684104Y-131836779D01*
X127684104Y-131836779D02*
X127588866Y-131884398D01*
X127588866Y-131884398D02*
X127541247Y-131932017D01*
X127541247Y-131932017D02*
X127493628Y-132027255D01*
X127493628Y-132027255D02*
X127446009Y-132217731D01*
X127446009Y-132217731D02*
X127398390Y-132312969D01*
X127398390Y-132312969D02*
X127350771Y-132360588D01*
X127350771Y-132360588D02*
X127255533Y-132408207D01*
X127255533Y-132408207D02*
X127160295Y-132408207D01*
X127160295Y-132408207D02*
X127065057Y-132360588D01*
X127065057Y-132360588D02*
X127017438Y-132312969D01*
X127017438Y-132312969D02*
X126969819Y-132217731D01*
X126969819Y-132217731D02*
X126969819Y-131979636D01*
X126969819Y-131979636D02*
X127017438Y-131836779D01*
X126969819Y-131503445D02*
X127969819Y-131265350D01*
X127969819Y-131265350D02*
X127255533Y-131074874D01*
X127255533Y-131074874D02*
X127969819Y-130884398D01*
X127969819Y-130884398D02*
X126969819Y-130646303D01*
X127065057Y-130312969D02*
X127017438Y-130265350D01*
X127017438Y-130265350D02*
X126969819Y-130170112D01*
X126969819Y-130170112D02*
X126969819Y-129932017D01*
X126969819Y-129932017D02*
X127017438Y-129836779D01*
X127017438Y-129836779D02*
X127065057Y-129789160D01*
X127065057Y-129789160D02*
X127160295Y-129741541D01*
X127160295Y-129741541D02*
X127255533Y-129741541D01*
X127255533Y-129741541D02*
X127398390Y-129789160D01*
X127398390Y-129789160D02*
X127969819Y-130360588D01*
X127969819Y-130360588D02*
X127969819Y-129741541D01*
X126969819Y-128884398D02*
X126969819Y-129074874D01*
X126969819Y-129074874D02*
X127017438Y-129170112D01*
X127017438Y-129170112D02*
X127065057Y-129217731D01*
X127065057Y-129217731D02*
X127207914Y-129312969D01*
X127207914Y-129312969D02*
X127398390Y-129360588D01*
X127398390Y-129360588D02*
X127779342Y-129360588D01*
X127779342Y-129360588D02*
X127874580Y-129312969D01*
X127874580Y-129312969D02*
X127922200Y-129265350D01*
X127922200Y-129265350D02*
X127969819Y-129170112D01*
X127969819Y-129170112D02*
X127969819Y-128979636D01*
X127969819Y-128979636D02*
X127922200Y-128884398D01*
X127922200Y-128884398D02*
X127874580Y-128836779D01*
X127874580Y-128836779D02*
X127779342Y-128789160D01*
X127779342Y-128789160D02*
X127541247Y-128789160D01*
X127541247Y-128789160D02*
X127446009Y-128836779D01*
X127446009Y-128836779D02*
X127398390Y-128884398D01*
X127398390Y-128884398D02*
X127350771Y-128979636D01*
X127350771Y-128979636D02*
X127350771Y-129170112D01*
X127350771Y-129170112D02*
X127398390Y-129265350D01*
X127398390Y-129265350D02*
X127446009Y-129312969D01*
X127446009Y-129312969D02*
X127541247Y-129360588D01*
X140678333Y-68552819D02*
X140345000Y-68076628D01*
X140106905Y-68552819D02*
X140106905Y-67552819D01*
X140106905Y-67552819D02*
X140487857Y-67552819D01*
X140487857Y-67552819D02*
X140583095Y-67600438D01*
X140583095Y-67600438D02*
X140630714Y-67648057D01*
X140630714Y-67648057D02*
X140678333Y-67743295D01*
X140678333Y-67743295D02*
X140678333Y-67886152D01*
X140678333Y-67886152D02*
X140630714Y-67981390D01*
X140630714Y-67981390D02*
X140583095Y-68029009D01*
X140583095Y-68029009D02*
X140487857Y-68076628D01*
X140487857Y-68076628D02*
X140106905Y-68076628D01*
X141249762Y-67981390D02*
X141154524Y-67933771D01*
X141154524Y-67933771D02*
X141106905Y-67886152D01*
X141106905Y-67886152D02*
X141059286Y-67790914D01*
X141059286Y-67790914D02*
X141059286Y-67743295D01*
X141059286Y-67743295D02*
X141106905Y-67648057D01*
X141106905Y-67648057D02*
X141154524Y-67600438D01*
X141154524Y-67600438D02*
X141249762Y-67552819D01*
X141249762Y-67552819D02*
X141440238Y-67552819D01*
X141440238Y-67552819D02*
X141535476Y-67600438D01*
X141535476Y-67600438D02*
X141583095Y-67648057D01*
X141583095Y-67648057D02*
X141630714Y-67743295D01*
X141630714Y-67743295D02*
X141630714Y-67790914D01*
X141630714Y-67790914D02*
X141583095Y-67886152D01*
X141583095Y-67886152D02*
X141535476Y-67933771D01*
X141535476Y-67933771D02*
X141440238Y-67981390D01*
X141440238Y-67981390D02*
X141249762Y-67981390D01*
X141249762Y-67981390D02*
X141154524Y-68029009D01*
X141154524Y-68029009D02*
X141106905Y-68076628D01*
X141106905Y-68076628D02*
X141059286Y-68171866D01*
X141059286Y-68171866D02*
X141059286Y-68362342D01*
X141059286Y-68362342D02*
X141106905Y-68457580D01*
X141106905Y-68457580D02*
X141154524Y-68505200D01*
X141154524Y-68505200D02*
X141249762Y-68552819D01*
X141249762Y-68552819D02*
X141440238Y-68552819D01*
X141440238Y-68552819D02*
X141535476Y-68505200D01*
X141535476Y-68505200D02*
X141583095Y-68457580D01*
X141583095Y-68457580D02*
X141630714Y-68362342D01*
X141630714Y-68362342D02*
X141630714Y-68171866D01*
X141630714Y-68171866D02*
X141583095Y-68076628D01*
X141583095Y-68076628D02*
X141535476Y-68029009D01*
X141535476Y-68029009D02*
X141440238Y-67981390D01*
X139610714Y-65868819D02*
X139610714Y-64868819D01*
X139610714Y-64868819D02*
X139848809Y-64868819D01*
X139848809Y-64868819D02*
X139991666Y-64916438D01*
X139991666Y-64916438D02*
X140086904Y-65011676D01*
X140086904Y-65011676D02*
X140134523Y-65106914D01*
X140134523Y-65106914D02*
X140182142Y-65297390D01*
X140182142Y-65297390D02*
X140182142Y-65440247D01*
X140182142Y-65440247D02*
X140134523Y-65630723D01*
X140134523Y-65630723D02*
X140086904Y-65725961D01*
X140086904Y-65725961D02*
X139991666Y-65821200D01*
X139991666Y-65821200D02*
X139848809Y-65868819D01*
X139848809Y-65868819D02*
X139610714Y-65868819D01*
X140515476Y-64868819D02*
X141134523Y-64868819D01*
X141134523Y-64868819D02*
X140801190Y-65249771D01*
X140801190Y-65249771D02*
X140944047Y-65249771D01*
X140944047Y-65249771D02*
X141039285Y-65297390D01*
X141039285Y-65297390D02*
X141086904Y-65345009D01*
X141086904Y-65345009D02*
X141134523Y-65440247D01*
X141134523Y-65440247D02*
X141134523Y-65678342D01*
X141134523Y-65678342D02*
X141086904Y-65773580D01*
X141086904Y-65773580D02*
X141039285Y-65821200D01*
X141039285Y-65821200D02*
X140944047Y-65868819D01*
X140944047Y-65868819D02*
X140658333Y-65868819D01*
X140658333Y-65868819D02*
X140563095Y-65821200D01*
X140563095Y-65821200D02*
X140515476Y-65773580D01*
X141515476Y-64964057D02*
X141563095Y-64916438D01*
X141563095Y-64916438D02*
X141658333Y-64868819D01*
X141658333Y-64868819D02*
X141896428Y-64868819D01*
X141896428Y-64868819D02*
X141991666Y-64916438D01*
X141991666Y-64916438D02*
X142039285Y-64964057D01*
X142039285Y-64964057D02*
X142086904Y-65059295D01*
X142086904Y-65059295D02*
X142086904Y-65154533D01*
X142086904Y-65154533D02*
X142039285Y-65297390D01*
X142039285Y-65297390D02*
X141467857Y-65868819D01*
X141467857Y-65868819D02*
X142086904Y-65868819D01*
X96807200Y-88620707D02*
X96854819Y-88477850D01*
X96854819Y-88477850D02*
X96854819Y-88239755D01*
X96854819Y-88239755D02*
X96807200Y-88144517D01*
X96807200Y-88144517D02*
X96759580Y-88096898D01*
X96759580Y-88096898D02*
X96664342Y-88049279D01*
X96664342Y-88049279D02*
X96569104Y-88049279D01*
X96569104Y-88049279D02*
X96473866Y-88096898D01*
X96473866Y-88096898D02*
X96426247Y-88144517D01*
X96426247Y-88144517D02*
X96378628Y-88239755D01*
X96378628Y-88239755D02*
X96331009Y-88430231D01*
X96331009Y-88430231D02*
X96283390Y-88525469D01*
X96283390Y-88525469D02*
X96235771Y-88573088D01*
X96235771Y-88573088D02*
X96140533Y-88620707D01*
X96140533Y-88620707D02*
X96045295Y-88620707D01*
X96045295Y-88620707D02*
X95950057Y-88573088D01*
X95950057Y-88573088D02*
X95902438Y-88525469D01*
X95902438Y-88525469D02*
X95854819Y-88430231D01*
X95854819Y-88430231D02*
X95854819Y-88192136D01*
X95854819Y-88192136D02*
X95902438Y-88049279D01*
X95854819Y-87715945D02*
X96854819Y-87477850D01*
X96854819Y-87477850D02*
X96140533Y-87287374D01*
X96140533Y-87287374D02*
X96854819Y-87096898D01*
X96854819Y-87096898D02*
X95854819Y-86858803D01*
X96854819Y-85954041D02*
X96854819Y-86525469D01*
X96854819Y-86239755D02*
X95854819Y-86239755D01*
X95854819Y-86239755D02*
X95997676Y-86334993D01*
X95997676Y-86334993D02*
X96092914Y-86430231D01*
X96092914Y-86430231D02*
X96140533Y-86525469D01*
X96283390Y-85382612D02*
X96235771Y-85477850D01*
X96235771Y-85477850D02*
X96188152Y-85525469D01*
X96188152Y-85525469D02*
X96092914Y-85573088D01*
X96092914Y-85573088D02*
X96045295Y-85573088D01*
X96045295Y-85573088D02*
X95950057Y-85525469D01*
X95950057Y-85525469D02*
X95902438Y-85477850D01*
X95902438Y-85477850D02*
X95854819Y-85382612D01*
X95854819Y-85382612D02*
X95854819Y-85192136D01*
X95854819Y-85192136D02*
X95902438Y-85096898D01*
X95902438Y-85096898D02*
X95950057Y-85049279D01*
X95950057Y-85049279D02*
X96045295Y-85001660D01*
X96045295Y-85001660D02*
X96092914Y-85001660D01*
X96092914Y-85001660D02*
X96188152Y-85049279D01*
X96188152Y-85049279D02*
X96235771Y-85096898D01*
X96235771Y-85096898D02*
X96283390Y-85192136D01*
X96283390Y-85192136D02*
X96283390Y-85382612D01*
X96283390Y-85382612D02*
X96331009Y-85477850D01*
X96331009Y-85477850D02*
X96378628Y-85525469D01*
X96378628Y-85525469D02*
X96473866Y-85573088D01*
X96473866Y-85573088D02*
X96664342Y-85573088D01*
X96664342Y-85573088D02*
X96759580Y-85525469D01*
X96759580Y-85525469D02*
X96807200Y-85477850D01*
X96807200Y-85477850D02*
X96854819Y-85382612D01*
X96854819Y-85382612D02*
X96854819Y-85192136D01*
X96854819Y-85192136D02*
X96807200Y-85096898D01*
X96807200Y-85096898D02*
X96759580Y-85049279D01*
X96759580Y-85049279D02*
X96664342Y-85001660D01*
X96664342Y-85001660D02*
X96473866Y-85001660D01*
X96473866Y-85001660D02*
X96378628Y-85049279D01*
X96378628Y-85049279D02*
X96331009Y-85096898D01*
X96331009Y-85096898D02*
X96283390Y-85192136D01*
X140046905Y-56900819D02*
X140046905Y-55900819D01*
X140046905Y-55900819D02*
X140285000Y-55900819D01*
X140285000Y-55900819D02*
X140427857Y-55948438D01*
X140427857Y-55948438D02*
X140523095Y-56043676D01*
X140523095Y-56043676D02*
X140570714Y-56138914D01*
X140570714Y-56138914D02*
X140618333Y-56329390D01*
X140618333Y-56329390D02*
X140618333Y-56472247D01*
X140618333Y-56472247D02*
X140570714Y-56662723D01*
X140570714Y-56662723D02*
X140523095Y-56757961D01*
X140523095Y-56757961D02*
X140427857Y-56853200D01*
X140427857Y-56853200D02*
X140285000Y-56900819D01*
X140285000Y-56900819D02*
X140046905Y-56900819D01*
X141523095Y-55900819D02*
X141046905Y-55900819D01*
X141046905Y-55900819D02*
X140999286Y-56377009D01*
X140999286Y-56377009D02*
X141046905Y-56329390D01*
X141046905Y-56329390D02*
X141142143Y-56281771D01*
X141142143Y-56281771D02*
X141380238Y-56281771D01*
X141380238Y-56281771D02*
X141475476Y-56329390D01*
X141475476Y-56329390D02*
X141523095Y-56377009D01*
X141523095Y-56377009D02*
X141570714Y-56472247D01*
X141570714Y-56472247D02*
X141570714Y-56710342D01*
X141570714Y-56710342D02*
X141523095Y-56805580D01*
X141523095Y-56805580D02*
X141475476Y-56853200D01*
X141475476Y-56853200D02*
X141380238Y-56900819D01*
X141380238Y-56900819D02*
X141142143Y-56900819D01*
X141142143Y-56900819D02*
X141046905Y-56853200D01*
X141046905Y-56853200D02*
X140999286Y-56805580D01*
X115857200Y-113358207D02*
X115904819Y-113215350D01*
X115904819Y-113215350D02*
X115904819Y-112977255D01*
X115904819Y-112977255D02*
X115857200Y-112882017D01*
X115857200Y-112882017D02*
X115809580Y-112834398D01*
X115809580Y-112834398D02*
X115714342Y-112786779D01*
X115714342Y-112786779D02*
X115619104Y-112786779D01*
X115619104Y-112786779D02*
X115523866Y-112834398D01*
X115523866Y-112834398D02*
X115476247Y-112882017D01*
X115476247Y-112882017D02*
X115428628Y-112977255D01*
X115428628Y-112977255D02*
X115381009Y-113167731D01*
X115381009Y-113167731D02*
X115333390Y-113262969D01*
X115333390Y-113262969D02*
X115285771Y-113310588D01*
X115285771Y-113310588D02*
X115190533Y-113358207D01*
X115190533Y-113358207D02*
X115095295Y-113358207D01*
X115095295Y-113358207D02*
X115000057Y-113310588D01*
X115000057Y-113310588D02*
X114952438Y-113262969D01*
X114952438Y-113262969D02*
X114904819Y-113167731D01*
X114904819Y-113167731D02*
X114904819Y-112929636D01*
X114904819Y-112929636D02*
X114952438Y-112786779D01*
X114904819Y-112453445D02*
X115904819Y-112215350D01*
X115904819Y-112215350D02*
X115190533Y-112024874D01*
X115190533Y-112024874D02*
X115904819Y-111834398D01*
X115904819Y-111834398D02*
X114904819Y-111596303D01*
X115000057Y-111262969D02*
X114952438Y-111215350D01*
X114952438Y-111215350D02*
X114904819Y-111120112D01*
X114904819Y-111120112D02*
X114904819Y-110882017D01*
X114904819Y-110882017D02*
X114952438Y-110786779D01*
X114952438Y-110786779D02*
X115000057Y-110739160D01*
X115000057Y-110739160D02*
X115095295Y-110691541D01*
X115095295Y-110691541D02*
X115190533Y-110691541D01*
X115190533Y-110691541D02*
X115333390Y-110739160D01*
X115333390Y-110739160D02*
X115904819Y-111310588D01*
X115904819Y-111310588D02*
X115904819Y-110691541D01*
X115000057Y-110310588D02*
X114952438Y-110262969D01*
X114952438Y-110262969D02*
X114904819Y-110167731D01*
X114904819Y-110167731D02*
X114904819Y-109929636D01*
X114904819Y-109929636D02*
X114952438Y-109834398D01*
X114952438Y-109834398D02*
X115000057Y-109786779D01*
X115000057Y-109786779D02*
X115095295Y-109739160D01*
X115095295Y-109739160D02*
X115190533Y-109739160D01*
X115190533Y-109739160D02*
X115333390Y-109786779D01*
X115333390Y-109786779D02*
X115904819Y-110358207D01*
X115904819Y-110358207D02*
X115904819Y-109739160D01*
X77757200Y-110818207D02*
X77804819Y-110675350D01*
X77804819Y-110675350D02*
X77804819Y-110437255D01*
X77804819Y-110437255D02*
X77757200Y-110342017D01*
X77757200Y-110342017D02*
X77709580Y-110294398D01*
X77709580Y-110294398D02*
X77614342Y-110246779D01*
X77614342Y-110246779D02*
X77519104Y-110246779D01*
X77519104Y-110246779D02*
X77423866Y-110294398D01*
X77423866Y-110294398D02*
X77376247Y-110342017D01*
X77376247Y-110342017D02*
X77328628Y-110437255D01*
X77328628Y-110437255D02*
X77281009Y-110627731D01*
X77281009Y-110627731D02*
X77233390Y-110722969D01*
X77233390Y-110722969D02*
X77185771Y-110770588D01*
X77185771Y-110770588D02*
X77090533Y-110818207D01*
X77090533Y-110818207D02*
X76995295Y-110818207D01*
X76995295Y-110818207D02*
X76900057Y-110770588D01*
X76900057Y-110770588D02*
X76852438Y-110722969D01*
X76852438Y-110722969D02*
X76804819Y-110627731D01*
X76804819Y-110627731D02*
X76804819Y-110389636D01*
X76804819Y-110389636D02*
X76852438Y-110246779D01*
X76804819Y-109913445D02*
X77804819Y-109675350D01*
X77804819Y-109675350D02*
X77090533Y-109484874D01*
X77090533Y-109484874D02*
X77804819Y-109294398D01*
X77804819Y-109294398D02*
X76804819Y-109056303D01*
X77804819Y-108151541D02*
X77804819Y-108722969D01*
X77804819Y-108437255D02*
X76804819Y-108437255D01*
X76804819Y-108437255D02*
X76947676Y-108532493D01*
X76947676Y-108532493D02*
X77042914Y-108627731D01*
X77042914Y-108627731D02*
X77090533Y-108722969D01*
X76900057Y-107770588D02*
X76852438Y-107722969D01*
X76852438Y-107722969D02*
X76804819Y-107627731D01*
X76804819Y-107627731D02*
X76804819Y-107389636D01*
X76804819Y-107389636D02*
X76852438Y-107294398D01*
X76852438Y-107294398D02*
X76900057Y-107246779D01*
X76900057Y-107246779D02*
X76995295Y-107199160D01*
X76995295Y-107199160D02*
X77090533Y-107199160D01*
X77090533Y-107199160D02*
X77233390Y-107246779D01*
X77233390Y-107246779D02*
X77804819Y-107818207D01*
X77804819Y-107818207D02*
X77804819Y-107199160D01*
X115857200Y-75258207D02*
X115904819Y-75115350D01*
X115904819Y-75115350D02*
X115904819Y-74877255D01*
X115904819Y-74877255D02*
X115857200Y-74782017D01*
X115857200Y-74782017D02*
X115809580Y-74734398D01*
X115809580Y-74734398D02*
X115714342Y-74686779D01*
X115714342Y-74686779D02*
X115619104Y-74686779D01*
X115619104Y-74686779D02*
X115523866Y-74734398D01*
X115523866Y-74734398D02*
X115476247Y-74782017D01*
X115476247Y-74782017D02*
X115428628Y-74877255D01*
X115428628Y-74877255D02*
X115381009Y-75067731D01*
X115381009Y-75067731D02*
X115333390Y-75162969D01*
X115333390Y-75162969D02*
X115285771Y-75210588D01*
X115285771Y-75210588D02*
X115190533Y-75258207D01*
X115190533Y-75258207D02*
X115095295Y-75258207D01*
X115095295Y-75258207D02*
X115000057Y-75210588D01*
X115000057Y-75210588D02*
X114952438Y-75162969D01*
X114952438Y-75162969D02*
X114904819Y-75067731D01*
X114904819Y-75067731D02*
X114904819Y-74829636D01*
X114904819Y-74829636D02*
X114952438Y-74686779D01*
X114904819Y-74353445D02*
X115904819Y-74115350D01*
X115904819Y-74115350D02*
X115190533Y-73924874D01*
X115190533Y-73924874D02*
X115904819Y-73734398D01*
X115904819Y-73734398D02*
X114904819Y-73496303D01*
X115000057Y-73162969D02*
X114952438Y-73115350D01*
X114952438Y-73115350D02*
X114904819Y-73020112D01*
X114904819Y-73020112D02*
X114904819Y-72782017D01*
X114904819Y-72782017D02*
X114952438Y-72686779D01*
X114952438Y-72686779D02*
X115000057Y-72639160D01*
X115000057Y-72639160D02*
X115095295Y-72591541D01*
X115095295Y-72591541D02*
X115190533Y-72591541D01*
X115190533Y-72591541D02*
X115333390Y-72639160D01*
X115333390Y-72639160D02*
X115904819Y-73210588D01*
X115904819Y-73210588D02*
X115904819Y-72591541D01*
X115238152Y-71734398D02*
X115904819Y-71734398D01*
X114857200Y-71972493D02*
X115571485Y-72210588D01*
X115571485Y-72210588D02*
X115571485Y-71591541D01*
X148373333Y-108987819D02*
X148040000Y-108511628D01*
X147801905Y-108987819D02*
X147801905Y-107987819D01*
X147801905Y-107987819D02*
X148182857Y-107987819D01*
X148182857Y-107987819D02*
X148278095Y-108035438D01*
X148278095Y-108035438D02*
X148325714Y-108083057D01*
X148325714Y-108083057D02*
X148373333Y-108178295D01*
X148373333Y-108178295D02*
X148373333Y-108321152D01*
X148373333Y-108321152D02*
X148325714Y-108416390D01*
X148325714Y-108416390D02*
X148278095Y-108464009D01*
X148278095Y-108464009D02*
X148182857Y-108511628D01*
X148182857Y-108511628D02*
X147801905Y-108511628D01*
X148706667Y-107987819D02*
X149325714Y-107987819D01*
X149325714Y-107987819D02*
X148992381Y-108368771D01*
X148992381Y-108368771D02*
X149135238Y-108368771D01*
X149135238Y-108368771D02*
X149230476Y-108416390D01*
X149230476Y-108416390D02*
X149278095Y-108464009D01*
X149278095Y-108464009D02*
X149325714Y-108559247D01*
X149325714Y-108559247D02*
X149325714Y-108797342D01*
X149325714Y-108797342D02*
X149278095Y-108892580D01*
X149278095Y-108892580D02*
X149230476Y-108940200D01*
X149230476Y-108940200D02*
X149135238Y-108987819D01*
X149135238Y-108987819D02*
X148849524Y-108987819D01*
X148849524Y-108987819D02*
X148754286Y-108940200D01*
X148754286Y-108940200D02*
X148706667Y-108892580D01*
X77757200Y-91768207D02*
X77804819Y-91625350D01*
X77804819Y-91625350D02*
X77804819Y-91387255D01*
X77804819Y-91387255D02*
X77757200Y-91292017D01*
X77757200Y-91292017D02*
X77709580Y-91244398D01*
X77709580Y-91244398D02*
X77614342Y-91196779D01*
X77614342Y-91196779D02*
X77519104Y-91196779D01*
X77519104Y-91196779D02*
X77423866Y-91244398D01*
X77423866Y-91244398D02*
X77376247Y-91292017D01*
X77376247Y-91292017D02*
X77328628Y-91387255D01*
X77328628Y-91387255D02*
X77281009Y-91577731D01*
X77281009Y-91577731D02*
X77233390Y-91672969D01*
X77233390Y-91672969D02*
X77185771Y-91720588D01*
X77185771Y-91720588D02*
X77090533Y-91768207D01*
X77090533Y-91768207D02*
X76995295Y-91768207D01*
X76995295Y-91768207D02*
X76900057Y-91720588D01*
X76900057Y-91720588D02*
X76852438Y-91672969D01*
X76852438Y-91672969D02*
X76804819Y-91577731D01*
X76804819Y-91577731D02*
X76804819Y-91339636D01*
X76804819Y-91339636D02*
X76852438Y-91196779D01*
X76804819Y-90863445D02*
X77804819Y-90625350D01*
X77804819Y-90625350D02*
X77090533Y-90434874D01*
X77090533Y-90434874D02*
X77804819Y-90244398D01*
X77804819Y-90244398D02*
X76804819Y-90006303D01*
X77804819Y-89101541D02*
X77804819Y-89672969D01*
X77804819Y-89387255D02*
X76804819Y-89387255D01*
X76804819Y-89387255D02*
X76947676Y-89482493D01*
X76947676Y-89482493D02*
X77042914Y-89577731D01*
X77042914Y-89577731D02*
X77090533Y-89672969D01*
X76804819Y-88768207D02*
X76804819Y-88149160D01*
X76804819Y-88149160D02*
X77185771Y-88482493D01*
X77185771Y-88482493D02*
X77185771Y-88339636D01*
X77185771Y-88339636D02*
X77233390Y-88244398D01*
X77233390Y-88244398D02*
X77281009Y-88196779D01*
X77281009Y-88196779D02*
X77376247Y-88149160D01*
X77376247Y-88149160D02*
X77614342Y-88149160D01*
X77614342Y-88149160D02*
X77709580Y-88196779D01*
X77709580Y-88196779D02*
X77757200Y-88244398D01*
X77757200Y-88244398D02*
X77804819Y-88339636D01*
X77804819Y-88339636D02*
X77804819Y-88625350D01*
X77804819Y-88625350D02*
X77757200Y-88720588D01*
X77757200Y-88720588D02*
X77709580Y-88768207D01*
X96807200Y-48270707D02*
X96854819Y-48127850D01*
X96854819Y-48127850D02*
X96854819Y-47889755D01*
X96854819Y-47889755D02*
X96807200Y-47794517D01*
X96807200Y-47794517D02*
X96759580Y-47746898D01*
X96759580Y-47746898D02*
X96664342Y-47699279D01*
X96664342Y-47699279D02*
X96569104Y-47699279D01*
X96569104Y-47699279D02*
X96473866Y-47746898D01*
X96473866Y-47746898D02*
X96426247Y-47794517D01*
X96426247Y-47794517D02*
X96378628Y-47889755D01*
X96378628Y-47889755D02*
X96331009Y-48080231D01*
X96331009Y-48080231D02*
X96283390Y-48175469D01*
X96283390Y-48175469D02*
X96235771Y-48223088D01*
X96235771Y-48223088D02*
X96140533Y-48270707D01*
X96140533Y-48270707D02*
X96045295Y-48270707D01*
X96045295Y-48270707D02*
X95950057Y-48223088D01*
X95950057Y-48223088D02*
X95902438Y-48175469D01*
X95902438Y-48175469D02*
X95854819Y-48080231D01*
X95854819Y-48080231D02*
X95854819Y-47842136D01*
X95854819Y-47842136D02*
X95902438Y-47699279D01*
X95854819Y-47365945D02*
X96854819Y-47127850D01*
X96854819Y-47127850D02*
X96140533Y-46937374D01*
X96140533Y-46937374D02*
X96854819Y-46746898D01*
X96854819Y-46746898D02*
X95854819Y-46508803D01*
X95950057Y-46175469D02*
X95902438Y-46127850D01*
X95902438Y-46127850D02*
X95854819Y-46032612D01*
X95854819Y-46032612D02*
X95854819Y-45794517D01*
X95854819Y-45794517D02*
X95902438Y-45699279D01*
X95902438Y-45699279D02*
X95950057Y-45651660D01*
X95950057Y-45651660D02*
X96045295Y-45604041D01*
X96045295Y-45604041D02*
X96140533Y-45604041D01*
X96140533Y-45604041D02*
X96283390Y-45651660D01*
X96283390Y-45651660D02*
X96854819Y-46223088D01*
X96854819Y-46223088D02*
X96854819Y-45604041D01*
X95854819Y-44984993D02*
X95854819Y-44889755D01*
X95854819Y-44889755D02*
X95902438Y-44794517D01*
X95902438Y-44794517D02*
X95950057Y-44746898D01*
X95950057Y-44746898D02*
X96045295Y-44699279D01*
X96045295Y-44699279D02*
X96235771Y-44651660D01*
X96235771Y-44651660D02*
X96473866Y-44651660D01*
X96473866Y-44651660D02*
X96664342Y-44699279D01*
X96664342Y-44699279D02*
X96759580Y-44746898D01*
X96759580Y-44746898D02*
X96807200Y-44794517D01*
X96807200Y-44794517D02*
X96854819Y-44889755D01*
X96854819Y-44889755D02*
X96854819Y-44984993D01*
X96854819Y-44984993D02*
X96807200Y-45080231D01*
X96807200Y-45080231D02*
X96759580Y-45127850D01*
X96759580Y-45127850D02*
X96664342Y-45175469D01*
X96664342Y-45175469D02*
X96473866Y-45223088D01*
X96473866Y-45223088D02*
X96235771Y-45223088D01*
X96235771Y-45223088D02*
X96045295Y-45175469D01*
X96045295Y-45175469D02*
X95950057Y-45127850D01*
X95950057Y-45127850D02*
X95902438Y-45080231D01*
X95902438Y-45080231D02*
X95854819Y-44984993D01*
X134907200Y-75258207D02*
X134954819Y-75115350D01*
X134954819Y-75115350D02*
X134954819Y-74877255D01*
X134954819Y-74877255D02*
X134907200Y-74782017D01*
X134907200Y-74782017D02*
X134859580Y-74734398D01*
X134859580Y-74734398D02*
X134764342Y-74686779D01*
X134764342Y-74686779D02*
X134669104Y-74686779D01*
X134669104Y-74686779D02*
X134573866Y-74734398D01*
X134573866Y-74734398D02*
X134526247Y-74782017D01*
X134526247Y-74782017D02*
X134478628Y-74877255D01*
X134478628Y-74877255D02*
X134431009Y-75067731D01*
X134431009Y-75067731D02*
X134383390Y-75162969D01*
X134383390Y-75162969D02*
X134335771Y-75210588D01*
X134335771Y-75210588D02*
X134240533Y-75258207D01*
X134240533Y-75258207D02*
X134145295Y-75258207D01*
X134145295Y-75258207D02*
X134050057Y-75210588D01*
X134050057Y-75210588D02*
X134002438Y-75162969D01*
X134002438Y-75162969D02*
X133954819Y-75067731D01*
X133954819Y-75067731D02*
X133954819Y-74829636D01*
X133954819Y-74829636D02*
X134002438Y-74686779D01*
X133954819Y-74353445D02*
X134954819Y-74115350D01*
X134954819Y-74115350D02*
X134240533Y-73924874D01*
X134240533Y-73924874D02*
X134954819Y-73734398D01*
X134954819Y-73734398D02*
X133954819Y-73496303D01*
X134050057Y-73162969D02*
X134002438Y-73115350D01*
X134002438Y-73115350D02*
X133954819Y-73020112D01*
X133954819Y-73020112D02*
X133954819Y-72782017D01*
X133954819Y-72782017D02*
X134002438Y-72686779D01*
X134002438Y-72686779D02*
X134050057Y-72639160D01*
X134050057Y-72639160D02*
X134145295Y-72591541D01*
X134145295Y-72591541D02*
X134240533Y-72591541D01*
X134240533Y-72591541D02*
X134383390Y-72639160D01*
X134383390Y-72639160D02*
X134954819Y-73210588D01*
X134954819Y-73210588D02*
X134954819Y-72591541D01*
X134954819Y-72115350D02*
X134954819Y-71924874D01*
X134954819Y-71924874D02*
X134907200Y-71829636D01*
X134907200Y-71829636D02*
X134859580Y-71782017D01*
X134859580Y-71782017D02*
X134716723Y-71686779D01*
X134716723Y-71686779D02*
X134526247Y-71639160D01*
X134526247Y-71639160D02*
X134145295Y-71639160D01*
X134145295Y-71639160D02*
X134050057Y-71686779D01*
X134050057Y-71686779D02*
X134002438Y-71734398D01*
X134002438Y-71734398D02*
X133954819Y-71829636D01*
X133954819Y-71829636D02*
X133954819Y-72020112D01*
X133954819Y-72020112D02*
X134002438Y-72115350D01*
X134002438Y-72115350D02*
X134050057Y-72162969D01*
X134050057Y-72162969D02*
X134145295Y-72210588D01*
X134145295Y-72210588D02*
X134383390Y-72210588D01*
X134383390Y-72210588D02*
X134478628Y-72162969D01*
X134478628Y-72162969D02*
X134526247Y-72115350D01*
X134526247Y-72115350D02*
X134573866Y-72020112D01*
X134573866Y-72020112D02*
X134573866Y-71829636D01*
X134573866Y-71829636D02*
X134526247Y-71734398D01*
X134526247Y-71734398D02*
X134478628Y-71686779D01*
X134478628Y-71686779D02*
X134383390Y-71639160D01*
X58554987Y-66632785D02*
X58602606Y-66489928D01*
X58602606Y-66489928D02*
X58602606Y-66251833D01*
X58602606Y-66251833D02*
X58554987Y-66156595D01*
X58554987Y-66156595D02*
X58507367Y-66108976D01*
X58507367Y-66108976D02*
X58412129Y-66061357D01*
X58412129Y-66061357D02*
X58316891Y-66061357D01*
X58316891Y-66061357D02*
X58221653Y-66108976D01*
X58221653Y-66108976D02*
X58174034Y-66156595D01*
X58174034Y-66156595D02*
X58126415Y-66251833D01*
X58126415Y-66251833D02*
X58078796Y-66442309D01*
X58078796Y-66442309D02*
X58031177Y-66537547D01*
X58031177Y-66537547D02*
X57983558Y-66585166D01*
X57983558Y-66585166D02*
X57888320Y-66632785D01*
X57888320Y-66632785D02*
X57793082Y-66632785D01*
X57793082Y-66632785D02*
X57697844Y-66585166D01*
X57697844Y-66585166D02*
X57650225Y-66537547D01*
X57650225Y-66537547D02*
X57602606Y-66442309D01*
X57602606Y-66442309D02*
X57602606Y-66204214D01*
X57602606Y-66204214D02*
X57650225Y-66061357D01*
X57602606Y-65728023D02*
X58602606Y-65489928D01*
X58602606Y-65489928D02*
X57888320Y-65299452D01*
X57888320Y-65299452D02*
X58602606Y-65108976D01*
X58602606Y-65108976D02*
X57602606Y-64870881D01*
X58602606Y-63966119D02*
X58602606Y-64537547D01*
X58602606Y-64251833D02*
X57602606Y-64251833D01*
X57602606Y-64251833D02*
X57745463Y-64347071D01*
X57745463Y-64347071D02*
X57840701Y-64442309D01*
X57840701Y-64442309D02*
X57888320Y-64537547D01*
X57602606Y-63347071D02*
X57602606Y-63251833D01*
X57602606Y-63251833D02*
X57650225Y-63156595D01*
X57650225Y-63156595D02*
X57697844Y-63108976D01*
X57697844Y-63108976D02*
X57793082Y-63061357D01*
X57793082Y-63061357D02*
X57983558Y-63013738D01*
X57983558Y-63013738D02*
X58221653Y-63013738D01*
X58221653Y-63013738D02*
X58412129Y-63061357D01*
X58412129Y-63061357D02*
X58507367Y-63108976D01*
X58507367Y-63108976D02*
X58554987Y-63156595D01*
X58554987Y-63156595D02*
X58602606Y-63251833D01*
X58602606Y-63251833D02*
X58602606Y-63347071D01*
X58602606Y-63347071D02*
X58554987Y-63442309D01*
X58554987Y-63442309D02*
X58507367Y-63489928D01*
X58507367Y-63489928D02*
X58412129Y-63537547D01*
X58412129Y-63537547D02*
X58221653Y-63585166D01*
X58221653Y-63585166D02*
X57983558Y-63585166D01*
X57983558Y-63585166D02*
X57793082Y-63537547D01*
X57793082Y-63537547D02*
X57697844Y-63489928D01*
X57697844Y-63489928D02*
X57650225Y-63442309D01*
X57650225Y-63442309D02*
X57602606Y-63347071D01*
X140638333Y-59584819D02*
X140305000Y-59108628D01*
X140066905Y-59584819D02*
X140066905Y-58584819D01*
X140066905Y-58584819D02*
X140447857Y-58584819D01*
X140447857Y-58584819D02*
X140543095Y-58632438D01*
X140543095Y-58632438D02*
X140590714Y-58680057D01*
X140590714Y-58680057D02*
X140638333Y-58775295D01*
X140638333Y-58775295D02*
X140638333Y-58918152D01*
X140638333Y-58918152D02*
X140590714Y-59013390D01*
X140590714Y-59013390D02*
X140543095Y-59061009D01*
X140543095Y-59061009D02*
X140447857Y-59108628D01*
X140447857Y-59108628D02*
X140066905Y-59108628D01*
X141495476Y-58584819D02*
X141305000Y-58584819D01*
X141305000Y-58584819D02*
X141209762Y-58632438D01*
X141209762Y-58632438D02*
X141162143Y-58680057D01*
X141162143Y-58680057D02*
X141066905Y-58822914D01*
X141066905Y-58822914D02*
X141019286Y-59013390D01*
X141019286Y-59013390D02*
X141019286Y-59394342D01*
X141019286Y-59394342D02*
X141066905Y-59489580D01*
X141066905Y-59489580D02*
X141114524Y-59537200D01*
X141114524Y-59537200D02*
X141209762Y-59584819D01*
X141209762Y-59584819D02*
X141400238Y-59584819D01*
X141400238Y-59584819D02*
X141495476Y-59537200D01*
X141495476Y-59537200D02*
X141543095Y-59489580D01*
X141543095Y-59489580D02*
X141590714Y-59394342D01*
X141590714Y-59394342D02*
X141590714Y-59156247D01*
X141590714Y-59156247D02*
X141543095Y-59061009D01*
X141543095Y-59061009D02*
X141495476Y-59013390D01*
X141495476Y-59013390D02*
X141400238Y-58965771D01*
X141400238Y-58965771D02*
X141209762Y-58965771D01*
X141209762Y-58965771D02*
X141114524Y-59013390D01*
X141114524Y-59013390D02*
X141066905Y-59061009D01*
X141066905Y-59061009D02*
X141019286Y-59156247D01*
X39657200Y-85735826D02*
X39704819Y-85592969D01*
X39704819Y-85592969D02*
X39704819Y-85354874D01*
X39704819Y-85354874D02*
X39657200Y-85259636D01*
X39657200Y-85259636D02*
X39609580Y-85212017D01*
X39609580Y-85212017D02*
X39514342Y-85164398D01*
X39514342Y-85164398D02*
X39419104Y-85164398D01*
X39419104Y-85164398D02*
X39323866Y-85212017D01*
X39323866Y-85212017D02*
X39276247Y-85259636D01*
X39276247Y-85259636D02*
X39228628Y-85354874D01*
X39228628Y-85354874D02*
X39181009Y-85545350D01*
X39181009Y-85545350D02*
X39133390Y-85640588D01*
X39133390Y-85640588D02*
X39085771Y-85688207D01*
X39085771Y-85688207D02*
X38990533Y-85735826D01*
X38990533Y-85735826D02*
X38895295Y-85735826D01*
X38895295Y-85735826D02*
X38800057Y-85688207D01*
X38800057Y-85688207D02*
X38752438Y-85640588D01*
X38752438Y-85640588D02*
X38704819Y-85545350D01*
X38704819Y-85545350D02*
X38704819Y-85307255D01*
X38704819Y-85307255D02*
X38752438Y-85164398D01*
X38704819Y-84831064D02*
X39704819Y-84592969D01*
X39704819Y-84592969D02*
X38990533Y-84402493D01*
X38990533Y-84402493D02*
X39704819Y-84212017D01*
X39704819Y-84212017D02*
X38704819Y-83973922D01*
X39038152Y-83164398D02*
X39704819Y-83164398D01*
X38657200Y-83402493D02*
X39371485Y-83640588D01*
X39371485Y-83640588D02*
X39371485Y-83021541D01*
X146972200Y-151458207D02*
X147019819Y-151315350D01*
X147019819Y-151315350D02*
X147019819Y-151077255D01*
X147019819Y-151077255D02*
X146972200Y-150982017D01*
X146972200Y-150982017D02*
X146924580Y-150934398D01*
X146924580Y-150934398D02*
X146829342Y-150886779D01*
X146829342Y-150886779D02*
X146734104Y-150886779D01*
X146734104Y-150886779D02*
X146638866Y-150934398D01*
X146638866Y-150934398D02*
X146591247Y-150982017D01*
X146591247Y-150982017D02*
X146543628Y-151077255D01*
X146543628Y-151077255D02*
X146496009Y-151267731D01*
X146496009Y-151267731D02*
X146448390Y-151362969D01*
X146448390Y-151362969D02*
X146400771Y-151410588D01*
X146400771Y-151410588D02*
X146305533Y-151458207D01*
X146305533Y-151458207D02*
X146210295Y-151458207D01*
X146210295Y-151458207D02*
X146115057Y-151410588D01*
X146115057Y-151410588D02*
X146067438Y-151362969D01*
X146067438Y-151362969D02*
X146019819Y-151267731D01*
X146019819Y-151267731D02*
X146019819Y-151029636D01*
X146019819Y-151029636D02*
X146067438Y-150886779D01*
X146019819Y-150553445D02*
X147019819Y-150315350D01*
X147019819Y-150315350D02*
X146305533Y-150124874D01*
X146305533Y-150124874D02*
X147019819Y-149934398D01*
X147019819Y-149934398D02*
X146019819Y-149696303D01*
X147019819Y-148791541D02*
X147019819Y-149362969D01*
X147019819Y-149077255D02*
X146019819Y-149077255D01*
X146019819Y-149077255D02*
X146162676Y-149172493D01*
X146162676Y-149172493D02*
X146257914Y-149267731D01*
X146257914Y-149267731D02*
X146305533Y-149362969D01*
X147019819Y-147839160D02*
X147019819Y-148410588D01*
X147019819Y-148124874D02*
X146019819Y-148124874D01*
X146019819Y-148124874D02*
X146162676Y-148220112D01*
X146162676Y-148220112D02*
X146257914Y-148315350D01*
X146257914Y-148315350D02*
X146305533Y-148410588D01*
X58707200Y-123835826D02*
X58754819Y-123692969D01*
X58754819Y-123692969D02*
X58754819Y-123454874D01*
X58754819Y-123454874D02*
X58707200Y-123359636D01*
X58707200Y-123359636D02*
X58659580Y-123312017D01*
X58659580Y-123312017D02*
X58564342Y-123264398D01*
X58564342Y-123264398D02*
X58469104Y-123264398D01*
X58469104Y-123264398D02*
X58373866Y-123312017D01*
X58373866Y-123312017D02*
X58326247Y-123359636D01*
X58326247Y-123359636D02*
X58278628Y-123454874D01*
X58278628Y-123454874D02*
X58231009Y-123645350D01*
X58231009Y-123645350D02*
X58183390Y-123740588D01*
X58183390Y-123740588D02*
X58135771Y-123788207D01*
X58135771Y-123788207D02*
X58040533Y-123835826D01*
X58040533Y-123835826D02*
X57945295Y-123835826D01*
X57945295Y-123835826D02*
X57850057Y-123788207D01*
X57850057Y-123788207D02*
X57802438Y-123740588D01*
X57802438Y-123740588D02*
X57754819Y-123645350D01*
X57754819Y-123645350D02*
X57754819Y-123407255D01*
X57754819Y-123407255D02*
X57802438Y-123264398D01*
X57754819Y-122931064D02*
X58754819Y-122692969D01*
X58754819Y-122692969D02*
X58040533Y-122502493D01*
X58040533Y-122502493D02*
X58754819Y-122312017D01*
X58754819Y-122312017D02*
X57754819Y-122073922D01*
X57754819Y-121788207D02*
X57754819Y-121121541D01*
X57754819Y-121121541D02*
X58754819Y-121550112D01*
X39657200Y-123835826D02*
X39704819Y-123692969D01*
X39704819Y-123692969D02*
X39704819Y-123454874D01*
X39704819Y-123454874D02*
X39657200Y-123359636D01*
X39657200Y-123359636D02*
X39609580Y-123312017D01*
X39609580Y-123312017D02*
X39514342Y-123264398D01*
X39514342Y-123264398D02*
X39419104Y-123264398D01*
X39419104Y-123264398D02*
X39323866Y-123312017D01*
X39323866Y-123312017D02*
X39276247Y-123359636D01*
X39276247Y-123359636D02*
X39228628Y-123454874D01*
X39228628Y-123454874D02*
X39181009Y-123645350D01*
X39181009Y-123645350D02*
X39133390Y-123740588D01*
X39133390Y-123740588D02*
X39085771Y-123788207D01*
X39085771Y-123788207D02*
X38990533Y-123835826D01*
X38990533Y-123835826D02*
X38895295Y-123835826D01*
X38895295Y-123835826D02*
X38800057Y-123788207D01*
X38800057Y-123788207D02*
X38752438Y-123740588D01*
X38752438Y-123740588D02*
X38704819Y-123645350D01*
X38704819Y-123645350D02*
X38704819Y-123407255D01*
X38704819Y-123407255D02*
X38752438Y-123264398D01*
X38704819Y-122931064D02*
X39704819Y-122692969D01*
X39704819Y-122692969D02*
X38990533Y-122502493D01*
X38990533Y-122502493D02*
X39704819Y-122312017D01*
X39704819Y-122312017D02*
X38704819Y-122073922D01*
X38800057Y-121740588D02*
X38752438Y-121692969D01*
X38752438Y-121692969D02*
X38704819Y-121597731D01*
X38704819Y-121597731D02*
X38704819Y-121359636D01*
X38704819Y-121359636D02*
X38752438Y-121264398D01*
X38752438Y-121264398D02*
X38800057Y-121216779D01*
X38800057Y-121216779D02*
X38895295Y-121169160D01*
X38895295Y-121169160D02*
X38990533Y-121169160D01*
X38990533Y-121169160D02*
X39133390Y-121216779D01*
X39133390Y-121216779D02*
X39704819Y-121788207D01*
X39704819Y-121788207D02*
X39704819Y-121169160D01*
X139590714Y-47932819D02*
X139590714Y-46932819D01*
X139590714Y-46932819D02*
X139828809Y-46932819D01*
X139828809Y-46932819D02*
X139971666Y-46980438D01*
X139971666Y-46980438D02*
X140066904Y-47075676D01*
X140066904Y-47075676D02*
X140114523Y-47170914D01*
X140114523Y-47170914D02*
X140162142Y-47361390D01*
X140162142Y-47361390D02*
X140162142Y-47504247D01*
X140162142Y-47504247D02*
X140114523Y-47694723D01*
X140114523Y-47694723D02*
X140066904Y-47789961D01*
X140066904Y-47789961D02*
X139971666Y-47885200D01*
X139971666Y-47885200D02*
X139828809Y-47932819D01*
X139828809Y-47932819D02*
X139590714Y-47932819D01*
X140495476Y-46932819D02*
X141114523Y-46932819D01*
X141114523Y-46932819D02*
X140781190Y-47313771D01*
X140781190Y-47313771D02*
X140924047Y-47313771D01*
X140924047Y-47313771D02*
X141019285Y-47361390D01*
X141019285Y-47361390D02*
X141066904Y-47409009D01*
X141066904Y-47409009D02*
X141114523Y-47504247D01*
X141114523Y-47504247D02*
X141114523Y-47742342D01*
X141114523Y-47742342D02*
X141066904Y-47837580D01*
X141066904Y-47837580D02*
X141019285Y-47885200D01*
X141019285Y-47885200D02*
X140924047Y-47932819D01*
X140924047Y-47932819D02*
X140638333Y-47932819D01*
X140638333Y-47932819D02*
X140543095Y-47885200D01*
X140543095Y-47885200D02*
X140495476Y-47837580D01*
X142066904Y-47932819D02*
X141495476Y-47932819D01*
X141781190Y-47932819D02*
X141781190Y-46932819D01*
X141781190Y-46932819D02*
X141685952Y-47075676D01*
X141685952Y-47075676D02*
X141590714Y-47170914D01*
X141590714Y-47170914D02*
X141495476Y-47218533D01*
X146972200Y-132408207D02*
X147019819Y-132265350D01*
X147019819Y-132265350D02*
X147019819Y-132027255D01*
X147019819Y-132027255D02*
X146972200Y-131932017D01*
X146972200Y-131932017D02*
X146924580Y-131884398D01*
X146924580Y-131884398D02*
X146829342Y-131836779D01*
X146829342Y-131836779D02*
X146734104Y-131836779D01*
X146734104Y-131836779D02*
X146638866Y-131884398D01*
X146638866Y-131884398D02*
X146591247Y-131932017D01*
X146591247Y-131932017D02*
X146543628Y-132027255D01*
X146543628Y-132027255D02*
X146496009Y-132217731D01*
X146496009Y-132217731D02*
X146448390Y-132312969D01*
X146448390Y-132312969D02*
X146400771Y-132360588D01*
X146400771Y-132360588D02*
X146305533Y-132408207D01*
X146305533Y-132408207D02*
X146210295Y-132408207D01*
X146210295Y-132408207D02*
X146115057Y-132360588D01*
X146115057Y-132360588D02*
X146067438Y-132312969D01*
X146067438Y-132312969D02*
X146019819Y-132217731D01*
X146019819Y-132217731D02*
X146019819Y-131979636D01*
X146019819Y-131979636D02*
X146067438Y-131836779D01*
X146019819Y-131503445D02*
X147019819Y-131265350D01*
X147019819Y-131265350D02*
X146305533Y-131074874D01*
X146305533Y-131074874D02*
X147019819Y-130884398D01*
X147019819Y-130884398D02*
X146019819Y-130646303D01*
X146115057Y-130312969D02*
X146067438Y-130265350D01*
X146067438Y-130265350D02*
X146019819Y-130170112D01*
X146019819Y-130170112D02*
X146019819Y-129932017D01*
X146019819Y-129932017D02*
X146067438Y-129836779D01*
X146067438Y-129836779D02*
X146115057Y-129789160D01*
X146115057Y-129789160D02*
X146210295Y-129741541D01*
X146210295Y-129741541D02*
X146305533Y-129741541D01*
X146305533Y-129741541D02*
X146448390Y-129789160D01*
X146448390Y-129789160D02*
X147019819Y-130360588D01*
X147019819Y-130360588D02*
X147019819Y-129741541D01*
X147019819Y-128789160D02*
X147019819Y-129360588D01*
X147019819Y-129074874D02*
X146019819Y-129074874D01*
X146019819Y-129074874D02*
X146162676Y-129170112D01*
X146162676Y-129170112D02*
X146257914Y-129265350D01*
X146257914Y-129265350D02*
X146305533Y-129360588D01*
X148373333Y-106487819D02*
X148040000Y-106011628D01*
X147801905Y-106487819D02*
X147801905Y-105487819D01*
X147801905Y-105487819D02*
X148182857Y-105487819D01*
X148182857Y-105487819D02*
X148278095Y-105535438D01*
X148278095Y-105535438D02*
X148325714Y-105583057D01*
X148325714Y-105583057D02*
X148373333Y-105678295D01*
X148373333Y-105678295D02*
X148373333Y-105821152D01*
X148373333Y-105821152D02*
X148325714Y-105916390D01*
X148325714Y-105916390D02*
X148278095Y-105964009D01*
X148278095Y-105964009D02*
X148182857Y-106011628D01*
X148182857Y-106011628D02*
X147801905Y-106011628D01*
X149230476Y-105821152D02*
X149230476Y-106487819D01*
X148992381Y-105440200D02*
X148754286Y-106154485D01*
X148754286Y-106154485D02*
X149373333Y-106154485D01*
X164367200Y-90293332D02*
X164414819Y-90150475D01*
X164414819Y-90150475D02*
X164414819Y-89912380D01*
X164414819Y-89912380D02*
X164367200Y-89817142D01*
X164367200Y-89817142D02*
X164319580Y-89769523D01*
X164319580Y-89769523D02*
X164224342Y-89721904D01*
X164224342Y-89721904D02*
X164129104Y-89721904D01*
X164129104Y-89721904D02*
X164033866Y-89769523D01*
X164033866Y-89769523D02*
X163986247Y-89817142D01*
X163986247Y-89817142D02*
X163938628Y-89912380D01*
X163938628Y-89912380D02*
X163891009Y-90102856D01*
X163891009Y-90102856D02*
X163843390Y-90198094D01*
X163843390Y-90198094D02*
X163795771Y-90245713D01*
X163795771Y-90245713D02*
X163700533Y-90293332D01*
X163700533Y-90293332D02*
X163605295Y-90293332D01*
X163605295Y-90293332D02*
X163510057Y-90245713D01*
X163510057Y-90245713D02*
X163462438Y-90198094D01*
X163462438Y-90198094D02*
X163414819Y-90102856D01*
X163414819Y-90102856D02*
X163414819Y-89864761D01*
X163414819Y-89864761D02*
X163462438Y-89721904D01*
X163414819Y-89388570D02*
X164414819Y-89150475D01*
X164414819Y-89150475D02*
X163700533Y-88959999D01*
X163700533Y-88959999D02*
X164414819Y-88769523D01*
X164414819Y-88769523D02*
X163414819Y-88531428D01*
X163414819Y-87674285D02*
X163414819Y-88150475D01*
X163414819Y-88150475D02*
X163891009Y-88198094D01*
X163891009Y-88198094D02*
X163843390Y-88150475D01*
X163843390Y-88150475D02*
X163795771Y-88055237D01*
X163795771Y-88055237D02*
X163795771Y-87817142D01*
X163795771Y-87817142D02*
X163843390Y-87721904D01*
X163843390Y-87721904D02*
X163891009Y-87674285D01*
X163891009Y-87674285D02*
X163986247Y-87626666D01*
X163986247Y-87626666D02*
X164224342Y-87626666D01*
X164224342Y-87626666D02*
X164319580Y-87674285D01*
X164319580Y-87674285D02*
X164367200Y-87721904D01*
X164367200Y-87721904D02*
X164414819Y-87817142D01*
X164414819Y-87817142D02*
X164414819Y-88055237D01*
X164414819Y-88055237D02*
X164367200Y-88150475D01*
X164367200Y-88150475D02*
X164319580Y-88198094D01*
X96807200Y-67320707D02*
X96854819Y-67177850D01*
X96854819Y-67177850D02*
X96854819Y-66939755D01*
X96854819Y-66939755D02*
X96807200Y-66844517D01*
X96807200Y-66844517D02*
X96759580Y-66796898D01*
X96759580Y-66796898D02*
X96664342Y-66749279D01*
X96664342Y-66749279D02*
X96569104Y-66749279D01*
X96569104Y-66749279D02*
X96473866Y-66796898D01*
X96473866Y-66796898D02*
X96426247Y-66844517D01*
X96426247Y-66844517D02*
X96378628Y-66939755D01*
X96378628Y-66939755D02*
X96331009Y-67130231D01*
X96331009Y-67130231D02*
X96283390Y-67225469D01*
X96283390Y-67225469D02*
X96235771Y-67273088D01*
X96235771Y-67273088D02*
X96140533Y-67320707D01*
X96140533Y-67320707D02*
X96045295Y-67320707D01*
X96045295Y-67320707D02*
X95950057Y-67273088D01*
X95950057Y-67273088D02*
X95902438Y-67225469D01*
X95902438Y-67225469D02*
X95854819Y-67130231D01*
X95854819Y-67130231D02*
X95854819Y-66892136D01*
X95854819Y-66892136D02*
X95902438Y-66749279D01*
X95854819Y-66415945D02*
X96854819Y-66177850D01*
X96854819Y-66177850D02*
X96140533Y-65987374D01*
X96140533Y-65987374D02*
X96854819Y-65796898D01*
X96854819Y-65796898D02*
X95854819Y-65558803D01*
X96854819Y-64654041D02*
X96854819Y-65225469D01*
X96854819Y-64939755D02*
X95854819Y-64939755D01*
X95854819Y-64939755D02*
X95997676Y-65034993D01*
X95997676Y-65034993D02*
X96092914Y-65130231D01*
X96092914Y-65130231D02*
X96140533Y-65225469D01*
X96854819Y-64177850D02*
X96854819Y-63987374D01*
X96854819Y-63987374D02*
X96807200Y-63892136D01*
X96807200Y-63892136D02*
X96759580Y-63844517D01*
X96759580Y-63844517D02*
X96616723Y-63749279D01*
X96616723Y-63749279D02*
X96426247Y-63701660D01*
X96426247Y-63701660D02*
X96045295Y-63701660D01*
X96045295Y-63701660D02*
X95950057Y-63749279D01*
X95950057Y-63749279D02*
X95902438Y-63796898D01*
X95902438Y-63796898D02*
X95854819Y-63892136D01*
X95854819Y-63892136D02*
X95854819Y-64082612D01*
X95854819Y-64082612D02*
X95902438Y-64177850D01*
X95902438Y-64177850D02*
X95950057Y-64225469D01*
X95950057Y-64225469D02*
X96045295Y-64273088D01*
X96045295Y-64273088D02*
X96283390Y-64273088D01*
X96283390Y-64273088D02*
X96378628Y-64225469D01*
X96378628Y-64225469D02*
X96426247Y-64177850D01*
X96426247Y-64177850D02*
X96473866Y-64082612D01*
X96473866Y-64082612D02*
X96473866Y-63892136D01*
X96473866Y-63892136D02*
X96426247Y-63796898D01*
X96426247Y-63796898D02*
X96378628Y-63749279D01*
X96378628Y-63749279D02*
X96283390Y-63701660D01*
X115857200Y-94308207D02*
X115904819Y-94165350D01*
X115904819Y-94165350D02*
X115904819Y-93927255D01*
X115904819Y-93927255D02*
X115857200Y-93832017D01*
X115857200Y-93832017D02*
X115809580Y-93784398D01*
X115809580Y-93784398D02*
X115714342Y-93736779D01*
X115714342Y-93736779D02*
X115619104Y-93736779D01*
X115619104Y-93736779D02*
X115523866Y-93784398D01*
X115523866Y-93784398D02*
X115476247Y-93832017D01*
X115476247Y-93832017D02*
X115428628Y-93927255D01*
X115428628Y-93927255D02*
X115381009Y-94117731D01*
X115381009Y-94117731D02*
X115333390Y-94212969D01*
X115333390Y-94212969D02*
X115285771Y-94260588D01*
X115285771Y-94260588D02*
X115190533Y-94308207D01*
X115190533Y-94308207D02*
X115095295Y-94308207D01*
X115095295Y-94308207D02*
X115000057Y-94260588D01*
X115000057Y-94260588D02*
X114952438Y-94212969D01*
X114952438Y-94212969D02*
X114904819Y-94117731D01*
X114904819Y-94117731D02*
X114904819Y-93879636D01*
X114904819Y-93879636D02*
X114952438Y-93736779D01*
X114904819Y-93403445D02*
X115904819Y-93165350D01*
X115904819Y-93165350D02*
X115190533Y-92974874D01*
X115190533Y-92974874D02*
X115904819Y-92784398D01*
X115904819Y-92784398D02*
X114904819Y-92546303D01*
X115000057Y-92212969D02*
X114952438Y-92165350D01*
X114952438Y-92165350D02*
X114904819Y-92070112D01*
X114904819Y-92070112D02*
X114904819Y-91832017D01*
X114904819Y-91832017D02*
X114952438Y-91736779D01*
X114952438Y-91736779D02*
X115000057Y-91689160D01*
X115000057Y-91689160D02*
X115095295Y-91641541D01*
X115095295Y-91641541D02*
X115190533Y-91641541D01*
X115190533Y-91641541D02*
X115333390Y-91689160D01*
X115333390Y-91689160D02*
X115904819Y-92260588D01*
X115904819Y-92260588D02*
X115904819Y-91641541D01*
X114904819Y-91308207D02*
X114904819Y-90689160D01*
X114904819Y-90689160D02*
X115285771Y-91022493D01*
X115285771Y-91022493D02*
X115285771Y-90879636D01*
X115285771Y-90879636D02*
X115333390Y-90784398D01*
X115333390Y-90784398D02*
X115381009Y-90736779D01*
X115381009Y-90736779D02*
X115476247Y-90689160D01*
X115476247Y-90689160D02*
X115714342Y-90689160D01*
X115714342Y-90689160D02*
X115809580Y-90736779D01*
X115809580Y-90736779D02*
X115857200Y-90784398D01*
X115857200Y-90784398D02*
X115904819Y-90879636D01*
X115904819Y-90879636D02*
X115904819Y-91165350D01*
X115904819Y-91165350D02*
X115857200Y-91260588D01*
X115857200Y-91260588D02*
X115809580Y-91308207D01*
X166166666Y-111634819D02*
X166166666Y-112349104D01*
X166166666Y-112349104D02*
X166119047Y-112491961D01*
X166119047Y-112491961D02*
X166023809Y-112587200D01*
X166023809Y-112587200D02*
X165880952Y-112634819D01*
X165880952Y-112634819D02*
X165785714Y-112634819D01*
X167071428Y-111968152D02*
X167071428Y-112634819D01*
X166833333Y-111587200D02*
X166595238Y-112301485D01*
X166595238Y-112301485D02*
X167214285Y-112301485D01*
X77757200Y-72718207D02*
X77804819Y-72575350D01*
X77804819Y-72575350D02*
X77804819Y-72337255D01*
X77804819Y-72337255D02*
X77757200Y-72242017D01*
X77757200Y-72242017D02*
X77709580Y-72194398D01*
X77709580Y-72194398D02*
X77614342Y-72146779D01*
X77614342Y-72146779D02*
X77519104Y-72146779D01*
X77519104Y-72146779D02*
X77423866Y-72194398D01*
X77423866Y-72194398D02*
X77376247Y-72242017D01*
X77376247Y-72242017D02*
X77328628Y-72337255D01*
X77328628Y-72337255D02*
X77281009Y-72527731D01*
X77281009Y-72527731D02*
X77233390Y-72622969D01*
X77233390Y-72622969D02*
X77185771Y-72670588D01*
X77185771Y-72670588D02*
X77090533Y-72718207D01*
X77090533Y-72718207D02*
X76995295Y-72718207D01*
X76995295Y-72718207D02*
X76900057Y-72670588D01*
X76900057Y-72670588D02*
X76852438Y-72622969D01*
X76852438Y-72622969D02*
X76804819Y-72527731D01*
X76804819Y-72527731D02*
X76804819Y-72289636D01*
X76804819Y-72289636D02*
X76852438Y-72146779D01*
X76804819Y-71813445D02*
X77804819Y-71575350D01*
X77804819Y-71575350D02*
X77090533Y-71384874D01*
X77090533Y-71384874D02*
X77804819Y-71194398D01*
X77804819Y-71194398D02*
X76804819Y-70956303D01*
X77804819Y-70051541D02*
X77804819Y-70622969D01*
X77804819Y-70337255D02*
X76804819Y-70337255D01*
X76804819Y-70337255D02*
X76947676Y-70432493D01*
X76947676Y-70432493D02*
X77042914Y-70527731D01*
X77042914Y-70527731D02*
X77090533Y-70622969D01*
X77138152Y-69194398D02*
X77804819Y-69194398D01*
X76757200Y-69432493D02*
X77471485Y-69670588D01*
X77471485Y-69670588D02*
X77471485Y-69051541D01*
X77757200Y-53668207D02*
X77804819Y-53525350D01*
X77804819Y-53525350D02*
X77804819Y-53287255D01*
X77804819Y-53287255D02*
X77757200Y-53192017D01*
X77757200Y-53192017D02*
X77709580Y-53144398D01*
X77709580Y-53144398D02*
X77614342Y-53096779D01*
X77614342Y-53096779D02*
X77519104Y-53096779D01*
X77519104Y-53096779D02*
X77423866Y-53144398D01*
X77423866Y-53144398D02*
X77376247Y-53192017D01*
X77376247Y-53192017D02*
X77328628Y-53287255D01*
X77328628Y-53287255D02*
X77281009Y-53477731D01*
X77281009Y-53477731D02*
X77233390Y-53572969D01*
X77233390Y-53572969D02*
X77185771Y-53620588D01*
X77185771Y-53620588D02*
X77090533Y-53668207D01*
X77090533Y-53668207D02*
X76995295Y-53668207D01*
X76995295Y-53668207D02*
X76900057Y-53620588D01*
X76900057Y-53620588D02*
X76852438Y-53572969D01*
X76852438Y-53572969D02*
X76804819Y-53477731D01*
X76804819Y-53477731D02*
X76804819Y-53239636D01*
X76804819Y-53239636D02*
X76852438Y-53096779D01*
X76804819Y-52763445D02*
X77804819Y-52525350D01*
X77804819Y-52525350D02*
X77090533Y-52334874D01*
X77090533Y-52334874D02*
X77804819Y-52144398D01*
X77804819Y-52144398D02*
X76804819Y-51906303D01*
X77804819Y-51001541D02*
X77804819Y-51572969D01*
X77804819Y-51287255D02*
X76804819Y-51287255D01*
X76804819Y-51287255D02*
X76947676Y-51382493D01*
X76947676Y-51382493D02*
X77042914Y-51477731D01*
X77042914Y-51477731D02*
X77090533Y-51572969D01*
X76804819Y-50096779D02*
X76804819Y-50572969D01*
X76804819Y-50572969D02*
X77281009Y-50620588D01*
X77281009Y-50620588D02*
X77233390Y-50572969D01*
X77233390Y-50572969D02*
X77185771Y-50477731D01*
X77185771Y-50477731D02*
X77185771Y-50239636D01*
X77185771Y-50239636D02*
X77233390Y-50144398D01*
X77233390Y-50144398D02*
X77281009Y-50096779D01*
X77281009Y-50096779D02*
X77376247Y-50049160D01*
X77376247Y-50049160D02*
X77614342Y-50049160D01*
X77614342Y-50049160D02*
X77709580Y-50096779D01*
X77709580Y-50096779D02*
X77757200Y-50144398D01*
X77757200Y-50144398D02*
X77804819Y-50239636D01*
X77804819Y-50239636D02*
X77804819Y-50477731D01*
X77804819Y-50477731D02*
X77757200Y-50572969D01*
X77757200Y-50572969D02*
X77709580Y-50620588D01*
X148373333Y-111487819D02*
X148040000Y-111011628D01*
X147801905Y-111487819D02*
X147801905Y-110487819D01*
X147801905Y-110487819D02*
X148182857Y-110487819D01*
X148182857Y-110487819D02*
X148278095Y-110535438D01*
X148278095Y-110535438D02*
X148325714Y-110583057D01*
X148325714Y-110583057D02*
X148373333Y-110678295D01*
X148373333Y-110678295D02*
X148373333Y-110821152D01*
X148373333Y-110821152D02*
X148325714Y-110916390D01*
X148325714Y-110916390D02*
X148278095Y-110964009D01*
X148278095Y-110964009D02*
X148182857Y-111011628D01*
X148182857Y-111011628D02*
X147801905Y-111011628D01*
X148754286Y-110583057D02*
X148801905Y-110535438D01*
X148801905Y-110535438D02*
X148897143Y-110487819D01*
X148897143Y-110487819D02*
X149135238Y-110487819D01*
X149135238Y-110487819D02*
X149230476Y-110535438D01*
X149230476Y-110535438D02*
X149278095Y-110583057D01*
X149278095Y-110583057D02*
X149325714Y-110678295D01*
X149325714Y-110678295D02*
X149325714Y-110773533D01*
X149325714Y-110773533D02*
X149278095Y-110916390D01*
X149278095Y-110916390D02*
X148706667Y-111487819D01*
X148706667Y-111487819D02*
X149325714Y-111487819D01*
X166022200Y-150505826D02*
X166069819Y-150362969D01*
X166069819Y-150362969D02*
X166069819Y-150124874D01*
X166069819Y-150124874D02*
X166022200Y-150029636D01*
X166022200Y-150029636D02*
X165974580Y-149982017D01*
X165974580Y-149982017D02*
X165879342Y-149934398D01*
X165879342Y-149934398D02*
X165784104Y-149934398D01*
X165784104Y-149934398D02*
X165688866Y-149982017D01*
X165688866Y-149982017D02*
X165641247Y-150029636D01*
X165641247Y-150029636D02*
X165593628Y-150124874D01*
X165593628Y-150124874D02*
X165546009Y-150315350D01*
X165546009Y-150315350D02*
X165498390Y-150410588D01*
X165498390Y-150410588D02*
X165450771Y-150458207D01*
X165450771Y-150458207D02*
X165355533Y-150505826D01*
X165355533Y-150505826D02*
X165260295Y-150505826D01*
X165260295Y-150505826D02*
X165165057Y-150458207D01*
X165165057Y-150458207D02*
X165117438Y-150410588D01*
X165117438Y-150410588D02*
X165069819Y-150315350D01*
X165069819Y-150315350D02*
X165069819Y-150077255D01*
X165069819Y-150077255D02*
X165117438Y-149934398D01*
X165069819Y-149601064D02*
X166069819Y-149362969D01*
X166069819Y-149362969D02*
X165355533Y-149172493D01*
X165355533Y-149172493D02*
X166069819Y-148982017D01*
X166069819Y-148982017D02*
X165069819Y-148743922D01*
X165069819Y-147934398D02*
X165069819Y-148124874D01*
X165069819Y-148124874D02*
X165117438Y-148220112D01*
X165117438Y-148220112D02*
X165165057Y-148267731D01*
X165165057Y-148267731D02*
X165307914Y-148362969D01*
X165307914Y-148362969D02*
X165498390Y-148410588D01*
X165498390Y-148410588D02*
X165879342Y-148410588D01*
X165879342Y-148410588D02*
X165974580Y-148362969D01*
X165974580Y-148362969D02*
X166022200Y-148315350D01*
X166022200Y-148315350D02*
X166069819Y-148220112D01*
X166069819Y-148220112D02*
X166069819Y-148029636D01*
X166069819Y-148029636D02*
X166022200Y-147934398D01*
X166022200Y-147934398D02*
X165974580Y-147886779D01*
X165974580Y-147886779D02*
X165879342Y-147839160D01*
X165879342Y-147839160D02*
X165641247Y-147839160D01*
X165641247Y-147839160D02*
X165546009Y-147886779D01*
X165546009Y-147886779D02*
X165498390Y-147934398D01*
X165498390Y-147934398D02*
X165450771Y-148029636D01*
X165450771Y-148029636D02*
X165450771Y-148220112D01*
X165450771Y-148220112D02*
X165498390Y-148315350D01*
X165498390Y-148315350D02*
X165546009Y-148362969D01*
X165546009Y-148362969D02*
X165641247Y-148410588D01*
X166022200Y-132408207D02*
X166069819Y-132265350D01*
X166069819Y-132265350D02*
X166069819Y-132027255D01*
X166069819Y-132027255D02*
X166022200Y-131932017D01*
X166022200Y-131932017D02*
X165974580Y-131884398D01*
X165974580Y-131884398D02*
X165879342Y-131836779D01*
X165879342Y-131836779D02*
X165784104Y-131836779D01*
X165784104Y-131836779D02*
X165688866Y-131884398D01*
X165688866Y-131884398D02*
X165641247Y-131932017D01*
X165641247Y-131932017D02*
X165593628Y-132027255D01*
X165593628Y-132027255D02*
X165546009Y-132217731D01*
X165546009Y-132217731D02*
X165498390Y-132312969D01*
X165498390Y-132312969D02*
X165450771Y-132360588D01*
X165450771Y-132360588D02*
X165355533Y-132408207D01*
X165355533Y-132408207D02*
X165260295Y-132408207D01*
X165260295Y-132408207D02*
X165165057Y-132360588D01*
X165165057Y-132360588D02*
X165117438Y-132312969D01*
X165117438Y-132312969D02*
X165069819Y-132217731D01*
X165069819Y-132217731D02*
X165069819Y-131979636D01*
X165069819Y-131979636D02*
X165117438Y-131836779D01*
X165069819Y-131503445D02*
X166069819Y-131265350D01*
X166069819Y-131265350D02*
X165355533Y-131074874D01*
X165355533Y-131074874D02*
X166069819Y-130884398D01*
X166069819Y-130884398D02*
X165069819Y-130646303D01*
X166069819Y-129741541D02*
X166069819Y-130312969D01*
X166069819Y-130027255D02*
X165069819Y-130027255D01*
X165069819Y-130027255D02*
X165212676Y-130122493D01*
X165212676Y-130122493D02*
X165307914Y-130217731D01*
X165307914Y-130217731D02*
X165355533Y-130312969D01*
X165069819Y-128884398D02*
X165069819Y-129074874D01*
X165069819Y-129074874D02*
X165117438Y-129170112D01*
X165117438Y-129170112D02*
X165165057Y-129217731D01*
X165165057Y-129217731D02*
X165307914Y-129312969D01*
X165307914Y-129312969D02*
X165498390Y-129360588D01*
X165498390Y-129360588D02*
X165879342Y-129360588D01*
X165879342Y-129360588D02*
X165974580Y-129312969D01*
X165974580Y-129312969D02*
X166022200Y-129265350D01*
X166022200Y-129265350D02*
X166069819Y-129170112D01*
X166069819Y-129170112D02*
X166069819Y-128979636D01*
X166069819Y-128979636D02*
X166022200Y-128884398D01*
X166022200Y-128884398D02*
X165974580Y-128836779D01*
X165974580Y-128836779D02*
X165879342Y-128789160D01*
X165879342Y-128789160D02*
X165641247Y-128789160D01*
X165641247Y-128789160D02*
X165546009Y-128836779D01*
X165546009Y-128836779D02*
X165498390Y-128884398D01*
X165498390Y-128884398D02*
X165450771Y-128979636D01*
X165450771Y-128979636D02*
X165450771Y-129170112D01*
X165450771Y-129170112D02*
X165498390Y-129265350D01*
X165498390Y-129265350D02*
X165546009Y-129312969D01*
X165546009Y-129312969D02*
X165641247Y-129360588D01*
X140658333Y-50616819D02*
X140325000Y-50140628D01*
X140086905Y-50616819D02*
X140086905Y-49616819D01*
X140086905Y-49616819D02*
X140467857Y-49616819D01*
X140467857Y-49616819D02*
X140563095Y-49664438D01*
X140563095Y-49664438D02*
X140610714Y-49712057D01*
X140610714Y-49712057D02*
X140658333Y-49807295D01*
X140658333Y-49807295D02*
X140658333Y-49950152D01*
X140658333Y-49950152D02*
X140610714Y-50045390D01*
X140610714Y-50045390D02*
X140563095Y-50093009D01*
X140563095Y-50093009D02*
X140467857Y-50140628D01*
X140467857Y-50140628D02*
X140086905Y-50140628D01*
X140991667Y-49616819D02*
X141658333Y-49616819D01*
X141658333Y-49616819D02*
X141229762Y-50616819D01*
X115857200Y-56208207D02*
X115904819Y-56065350D01*
X115904819Y-56065350D02*
X115904819Y-55827255D01*
X115904819Y-55827255D02*
X115857200Y-55732017D01*
X115857200Y-55732017D02*
X115809580Y-55684398D01*
X115809580Y-55684398D02*
X115714342Y-55636779D01*
X115714342Y-55636779D02*
X115619104Y-55636779D01*
X115619104Y-55636779D02*
X115523866Y-55684398D01*
X115523866Y-55684398D02*
X115476247Y-55732017D01*
X115476247Y-55732017D02*
X115428628Y-55827255D01*
X115428628Y-55827255D02*
X115381009Y-56017731D01*
X115381009Y-56017731D02*
X115333390Y-56112969D01*
X115333390Y-56112969D02*
X115285771Y-56160588D01*
X115285771Y-56160588D02*
X115190533Y-56208207D01*
X115190533Y-56208207D02*
X115095295Y-56208207D01*
X115095295Y-56208207D02*
X115000057Y-56160588D01*
X115000057Y-56160588D02*
X114952438Y-56112969D01*
X114952438Y-56112969D02*
X114904819Y-56017731D01*
X114904819Y-56017731D02*
X114904819Y-55779636D01*
X114904819Y-55779636D02*
X114952438Y-55636779D01*
X114904819Y-55303445D02*
X115904819Y-55065350D01*
X115904819Y-55065350D02*
X115190533Y-54874874D01*
X115190533Y-54874874D02*
X115904819Y-54684398D01*
X115904819Y-54684398D02*
X114904819Y-54446303D01*
X115000057Y-54112969D02*
X114952438Y-54065350D01*
X114952438Y-54065350D02*
X114904819Y-53970112D01*
X114904819Y-53970112D02*
X114904819Y-53732017D01*
X114904819Y-53732017D02*
X114952438Y-53636779D01*
X114952438Y-53636779D02*
X115000057Y-53589160D01*
X115000057Y-53589160D02*
X115095295Y-53541541D01*
X115095295Y-53541541D02*
X115190533Y-53541541D01*
X115190533Y-53541541D02*
X115333390Y-53589160D01*
X115333390Y-53589160D02*
X115904819Y-54160588D01*
X115904819Y-54160588D02*
X115904819Y-53541541D01*
X114904819Y-52636779D02*
X114904819Y-53112969D01*
X114904819Y-53112969D02*
X115381009Y-53160588D01*
X115381009Y-53160588D02*
X115333390Y-53112969D01*
X115333390Y-53112969D02*
X115285771Y-53017731D01*
X115285771Y-53017731D02*
X115285771Y-52779636D01*
X115285771Y-52779636D02*
X115333390Y-52684398D01*
X115333390Y-52684398D02*
X115381009Y-52636779D01*
X115381009Y-52636779D02*
X115476247Y-52589160D01*
X115476247Y-52589160D02*
X115714342Y-52589160D01*
X115714342Y-52589160D02*
X115809580Y-52636779D01*
X115809580Y-52636779D02*
X115857200Y-52684398D01*
X115857200Y-52684398D02*
X115904819Y-52779636D01*
X115904819Y-52779636D02*
X115904819Y-53017731D01*
X115904819Y-53017731D02*
X115857200Y-53112969D01*
X115857200Y-53112969D02*
X115809580Y-53160588D01*
X148373333Y-113987819D02*
X148040000Y-113511628D01*
X147801905Y-113987819D02*
X147801905Y-112987819D01*
X147801905Y-112987819D02*
X148182857Y-112987819D01*
X148182857Y-112987819D02*
X148278095Y-113035438D01*
X148278095Y-113035438D02*
X148325714Y-113083057D01*
X148325714Y-113083057D02*
X148373333Y-113178295D01*
X148373333Y-113178295D02*
X148373333Y-113321152D01*
X148373333Y-113321152D02*
X148325714Y-113416390D01*
X148325714Y-113416390D02*
X148278095Y-113464009D01*
X148278095Y-113464009D02*
X148182857Y-113511628D01*
X148182857Y-113511628D02*
X147801905Y-113511628D01*
X149325714Y-113987819D02*
X148754286Y-113987819D01*
X149040000Y-113987819D02*
X149040000Y-112987819D01*
X149040000Y-112987819D02*
X148944762Y-113130676D01*
X148944762Y-113130676D02*
X148849524Y-113225914D01*
X148849524Y-113225914D02*
X148754286Y-113273533D01*
X96807200Y-105420707D02*
X96854819Y-105277850D01*
X96854819Y-105277850D02*
X96854819Y-105039755D01*
X96854819Y-105039755D02*
X96807200Y-104944517D01*
X96807200Y-104944517D02*
X96759580Y-104896898D01*
X96759580Y-104896898D02*
X96664342Y-104849279D01*
X96664342Y-104849279D02*
X96569104Y-104849279D01*
X96569104Y-104849279D02*
X96473866Y-104896898D01*
X96473866Y-104896898D02*
X96426247Y-104944517D01*
X96426247Y-104944517D02*
X96378628Y-105039755D01*
X96378628Y-105039755D02*
X96331009Y-105230231D01*
X96331009Y-105230231D02*
X96283390Y-105325469D01*
X96283390Y-105325469D02*
X96235771Y-105373088D01*
X96235771Y-105373088D02*
X96140533Y-105420707D01*
X96140533Y-105420707D02*
X96045295Y-105420707D01*
X96045295Y-105420707D02*
X95950057Y-105373088D01*
X95950057Y-105373088D02*
X95902438Y-105325469D01*
X95902438Y-105325469D02*
X95854819Y-105230231D01*
X95854819Y-105230231D02*
X95854819Y-104992136D01*
X95854819Y-104992136D02*
X95902438Y-104849279D01*
X95854819Y-104515945D02*
X96854819Y-104277850D01*
X96854819Y-104277850D02*
X96140533Y-104087374D01*
X96140533Y-104087374D02*
X96854819Y-103896898D01*
X96854819Y-103896898D02*
X95854819Y-103658803D01*
X96854819Y-102754041D02*
X96854819Y-103325469D01*
X96854819Y-103039755D02*
X95854819Y-103039755D01*
X95854819Y-103039755D02*
X95997676Y-103134993D01*
X95997676Y-103134993D02*
X96092914Y-103230231D01*
X96092914Y-103230231D02*
X96140533Y-103325469D01*
X95854819Y-102420707D02*
X95854819Y-101754041D01*
X95854819Y-101754041D02*
X96854819Y-102182612D01*
X134907200Y-56208207D02*
X134954819Y-56065350D01*
X134954819Y-56065350D02*
X134954819Y-55827255D01*
X134954819Y-55827255D02*
X134907200Y-55732017D01*
X134907200Y-55732017D02*
X134859580Y-55684398D01*
X134859580Y-55684398D02*
X134764342Y-55636779D01*
X134764342Y-55636779D02*
X134669104Y-55636779D01*
X134669104Y-55636779D02*
X134573866Y-55684398D01*
X134573866Y-55684398D02*
X134526247Y-55732017D01*
X134526247Y-55732017D02*
X134478628Y-55827255D01*
X134478628Y-55827255D02*
X134431009Y-56017731D01*
X134431009Y-56017731D02*
X134383390Y-56112969D01*
X134383390Y-56112969D02*
X134335771Y-56160588D01*
X134335771Y-56160588D02*
X134240533Y-56208207D01*
X134240533Y-56208207D02*
X134145295Y-56208207D01*
X134145295Y-56208207D02*
X134050057Y-56160588D01*
X134050057Y-56160588D02*
X134002438Y-56112969D01*
X134002438Y-56112969D02*
X133954819Y-56017731D01*
X133954819Y-56017731D02*
X133954819Y-55779636D01*
X133954819Y-55779636D02*
X134002438Y-55636779D01*
X133954819Y-55303445D02*
X134954819Y-55065350D01*
X134954819Y-55065350D02*
X134240533Y-54874874D01*
X134240533Y-54874874D02*
X134954819Y-54684398D01*
X134954819Y-54684398D02*
X133954819Y-54446303D01*
X133954819Y-54160588D02*
X133954819Y-53541541D01*
X133954819Y-53541541D02*
X134335771Y-53874874D01*
X134335771Y-53874874D02*
X134335771Y-53732017D01*
X134335771Y-53732017D02*
X134383390Y-53636779D01*
X134383390Y-53636779D02*
X134431009Y-53589160D01*
X134431009Y-53589160D02*
X134526247Y-53541541D01*
X134526247Y-53541541D02*
X134764342Y-53541541D01*
X134764342Y-53541541D02*
X134859580Y-53589160D01*
X134859580Y-53589160D02*
X134907200Y-53636779D01*
X134907200Y-53636779D02*
X134954819Y-53732017D01*
X134954819Y-53732017D02*
X134954819Y-54017731D01*
X134954819Y-54017731D02*
X134907200Y-54112969D01*
X134907200Y-54112969D02*
X134859580Y-54160588D01*
X133954819Y-52922493D02*
X133954819Y-52827255D01*
X133954819Y-52827255D02*
X134002438Y-52732017D01*
X134002438Y-52732017D02*
X134050057Y-52684398D01*
X134050057Y-52684398D02*
X134145295Y-52636779D01*
X134145295Y-52636779D02*
X134335771Y-52589160D01*
X134335771Y-52589160D02*
X134573866Y-52589160D01*
X134573866Y-52589160D02*
X134764342Y-52636779D01*
X134764342Y-52636779D02*
X134859580Y-52684398D01*
X134859580Y-52684398D02*
X134907200Y-52732017D01*
X134907200Y-52732017D02*
X134954819Y-52827255D01*
X134954819Y-52827255D02*
X134954819Y-52922493D01*
X134954819Y-52922493D02*
X134907200Y-53017731D01*
X134907200Y-53017731D02*
X134859580Y-53065350D01*
X134859580Y-53065350D02*
X134764342Y-53112969D01*
X134764342Y-53112969D02*
X134573866Y-53160588D01*
X134573866Y-53160588D02*
X134335771Y-53160588D01*
X134335771Y-53160588D02*
X134145295Y-53112969D01*
X134145295Y-53112969D02*
X134050057Y-53065350D01*
X134050057Y-53065350D02*
X134002438Y-53017731D01*
X134002438Y-53017731D02*
X133954819Y-52922493D01*
X166022200Y-169555826D02*
X166069819Y-169412969D01*
X166069819Y-169412969D02*
X166069819Y-169174874D01*
X166069819Y-169174874D02*
X166022200Y-169079636D01*
X166022200Y-169079636D02*
X165974580Y-169032017D01*
X165974580Y-169032017D02*
X165879342Y-168984398D01*
X165879342Y-168984398D02*
X165784104Y-168984398D01*
X165784104Y-168984398D02*
X165688866Y-169032017D01*
X165688866Y-169032017D02*
X165641247Y-169079636D01*
X165641247Y-169079636D02*
X165593628Y-169174874D01*
X165593628Y-169174874D02*
X165546009Y-169365350D01*
X165546009Y-169365350D02*
X165498390Y-169460588D01*
X165498390Y-169460588D02*
X165450771Y-169508207D01*
X165450771Y-169508207D02*
X165355533Y-169555826D01*
X165355533Y-169555826D02*
X165260295Y-169555826D01*
X165260295Y-169555826D02*
X165165057Y-169508207D01*
X165165057Y-169508207D02*
X165117438Y-169460588D01*
X165117438Y-169460588D02*
X165069819Y-169365350D01*
X165069819Y-169365350D02*
X165069819Y-169127255D01*
X165069819Y-169127255D02*
X165117438Y-168984398D01*
X165069819Y-168651064D02*
X166069819Y-168412969D01*
X166069819Y-168412969D02*
X165355533Y-168222493D01*
X165355533Y-168222493D02*
X166069819Y-168032017D01*
X166069819Y-168032017D02*
X165069819Y-167793922D01*
X166069819Y-166889160D02*
X166069819Y-167460588D01*
X166069819Y-167174874D02*
X165069819Y-167174874D01*
X165069819Y-167174874D02*
X165212676Y-167270112D01*
X165212676Y-167270112D02*
X165307914Y-167365350D01*
X165307914Y-167365350D02*
X165355533Y-167460588D01*
X148373333Y-103987819D02*
X148040000Y-103511628D01*
X147801905Y-103987819D02*
X147801905Y-102987819D01*
X147801905Y-102987819D02*
X148182857Y-102987819D01*
X148182857Y-102987819D02*
X148278095Y-103035438D01*
X148278095Y-103035438D02*
X148325714Y-103083057D01*
X148325714Y-103083057D02*
X148373333Y-103178295D01*
X148373333Y-103178295D02*
X148373333Y-103321152D01*
X148373333Y-103321152D02*
X148325714Y-103416390D01*
X148325714Y-103416390D02*
X148278095Y-103464009D01*
X148278095Y-103464009D02*
X148182857Y-103511628D01*
X148182857Y-103511628D02*
X147801905Y-103511628D01*
X149278095Y-102987819D02*
X148801905Y-102987819D01*
X148801905Y-102987819D02*
X148754286Y-103464009D01*
X148754286Y-103464009D02*
X148801905Y-103416390D01*
X148801905Y-103416390D02*
X148897143Y-103368771D01*
X148897143Y-103368771D02*
X149135238Y-103368771D01*
X149135238Y-103368771D02*
X149230476Y-103416390D01*
X149230476Y-103416390D02*
X149278095Y-103464009D01*
X149278095Y-103464009D02*
X149325714Y-103559247D01*
X149325714Y-103559247D02*
X149325714Y-103797342D01*
X149325714Y-103797342D02*
X149278095Y-103892580D01*
X149278095Y-103892580D02*
X149230476Y-103940200D01*
X149230476Y-103940200D02*
X149135238Y-103987819D01*
X149135238Y-103987819D02*
X148897143Y-103987819D01*
X148897143Y-103987819D02*
X148801905Y-103940200D01*
X148801905Y-103940200D02*
X148754286Y-103892580D01*
X58707200Y-104785826D02*
X58754819Y-104642969D01*
X58754819Y-104642969D02*
X58754819Y-104404874D01*
X58754819Y-104404874D02*
X58707200Y-104309636D01*
X58707200Y-104309636D02*
X58659580Y-104262017D01*
X58659580Y-104262017D02*
X58564342Y-104214398D01*
X58564342Y-104214398D02*
X58469104Y-104214398D01*
X58469104Y-104214398D02*
X58373866Y-104262017D01*
X58373866Y-104262017D02*
X58326247Y-104309636D01*
X58326247Y-104309636D02*
X58278628Y-104404874D01*
X58278628Y-104404874D02*
X58231009Y-104595350D01*
X58231009Y-104595350D02*
X58183390Y-104690588D01*
X58183390Y-104690588D02*
X58135771Y-104738207D01*
X58135771Y-104738207D02*
X58040533Y-104785826D01*
X58040533Y-104785826D02*
X57945295Y-104785826D01*
X57945295Y-104785826D02*
X57850057Y-104738207D01*
X57850057Y-104738207D02*
X57802438Y-104690588D01*
X57802438Y-104690588D02*
X57754819Y-104595350D01*
X57754819Y-104595350D02*
X57754819Y-104357255D01*
X57754819Y-104357255D02*
X57802438Y-104214398D01*
X57754819Y-103881064D02*
X58754819Y-103642969D01*
X58754819Y-103642969D02*
X58040533Y-103452493D01*
X58040533Y-103452493D02*
X58754819Y-103262017D01*
X58754819Y-103262017D02*
X57754819Y-103023922D01*
X58183390Y-102500112D02*
X58135771Y-102595350D01*
X58135771Y-102595350D02*
X58088152Y-102642969D01*
X58088152Y-102642969D02*
X57992914Y-102690588D01*
X57992914Y-102690588D02*
X57945295Y-102690588D01*
X57945295Y-102690588D02*
X57850057Y-102642969D01*
X57850057Y-102642969D02*
X57802438Y-102595350D01*
X57802438Y-102595350D02*
X57754819Y-102500112D01*
X57754819Y-102500112D02*
X57754819Y-102309636D01*
X57754819Y-102309636D02*
X57802438Y-102214398D01*
X57802438Y-102214398D02*
X57850057Y-102166779D01*
X57850057Y-102166779D02*
X57945295Y-102119160D01*
X57945295Y-102119160D02*
X57992914Y-102119160D01*
X57992914Y-102119160D02*
X58088152Y-102166779D01*
X58088152Y-102166779D02*
X58135771Y-102214398D01*
X58135771Y-102214398D02*
X58183390Y-102309636D01*
X58183390Y-102309636D02*
X58183390Y-102500112D01*
X58183390Y-102500112D02*
X58231009Y-102595350D01*
X58231009Y-102595350D02*
X58278628Y-102642969D01*
X58278628Y-102642969D02*
X58373866Y-102690588D01*
X58373866Y-102690588D02*
X58564342Y-102690588D01*
X58564342Y-102690588D02*
X58659580Y-102642969D01*
X58659580Y-102642969D02*
X58707200Y-102595350D01*
X58707200Y-102595350D02*
X58754819Y-102500112D01*
X58754819Y-102500112D02*
X58754819Y-102309636D01*
X58754819Y-102309636D02*
X58707200Y-102214398D01*
X58707200Y-102214398D02*
X58659580Y-102166779D01*
X58659580Y-102166779D02*
X58564342Y-102119160D01*
X58564342Y-102119160D02*
X58373866Y-102119160D01*
X58373866Y-102119160D02*
X58278628Y-102166779D01*
X58278628Y-102166779D02*
X58231009Y-102214398D01*
X58231009Y-102214398D02*
X58183390Y-102309636D01*
D11*
X159670000Y-86795000D02*
X159670000Y-114795000D01*
X159670000Y-86795000D02*
X162330000Y-86795000D01*
X159670000Y-114795000D02*
X162330000Y-114795000D01*
X161000000Y-84195000D02*
X162330000Y-84195000D01*
X162330000Y-84195000D02*
X162330000Y-85525000D01*
X162330000Y-86795000D02*
X162330000Y-114795000D01*
X139375000Y-76645000D02*
X139375000Y-114805000D01*
X139375000Y-76645000D02*
X142035000Y-76645000D01*
X139375000Y-114805000D02*
X142035000Y-114805000D01*
X140705000Y-74045000D02*
X142035000Y-74045000D01*
X142035000Y-74045000D02*
X142035000Y-75375000D01*
X142035000Y-76645000D02*
X142035000Y-114805000D01*
X23125000Y-95755000D02*
X23125000Y-109955000D01*
X23125000Y-109955000D02*
X37325000Y-109955000D01*
X37325000Y-95755000D02*
X23125000Y-95755000D01*
X37325000Y-109955000D02*
X37325000Y-95755000D01*
X118375000Y-84325000D02*
X118375000Y-98525000D01*
X118375000Y-98525000D02*
X132575000Y-98525000D01*
X132575000Y-84325000D02*
X118375000Y-84325000D01*
X132575000Y-98525000D02*
X132575000Y-84325000D01*
X42175000Y-76705000D02*
X42175000Y-90905000D01*
X42175000Y-90905000D02*
X56375000Y-90905000D01*
X56375000Y-76705000D02*
X42175000Y-76705000D01*
X56375000Y-90905000D02*
X56375000Y-76705000D01*
X118375000Y-103375000D02*
X118375000Y-117575000D01*
X118375000Y-117575000D02*
X132575000Y-117575000D01*
X132575000Y-103375000D02*
X118375000Y-103375000D01*
X132575000Y-117575000D02*
X132575000Y-103375000D01*
X111390000Y-122425000D02*
X111390000Y-136625000D01*
X111390000Y-136625000D02*
X125590000Y-136625000D01*
X125590000Y-122425000D02*
X111390000Y-122425000D01*
X125590000Y-136625000D02*
X125590000Y-122425000D01*
X141082258Y-66145500D02*
X140607742Y-66145500D01*
X141082258Y-67190500D02*
X140607742Y-67190500D01*
X140025000Y-64719000D02*
X142310000Y-64719000D01*
X142310000Y-63249000D02*
X140025000Y-63249000D01*
X142310000Y-64719000D02*
X142310000Y-63249000D01*
X80275000Y-76387500D02*
X80275000Y-90587500D01*
X80275000Y-90587500D02*
X94475000Y-90587500D01*
X94475000Y-76387500D02*
X80275000Y-76387500D01*
X94475000Y-90587500D02*
X94475000Y-76387500D01*
X139985000Y-55751000D02*
X142270000Y-55751000D01*
X142270000Y-54281000D02*
X139985000Y-54281000D01*
X142270000Y-55751000D02*
X142270000Y-54281000D01*
X99325000Y-103375000D02*
X99325000Y-117575000D01*
X99325000Y-117575000D02*
X113525000Y-117575000D01*
X113525000Y-103375000D02*
X99325000Y-103375000D01*
X113525000Y-117575000D02*
X113525000Y-103375000D01*
X61225000Y-100835000D02*
X61225000Y-115035000D01*
X61225000Y-115035000D02*
X75425000Y-115035000D01*
X75425000Y-100835000D02*
X61225000Y-100835000D01*
X75425000Y-115035000D02*
X75425000Y-100835000D01*
X99325000Y-65275000D02*
X99325000Y-79475000D01*
X99325000Y-79475000D02*
X113525000Y-79475000D01*
X113525000Y-65275000D02*
X99325000Y-65275000D01*
X113525000Y-79475000D02*
X113525000Y-65275000D01*
X146237258Y-107977500D02*
X145762742Y-107977500D01*
X146237258Y-109022500D02*
X145762742Y-109022500D01*
X61225000Y-81785000D02*
X61225000Y-95985000D01*
X61225000Y-95985000D02*
X75425000Y-95985000D01*
X75425000Y-81785000D02*
X61225000Y-81785000D01*
X75425000Y-95985000D02*
X75425000Y-81785000D01*
X80275000Y-38287500D02*
X80275000Y-52487500D01*
X80275000Y-52487500D02*
X94475000Y-52487500D01*
X94475000Y-38287500D02*
X80275000Y-38287500D01*
X94475000Y-52487500D02*
X94475000Y-38287500D01*
X118375000Y-65275000D02*
X118375000Y-79475000D01*
X118375000Y-79475000D02*
X132575000Y-79475000D01*
X132575000Y-65275000D02*
X118375000Y-65275000D01*
X132575000Y-79475000D02*
X132575000Y-65275000D01*
X42175000Y-57655000D02*
X42175000Y-71855000D01*
X42175000Y-71855000D02*
X56375000Y-71855000D01*
X56375000Y-57655000D02*
X42175000Y-57655000D01*
X56375000Y-71855000D02*
X56375000Y-57655000D01*
X141042258Y-57177500D02*
X140567742Y-57177500D01*
X141042258Y-58222500D02*
X140567742Y-58222500D01*
X23125000Y-76705000D02*
X23125000Y-90905000D01*
X23125000Y-90905000D02*
X37325000Y-90905000D01*
X37325000Y-76705000D02*
X23125000Y-76705000D01*
X37325000Y-90905000D02*
X37325000Y-76705000D01*
X130440000Y-141475000D02*
X130440000Y-155675000D01*
X130440000Y-155675000D02*
X144640000Y-155675000D01*
X144640000Y-141475000D02*
X130440000Y-141475000D01*
X144640000Y-155675000D02*
X144640000Y-141475000D01*
X42175000Y-114805000D02*
X42175000Y-129005000D01*
X42175000Y-129005000D02*
X56375000Y-129005000D01*
X56375000Y-114805000D02*
X42175000Y-114805000D01*
X56375000Y-129005000D02*
X56375000Y-114805000D01*
X23125000Y-114805000D02*
X23125000Y-129005000D01*
X23125000Y-129005000D02*
X37325000Y-129005000D01*
X37325000Y-114805000D02*
X23125000Y-114805000D01*
X37325000Y-129005000D02*
X37325000Y-114805000D01*
X140005000Y-46783000D02*
X142290000Y-46783000D01*
X142290000Y-45313000D02*
X140005000Y-45313000D01*
X142290000Y-46783000D02*
X142290000Y-45313000D01*
X130440000Y-122425000D02*
X130440000Y-136625000D01*
X130440000Y-136625000D02*
X144640000Y-136625000D01*
X144640000Y-122425000D02*
X130440000Y-122425000D01*
X144640000Y-136625000D02*
X144640000Y-122425000D01*
X146237258Y-105477500D02*
X145762742Y-105477500D01*
X146237258Y-106522500D02*
X145762742Y-106522500D01*
X165140000Y-94070000D02*
X167860000Y-94070000D01*
X167860000Y-83850000D01*
X165140000Y-83850000D01*
X165140000Y-94070000D01*
X80275000Y-57337500D02*
X80275000Y-71537500D01*
X80275000Y-71537500D02*
X94475000Y-71537500D01*
X94475000Y-57337500D02*
X80275000Y-57337500D01*
X94475000Y-71537500D02*
X94475000Y-57337500D01*
X99325000Y-84325000D02*
X99325000Y-98525000D01*
X99325000Y-98525000D02*
X113525000Y-98525000D01*
X113525000Y-84325000D02*
X99325000Y-84325000D01*
X113525000Y-98525000D02*
X113525000Y-84325000D01*
X165170000Y-108580000D02*
X165170000Y-95820000D01*
X167830000Y-95820000D02*
X165170000Y-95820000D01*
X167830000Y-108580000D02*
X165170000Y-108580000D01*
X167830000Y-108580000D02*
X167830000Y-95820000D01*
X167830000Y-109850000D02*
X167830000Y-111180000D01*
X167830000Y-111180000D02*
X166500000Y-111180000D01*
X61225000Y-62735000D02*
X61225000Y-76935000D01*
X61225000Y-76935000D02*
X75425000Y-76935000D01*
X75425000Y-62735000D02*
X61225000Y-62735000D01*
X75425000Y-76935000D02*
X75425000Y-62735000D01*
X61225000Y-43685000D02*
X61225000Y-57885000D01*
X61225000Y-57885000D02*
X75425000Y-57885000D01*
X75425000Y-43685000D02*
X61225000Y-43685000D01*
X75425000Y-57885000D02*
X75425000Y-43685000D01*
X146237258Y-110477500D02*
X145762742Y-110477500D01*
X146237258Y-111522500D02*
X145762742Y-111522500D01*
X149490000Y-141475000D02*
X149490000Y-155675000D01*
X149490000Y-155675000D02*
X163690000Y-155675000D01*
X163690000Y-141475000D02*
X149490000Y-141475000D01*
X163690000Y-155675000D02*
X163690000Y-141475000D01*
X149490000Y-122425000D02*
X149490000Y-136625000D01*
X149490000Y-136625000D02*
X163690000Y-136625000D01*
X163690000Y-122425000D02*
X149490000Y-122425000D01*
X163690000Y-136625000D02*
X163690000Y-122425000D01*
X141062258Y-48209500D02*
X140587742Y-48209500D01*
X141062258Y-49254500D02*
X140587742Y-49254500D01*
X99325000Y-46225000D02*
X99325000Y-60425000D01*
X99325000Y-60425000D02*
X113525000Y-60425000D01*
X113525000Y-46225000D02*
X99325000Y-46225000D01*
X113525000Y-60425000D02*
X113525000Y-46225000D01*
X146237258Y-112977500D02*
X145762742Y-112977500D01*
X146237258Y-114022500D02*
X145762742Y-114022500D01*
X80275000Y-95437500D02*
X80275000Y-109637500D01*
X80275000Y-109637500D02*
X94475000Y-109637500D01*
X94475000Y-95437500D02*
X80275000Y-95437500D01*
X94475000Y-109637500D02*
X94475000Y-95437500D01*
X118375000Y-46225000D02*
X118375000Y-60425000D01*
X118375000Y-60425000D02*
X132575000Y-60425000D01*
X132575000Y-46225000D02*
X118375000Y-46225000D01*
X132575000Y-60425000D02*
X132575000Y-46225000D01*
X149490000Y-160525000D02*
X149490000Y-174725000D01*
X149490000Y-174725000D02*
X163690000Y-174725000D01*
X163690000Y-160525000D02*
X149490000Y-160525000D01*
X163690000Y-174725000D02*
X163690000Y-160525000D01*
X146237258Y-102977500D02*
X145762742Y-102977500D01*
X146237258Y-104022500D02*
X145762742Y-104022500D01*
X42175000Y-95755000D02*
X42175000Y-109955000D01*
X42175000Y-109955000D02*
X56375000Y-109955000D01*
X56375000Y-95755000D02*
X42175000Y-95755000D01*
X56375000Y-109955000D02*
X56375000Y-95755000D01*
%LPC*%
D12*
X161000000Y-85525000D03*
D13*
X161000000Y-88065000D03*
X161000000Y-90605000D03*
X161000000Y-93145000D03*
X161000000Y-95685000D03*
X161000000Y-98225000D03*
X161000000Y-100765000D03*
X161000000Y-103305000D03*
X161000000Y-105845000D03*
X161000000Y-108385000D03*
X161000000Y-110925000D03*
X161000000Y-113465000D03*
D12*
X140705000Y-75375000D03*
D13*
X140705000Y-77915000D03*
X140705000Y-80455000D03*
X140705000Y-82995000D03*
X140705000Y-85535000D03*
X140705000Y-88075000D03*
X140705000Y-90615000D03*
X140705000Y-93155000D03*
X140705000Y-95695000D03*
X140705000Y-98235000D03*
X140705000Y-100775000D03*
X140705000Y-103315000D03*
X140705000Y-105855000D03*
X140705000Y-108395000D03*
X140705000Y-110935000D03*
X140705000Y-113475000D03*
D14*
X115950000Y-100950000D03*
D15*
X25145000Y-102855000D03*
D16*
X26415000Y-100315000D03*
D17*
X30225000Y-102855000D03*
D16*
X32765000Y-97775000D03*
D15*
X35305000Y-102855000D03*
X120395000Y-91425000D03*
D16*
X121665000Y-88885000D03*
D17*
X125475000Y-91425000D03*
D16*
X128015000Y-86345000D03*
D15*
X130555000Y-91425000D03*
X44195000Y-83805000D03*
D16*
X45465000Y-81265000D03*
D17*
X49275000Y-83805000D03*
D16*
X51815000Y-78725000D03*
D15*
X54355000Y-83805000D03*
X120395000Y-110475000D03*
D16*
X121665000Y-107935000D03*
D17*
X125475000Y-110475000D03*
D16*
X128015000Y-105395000D03*
D15*
X130555000Y-110475000D03*
X113410000Y-129525000D03*
D16*
X114680000Y-126985000D03*
D17*
X118490000Y-129525000D03*
D16*
X121030000Y-124445000D03*
D15*
X123570000Y-129525000D03*
D14*
X20700000Y-131430000D03*
D18*
X141670000Y-66668000D03*
X140020000Y-66668000D03*
D19*
X141612500Y-63984000D03*
X140037500Y-63984000D03*
D15*
X82295000Y-83487500D03*
D16*
X83565000Y-80947500D03*
D17*
X87375000Y-83487500D03*
D16*
X89915000Y-78407500D03*
D15*
X92455000Y-83487500D03*
D19*
X141572500Y-55016000D03*
X139997500Y-55016000D03*
D15*
X101345000Y-110475000D03*
D16*
X102615000Y-107935000D03*
D17*
X106425000Y-110475000D03*
D16*
X108965000Y-105395000D03*
D15*
X111505000Y-110475000D03*
D14*
X20700000Y-74280000D03*
D15*
X63245000Y-107935000D03*
D16*
X64515000Y-105395000D03*
D17*
X68325000Y-107935000D03*
D16*
X70865000Y-102855000D03*
D15*
X73405000Y-107935000D03*
X101345000Y-72375000D03*
D16*
X102615000Y-69835000D03*
D17*
X106425000Y-72375000D03*
D16*
X108965000Y-67295000D03*
D15*
X111505000Y-72375000D03*
D18*
X146825000Y-108500000D03*
X145175000Y-108500000D03*
D15*
X63245000Y-88885000D03*
D16*
X64515000Y-86345000D03*
D17*
X68325000Y-88885000D03*
D16*
X70865000Y-83805000D03*
D15*
X73405000Y-88885000D03*
X82295000Y-45387500D03*
D16*
X83565000Y-42847500D03*
D17*
X87375000Y-45387500D03*
D16*
X89915000Y-40307500D03*
D15*
X92455000Y-45387500D03*
X120395000Y-72375000D03*
D16*
X121665000Y-69835000D03*
D17*
X125475000Y-72375000D03*
D16*
X128015000Y-67295000D03*
D15*
X130555000Y-72375000D03*
X44195000Y-64755000D03*
D16*
X45465000Y-62215000D03*
D17*
X49275000Y-64755000D03*
D16*
X51815000Y-59675000D03*
D15*
X54355000Y-64755000D03*
D18*
X141630000Y-57700000D03*
X139980000Y-57700000D03*
D15*
X25145000Y-83805000D03*
D16*
X26415000Y-81265000D03*
D17*
X30225000Y-83805000D03*
D16*
X32765000Y-78725000D03*
D15*
X35305000Y-83805000D03*
X132460000Y-148575000D03*
D16*
X133730000Y-146035000D03*
D17*
X137540000Y-148575000D03*
D16*
X140080000Y-143495000D03*
D15*
X142620000Y-148575000D03*
X44195000Y-121905000D03*
D16*
X45465000Y-119365000D03*
D17*
X49275000Y-121905000D03*
D16*
X51815000Y-116825000D03*
D15*
X54355000Y-121905000D03*
X25145000Y-121905000D03*
D16*
X26415000Y-119365000D03*
D17*
X30225000Y-121905000D03*
D16*
X32765000Y-116825000D03*
D15*
X35305000Y-121905000D03*
D19*
X141592500Y-46048000D03*
X140017500Y-46048000D03*
D15*
X132460000Y-129525000D03*
D16*
X133730000Y-126985000D03*
D17*
X137540000Y-129525000D03*
D16*
X140080000Y-124445000D03*
D15*
X142620000Y-129525000D03*
D18*
X146825000Y-106000000D03*
X145175000Y-106000000D03*
D20*
X166500000Y-88960000D03*
D21*
X166500000Y-91500000D03*
X166500000Y-86420000D03*
D14*
X136000000Y-43800000D03*
D15*
X82295000Y-64437500D03*
D16*
X83565000Y-61897500D03*
D17*
X87375000Y-64437500D03*
D16*
X89915000Y-59357500D03*
D15*
X92455000Y-64437500D03*
X101345000Y-91425000D03*
D16*
X102615000Y-88885000D03*
D17*
X106425000Y-91425000D03*
D16*
X108965000Y-86345000D03*
D15*
X111505000Y-91425000D03*
D22*
X166500000Y-109850000D03*
D13*
X166500000Y-107310000D03*
X166500000Y-104770000D03*
X166500000Y-102230000D03*
X166500000Y-99690000D03*
X166500000Y-97150000D03*
D15*
X63245000Y-69835000D03*
D16*
X64515000Y-67295000D03*
D17*
X68325000Y-69835000D03*
D16*
X70865000Y-64755000D03*
D15*
X73405000Y-69835000D03*
D14*
X166115000Y-177150000D03*
D15*
X63245000Y-50785000D03*
D16*
X64515000Y-48245000D03*
D17*
X68325000Y-50785000D03*
D16*
X70865000Y-45705000D03*
D15*
X73405000Y-50785000D03*
D18*
X146825000Y-111000000D03*
X145175000Y-111000000D03*
D15*
X151510000Y-148575000D03*
D16*
X152780000Y-146035000D03*
D17*
X156590000Y-148575000D03*
D16*
X159130000Y-143495000D03*
D15*
X161670000Y-148575000D03*
X151510000Y-129525000D03*
D16*
X152780000Y-126985000D03*
D17*
X156590000Y-129525000D03*
D16*
X159130000Y-124445000D03*
D15*
X161670000Y-129525000D03*
D18*
X141650000Y-48732000D03*
X140000000Y-48732000D03*
D15*
X101345000Y-53325000D03*
D16*
X102615000Y-50785000D03*
D17*
X106425000Y-53325000D03*
D16*
X108965000Y-48245000D03*
D15*
X111505000Y-53325000D03*
D18*
X146825000Y-113500000D03*
X145175000Y-113500000D03*
D14*
X166000000Y-76000000D03*
D15*
X82295000Y-102537500D03*
D16*
X83565000Y-99997500D03*
D17*
X87375000Y-102537500D03*
D16*
X89915000Y-97457500D03*
D15*
X92455000Y-102537500D03*
X120395000Y-53325000D03*
D16*
X121665000Y-50785000D03*
D17*
X125475000Y-53325000D03*
D16*
X128015000Y-48245000D03*
D15*
X130555000Y-53325000D03*
X151510000Y-167625000D03*
D16*
X152780000Y-165085000D03*
D17*
X156590000Y-167625000D03*
D16*
X159130000Y-162545000D03*
D15*
X161670000Y-167625000D03*
D18*
X146825000Y-103500000D03*
X145175000Y-103500000D03*
D15*
X44195000Y-102855000D03*
D16*
X45465000Y-100315000D03*
D17*
X49275000Y-102855000D03*
D16*
X51815000Y-97775000D03*
D15*
X54355000Y-102855000D03*
%LPD*%
M02*
