M48
; DRILL file {KiCad 8.0.6-8.0.6-0~ubuntu24.04.1} date 2025-02-09T13:11:19-0500
; FORMAT={-:-/ absolute / metric / decimal}
; #@! TF.CreationDate,2025-02-09T13:11:19-05:00
; #@! TF.GenerationSoftware,Kicad,Pcbnew,8.0.6-8.0.6-0~ubuntu24.04.1
; #@! TF.FileFunction,NonPlated,1,2,NPTH
FMAT,2
METRIC
; #@! TA.AperFunction,NonPlated,NPTH,ComponentDrill
T1C1.750
; #@! TA.AperFunction,NonPlated,NPTH,ComponentDrill
T2C2.500
; #@! TA.AperFunction,NonPlated,NPTH,ComponentDrill
T3C3.050
; #@! TA.AperFunction,NonPlated,NPTH,ComponentDrill
T4C4.000
%
G90
G05
T1
X25.145Y-83.805
X25.145Y-102.855
X25.145Y-121.905
X35.305Y-83.805
X35.305Y-102.855
X35.305Y-121.905
X44.195Y-64.755
X44.195Y-83.805
X44.195Y-102.855
X44.195Y-121.905
X54.355Y-64.755
X54.355Y-83.805
X54.355Y-102.855
X54.355Y-121.905
X63.245Y-50.785
X63.245Y-69.835
X63.245Y-88.885
X63.245Y-107.935
X73.405Y-50.785
X73.405Y-69.835
X73.405Y-88.885
X73.405Y-107.935
X82.295Y-45.387
X82.295Y-64.438
X82.295Y-83.487
X82.295Y-102.537
X92.455Y-45.387
X92.455Y-64.438
X92.455Y-83.487
X92.455Y-102.537
X101.345Y-53.325
X101.345Y-72.375
X101.345Y-91.425
X101.345Y-110.475
X111.505Y-53.325
X111.505Y-72.375
X111.505Y-91.425
X111.505Y-110.475
X113.41Y-129.525
X120.395Y-53.325
X120.395Y-72.375
X120.395Y-91.425
X120.395Y-110.475
X123.57Y-129.525
X130.555Y-53.325
X130.555Y-72.375
X130.555Y-91.425
X130.555Y-110.475
X132.46Y-129.525
X132.46Y-148.575
X142.62Y-129.525
X142.62Y-148.575
X151.51Y-129.525
X151.51Y-148.575
X151.51Y-167.625
X161.67Y-129.525
X161.67Y-148.575
X161.67Y-167.625
T2
X20.7Y-74.28
X20.7Y-131.43
X115.95Y-100.95
X136.0Y-43.8
X166.0Y-76.0
X166.115Y-177.15
T3
X26.415Y-81.265
X26.415Y-100.315
X26.415Y-119.365
X32.765Y-78.725
X32.765Y-97.775
X32.765Y-116.825
X45.465Y-62.215
X45.465Y-81.265
X45.465Y-100.315
X45.465Y-119.365
X51.815Y-59.675
X51.815Y-78.725
X51.815Y-97.775
X51.815Y-116.825
X64.515Y-48.245
X64.515Y-67.295
X64.515Y-86.345
X64.515Y-105.395
X70.865Y-45.705
X70.865Y-64.755
X70.865Y-83.805
X70.865Y-102.855
X83.565Y-42.847
X83.565Y-61.897
X83.565Y-80.947
X83.565Y-99.998
X89.915Y-40.307
X89.915Y-59.357
X89.915Y-78.407
X89.915Y-97.457
X102.615Y-50.785
X102.615Y-69.835
X102.615Y-88.885
X102.615Y-107.935
X108.965Y-48.245
X108.965Y-67.295
X108.965Y-86.345
X108.965Y-105.395
X114.68Y-126.985
X121.03Y-124.445
X121.665Y-50.785
X121.665Y-69.835
X121.665Y-88.885
X121.665Y-107.935
X128.015Y-48.245
X128.015Y-67.295
X128.015Y-86.345
X128.015Y-105.395
X133.73Y-126.985
X133.73Y-146.035
X140.08Y-124.445
X140.08Y-143.495
X152.78Y-126.985
X152.78Y-146.035
X152.78Y-165.085
X159.13Y-124.445
X159.13Y-143.495
X159.13Y-162.545
T4
X30.225Y-83.805
X30.225Y-102.855
X30.225Y-121.905
X49.275Y-64.755
X49.275Y-83.805
X49.275Y-102.855
X49.275Y-121.905
X68.325Y-50.785
X68.325Y-69.835
X68.325Y-88.885
X68.325Y-107.935
X87.375Y-45.387
X87.375Y-64.438
X87.375Y-83.487
X87.375Y-102.537
X106.425Y-53.325
X106.425Y-72.375
X106.425Y-91.425
X106.425Y-110.475
X118.49Y-129.525
X125.475Y-53.325
X125.475Y-72.375
X125.475Y-91.425
X125.475Y-110.475
X137.54Y-129.525
X137.54Y-148.575
X156.59Y-129.525
X156.59Y-148.575
X156.59Y-167.625
M30
