M48
; DRILL file {KiCad 8.0.6-8.0.6-0~ubuntu24.04.1} date 2025-02-09T13:11:19-0500
; FORMAT={-:-/ absolute / metric / decimal}
; #@! TF.CreationDate,2025-02-09T13:11:19-05:00
; #@! TF.GenerationSoftware,Kicad,Pcbnew,8.0.6-8.0.6-0~ubuntu24.04.1
; #@! TF.FileFunction,Plated,1,2,PTH
FMAT,2
METRIC
; #@! TA.AperFunction,Plated,PTH,ViaDrill
T1C0.500
; #@! TA.AperFunction,Plated,PTH,ComponentDrill
T2C0.800
; #@! TA.AperFunction,Plated,PTH,ComponentDrill
T3C1.000
%
G90
G05
T1
X19.0Y-78.0
X19.0Y-83.0
X19.0Y-88.0
X19.0Y-93.0
X19.0Y-98.0
X19.0Y-103.0
X19.0Y-108.0
X19.0Y-113.0
X19.0Y-118.0
X19.0Y-123.0
X19.0Y-128.0
X24.0Y-73.0
X24.0Y-78.0
X24.0Y-128.0
X24.0Y-133.0
X29.0Y-73.0
X29.0Y-78.0
X29.0Y-88.0
X29.0Y-93.0
X29.0Y-98.0
X29.0Y-108.0
X29.0Y-113.0
X29.0Y-118.0
X29.0Y-128.0
X29.0Y-133.0
X34.0Y-88.0
X34.0Y-108.0
X34.0Y-128.0
X34.0Y-133.0
X39.0Y-58.0
X39.0Y-63.0
X39.0Y-68.0
X39.0Y-78.0
X39.0Y-83.0
X39.0Y-88.0
X39.0Y-98.0
X39.0Y-103.0
X39.0Y-108.0
X39.0Y-113.0
X39.0Y-118.0
X39.0Y-123.0
X39.0Y-128.0
X39.0Y-133.0
X42.19Y-84.345
X42.19Y-96.452
X42.19Y-65.57
X42.19Y-77.244
X42.19Y-103.67
X42.19Y-115.344
X44.0Y-58.0
X44.0Y-68.0
X44.0Y-88.0
X44.0Y-108.0
X44.0Y-113.0
X44.0Y-128.0
X44.0Y-133.0
X49.0Y-58.0
X49.0Y-68.0
X49.0Y-78.0
X49.0Y-88.0
X49.0Y-98.0
X49.0Y-108.0
X49.0Y-113.0
X49.0Y-118.0
X49.0Y-128.0
X49.0Y-133.0
X54.0Y-68.0
X54.0Y-88.0
X54.0Y-108.0
X54.0Y-128.0
X54.0Y-133.0
X59.0Y-43.0
X59.0Y-53.0
X59.0Y-58.0
X59.0Y-63.0
X59.0Y-73.0
X59.0Y-78.0
X59.0Y-93.0
X59.0Y-98.0
X59.0Y-108.0
X59.0Y-113.0
X59.0Y-118.0
X59.0Y-128.0
X59.0Y-133.0
X61.238Y-50.514
X61.238Y-69.564
X61.238Y-88.614
X61.242Y-65.026
X61.242Y-84.076
X61.242Y-103.126
X64.0Y-53.0
X64.0Y-58.0
X64.0Y-63.0
X64.0Y-73.0
X64.0Y-83.0
X64.0Y-93.0
X64.0Y-113.0
X69.0Y-43.0
X69.0Y-58.0
X69.0Y-73.0
X69.0Y-93.0
X69.0Y-113.0
X69.0Y-118.0
X74.0Y-43.0
X74.0Y-48.0
X74.0Y-53.0
X74.0Y-58.0
X74.0Y-73.0
X74.0Y-93.0
X74.0Y-113.0
X74.0Y-118.0
X79.0Y-48.0
X79.0Y-53.0
X79.0Y-68.0
X79.0Y-88.0
X79.0Y-103.0
X79.0Y-108.0
X79.0Y-113.0
X79.0Y-118.0
X80.288Y-45.116
X80.288Y-64.166
X80.288Y-83.216
X80.292Y-59.629
X80.292Y-78.679
X80.292Y-97.729
X84.0Y-38.0
X84.0Y-48.0
X84.0Y-58.0
X84.0Y-68.0
X84.0Y-78.0
X84.0Y-88.0
X84.0Y-108.0
X84.0Y-113.0
X89.0Y-68.0
X89.0Y-88.0
X89.0Y-108.0
X89.0Y-113.0
X94.0Y-43.0
X94.0Y-48.0
X94.0Y-68.0
X94.0Y-88.0
X94.0Y-113.0
X97.042Y-121.09
X99.0Y-48.0
X99.338Y-53.054
X99.338Y-72.104
X99.338Y-91.154
X99.342Y-67.566
X99.342Y-86.616
X99.342Y-105.666
X104.0Y-48.0
X104.0Y-58.0
X104.0Y-63.0
X104.0Y-78.0
X104.0Y-83.0
X104.0Y-98.0
X104.0Y-103.0
X109.0Y-108.0
X109.0Y-113.0
X109.0Y-133.0
X109.0Y-138.0
X114.0Y-53.0
X114.0Y-58.0
X114.0Y-73.0
X114.0Y-78.0
X114.0Y-93.0
X114.0Y-103.0
X114.0Y-108.0
X114.0Y-113.0
X114.0Y-138.0
X116.456Y-117.129
X118.388Y-53.054
X118.388Y-72.104
X118.388Y-91.154
X118.392Y-67.566
X118.392Y-86.616
X118.392Y-105.666
X119.0Y-48.0
X124.0Y-48.0
X124.0Y-58.0
X124.0Y-68.0
X124.0Y-78.0
X124.0Y-83.0
X124.0Y-103.0
X124.0Y-133.0
X129.0Y-58.0
X129.0Y-78.0
X129.0Y-108.0
X129.0Y-113.0
X129.0Y-138.0
X129.0Y-143.0
X129.0Y-153.0
X129.0Y-158.0
X130.455Y-122.108
X130.455Y-134.593
X134.0Y-53.0
X134.0Y-58.0
X134.0Y-68.0
X134.0Y-73.0
X134.0Y-78.0
X134.0Y-108.0
X134.0Y-113.0
X134.0Y-133.0
X134.0Y-138.0
X134.0Y-143.0
X134.0Y-153.0
X134.0Y-158.0
X134.966Y-120.593
X139.0Y-43.0
X139.0Y-133.0
X139.0Y-138.0
X139.0Y-158.0
X144.0Y-73.0
X144.0Y-78.0
X144.0Y-88.0
X144.0Y-93.0
X144.0Y-98.0
X144.0Y-153.0
X147.042Y-121.723
X149.0Y-73.0
X149.0Y-78.0
X149.0Y-83.0
X149.0Y-93.0
X149.0Y-98.0
X149.0Y-103.0
X149.0Y-108.0
X149.0Y-168.0
X149.0Y-173.0
X149.0Y-178.0
X149.505Y-124.478
X149.505Y-141.239
X149.517Y-162.513
X154.0Y-73.0
X154.0Y-78.0
X154.0Y-83.0
X154.0Y-88.0
X154.0Y-98.0
X154.0Y-103.0
X154.0Y-133.0
X154.0Y-143.0
X154.0Y-153.0
X154.0Y-158.0
X154.0Y-173.0
X154.0Y-178.0
X159.0Y-73.0
X159.0Y-78.0
X159.0Y-83.0
X159.0Y-88.0
X159.0Y-93.0
X159.0Y-133.0
X159.0Y-153.0
X159.0Y-173.0
X159.0Y-178.0
X164.0Y-73.0
X164.0Y-78.0
X164.0Y-83.0
X164.0Y-93.0
X164.0Y-108.0
X164.0Y-113.0
X164.0Y-118.0
X164.0Y-128.0
X164.0Y-133.0
X164.0Y-168.0
X164.0Y-173.0
T2
X166.5Y-86.42
X166.5Y-88.96
X166.5Y-91.5
T3
X140.705Y-75.375
X140.705Y-77.915
X140.705Y-80.455
X140.705Y-82.995
X140.705Y-85.535
X140.705Y-88.075
X140.705Y-90.615
X140.705Y-93.155
X140.705Y-95.695
X140.705Y-98.235
X140.705Y-100.775
X140.705Y-103.315
X140.705Y-105.855
X140.705Y-108.395
X140.705Y-110.935
X140.705Y-113.475
X161.0Y-85.525
X161.0Y-88.065
X161.0Y-90.605
X161.0Y-93.145
X161.0Y-95.685
X161.0Y-98.225
X161.0Y-100.765
X161.0Y-103.305
X161.0Y-105.845
X161.0Y-108.385
X161.0Y-110.925
X161.0Y-113.465
X166.5Y-97.15
X166.5Y-99.69
X166.5Y-102.23
X166.5Y-104.77
X166.5Y-107.31
X166.5Y-109.85
M30
