G04 #@! TF.GenerationSoftware,KiCad,Pcbnew,8.0.6-8.0.6-0~ubuntu24.04.1*
G04 #@! TF.CreationDate,2025-02-09T13:09:52-05:00*
G04 #@! TF.ProjectId,keybird_left,6b657962-6972-4645-9f6c-6566742e6b69,rev?*
G04 #@! TF.SameCoordinates,Original*
G04 #@! TF.FileFunction,Paste,Bot*
G04 #@! TF.FilePolarity,Positive*
%FSLAX46Y46*%
G04 Gerber Fmt 4.6, Leading zero omitted, Abs format (unit mm)*
G04 Created by KiCad (PCBNEW 8.0.6-8.0.6-0~ubuntu24.04.1) date 2025-02-09 13:09:52*
%MOMM*%
%LPD*%
G01*
G04 APERTURE LIST*
G04 Aperture macros list*
%AMRoundRect*
0 Rectangle with rounded corners*
0 $1 Rounding radius*
0 $2 $3 $4 $5 $6 $7 $8 $9 X,Y pos of 4 corners*
0 Add a 4 corners polygon primitive as box body*
4,1,4,$2,$3,$4,$5,$6,$7,$8,$9,$2,$3,0*
0 Add four circle primitives for the rounded corners*
1,1,$1+$1,$2,$3*
1,1,$1+$1,$4,$5*
1,1,$1+$1,$6,$7*
1,1,$1+$1,$8,$9*
0 Add four rect primitives between the rounded corners*
20,1,$1+$1,$2,$3,$4,$5,0*
20,1,$1+$1,$4,$5,$6,$7,0*
20,1,$1+$1,$6,$7,$8,$9,0*
20,1,$1+$1,$8,$9,$2,$3,0*%
G04 Aperture macros list end*
%ADD10RoundRect,0.250000X-1.025000X-1.000000X1.025000X-1.000000X1.025000X1.000000X-1.025000X1.000000X0*%
%ADD11R,1.200000X1.200000*%
G04 APERTURE END LIST*
D10*
X23140000Y-100315000D03*
X36067000Y-97775000D03*
X118390000Y-88885000D03*
X131317000Y-86345000D03*
X42190000Y-81265000D03*
X55117000Y-78725000D03*
X118390000Y-107935000D03*
X131317000Y-105395000D03*
X111405000Y-126985000D03*
X124332000Y-124445000D03*
X80290000Y-80947500D03*
X93217000Y-78407500D03*
X99340000Y-107935000D03*
X112267000Y-105395000D03*
X61240000Y-105395000D03*
X74167000Y-102855000D03*
X99340000Y-69835000D03*
X112267000Y-67295000D03*
X61240000Y-86345000D03*
X74167000Y-83805000D03*
X80290000Y-42847500D03*
X93217000Y-40307500D03*
X118390000Y-69835000D03*
X131317000Y-67295000D03*
X42190000Y-62215000D03*
X55117000Y-59675000D03*
X23140000Y-81265000D03*
X36067000Y-78725000D03*
X130455000Y-146035000D03*
X143382000Y-143495000D03*
X42190000Y-119365000D03*
X55117000Y-116825000D03*
X23140000Y-119365000D03*
X36067000Y-116825000D03*
X130455000Y-126985000D03*
X143382000Y-124445000D03*
X80290000Y-61897500D03*
X93217000Y-59357500D03*
X99340000Y-88885000D03*
X112267000Y-86345000D03*
X61240000Y-67295000D03*
X74167000Y-64755000D03*
X61240000Y-48245000D03*
X74167000Y-45705000D03*
X149505000Y-146035000D03*
X162432000Y-143495000D03*
X149505000Y-126985000D03*
X162432000Y-124445000D03*
X99340000Y-50785000D03*
X112267000Y-48245000D03*
X80290000Y-99997500D03*
X93217000Y-97457500D03*
X118390000Y-50785000D03*
X131317000Y-48245000D03*
X149505000Y-165085000D03*
X162432000Y-162545000D03*
X42190000Y-100315000D03*
X55117000Y-97775000D03*
D11*
X52875000Y-112380000D03*
X55675000Y-112380000D03*
X90975000Y-54912500D03*
X93775000Y-54912500D03*
X71925000Y-41260000D03*
X74725000Y-41260000D03*
X90975000Y-93012500D03*
X93775000Y-93012500D03*
X110025000Y-62850000D03*
X112825000Y-62850000D03*
X110025000Y-43800000D03*
X112825000Y-43800000D03*
X52875000Y-74280000D03*
X55675000Y-74280000D03*
X52875000Y-55230000D03*
X55675000Y-55230000D03*
X71925000Y-98410000D03*
X74725000Y-98410000D03*
X33825000Y-93330000D03*
X36625000Y-93330000D03*
X160190000Y-120000000D03*
X162990000Y-120000000D03*
X129075000Y-100950000D03*
X131875000Y-100950000D03*
X71925000Y-79360000D03*
X74725000Y-79360000D03*
X129075000Y-62850000D03*
X131875000Y-62850000D03*
X90975000Y-35862500D03*
X93775000Y-35862500D03*
X141140000Y-120000000D03*
X143940000Y-120000000D03*
X33825000Y-112380000D03*
X36625000Y-112380000D03*
X52875000Y-93330000D03*
X55675000Y-93330000D03*
X122090000Y-120000000D03*
X124890000Y-120000000D03*
X141140000Y-139050000D03*
X143940000Y-139050000D03*
X108025000Y-100950000D03*
X110825000Y-100950000D03*
X90975000Y-73962500D03*
X93775000Y-73962500D03*
X129075000Y-43800000D03*
X131875000Y-43800000D03*
X71925000Y-60310000D03*
X74725000Y-60310000D03*
X129075000Y-81900000D03*
X131875000Y-81900000D03*
X160190000Y-158100000D03*
X162990000Y-158100000D03*
X110025000Y-81900000D03*
X112825000Y-81900000D03*
X33825000Y-74280000D03*
X36625000Y-74280000D03*
X160190000Y-139050000D03*
X162990000Y-139050000D03*
M02*
